%TF.GenerationSoftware,KiCad,Pcbnew,8.0.6*%
%TF.CreationDate,2024-11-01T15:41:52-06:00*%
%TF.ProjectId,simple_split,73696d70-6c65-45f7-9370-6c69742e6b69,v1.0.0*%
%TF.SameCoordinates,Original*%
%TF.FileFunction,Paste,Bot*%
%TF.FilePolarity,Positive*%
%FSLAX46Y46*%
G04 Gerber Fmt 4.6, Leading zero omitted, Abs format (unit mm)*
G04 Created by KiCad (PCBNEW 8.0.6) date 2024-11-01 15:41:52*
%MOMM*%
%LPD*%
G01*
G04 APERTURE LIST*
%ADD10R,2.600000X2.600000*%
%ADD11R,0.900000X1.200000*%
%ADD12R,1.200000X0.900000*%
G04 APERTURE END LIST*
D10*
%TO.C,S33*%
X256182500Y-115302000D03*
X244632500Y-113102000D03*
%TD*%
D11*
%TO.C,D26*%
X236652000Y-175858000D03*
X233352000Y-175858000D03*
%TD*%
%TO.C,D24*%
X194364000Y-176112000D03*
X197664000Y-176112000D03*
%TD*%
D10*
%TO.C,S31*%
X192000500Y-191302000D03*
X180450500Y-189102000D03*
%TD*%
%TO.C,S8*%
X128445000Y-134302000D03*
X116895000Y-132102000D03*
%TD*%
D11*
%TO.C,D6*%
X226746000Y-118708000D03*
X223446000Y-118708000D03*
%TD*%
%TO.C,D33*%
X260400000Y-118454000D03*
X257100000Y-118454000D03*
%TD*%
%TO.C,D9*%
X161214000Y-138012000D03*
X157914000Y-138012000D03*
%TD*%
%TO.C,D16*%
X170358000Y-156300000D03*
X167058000Y-156300000D03*
%TD*%
%TO.C,D10*%
X179502000Y-137758000D03*
X176202000Y-137758000D03*
%TD*%
D10*
%TO.C,S20*%
X238354000Y-153302000D03*
X226804000Y-151102000D03*
%TD*%
%TO.C,S11*%
X190829000Y-134302000D03*
X179279000Y-132102000D03*
%TD*%
D11*
%TO.C,D23*%
X167184000Y-176112000D03*
X163884000Y-176112000D03*
%TD*%
%TO.C,D7*%
X248082000Y-117946000D03*
X244782000Y-117946000D03*
%TD*%
D10*
%TO.C,S6*%
X218182500Y-115302000D03*
X206632500Y-113102000D03*
%TD*%
%TO.C,S35*%
X123182500Y-96750000D03*
X111632500Y-94550000D03*
%TD*%
%TO.C,S4*%
X180182500Y-115302000D03*
X168632500Y-113102000D03*
%TD*%
%TO.C,S3*%
X161182500Y-115302000D03*
X149632500Y-113102000D03*
%TD*%
D11*
%TO.C,D15*%
X152000000Y-156808000D03*
X148700000Y-156808000D03*
%TD*%
D10*
%TO.C,S5*%
X199182500Y-115302000D03*
X187632500Y-113102000D03*
%TD*%
D11*
%TO.C,D4*%
X189026000Y-118454000D03*
X185726000Y-118454000D03*
%TD*%
%TO.C,D5*%
X207568000Y-118962000D03*
X204268000Y-118962000D03*
%TD*%
D10*
%TO.C,S25*%
X209879000Y-172302000D03*
X198329000Y-170102000D03*
%TD*%
%TO.C,S7*%
X237182500Y-115302000D03*
X225632500Y-113102000D03*
%TD*%
%TO.C,S1*%
X123182500Y-115302000D03*
X111632500Y-113102000D03*
%TD*%
D12*
%TO.C,D30*%
X155246000Y-174462000D03*
X155246000Y-177762000D03*
%TD*%
D11*
%TO.C,D28*%
X267388000Y-176366000D03*
X270688000Y-176366000D03*
%TD*%
D10*
%TO.C,S12*%
X209829000Y-134302000D03*
X198279000Y-132102000D03*
%TD*%
%TO.C,S24*%
X190879000Y-172302000D03*
X179329000Y-170102000D03*
%TD*%
D11*
%TO.C,D12*%
X218490000Y-138012000D03*
X215190000Y-138012000D03*
%TD*%
%TO.C,D17*%
X190424000Y-157062000D03*
X187124000Y-157062000D03*
%TD*%
%TO.C,D14*%
X258242000Y-136996000D03*
X254942000Y-136996000D03*
%TD*%
%TO.C,D20*%
X239956000Y-157062000D03*
X243256000Y-157062000D03*
%TD*%
%TO.C,D25*%
X208586000Y-177636000D03*
X205286000Y-177636000D03*
%TD*%
%TO.C,D22*%
X152800000Y-188000000D03*
X149500000Y-188000000D03*
%TD*%
D10*
%TO.C,S2*%
X142182500Y-115302000D03*
X130632500Y-113102000D03*
%TD*%
D11*
%TO.C,D3*%
X169850000Y-119216000D03*
X166550000Y-119216000D03*
%TD*%
D10*
%TO.C,S16*%
X162354000Y-153302000D03*
X150804000Y-151102000D03*
%TD*%
%TO.C,S21*%
X257354000Y-153302000D03*
X245804000Y-151102000D03*
%TD*%
%TO.C,S26*%
X228879000Y-172302000D03*
X217329000Y-170102000D03*
%TD*%
D11*
%TO.C,D21*%
X260784000Y-157316000D03*
X264084000Y-157316000D03*
%TD*%
D10*
%TO.C,S17*%
X181354000Y-153302000D03*
X169804000Y-151102000D03*
%TD*%
%TO.C,S18*%
X200354000Y-153302000D03*
X188804000Y-151102000D03*
%TD*%
D12*
%TO.C,D35*%
X129000000Y-103150000D03*
X129000000Y-99850000D03*
%TD*%
D10*
%TO.C,S32*%
X230550500Y-191302000D03*
X219000500Y-189102000D03*
%TD*%
%TO.C,S29*%
X133207500Y-191302000D03*
X121657500Y-189102000D03*
%TD*%
D11*
%TO.C,D31*%
X179630000Y-177128000D03*
X182930000Y-177128000D03*
%TD*%
D10*
%TO.C,S23*%
X171879000Y-172302000D03*
X160329000Y-170102000D03*
%TD*%
D11*
%TO.C,D11*%
X199186000Y-138012000D03*
X195886000Y-138012000D03*
%TD*%
D10*
%TO.C,S14*%
X247829000Y-134302000D03*
X236279000Y-132102000D03*
%TD*%
D11*
%TO.C,D32*%
X207700000Y-184000000D03*
X211000000Y-184000000D03*
%TD*%
%TO.C,D2*%
X150546000Y-118962000D03*
X147246000Y-118962000D03*
%TD*%
%TO.C,D27*%
X251386000Y-176112000D03*
X254686000Y-176112000D03*
%TD*%
D10*
%TO.C,S27*%
X247879000Y-172302000D03*
X236329000Y-170102000D03*
%TD*%
%TO.C,S28*%
X266879000Y-172302000D03*
X255329000Y-170102000D03*
%TD*%
D11*
%TO.C,D29*%
X152150000Y-190500000D03*
X148850000Y-190500000D03*
%TD*%
%TO.C,D13*%
X237032000Y-138012000D03*
X233732000Y-138012000D03*
%TD*%
D10*
%TO.C,S15*%
X133207500Y-153302000D03*
X121657500Y-151102000D03*
%TD*%
%TO.C,S22*%
X137970000Y-172302000D03*
X126420000Y-170102000D03*
%TD*%
D11*
%TO.C,D19*%
X221668000Y-156554000D03*
X224968000Y-156554000D03*
%TD*%
D10*
%TO.C,S19*%
X219354000Y-153302000D03*
X207804000Y-151102000D03*
%TD*%
%TO.C,S9*%
X152829000Y-134302000D03*
X141279000Y-132102000D03*
%TD*%
D11*
%TO.C,D18*%
X202110000Y-156808000D03*
X205410000Y-156808000D03*
%TD*%
D10*
%TO.C,S13*%
X228829000Y-134302000D03*
X217279000Y-132102000D03*
%TD*%
D11*
%TO.C,D1*%
X131116000Y-118708000D03*
X127816000Y-118708000D03*
%TD*%
%TO.C,D8*%
X148150000Y-143500000D03*
X144850000Y-143500000D03*
%TD*%
D10*
%TO.C,S10*%
X171829000Y-134302000D03*
X160279000Y-132102000D03*
%TD*%
%TO.C,S30*%
X167616500Y-191302000D03*
X156066500Y-189102000D03*
%TD*%
M02*
