%TF.GenerationSoftware,KiCad,Pcbnew,8.0.6*%
%TF.CreationDate,2024-11-03T15:23:54-07:00*%
%TF.ProjectId,simple_split,73696d70-6c65-45f7-9370-6c69742e6b69,v1.0.0*%
%TF.SameCoordinates,Original*%
%TF.FileFunction,Copper,L2,Bot*%
%TF.FilePolarity,Positive*%
%FSLAX46Y46*%
G04 Gerber Fmt 4.6, Leading zero omitted, Abs format (unit mm)*
G04 Created by KiCad (PCBNEW 8.0.6) date 2024-11-03 15:23:54*
%MOMM*%
%LPD*%
G01*
G04 APERTURE LIST*
G04 Aperture macros list*
%AMRoundRect*
0 Rectangle with rounded corners*
0 $1 Rounding radius*
0 $2 $3 $4 $5 $6 $7 $8 $9 X,Y pos of 4 corners*
0 Add a 4 corners polygon primitive as box body*
4,1,4,$2,$3,$4,$5,$6,$7,$8,$9,$2,$3,0*
0 Add four circle primitives for the rounded corners*
1,1,$1+$1,$2,$3*
1,1,$1+$1,$4,$5*
1,1,$1+$1,$6,$7*
1,1,$1+$1,$8,$9*
0 Add four rect primitives between the rounded corners*
20,1,$1+$1,$2,$3,$4,$5,0*
20,1,$1+$1,$4,$5,$6,$7,0*
20,1,$1+$1,$6,$7,$8,$9,0*
20,1,$1+$1,$8,$9,$2,$3,0*%
%AMFreePoly0*
4,1,7,0.700000,0.000000,1.200000,-0.750000,-1.200000,-0.750000,-0.700000,0.000000,-1.200000,0.750000,1.200000,0.750000,0.700000,0.000000,0.700000,0.000000,$1*%
%AMFreePoly1*
4,1,6,1.000000,0.000000,0.500000,-0.750000,-0.500000,-0.750000,-0.500000,0.750000,0.500000,0.750000,1.000000,0.000000,1.000000,0.000000,$1*%
G04 Aperture macros list end*
%TA.AperFunction,SMDPad,CuDef*%
%ADD10FreePoly0,180.000000*%
%TD*%
%TA.AperFunction,SMDPad,CuDef*%
%ADD11FreePoly1,180.000000*%
%TD*%
%TA.AperFunction,SMDPad,CuDef*%
%ADD12FreePoly1,0.000000*%
%TD*%
%TA.AperFunction,ComponentPad*%
%ADD13C,2.032000*%
%TD*%
%TA.AperFunction,SMDPad,CuDef*%
%ADD14R,2.600000X2.600000*%
%TD*%
%TA.AperFunction,ComponentPad*%
%ADD15C,0.800000*%
%TD*%
%TA.AperFunction,SMDPad,CuDef*%
%ADD16R,0.900000X1.200000*%
%TD*%
%TA.AperFunction,SMDPad,CuDef*%
%ADD17R,1.200000X0.900000*%
%TD*%
%TA.AperFunction,ComponentPad*%
%ADD18C,1.400000*%
%TD*%
%TA.AperFunction,ComponentPad*%
%ADD19O,1.400000X1.400000*%
%TD*%
%TA.AperFunction,ComponentPad*%
%ADD20RoundRect,0.250000X-0.750000X0.600000X-0.750000X-0.600000X0.750000X-0.600000X0.750000X0.600000X0*%
%TD*%
%TA.AperFunction,ComponentPad*%
%ADD21O,2.000000X1.700000*%
%TD*%
%TA.AperFunction,ComponentPad*%
%ADD22R,2.000000X2.000000*%
%TD*%
%TA.AperFunction,ComponentPad*%
%ADD23C,2.000000*%
%TD*%
%TA.AperFunction,ComponentPad*%
%ADD24R,1.778000X1.524000*%
%TD*%
%TA.AperFunction,ComponentPad*%
%ADD25C,1.778000*%
%TD*%
%TA.AperFunction,ComponentPad*%
%ADD26O,3.500000X2.200000*%
%TD*%
%TA.AperFunction,ComponentPad*%
%ADD27R,2.500000X1.500000*%
%TD*%
%TA.AperFunction,ComponentPad*%
%ADD28O,2.500000X1.500000*%
%TD*%
%TA.AperFunction,ComponentPad*%
%ADD29O,1.800000X2.800000*%
%TD*%
%TA.AperFunction,ComponentPad*%
%ADD30R,2.000000X3.200000*%
%TD*%
%TA.AperFunction,ViaPad*%
%ADD31C,0.800000*%
%TD*%
%TA.AperFunction,Conductor*%
%ADD32C,0.250000*%
%TD*%
%TA.AperFunction,Conductor*%
%ADD33C,0.200000*%
%TD*%
G04 APERTURE END LIST*
D10*
%TO.P,ExtraButtonsSelect1,1,COM*%
%TO.N,/6*%
X268800000Y-102000000D03*
D11*
%TO.P,ExtraButtonsSelect1,2,L*%
%TO.N,/TXD*%
X270800000Y-102000000D03*
D12*
%TO.P,ExtraButtonsSelect1,3,R*%
%TO.N,/RXI*%
X266800000Y-102000000D03*
%TD*%
D13*
%TO.P,F6,2,B*%
%TO.N,Net-(D40-A)*%
X238907500Y-87000000D03*
D14*
X225632500Y-94550000D03*
%TO.P,F6,1,A*%
%TO.N,/F*%
X237182500Y-96750000D03*
D13*
X233907500Y-84900000D03*
%TO.P,F6,2,B*%
%TO.N,Net-(D40-A)*%
X228907500Y-87000000D03*
%TD*%
%TO.P,F5,2,B*%
%TO.N,Net-(D39-A)*%
X219907500Y-87000000D03*
D14*
X206632500Y-94550000D03*
%TO.P,F5,1,A*%
%TO.N,/E*%
X218182500Y-96750000D03*
D13*
X214907500Y-84900000D03*
%TO.P,F5,2,B*%
%TO.N,Net-(D39-A)*%
X209907500Y-87000000D03*
%TD*%
%TO.P,F4,2,B*%
%TO.N,Net-(D38-A)*%
X200907500Y-87000000D03*
D14*
X187632500Y-94550000D03*
%TO.P,F4,1,A*%
%TO.N,/D*%
X199182500Y-96750000D03*
D13*
X195907500Y-84900000D03*
%TO.P,F4,2,B*%
%TO.N,Net-(D38-A)*%
X190907500Y-87000000D03*
%TD*%
%TO.P,F3,2,B*%
%TO.N,Net-(D37-A)*%
X181907500Y-87000000D03*
D14*
X168632500Y-94550000D03*
%TO.P,F3,1,A*%
%TO.N,/C*%
X180182500Y-96750000D03*
D13*
X176907500Y-84900000D03*
%TO.P,F3,2,B*%
%TO.N,Net-(D37-A)*%
X171907500Y-87000000D03*
%TD*%
%TO.P,F2,2,B*%
%TO.N,Net-(D36-A)*%
X162907500Y-87000000D03*
D14*
X149632500Y-94550000D03*
%TO.P,F2,1,A*%
%TO.N,/B*%
X161182500Y-96750000D03*
D13*
X157907500Y-84900000D03*
%TO.P,F2,2,B*%
%TO.N,Net-(D36-A)*%
X152907500Y-87000000D03*
%TD*%
%TO.P,F1,2,B*%
%TO.N,Net-(D34-A)*%
X143907500Y-87000000D03*
D14*
X130632500Y-94550000D03*
%TO.P,F1,1,A*%
%TO.N,/A*%
X142182500Y-96750000D03*
D13*
X138907500Y-84900000D03*
%TO.P,F1,2,B*%
%TO.N,Net-(D34-A)*%
X133907500Y-87000000D03*
%TD*%
%TO.P,Extra_Function_Key1,2,B*%
%TO.N,Net-(D41-A)*%
X257907500Y-87000000D03*
D14*
X244632500Y-94550000D03*
%TO.P,Extra_Function_Key1,1,A*%
%TO.N,/G*%
X256182500Y-96750000D03*
D13*
X252907500Y-84900000D03*
%TO.P,Extra_Function_Key1,2,B*%
%TO.N,Net-(D41-A)*%
X247907500Y-87000000D03*
%TD*%
D15*
%TO.P,D41,1,K*%
%TO.N,/6*%
X247650000Y-101000000D03*
D16*
X247650000Y-101000000D03*
D15*
%TO.P,D41,2,A*%
%TO.N,Net-(D41-A)*%
X244350000Y-101000000D03*
D16*
X244350000Y-101000000D03*
%TD*%
D15*
%TO.P,D40,1,K*%
%TO.N,/6*%
X229650000Y-101000000D03*
D16*
X229650000Y-101000000D03*
D15*
%TO.P,D40,2,A*%
%TO.N,Net-(D40-A)*%
X226350000Y-101000000D03*
D16*
X226350000Y-101000000D03*
%TD*%
D15*
%TO.P,D39,1,K*%
%TO.N,/6*%
X208150000Y-100500000D03*
D16*
X208150000Y-100500000D03*
D15*
%TO.P,D39,2,A*%
%TO.N,Net-(D39-A)*%
X204850000Y-100500000D03*
D16*
X204850000Y-100500000D03*
%TD*%
D15*
%TO.P,D38,1,K*%
%TO.N,/6*%
X189500000Y-100500000D03*
D16*
X189500000Y-100500000D03*
D15*
%TO.P,D38,2,A*%
%TO.N,Net-(D38-A)*%
X186200000Y-100500000D03*
D16*
X186200000Y-100500000D03*
%TD*%
D15*
%TO.P,D37,1,K*%
%TO.N,/6*%
X170150000Y-100500000D03*
D16*
X170150000Y-100500000D03*
D15*
%TO.P,D37,2,A*%
%TO.N,Net-(D37-A)*%
X166850000Y-100500000D03*
D16*
X166850000Y-100500000D03*
%TD*%
D15*
%TO.P,D36,1,K*%
%TO.N,/6*%
X147000000Y-101150000D03*
D17*
X147000000Y-101150000D03*
D15*
%TO.P,D36,2,A*%
%TO.N,Net-(D36-A)*%
X147000000Y-97850000D03*
D17*
X147000000Y-97850000D03*
%TD*%
D15*
%TO.P,D34,1,K*%
%TO.N,/6*%
X130000000Y-103650000D03*
D17*
X130000000Y-103650000D03*
D15*
%TO.P,D34,2,A*%
%TO.N,Net-(D34-A)*%
X130000000Y-100350000D03*
D17*
X130000000Y-100350000D03*
%TD*%
D14*
%TO.P,S33,2,B*%
%TO.N,Net-(D33-A)*%
X244632500Y-113102000D03*
D13*
X247907500Y-105552000D03*
X257907500Y-105552000D03*
%TO.P,S33,1,A*%
%TO.N,/F*%
X252907500Y-103452000D03*
D14*
X256182500Y-115302000D03*
%TD*%
D18*
%TO.P,R3,1*%
%TO.N,/Rotary_A*%
X267260000Y-114644000D03*
D19*
%TO.P,R3,2*%
%TO.N,/VCC*%
X267260000Y-107024000D03*
%TD*%
D15*
%TO.P,D26,1,K*%
%TO.N,/4*%
X236652000Y-175858000D03*
D16*
X236652000Y-175858000D03*
D15*
%TO.P,D26,2,A*%
%TO.N,Net-(D26-A)*%
X233352000Y-175858000D03*
D16*
X233352000Y-175858000D03*
%TD*%
D15*
%TO.P,D24,1,K*%
%TO.N,/4*%
X194364000Y-176112000D03*
D16*
X194364000Y-176112000D03*
D15*
%TO.P,D24,2,A*%
%TO.N,Net-(D24-A)*%
X197664000Y-176112000D03*
D16*
X197664000Y-176112000D03*
%TD*%
D14*
%TO.P,S31,1,A*%
%TO.N,/C*%
X192000500Y-191302000D03*
D13*
X188725500Y-179452000D03*
%TO.P,S31,2,B*%
%TO.N,Net-(D31-A)*%
X193725500Y-181552000D03*
X183725500Y-181552000D03*
D14*
X180450500Y-189102000D03*
%TD*%
%TO.P,S8,1,A*%
%TO.N,/A*%
X128445000Y-134302000D03*
D13*
X125170000Y-122452000D03*
%TO.P,S8,2,B*%
%TO.N,Net-(D8-A)*%
X130170000Y-124552000D03*
X120170000Y-124552000D03*
D14*
X116895000Y-132102000D03*
%TD*%
D15*
%TO.P,D6,1,K*%
%TO.N,/1*%
X226746000Y-118708000D03*
D16*
X226746000Y-118708000D03*
D15*
%TO.P,D6,2,A*%
%TO.N,Net-(D6-A)*%
X223446000Y-118708000D03*
D16*
X223446000Y-118708000D03*
%TD*%
D15*
%TO.P,D33,1,K*%
%TO.N,/5*%
X260400000Y-118454000D03*
D16*
X260400000Y-118454000D03*
D15*
%TO.P,D33,2,A*%
%TO.N,Net-(D33-A)*%
X257100000Y-118454000D03*
D16*
X257100000Y-118454000D03*
%TD*%
D15*
%TO.P,D9,1,K*%
%TO.N,/2*%
X161214000Y-138012000D03*
D16*
X161214000Y-138012000D03*
D15*
%TO.P,D9,2,A*%
%TO.N,Net-(D9-A)*%
X157914000Y-138012000D03*
D16*
X157914000Y-138012000D03*
%TD*%
D15*
%TO.P,D16,1,K*%
%TO.N,/3*%
X170358000Y-156300000D03*
D16*
X170358000Y-156300000D03*
D15*
%TO.P,D16,2,A*%
%TO.N,Net-(D16-A)*%
X167058000Y-156300000D03*
D16*
X167058000Y-156300000D03*
%TD*%
D15*
%TO.P,D10,1,K*%
%TO.N,/2*%
X179502000Y-137758000D03*
D16*
X179502000Y-137758000D03*
D15*
%TO.P,D10,2,A*%
%TO.N,Net-(D10-A)*%
X176202000Y-137758000D03*
D16*
X176202000Y-137758000D03*
%TD*%
D14*
%TO.P,S20,1,A*%
%TO.N,/F*%
X238354000Y-153302000D03*
D13*
X235079000Y-141452000D03*
%TO.P,S20,2,B*%
%TO.N,Net-(D20-A)*%
X240079000Y-143552000D03*
X230079000Y-143552000D03*
D14*
X226804000Y-151102000D03*
%TD*%
%TO.P,S11,1,A*%
%TO.N,/D*%
X190829000Y-134302000D03*
D13*
X187554000Y-122452000D03*
%TO.P,S11,2,B*%
%TO.N,Net-(D11-A)*%
X192554000Y-124552000D03*
X182554000Y-124552000D03*
D14*
X179279000Y-132102000D03*
%TD*%
D20*
%TO.P,J2,1,Pin_1*%
%TO.N,Net-(J2-Pin_1)*%
X280475500Y-189848000D03*
D21*
%TO.P,J2,2,Pin_2*%
%TO.N,/Bat-*%
X280475500Y-192348000D03*
%TD*%
D15*
%TO.P,D23,1,K*%
%TO.N,/4*%
X167184000Y-176112000D03*
D16*
X167184000Y-176112000D03*
D15*
%TO.P,D23,2,A*%
%TO.N,Net-(D23-A)*%
X163884000Y-176112000D03*
D16*
X163884000Y-176112000D03*
%TD*%
D15*
%TO.P,D7,1,K*%
%TO.N,/1*%
X248082000Y-117946000D03*
D16*
X248082000Y-117946000D03*
D15*
%TO.P,D7,2,A*%
%TO.N,Net-(D7-A)*%
X244782000Y-117946000D03*
D16*
X244782000Y-117946000D03*
%TD*%
D14*
%TO.P,S6,1,A*%
%TO.N,/F*%
X218182500Y-115302000D03*
D13*
X214907500Y-103452000D03*
%TO.P,S6,2,B*%
%TO.N,Net-(D6-A)*%
X219907500Y-105552000D03*
X209907500Y-105552000D03*
D14*
X206632500Y-113102000D03*
%TD*%
D22*
%TO.P,U2,1,GND*%
%TO.N,/GND*%
X267260000Y-185256000D03*
D23*
%TO.P,U2,2,VCC*%
%TO.N,/VCC*%
X269800000Y-185256000D03*
%TO.P,U2,3,SCL*%
%TO.N,/SCL*%
X272340000Y-185256000D03*
%TO.P,U2,4,SDA*%
%TO.N,/SDA*%
X274880000Y-185256000D03*
%TD*%
D14*
%TO.P,S35,1,A*%
%TO.N,/G*%
X123182500Y-96750000D03*
D13*
X119907500Y-84900000D03*
%TO.P,S35,2,B*%
%TO.N,Net-(D35-A)*%
X124907500Y-87000000D03*
X114907500Y-87000000D03*
D14*
X111632500Y-94550000D03*
%TD*%
%TO.P,S4,1,A*%
%TO.N,/D*%
X180182500Y-115302000D03*
D13*
X176907500Y-103452000D03*
%TO.P,S4,2,B*%
%TO.N,Net-(D4-A)*%
X181907500Y-105552000D03*
X171907500Y-105552000D03*
D14*
X168632500Y-113102000D03*
%TD*%
%TO.P,S3,1,A*%
%TO.N,/C*%
X161182500Y-115302000D03*
D13*
X157907500Y-103452000D03*
%TO.P,S3,2,B*%
%TO.N,Net-(D3-A)*%
X162907500Y-105552000D03*
X152907500Y-105552000D03*
D14*
X149632500Y-113102000D03*
%TD*%
D15*
%TO.P,D15,1,K*%
%TO.N,/3*%
X152000000Y-156808000D03*
D16*
X152000000Y-156808000D03*
D15*
%TO.P,D15,2,A*%
%TO.N,Net-(D15-A)*%
X148700000Y-156808000D03*
D16*
X148700000Y-156808000D03*
%TD*%
D14*
%TO.P,S5,1,A*%
%TO.N,/E*%
X199182500Y-115302000D03*
D13*
X195907500Y-103452000D03*
%TO.P,S5,2,B*%
%TO.N,Net-(D5-A)*%
X200907500Y-105552000D03*
X190907500Y-105552000D03*
D14*
X187632500Y-113102000D03*
%TD*%
D15*
%TO.P,D4,1,K*%
%TO.N,/1*%
X189026000Y-118454000D03*
D16*
X189026000Y-118454000D03*
D15*
%TO.P,D4,2,A*%
%TO.N,Net-(D4-A)*%
X185726000Y-118454000D03*
D16*
X185726000Y-118454000D03*
%TD*%
D15*
%TO.P,D5,1,K*%
%TO.N,/1*%
X207568000Y-118962000D03*
D16*
X207568000Y-118962000D03*
D15*
%TO.P,D5,2,A*%
%TO.N,Net-(D5-A)*%
X204268000Y-118962000D03*
D16*
X204268000Y-118962000D03*
%TD*%
D14*
%TO.P,S25,1,A*%
%TO.N,/D*%
X209879000Y-172302000D03*
D13*
X206604000Y-160452000D03*
%TO.P,S25,2,B*%
%TO.N,Net-(D25-A)*%
X211604000Y-162552000D03*
X201604000Y-162552000D03*
D14*
X198329000Y-170102000D03*
%TD*%
%TO.P,S7,1,A*%
%TO.N,/G*%
X237182500Y-115302000D03*
D13*
X233907500Y-103452000D03*
%TO.P,S7,2,B*%
%TO.N,Net-(D7-A)*%
X238907500Y-105552000D03*
X228907500Y-105552000D03*
D14*
X225632500Y-113102000D03*
%TD*%
%TO.P,S1,1,A*%
%TO.N,/A*%
X123182500Y-115302000D03*
D13*
X119907500Y-103452000D03*
%TO.P,S1,2,B*%
%TO.N,Net-(D1-A)*%
X124907500Y-105552000D03*
X114907500Y-105552000D03*
D14*
X111632500Y-113102000D03*
%TD*%
D15*
%TO.P,D30,1,K*%
%TO.N,/5*%
X155246000Y-174462000D03*
D17*
X155246000Y-174462000D03*
D15*
%TO.P,D30,2,A*%
%TO.N,Net-(D30-A)*%
X155246000Y-177762000D03*
D17*
X155246000Y-177762000D03*
%TD*%
D15*
%TO.P,D28,1,K*%
%TO.N,/4*%
X267388000Y-176366000D03*
D16*
X267388000Y-176366000D03*
D15*
%TO.P,D28,2,A*%
%TO.N,Net-(D28-A)*%
X270688000Y-176366000D03*
D16*
X270688000Y-176366000D03*
%TD*%
D14*
%TO.P,S12,1,A*%
%TO.N,/E*%
X209829000Y-134302000D03*
D13*
X206554000Y-122452000D03*
%TO.P,S12,2,B*%
%TO.N,Net-(D12-A)*%
X211554000Y-124552000D03*
X201554000Y-124552000D03*
D14*
X198279000Y-132102000D03*
%TD*%
%TO.P,S24,1,A*%
%TO.N,/C*%
X190879000Y-172302000D03*
D13*
X187604000Y-160452000D03*
%TO.P,S24,2,B*%
%TO.N,Net-(D24-A)*%
X192604000Y-162552000D03*
X182604000Y-162552000D03*
D14*
X179329000Y-170102000D03*
%TD*%
D15*
%TO.P,D12,1,K*%
%TO.N,/2*%
X218490000Y-138012000D03*
D16*
X218490000Y-138012000D03*
D15*
%TO.P,D12,2,A*%
%TO.N,Net-(D12-A)*%
X215190000Y-138012000D03*
D16*
X215190000Y-138012000D03*
%TD*%
D24*
%TO.P,U1,0,GND*%
%TO.N,Net-(GND2-COM)*%
X273356000Y-103595000D03*
D25*
%TO.P,U1,1,Txd*%
%TO.N,Net-(TXD2-COM)*%
X273356000Y-106135000D03*
%TO.P,U1,2,RXI*%
%TO.N,Net-(RXI2-COM)*%
X273356000Y-108675000D03*
%TO.P,U1,3,GND*%
%TO.N,unconnected-(U1-GND-Pad3)*%
X273356000Y-111215000D03*
%TO.P,U1,4,GND*%
%TO.N,Net-(GND1-COM)*%
X273356000Y-113755000D03*
%TO.P,U1,5,2*%
%TO.N,/F*%
X273356000Y-116295000D03*
%TO.P,U1,6,3*%
%TO.N,/E*%
X273356000Y-118835000D03*
%TO.P,U1,7,4*%
%TO.N,/D*%
X273356000Y-121375000D03*
%TO.P,U1,8,5*%
%TO.N,/C*%
X273356000Y-123915000D03*
%TO.P,U1,9,6*%
%TO.N,Net-(SDA1-COM)*%
X273356000Y-126455000D03*
%TO.P,U1,10,7*%
%TO.N,Net-(SCL1-COM)*%
X273356000Y-128995000D03*
%TO.P,U1,11,8*%
%TO.N,/B*%
X273356000Y-131535000D03*
%TO.P,U1,12,9*%
%TO.N,/A*%
X273356000Y-134075000D03*
%TO.P,U1,13,10*%
%TO.N,/5*%
X288596000Y-134075000D03*
%TO.P,U1,14,16*%
%TO.N,/4*%
X288596000Y-131535000D03*
%TO.P,U1,15,14*%
%TO.N,Net-(P3-COM)*%
X288596000Y-128995000D03*
%TO.P,U1,16,15*%
%TO.N,Net-(P2-COM)*%
X288596000Y-126455000D03*
%TO.P,U1,17,A0*%
%TO.N,/1*%
X288596000Y-123915000D03*
%TO.P,U1,18,A1*%
%TO.N,/Rotary_A*%
X288596000Y-121375000D03*
%TO.P,U1,19,A2*%
%TO.N,/Rotary_B*%
X288596000Y-118835000D03*
%TO.P,U1,20,A3*%
%TO.N,/G*%
X288596000Y-116295000D03*
%TO.P,U1,21,VCC*%
%TO.N,Net-(U1-VCC)*%
X288596000Y-113755000D03*
%TO.P,U1,22,RST*%
%TO.N,unconnected-(U1-RST-Pad22)*%
X288596000Y-111215000D03*
%TO.P,U1,23,GND*%
%TO.N,Net-(RXI1-COM)*%
X288596000Y-108675000D03*
%TO.P,U1,24,Bat-*%
%TO.N,Net-(TXD1-COM)*%
X288596000Y-106135000D03*
%TO.P,U1,25,Bat+*%
%TO.N,Net-(Bat+1-COM)*%
X288596000Y-103595000D03*
%TD*%
D15*
%TO.P,D17,1,K*%
%TO.N,/3*%
X190424000Y-157062000D03*
D16*
X190424000Y-157062000D03*
D15*
%TO.P,D17,2,A*%
%TO.N,Net-(D17-A)*%
X187124000Y-157062000D03*
D16*
X187124000Y-157062000D03*
%TD*%
D15*
%TO.P,D14,1,K*%
%TO.N,/2*%
X258242000Y-136996000D03*
D16*
X258242000Y-136996000D03*
D15*
%TO.P,D14,2,A*%
%TO.N,Net-(D14-A)*%
X254942000Y-136996000D03*
D16*
X254942000Y-136996000D03*
%TD*%
D15*
%TO.P,D20,1,K*%
%TO.N,/3*%
X239956000Y-157062000D03*
D16*
X239956000Y-157062000D03*
D15*
%TO.P,D20,2,A*%
%TO.N,Net-(D20-A)*%
X243256000Y-157062000D03*
D16*
X243256000Y-157062000D03*
%TD*%
D15*
%TO.P,D25,1,K*%
%TO.N,/4*%
X208586000Y-177636000D03*
D16*
X208586000Y-177636000D03*
D15*
%TO.P,D25,2,A*%
%TO.N,Net-(D25-A)*%
X205286000Y-177636000D03*
D16*
X205286000Y-177636000D03*
%TD*%
D15*
%TO.P,D22,1,K*%
%TO.N,/4*%
X152800000Y-188000000D03*
D16*
X152800000Y-188000000D03*
D15*
%TO.P,D22,2,A*%
%TO.N,Net-(D22-A)*%
X149500000Y-188000000D03*
D16*
X149500000Y-188000000D03*
%TD*%
D14*
%TO.P,S2,1,A*%
%TO.N,/B*%
X142182500Y-115302000D03*
D13*
X138907500Y-103452000D03*
%TO.P,S2,2,B*%
%TO.N,Net-(D2-A)*%
X143907500Y-105552000D03*
X133907500Y-105552000D03*
D14*
X130632500Y-113102000D03*
%TD*%
D15*
%TO.P,D3,1,K*%
%TO.N,/1*%
X169850000Y-119216000D03*
D16*
X169850000Y-119216000D03*
D15*
%TO.P,D3,2,A*%
%TO.N,Net-(D3-A)*%
X166550000Y-119216000D03*
D16*
X166550000Y-119216000D03*
%TD*%
D14*
%TO.P,S16,1,A*%
%TO.N,/B*%
X162354000Y-153302000D03*
D13*
X159079000Y-141452000D03*
%TO.P,S16,2,B*%
%TO.N,Net-(D16-A)*%
X164079000Y-143552000D03*
X154079000Y-143552000D03*
D14*
X150804000Y-151102000D03*
%TD*%
%TO.P,S21,1,A*%
%TO.N,/G*%
X257354000Y-153302000D03*
D13*
X254079000Y-141452000D03*
%TO.P,S21,2,B*%
%TO.N,Net-(D21-A)*%
X259079000Y-143552000D03*
X249079000Y-143552000D03*
D14*
X245804000Y-151102000D03*
%TD*%
%TO.P,S26,1,A*%
%TO.N,/E*%
X228879000Y-172302000D03*
D13*
X225604000Y-160452000D03*
%TO.P,S26,2,B*%
%TO.N,Net-(D26-A)*%
X230604000Y-162552000D03*
X220604000Y-162552000D03*
D14*
X217329000Y-170102000D03*
%TD*%
D15*
%TO.P,D21,1,K*%
%TO.N,/3*%
X260784000Y-157316000D03*
D16*
X260784000Y-157316000D03*
D15*
%TO.P,D21,2,A*%
%TO.N,Net-(D21-A)*%
X264084000Y-157316000D03*
D16*
X264084000Y-157316000D03*
%TD*%
D14*
%TO.P,S17,1,A*%
%TO.N,/C*%
X181354000Y-153302000D03*
D13*
X178079000Y-141452000D03*
%TO.P,S17,2,B*%
%TO.N,Net-(D17-A)*%
X183079000Y-143552000D03*
X173079000Y-143552000D03*
D14*
X169804000Y-151102000D03*
%TD*%
%TO.P,S18,1,A*%
%TO.N,/D*%
X200354000Y-153302000D03*
D13*
X197079000Y-141452000D03*
%TO.P,S18,2,B*%
%TO.N,Net-(D18-A)*%
X202079000Y-143552000D03*
X192079000Y-143552000D03*
D14*
X188804000Y-151102000D03*
%TD*%
D15*
%TO.P,D35,1,K*%
%TO.N,/5*%
X128000000Y-103150000D03*
D17*
X128000000Y-103150000D03*
D15*
%TO.P,D35,2,A*%
%TO.N,Net-(D35-A)*%
X128000000Y-99850000D03*
D17*
X128000000Y-99850000D03*
%TD*%
D14*
%TO.P,S32,1,A*%
%TO.N,/D*%
X230550500Y-191302000D03*
D13*
X227275500Y-179452000D03*
%TO.P,S32,2,B*%
%TO.N,Net-(D32-A)*%
X232275500Y-181552000D03*
X222275500Y-181552000D03*
D14*
X219000500Y-189102000D03*
%TD*%
%TO.P,S29,1,A*%
%TO.N,/A*%
X133207500Y-191302000D03*
D13*
X129932500Y-179452000D03*
%TO.P,S29,2,B*%
%TO.N,Net-(D29-A)*%
X134932500Y-181552000D03*
X124932500Y-181552000D03*
D14*
X121657500Y-189102000D03*
%TD*%
D15*
%TO.P,D31,1,K*%
%TO.N,/5*%
X179630000Y-177128000D03*
D16*
X179630000Y-177128000D03*
D15*
%TO.P,D31,2,A*%
%TO.N,Net-(D31-A)*%
X182930000Y-177128000D03*
D16*
X182930000Y-177128000D03*
%TD*%
D14*
%TO.P,S23,1,A*%
%TO.N,/B*%
X171879000Y-172302000D03*
D13*
X168604000Y-160452000D03*
%TO.P,S23,2,B*%
%TO.N,Net-(D23-A)*%
X173604000Y-162552000D03*
X163604000Y-162552000D03*
D14*
X160329000Y-170102000D03*
%TD*%
D15*
%TO.P,D11,1,K*%
%TO.N,/2*%
X199186000Y-138012000D03*
D16*
X199186000Y-138012000D03*
D15*
%TO.P,D11,2,A*%
%TO.N,Net-(D11-A)*%
X195886000Y-138012000D03*
D16*
X195886000Y-138012000D03*
%TD*%
D14*
%TO.P,S14,1,A*%
%TO.N,/G*%
X247829000Y-134302000D03*
D13*
X244554000Y-122452000D03*
%TO.P,S14,2,B*%
%TO.N,Net-(D14-A)*%
X249554000Y-124552000D03*
X239554000Y-124552000D03*
D14*
X236279000Y-132102000D03*
%TD*%
D15*
%TO.P,D32,1,K*%
%TO.N,/5*%
X207700000Y-184000000D03*
D16*
X207700000Y-184000000D03*
D15*
%TO.P,D32,2,A*%
%TO.N,Net-(D32-A)*%
X211000000Y-184000000D03*
D16*
X211000000Y-184000000D03*
%TD*%
D26*
%TO.P,SW1,*%
%TO.N,*%
X288628000Y-179196000D03*
X288628000Y-170996000D03*
D27*
%TO.P,SW1,1,B*%
%TO.N,Net-(J2-Pin_1)*%
X288628000Y-177096000D03*
D28*
%TO.P,SW1,2,C*%
%TO.N,/Bat+*%
X288628000Y-175096000D03*
%TO.P,SW1,3,A*%
%TO.N,unconnected-(SW1-A-Pad3)*%
X288628000Y-173096000D03*
%TD*%
D15*
%TO.P,D2,1,K*%
%TO.N,/1*%
X150546000Y-118962000D03*
D16*
X150546000Y-118962000D03*
D15*
%TO.P,D2,2,A*%
%TO.N,Net-(D2-A)*%
X147246000Y-118962000D03*
D16*
X147246000Y-118962000D03*
%TD*%
D29*
%TO.P,J1,R*%
%TO.N,Net-(COM_SELECT1-COM)*%
X281194000Y-155724000D03*
X281194000Y-159724000D03*
%TO.P,J1,S*%
%TO.N,/GND*%
X289094000Y-157724000D03*
%TO.P,J1,T*%
%TO.N,/VCC*%
X286694000Y-155724000D03*
X286694000Y-159724000D03*
%TD*%
D15*
%TO.P,D27,1,K*%
%TO.N,/4*%
X251386000Y-176112000D03*
D16*
X251386000Y-176112000D03*
D15*
%TO.P,D27,2,A*%
%TO.N,Net-(D27-A)*%
X254686000Y-176112000D03*
D16*
X254686000Y-176112000D03*
%TD*%
D14*
%TO.P,S27,1,A*%
%TO.N,/F*%
X247879000Y-172302000D03*
D13*
X244604000Y-160452000D03*
%TO.P,S27,2,B*%
%TO.N,Net-(D27-A)*%
X249604000Y-162552000D03*
X239604000Y-162552000D03*
D14*
X236329000Y-170102000D03*
%TD*%
D22*
%TO.P,R1,A,A*%
%TO.N,/Rotary_A*%
X266204000Y-120856000D03*
D23*
%TO.P,R1,B,B*%
%TO.N,/Rotary_B*%
X261204000Y-120856000D03*
%TO.P,R1,C,C*%
%TO.N,/GND*%
X263704000Y-120856000D03*
D30*
%TO.P,R1,MP*%
%TO.N,N/C*%
X269304000Y-128356000D03*
X258104000Y-128356000D03*
D23*
%TO.P,R1,S1,S1*%
%TO.N,/5*%
X261204000Y-135356000D03*
%TO.P,R1,S2,S2*%
%TO.N,/E*%
X266204000Y-135356000D03*
%TD*%
D14*
%TO.P,S28,1,A*%
%TO.N,/G*%
X266879000Y-172302000D03*
D13*
X263604000Y-160452000D03*
%TO.P,S28,2,B*%
%TO.N,Net-(D28-A)*%
X268604000Y-162552000D03*
X258604000Y-162552000D03*
D14*
X255329000Y-170102000D03*
%TD*%
D15*
%TO.P,D29,1,K*%
%TO.N,/5*%
X152150000Y-190500000D03*
D16*
X152150000Y-190500000D03*
D15*
%TO.P,D29,2,A*%
%TO.N,Net-(D29-A)*%
X148850000Y-190500000D03*
D16*
X148850000Y-190500000D03*
%TD*%
D15*
%TO.P,D13,1,K*%
%TO.N,/2*%
X237032000Y-138012000D03*
D16*
X237032000Y-138012000D03*
D15*
%TO.P,D13,2,A*%
%TO.N,Net-(D13-A)*%
X233732000Y-138012000D03*
D16*
X233732000Y-138012000D03*
%TD*%
D14*
%TO.P,S15,1,A*%
%TO.N,/A*%
X133207500Y-153302000D03*
D13*
X129932500Y-141452000D03*
%TO.P,S15,2,B*%
%TO.N,Net-(D15-A)*%
X134932500Y-143552000D03*
X124932500Y-143552000D03*
D14*
X121657500Y-151102000D03*
%TD*%
%TO.P,S22,1,A*%
%TO.N,/A*%
X137970000Y-172302000D03*
D13*
X134695000Y-160452000D03*
%TO.P,S22,2,B*%
%TO.N,Net-(D22-A)*%
X139695000Y-162552000D03*
X129695000Y-162552000D03*
D14*
X126420000Y-170102000D03*
%TD*%
D15*
%TO.P,D19,1,K*%
%TO.N,/3*%
X221668000Y-156554000D03*
D16*
X221668000Y-156554000D03*
D15*
%TO.P,D19,2,A*%
%TO.N,Net-(D19-A)*%
X224968000Y-156554000D03*
D16*
X224968000Y-156554000D03*
%TD*%
D14*
%TO.P,S19,1,A*%
%TO.N,/E*%
X219354000Y-153302000D03*
D13*
X216079000Y-141452000D03*
%TO.P,S19,2,B*%
%TO.N,Net-(D19-A)*%
X221079000Y-143552000D03*
X211079000Y-143552000D03*
D14*
X207804000Y-151102000D03*
%TD*%
%TO.P,S9,1,A*%
%TO.N,/B*%
X152829000Y-134302000D03*
D13*
X149554000Y-122452000D03*
%TO.P,S9,2,B*%
%TO.N,Net-(D9-A)*%
X154554000Y-124552000D03*
X144554000Y-124552000D03*
D14*
X141279000Y-132102000D03*
%TD*%
D15*
%TO.P,D18,1,K*%
%TO.N,/3*%
X202110000Y-156808000D03*
D16*
X202110000Y-156808000D03*
D15*
%TO.P,D18,2,A*%
%TO.N,Net-(D18-A)*%
X205410000Y-156808000D03*
D16*
X205410000Y-156808000D03*
%TD*%
D14*
%TO.P,S13,1,A*%
%TO.N,/F*%
X228829000Y-134302000D03*
D13*
X225554000Y-122452000D03*
%TO.P,S13,2,B*%
%TO.N,Net-(D13-A)*%
X230554000Y-124552000D03*
X220554000Y-124552000D03*
D14*
X217279000Y-132102000D03*
%TD*%
D15*
%TO.P,D1,1,K*%
%TO.N,/1*%
X131116000Y-118708000D03*
D16*
X131116000Y-118708000D03*
D15*
%TO.P,D1,2,A*%
%TO.N,Net-(D1-A)*%
X127816000Y-118708000D03*
D16*
X127816000Y-118708000D03*
%TD*%
D15*
%TO.P,D8,1,K*%
%TO.N,/2*%
X148150000Y-143500000D03*
D16*
X148150000Y-143500000D03*
D15*
%TO.P,D8,2,A*%
%TO.N,Net-(D8-A)*%
X144850000Y-143500000D03*
D16*
X144850000Y-143500000D03*
%TD*%
D18*
%TO.P,R2,1*%
%TO.N,/VCC*%
X264974000Y-105500000D03*
D19*
%TO.P,R2,2*%
%TO.N,/Rotary_B*%
X264974000Y-113120000D03*
%TD*%
D14*
%TO.P,S10,1,A*%
%TO.N,/C*%
X171829000Y-134302000D03*
D13*
X168554000Y-122452000D03*
%TO.P,S10,2,B*%
%TO.N,Net-(D10-A)*%
X173554000Y-124552000D03*
X163554000Y-124552000D03*
D14*
X160279000Y-132102000D03*
%TD*%
%TO.P,S30,1,A*%
%TO.N,/B*%
X167616500Y-191302000D03*
D13*
X164341500Y-179452000D03*
%TO.P,S30,2,B*%
%TO.N,Net-(D30-A)*%
X169341500Y-181552000D03*
X159341500Y-181552000D03*
D14*
X156066500Y-189102000D03*
%TD*%
D31*
%TO.N,/6*%
X134150000Y-99000000D03*
%TO.N,/F*%
X243500000Y-106000000D03*
X243500000Y-104000000D03*
%TO.N,/E*%
X206500000Y-101000000D03*
X209500000Y-102000000D03*
%TO.N,/D*%
X186500000Y-102500000D03*
%TO.N,/C*%
X168000000Y-103000000D03*
%TO.N,Net-(D34-A)*%
X139000000Y-87753750D03*
%TO.N,Net-(D36-A)*%
X158000000Y-87753750D03*
%TO.N,Net-(D37-A)*%
X177000000Y-87753750D03*
%TO.N,Net-(D38-A)*%
X196000000Y-87753750D03*
%TO.N,Net-(D39-A)*%
X215000000Y-87753750D03*
%TO.N,Net-(D40-A)*%
X234000000Y-87753750D03*
%TO.N,/B*%
X150055000Y-102055000D03*
%TO.N,/G*%
X256000000Y-101000000D03*
%TO.N,Net-(D41-A)*%
X253000000Y-87753750D03*
%TO.N,/1*%
X262434000Y-127852000D03*
%TO.N,/2*%
X265990000Y-148934000D03*
X285548000Y-126328000D03*
%TO.N,/3*%
X282754000Y-130646000D03*
X266244000Y-157570000D03*
%TO.N,/5*%
X130000000Y-107000000D03*
%TO.N,/GND*%
X278182000Y-140806000D03*
%TO.N,/A*%
X269546000Y-122010000D03*
X270308000Y-116168000D03*
X268530000Y-124296000D03*
%TO.N,/B*%
X255068000Y-129630000D03*
X262434000Y-132678000D03*
X268276000Y-132678000D03*
%TO.N,/C*%
X271324000Y-130392000D03*
X267514000Y-164428000D03*
%TO.N,/D*%
X275896000Y-141568000D03*
%TO.N,/G*%
X264466000Y-110580000D03*
X257862000Y-123534000D03*
X117000000Y-91500000D03*
X260148000Y-116930000D03*
X269038000Y-110580000D03*
X221500000Y-101500000D03*
X271578000Y-112358000D03*
%TO.N,/Bat+*%
X268530000Y-152236000D03*
X272340000Y-142076000D03*
X270816000Y-123026000D03*
X271578000Y-125820000D03*
%TO.N,/VCC*%
X278200000Y-146340000D03*
%TO.N,/TXD*%
X288342000Y-145886000D03*
X280976000Y-110580000D03*
%TO.N,/RXI*%
X286818000Y-145378000D03*
X278436000Y-110072000D03*
%TO.N,/Bat-*%
X282246000Y-109564000D03*
%TO.N,Net-(TXD2-COM)*%
X278944000Y-105754000D03*
%TO.N,/SDA*%
X282754000Y-146140000D03*
X286564000Y-135980000D03*
%TO.N,/SCL*%
X283770000Y-134710000D03*
X285548000Y-143600000D03*
%TO.N,Net-(P3-COM)*%
X283770000Y-129630000D03*
%TO.N,Net-(SCL1-COM)*%
X280214000Y-129630000D03*
%TO.N,Net-(SDA1-COM)*%
X276658000Y-125820000D03*
%TD*%
D32*
%TO.N,/E*%
X206500000Y-101000000D02*
X207500000Y-102000000D01*
X207500000Y-102000000D02*
X209500000Y-102000000D01*
%TO.N,Net-(D39-A)*%
X206632500Y-94550000D02*
X206632500Y-98717500D01*
X206632500Y-98717500D02*
X204850000Y-100500000D01*
%TO.N,/A*%
X270308000Y-105754000D02*
X270308000Y-116168000D01*
X268530000Y-103976000D02*
X270308000Y-105754000D01*
X252334000Y-100166000D02*
X261851569Y-100166000D01*
X265661569Y-103976000D02*
X268530000Y-103976000D01*
X249500000Y-103000000D02*
X252334000Y-100166000D01*
X261851569Y-100166000D02*
X265661569Y-103976000D01*
X240122000Y-103000000D02*
X249500000Y-103000000D01*
X230473000Y-102000000D02*
X232500000Y-99973000D01*
X225000000Y-101973000D02*
X225000000Y-102000000D01*
X213027000Y-99973000D02*
X223000000Y-99973000D01*
X225000000Y-102000000D02*
X230473000Y-102000000D01*
X209000000Y-103000000D02*
X210000000Y-103000000D01*
X205000000Y-103973000D02*
X205000000Y-104000000D01*
X232500000Y-99973000D02*
X237095000Y-99973000D01*
X188000000Y-103973000D02*
X192000000Y-99973000D01*
X201000000Y-99973000D02*
X205000000Y-103973000D01*
X188000000Y-104000000D02*
X188000000Y-103973000D01*
X208000000Y-104000000D02*
X209000000Y-103000000D01*
X185000000Y-104000000D02*
X188000000Y-104000000D01*
X192000000Y-99973000D02*
X201000000Y-99973000D01*
X181000000Y-100000000D02*
X185000000Y-104000000D01*
X168500000Y-104000000D02*
X172500000Y-100000000D01*
X167000000Y-104000000D02*
X168500000Y-104000000D01*
X237095000Y-99973000D02*
X240122000Y-103000000D01*
X163000000Y-100000000D02*
X167000000Y-104000000D01*
X181000000Y-99973000D02*
X181000000Y-100000000D01*
X163000000Y-99973000D02*
X163000000Y-100000000D01*
X223000000Y-99973000D02*
X225000000Y-101973000D01*
X172500000Y-99973000D02*
X181000000Y-99973000D01*
X144000000Y-99973000D02*
X163000000Y-99973000D01*
X205000000Y-104000000D02*
X208000000Y-104000000D01*
X172500000Y-100000000D02*
X172500000Y-99973000D01*
X210000000Y-103000000D02*
X213027000Y-99973000D01*
%TO.N,/B*%
X255068000Y-122772000D02*
X255068000Y-129630000D01*
X248210000Y-115914000D02*
X255068000Y-122772000D01*
X243130000Y-115914000D02*
X248210000Y-115914000D01*
X241860000Y-114644000D02*
X243130000Y-115914000D01*
X241860000Y-111596000D02*
X241860000Y-114644000D01*
X241098000Y-110834000D02*
X241860000Y-111596000D01*
X241098000Y-104738000D02*
X241098000Y-110834000D01*
X236860000Y-100500000D02*
X241098000Y-104738000D01*
X231000000Y-102500000D02*
X233000000Y-100500000D01*
X222500000Y-100500000D02*
X224500000Y-102500000D01*
X213500000Y-100500000D02*
X222500000Y-100500000D01*
X210500000Y-103500000D02*
X213500000Y-100500000D01*
X209500000Y-103500000D02*
X210500000Y-103500000D01*
X208000000Y-105000000D02*
X209500000Y-103500000D01*
X200000000Y-100500000D02*
X204500000Y-105000000D01*
X224500000Y-102500000D02*
X231000000Y-102500000D01*
X188000000Y-105500000D02*
X193000000Y-100500000D01*
X185000000Y-105500000D02*
X188000000Y-105500000D01*
X233000000Y-100500000D02*
X236860000Y-100500000D01*
X180000000Y-100500000D02*
X185000000Y-105500000D01*
X173500000Y-100500000D02*
X180000000Y-100500000D01*
X204500000Y-105000000D02*
X208000000Y-105000000D01*
X158491896Y-100500000D02*
X162000000Y-100500000D01*
X162000000Y-100500000D02*
X167000000Y-105500000D01*
X168500000Y-105500000D02*
X173500000Y-100500000D01*
X158469896Y-100478000D02*
X158491896Y-100500000D01*
X167000000Y-105500000D02*
X168500000Y-105500000D01*
X151632000Y-100478000D02*
X158469896Y-100478000D01*
X193000000Y-100500000D02*
X200000000Y-100500000D01*
X150055000Y-102055000D02*
X151632000Y-100478000D01*
%TO.N,Net-(D34-A)*%
X130632500Y-99717500D02*
X130000000Y-100350000D01*
X130632500Y-94550000D02*
X130632500Y-99717500D01*
%TO.N,/6*%
X130000000Y-102650000D02*
X133650000Y-99000000D01*
X133650000Y-99000000D02*
X134150000Y-99000000D01*
X130000000Y-103650000D02*
X130000000Y-102650000D01*
%TO.N,/A*%
X127610000Y-107890000D02*
X135527000Y-99973000D01*
X135527000Y-99973000D02*
X140500000Y-99973000D01*
X122330000Y-107890000D02*
X127610000Y-107890000D01*
%TO.N,/6*%
X231650000Y-99000000D02*
X246150000Y-99000000D01*
X246150000Y-99000000D02*
X247650000Y-100500000D01*
X229650000Y-101000000D02*
X231650000Y-99000000D01*
%TO.N,Net-(D40-A)*%
X225632500Y-100282500D02*
X226350000Y-101000000D01*
X225632500Y-94550000D02*
X225632500Y-100282500D01*
%TO.N,/G*%
X235000000Y-118000000D02*
X237182500Y-115817500D01*
X227000000Y-116000000D02*
X229000000Y-118000000D01*
X224000000Y-116000000D02*
X227000000Y-116000000D01*
X229000000Y-118000000D02*
X235000000Y-118000000D01*
X223000000Y-115000000D02*
X224000000Y-116000000D01*
X221500000Y-101500000D02*
X223000000Y-103000000D01*
X237182500Y-115817500D02*
X237182500Y-115302000D01*
X223000000Y-103000000D02*
X223000000Y-115000000D01*
%TO.N,Net-(D38-A)*%
X187632500Y-99067500D02*
X186200000Y-100500000D01*
X187632500Y-94550000D02*
X187632500Y-99067500D01*
%TO.N,Net-(D36-A)*%
X149632500Y-95217500D02*
X147000000Y-97850000D01*
X149632500Y-94550000D02*
X149632500Y-95217500D01*
%TO.N,Net-(D37-A)*%
X168000000Y-95182500D02*
X168000000Y-99350000D01*
X168000000Y-99350000D02*
X166850000Y-100500000D01*
X168632500Y-94550000D02*
X168000000Y-95182500D01*
%TO.N,/C*%
X178500000Y-99000000D02*
X180182500Y-97317500D01*
X169000000Y-99051396D02*
X169082500Y-98968896D01*
X171000000Y-97000000D02*
X173500000Y-97000000D01*
X180182500Y-97317500D02*
X180182500Y-96750000D01*
X169000000Y-101000000D02*
X169000000Y-99051396D01*
X169082500Y-98968896D02*
X169082500Y-98917500D01*
X168000000Y-102000000D02*
X169000000Y-101000000D01*
X175500000Y-99000000D02*
X178500000Y-99000000D01*
X169082500Y-98917500D02*
X171000000Y-97000000D01*
X173500000Y-97000000D02*
X175500000Y-99000000D01*
X168000000Y-103000000D02*
X168000000Y-102000000D01*
%TO.N,/D*%
X188500000Y-100500000D02*
X186500000Y-102500000D01*
X190000000Y-97500000D02*
X189500000Y-97500000D01*
X189500000Y-97500000D02*
X188500000Y-98500000D01*
X190500000Y-97000000D02*
X190000000Y-97500000D01*
X192000000Y-97000000D02*
X190500000Y-97000000D01*
X194000000Y-99000000D02*
X192000000Y-97000000D01*
X196932500Y-99000000D02*
X194000000Y-99000000D01*
X199182500Y-96750000D02*
X196932500Y-99000000D01*
X188500000Y-98500000D02*
X188500000Y-100500000D01*
%TO.N,/F*%
X243500000Y-104000000D02*
X243500000Y-106000000D01*
%TO.N,/A*%
X142182500Y-98155500D02*
X144000000Y-99973000D01*
X142182500Y-96750000D02*
X142182500Y-98155500D01*
X140500000Y-99973000D02*
X144000000Y-99973000D01*
X142182500Y-98290500D02*
X142182500Y-96750000D01*
X140500000Y-99973000D02*
X142182500Y-98290500D01*
X141500000Y-96253750D02*
X141500000Y-87746250D01*
%TO.N,Net-(D34-A)*%
X138500000Y-87253750D02*
X133907500Y-87253750D01*
X139000000Y-87753750D02*
X138500000Y-87253750D01*
%TO.N,/A*%
X141500000Y-87746250D02*
X138907500Y-85153750D01*
%TO.N,Net-(D34-A)*%
X130632500Y-90528750D02*
X130632500Y-94803750D01*
X133907500Y-87253750D02*
X130632500Y-90528750D01*
%TO.N,/B*%
X160500000Y-96253750D02*
X160500000Y-87746250D01*
%TO.N,Net-(D36-A)*%
X157500000Y-87253750D02*
X152907500Y-87253750D01*
X158000000Y-87753750D02*
X157500000Y-87253750D01*
%TO.N,/B*%
X160500000Y-87746250D02*
X157907500Y-85153750D01*
%TO.N,Net-(D36-A)*%
X149632500Y-90528750D02*
X149632500Y-94803750D01*
X152907500Y-87253750D02*
X149632500Y-90528750D01*
%TO.N,/C*%
X179500000Y-96253750D02*
X179500000Y-87746250D01*
%TO.N,Net-(D37-A)*%
X176500000Y-87253750D02*
X171907500Y-87253750D01*
X177000000Y-87753750D02*
X176500000Y-87253750D01*
%TO.N,/C*%
X179500000Y-87746250D02*
X176907500Y-85153750D01*
%TO.N,Net-(D37-A)*%
X168632500Y-90528750D02*
X168632500Y-94803750D01*
X171907500Y-87253750D02*
X168632500Y-90528750D01*
%TO.N,/D*%
X198500000Y-96253750D02*
X198500000Y-87746250D01*
%TO.N,Net-(D38-A)*%
X195500000Y-87253750D02*
X190907500Y-87253750D01*
X196000000Y-87753750D02*
X195500000Y-87253750D01*
%TO.N,/D*%
X198500000Y-87746250D02*
X195907500Y-85153750D01*
%TO.N,Net-(D38-A)*%
X187632500Y-90528750D02*
X187632500Y-94803750D01*
X190907500Y-87253750D02*
X187632500Y-90528750D01*
%TO.N,/E*%
X217500000Y-96253750D02*
X217500000Y-87746250D01*
%TO.N,Net-(D39-A)*%
X214500000Y-87253750D02*
X209907500Y-87253750D01*
X215000000Y-87753750D02*
X214500000Y-87253750D01*
%TO.N,/E*%
X217500000Y-87746250D02*
X214907500Y-85153750D01*
%TO.N,Net-(D39-A)*%
X206632500Y-90528750D02*
X206632500Y-94803750D01*
X209907500Y-87253750D02*
X206632500Y-90528750D01*
%TO.N,/F*%
X236500000Y-96253750D02*
X236500000Y-87746250D01*
%TO.N,Net-(D40-A)*%
X233500000Y-87253750D02*
X228907500Y-87253750D01*
X234000000Y-87753750D02*
X233500000Y-87253750D01*
%TO.N,/F*%
X236500000Y-87746250D02*
X233907500Y-85153750D01*
%TO.N,Net-(D40-A)*%
X225632500Y-90528750D02*
X225632500Y-94803750D01*
X228907500Y-87253750D02*
X225632500Y-90528750D01*
%TO.N,/G*%
X264466000Y-109466000D02*
X256000000Y-101000000D01*
X264466000Y-110580000D02*
X264466000Y-109466000D01*
%TO.N,/6*%
X268800000Y-101300000D02*
X268800000Y-102000000D01*
X263500000Y-100500000D02*
X268000000Y-100500000D01*
X262500000Y-99500000D02*
X263500000Y-100500000D01*
X250500000Y-101000000D02*
X252000000Y-99500000D01*
X252000000Y-99500000D02*
X262500000Y-99500000D01*
X247650000Y-101000000D02*
X250500000Y-101000000D01*
X268000000Y-100500000D02*
X268800000Y-101300000D01*
%TO.N,/RXI*%
X268690396Y-103500000D02*
X267545000Y-103500000D01*
X267545000Y-103500000D02*
X266800000Y-102755000D01*
X266800000Y-102755000D02*
X266800000Y-102000000D01*
X271000000Y-105809604D02*
X268690396Y-103500000D01*
X272759000Y-110001000D02*
X271000000Y-108242000D01*
X271000000Y-108242000D02*
X271000000Y-105809604D01*
X278365000Y-110001000D02*
X272759000Y-110001000D01*
X278436000Y-110072000D02*
X278365000Y-110001000D01*
%TO.N,/TXD*%
X277857000Y-107461000D02*
X280976000Y-110580000D01*
X271500000Y-105995856D02*
X272965144Y-107461000D01*
X270800000Y-102800000D02*
X271500000Y-103500000D01*
X270800000Y-102000000D02*
X270800000Y-102800000D01*
X271500000Y-103500000D02*
X271500000Y-105995856D01*
X272965144Y-107461000D02*
X277857000Y-107461000D01*
%TO.N,Net-(D41-A)*%
X244632500Y-94803750D02*
X244632500Y-95121250D01*
X244632500Y-90528750D02*
X244632500Y-94803750D01*
X247907500Y-87253750D02*
X244632500Y-90528750D01*
X252500000Y-87253750D02*
X247907500Y-87253750D01*
X253000000Y-87753750D02*
X252500000Y-87253750D01*
%TO.N,/G*%
X255500000Y-96253750D02*
X255500000Y-87746250D01*
X255500000Y-87746250D02*
X252907500Y-85153750D01*
X256182500Y-96936250D02*
X255500000Y-96253750D01*
X256182500Y-97003750D02*
X256182500Y-96936250D01*
%TO.N,Net-(D1-A)*%
X119432000Y-101027500D02*
X120383000Y-101027500D01*
X120383000Y-101027500D02*
X124907500Y-105552000D01*
X114907500Y-105552000D02*
X119432000Y-101027500D01*
X111632500Y-108827000D02*
X114907500Y-105552000D01*
X111632500Y-113102000D02*
X111632500Y-108827000D01*
%TO.N,Net-(D2-A)*%
X133907500Y-105552000D02*
X138482000Y-100977500D01*
X130632500Y-113102000D02*
X130632500Y-108827000D01*
X130632500Y-108827000D02*
X133907500Y-105552000D01*
X139333000Y-100977500D02*
X143907500Y-105552000D01*
X138482000Y-100977500D02*
X139333000Y-100977500D01*
%TO.N,Net-(D3-A)*%
X149632500Y-113102000D02*
X149632500Y-108827000D01*
X149632500Y-108827000D02*
X152907500Y-105552000D01*
X152907500Y-105552000D02*
X157531500Y-100928000D01*
X157531500Y-100928000D02*
X158283500Y-100928000D01*
X158283500Y-100928000D02*
X162907500Y-105552000D01*
%TO.N,Net-(D4-A)*%
X176277500Y-101182000D02*
X177537500Y-101182000D01*
X171907500Y-105552000D02*
X176277500Y-101182000D01*
X168632500Y-108827000D02*
X171907500Y-105552000D01*
X168632500Y-113102000D02*
X168632500Y-108827000D01*
X177537500Y-101182000D02*
X181907500Y-105552000D01*
%TO.N,Net-(D5-A)*%
X187632500Y-108827000D02*
X190907500Y-105552000D01*
X196537500Y-101182000D02*
X200907500Y-105552000D01*
X195277500Y-101182000D02*
X196537500Y-101182000D01*
X190907500Y-105552000D02*
X195277500Y-101182000D01*
X187632500Y-113102000D02*
X187632500Y-108827000D01*
%TO.N,Net-(D6-A)*%
X214023500Y-101436000D02*
X215791500Y-101436000D01*
X215791500Y-101436000D02*
X219907500Y-105552000D01*
X209907500Y-105552000D02*
X214023500Y-101436000D01*
X206632500Y-113102000D02*
X206632500Y-108827000D01*
X206632500Y-108827000D02*
X209907500Y-105552000D01*
%TO.N,Net-(D7-A)*%
X225632500Y-113102000D02*
X225632500Y-108827000D01*
X234791500Y-101436000D02*
X238907500Y-105552000D01*
X228907500Y-105552000D02*
X233023500Y-101436000D01*
X225632500Y-108827000D02*
X228907500Y-105552000D01*
X233023500Y-101436000D02*
X234791500Y-101436000D01*
%TO.N,Net-(D8-A)*%
X120170000Y-124552000D02*
X124490000Y-120232000D01*
X125850000Y-120232000D02*
X130170000Y-124552000D01*
X116895000Y-127827000D02*
X120170000Y-124552000D01*
X124490000Y-120232000D02*
X125850000Y-120232000D01*
X116895000Y-132102000D02*
X116895000Y-127827000D01*
%TO.N,Net-(D9-A)*%
X141279000Y-127827000D02*
X144554000Y-124552000D01*
X144554000Y-124552000D02*
X148366000Y-120740000D01*
X141279000Y-132102000D02*
X141279000Y-127827000D01*
X150742000Y-120740000D02*
X154554000Y-124552000D01*
X148366000Y-120740000D02*
X150742000Y-120740000D01*
%TO.N,Net-(D10-A)*%
X160279000Y-127827000D02*
X163554000Y-124552000D01*
X169488000Y-120486000D02*
X173554000Y-124552000D01*
X167620000Y-120486000D02*
X169488000Y-120486000D01*
X163554000Y-124552000D02*
X167620000Y-120486000D01*
X160279000Y-132102000D02*
X160279000Y-127827000D01*
%TO.N,Net-(D11-A)*%
X188234000Y-120232000D02*
X192554000Y-124552000D01*
X179279000Y-132102000D02*
X179279000Y-127827000D01*
X182554000Y-124552000D02*
X186874000Y-120232000D01*
X186874000Y-120232000D02*
X188234000Y-120232000D01*
X179279000Y-127827000D02*
X182554000Y-124552000D01*
%TO.N,Net-(D12-A)*%
X201554000Y-124552000D02*
X205620000Y-120486000D01*
X205620000Y-120486000D02*
X207488000Y-120486000D01*
X198279000Y-127827000D02*
X201554000Y-124552000D01*
X207488000Y-120486000D02*
X211554000Y-124552000D01*
X198279000Y-132102000D02*
X198279000Y-127827000D01*
%TO.N,Net-(D13-A)*%
X224366000Y-120740000D02*
X226742000Y-120740000D01*
X220554000Y-124552000D02*
X224366000Y-120740000D01*
X217279000Y-132102000D02*
X217279000Y-127827000D01*
X226742000Y-120740000D02*
X230554000Y-124552000D01*
X217279000Y-127827000D02*
X220554000Y-124552000D01*
%TO.N,Net-(D14-A)*%
X243620000Y-120486000D02*
X245488000Y-120486000D01*
X239554000Y-124552000D02*
X243620000Y-120486000D01*
X236279000Y-132102000D02*
X236279000Y-127827000D01*
X236279000Y-127827000D02*
X239554000Y-124552000D01*
X245488000Y-120486000D02*
X249554000Y-124552000D01*
%TO.N,Net-(D15-A)*%
X121657500Y-151102000D02*
X121657500Y-146827000D01*
X130916500Y-139536000D02*
X134932500Y-143552000D01*
X128948500Y-139536000D02*
X130916500Y-139536000D01*
X124932500Y-143552000D02*
X128948500Y-139536000D01*
X121657500Y-146827000D02*
X124932500Y-143552000D01*
%TO.N,Net-(D16-A)*%
X158095000Y-139536000D02*
X160063000Y-139536000D01*
X150804000Y-151102000D02*
X150804000Y-146827000D01*
X154079000Y-143552000D02*
X158095000Y-139536000D01*
X160063000Y-139536000D02*
X164079000Y-143552000D01*
X150804000Y-146827000D02*
X154079000Y-143552000D01*
%TO.N,Net-(D17-A)*%
X177095000Y-139536000D02*
X179063000Y-139536000D01*
X169804000Y-146827000D02*
X173079000Y-143552000D01*
X179063000Y-139536000D02*
X183079000Y-143552000D01*
X169804000Y-151102000D02*
X169804000Y-146827000D01*
X173079000Y-143552000D02*
X177095000Y-139536000D01*
%TO.N,Net-(D18-A)*%
X196603000Y-139028000D02*
X197555000Y-139028000D01*
X192079000Y-143552000D02*
X196603000Y-139028000D01*
X188804000Y-146827000D02*
X192079000Y-143552000D01*
X188804000Y-151102000D02*
X188804000Y-146827000D01*
X197555000Y-139028000D02*
X202079000Y-143552000D01*
%TO.N,Net-(D19-A)*%
X207804000Y-151102000D02*
X207804000Y-146827000D01*
X215349000Y-139282000D02*
X216809000Y-139282000D01*
X211079000Y-143552000D02*
X215349000Y-139282000D01*
X207804000Y-146827000D02*
X211079000Y-143552000D01*
X216809000Y-139282000D02*
X221079000Y-143552000D01*
%TO.N,Net-(D20-A)*%
X226804000Y-146827000D02*
X230079000Y-143552000D01*
X226804000Y-151102000D02*
X226804000Y-146827000D01*
X234095000Y-139536000D02*
X236063000Y-139536000D01*
X230079000Y-143552000D02*
X234095000Y-139536000D01*
X236063000Y-139536000D02*
X240079000Y-143552000D01*
%TO.N,Net-(D21-A)*%
X253095000Y-139536000D02*
X249079000Y-143552000D01*
X245804000Y-146827000D02*
X249079000Y-143552000D01*
X259079000Y-143552000D02*
X255063000Y-139536000D01*
X255063000Y-139536000D02*
X253095000Y-139536000D01*
X245804000Y-151102000D02*
X245804000Y-146827000D01*
%TO.N,Net-(D22-A)*%
X126420000Y-170102000D02*
X126420000Y-165827000D01*
X133915000Y-158332000D02*
X135475000Y-158332000D01*
X126420000Y-165827000D02*
X129695000Y-162552000D01*
X135475000Y-158332000D02*
X139695000Y-162552000D01*
X129695000Y-162552000D02*
X133915000Y-158332000D01*
%TO.N,Net-(D23-A)*%
X168078000Y-158078000D02*
X169130000Y-158078000D01*
X160329000Y-172557000D02*
X160329000Y-170102000D01*
X160329000Y-165827000D02*
X163604000Y-162552000D01*
X160329000Y-170102000D02*
X160329000Y-165827000D01*
X163604000Y-162552000D02*
X168078000Y-158078000D01*
X160329000Y-172557000D02*
X163884000Y-176112000D01*
X169130000Y-158078000D02*
X173604000Y-162552000D01*
%TO.N,Net-(D24-A)*%
X182604000Y-162552000D02*
X186570000Y-158586000D01*
X179329000Y-170102000D02*
X179343500Y-170087500D01*
X188638000Y-158586000D02*
X192604000Y-162552000D01*
X179329000Y-170102000D02*
X179329000Y-165827000D01*
X179329000Y-165827000D02*
X182604000Y-162552000D01*
X186570000Y-158586000D02*
X188638000Y-158586000D01*
%TO.N,Net-(D25-A)*%
X198329000Y-165827000D02*
X201604000Y-162552000D01*
X207384000Y-158332000D02*
X211604000Y-162552000D01*
X201604000Y-162552000D02*
X205824000Y-158332000D01*
X198329000Y-170102000D02*
X198329000Y-165827000D01*
X198329000Y-170102000D02*
X198329000Y-170679000D01*
X198329000Y-170679000D02*
X205286000Y-177636000D01*
X205824000Y-158332000D02*
X207384000Y-158332000D01*
%TO.N,Net-(D26-A)*%
X226384000Y-158332000D02*
X230604000Y-162552000D01*
X220604000Y-162552000D02*
X224824000Y-158332000D01*
X217329000Y-170102000D02*
X217329000Y-165827000D01*
X217329000Y-165827000D02*
X220604000Y-162552000D01*
X224824000Y-158332000D02*
X226384000Y-158332000D01*
%TO.N,Net-(D27-A)*%
X239604000Y-162552000D02*
X243570000Y-158586000D01*
X236329000Y-170102000D02*
X236329000Y-165827000D01*
X245638000Y-158586000D02*
X249604000Y-162552000D01*
X243570000Y-158586000D02*
X245638000Y-158586000D01*
X236329000Y-165827000D02*
X239604000Y-162552000D01*
%TO.N,Net-(D28-A)*%
X255329000Y-165827000D02*
X258604000Y-162552000D01*
X255329000Y-170102000D02*
X255329000Y-165827000D01*
X262570000Y-158586000D02*
X264638000Y-158586000D01*
X264638000Y-158586000D02*
X268604000Y-162552000D01*
X258604000Y-162552000D02*
X262570000Y-158586000D01*
%TO.N,Net-(D29-A)*%
X121657500Y-184827000D02*
X124932500Y-181552000D01*
X130762500Y-177382000D02*
X134932500Y-181552000D01*
X124932500Y-181552000D02*
X129102500Y-177382000D01*
X129102500Y-177382000D02*
X130762500Y-177382000D01*
X121657500Y-189102000D02*
X121657500Y-184827000D01*
%TO.N,Net-(D30-A)*%
X155551500Y-177762000D02*
X155246000Y-177762000D01*
X163257500Y-177636000D02*
X165425500Y-177636000D01*
X165425500Y-177636000D02*
X169341500Y-181552000D01*
X159341500Y-181552000D02*
X155551500Y-177762000D01*
X159341500Y-181552000D02*
X163257500Y-177636000D01*
X156066500Y-189102000D02*
X156066500Y-184827000D01*
X156066500Y-184827000D02*
X159341500Y-181552000D01*
%TO.N,Net-(D31-A)*%
X180450500Y-189102000D02*
X180450500Y-184827000D01*
X186742000Y-178144000D02*
X187504000Y-177382000D01*
X183725500Y-181552000D02*
X183725500Y-178144000D01*
X183725500Y-178144000D02*
X183725500Y-177923500D01*
X180450500Y-184827000D02*
X183725500Y-181552000D01*
X189555500Y-177382000D02*
X193725500Y-181552000D01*
X183725500Y-178144000D02*
X186742000Y-178144000D01*
X183725500Y-177923500D02*
X182930000Y-177128000D01*
X187504000Y-177382000D02*
X189555500Y-177382000D01*
%TO.N,Net-(D32-A)*%
X226445500Y-177382000D02*
X228105500Y-177382000D01*
X211000000Y-184000000D02*
X218173500Y-184000000D01*
X221898000Y-181552000D02*
X222275500Y-181552000D01*
X222275500Y-181552000D02*
X226445500Y-177382000D01*
X219000500Y-189102000D02*
X219000500Y-184827000D01*
X218173500Y-184000000D02*
X219000500Y-184827000D01*
X219000500Y-184827000D02*
X222275500Y-181552000D01*
X228105500Y-177382000D02*
X232275500Y-181552000D01*
%TO.N,/1*%
X282063000Y-127781000D02*
X271253000Y-127781000D01*
X222556000Y-116930000D02*
X224968000Y-116930000D01*
X165152000Y-117692000D02*
X168326000Y-117692000D01*
X169850000Y-119216000D02*
X170250000Y-119616000D01*
X146102000Y-117692000D02*
X149276000Y-117692000D01*
X163882000Y-118962000D02*
X165152000Y-117692000D01*
X187864000Y-119616000D02*
X189026000Y-118454000D01*
X131116000Y-118708000D02*
X145086000Y-118708000D01*
X224968000Y-116930000D02*
X226746000Y-118708000D01*
X271070000Y-127598000D02*
X271070000Y-126582000D01*
X285929000Y-123915000D02*
X282063000Y-127781000D01*
X271070000Y-126582000D02*
X270562000Y-126074000D01*
X243784000Y-119108000D02*
X244146000Y-119470000D01*
X220524000Y-118962000D02*
X222556000Y-116930000D01*
X205790000Y-117184000D02*
X207568000Y-118962000D01*
X149276000Y-117692000D02*
X150546000Y-118962000D01*
X226746000Y-118708000D02*
X227146000Y-119108000D01*
X189026000Y-118454000D02*
X202236000Y-118454000D01*
X244146000Y-119470000D02*
X246558000Y-119470000D01*
X150546000Y-118962000D02*
X163882000Y-118962000D01*
X207568000Y-118962000D02*
X220524000Y-118962000D01*
X287834000Y-123915000D02*
X285929000Y-123915000D01*
X168326000Y-117692000D02*
X169850000Y-119216000D01*
X227146000Y-119108000D02*
X243784000Y-119108000D01*
X145086000Y-118708000D02*
X146102000Y-117692000D01*
X264212000Y-126074000D02*
X262434000Y-127852000D01*
X270562000Y-126074000D02*
X264212000Y-126074000D01*
X246558000Y-119470000D02*
X248082000Y-117946000D01*
X271253000Y-127781000D02*
X271070000Y-127598000D01*
X202236000Y-118454000D02*
X203506000Y-117184000D01*
X203506000Y-117184000D02*
X205790000Y-117184000D01*
X170250000Y-119616000D02*
X187864000Y-119616000D01*
%TO.N,/2*%
X230938000Y-138012000D02*
X232462000Y-136488000D01*
X237032000Y-138012000D02*
X250750000Y-138012000D01*
X214174000Y-136234000D02*
X216712000Y-136234000D01*
X258242000Y-137146000D02*
X258242000Y-136996000D01*
X285421000Y-126455000D02*
X285548000Y-126328000D01*
X177724000Y-135980000D02*
X179502000Y-137758000D01*
X157532000Y-136234000D02*
X150266000Y-143500000D01*
X218490000Y-138012000D02*
X230938000Y-138012000D01*
X216712000Y-136234000D02*
X218490000Y-138012000D01*
X257122000Y-138266000D02*
X258242000Y-137146000D01*
X194616000Y-136488000D02*
X197662000Y-136488000D01*
X197662000Y-136488000D02*
X199186000Y-138012000D01*
X161214000Y-138012000D02*
X173280000Y-138012000D01*
X161214000Y-138012000D02*
X159436000Y-136234000D01*
X150266000Y-143500000D02*
X148150000Y-143500000D01*
X235508000Y-136488000D02*
X237032000Y-138012000D01*
X250750000Y-138012000D02*
X251004000Y-138266000D01*
X265990000Y-145886000D02*
X265990000Y-148934000D01*
X173280000Y-138012000D02*
X175312000Y-135980000D01*
X159436000Y-136234000D02*
X157532000Y-136234000D01*
X285548000Y-126328000D02*
X265990000Y-145886000D01*
X193346000Y-137758000D02*
X194616000Y-136488000D01*
X179502000Y-137758000D02*
X193346000Y-137758000D01*
X199186000Y-138012000D02*
X212396000Y-138012000D01*
X251004000Y-138266000D02*
X257122000Y-138266000D01*
X232462000Y-136488000D02*
X235508000Y-136488000D01*
X212396000Y-138012000D02*
X214174000Y-136234000D01*
X175312000Y-135980000D02*
X177724000Y-135980000D01*
%TO.N,/3*%
X229160000Y-155030000D02*
X231192000Y-157062000D01*
X202110000Y-156808000D02*
X203634000Y-155284000D01*
X166422000Y-154776000D02*
X168834000Y-154776000D01*
X249988000Y-157316000D02*
X260784000Y-157316000D01*
X203634000Y-155284000D02*
X210872000Y-155284000D01*
X164390000Y-156808000D02*
X152000000Y-156808000D01*
X239956000Y-157062000D02*
X241480000Y-155538000D01*
X188900000Y-155538000D02*
X190424000Y-157062000D01*
X231192000Y-157062000D02*
X239956000Y-157062000D01*
X248210000Y-155538000D02*
X249988000Y-157316000D01*
X241480000Y-155538000D02*
X248210000Y-155538000D01*
X171120000Y-155538000D02*
X188900000Y-155538000D01*
X190424000Y-157062000D02*
X201856000Y-157062000D01*
X221668000Y-156554000D02*
X223192000Y-155030000D01*
X223192000Y-155030000D02*
X229160000Y-155030000D01*
X168834000Y-154776000D02*
X170358000Y-156300000D01*
X170358000Y-156300000D02*
X171120000Y-155538000D01*
X164390000Y-156808000D02*
X166422000Y-154776000D01*
X212142000Y-156554000D02*
X221668000Y-156554000D01*
X273610000Y-150204000D02*
X273610000Y-139545500D01*
X273610000Y-139545500D02*
X282509500Y-130646000D01*
X282509500Y-130646000D02*
X282754000Y-130646000D01*
X282754000Y-130646000D02*
X282754000Y-130401500D01*
X210872000Y-155284000D02*
X212142000Y-156554000D01*
X201856000Y-157062000D02*
X202110000Y-156808000D01*
X266244000Y-157570000D02*
X273610000Y-150204000D01*
%TO.N,/4*%
X196394000Y-174588000D02*
X200204000Y-174588000D01*
X234113000Y-174715000D02*
X233859000Y-174461000D01*
X234113000Y-174715000D02*
X235256000Y-175858000D01*
X193094000Y-174842000D02*
X194364000Y-176112000D01*
X274880000Y-140815500D02*
X284160500Y-131535000D01*
X233859000Y-174461000D02*
X211761000Y-174461000D01*
X211761000Y-174461000D02*
X211507000Y-174715000D01*
X194870000Y-176112000D02*
X196394000Y-174588000D01*
X207316000Y-178906000D02*
X208586000Y-177636000D01*
X284160500Y-131535000D02*
X287834000Y-131535000D01*
X268530000Y-176366000D02*
X274880000Y-170016000D01*
X251386000Y-176112000D02*
X252910000Y-174588000D01*
X167184000Y-176112000D02*
X168454000Y-174842000D01*
X252910000Y-174588000D02*
X265610000Y-174588000D01*
X168454000Y-174842000D02*
X193094000Y-174842000D01*
X251132000Y-175858000D02*
X251386000Y-176112000D01*
X204522000Y-178906000D02*
X207316000Y-178906000D01*
X235256000Y-175858000D02*
X236652000Y-175858000D01*
X194364000Y-176112000D02*
X194870000Y-176112000D01*
X208586000Y-177636000D02*
X211507000Y-174715000D01*
X267388000Y-176366000D02*
X268530000Y-176366000D01*
X200204000Y-174588000D02*
X204522000Y-178906000D01*
X265610000Y-174588000D02*
X267388000Y-176366000D01*
X274880000Y-170016000D02*
X274880000Y-140815500D01*
%TO.N,/5*%
X180900000Y-175858000D02*
X190298000Y-175858000D01*
X252782000Y-164174000D02*
X257862000Y-159094000D01*
X150500000Y-155000000D02*
X150500000Y-158500000D01*
X130000000Y-120500000D02*
X130000000Y-121000000D01*
X151000000Y-189350000D02*
X151000000Y-178708000D01*
X204014000Y-179668000D02*
X207700000Y-183354000D01*
X139000000Y-139500000D02*
X139000000Y-143500000D01*
X150500000Y-158500000D02*
X155246000Y-163246000D01*
X261926000Y-158332000D02*
X261926000Y-136078000D01*
X190298000Y-175858000D02*
X192076000Y-177636000D01*
X139000000Y-143500000D02*
X150500000Y-155000000D01*
X155246000Y-174462000D02*
X157912000Y-177128000D01*
X130000000Y-121000000D02*
X138500000Y-129500000D01*
X236318000Y-182000000D02*
X242576000Y-182000000D01*
X157912000Y-177128000D02*
X179630000Y-177128000D01*
X259386000Y-119468000D02*
X260400000Y-118454000D01*
X128000000Y-116000000D02*
X129500000Y-117500000D01*
X129500000Y-117500000D02*
X129500000Y-120000000D01*
X207700000Y-183354000D02*
X207700000Y-184000000D01*
X242576000Y-182000000D02*
X252782000Y-171794000D01*
X209332000Y-179668000D02*
X213396000Y-175604000D01*
X179630000Y-177128000D02*
X180900000Y-175858000D01*
X213396000Y-175604000D02*
X229922000Y-175604000D01*
X201982000Y-177636000D02*
X204014000Y-179668000D01*
X140000000Y-138500000D02*
X139000000Y-139500000D01*
X229922000Y-175604000D02*
X236318000Y-182000000D01*
X204014000Y-179668000D02*
X209332000Y-179668000D01*
X155246000Y-163246000D02*
X155246000Y-174462000D01*
X130000000Y-107000000D02*
X128000000Y-109000000D01*
X261926000Y-136078000D02*
X261204000Y-135356000D01*
X140000000Y-135000000D02*
X140000000Y-138500000D01*
X252782000Y-171794000D02*
X252782000Y-164174000D01*
X151000000Y-178708000D02*
X155246000Y-174462000D01*
X192076000Y-177636000D02*
X201982000Y-177636000D01*
X129500000Y-120000000D02*
X130000000Y-120500000D01*
X257862000Y-159094000D02*
X261164000Y-159094000D01*
X138500000Y-133500000D02*
X140000000Y-135000000D01*
X152150000Y-190500000D02*
X151000000Y-189350000D01*
X261164000Y-159094000D02*
X261926000Y-158332000D01*
X259386000Y-124042000D02*
X261204000Y-125860000D01*
X138500000Y-129500000D02*
X138500000Y-133500000D01*
X261204000Y-125860000D02*
X261204000Y-135356000D01*
X259386000Y-124042000D02*
X259386000Y-119468000D01*
X128000000Y-109000000D02*
X128000000Y-116000000D01*
%TO.N,/Rotary_A*%
X286183000Y-121375000D02*
X284969000Y-122589000D01*
X284969000Y-122589000D02*
X271649000Y-122589000D01*
X269916000Y-120856000D02*
X266204000Y-120856000D01*
X288596000Y-121375000D02*
X286183000Y-121375000D01*
X271649000Y-122589000D02*
X269916000Y-120856000D01*
%TO.N,/Rotary_B*%
X281667000Y-115081000D02*
X285421000Y-118835000D01*
X272411000Y-115081000D02*
X281667000Y-115081000D01*
X271578000Y-115914000D02*
X272411000Y-115081000D01*
X269038000Y-116676000D02*
X269800000Y-117438000D01*
X285421000Y-118835000D02*
X288596000Y-118835000D01*
X267768000Y-113120000D02*
X269038000Y-114390000D01*
X271578000Y-116422000D02*
X271578000Y-115914000D01*
X270562000Y-117438000D02*
X271578000Y-116422000D01*
X269038000Y-114390000D02*
X269038000Y-116676000D01*
X269800000Y-117438000D02*
X270562000Y-117438000D01*
X264974000Y-113120000D02*
X267768000Y-113120000D01*
%TO.N,/GND*%
X271070000Y-181446000D02*
X275388000Y-181446000D01*
X278182000Y-151322000D02*
X276700000Y-149840000D01*
X289094000Y-157724000D02*
X289094000Y-160446000D01*
X278182000Y-162840000D02*
X278182000Y-178652000D01*
X276700000Y-149840000D02*
X276700000Y-142288000D01*
X275388000Y-181446000D02*
X278055000Y-178779000D01*
X267260000Y-185256000D02*
X271070000Y-181446000D01*
X289094000Y-160446000D02*
X286700000Y-162840000D01*
X276700000Y-142288000D02*
X278182000Y-140806000D01*
X278182000Y-162840000D02*
X278182000Y-151322000D01*
X278182000Y-178652000D02*
X278055000Y-178779000D01*
X286700000Y-162840000D02*
X278182000Y-162840000D01*
%TO.N,/E*%
X219354000Y-153302000D02*
X218542000Y-153302000D01*
X216079000Y-143981000D02*
X216079000Y-141452000D01*
X199182500Y-115302000D02*
X198576000Y-115302000D01*
X198576000Y-108444000D02*
X195907500Y-105775500D01*
X209194000Y-134302000D02*
X209194000Y-127698000D01*
X228879000Y-172302000D02*
X228144000Y-172302000D01*
X209194000Y-127698000D02*
X206554000Y-125058000D01*
X218542000Y-146444000D02*
X216079000Y-143981000D01*
X228144000Y-165444000D02*
X225604000Y-162904000D01*
X195907500Y-105775500D02*
X195907500Y-103452000D01*
X225604000Y-162904000D02*
X225604000Y-160452000D01*
X228144000Y-172302000D02*
X228144000Y-165444000D01*
X209829000Y-134302000D02*
X209194000Y-134302000D01*
X218542000Y-153302000D02*
X218542000Y-146444000D01*
X198576000Y-115302000D02*
X198576000Y-108444000D01*
X206554000Y-125058000D02*
X206554000Y-122452000D01*
%TO.N,/A*%
X268530000Y-123026000D02*
X269546000Y-122010000D01*
X132386000Y-146140000D02*
X129932500Y-143686500D01*
X122330000Y-107890000D02*
X119907500Y-105467500D01*
X128445000Y-134302000D02*
X127914000Y-134302000D01*
X127914000Y-127444000D02*
X125170000Y-124700000D01*
X137212000Y-165190000D02*
X134695000Y-162673000D01*
X133207500Y-191302000D02*
X132590000Y-191302000D01*
X129932500Y-143686500D02*
X129932500Y-141452000D01*
X137212000Y-172302000D02*
X137212000Y-165190000D01*
X132590000Y-191302000D02*
X132590000Y-184190000D01*
X125170000Y-124700000D02*
X125170000Y-122452000D01*
X119907500Y-105467500D02*
X119907500Y-103452000D01*
X123182500Y-115302000D02*
X122330000Y-115302000D01*
X132386000Y-152480500D02*
X132386000Y-146140000D01*
X132590000Y-184190000D02*
X129932500Y-181532500D01*
X127914000Y-134302000D02*
X127914000Y-127444000D01*
X134695000Y-162673000D02*
X134695000Y-160452000D01*
X268530000Y-124296000D02*
X268530000Y-123026000D01*
X129932500Y-181532500D02*
X129932500Y-179452000D01*
X136954000Y-171286000D02*
X137970000Y-172302000D01*
X133207500Y-153302000D02*
X132386000Y-152480500D01*
X122330000Y-115302000D02*
X122330000Y-107890000D01*
X137970000Y-172302000D02*
X137212000Y-172302000D01*
%TO.N,/B*%
X159079000Y-143877000D02*
X159079000Y-141452000D01*
X162354000Y-153302000D02*
X161377097Y-153302000D01*
X152806000Y-134302000D02*
X151944000Y-133440000D01*
X170994000Y-162842000D02*
X168604000Y-160452000D01*
X142182500Y-115302000D02*
X141634000Y-115302000D01*
X143823961Y-107532000D02*
X144578000Y-107532000D01*
X151944000Y-133440000D02*
X151944000Y-127090000D01*
X161596000Y-146394000D02*
X159079000Y-143877000D01*
X141634000Y-108144000D02*
X138907500Y-105417500D01*
X141634000Y-108144000D02*
X143211961Y-108144000D01*
X167616500Y-191302000D02*
X167134000Y-191302000D01*
X144578000Y-107532000D02*
X150055000Y-102055000D01*
X161377097Y-153302000D02*
X161342000Y-153266903D01*
X151944000Y-127090000D02*
X149554000Y-124700000D01*
X161342000Y-153266903D02*
X161596000Y-153012903D01*
X149554000Y-124700000D02*
X149554000Y-122452000D01*
X161596000Y-153012903D02*
X161596000Y-146394000D01*
X170994000Y-172302000D02*
X170994000Y-162842000D01*
X143211961Y-108144000D02*
X143823961Y-107532000D01*
X164341500Y-181397500D02*
X164341500Y-179452000D01*
X171879000Y-172302000D02*
X170994000Y-172302000D01*
X167134000Y-184190000D02*
X164341500Y-181397500D01*
X262434000Y-132678000D02*
X268276000Y-132678000D01*
X141634000Y-115302000D02*
X141634000Y-108144000D01*
X138907500Y-105417500D02*
X138907500Y-103452000D01*
X167134000Y-191302000D02*
X167134000Y-184190000D01*
X152829000Y-134302000D02*
X152806000Y-134302000D01*
%TO.N,/C*%
X171148000Y-134302000D02*
X171148000Y-127244000D01*
X271324000Y-163412000D02*
X271324000Y-161634000D01*
X270054000Y-131408000D02*
X271070000Y-130392000D01*
X265519000Y-158369000D02*
X265519000Y-156591000D01*
X190879000Y-172302000D02*
X190298000Y-172302000D01*
X181204000Y-152794000D02*
X180900000Y-152490000D01*
X270308000Y-164428000D02*
X271324000Y-163412000D01*
X160476000Y-108444000D02*
X157907500Y-105875500D01*
X267514000Y-164428000D02*
X270308000Y-164428000D01*
X160476000Y-115302000D02*
X160476000Y-108444000D01*
X265519000Y-156591000D02*
X264720000Y-155792000D01*
X191110000Y-191302000D02*
X192000500Y-191302000D01*
X270054000Y-138012000D02*
X270054000Y-131408000D01*
X191518000Y-191302000D02*
X191518000Y-184444000D01*
X181204000Y-153302000D02*
X181204000Y-152794000D01*
X171829000Y-134302000D02*
X171148000Y-134302000D01*
X178079000Y-143573000D02*
X178079000Y-141452000D01*
X171148000Y-127244000D02*
X168554000Y-124650000D01*
X157907500Y-105875500D02*
X157907500Y-103452000D01*
X181354000Y-153302000D02*
X181204000Y-153302000D01*
X271324000Y-161634000D02*
X270308000Y-160618000D01*
X270308000Y-160618000D02*
X267768000Y-160618000D01*
X264720000Y-155792000D02*
X264720000Y-143346000D01*
X180900000Y-152490000D02*
X180900000Y-146394000D01*
X272594000Y-123915000D02*
X272594000Y-124042000D01*
X267768000Y-160618000D02*
X265519000Y-158369000D01*
X161182500Y-115302000D02*
X160476000Y-115302000D01*
X188725500Y-181651500D02*
X188725500Y-179452000D01*
X192000500Y-191302000D02*
X191518000Y-191302000D01*
X264720000Y-143346000D02*
X270054000Y-138012000D01*
X190298000Y-172302000D02*
X190298000Y-164936000D01*
X191518000Y-184444000D02*
X188725500Y-181651500D01*
X181354000Y-153302000D02*
X180442000Y-153302000D01*
X187604000Y-162242000D02*
X187604000Y-160452000D01*
X190298000Y-164936000D02*
X187604000Y-162242000D01*
X168554000Y-124650000D02*
X168554000Y-122452000D01*
X180900000Y-146394000D02*
X178079000Y-143573000D01*
X271070000Y-130392000D02*
X271324000Y-130392000D01*
%TO.N,/D*%
X230550500Y-191302000D02*
X231192000Y-191943500D01*
X236018000Y-191860000D02*
X240082000Y-187796000D01*
X231732097Y-191943500D02*
X231815597Y-191860000D01*
X250204000Y-187796000D02*
X258840000Y-179160000D01*
X258840000Y-179160000D02*
X274880000Y-179160000D01*
X275896000Y-142584000D02*
X275896000Y-141568000D01*
X200000000Y-146698000D02*
X197079000Y-143777000D01*
X200000000Y-153302000D02*
X200000000Y-146698000D01*
X240082000Y-187796000D02*
X250204000Y-187796000D01*
X200354000Y-153302000D02*
X200000000Y-153302000D01*
X190398000Y-134302000D02*
X190398000Y-127698000D01*
X199238000Y-153302000D02*
X200354000Y-153302000D01*
X190829000Y-134302000D02*
X190398000Y-134302000D01*
X179480000Y-108144000D02*
X176907500Y-105571500D01*
X206604000Y-162700000D02*
X206604000Y-160452000D01*
X227275500Y-181339500D02*
X227275500Y-179452000D01*
X179480000Y-115302000D02*
X179480000Y-108144000D01*
X190398000Y-127698000D02*
X187554000Y-124854000D01*
X274880000Y-179160000D02*
X275642000Y-178398000D01*
X190675000Y-134456000D02*
X190829000Y-134302000D01*
X209094000Y-172302000D02*
X209094000Y-165190000D01*
X230550500Y-191302000D02*
X229972000Y-191302000D01*
X176907500Y-105571500D02*
X176907500Y-103452000D01*
X187554000Y-124854000D02*
X187554000Y-122452000D01*
X197079000Y-143777000D02*
X197079000Y-141452000D01*
X231815597Y-191860000D02*
X236018000Y-191860000D01*
X231192000Y-191943500D02*
X231732097Y-191943500D01*
X229972000Y-184036000D02*
X227275500Y-181339500D01*
X229972000Y-191302000D02*
X229972000Y-184036000D01*
X209879000Y-172302000D02*
X209094000Y-172302000D01*
X275642000Y-178398000D02*
X275896000Y-142584000D01*
X209094000Y-165190000D02*
X206604000Y-162700000D01*
X180182500Y-115302000D02*
X179480000Y-115302000D01*
%TO.N,/F*%
X238354000Y-153302000D02*
X237846000Y-153302000D01*
X255576000Y-114695500D02*
X256182500Y-115302000D01*
X247448000Y-172302000D02*
X247448000Y-165698000D01*
X237846000Y-146698000D02*
X235079000Y-143931000D01*
X239044000Y-145500000D02*
X237846000Y-146698000D01*
X218182500Y-115302000D02*
X217580000Y-115302000D01*
X256182500Y-115302000D02*
X256182500Y-132776500D01*
X247448000Y-165698000D02*
X244604000Y-162854000D01*
X235079000Y-143931000D02*
X235079000Y-141452000D01*
X227990000Y-127444000D02*
X225554000Y-125008000D01*
X247472000Y-139028000D02*
X241000000Y-145500000D01*
X247879000Y-172302000D02*
X247448000Y-172302000D01*
X273356000Y-116431305D02*
X273356000Y-116295000D01*
X260298000Y-115302000D02*
X264212000Y-119216000D01*
X252907500Y-103452000D02*
X255576000Y-106120500D01*
X256182500Y-132776500D02*
X259386000Y-135980000D01*
X217580000Y-115302000D02*
X217580000Y-108398000D01*
X259132000Y-139028000D02*
X247472000Y-139028000D01*
X217580000Y-108398000D02*
X214907500Y-105725500D01*
X255576000Y-106120500D02*
X255576000Y-114695500D01*
X247879000Y-172302000D02*
X246940000Y-172302000D01*
X241000000Y-145500000D02*
X239044000Y-145500000D01*
X244604000Y-162854000D02*
X244604000Y-160452000D01*
X228829000Y-134302000D02*
X227990000Y-134302000D01*
X237846000Y-153302000D02*
X237846000Y-146698000D01*
X259386000Y-138774000D02*
X259132000Y-139028000D01*
X270571305Y-119216000D02*
X273356000Y-116431305D01*
X259386000Y-135980000D02*
X259386000Y-138774000D01*
X256182500Y-115302000D02*
X260298000Y-115302000D01*
X214907500Y-105725500D02*
X214907500Y-103452000D01*
X227990000Y-134302000D02*
X227990000Y-127444000D01*
X225554000Y-125008000D02*
X225554000Y-122452000D01*
X264212000Y-119216000D02*
X270571305Y-119216000D01*
%TO.N,/G*%
X236676000Y-108444000D02*
X233907500Y-105675500D01*
X271761000Y-112541000D02*
X271578000Y-112358000D01*
X288596000Y-116295000D02*
X283897000Y-116295000D01*
X247040000Y-134302000D02*
X247040000Y-126936000D01*
X237182500Y-115302000D02*
X236676000Y-115302000D01*
X263604000Y-162804000D02*
X263604000Y-160452000D01*
X283897000Y-116295000D02*
X281738000Y-114136000D01*
X244554000Y-124450000D02*
X244554000Y-122452000D01*
X122500000Y-96000000D02*
X122500000Y-87492500D01*
X257862000Y-123534000D02*
X257875000Y-123521000D01*
X254079000Y-143373000D02*
X254079000Y-141452000D01*
X256796000Y-146090000D02*
X254079000Y-143373000D01*
X256796000Y-153302000D02*
X256796000Y-146090000D01*
X117000000Y-89000000D02*
X117000000Y-91500000D01*
X266244000Y-165444000D02*
X263604000Y-162804000D01*
X264466000Y-110580000D02*
X269038000Y-110580000D01*
X276150000Y-112612000D02*
X276079000Y-112541000D01*
X119907500Y-84900000D02*
X117000000Y-87807500D01*
X277674000Y-114136000D02*
X276150000Y-112612000D01*
X257354000Y-153302000D02*
X256796000Y-153302000D01*
X247040000Y-126936000D02*
X244554000Y-124450000D01*
X123182500Y-96750000D02*
X123182500Y-96682500D01*
X117000000Y-87807500D02*
X117000000Y-89000000D01*
X236676000Y-115302000D02*
X236676000Y-108444000D01*
X257875000Y-119203000D02*
X260148000Y-116930000D01*
X266244000Y-172302000D02*
X266244000Y-165444000D01*
X281738000Y-114136000D02*
X277674000Y-114136000D01*
X276079000Y-112541000D02*
X271761000Y-112541000D01*
X257875000Y-123521000D02*
X257875000Y-119203000D01*
X123182500Y-96682500D02*
X122500000Y-96000000D01*
X266879000Y-172302000D02*
X266244000Y-172302000D01*
X233907500Y-105675500D02*
X233907500Y-103452000D01*
X247829000Y-134302000D02*
X247040000Y-134302000D01*
X122500000Y-87492500D02*
X119907500Y-84900000D01*
D33*
%TO.N,/Bat+*%
X268530000Y-145886000D02*
X268530000Y-152236000D01*
X271578000Y-125312000D02*
X271578000Y-125820000D01*
X272340000Y-142076000D02*
X268530000Y-145886000D01*
X270816000Y-124550000D02*
X271578000Y-125312000D01*
X270816000Y-123026000D02*
X270816000Y-124550000D01*
D32*
%TO.N,/VCC*%
X285084000Y-155724000D02*
X280700000Y-151340000D01*
X280700000Y-151340000D02*
X278200000Y-148840000D01*
X286694000Y-155724000D02*
X286694000Y-159724000D01*
X286694000Y-155724000D02*
X285084000Y-155724000D01*
X278200000Y-148840000D02*
X278200000Y-146340000D01*
%TO.N,/TXD*%
X288342000Y-145886000D02*
X290457000Y-143771000D01*
X282825000Y-112429000D02*
X280976000Y-110580000D01*
X289087000Y-112429000D02*
X282825000Y-112429000D01*
X290457000Y-143771000D02*
X290457000Y-113799000D01*
X290457000Y-113799000D02*
X289087000Y-112429000D01*
%TO.N,/RXI*%
X290007000Y-116422000D02*
X290007000Y-115877144D01*
X289098856Y-114969000D02*
X283333000Y-114969000D01*
X290007000Y-115877144D02*
X289098856Y-114969000D01*
X283333000Y-114969000D02*
X278436000Y-110072000D01*
X290007000Y-142189000D02*
X290007000Y-116422000D01*
X286818000Y-145378000D02*
X290007000Y-142189000D01*
D33*
%TO.N,/Bat-*%
X282500000Y-164936000D02*
X286104000Y-164936000D01*
X280475500Y-192348000D02*
X280996000Y-192348000D01*
X286104000Y-164936000D02*
X290700000Y-160340000D01*
X282708000Y-110026000D02*
X282246000Y-109564000D01*
X282500000Y-190323500D02*
X282500000Y-164936000D01*
X290882000Y-111819500D02*
X289088500Y-110026000D01*
X290700000Y-160340000D02*
X290700000Y-146669041D01*
X280475500Y-192348000D02*
X282500000Y-190323500D01*
X290882000Y-146487041D02*
X290882000Y-111819500D01*
X282500000Y-109564000D02*
X282246000Y-109564000D01*
X289088500Y-110026000D02*
X282708000Y-110026000D01*
X290700000Y-146669041D02*
X290882000Y-146487041D01*
D32*
%TO.N,Net-(TXD1-COM)*%
X288596000Y-106008000D02*
X288596000Y-106135000D01*
%TO.N,Net-(TXD2-COM)*%
X278182000Y-102960000D02*
X278436000Y-103214000D01*
X278436000Y-104230000D02*
X278944000Y-104738000D01*
X278944000Y-104738000D02*
X278944000Y-105754000D01*
X278436000Y-103214000D02*
X278436000Y-104230000D01*
X275642000Y-102960000D02*
X278182000Y-102960000D01*
X275134000Y-104357000D02*
X275134000Y-103468000D01*
X273356000Y-106135000D02*
X275134000Y-104357000D01*
X275134000Y-103468000D02*
X275642000Y-102960000D01*
%TO.N,Net-(D33-A)*%
X244632500Y-113102000D02*
X244632500Y-108827000D01*
X253791500Y-101436000D02*
X257907500Y-105552000D01*
X252023500Y-101436000D02*
X253791500Y-101436000D01*
X247907500Y-105552000D02*
X252023500Y-101436000D01*
X244632500Y-108827000D02*
X247907500Y-105552000D01*
%TO.N,/SDA*%
X282754000Y-146140000D02*
X284278000Y-146140000D01*
X284278000Y-146140000D02*
X286564000Y-143854000D01*
X286564000Y-143854000D02*
X286564000Y-135980000D01*
%TO.N,/SCL*%
X272340000Y-185256000D02*
X272848000Y-185256000D01*
X285548000Y-136488000D02*
X283770000Y-134710000D01*
X285548000Y-143600000D02*
X285548000Y-136488000D01*
%TO.N,Net-(COM_SELECT1-COM)*%
X281194000Y-155724000D02*
X281194000Y-159724000D01*
%TO.N,Net-(P3-COM)*%
X284405000Y-128995000D02*
X283770000Y-129630000D01*
X288596000Y-128995000D02*
X284405000Y-128995000D01*
%TO.N,Net-(SCL1-COM)*%
X273356000Y-128995000D02*
X279579000Y-128995000D01*
X279579000Y-128995000D02*
X280214000Y-129630000D01*
%TO.N,Net-(SDA1-COM)*%
X276658000Y-125820000D02*
X276023000Y-126455000D01*
X276023000Y-126455000D02*
X273356000Y-126455000D01*
%TO.N,Net-(D35-A)*%
X111632500Y-94550000D02*
X111632500Y-90275000D01*
X111632500Y-90275000D02*
X114907500Y-87000000D01*
X112150000Y-95067500D02*
X111632500Y-94550000D01*
%TD*%
M02*
