M48
; DRILL file {KiCad 8.0.6} date 2024-11-21T22:48:04-0700
; FORMAT={-:-/ absolute / inch / decimal}
; #@! TF.CreationDate,2024-11-21T22:48:04-07:00
; #@! TF.GenerationSoftware,Kicad,Pcbnew,8.0.6
; #@! TF.FileFunction,NonPlated,1,2,NPTH
FMAT,2
INCH
; #@! TA.AperFunction,NonPlated,NPTH,ComponentDrill
T1C0.0670
; #@! TA.AperFunction,NonPlated,NPTH,ComponentDrill
T2C0.0866
; #@! TA.AperFunction,NonPlated,NPTH,ComponentDrill
T3C0.1181
; #@! TA.AperFunction,NonPlated,NPTH,ComponentDrill
T4C0.1200
; #@! TA.AperFunction,NonPlated,NPTH,ComponentDrill
T5C0.1570
%
G90
G05
T1
X4.5208Y-3.5748
X4.5208Y-4.3052
X4.728Y-5.0532
X4.9155Y-5.8013
X4.9155Y-7.2973
X4.9208Y-3.5748
X4.9208Y-4.3052
X5.103Y-6.5493
X5.128Y-5.0532
X5.2688Y-3.5748
X5.2688Y-4.3052
X5.3155Y-5.8013
X5.3155Y-7.2973
X5.503Y-6.5493
X5.6688Y-3.5748
X5.6688Y-4.3052
X5.688Y-5.0532
X6.0168Y-3.5748
X6.0168Y-4.3052
X6.063Y-5.8013
X6.088Y-5.0532
X6.2701Y-7.2973
X6.4168Y-3.5748
X6.4168Y-4.3052
X6.436Y-5.0532
X6.438Y-6.5493
X6.463Y-5.8013
X6.6701Y-7.2973
X6.7649Y-3.5748
X6.7649Y-4.3052
X6.811Y-5.8013
X6.836Y-5.0532
X6.838Y-6.5493
X7.1649Y-3.5748
X7.1649Y-4.3052
X7.184Y-5.0532
X7.186Y-6.5493
X7.211Y-5.8013
X7.2301Y-7.2973
X7.5129Y-3.5748
X7.5129Y-4.3052
X7.559Y-5.8013
X7.584Y-5.0532
X7.586Y-6.5493
X7.6301Y-7.2973
X7.9129Y-3.5748
X7.9129Y-4.3052
X7.932Y-5.0532
X7.934Y-6.5493
X7.959Y-5.8013
X8.2609Y-3.5748
X8.2609Y-4.3052
X8.307Y-5.8013
X8.332Y-5.0532
X8.334Y-6.5493
X8.6609Y-3.5748
X8.6609Y-4.3052
X8.6801Y-5.0532
X8.682Y-6.5493
X8.707Y-5.8013
X8.7479Y-7.2973
X9.009Y-3.5748
X9.009Y-4.3052
X9.0551Y-5.8013
X9.0801Y-5.0532
X9.082Y-6.5493
X9.1479Y-7.2973
X9.409Y-3.5748
X9.409Y-4.3052
X9.4281Y-5.0532
X9.4301Y-6.5493
X9.4551Y-5.8013
X9.757Y-3.5748
X9.757Y-4.3052
X9.8031Y-5.8013
X9.8281Y-5.0532
X9.8301Y-6.5493
X10.157Y-3.5748
X10.157Y-4.3052
X10.1781Y-6.5493
X10.2031Y-5.8013
X10.5781Y-6.5493
T2
X4.42Y-3.94
X4.46Y-7.45
X6.2205Y-6.3386
X6.2402Y-4.7835
X7.32Y-3.84
X8.005Y-7.335
X8.1299Y-5.4134
X9.23Y-4.76
X9.48Y-4.02
X10.2953Y-7.4409
X10.6693Y-5.8071
T3
X4.6208Y-3.3748
X4.6208Y-3.7748
X4.6208Y-4.1052
X4.6208Y-4.5052
X4.828Y-4.8532
X4.828Y-5.2532
X4.8708Y-3.4748
X4.8708Y-3.6748
X4.8708Y-4.2052
X4.8708Y-4.4052
X5.0155Y-5.6013
X5.0155Y-6.0013
X5.0155Y-7.0973
X5.0155Y-7.4973
X5.078Y-4.9532
X5.078Y-5.1532
X5.203Y-6.3493
X5.203Y-6.7493
X5.2655Y-5.7013
X5.2655Y-5.9013
X5.2655Y-7.1973
X5.2655Y-7.3973
X5.3688Y-3.3748
X5.3688Y-3.7748
X5.3688Y-4.1052
X5.3688Y-4.5052
X5.453Y-6.4493
X5.453Y-6.6493
X5.6188Y-3.4748
X5.6188Y-3.6748
X5.6188Y-4.2052
X5.6188Y-4.4052
X5.788Y-4.8532
X5.788Y-5.2532
X6.038Y-4.9532
X6.038Y-5.1532
X6.1168Y-3.3748
X6.1168Y-3.7748
X6.1168Y-4.1052
X6.1168Y-4.5052
X6.163Y-5.6013
X6.163Y-6.0013
X6.3668Y-3.4748
X6.3668Y-3.6748
X6.3668Y-4.2052
X6.3668Y-4.4052
X6.3701Y-7.0973
X6.3701Y-7.4973
X6.413Y-5.7013
X6.413Y-5.9013
X6.536Y-4.8532
X6.536Y-5.2532
X6.538Y-6.3493
X6.538Y-6.7493
X6.6201Y-7.1973
X6.6201Y-7.3973
X6.786Y-4.9532
X6.786Y-5.1532
X6.788Y-6.4493
X6.788Y-6.6493
X6.8649Y-3.3748
X6.8649Y-3.7748
X6.8649Y-4.1052
X6.8649Y-4.5052
X6.911Y-5.6013
X6.911Y-6.0013
X7.1149Y-3.4748
X7.1149Y-3.6748
X7.1149Y-4.2052
X7.1149Y-4.4052
X7.161Y-5.7013
X7.161Y-5.9013
X7.284Y-4.8532
X7.284Y-5.2532
X7.286Y-6.3493
X7.286Y-6.7493
X7.3301Y-7.0973
X7.3301Y-7.4973
X7.534Y-4.9532
X7.534Y-5.1532
X7.536Y-6.4493
X7.536Y-6.6493
X7.5801Y-7.1973
X7.5801Y-7.3973
X7.6129Y-3.3748
X7.6129Y-3.7748
X7.6129Y-4.1052
X7.6129Y-4.5052
X7.659Y-5.6013
X7.659Y-6.0013
X7.8629Y-3.4748
X7.8629Y-3.6748
X7.8629Y-4.2052
X7.8629Y-4.4052
X7.909Y-5.7013
X7.909Y-5.9013
X8.032Y-4.8532
X8.032Y-5.2532
X8.034Y-6.3493
X8.034Y-6.7493
X8.282Y-4.9532
X8.282Y-5.1532
X8.284Y-6.4493
X8.284Y-6.6493
X8.3609Y-3.3748
X8.3609Y-3.7748
X8.3609Y-4.1052
X8.3609Y-4.5052
X8.407Y-5.6013
X8.407Y-6.0013
X8.6109Y-3.4748
X8.6109Y-3.6748
X8.6109Y-4.2052
X8.6109Y-4.4052
X8.657Y-5.7013
X8.657Y-5.9013
X8.7801Y-4.8532
X8.7801Y-5.2532
X8.782Y-6.3493
X8.782Y-6.7493
X8.8479Y-7.0973
X8.8479Y-7.4973
X9.0301Y-4.9532
X9.0301Y-5.1532
X9.032Y-6.4493
X9.032Y-6.6493
X9.0979Y-7.1973
X9.0979Y-7.3973
X9.109Y-3.3748
X9.109Y-3.7748
X9.109Y-4.1052
X9.109Y-4.5052
X9.1551Y-5.6013
X9.1551Y-6.0013
X9.359Y-3.4748
X9.359Y-3.6748
X9.359Y-4.2052
X9.359Y-4.4052
X9.4051Y-5.7013
X9.4051Y-5.9013
X9.5281Y-4.8532
X9.5281Y-5.2532
X9.5301Y-6.3493
X9.5301Y-6.7493
X9.7781Y-4.9532
X9.7781Y-5.1532
X9.7801Y-6.4493
X9.7801Y-6.6493
X9.857Y-3.3748
X9.857Y-3.7748
X9.857Y-4.1052
X9.857Y-4.5052
X9.9031Y-5.6013
X9.9031Y-6.0013
X10.107Y-3.4748
X10.107Y-3.6748
X10.107Y-4.2052
X10.107Y-4.4052
X10.1531Y-5.7013
X10.1531Y-5.9013
X10.2781Y-6.3493
X10.2781Y-6.7493
X10.5281Y-6.4493
X10.5281Y-6.6493
T4
X4.4594Y-4.7782
X4.6469Y-5.5263
X4.6469Y-7.0223
X4.8344Y-6.2743
X5.3965Y-4.7782
X5.584Y-5.5263
X5.584Y-7.0223
X5.7715Y-6.2743
X8.4794Y-7.0223
X9.4164Y-7.0223
T5
X4.4594Y-5.3782
X4.6469Y-6.1263
X4.6469Y-7.6223
X4.7208Y-3.5748
X4.7208Y-4.3052
X4.8344Y-6.8743
X4.928Y-5.0532
X5.1155Y-5.8013
X5.1155Y-7.2973
X5.303Y-6.5493
X5.3965Y-5.3782
X5.4688Y-3.5748
X5.4688Y-4.3052
X5.584Y-6.1263
X5.584Y-7.6223
X5.7715Y-6.8743
X5.888Y-5.0532
X6.2168Y-3.5748
X6.2168Y-4.3052
X6.263Y-5.8013
X6.4701Y-7.2973
X6.636Y-5.0532
X6.638Y-6.5493
X6.9649Y-3.5748
X6.9649Y-4.3052
X7.011Y-5.8013
X7.384Y-5.0532
X7.386Y-6.5493
X7.4301Y-7.2973
X7.7129Y-3.5748
X7.7129Y-4.3052
X7.759Y-5.8013
X8.132Y-5.0532
X8.134Y-6.5493
X8.4609Y-3.5748
X8.4609Y-4.3052
X8.4794Y-7.6223
X8.507Y-5.8013
X8.8801Y-5.0532
X8.882Y-6.5493
X8.9479Y-7.2973
X9.209Y-3.5748
X9.209Y-4.3052
X9.2551Y-5.8013
X9.4164Y-7.6223
X9.6281Y-5.0532
X9.6301Y-6.5493
X9.957Y-3.5748
X9.957Y-4.3052
X10.0031Y-5.8013
X10.3781Y-6.5493
M30
