M48
; DRILL file {KiCad 8.0.6} date 2024-11-01T15:42:00-0600
; FORMAT={-:-/ absolute / inch / decimal}
; #@! TF.CreationDate,2024-11-01T15:42:00-06:00
; #@! TF.GenerationSoftware,Kicad,Pcbnew,8.0.6
; #@! TF.FileFunction,NonPlated,1,2,NPTH
FMAT,2
INCH
; #@! TA.AperFunction,NonPlated,NPTH,ComponentDrill
T1C0.0670
; #@! TA.AperFunction,NonPlated,NPTH,ComponentDrill
T2C0.0866
; #@! TA.AperFunction,NonPlated,NPTH,ComponentDrill
T3C0.1181
; #@! TA.AperFunction,NonPlated,NPTH,ComponentDrill
T4C0.1200
; #@! TA.AperFunction,NonPlated,NPTH,ComponentDrill
T5C0.1350
; #@! TA.AperFunction,NonPlated,NPTH,ComponentDrill
T6C0.1570
%
G90
G05
T1
X4.5042Y-3.5748
X4.5042Y-4.3052
X4.7114Y-5.0532
X4.8989Y-5.8013
X4.8989Y-7.2973
X4.9373Y-3.5748
X4.9373Y-4.3052
X5.0864Y-6.5493
X5.1445Y-5.0532
X5.2523Y-4.3052
X5.332Y-5.8013
X5.332Y-7.2973
X5.5195Y-6.5493
X5.6714Y-5.0532
X5.6853Y-4.3052
X6.0003Y-4.3052
X6.0464Y-5.8013
X6.1045Y-5.0532
X6.2536Y-7.2973
X6.4194Y-5.0532
X6.4214Y-6.5493
X6.4334Y-4.3052
X6.4795Y-5.8013
X6.6867Y-7.2973
X6.7483Y-4.3052
X6.7944Y-5.8013
X6.8525Y-5.0532
X6.8545Y-6.5493
X7.1675Y-5.0532
X7.1694Y-6.5493
X7.1814Y-4.3052
X7.2136Y-7.2973
X7.2275Y-5.8013
X7.4964Y-4.3052
X7.5425Y-5.8013
X7.6006Y-5.0532
X7.6025Y-6.5493
X7.6467Y-7.2973
X7.9155Y-5.0532
X7.9175Y-6.5493
X7.9294Y-4.3052
X7.9756Y-5.8013
X8.2444Y-4.3052
X8.2905Y-5.8013
X8.3486Y-5.0532
X8.3506Y-6.5493
X8.6635Y-5.0532
X8.6655Y-6.5493
X8.6775Y-4.3052
X8.7236Y-5.8013
X8.7313Y-7.2973
X8.9924Y-4.3052
X9.0385Y-5.8013
X9.0966Y-5.0532
X9.0986Y-6.5493
X9.1644Y-7.2973
X9.4116Y-5.0532
X9.4135Y-6.5493
X9.4255Y-4.3052
X9.4716Y-5.8013
X9.7405Y-4.3052
X9.7866Y-5.8013
X9.8446Y-5.0532
X9.8466Y-6.5493
X10.1616Y-6.5493
X10.1735Y-4.3052
X10.2196Y-5.8013
X10.5946Y-6.5493
T2
X4.4291Y-3.9567
X4.4882Y-7.5
X6.2205Y-6.3386
X6.2598Y-4.8031
X7.9921Y-7.3031
X8.13Y-5.64
X9.252Y-4.8031
X10.2953Y-7.4409
X10.6693Y-5.8071
T3
X4.5239Y-3.7224
X4.5239Y-4.4528
X4.7208Y-3.8091
X4.7208Y-4.5394
X4.7311Y-5.2009
X4.9176Y-3.7224
X4.9176Y-4.4528
X4.9186Y-5.9489
X4.9186Y-7.445
X4.928Y-5.2875
X5.1061Y-6.6969
X5.1155Y-6.0355
X5.1155Y-7.5316
X5.1248Y-5.2009
X5.2719Y-4.4528
X5.303Y-6.7835
X5.3123Y-5.9489
X5.3123Y-7.445
X5.4688Y-4.5394
X5.4998Y-6.6969
X5.6656Y-4.4528
X5.6911Y-5.2009
X5.888Y-5.2875
X6.02Y-4.4528
X6.0661Y-5.9489
X6.0848Y-5.2009
X6.2168Y-4.5394
X6.263Y-6.0355
X6.2733Y-7.445
X6.4137Y-4.4528
X6.4391Y-5.2009
X6.4411Y-6.6969
X6.4598Y-5.9489
X6.4701Y-7.5316
X6.636Y-5.2875
X6.638Y-6.7835
X6.667Y-7.445
X6.768Y-4.4528
X6.8141Y-5.9489
X6.8328Y-5.2009
X6.8348Y-6.6969
X6.9649Y-4.5394
X7.011Y-6.0355
X7.1617Y-4.4528
X7.1872Y-5.2009
X7.1891Y-6.6969
X7.2078Y-5.9489
X7.2333Y-7.445
X7.384Y-5.2875
X7.386Y-6.7835
X7.4301Y-7.5316
X7.516Y-4.4528
X7.5622Y-5.9489
X7.5809Y-5.2009
X7.5828Y-6.6969
X7.627Y-7.445
X7.7129Y-4.5394
X7.759Y-6.0355
X7.9097Y-4.4528
X7.9352Y-5.2009
X7.9372Y-6.6969
X7.9559Y-5.9489
X8.132Y-5.2875
X8.134Y-6.7835
X8.2641Y-4.4528
X8.3102Y-5.9489
X8.3289Y-5.2009
X8.3309Y-6.6969
X8.4609Y-4.5394
X8.507Y-6.0355
X8.6578Y-4.4528
X8.6832Y-5.2009
X8.6852Y-6.6969
X8.7039Y-5.9489
X8.751Y-7.445
X8.8801Y-5.2875
X8.882Y-6.7835
X8.9479Y-7.5316
X9.0121Y-4.4528
X9.0582Y-5.9489
X9.0769Y-5.2009
X9.0789Y-6.6969
X9.1447Y-7.445
X9.209Y-4.5394
X9.2551Y-6.0355
X9.4058Y-4.4528
X9.4313Y-5.2009
X9.4332Y-6.6969
X9.4519Y-5.9489
X9.6281Y-5.2875
X9.6301Y-6.7835
X9.7601Y-4.4528
X9.8063Y-5.9489
X9.825Y-5.2009
X9.8269Y-6.6969
X9.957Y-4.5394
X10.0031Y-6.0355
X10.1538Y-4.4528
X10.1813Y-6.6969
X10.2Y-5.9489
X10.3781Y-6.7835
X10.575Y-6.6969
T4
X4.4594Y-4.7782
X4.6469Y-5.5263
X4.6469Y-7.0223
X4.8344Y-6.2743
X5.3965Y-4.7782
X5.584Y-5.5263
X5.584Y-7.0223
X5.7715Y-6.2743
X8.4794Y-7.0223
X9.4164Y-7.0223
T5
X4.7208Y-3.5748
X4.7208Y-4.3052
X4.928Y-5.0532
X5.1155Y-5.8013
X5.1155Y-7.2973
X5.303Y-6.5493
X5.4688Y-4.3052
X5.888Y-5.0532
X6.2168Y-4.3052
X6.263Y-5.8013
X6.4701Y-7.2973
X6.636Y-5.0532
X6.638Y-6.5493
X6.9649Y-4.3052
X7.011Y-5.8013
X7.384Y-5.0532
X7.386Y-6.5493
X7.4301Y-7.2973
X7.7129Y-4.3052
X7.759Y-5.8013
X8.132Y-5.0532
X8.134Y-6.5493
X8.4609Y-4.3052
X8.507Y-5.8013
X8.8801Y-5.0532
X8.882Y-6.5493
X8.9479Y-7.2973
X9.209Y-4.3052
X9.2551Y-5.8013
X9.6281Y-5.0532
X9.6301Y-6.5493
X9.957Y-4.3052
X10.0031Y-5.8013
X10.3781Y-6.5493
T6
X4.4594Y-5.3782
X4.6469Y-6.1263
X4.6469Y-7.6223
X4.8344Y-6.8743
X5.3965Y-5.3782
X5.584Y-6.1263
X5.584Y-7.6223
X5.7715Y-6.8743
X8.4794Y-7.6223
X9.4164Y-7.6223
M30
