%TF.GenerationSoftware,KiCad,Pcbnew,8.0.6*%
%TF.CreationDate,2024-11-01T15:41:52-06:00*%
%TF.ProjectId,simple_split,73696d70-6c65-45f7-9370-6c69742e6b69,v1.0.0*%
%TF.SameCoordinates,Original*%
%TF.FileFunction,Legend,Top*%
%TF.FilePolarity,Positive*%
%FSLAX46Y46*%
G04 Gerber Fmt 4.6, Leading zero omitted, Abs format (unit mm)*
G04 Created by KiCad (PCBNEW 8.0.6) date 2024-11-01 15:41:52*
%MOMM*%
%LPD*%
G01*
G04 APERTURE LIST*
%ADD10C,0.300000*%
%ADD11C,0.150000*%
%ADD12C,0.100000*%
%ADD13C,0.400000*%
%ADD14C,0.120000*%
G04 APERTURE END LIST*
D10*
X277881489Y-189819400D02*
X276738632Y-189819400D01*
X277310060Y-190390828D02*
X277310060Y-189247971D01*
X277881489Y-192359400D02*
X276738632Y-192359400D01*
D11*
X251669405Y-118649200D02*
X251812262Y-118696819D01*
X251812262Y-118696819D02*
X252050357Y-118696819D01*
X252050357Y-118696819D02*
X252145595Y-118649200D01*
X252145595Y-118649200D02*
X252193214Y-118601580D01*
X252193214Y-118601580D02*
X252240833Y-118506342D01*
X252240833Y-118506342D02*
X252240833Y-118411104D01*
X252240833Y-118411104D02*
X252193214Y-118315866D01*
X252193214Y-118315866D02*
X252145595Y-118268247D01*
X252145595Y-118268247D02*
X252050357Y-118220628D01*
X252050357Y-118220628D02*
X251859881Y-118173009D01*
X251859881Y-118173009D02*
X251764643Y-118125390D01*
X251764643Y-118125390D02*
X251717024Y-118077771D01*
X251717024Y-118077771D02*
X251669405Y-117982533D01*
X251669405Y-117982533D02*
X251669405Y-117887295D01*
X251669405Y-117887295D02*
X251717024Y-117792057D01*
X251717024Y-117792057D02*
X251764643Y-117744438D01*
X251764643Y-117744438D02*
X251859881Y-117696819D01*
X251859881Y-117696819D02*
X252097976Y-117696819D01*
X252097976Y-117696819D02*
X252240833Y-117744438D01*
X252574167Y-117696819D02*
X253193214Y-117696819D01*
X253193214Y-117696819D02*
X252859881Y-118077771D01*
X252859881Y-118077771D02*
X253002738Y-118077771D01*
X253002738Y-118077771D02*
X253097976Y-118125390D01*
X253097976Y-118125390D02*
X253145595Y-118173009D01*
X253145595Y-118173009D02*
X253193214Y-118268247D01*
X253193214Y-118268247D02*
X253193214Y-118506342D01*
X253193214Y-118506342D02*
X253145595Y-118601580D01*
X253145595Y-118601580D02*
X253097976Y-118649200D01*
X253097976Y-118649200D02*
X253002738Y-118696819D01*
X253002738Y-118696819D02*
X252717024Y-118696819D01*
X252717024Y-118696819D02*
X252621786Y-118649200D01*
X252621786Y-118649200D02*
X252574167Y-118601580D01*
X253526548Y-117696819D02*
X254145595Y-117696819D01*
X254145595Y-117696819D02*
X253812262Y-118077771D01*
X253812262Y-118077771D02*
X253955119Y-118077771D01*
X253955119Y-118077771D02*
X254050357Y-118125390D01*
X254050357Y-118125390D02*
X254097976Y-118173009D01*
X254097976Y-118173009D02*
X254145595Y-118268247D01*
X254145595Y-118268247D02*
X254145595Y-118506342D01*
X254145595Y-118506342D02*
X254097976Y-118601580D01*
X254097976Y-118601580D02*
X254050357Y-118649200D01*
X254050357Y-118649200D02*
X253955119Y-118696819D01*
X253955119Y-118696819D02*
X253669405Y-118696819D01*
X253669405Y-118696819D02*
X253574167Y-118649200D01*
X253574167Y-118649200D02*
X253526548Y-118601580D01*
X265794819Y-111000666D02*
X265318628Y-111333999D01*
X265794819Y-111572094D02*
X264794819Y-111572094D01*
X264794819Y-111572094D02*
X264794819Y-111191142D01*
X264794819Y-111191142D02*
X264842438Y-111095904D01*
X264842438Y-111095904D02*
X264890057Y-111048285D01*
X264890057Y-111048285D02*
X264985295Y-111000666D01*
X264985295Y-111000666D02*
X265128152Y-111000666D01*
X265128152Y-111000666D02*
X265223390Y-111048285D01*
X265223390Y-111048285D02*
X265271009Y-111095904D01*
X265271009Y-111095904D02*
X265318628Y-111191142D01*
X265318628Y-111191142D02*
X265318628Y-111572094D01*
X264794819Y-110667332D02*
X264794819Y-110048285D01*
X264794819Y-110048285D02*
X265175771Y-110381618D01*
X265175771Y-110381618D02*
X265175771Y-110238761D01*
X265175771Y-110238761D02*
X265223390Y-110143523D01*
X265223390Y-110143523D02*
X265271009Y-110095904D01*
X265271009Y-110095904D02*
X265366247Y-110048285D01*
X265366247Y-110048285D02*
X265604342Y-110048285D01*
X265604342Y-110048285D02*
X265699580Y-110095904D01*
X265699580Y-110095904D02*
X265747200Y-110143523D01*
X265747200Y-110143523D02*
X265794819Y-110238761D01*
X265794819Y-110238761D02*
X265794819Y-110524475D01*
X265794819Y-110524475D02*
X265747200Y-110619713D01*
X265747200Y-110619713D02*
X265699580Y-110667332D01*
X187487405Y-194649200D02*
X187630262Y-194696819D01*
X187630262Y-194696819D02*
X187868357Y-194696819D01*
X187868357Y-194696819D02*
X187963595Y-194649200D01*
X187963595Y-194649200D02*
X188011214Y-194601580D01*
X188011214Y-194601580D02*
X188058833Y-194506342D01*
X188058833Y-194506342D02*
X188058833Y-194411104D01*
X188058833Y-194411104D02*
X188011214Y-194315866D01*
X188011214Y-194315866D02*
X187963595Y-194268247D01*
X187963595Y-194268247D02*
X187868357Y-194220628D01*
X187868357Y-194220628D02*
X187677881Y-194173009D01*
X187677881Y-194173009D02*
X187582643Y-194125390D01*
X187582643Y-194125390D02*
X187535024Y-194077771D01*
X187535024Y-194077771D02*
X187487405Y-193982533D01*
X187487405Y-193982533D02*
X187487405Y-193887295D01*
X187487405Y-193887295D02*
X187535024Y-193792057D01*
X187535024Y-193792057D02*
X187582643Y-193744438D01*
X187582643Y-193744438D02*
X187677881Y-193696819D01*
X187677881Y-193696819D02*
X187915976Y-193696819D01*
X187915976Y-193696819D02*
X188058833Y-193744438D01*
X188392167Y-193696819D02*
X189011214Y-193696819D01*
X189011214Y-193696819D02*
X188677881Y-194077771D01*
X188677881Y-194077771D02*
X188820738Y-194077771D01*
X188820738Y-194077771D02*
X188915976Y-194125390D01*
X188915976Y-194125390D02*
X188963595Y-194173009D01*
X188963595Y-194173009D02*
X189011214Y-194268247D01*
X189011214Y-194268247D02*
X189011214Y-194506342D01*
X189011214Y-194506342D02*
X188963595Y-194601580D01*
X188963595Y-194601580D02*
X188915976Y-194649200D01*
X188915976Y-194649200D02*
X188820738Y-194696819D01*
X188820738Y-194696819D02*
X188535024Y-194696819D01*
X188535024Y-194696819D02*
X188439786Y-194649200D01*
X188439786Y-194649200D02*
X188392167Y-194601580D01*
X189963595Y-194696819D02*
X189392167Y-194696819D01*
X189677881Y-194696819D02*
X189677881Y-193696819D01*
X189677881Y-193696819D02*
X189582643Y-193839676D01*
X189582643Y-193839676D02*
X189487405Y-193934914D01*
X189487405Y-193934914D02*
X189392167Y-193982533D01*
X124408095Y-137649200D02*
X124550952Y-137696819D01*
X124550952Y-137696819D02*
X124789047Y-137696819D01*
X124789047Y-137696819D02*
X124884285Y-137649200D01*
X124884285Y-137649200D02*
X124931904Y-137601580D01*
X124931904Y-137601580D02*
X124979523Y-137506342D01*
X124979523Y-137506342D02*
X124979523Y-137411104D01*
X124979523Y-137411104D02*
X124931904Y-137315866D01*
X124931904Y-137315866D02*
X124884285Y-137268247D01*
X124884285Y-137268247D02*
X124789047Y-137220628D01*
X124789047Y-137220628D02*
X124598571Y-137173009D01*
X124598571Y-137173009D02*
X124503333Y-137125390D01*
X124503333Y-137125390D02*
X124455714Y-137077771D01*
X124455714Y-137077771D02*
X124408095Y-136982533D01*
X124408095Y-136982533D02*
X124408095Y-136887295D01*
X124408095Y-136887295D02*
X124455714Y-136792057D01*
X124455714Y-136792057D02*
X124503333Y-136744438D01*
X124503333Y-136744438D02*
X124598571Y-136696819D01*
X124598571Y-136696819D02*
X124836666Y-136696819D01*
X124836666Y-136696819D02*
X124979523Y-136744438D01*
X125550952Y-137125390D02*
X125455714Y-137077771D01*
X125455714Y-137077771D02*
X125408095Y-137030152D01*
X125408095Y-137030152D02*
X125360476Y-136934914D01*
X125360476Y-136934914D02*
X125360476Y-136887295D01*
X125360476Y-136887295D02*
X125408095Y-136792057D01*
X125408095Y-136792057D02*
X125455714Y-136744438D01*
X125455714Y-136744438D02*
X125550952Y-136696819D01*
X125550952Y-136696819D02*
X125741428Y-136696819D01*
X125741428Y-136696819D02*
X125836666Y-136744438D01*
X125836666Y-136744438D02*
X125884285Y-136792057D01*
X125884285Y-136792057D02*
X125931904Y-136887295D01*
X125931904Y-136887295D02*
X125931904Y-136934914D01*
X125931904Y-136934914D02*
X125884285Y-137030152D01*
X125884285Y-137030152D02*
X125836666Y-137077771D01*
X125836666Y-137077771D02*
X125741428Y-137125390D01*
X125741428Y-137125390D02*
X125550952Y-137125390D01*
X125550952Y-137125390D02*
X125455714Y-137173009D01*
X125455714Y-137173009D02*
X125408095Y-137220628D01*
X125408095Y-137220628D02*
X125360476Y-137315866D01*
X125360476Y-137315866D02*
X125360476Y-137506342D01*
X125360476Y-137506342D02*
X125408095Y-137601580D01*
X125408095Y-137601580D02*
X125455714Y-137649200D01*
X125455714Y-137649200D02*
X125550952Y-137696819D01*
X125550952Y-137696819D02*
X125741428Y-137696819D01*
X125741428Y-137696819D02*
X125836666Y-137649200D01*
X125836666Y-137649200D02*
X125884285Y-137601580D01*
X125884285Y-137601580D02*
X125931904Y-137506342D01*
X125931904Y-137506342D02*
X125931904Y-137315866D01*
X125931904Y-137315866D02*
X125884285Y-137220628D01*
X125884285Y-137220628D02*
X125836666Y-137173009D01*
X125836666Y-137173009D02*
X125741428Y-137125390D01*
X116154819Y-101309523D02*
X115154819Y-101309523D01*
X115154819Y-101309523D02*
X115869104Y-100976190D01*
X115869104Y-100976190D02*
X115154819Y-100642857D01*
X115154819Y-100642857D02*
X116154819Y-100642857D01*
X116154819Y-99642857D02*
X116154819Y-100214285D01*
X116154819Y-99928571D02*
X115154819Y-99928571D01*
X115154819Y-99928571D02*
X115297676Y-100023809D01*
X115297676Y-100023809D02*
X115392914Y-100119047D01*
X115392914Y-100119047D02*
X115440533Y-100214285D01*
X233840905Y-156649200D02*
X233983762Y-156696819D01*
X233983762Y-156696819D02*
X234221857Y-156696819D01*
X234221857Y-156696819D02*
X234317095Y-156649200D01*
X234317095Y-156649200D02*
X234364714Y-156601580D01*
X234364714Y-156601580D02*
X234412333Y-156506342D01*
X234412333Y-156506342D02*
X234412333Y-156411104D01*
X234412333Y-156411104D02*
X234364714Y-156315866D01*
X234364714Y-156315866D02*
X234317095Y-156268247D01*
X234317095Y-156268247D02*
X234221857Y-156220628D01*
X234221857Y-156220628D02*
X234031381Y-156173009D01*
X234031381Y-156173009D02*
X233936143Y-156125390D01*
X233936143Y-156125390D02*
X233888524Y-156077771D01*
X233888524Y-156077771D02*
X233840905Y-155982533D01*
X233840905Y-155982533D02*
X233840905Y-155887295D01*
X233840905Y-155887295D02*
X233888524Y-155792057D01*
X233888524Y-155792057D02*
X233936143Y-155744438D01*
X233936143Y-155744438D02*
X234031381Y-155696819D01*
X234031381Y-155696819D02*
X234269476Y-155696819D01*
X234269476Y-155696819D02*
X234412333Y-155744438D01*
X234793286Y-155792057D02*
X234840905Y-155744438D01*
X234840905Y-155744438D02*
X234936143Y-155696819D01*
X234936143Y-155696819D02*
X235174238Y-155696819D01*
X235174238Y-155696819D02*
X235269476Y-155744438D01*
X235269476Y-155744438D02*
X235317095Y-155792057D01*
X235317095Y-155792057D02*
X235364714Y-155887295D01*
X235364714Y-155887295D02*
X235364714Y-155982533D01*
X235364714Y-155982533D02*
X235317095Y-156125390D01*
X235317095Y-156125390D02*
X234745667Y-156696819D01*
X234745667Y-156696819D02*
X235364714Y-156696819D01*
X235983762Y-155696819D02*
X236079000Y-155696819D01*
X236079000Y-155696819D02*
X236174238Y-155744438D01*
X236174238Y-155744438D02*
X236221857Y-155792057D01*
X236221857Y-155792057D02*
X236269476Y-155887295D01*
X236269476Y-155887295D02*
X236317095Y-156077771D01*
X236317095Y-156077771D02*
X236317095Y-156315866D01*
X236317095Y-156315866D02*
X236269476Y-156506342D01*
X236269476Y-156506342D02*
X236221857Y-156601580D01*
X236221857Y-156601580D02*
X236174238Y-156649200D01*
X236174238Y-156649200D02*
X236079000Y-156696819D01*
X236079000Y-156696819D02*
X235983762Y-156696819D01*
X235983762Y-156696819D02*
X235888524Y-156649200D01*
X235888524Y-156649200D02*
X235840905Y-156601580D01*
X235840905Y-156601580D02*
X235793286Y-156506342D01*
X235793286Y-156506342D02*
X235745667Y-156315866D01*
X235745667Y-156315866D02*
X235745667Y-156077771D01*
X235745667Y-156077771D02*
X235793286Y-155887295D01*
X235793286Y-155887295D02*
X235840905Y-155792057D01*
X235840905Y-155792057D02*
X235888524Y-155744438D01*
X235888524Y-155744438D02*
X235983762Y-155696819D01*
X186315905Y-137649200D02*
X186458762Y-137696819D01*
X186458762Y-137696819D02*
X186696857Y-137696819D01*
X186696857Y-137696819D02*
X186792095Y-137649200D01*
X186792095Y-137649200D02*
X186839714Y-137601580D01*
X186839714Y-137601580D02*
X186887333Y-137506342D01*
X186887333Y-137506342D02*
X186887333Y-137411104D01*
X186887333Y-137411104D02*
X186839714Y-137315866D01*
X186839714Y-137315866D02*
X186792095Y-137268247D01*
X186792095Y-137268247D02*
X186696857Y-137220628D01*
X186696857Y-137220628D02*
X186506381Y-137173009D01*
X186506381Y-137173009D02*
X186411143Y-137125390D01*
X186411143Y-137125390D02*
X186363524Y-137077771D01*
X186363524Y-137077771D02*
X186315905Y-136982533D01*
X186315905Y-136982533D02*
X186315905Y-136887295D01*
X186315905Y-136887295D02*
X186363524Y-136792057D01*
X186363524Y-136792057D02*
X186411143Y-136744438D01*
X186411143Y-136744438D02*
X186506381Y-136696819D01*
X186506381Y-136696819D02*
X186744476Y-136696819D01*
X186744476Y-136696819D02*
X186887333Y-136744438D01*
X187839714Y-137696819D02*
X187268286Y-137696819D01*
X187554000Y-137696819D02*
X187554000Y-136696819D01*
X187554000Y-136696819D02*
X187458762Y-136839676D01*
X187458762Y-136839676D02*
X187363524Y-136934914D01*
X187363524Y-136934914D02*
X187268286Y-136982533D01*
X188792095Y-137696819D02*
X188220667Y-137696819D01*
X188506381Y-137696819D02*
X188506381Y-136696819D01*
X188506381Y-136696819D02*
X188411143Y-136839676D01*
X188411143Y-136839676D02*
X188315905Y-136934914D01*
X188315905Y-136934914D02*
X188220667Y-136982533D01*
X287830319Y-191431333D02*
X288544604Y-191431333D01*
X288544604Y-191431333D02*
X288687461Y-191478952D01*
X288687461Y-191478952D02*
X288782700Y-191574190D01*
X288782700Y-191574190D02*
X288830319Y-191717047D01*
X288830319Y-191717047D02*
X288830319Y-191812285D01*
X287925557Y-191002761D02*
X287877938Y-190955142D01*
X287877938Y-190955142D02*
X287830319Y-190859904D01*
X287830319Y-190859904D02*
X287830319Y-190621809D01*
X287830319Y-190621809D02*
X287877938Y-190526571D01*
X287877938Y-190526571D02*
X287925557Y-190478952D01*
X287925557Y-190478952D02*
X288020795Y-190431333D01*
X288020795Y-190431333D02*
X288116033Y-190431333D01*
X288116033Y-190431333D02*
X288258890Y-190478952D01*
X288258890Y-190478952D02*
X288830319Y-191050380D01*
X288830319Y-191050380D02*
X288830319Y-190431333D01*
X260690476Y-192654819D02*
X260690476Y-191654819D01*
X260690476Y-191654819D02*
X261023809Y-192369104D01*
X261023809Y-192369104D02*
X261357142Y-191654819D01*
X261357142Y-191654819D02*
X261357142Y-192654819D01*
X261880952Y-192654819D02*
X262071428Y-192654819D01*
X262071428Y-192654819D02*
X262166666Y-192607200D01*
X262166666Y-192607200D02*
X262214285Y-192559580D01*
X262214285Y-192559580D02*
X262309523Y-192416723D01*
X262309523Y-192416723D02*
X262357142Y-192226247D01*
X262357142Y-192226247D02*
X262357142Y-191845295D01*
X262357142Y-191845295D02*
X262309523Y-191750057D01*
X262309523Y-191750057D02*
X262261904Y-191702438D01*
X262261904Y-191702438D02*
X262166666Y-191654819D01*
X262166666Y-191654819D02*
X261976190Y-191654819D01*
X261976190Y-191654819D02*
X261880952Y-191702438D01*
X261880952Y-191702438D02*
X261833333Y-191750057D01*
X261833333Y-191750057D02*
X261785714Y-191845295D01*
X261785714Y-191845295D02*
X261785714Y-192083390D01*
X261785714Y-192083390D02*
X261833333Y-192178628D01*
X261833333Y-192178628D02*
X261880952Y-192226247D01*
X261880952Y-192226247D02*
X261976190Y-192273866D01*
X261976190Y-192273866D02*
X262166666Y-192273866D01*
X262166666Y-192273866D02*
X262261904Y-192226247D01*
X262261904Y-192226247D02*
X262309523Y-192178628D01*
X262309523Y-192178628D02*
X262357142Y-192083390D01*
X214145595Y-118649200D02*
X214288452Y-118696819D01*
X214288452Y-118696819D02*
X214526547Y-118696819D01*
X214526547Y-118696819D02*
X214621785Y-118649200D01*
X214621785Y-118649200D02*
X214669404Y-118601580D01*
X214669404Y-118601580D02*
X214717023Y-118506342D01*
X214717023Y-118506342D02*
X214717023Y-118411104D01*
X214717023Y-118411104D02*
X214669404Y-118315866D01*
X214669404Y-118315866D02*
X214621785Y-118268247D01*
X214621785Y-118268247D02*
X214526547Y-118220628D01*
X214526547Y-118220628D02*
X214336071Y-118173009D01*
X214336071Y-118173009D02*
X214240833Y-118125390D01*
X214240833Y-118125390D02*
X214193214Y-118077771D01*
X214193214Y-118077771D02*
X214145595Y-117982533D01*
X214145595Y-117982533D02*
X214145595Y-117887295D01*
X214145595Y-117887295D02*
X214193214Y-117792057D01*
X214193214Y-117792057D02*
X214240833Y-117744438D01*
X214240833Y-117744438D02*
X214336071Y-117696819D01*
X214336071Y-117696819D02*
X214574166Y-117696819D01*
X214574166Y-117696819D02*
X214717023Y-117744438D01*
X215574166Y-117696819D02*
X215383690Y-117696819D01*
X215383690Y-117696819D02*
X215288452Y-117744438D01*
X215288452Y-117744438D02*
X215240833Y-117792057D01*
X215240833Y-117792057D02*
X215145595Y-117934914D01*
X215145595Y-117934914D02*
X215097976Y-118125390D01*
X215097976Y-118125390D02*
X215097976Y-118506342D01*
X215097976Y-118506342D02*
X215145595Y-118601580D01*
X215145595Y-118601580D02*
X215193214Y-118649200D01*
X215193214Y-118649200D02*
X215288452Y-118696819D01*
X215288452Y-118696819D02*
X215478928Y-118696819D01*
X215478928Y-118696819D02*
X215574166Y-118649200D01*
X215574166Y-118649200D02*
X215621785Y-118601580D01*
X215621785Y-118601580D02*
X215669404Y-118506342D01*
X215669404Y-118506342D02*
X215669404Y-118268247D01*
X215669404Y-118268247D02*
X215621785Y-118173009D01*
X215621785Y-118173009D02*
X215574166Y-118125390D01*
X215574166Y-118125390D02*
X215478928Y-118077771D01*
X215478928Y-118077771D02*
X215288452Y-118077771D01*
X215288452Y-118077771D02*
X215193214Y-118125390D01*
X215193214Y-118125390D02*
X215145595Y-118173009D01*
X215145595Y-118173009D02*
X215097976Y-118268247D01*
D12*
X270308095Y-210043419D02*
X270308095Y-210852942D01*
X270308095Y-210852942D02*
X270355714Y-210948180D01*
X270355714Y-210948180D02*
X270403333Y-210995800D01*
X270403333Y-210995800D02*
X270498571Y-211043419D01*
X270498571Y-211043419D02*
X270689047Y-211043419D01*
X270689047Y-211043419D02*
X270784285Y-210995800D01*
X270784285Y-210995800D02*
X270831904Y-210948180D01*
X270831904Y-210948180D02*
X270879523Y-210852942D01*
X270879523Y-210852942D02*
X270879523Y-210043419D01*
X271308095Y-210138657D02*
X271355714Y-210091038D01*
X271355714Y-210091038D02*
X271450952Y-210043419D01*
X271450952Y-210043419D02*
X271689047Y-210043419D01*
X271689047Y-210043419D02*
X271784285Y-210091038D01*
X271784285Y-210091038D02*
X271831904Y-210138657D01*
X271831904Y-210138657D02*
X271879523Y-210233895D01*
X271879523Y-210233895D02*
X271879523Y-210329133D01*
X271879523Y-210329133D02*
X271831904Y-210471990D01*
X271831904Y-210471990D02*
X271260476Y-211043419D01*
X271260476Y-211043419D02*
X271879523Y-211043419D01*
D13*
X262919347Y-196350438D02*
X262919347Y-194350438D01*
X263776490Y-194540914D02*
X263871728Y-194445676D01*
X263871728Y-194445676D02*
X264062204Y-194350438D01*
X264062204Y-194350438D02*
X264538395Y-194350438D01*
X264538395Y-194350438D02*
X264728871Y-194445676D01*
X264728871Y-194445676D02*
X264824109Y-194540914D01*
X264824109Y-194540914D02*
X264919347Y-194731390D01*
X264919347Y-194731390D02*
X264919347Y-194921866D01*
X264919347Y-194921866D02*
X264824109Y-195207580D01*
X264824109Y-195207580D02*
X263681252Y-196350438D01*
X263681252Y-196350438D02*
X264919347Y-196350438D01*
X266919347Y-196159961D02*
X266824109Y-196255200D01*
X266824109Y-196255200D02*
X266538395Y-196350438D01*
X266538395Y-196350438D02*
X266347919Y-196350438D01*
X266347919Y-196350438D02*
X266062204Y-196255200D01*
X266062204Y-196255200D02*
X265871728Y-196064723D01*
X265871728Y-196064723D02*
X265776490Y-195874247D01*
X265776490Y-195874247D02*
X265681252Y-195493295D01*
X265681252Y-195493295D02*
X265681252Y-195207580D01*
X265681252Y-195207580D02*
X265776490Y-194826628D01*
X265776490Y-194826628D02*
X265871728Y-194636152D01*
X265871728Y-194636152D02*
X266062204Y-194445676D01*
X266062204Y-194445676D02*
X266347919Y-194350438D01*
X266347919Y-194350438D02*
X266538395Y-194350438D01*
X266538395Y-194350438D02*
X266824109Y-194445676D01*
X266824109Y-194445676D02*
X266919347Y-194540914D01*
X269300300Y-196350438D02*
X269300300Y-194350438D01*
X269300300Y-194350438D02*
X269776490Y-194350438D01*
X269776490Y-194350438D02*
X270062205Y-194445676D01*
X270062205Y-194445676D02*
X270252681Y-194636152D01*
X270252681Y-194636152D02*
X270347919Y-194826628D01*
X270347919Y-194826628D02*
X270443157Y-195207580D01*
X270443157Y-195207580D02*
X270443157Y-195493295D01*
X270443157Y-195493295D02*
X270347919Y-195874247D01*
X270347919Y-195874247D02*
X270252681Y-196064723D01*
X270252681Y-196064723D02*
X270062205Y-196255200D01*
X270062205Y-196255200D02*
X269776490Y-196350438D01*
X269776490Y-196350438D02*
X269300300Y-196350438D01*
X271300300Y-196350438D02*
X271300300Y-195017104D01*
X271300300Y-194350438D02*
X271205062Y-194445676D01*
X271205062Y-194445676D02*
X271300300Y-194540914D01*
X271300300Y-194540914D02*
X271395538Y-194445676D01*
X271395538Y-194445676D02*
X271300300Y-194350438D01*
X271300300Y-194350438D02*
X271300300Y-194540914D01*
X272157443Y-196255200D02*
X272347919Y-196350438D01*
X272347919Y-196350438D02*
X272728871Y-196350438D01*
X272728871Y-196350438D02*
X272919348Y-196255200D01*
X272919348Y-196255200D02*
X273014586Y-196064723D01*
X273014586Y-196064723D02*
X273014586Y-195969485D01*
X273014586Y-195969485D02*
X272919348Y-195779009D01*
X272919348Y-195779009D02*
X272728871Y-195683771D01*
X272728871Y-195683771D02*
X272443157Y-195683771D01*
X272443157Y-195683771D02*
X272252681Y-195588533D01*
X272252681Y-195588533D02*
X272157443Y-195398057D01*
X272157443Y-195398057D02*
X272157443Y-195302819D01*
X272157443Y-195302819D02*
X272252681Y-195112342D01*
X272252681Y-195112342D02*
X272443157Y-195017104D01*
X272443157Y-195017104D02*
X272728871Y-195017104D01*
X272728871Y-195017104D02*
X272919348Y-195112342D01*
X273871729Y-195017104D02*
X273871729Y-197017104D01*
X273871729Y-195112342D02*
X274062205Y-195017104D01*
X274062205Y-195017104D02*
X274443158Y-195017104D01*
X274443158Y-195017104D02*
X274633634Y-195112342D01*
X274633634Y-195112342D02*
X274728872Y-195207580D01*
X274728872Y-195207580D02*
X274824110Y-195398057D01*
X274824110Y-195398057D02*
X274824110Y-195969485D01*
X274824110Y-195969485D02*
X274728872Y-196159961D01*
X274728872Y-196159961D02*
X274633634Y-196255200D01*
X274633634Y-196255200D02*
X274443158Y-196350438D01*
X274443158Y-196350438D02*
X274062205Y-196350438D01*
X274062205Y-196350438D02*
X273871729Y-196255200D01*
X275966967Y-196350438D02*
X275776491Y-196255200D01*
X275776491Y-196255200D02*
X275681253Y-196064723D01*
X275681253Y-196064723D02*
X275681253Y-194350438D01*
X277586015Y-196350438D02*
X277586015Y-195302819D01*
X277586015Y-195302819D02*
X277490777Y-195112342D01*
X277490777Y-195112342D02*
X277300301Y-195017104D01*
X277300301Y-195017104D02*
X276919348Y-195017104D01*
X276919348Y-195017104D02*
X276728872Y-195112342D01*
X277586015Y-196255200D02*
X277395539Y-196350438D01*
X277395539Y-196350438D02*
X276919348Y-196350438D01*
X276919348Y-196350438D02*
X276728872Y-196255200D01*
X276728872Y-196255200D02*
X276633634Y-196064723D01*
X276633634Y-196064723D02*
X276633634Y-195874247D01*
X276633634Y-195874247D02*
X276728872Y-195683771D01*
X276728872Y-195683771D02*
X276919348Y-195588533D01*
X276919348Y-195588533D02*
X277395539Y-195588533D01*
X277395539Y-195588533D02*
X277586015Y-195493295D01*
X278347920Y-195017104D02*
X278824110Y-196350438D01*
X279300301Y-195017104D02*
X278824110Y-196350438D01*
X278824110Y-196350438D02*
X278633634Y-196826628D01*
X278633634Y-196826628D02*
X278538396Y-196921866D01*
X278538396Y-196921866D02*
X278347920Y-197017104D01*
D11*
X234190476Y-125654819D02*
X234190476Y-124654819D01*
X234190476Y-124654819D02*
X234523809Y-125369104D01*
X234523809Y-125369104D02*
X234857142Y-124654819D01*
X234857142Y-124654819D02*
X234857142Y-125654819D01*
X235238095Y-124654819D02*
X235904761Y-124654819D01*
X235904761Y-124654819D02*
X235476190Y-125654819D01*
X202190476Y-182754819D02*
X202190476Y-181754819D01*
X202190476Y-181754819D02*
X202523809Y-182469104D01*
X202523809Y-182469104D02*
X202857142Y-181754819D01*
X202857142Y-181754819D02*
X202857142Y-182754819D01*
X203809523Y-181754819D02*
X203333333Y-181754819D01*
X203333333Y-181754819D02*
X203285714Y-182231009D01*
X203285714Y-182231009D02*
X203333333Y-182183390D01*
X203333333Y-182183390D02*
X203428571Y-182135771D01*
X203428571Y-182135771D02*
X203666666Y-182135771D01*
X203666666Y-182135771D02*
X203761904Y-182183390D01*
X203761904Y-182183390D02*
X203809523Y-182231009D01*
X203809523Y-182231009D02*
X203857142Y-182326247D01*
X203857142Y-182326247D02*
X203857142Y-182564342D01*
X203857142Y-182564342D02*
X203809523Y-182659580D01*
X203809523Y-182659580D02*
X203761904Y-182707200D01*
X203761904Y-182707200D02*
X203666666Y-182754819D01*
X203666666Y-182754819D02*
X203428571Y-182754819D01*
X203428571Y-182754819D02*
X203333333Y-182707200D01*
X203333333Y-182707200D02*
X203285714Y-182659580D01*
X284478819Y-117226476D02*
X284002628Y-117559809D01*
X284478819Y-117797904D02*
X283478819Y-117797904D01*
X283478819Y-117797904D02*
X283478819Y-117416952D01*
X283478819Y-117416952D02*
X283526438Y-117321714D01*
X283526438Y-117321714D02*
X283574057Y-117274095D01*
X283574057Y-117274095D02*
X283669295Y-117226476D01*
X283669295Y-117226476D02*
X283812152Y-117226476D01*
X283812152Y-117226476D02*
X283907390Y-117274095D01*
X283907390Y-117274095D02*
X283955009Y-117321714D01*
X283955009Y-117321714D02*
X284002628Y-117416952D01*
X284002628Y-117416952D02*
X284002628Y-117797904D01*
X284478819Y-110476476D02*
X284478819Y-110952666D01*
X284478819Y-110952666D02*
X283478819Y-110952666D01*
X118669405Y-100097200D02*
X118812262Y-100144819D01*
X118812262Y-100144819D02*
X119050357Y-100144819D01*
X119050357Y-100144819D02*
X119145595Y-100097200D01*
X119145595Y-100097200D02*
X119193214Y-100049580D01*
X119193214Y-100049580D02*
X119240833Y-99954342D01*
X119240833Y-99954342D02*
X119240833Y-99859104D01*
X119240833Y-99859104D02*
X119193214Y-99763866D01*
X119193214Y-99763866D02*
X119145595Y-99716247D01*
X119145595Y-99716247D02*
X119050357Y-99668628D01*
X119050357Y-99668628D02*
X118859881Y-99621009D01*
X118859881Y-99621009D02*
X118764643Y-99573390D01*
X118764643Y-99573390D02*
X118717024Y-99525771D01*
X118717024Y-99525771D02*
X118669405Y-99430533D01*
X118669405Y-99430533D02*
X118669405Y-99335295D01*
X118669405Y-99335295D02*
X118717024Y-99240057D01*
X118717024Y-99240057D02*
X118764643Y-99192438D01*
X118764643Y-99192438D02*
X118859881Y-99144819D01*
X118859881Y-99144819D02*
X119097976Y-99144819D01*
X119097976Y-99144819D02*
X119240833Y-99192438D01*
X119574167Y-99144819D02*
X120193214Y-99144819D01*
X120193214Y-99144819D02*
X119859881Y-99525771D01*
X119859881Y-99525771D02*
X120002738Y-99525771D01*
X120002738Y-99525771D02*
X120097976Y-99573390D01*
X120097976Y-99573390D02*
X120145595Y-99621009D01*
X120145595Y-99621009D02*
X120193214Y-99716247D01*
X120193214Y-99716247D02*
X120193214Y-99954342D01*
X120193214Y-99954342D02*
X120145595Y-100049580D01*
X120145595Y-100049580D02*
X120097976Y-100097200D01*
X120097976Y-100097200D02*
X120002738Y-100144819D01*
X120002738Y-100144819D02*
X119717024Y-100144819D01*
X119717024Y-100144819D02*
X119621786Y-100097200D01*
X119621786Y-100097200D02*
X119574167Y-100049580D01*
X121097976Y-99144819D02*
X120621786Y-99144819D01*
X120621786Y-99144819D02*
X120574167Y-99621009D01*
X120574167Y-99621009D02*
X120621786Y-99573390D01*
X120621786Y-99573390D02*
X120717024Y-99525771D01*
X120717024Y-99525771D02*
X120955119Y-99525771D01*
X120955119Y-99525771D02*
X121050357Y-99573390D01*
X121050357Y-99573390D02*
X121097976Y-99621009D01*
X121097976Y-99621009D02*
X121145595Y-99716247D01*
X121145595Y-99716247D02*
X121145595Y-99954342D01*
X121145595Y-99954342D02*
X121097976Y-100049580D01*
X121097976Y-100049580D02*
X121050357Y-100097200D01*
X121050357Y-100097200D02*
X120955119Y-100144819D01*
X120955119Y-100144819D02*
X120717024Y-100144819D01*
X120717024Y-100144819D02*
X120621786Y-100097200D01*
X120621786Y-100097200D02*
X120574167Y-100049580D01*
X176145595Y-118649200D02*
X176288452Y-118696819D01*
X176288452Y-118696819D02*
X176526547Y-118696819D01*
X176526547Y-118696819D02*
X176621785Y-118649200D01*
X176621785Y-118649200D02*
X176669404Y-118601580D01*
X176669404Y-118601580D02*
X176717023Y-118506342D01*
X176717023Y-118506342D02*
X176717023Y-118411104D01*
X176717023Y-118411104D02*
X176669404Y-118315866D01*
X176669404Y-118315866D02*
X176621785Y-118268247D01*
X176621785Y-118268247D02*
X176526547Y-118220628D01*
X176526547Y-118220628D02*
X176336071Y-118173009D01*
X176336071Y-118173009D02*
X176240833Y-118125390D01*
X176240833Y-118125390D02*
X176193214Y-118077771D01*
X176193214Y-118077771D02*
X176145595Y-117982533D01*
X176145595Y-117982533D02*
X176145595Y-117887295D01*
X176145595Y-117887295D02*
X176193214Y-117792057D01*
X176193214Y-117792057D02*
X176240833Y-117744438D01*
X176240833Y-117744438D02*
X176336071Y-117696819D01*
X176336071Y-117696819D02*
X176574166Y-117696819D01*
X176574166Y-117696819D02*
X176717023Y-117744438D01*
X177574166Y-118030152D02*
X177574166Y-118696819D01*
X177336071Y-117649200D02*
X177097976Y-118363485D01*
X177097976Y-118363485D02*
X177717023Y-118363485D01*
X157145595Y-118649200D02*
X157288452Y-118696819D01*
X157288452Y-118696819D02*
X157526547Y-118696819D01*
X157526547Y-118696819D02*
X157621785Y-118649200D01*
X157621785Y-118649200D02*
X157669404Y-118601580D01*
X157669404Y-118601580D02*
X157717023Y-118506342D01*
X157717023Y-118506342D02*
X157717023Y-118411104D01*
X157717023Y-118411104D02*
X157669404Y-118315866D01*
X157669404Y-118315866D02*
X157621785Y-118268247D01*
X157621785Y-118268247D02*
X157526547Y-118220628D01*
X157526547Y-118220628D02*
X157336071Y-118173009D01*
X157336071Y-118173009D02*
X157240833Y-118125390D01*
X157240833Y-118125390D02*
X157193214Y-118077771D01*
X157193214Y-118077771D02*
X157145595Y-117982533D01*
X157145595Y-117982533D02*
X157145595Y-117887295D01*
X157145595Y-117887295D02*
X157193214Y-117792057D01*
X157193214Y-117792057D02*
X157240833Y-117744438D01*
X157240833Y-117744438D02*
X157336071Y-117696819D01*
X157336071Y-117696819D02*
X157574166Y-117696819D01*
X157574166Y-117696819D02*
X157717023Y-117744438D01*
X158050357Y-117696819D02*
X158669404Y-117696819D01*
X158669404Y-117696819D02*
X158336071Y-118077771D01*
X158336071Y-118077771D02*
X158478928Y-118077771D01*
X158478928Y-118077771D02*
X158574166Y-118125390D01*
X158574166Y-118125390D02*
X158621785Y-118173009D01*
X158621785Y-118173009D02*
X158669404Y-118268247D01*
X158669404Y-118268247D02*
X158669404Y-118506342D01*
X158669404Y-118506342D02*
X158621785Y-118601580D01*
X158621785Y-118601580D02*
X158574166Y-118649200D01*
X158574166Y-118649200D02*
X158478928Y-118696819D01*
X158478928Y-118696819D02*
X158193214Y-118696819D01*
X158193214Y-118696819D02*
X158097976Y-118649200D01*
X158097976Y-118649200D02*
X158050357Y-118601580D01*
X275401438Y-114363095D02*
X275353819Y-114458333D01*
X275353819Y-114458333D02*
X275353819Y-114601190D01*
X275353819Y-114601190D02*
X275401438Y-114744047D01*
X275401438Y-114744047D02*
X275496676Y-114839285D01*
X275496676Y-114839285D02*
X275591914Y-114886904D01*
X275591914Y-114886904D02*
X275782390Y-114934523D01*
X275782390Y-114934523D02*
X275925247Y-114934523D01*
X275925247Y-114934523D02*
X276115723Y-114886904D01*
X276115723Y-114886904D02*
X276210961Y-114839285D01*
X276210961Y-114839285D02*
X276306200Y-114744047D01*
X276306200Y-114744047D02*
X276353819Y-114601190D01*
X276353819Y-114601190D02*
X276353819Y-114505952D01*
X276353819Y-114505952D02*
X276306200Y-114363095D01*
X276306200Y-114363095D02*
X276258580Y-114315476D01*
X276258580Y-114315476D02*
X275925247Y-114315476D01*
X275925247Y-114315476D02*
X275925247Y-114505952D01*
X276353819Y-113886904D02*
X275353819Y-113886904D01*
X275353819Y-113886904D02*
X276353819Y-113315476D01*
X276353819Y-113315476D02*
X275353819Y-113315476D01*
X276353819Y-112839285D02*
X275353819Y-112839285D01*
X275353819Y-112839285D02*
X275353819Y-112601190D01*
X275353819Y-112601190D02*
X275401438Y-112458333D01*
X275401438Y-112458333D02*
X275496676Y-112363095D01*
X275496676Y-112363095D02*
X275591914Y-112315476D01*
X275591914Y-112315476D02*
X275782390Y-112267857D01*
X275782390Y-112267857D02*
X275925247Y-112267857D01*
X275925247Y-112267857D02*
X276115723Y-112315476D01*
X276115723Y-112315476D02*
X276210961Y-112363095D01*
X276210961Y-112363095D02*
X276306200Y-112458333D01*
X276306200Y-112458333D02*
X276353819Y-112601190D01*
X276353819Y-112601190D02*
X276353819Y-112839285D01*
X276353819Y-111315476D02*
X276353819Y-111886904D01*
X276353819Y-111601190D02*
X275353819Y-111601190D01*
X275353819Y-111601190D02*
X275496676Y-111696428D01*
X275496676Y-111696428D02*
X275591914Y-111791666D01*
X275591914Y-111791666D02*
X275639533Y-111886904D01*
X278128819Y-116890476D02*
X278128819Y-117366666D01*
X278128819Y-117366666D02*
X277128819Y-117366666D01*
X278128819Y-110140476D02*
X277652628Y-110473809D01*
X278128819Y-110711904D02*
X277128819Y-110711904D01*
X277128819Y-110711904D02*
X277128819Y-110330952D01*
X277128819Y-110330952D02*
X277176438Y-110235714D01*
X277176438Y-110235714D02*
X277224057Y-110188095D01*
X277224057Y-110188095D02*
X277319295Y-110140476D01*
X277319295Y-110140476D02*
X277462152Y-110140476D01*
X277462152Y-110140476D02*
X277557390Y-110188095D01*
X277557390Y-110188095D02*
X277605009Y-110235714D01*
X277605009Y-110235714D02*
X277652628Y-110330952D01*
X277652628Y-110330952D02*
X277652628Y-110711904D01*
X274144904Y-99163438D02*
X274049666Y-99115819D01*
X274049666Y-99115819D02*
X273906809Y-99115819D01*
X273906809Y-99115819D02*
X273763952Y-99163438D01*
X273763952Y-99163438D02*
X273668714Y-99258676D01*
X273668714Y-99258676D02*
X273621095Y-99353914D01*
X273621095Y-99353914D02*
X273573476Y-99544390D01*
X273573476Y-99544390D02*
X273573476Y-99687247D01*
X273573476Y-99687247D02*
X273621095Y-99877723D01*
X273621095Y-99877723D02*
X273668714Y-99972961D01*
X273668714Y-99972961D02*
X273763952Y-100068200D01*
X273763952Y-100068200D02*
X273906809Y-100115819D01*
X273906809Y-100115819D02*
X274002047Y-100115819D01*
X274002047Y-100115819D02*
X274144904Y-100068200D01*
X274144904Y-100068200D02*
X274192523Y-100020580D01*
X274192523Y-100020580D02*
X274192523Y-99687247D01*
X274192523Y-99687247D02*
X274002047Y-99687247D01*
X274621095Y-100115819D02*
X274621095Y-99115819D01*
X274621095Y-99115819D02*
X275192523Y-100115819D01*
X275192523Y-100115819D02*
X275192523Y-99115819D01*
X275668714Y-100115819D02*
X275668714Y-99115819D01*
X275668714Y-99115819D02*
X275906809Y-99115819D01*
X275906809Y-99115819D02*
X276049666Y-99163438D01*
X276049666Y-99163438D02*
X276144904Y-99258676D01*
X276144904Y-99258676D02*
X276192523Y-99353914D01*
X276192523Y-99353914D02*
X276240142Y-99544390D01*
X276240142Y-99544390D02*
X276240142Y-99687247D01*
X276240142Y-99687247D02*
X276192523Y-99877723D01*
X276192523Y-99877723D02*
X276144904Y-99972961D01*
X276144904Y-99972961D02*
X276049666Y-100068200D01*
X276049666Y-100068200D02*
X275906809Y-100115819D01*
X275906809Y-100115819D02*
X275668714Y-100115819D01*
X276621095Y-99211057D02*
X276668714Y-99163438D01*
X276668714Y-99163438D02*
X276763952Y-99115819D01*
X276763952Y-99115819D02*
X277002047Y-99115819D01*
X277002047Y-99115819D02*
X277097285Y-99163438D01*
X277097285Y-99163438D02*
X277144904Y-99211057D01*
X277144904Y-99211057D02*
X277192523Y-99306295D01*
X277192523Y-99306295D02*
X277192523Y-99401533D01*
X277192523Y-99401533D02*
X277144904Y-99544390D01*
X277144904Y-99544390D02*
X276573476Y-100115819D01*
X276573476Y-100115819D02*
X277192523Y-100115819D01*
X271617523Y-101890819D02*
X271141333Y-101890819D01*
X271141333Y-101890819D02*
X271141333Y-100890819D01*
X278367523Y-101890819D02*
X278034190Y-101414628D01*
X277796095Y-101890819D02*
X277796095Y-100890819D01*
X277796095Y-100890819D02*
X278177047Y-100890819D01*
X278177047Y-100890819D02*
X278272285Y-100938438D01*
X278272285Y-100938438D02*
X278319904Y-100986057D01*
X278319904Y-100986057D02*
X278367523Y-101081295D01*
X278367523Y-101081295D02*
X278367523Y-101224152D01*
X278367523Y-101224152D02*
X278319904Y-101319390D01*
X278319904Y-101319390D02*
X278272285Y-101367009D01*
X278272285Y-101367009D02*
X278177047Y-101414628D01*
X278177047Y-101414628D02*
X277796095Y-101414628D01*
X286764819Y-111772476D02*
X286764819Y-112248666D01*
X286764819Y-112248666D02*
X285764819Y-112248666D01*
X286764819Y-105022476D02*
X286288628Y-105355809D01*
X286764819Y-105593904D02*
X285764819Y-105593904D01*
X285764819Y-105593904D02*
X285764819Y-105212952D01*
X285764819Y-105212952D02*
X285812438Y-105117714D01*
X285812438Y-105117714D02*
X285860057Y-105070095D01*
X285860057Y-105070095D02*
X285955295Y-105022476D01*
X285955295Y-105022476D02*
X286098152Y-105022476D01*
X286098152Y-105022476D02*
X286193390Y-105070095D01*
X286193390Y-105070095D02*
X286241009Y-105117714D01*
X286241009Y-105117714D02*
X286288628Y-105212952D01*
X286288628Y-105212952D02*
X286288628Y-105593904D01*
X195145595Y-118649200D02*
X195288452Y-118696819D01*
X195288452Y-118696819D02*
X195526547Y-118696819D01*
X195526547Y-118696819D02*
X195621785Y-118649200D01*
X195621785Y-118649200D02*
X195669404Y-118601580D01*
X195669404Y-118601580D02*
X195717023Y-118506342D01*
X195717023Y-118506342D02*
X195717023Y-118411104D01*
X195717023Y-118411104D02*
X195669404Y-118315866D01*
X195669404Y-118315866D02*
X195621785Y-118268247D01*
X195621785Y-118268247D02*
X195526547Y-118220628D01*
X195526547Y-118220628D02*
X195336071Y-118173009D01*
X195336071Y-118173009D02*
X195240833Y-118125390D01*
X195240833Y-118125390D02*
X195193214Y-118077771D01*
X195193214Y-118077771D02*
X195145595Y-117982533D01*
X195145595Y-117982533D02*
X195145595Y-117887295D01*
X195145595Y-117887295D02*
X195193214Y-117792057D01*
X195193214Y-117792057D02*
X195240833Y-117744438D01*
X195240833Y-117744438D02*
X195336071Y-117696819D01*
X195336071Y-117696819D02*
X195574166Y-117696819D01*
X195574166Y-117696819D02*
X195717023Y-117744438D01*
X196621785Y-117696819D02*
X196145595Y-117696819D01*
X196145595Y-117696819D02*
X196097976Y-118173009D01*
X196097976Y-118173009D02*
X196145595Y-118125390D01*
X196145595Y-118125390D02*
X196240833Y-118077771D01*
X196240833Y-118077771D02*
X196478928Y-118077771D01*
X196478928Y-118077771D02*
X196574166Y-118125390D01*
X196574166Y-118125390D02*
X196621785Y-118173009D01*
X196621785Y-118173009D02*
X196669404Y-118268247D01*
X196669404Y-118268247D02*
X196669404Y-118506342D01*
X196669404Y-118506342D02*
X196621785Y-118601580D01*
X196621785Y-118601580D02*
X196574166Y-118649200D01*
X196574166Y-118649200D02*
X196478928Y-118696819D01*
X196478928Y-118696819D02*
X196240833Y-118696819D01*
X196240833Y-118696819D02*
X196145595Y-118649200D01*
X196145595Y-118649200D02*
X196097976Y-118601580D01*
X205365905Y-175649200D02*
X205508762Y-175696819D01*
X205508762Y-175696819D02*
X205746857Y-175696819D01*
X205746857Y-175696819D02*
X205842095Y-175649200D01*
X205842095Y-175649200D02*
X205889714Y-175601580D01*
X205889714Y-175601580D02*
X205937333Y-175506342D01*
X205937333Y-175506342D02*
X205937333Y-175411104D01*
X205937333Y-175411104D02*
X205889714Y-175315866D01*
X205889714Y-175315866D02*
X205842095Y-175268247D01*
X205842095Y-175268247D02*
X205746857Y-175220628D01*
X205746857Y-175220628D02*
X205556381Y-175173009D01*
X205556381Y-175173009D02*
X205461143Y-175125390D01*
X205461143Y-175125390D02*
X205413524Y-175077771D01*
X205413524Y-175077771D02*
X205365905Y-174982533D01*
X205365905Y-174982533D02*
X205365905Y-174887295D01*
X205365905Y-174887295D02*
X205413524Y-174792057D01*
X205413524Y-174792057D02*
X205461143Y-174744438D01*
X205461143Y-174744438D02*
X205556381Y-174696819D01*
X205556381Y-174696819D02*
X205794476Y-174696819D01*
X205794476Y-174696819D02*
X205937333Y-174744438D01*
X206318286Y-174792057D02*
X206365905Y-174744438D01*
X206365905Y-174744438D02*
X206461143Y-174696819D01*
X206461143Y-174696819D02*
X206699238Y-174696819D01*
X206699238Y-174696819D02*
X206794476Y-174744438D01*
X206794476Y-174744438D02*
X206842095Y-174792057D01*
X206842095Y-174792057D02*
X206889714Y-174887295D01*
X206889714Y-174887295D02*
X206889714Y-174982533D01*
X206889714Y-174982533D02*
X206842095Y-175125390D01*
X206842095Y-175125390D02*
X206270667Y-175696819D01*
X206270667Y-175696819D02*
X206889714Y-175696819D01*
X207794476Y-174696819D02*
X207318286Y-174696819D01*
X207318286Y-174696819D02*
X207270667Y-175173009D01*
X207270667Y-175173009D02*
X207318286Y-175125390D01*
X207318286Y-175125390D02*
X207413524Y-175077771D01*
X207413524Y-175077771D02*
X207651619Y-175077771D01*
X207651619Y-175077771D02*
X207746857Y-175125390D01*
X207746857Y-175125390D02*
X207794476Y-175173009D01*
X207794476Y-175173009D02*
X207842095Y-175268247D01*
X207842095Y-175268247D02*
X207842095Y-175506342D01*
X207842095Y-175506342D02*
X207794476Y-175601580D01*
X207794476Y-175601580D02*
X207746857Y-175649200D01*
X207746857Y-175649200D02*
X207651619Y-175696819D01*
X207651619Y-175696819D02*
X207413524Y-175696819D01*
X207413524Y-175696819D02*
X207318286Y-175649200D01*
X207318286Y-175649200D02*
X207270667Y-175601580D01*
X276814200Y-131587666D02*
X276861819Y-131444809D01*
X276861819Y-131444809D02*
X276861819Y-131206714D01*
X276861819Y-131206714D02*
X276814200Y-131111476D01*
X276814200Y-131111476D02*
X276766580Y-131063857D01*
X276766580Y-131063857D02*
X276671342Y-131016238D01*
X276671342Y-131016238D02*
X276576104Y-131016238D01*
X276576104Y-131016238D02*
X276480866Y-131063857D01*
X276480866Y-131063857D02*
X276433247Y-131111476D01*
X276433247Y-131111476D02*
X276385628Y-131206714D01*
X276385628Y-131206714D02*
X276338009Y-131397190D01*
X276338009Y-131397190D02*
X276290390Y-131492428D01*
X276290390Y-131492428D02*
X276242771Y-131540047D01*
X276242771Y-131540047D02*
X276147533Y-131587666D01*
X276147533Y-131587666D02*
X276052295Y-131587666D01*
X276052295Y-131587666D02*
X275957057Y-131540047D01*
X275957057Y-131540047D02*
X275909438Y-131492428D01*
X275909438Y-131492428D02*
X275861819Y-131397190D01*
X275861819Y-131397190D02*
X275861819Y-131159095D01*
X275861819Y-131159095D02*
X275909438Y-131016238D01*
X276766580Y-130016238D02*
X276814200Y-130063857D01*
X276814200Y-130063857D02*
X276861819Y-130206714D01*
X276861819Y-130206714D02*
X276861819Y-130301952D01*
X276861819Y-130301952D02*
X276814200Y-130444809D01*
X276814200Y-130444809D02*
X276718961Y-130540047D01*
X276718961Y-130540047D02*
X276623723Y-130587666D01*
X276623723Y-130587666D02*
X276433247Y-130635285D01*
X276433247Y-130635285D02*
X276290390Y-130635285D01*
X276290390Y-130635285D02*
X276099914Y-130587666D01*
X276099914Y-130587666D02*
X276004676Y-130540047D01*
X276004676Y-130540047D02*
X275909438Y-130444809D01*
X275909438Y-130444809D02*
X275861819Y-130301952D01*
X275861819Y-130301952D02*
X275861819Y-130206714D01*
X275861819Y-130206714D02*
X275909438Y-130063857D01*
X275909438Y-130063857D02*
X275957057Y-130016238D01*
X276861819Y-129111476D02*
X276861819Y-129587666D01*
X276861819Y-129587666D02*
X275861819Y-129587666D01*
X276861819Y-128254333D02*
X276861819Y-128825761D01*
X276861819Y-128540047D02*
X275861819Y-128540047D01*
X275861819Y-128540047D02*
X276004676Y-128635285D01*
X276004676Y-128635285D02*
X276099914Y-128730523D01*
X276099914Y-128730523D02*
X276147533Y-128825761D01*
X278636819Y-133686476D02*
X278636819Y-134162666D01*
X278636819Y-134162666D02*
X277636819Y-134162666D01*
X278636819Y-126936476D02*
X278160628Y-127269809D01*
X278636819Y-127507904D02*
X277636819Y-127507904D01*
X277636819Y-127507904D02*
X277636819Y-127126952D01*
X277636819Y-127126952D02*
X277684438Y-127031714D01*
X277684438Y-127031714D02*
X277732057Y-126984095D01*
X277732057Y-126984095D02*
X277827295Y-126936476D01*
X277827295Y-126936476D02*
X277970152Y-126936476D01*
X277970152Y-126936476D02*
X278065390Y-126984095D01*
X278065390Y-126984095D02*
X278113009Y-127031714D01*
X278113009Y-127031714D02*
X278160628Y-127126952D01*
X278160628Y-127126952D02*
X278160628Y-127507904D01*
X233145595Y-118649200D02*
X233288452Y-118696819D01*
X233288452Y-118696819D02*
X233526547Y-118696819D01*
X233526547Y-118696819D02*
X233621785Y-118649200D01*
X233621785Y-118649200D02*
X233669404Y-118601580D01*
X233669404Y-118601580D02*
X233717023Y-118506342D01*
X233717023Y-118506342D02*
X233717023Y-118411104D01*
X233717023Y-118411104D02*
X233669404Y-118315866D01*
X233669404Y-118315866D02*
X233621785Y-118268247D01*
X233621785Y-118268247D02*
X233526547Y-118220628D01*
X233526547Y-118220628D02*
X233336071Y-118173009D01*
X233336071Y-118173009D02*
X233240833Y-118125390D01*
X233240833Y-118125390D02*
X233193214Y-118077771D01*
X233193214Y-118077771D02*
X233145595Y-117982533D01*
X233145595Y-117982533D02*
X233145595Y-117887295D01*
X233145595Y-117887295D02*
X233193214Y-117792057D01*
X233193214Y-117792057D02*
X233240833Y-117744438D01*
X233240833Y-117744438D02*
X233336071Y-117696819D01*
X233336071Y-117696819D02*
X233574166Y-117696819D01*
X233574166Y-117696819D02*
X233717023Y-117744438D01*
X234050357Y-117696819D02*
X234717023Y-117696819D01*
X234717023Y-117696819D02*
X234288452Y-118696819D01*
X126314700Y-117113904D02*
X126362319Y-116971047D01*
X126362319Y-116971047D02*
X126362319Y-116732952D01*
X126362319Y-116732952D02*
X126314700Y-116637714D01*
X126314700Y-116637714D02*
X126267080Y-116590095D01*
X126267080Y-116590095D02*
X126171842Y-116542476D01*
X126171842Y-116542476D02*
X126076604Y-116542476D01*
X126076604Y-116542476D02*
X125981366Y-116590095D01*
X125981366Y-116590095D02*
X125933747Y-116637714D01*
X125933747Y-116637714D02*
X125886128Y-116732952D01*
X125886128Y-116732952D02*
X125838509Y-116923428D01*
X125838509Y-116923428D02*
X125790890Y-117018666D01*
X125790890Y-117018666D02*
X125743271Y-117066285D01*
X125743271Y-117066285D02*
X125648033Y-117113904D01*
X125648033Y-117113904D02*
X125552795Y-117113904D01*
X125552795Y-117113904D02*
X125457557Y-117066285D01*
X125457557Y-117066285D02*
X125409938Y-117018666D01*
X125409938Y-117018666D02*
X125362319Y-116923428D01*
X125362319Y-116923428D02*
X125362319Y-116685333D01*
X125362319Y-116685333D02*
X125409938Y-116542476D01*
X126362319Y-115590095D02*
X126362319Y-116161523D01*
X126362319Y-115875809D02*
X125362319Y-115875809D01*
X125362319Y-115875809D02*
X125505176Y-115971047D01*
X125505176Y-115971047D02*
X125600414Y-116066285D01*
X125600414Y-116066285D02*
X125648033Y-116161523D01*
X286321095Y-99592009D02*
X286463952Y-99639628D01*
X286463952Y-99639628D02*
X286511571Y-99687247D01*
X286511571Y-99687247D02*
X286559190Y-99782485D01*
X286559190Y-99782485D02*
X286559190Y-99925342D01*
X286559190Y-99925342D02*
X286511571Y-100020580D01*
X286511571Y-100020580D02*
X286463952Y-100068200D01*
X286463952Y-100068200D02*
X286368714Y-100115819D01*
X286368714Y-100115819D02*
X285987762Y-100115819D01*
X285987762Y-100115819D02*
X285987762Y-99115819D01*
X285987762Y-99115819D02*
X286321095Y-99115819D01*
X286321095Y-99115819D02*
X286416333Y-99163438D01*
X286416333Y-99163438D02*
X286463952Y-99211057D01*
X286463952Y-99211057D02*
X286511571Y-99306295D01*
X286511571Y-99306295D02*
X286511571Y-99401533D01*
X286511571Y-99401533D02*
X286463952Y-99496771D01*
X286463952Y-99496771D02*
X286416333Y-99544390D01*
X286416333Y-99544390D02*
X286321095Y-99592009D01*
X286321095Y-99592009D02*
X285987762Y-99592009D01*
X287416333Y-100115819D02*
X287416333Y-99592009D01*
X287416333Y-99592009D02*
X287368714Y-99496771D01*
X287368714Y-99496771D02*
X287273476Y-99449152D01*
X287273476Y-99449152D02*
X287083000Y-99449152D01*
X287083000Y-99449152D02*
X286987762Y-99496771D01*
X287416333Y-100068200D02*
X287321095Y-100115819D01*
X287321095Y-100115819D02*
X287083000Y-100115819D01*
X287083000Y-100115819D02*
X286987762Y-100068200D01*
X286987762Y-100068200D02*
X286940143Y-99972961D01*
X286940143Y-99972961D02*
X286940143Y-99877723D01*
X286940143Y-99877723D02*
X286987762Y-99782485D01*
X286987762Y-99782485D02*
X287083000Y-99734866D01*
X287083000Y-99734866D02*
X287321095Y-99734866D01*
X287321095Y-99734866D02*
X287416333Y-99687247D01*
X287749667Y-99449152D02*
X288130619Y-99449152D01*
X287892524Y-99115819D02*
X287892524Y-99972961D01*
X287892524Y-99972961D02*
X287940143Y-100068200D01*
X287940143Y-100068200D02*
X288035381Y-100115819D01*
X288035381Y-100115819D02*
X288130619Y-100115819D01*
X288463953Y-99734866D02*
X289225858Y-99734866D01*
X288844905Y-100115819D02*
X288844905Y-99353914D01*
X290225857Y-100115819D02*
X289654429Y-100115819D01*
X289940143Y-100115819D02*
X289940143Y-99115819D01*
X289940143Y-99115819D02*
X289844905Y-99258676D01*
X289844905Y-99258676D02*
X289749667Y-99353914D01*
X289749667Y-99353914D02*
X289654429Y-99401533D01*
X284317523Y-101890819D02*
X283841333Y-101890819D01*
X283841333Y-101890819D02*
X283841333Y-100890819D01*
X291067523Y-101890819D02*
X290734190Y-101414628D01*
X290496095Y-101890819D02*
X290496095Y-100890819D01*
X290496095Y-100890819D02*
X290877047Y-100890819D01*
X290877047Y-100890819D02*
X290972285Y-100938438D01*
X290972285Y-100938438D02*
X291019904Y-100986057D01*
X291019904Y-100986057D02*
X291067523Y-101081295D01*
X291067523Y-101081295D02*
X291067523Y-101224152D01*
X291067523Y-101224152D02*
X291019904Y-101319390D01*
X291019904Y-101319390D02*
X290972285Y-101367009D01*
X290972285Y-101367009D02*
X290877047Y-101414628D01*
X290877047Y-101414628D02*
X290496095Y-101414628D01*
X205315905Y-137649200D02*
X205458762Y-137696819D01*
X205458762Y-137696819D02*
X205696857Y-137696819D01*
X205696857Y-137696819D02*
X205792095Y-137649200D01*
X205792095Y-137649200D02*
X205839714Y-137601580D01*
X205839714Y-137601580D02*
X205887333Y-137506342D01*
X205887333Y-137506342D02*
X205887333Y-137411104D01*
X205887333Y-137411104D02*
X205839714Y-137315866D01*
X205839714Y-137315866D02*
X205792095Y-137268247D01*
X205792095Y-137268247D02*
X205696857Y-137220628D01*
X205696857Y-137220628D02*
X205506381Y-137173009D01*
X205506381Y-137173009D02*
X205411143Y-137125390D01*
X205411143Y-137125390D02*
X205363524Y-137077771D01*
X205363524Y-137077771D02*
X205315905Y-136982533D01*
X205315905Y-136982533D02*
X205315905Y-136887295D01*
X205315905Y-136887295D02*
X205363524Y-136792057D01*
X205363524Y-136792057D02*
X205411143Y-136744438D01*
X205411143Y-136744438D02*
X205506381Y-136696819D01*
X205506381Y-136696819D02*
X205744476Y-136696819D01*
X205744476Y-136696819D02*
X205887333Y-136744438D01*
X206839714Y-137696819D02*
X206268286Y-137696819D01*
X206554000Y-137696819D02*
X206554000Y-136696819D01*
X206554000Y-136696819D02*
X206458762Y-136839676D01*
X206458762Y-136839676D02*
X206363524Y-136934914D01*
X206363524Y-136934914D02*
X206268286Y-136982533D01*
X207220667Y-136792057D02*
X207268286Y-136744438D01*
X207268286Y-136744438D02*
X207363524Y-136696819D01*
X207363524Y-136696819D02*
X207601619Y-136696819D01*
X207601619Y-136696819D02*
X207696857Y-136744438D01*
X207696857Y-136744438D02*
X207744476Y-136792057D01*
X207744476Y-136792057D02*
X207792095Y-136887295D01*
X207792095Y-136887295D02*
X207792095Y-136982533D01*
X207792095Y-136982533D02*
X207744476Y-137125390D01*
X207744476Y-137125390D02*
X207173048Y-137696819D01*
X207173048Y-137696819D02*
X207792095Y-137696819D01*
X186365905Y-175649200D02*
X186508762Y-175696819D01*
X186508762Y-175696819D02*
X186746857Y-175696819D01*
X186746857Y-175696819D02*
X186842095Y-175649200D01*
X186842095Y-175649200D02*
X186889714Y-175601580D01*
X186889714Y-175601580D02*
X186937333Y-175506342D01*
X186937333Y-175506342D02*
X186937333Y-175411104D01*
X186937333Y-175411104D02*
X186889714Y-175315866D01*
X186889714Y-175315866D02*
X186842095Y-175268247D01*
X186842095Y-175268247D02*
X186746857Y-175220628D01*
X186746857Y-175220628D02*
X186556381Y-175173009D01*
X186556381Y-175173009D02*
X186461143Y-175125390D01*
X186461143Y-175125390D02*
X186413524Y-175077771D01*
X186413524Y-175077771D02*
X186365905Y-174982533D01*
X186365905Y-174982533D02*
X186365905Y-174887295D01*
X186365905Y-174887295D02*
X186413524Y-174792057D01*
X186413524Y-174792057D02*
X186461143Y-174744438D01*
X186461143Y-174744438D02*
X186556381Y-174696819D01*
X186556381Y-174696819D02*
X186794476Y-174696819D01*
X186794476Y-174696819D02*
X186937333Y-174744438D01*
X187318286Y-174792057D02*
X187365905Y-174744438D01*
X187365905Y-174744438D02*
X187461143Y-174696819D01*
X187461143Y-174696819D02*
X187699238Y-174696819D01*
X187699238Y-174696819D02*
X187794476Y-174744438D01*
X187794476Y-174744438D02*
X187842095Y-174792057D01*
X187842095Y-174792057D02*
X187889714Y-174887295D01*
X187889714Y-174887295D02*
X187889714Y-174982533D01*
X187889714Y-174982533D02*
X187842095Y-175125390D01*
X187842095Y-175125390D02*
X187270667Y-175696819D01*
X187270667Y-175696819D02*
X187889714Y-175696819D01*
X188746857Y-175030152D02*
X188746857Y-175696819D01*
X188508762Y-174649200D02*
X188270667Y-175363485D01*
X188270667Y-175363485D02*
X188889714Y-175363485D01*
D12*
X281737904Y-134847580D02*
X281737904Y-134038057D01*
X281737904Y-134038057D02*
X281690285Y-133942819D01*
X281690285Y-133942819D02*
X281642666Y-133895200D01*
X281642666Y-133895200D02*
X281547428Y-133847580D01*
X281547428Y-133847580D02*
X281356952Y-133847580D01*
X281356952Y-133847580D02*
X281261714Y-133895200D01*
X281261714Y-133895200D02*
X281214095Y-133942819D01*
X281214095Y-133942819D02*
X281166476Y-134038057D01*
X281166476Y-134038057D02*
X281166476Y-134847580D01*
X280166476Y-133847580D02*
X280737904Y-133847580D01*
X280452190Y-133847580D02*
X280452190Y-134847580D01*
X280452190Y-134847580D02*
X280547428Y-134704723D01*
X280547428Y-134704723D02*
X280642666Y-134609485D01*
X280642666Y-134609485D02*
X280737904Y-134561866D01*
X280121027Y-122152419D02*
X280454360Y-123152419D01*
X280454360Y-123152419D02*
X280787693Y-122152419D01*
X281073408Y-122247657D02*
X281121027Y-122200038D01*
X281121027Y-122200038D02*
X281216265Y-122152419D01*
X281216265Y-122152419D02*
X281454360Y-122152419D01*
X281454360Y-122152419D02*
X281549598Y-122200038D01*
X281549598Y-122200038D02*
X281597217Y-122247657D01*
X281597217Y-122247657D02*
X281644836Y-122342895D01*
X281644836Y-122342895D02*
X281644836Y-122438133D01*
X281644836Y-122438133D02*
X281597217Y-122580990D01*
X281597217Y-122580990D02*
X281025789Y-123152419D01*
X281025789Y-123152419D02*
X281644836Y-123152419D01*
X277723884Y-121501419D02*
X277723884Y-120501419D01*
X277723884Y-120501419D02*
X278295312Y-121501419D01*
X278295312Y-121501419D02*
X278295312Y-120501419D01*
X278771503Y-121501419D02*
X278771503Y-120834752D01*
X278771503Y-120501419D02*
X278723884Y-120549038D01*
X278723884Y-120549038D02*
X278771503Y-120596657D01*
X278771503Y-120596657D02*
X278819122Y-120549038D01*
X278819122Y-120549038D02*
X278771503Y-120501419D01*
X278771503Y-120501419D02*
X278771503Y-120596657D01*
X279676264Y-121453800D02*
X279581026Y-121501419D01*
X279581026Y-121501419D02*
X279390550Y-121501419D01*
X279390550Y-121501419D02*
X279295312Y-121453800D01*
X279295312Y-121453800D02*
X279247693Y-121406180D01*
X279247693Y-121406180D02*
X279200074Y-121310942D01*
X279200074Y-121310942D02*
X279200074Y-121025228D01*
X279200074Y-121025228D02*
X279247693Y-120929990D01*
X279247693Y-120929990D02*
X279295312Y-120882371D01*
X279295312Y-120882371D02*
X279390550Y-120834752D01*
X279390550Y-120834752D02*
X279581026Y-120834752D01*
X279581026Y-120834752D02*
X279676264Y-120882371D01*
X280485788Y-121453800D02*
X280390550Y-121501419D01*
X280390550Y-121501419D02*
X280200074Y-121501419D01*
X280200074Y-121501419D02*
X280104836Y-121453800D01*
X280104836Y-121453800D02*
X280057217Y-121358561D01*
X280057217Y-121358561D02*
X280057217Y-120977609D01*
X280057217Y-120977609D02*
X280104836Y-120882371D01*
X280104836Y-120882371D02*
X280200074Y-120834752D01*
X280200074Y-120834752D02*
X280390550Y-120834752D01*
X280390550Y-120834752D02*
X280485788Y-120882371D01*
X280485788Y-120882371D02*
X280533407Y-120977609D01*
X280533407Y-120977609D02*
X280533407Y-121072847D01*
X280533407Y-121072847D02*
X280057217Y-121168085D01*
X280961979Y-121406180D02*
X281009598Y-121453800D01*
X281009598Y-121453800D02*
X280961979Y-121501419D01*
X280961979Y-121501419D02*
X280914360Y-121453800D01*
X280914360Y-121453800D02*
X280961979Y-121406180D01*
X280961979Y-121406180D02*
X280961979Y-121501419D01*
X280961979Y-121120466D02*
X280914360Y-120549038D01*
X280914360Y-120549038D02*
X280961979Y-120501419D01*
X280961979Y-120501419D02*
X281009598Y-120549038D01*
X281009598Y-120549038D02*
X280961979Y-121120466D01*
X280961979Y-121120466D02*
X280961979Y-120501419D01*
X281438169Y-121501419D02*
X281438169Y-120501419D01*
X281438169Y-120501419D02*
X282009597Y-121501419D01*
X282009597Y-121501419D02*
X282009597Y-120501419D01*
X282914359Y-121501419D02*
X282914359Y-120977609D01*
X282914359Y-120977609D02*
X282866740Y-120882371D01*
X282866740Y-120882371D02*
X282771502Y-120834752D01*
X282771502Y-120834752D02*
X282581026Y-120834752D01*
X282581026Y-120834752D02*
X282485788Y-120882371D01*
X282914359Y-121453800D02*
X282819121Y-121501419D01*
X282819121Y-121501419D02*
X282581026Y-121501419D01*
X282581026Y-121501419D02*
X282485788Y-121453800D01*
X282485788Y-121453800D02*
X282438169Y-121358561D01*
X282438169Y-121358561D02*
X282438169Y-121263323D01*
X282438169Y-121263323D02*
X282485788Y-121168085D01*
X282485788Y-121168085D02*
X282581026Y-121120466D01*
X282581026Y-121120466D02*
X282819121Y-121120466D01*
X282819121Y-121120466D02*
X282914359Y-121072847D01*
X283390550Y-120834752D02*
X283390550Y-121501419D01*
X283390550Y-120929990D02*
X283438169Y-120882371D01*
X283438169Y-120882371D02*
X283533407Y-120834752D01*
X283533407Y-120834752D02*
X283676264Y-120834752D01*
X283676264Y-120834752D02*
X283771502Y-120882371D01*
X283771502Y-120882371D02*
X283819121Y-120977609D01*
X283819121Y-120977609D02*
X283819121Y-121501419D01*
X284438169Y-121501419D02*
X284342931Y-121453800D01*
X284342931Y-121453800D02*
X284295312Y-121406180D01*
X284295312Y-121406180D02*
X284247693Y-121310942D01*
X284247693Y-121310942D02*
X284247693Y-121025228D01*
X284247693Y-121025228D02*
X284295312Y-120929990D01*
X284295312Y-120929990D02*
X284342931Y-120882371D01*
X284342931Y-120882371D02*
X284438169Y-120834752D01*
X284438169Y-120834752D02*
X284581026Y-120834752D01*
X284581026Y-120834752D02*
X284676264Y-120882371D01*
X284676264Y-120882371D02*
X284723883Y-120929990D01*
X284723883Y-120929990D02*
X284771502Y-121025228D01*
X284771502Y-121025228D02*
X284771502Y-121310942D01*
X284771502Y-121310942D02*
X284723883Y-121406180D01*
X284723883Y-121406180D02*
X284676264Y-121453800D01*
X284676264Y-121453800D02*
X284581026Y-121501419D01*
X284581026Y-121501419D02*
X284438169Y-121501419D01*
D11*
X113190476Y-187754819D02*
X113190476Y-186754819D01*
X113190476Y-186754819D02*
X113523809Y-187469104D01*
X113523809Y-187469104D02*
X113857142Y-186754819D01*
X113857142Y-186754819D02*
X113857142Y-187754819D01*
X114285714Y-186850057D02*
X114333333Y-186802438D01*
X114333333Y-186802438D02*
X114428571Y-186754819D01*
X114428571Y-186754819D02*
X114666666Y-186754819D01*
X114666666Y-186754819D02*
X114761904Y-186802438D01*
X114761904Y-186802438D02*
X114809523Y-186850057D01*
X114809523Y-186850057D02*
X114857142Y-186945295D01*
X114857142Y-186945295D02*
X114857142Y-187040533D01*
X114857142Y-187040533D02*
X114809523Y-187183390D01*
X114809523Y-187183390D02*
X114238095Y-187754819D01*
X114238095Y-187754819D02*
X114857142Y-187754819D01*
X287523819Y-132109094D02*
X286523819Y-132109094D01*
X286523819Y-132109094D02*
X286523819Y-131728142D01*
X286523819Y-131728142D02*
X286571438Y-131632904D01*
X286571438Y-131632904D02*
X286619057Y-131585285D01*
X286619057Y-131585285D02*
X286714295Y-131537666D01*
X286714295Y-131537666D02*
X286857152Y-131537666D01*
X286857152Y-131537666D02*
X286952390Y-131585285D01*
X286952390Y-131585285D02*
X287000009Y-131632904D01*
X287000009Y-131632904D02*
X287047628Y-131728142D01*
X287047628Y-131728142D02*
X287047628Y-132109094D01*
X286523819Y-131204332D02*
X286523819Y-130585285D01*
X286523819Y-130585285D02*
X286904771Y-130918618D01*
X286904771Y-130918618D02*
X286904771Y-130775761D01*
X286904771Y-130775761D02*
X286952390Y-130680523D01*
X286952390Y-130680523D02*
X287000009Y-130632904D01*
X287000009Y-130632904D02*
X287095247Y-130585285D01*
X287095247Y-130585285D02*
X287333342Y-130585285D01*
X287333342Y-130585285D02*
X287428580Y-130632904D01*
X287428580Y-130632904D02*
X287476200Y-130680523D01*
X287476200Y-130680523D02*
X287523819Y-130775761D01*
X287523819Y-130775761D02*
X287523819Y-131061475D01*
X287523819Y-131061475D02*
X287476200Y-131156713D01*
X287476200Y-131156713D02*
X287428580Y-131204332D01*
X285748819Y-126986476D02*
X285748819Y-127462666D01*
X285748819Y-127462666D02*
X284748819Y-127462666D01*
X285748819Y-133736476D02*
X285272628Y-134069809D01*
X285748819Y-134307904D02*
X284748819Y-134307904D01*
X284748819Y-134307904D02*
X284748819Y-133926952D01*
X284748819Y-133926952D02*
X284796438Y-133831714D01*
X284796438Y-133831714D02*
X284844057Y-133784095D01*
X284844057Y-133784095D02*
X284939295Y-133736476D01*
X284939295Y-133736476D02*
X285082152Y-133736476D01*
X285082152Y-133736476D02*
X285177390Y-133784095D01*
X285177390Y-133784095D02*
X285225009Y-133831714D01*
X285225009Y-133831714D02*
X285272628Y-133926952D01*
X285272628Y-133926952D02*
X285272628Y-134307904D01*
X205692476Y-140510819D02*
X205692476Y-139510819D01*
X205692476Y-139510819D02*
X206025809Y-140225104D01*
X206025809Y-140225104D02*
X206359142Y-139510819D01*
X206359142Y-139510819D02*
X206359142Y-140510819D01*
X207263904Y-139510819D02*
X207073428Y-139510819D01*
X207073428Y-139510819D02*
X206978190Y-139558438D01*
X206978190Y-139558438D02*
X206930571Y-139606057D01*
X206930571Y-139606057D02*
X206835333Y-139748914D01*
X206835333Y-139748914D02*
X206787714Y-139939390D01*
X206787714Y-139939390D02*
X206787714Y-140320342D01*
X206787714Y-140320342D02*
X206835333Y-140415580D01*
X206835333Y-140415580D02*
X206882952Y-140463200D01*
X206882952Y-140463200D02*
X206978190Y-140510819D01*
X206978190Y-140510819D02*
X207168666Y-140510819D01*
X207168666Y-140510819D02*
X207263904Y-140463200D01*
X207263904Y-140463200D02*
X207311523Y-140415580D01*
X207311523Y-140415580D02*
X207359142Y-140320342D01*
X207359142Y-140320342D02*
X207359142Y-140082247D01*
X207359142Y-140082247D02*
X207311523Y-139987009D01*
X207311523Y-139987009D02*
X207263904Y-139939390D01*
X207263904Y-139939390D02*
X207168666Y-139891771D01*
X207168666Y-139891771D02*
X206978190Y-139891771D01*
X206978190Y-139891771D02*
X206882952Y-139939390D01*
X206882952Y-139939390D02*
X206835333Y-139987009D01*
X206835333Y-139987009D02*
X206787714Y-140082247D01*
X138145595Y-118649200D02*
X138288452Y-118696819D01*
X138288452Y-118696819D02*
X138526547Y-118696819D01*
X138526547Y-118696819D02*
X138621785Y-118649200D01*
X138621785Y-118649200D02*
X138669404Y-118601580D01*
X138669404Y-118601580D02*
X138717023Y-118506342D01*
X138717023Y-118506342D02*
X138717023Y-118411104D01*
X138717023Y-118411104D02*
X138669404Y-118315866D01*
X138669404Y-118315866D02*
X138621785Y-118268247D01*
X138621785Y-118268247D02*
X138526547Y-118220628D01*
X138526547Y-118220628D02*
X138336071Y-118173009D01*
X138336071Y-118173009D02*
X138240833Y-118125390D01*
X138240833Y-118125390D02*
X138193214Y-118077771D01*
X138193214Y-118077771D02*
X138145595Y-117982533D01*
X138145595Y-117982533D02*
X138145595Y-117887295D01*
X138145595Y-117887295D02*
X138193214Y-117792057D01*
X138193214Y-117792057D02*
X138240833Y-117744438D01*
X138240833Y-117744438D02*
X138336071Y-117696819D01*
X138336071Y-117696819D02*
X138574166Y-117696819D01*
X138574166Y-117696819D02*
X138717023Y-117744438D01*
X139097976Y-117792057D02*
X139145595Y-117744438D01*
X139145595Y-117744438D02*
X139240833Y-117696819D01*
X139240833Y-117696819D02*
X139478928Y-117696819D01*
X139478928Y-117696819D02*
X139574166Y-117744438D01*
X139574166Y-117744438D02*
X139621785Y-117792057D01*
X139621785Y-117792057D02*
X139669404Y-117887295D01*
X139669404Y-117887295D02*
X139669404Y-117982533D01*
X139669404Y-117982533D02*
X139621785Y-118125390D01*
X139621785Y-118125390D02*
X139050357Y-118696819D01*
X139050357Y-118696819D02*
X139669404Y-118696819D01*
X157840905Y-156649200D02*
X157983762Y-156696819D01*
X157983762Y-156696819D02*
X158221857Y-156696819D01*
X158221857Y-156696819D02*
X158317095Y-156649200D01*
X158317095Y-156649200D02*
X158364714Y-156601580D01*
X158364714Y-156601580D02*
X158412333Y-156506342D01*
X158412333Y-156506342D02*
X158412333Y-156411104D01*
X158412333Y-156411104D02*
X158364714Y-156315866D01*
X158364714Y-156315866D02*
X158317095Y-156268247D01*
X158317095Y-156268247D02*
X158221857Y-156220628D01*
X158221857Y-156220628D02*
X158031381Y-156173009D01*
X158031381Y-156173009D02*
X157936143Y-156125390D01*
X157936143Y-156125390D02*
X157888524Y-156077771D01*
X157888524Y-156077771D02*
X157840905Y-155982533D01*
X157840905Y-155982533D02*
X157840905Y-155887295D01*
X157840905Y-155887295D02*
X157888524Y-155792057D01*
X157888524Y-155792057D02*
X157936143Y-155744438D01*
X157936143Y-155744438D02*
X158031381Y-155696819D01*
X158031381Y-155696819D02*
X158269476Y-155696819D01*
X158269476Y-155696819D02*
X158412333Y-155744438D01*
X159364714Y-156696819D02*
X158793286Y-156696819D01*
X159079000Y-156696819D02*
X159079000Y-155696819D01*
X159079000Y-155696819D02*
X158983762Y-155839676D01*
X158983762Y-155839676D02*
X158888524Y-155934914D01*
X158888524Y-155934914D02*
X158793286Y-155982533D01*
X160221857Y-155696819D02*
X160031381Y-155696819D01*
X160031381Y-155696819D02*
X159936143Y-155744438D01*
X159936143Y-155744438D02*
X159888524Y-155792057D01*
X159888524Y-155792057D02*
X159793286Y-155934914D01*
X159793286Y-155934914D02*
X159745667Y-156125390D01*
X159745667Y-156125390D02*
X159745667Y-156506342D01*
X159745667Y-156506342D02*
X159793286Y-156601580D01*
X159793286Y-156601580D02*
X159840905Y-156649200D01*
X159840905Y-156649200D02*
X159936143Y-156696819D01*
X159936143Y-156696819D02*
X160126619Y-156696819D01*
X160126619Y-156696819D02*
X160221857Y-156649200D01*
X160221857Y-156649200D02*
X160269476Y-156601580D01*
X160269476Y-156601580D02*
X160317095Y-156506342D01*
X160317095Y-156506342D02*
X160317095Y-156268247D01*
X160317095Y-156268247D02*
X160269476Y-156173009D01*
X160269476Y-156173009D02*
X160221857Y-156125390D01*
X160221857Y-156125390D02*
X160126619Y-156077771D01*
X160126619Y-156077771D02*
X159936143Y-156077771D01*
X159936143Y-156077771D02*
X159840905Y-156125390D01*
X159840905Y-156125390D02*
X159793286Y-156173009D01*
X159793286Y-156173009D02*
X159745667Y-156268247D01*
X252840905Y-156649200D02*
X252983762Y-156696819D01*
X252983762Y-156696819D02*
X253221857Y-156696819D01*
X253221857Y-156696819D02*
X253317095Y-156649200D01*
X253317095Y-156649200D02*
X253364714Y-156601580D01*
X253364714Y-156601580D02*
X253412333Y-156506342D01*
X253412333Y-156506342D02*
X253412333Y-156411104D01*
X253412333Y-156411104D02*
X253364714Y-156315866D01*
X253364714Y-156315866D02*
X253317095Y-156268247D01*
X253317095Y-156268247D02*
X253221857Y-156220628D01*
X253221857Y-156220628D02*
X253031381Y-156173009D01*
X253031381Y-156173009D02*
X252936143Y-156125390D01*
X252936143Y-156125390D02*
X252888524Y-156077771D01*
X252888524Y-156077771D02*
X252840905Y-155982533D01*
X252840905Y-155982533D02*
X252840905Y-155887295D01*
X252840905Y-155887295D02*
X252888524Y-155792057D01*
X252888524Y-155792057D02*
X252936143Y-155744438D01*
X252936143Y-155744438D02*
X253031381Y-155696819D01*
X253031381Y-155696819D02*
X253269476Y-155696819D01*
X253269476Y-155696819D02*
X253412333Y-155744438D01*
X253793286Y-155792057D02*
X253840905Y-155744438D01*
X253840905Y-155744438D02*
X253936143Y-155696819D01*
X253936143Y-155696819D02*
X254174238Y-155696819D01*
X254174238Y-155696819D02*
X254269476Y-155744438D01*
X254269476Y-155744438D02*
X254317095Y-155792057D01*
X254317095Y-155792057D02*
X254364714Y-155887295D01*
X254364714Y-155887295D02*
X254364714Y-155982533D01*
X254364714Y-155982533D02*
X254317095Y-156125390D01*
X254317095Y-156125390D02*
X253745667Y-156696819D01*
X253745667Y-156696819D02*
X254364714Y-156696819D01*
X255317095Y-156696819D02*
X254745667Y-156696819D01*
X255031381Y-156696819D02*
X255031381Y-155696819D01*
X255031381Y-155696819D02*
X254936143Y-155839676D01*
X254936143Y-155839676D02*
X254840905Y-155934914D01*
X254840905Y-155934914D02*
X254745667Y-155982533D01*
X224365905Y-175649200D02*
X224508762Y-175696819D01*
X224508762Y-175696819D02*
X224746857Y-175696819D01*
X224746857Y-175696819D02*
X224842095Y-175649200D01*
X224842095Y-175649200D02*
X224889714Y-175601580D01*
X224889714Y-175601580D02*
X224937333Y-175506342D01*
X224937333Y-175506342D02*
X224937333Y-175411104D01*
X224937333Y-175411104D02*
X224889714Y-175315866D01*
X224889714Y-175315866D02*
X224842095Y-175268247D01*
X224842095Y-175268247D02*
X224746857Y-175220628D01*
X224746857Y-175220628D02*
X224556381Y-175173009D01*
X224556381Y-175173009D02*
X224461143Y-175125390D01*
X224461143Y-175125390D02*
X224413524Y-175077771D01*
X224413524Y-175077771D02*
X224365905Y-174982533D01*
X224365905Y-174982533D02*
X224365905Y-174887295D01*
X224365905Y-174887295D02*
X224413524Y-174792057D01*
X224413524Y-174792057D02*
X224461143Y-174744438D01*
X224461143Y-174744438D02*
X224556381Y-174696819D01*
X224556381Y-174696819D02*
X224794476Y-174696819D01*
X224794476Y-174696819D02*
X224937333Y-174744438D01*
X225318286Y-174792057D02*
X225365905Y-174744438D01*
X225365905Y-174744438D02*
X225461143Y-174696819D01*
X225461143Y-174696819D02*
X225699238Y-174696819D01*
X225699238Y-174696819D02*
X225794476Y-174744438D01*
X225794476Y-174744438D02*
X225842095Y-174792057D01*
X225842095Y-174792057D02*
X225889714Y-174887295D01*
X225889714Y-174887295D02*
X225889714Y-174982533D01*
X225889714Y-174982533D02*
X225842095Y-175125390D01*
X225842095Y-175125390D02*
X225270667Y-175696819D01*
X225270667Y-175696819D02*
X225889714Y-175696819D01*
X226746857Y-174696819D02*
X226556381Y-174696819D01*
X226556381Y-174696819D02*
X226461143Y-174744438D01*
X226461143Y-174744438D02*
X226413524Y-174792057D01*
X226413524Y-174792057D02*
X226318286Y-174934914D01*
X226318286Y-174934914D02*
X226270667Y-175125390D01*
X226270667Y-175125390D02*
X226270667Y-175506342D01*
X226270667Y-175506342D02*
X226318286Y-175601580D01*
X226318286Y-175601580D02*
X226365905Y-175649200D01*
X226365905Y-175649200D02*
X226461143Y-175696819D01*
X226461143Y-175696819D02*
X226651619Y-175696819D01*
X226651619Y-175696819D02*
X226746857Y-175649200D01*
X226746857Y-175649200D02*
X226794476Y-175601580D01*
X226794476Y-175601580D02*
X226842095Y-175506342D01*
X226842095Y-175506342D02*
X226842095Y-175268247D01*
X226842095Y-175268247D02*
X226794476Y-175173009D01*
X226794476Y-175173009D02*
X226746857Y-175125390D01*
X226746857Y-175125390D02*
X226651619Y-175077771D01*
X226651619Y-175077771D02*
X226461143Y-175077771D01*
X226461143Y-175077771D02*
X226365905Y-175125390D01*
X226365905Y-175125390D02*
X226318286Y-175173009D01*
X226318286Y-175173009D02*
X226270667Y-175268247D01*
X176840905Y-156649200D02*
X176983762Y-156696819D01*
X176983762Y-156696819D02*
X177221857Y-156696819D01*
X177221857Y-156696819D02*
X177317095Y-156649200D01*
X177317095Y-156649200D02*
X177364714Y-156601580D01*
X177364714Y-156601580D02*
X177412333Y-156506342D01*
X177412333Y-156506342D02*
X177412333Y-156411104D01*
X177412333Y-156411104D02*
X177364714Y-156315866D01*
X177364714Y-156315866D02*
X177317095Y-156268247D01*
X177317095Y-156268247D02*
X177221857Y-156220628D01*
X177221857Y-156220628D02*
X177031381Y-156173009D01*
X177031381Y-156173009D02*
X176936143Y-156125390D01*
X176936143Y-156125390D02*
X176888524Y-156077771D01*
X176888524Y-156077771D02*
X176840905Y-155982533D01*
X176840905Y-155982533D02*
X176840905Y-155887295D01*
X176840905Y-155887295D02*
X176888524Y-155792057D01*
X176888524Y-155792057D02*
X176936143Y-155744438D01*
X176936143Y-155744438D02*
X177031381Y-155696819D01*
X177031381Y-155696819D02*
X177269476Y-155696819D01*
X177269476Y-155696819D02*
X177412333Y-155744438D01*
X178364714Y-156696819D02*
X177793286Y-156696819D01*
X178079000Y-156696819D02*
X178079000Y-155696819D01*
X178079000Y-155696819D02*
X177983762Y-155839676D01*
X177983762Y-155839676D02*
X177888524Y-155934914D01*
X177888524Y-155934914D02*
X177793286Y-155982533D01*
X178698048Y-155696819D02*
X179364714Y-155696819D01*
X179364714Y-155696819D02*
X178936143Y-156696819D01*
X287523819Y-123543094D02*
X286523819Y-123543094D01*
X286523819Y-123543094D02*
X286523819Y-123162142D01*
X286523819Y-123162142D02*
X286571438Y-123066904D01*
X286571438Y-123066904D02*
X286619057Y-123019285D01*
X286619057Y-123019285D02*
X286714295Y-122971666D01*
X286714295Y-122971666D02*
X286857152Y-122971666D01*
X286857152Y-122971666D02*
X286952390Y-123019285D01*
X286952390Y-123019285D02*
X287000009Y-123066904D01*
X287000009Y-123066904D02*
X287047628Y-123162142D01*
X287047628Y-123162142D02*
X287047628Y-123543094D01*
X286619057Y-122590713D02*
X286571438Y-122543094D01*
X286571438Y-122543094D02*
X286523819Y-122447856D01*
X286523819Y-122447856D02*
X286523819Y-122209761D01*
X286523819Y-122209761D02*
X286571438Y-122114523D01*
X286571438Y-122114523D02*
X286619057Y-122066904D01*
X286619057Y-122066904D02*
X286714295Y-122019285D01*
X286714295Y-122019285D02*
X286809533Y-122019285D01*
X286809533Y-122019285D02*
X286952390Y-122066904D01*
X286952390Y-122066904D02*
X287523819Y-122638332D01*
X287523819Y-122638332D02*
X287523819Y-122019285D01*
X285748819Y-125170476D02*
X285272628Y-125503809D01*
X285748819Y-125741904D02*
X284748819Y-125741904D01*
X284748819Y-125741904D02*
X284748819Y-125360952D01*
X284748819Y-125360952D02*
X284796438Y-125265714D01*
X284796438Y-125265714D02*
X284844057Y-125218095D01*
X284844057Y-125218095D02*
X284939295Y-125170476D01*
X284939295Y-125170476D02*
X285082152Y-125170476D01*
X285082152Y-125170476D02*
X285177390Y-125218095D01*
X285177390Y-125218095D02*
X285225009Y-125265714D01*
X285225009Y-125265714D02*
X285272628Y-125360952D01*
X285272628Y-125360952D02*
X285272628Y-125741904D01*
X285748819Y-118420476D02*
X285748819Y-118896666D01*
X285748819Y-118896666D02*
X284748819Y-118896666D01*
X195840905Y-156649200D02*
X195983762Y-156696819D01*
X195983762Y-156696819D02*
X196221857Y-156696819D01*
X196221857Y-156696819D02*
X196317095Y-156649200D01*
X196317095Y-156649200D02*
X196364714Y-156601580D01*
X196364714Y-156601580D02*
X196412333Y-156506342D01*
X196412333Y-156506342D02*
X196412333Y-156411104D01*
X196412333Y-156411104D02*
X196364714Y-156315866D01*
X196364714Y-156315866D02*
X196317095Y-156268247D01*
X196317095Y-156268247D02*
X196221857Y-156220628D01*
X196221857Y-156220628D02*
X196031381Y-156173009D01*
X196031381Y-156173009D02*
X195936143Y-156125390D01*
X195936143Y-156125390D02*
X195888524Y-156077771D01*
X195888524Y-156077771D02*
X195840905Y-155982533D01*
X195840905Y-155982533D02*
X195840905Y-155887295D01*
X195840905Y-155887295D02*
X195888524Y-155792057D01*
X195888524Y-155792057D02*
X195936143Y-155744438D01*
X195936143Y-155744438D02*
X196031381Y-155696819D01*
X196031381Y-155696819D02*
X196269476Y-155696819D01*
X196269476Y-155696819D02*
X196412333Y-155744438D01*
X197364714Y-156696819D02*
X196793286Y-156696819D01*
X197079000Y-156696819D02*
X197079000Y-155696819D01*
X197079000Y-155696819D02*
X196983762Y-155839676D01*
X196983762Y-155839676D02*
X196888524Y-155934914D01*
X196888524Y-155934914D02*
X196793286Y-155982533D01*
X197936143Y-156125390D02*
X197840905Y-156077771D01*
X197840905Y-156077771D02*
X197793286Y-156030152D01*
X197793286Y-156030152D02*
X197745667Y-155934914D01*
X197745667Y-155934914D02*
X197745667Y-155887295D01*
X197745667Y-155887295D02*
X197793286Y-155792057D01*
X197793286Y-155792057D02*
X197840905Y-155744438D01*
X197840905Y-155744438D02*
X197936143Y-155696819D01*
X197936143Y-155696819D02*
X198126619Y-155696819D01*
X198126619Y-155696819D02*
X198221857Y-155744438D01*
X198221857Y-155744438D02*
X198269476Y-155792057D01*
X198269476Y-155792057D02*
X198317095Y-155887295D01*
X198317095Y-155887295D02*
X198317095Y-155934914D01*
X198317095Y-155934914D02*
X198269476Y-156030152D01*
X198269476Y-156030152D02*
X198221857Y-156077771D01*
X198221857Y-156077771D02*
X198126619Y-156125390D01*
X198126619Y-156125390D02*
X197936143Y-156125390D01*
X197936143Y-156125390D02*
X197840905Y-156173009D01*
X197840905Y-156173009D02*
X197793286Y-156220628D01*
X197793286Y-156220628D02*
X197745667Y-156315866D01*
X197745667Y-156315866D02*
X197745667Y-156506342D01*
X197745667Y-156506342D02*
X197793286Y-156601580D01*
X197793286Y-156601580D02*
X197840905Y-156649200D01*
X197840905Y-156649200D02*
X197936143Y-156696819D01*
X197936143Y-156696819D02*
X198126619Y-156696819D01*
X198126619Y-156696819D02*
X198221857Y-156649200D01*
X198221857Y-156649200D02*
X198269476Y-156601580D01*
X198269476Y-156601580D02*
X198317095Y-156506342D01*
X198317095Y-156506342D02*
X198317095Y-156315866D01*
X198317095Y-156315866D02*
X198269476Y-156220628D01*
X198269476Y-156220628D02*
X198221857Y-156173009D01*
X198221857Y-156173009D02*
X198126619Y-156125390D01*
X276814200Y-122975475D02*
X276861819Y-122832618D01*
X276861819Y-122832618D02*
X276861819Y-122594523D01*
X276861819Y-122594523D02*
X276814200Y-122499285D01*
X276814200Y-122499285D02*
X276766580Y-122451666D01*
X276766580Y-122451666D02*
X276671342Y-122404047D01*
X276671342Y-122404047D02*
X276576104Y-122404047D01*
X276576104Y-122404047D02*
X276480866Y-122451666D01*
X276480866Y-122451666D02*
X276433247Y-122499285D01*
X276433247Y-122499285D02*
X276385628Y-122594523D01*
X276385628Y-122594523D02*
X276338009Y-122784999D01*
X276338009Y-122784999D02*
X276290390Y-122880237D01*
X276290390Y-122880237D02*
X276242771Y-122927856D01*
X276242771Y-122927856D02*
X276147533Y-122975475D01*
X276147533Y-122975475D02*
X276052295Y-122975475D01*
X276052295Y-122975475D02*
X275957057Y-122927856D01*
X275957057Y-122927856D02*
X275909438Y-122880237D01*
X275909438Y-122880237D02*
X275861819Y-122784999D01*
X275861819Y-122784999D02*
X275861819Y-122546904D01*
X275861819Y-122546904D02*
X275909438Y-122404047D01*
X276861819Y-121975475D02*
X275861819Y-121975475D01*
X275861819Y-121975475D02*
X275861819Y-121737380D01*
X275861819Y-121737380D02*
X275909438Y-121594523D01*
X275909438Y-121594523D02*
X276004676Y-121499285D01*
X276004676Y-121499285D02*
X276099914Y-121451666D01*
X276099914Y-121451666D02*
X276290390Y-121404047D01*
X276290390Y-121404047D02*
X276433247Y-121404047D01*
X276433247Y-121404047D02*
X276623723Y-121451666D01*
X276623723Y-121451666D02*
X276718961Y-121499285D01*
X276718961Y-121499285D02*
X276814200Y-121594523D01*
X276814200Y-121594523D02*
X276861819Y-121737380D01*
X276861819Y-121737380D02*
X276861819Y-121975475D01*
X276576104Y-121023094D02*
X276576104Y-120546904D01*
X276861819Y-121118332D02*
X275861819Y-120784999D01*
X275861819Y-120784999D02*
X276861819Y-120451666D01*
X276861819Y-119594523D02*
X276861819Y-120165951D01*
X276861819Y-119880237D02*
X275861819Y-119880237D01*
X275861819Y-119880237D02*
X276004676Y-119975475D01*
X276004676Y-119975475D02*
X276099914Y-120070713D01*
X276099914Y-120070713D02*
X276147533Y-120165951D01*
X278636819Y-118300476D02*
X278160628Y-118633809D01*
X278636819Y-118871904D02*
X277636819Y-118871904D01*
X277636819Y-118871904D02*
X277636819Y-118490952D01*
X277636819Y-118490952D02*
X277684438Y-118395714D01*
X277684438Y-118395714D02*
X277732057Y-118348095D01*
X277732057Y-118348095D02*
X277827295Y-118300476D01*
X277827295Y-118300476D02*
X277970152Y-118300476D01*
X277970152Y-118300476D02*
X278065390Y-118348095D01*
X278065390Y-118348095D02*
X278113009Y-118395714D01*
X278113009Y-118395714D02*
X278160628Y-118490952D01*
X278160628Y-118490952D02*
X278160628Y-118871904D01*
X278636819Y-125050476D02*
X278636819Y-125526666D01*
X278636819Y-125526666D02*
X277636819Y-125526666D01*
X270190476Y-144754819D02*
X270190476Y-143754819D01*
X270190476Y-143754819D02*
X270523809Y-144469104D01*
X270523809Y-144469104D02*
X270857142Y-143754819D01*
X270857142Y-143754819D02*
X270857142Y-144754819D01*
X271476190Y-144183390D02*
X271380952Y-144135771D01*
X271380952Y-144135771D02*
X271333333Y-144088152D01*
X271333333Y-144088152D02*
X271285714Y-143992914D01*
X271285714Y-143992914D02*
X271285714Y-143945295D01*
X271285714Y-143945295D02*
X271333333Y-143850057D01*
X271333333Y-143850057D02*
X271380952Y-143802438D01*
X271380952Y-143802438D02*
X271476190Y-143754819D01*
X271476190Y-143754819D02*
X271666666Y-143754819D01*
X271666666Y-143754819D02*
X271761904Y-143802438D01*
X271761904Y-143802438D02*
X271809523Y-143850057D01*
X271809523Y-143850057D02*
X271857142Y-143945295D01*
X271857142Y-143945295D02*
X271857142Y-143992914D01*
X271857142Y-143992914D02*
X271809523Y-144088152D01*
X271809523Y-144088152D02*
X271761904Y-144135771D01*
X271761904Y-144135771D02*
X271666666Y-144183390D01*
X271666666Y-144183390D02*
X271476190Y-144183390D01*
X271476190Y-144183390D02*
X271380952Y-144231009D01*
X271380952Y-144231009D02*
X271333333Y-144278628D01*
X271333333Y-144278628D02*
X271285714Y-144373866D01*
X271285714Y-144373866D02*
X271285714Y-144564342D01*
X271285714Y-144564342D02*
X271333333Y-144659580D01*
X271333333Y-144659580D02*
X271380952Y-144707200D01*
X271380952Y-144707200D02*
X271476190Y-144754819D01*
X271476190Y-144754819D02*
X271666666Y-144754819D01*
X271666666Y-144754819D02*
X271761904Y-144707200D01*
X271761904Y-144707200D02*
X271809523Y-144659580D01*
X271809523Y-144659580D02*
X271857142Y-144564342D01*
X271857142Y-144564342D02*
X271857142Y-144373866D01*
X271857142Y-144373866D02*
X271809523Y-144278628D01*
X271809523Y-144278628D02*
X271761904Y-144231009D01*
X271761904Y-144231009D02*
X271666666Y-144183390D01*
X226037405Y-194649200D02*
X226180262Y-194696819D01*
X226180262Y-194696819D02*
X226418357Y-194696819D01*
X226418357Y-194696819D02*
X226513595Y-194649200D01*
X226513595Y-194649200D02*
X226561214Y-194601580D01*
X226561214Y-194601580D02*
X226608833Y-194506342D01*
X226608833Y-194506342D02*
X226608833Y-194411104D01*
X226608833Y-194411104D02*
X226561214Y-194315866D01*
X226561214Y-194315866D02*
X226513595Y-194268247D01*
X226513595Y-194268247D02*
X226418357Y-194220628D01*
X226418357Y-194220628D02*
X226227881Y-194173009D01*
X226227881Y-194173009D02*
X226132643Y-194125390D01*
X226132643Y-194125390D02*
X226085024Y-194077771D01*
X226085024Y-194077771D02*
X226037405Y-193982533D01*
X226037405Y-193982533D02*
X226037405Y-193887295D01*
X226037405Y-193887295D02*
X226085024Y-193792057D01*
X226085024Y-193792057D02*
X226132643Y-193744438D01*
X226132643Y-193744438D02*
X226227881Y-193696819D01*
X226227881Y-193696819D02*
X226465976Y-193696819D01*
X226465976Y-193696819D02*
X226608833Y-193744438D01*
X226942167Y-193696819D02*
X227561214Y-193696819D01*
X227561214Y-193696819D02*
X227227881Y-194077771D01*
X227227881Y-194077771D02*
X227370738Y-194077771D01*
X227370738Y-194077771D02*
X227465976Y-194125390D01*
X227465976Y-194125390D02*
X227513595Y-194173009D01*
X227513595Y-194173009D02*
X227561214Y-194268247D01*
X227561214Y-194268247D02*
X227561214Y-194506342D01*
X227561214Y-194506342D02*
X227513595Y-194601580D01*
X227513595Y-194601580D02*
X227465976Y-194649200D01*
X227465976Y-194649200D02*
X227370738Y-194696819D01*
X227370738Y-194696819D02*
X227085024Y-194696819D01*
X227085024Y-194696819D02*
X226989786Y-194649200D01*
X226989786Y-194649200D02*
X226942167Y-194601580D01*
X227942167Y-193792057D02*
X227989786Y-193744438D01*
X227989786Y-193744438D02*
X228085024Y-193696819D01*
X228085024Y-193696819D02*
X228323119Y-193696819D01*
X228323119Y-193696819D02*
X228418357Y-193744438D01*
X228418357Y-193744438D02*
X228465976Y-193792057D01*
X228465976Y-193792057D02*
X228513595Y-193887295D01*
X228513595Y-193887295D02*
X228513595Y-193982533D01*
X228513595Y-193982533D02*
X228465976Y-194125390D01*
X228465976Y-194125390D02*
X227894548Y-194696819D01*
X227894548Y-194696819D02*
X228513595Y-194696819D01*
X128694405Y-194649200D02*
X128837262Y-194696819D01*
X128837262Y-194696819D02*
X129075357Y-194696819D01*
X129075357Y-194696819D02*
X129170595Y-194649200D01*
X129170595Y-194649200D02*
X129218214Y-194601580D01*
X129218214Y-194601580D02*
X129265833Y-194506342D01*
X129265833Y-194506342D02*
X129265833Y-194411104D01*
X129265833Y-194411104D02*
X129218214Y-194315866D01*
X129218214Y-194315866D02*
X129170595Y-194268247D01*
X129170595Y-194268247D02*
X129075357Y-194220628D01*
X129075357Y-194220628D02*
X128884881Y-194173009D01*
X128884881Y-194173009D02*
X128789643Y-194125390D01*
X128789643Y-194125390D02*
X128742024Y-194077771D01*
X128742024Y-194077771D02*
X128694405Y-193982533D01*
X128694405Y-193982533D02*
X128694405Y-193887295D01*
X128694405Y-193887295D02*
X128742024Y-193792057D01*
X128742024Y-193792057D02*
X128789643Y-193744438D01*
X128789643Y-193744438D02*
X128884881Y-193696819D01*
X128884881Y-193696819D02*
X129122976Y-193696819D01*
X129122976Y-193696819D02*
X129265833Y-193744438D01*
X129646786Y-193792057D02*
X129694405Y-193744438D01*
X129694405Y-193744438D02*
X129789643Y-193696819D01*
X129789643Y-193696819D02*
X130027738Y-193696819D01*
X130027738Y-193696819D02*
X130122976Y-193744438D01*
X130122976Y-193744438D02*
X130170595Y-193792057D01*
X130170595Y-193792057D02*
X130218214Y-193887295D01*
X130218214Y-193887295D02*
X130218214Y-193982533D01*
X130218214Y-193982533D02*
X130170595Y-194125390D01*
X130170595Y-194125390D02*
X129599167Y-194696819D01*
X129599167Y-194696819D02*
X130218214Y-194696819D01*
X130694405Y-194696819D02*
X130884881Y-194696819D01*
X130884881Y-194696819D02*
X130980119Y-194649200D01*
X130980119Y-194649200D02*
X131027738Y-194601580D01*
X131027738Y-194601580D02*
X131122976Y-194458723D01*
X131122976Y-194458723D02*
X131170595Y-194268247D01*
X131170595Y-194268247D02*
X131170595Y-193887295D01*
X131170595Y-193887295D02*
X131122976Y-193792057D01*
X131122976Y-193792057D02*
X131075357Y-193744438D01*
X131075357Y-193744438D02*
X130980119Y-193696819D01*
X130980119Y-193696819D02*
X130789643Y-193696819D01*
X130789643Y-193696819D02*
X130694405Y-193744438D01*
X130694405Y-193744438D02*
X130646786Y-193792057D01*
X130646786Y-193792057D02*
X130599167Y-193887295D01*
X130599167Y-193887295D02*
X130599167Y-194125390D01*
X130599167Y-194125390D02*
X130646786Y-194220628D01*
X130646786Y-194220628D02*
X130694405Y-194268247D01*
X130694405Y-194268247D02*
X130789643Y-194315866D01*
X130789643Y-194315866D02*
X130980119Y-194315866D01*
X130980119Y-194315866D02*
X131075357Y-194268247D01*
X131075357Y-194268247D02*
X131122976Y-194220628D01*
X131122976Y-194220628D02*
X131170595Y-194125390D01*
X167365905Y-175649200D02*
X167508762Y-175696819D01*
X167508762Y-175696819D02*
X167746857Y-175696819D01*
X167746857Y-175696819D02*
X167842095Y-175649200D01*
X167842095Y-175649200D02*
X167889714Y-175601580D01*
X167889714Y-175601580D02*
X167937333Y-175506342D01*
X167937333Y-175506342D02*
X167937333Y-175411104D01*
X167937333Y-175411104D02*
X167889714Y-175315866D01*
X167889714Y-175315866D02*
X167842095Y-175268247D01*
X167842095Y-175268247D02*
X167746857Y-175220628D01*
X167746857Y-175220628D02*
X167556381Y-175173009D01*
X167556381Y-175173009D02*
X167461143Y-175125390D01*
X167461143Y-175125390D02*
X167413524Y-175077771D01*
X167413524Y-175077771D02*
X167365905Y-174982533D01*
X167365905Y-174982533D02*
X167365905Y-174887295D01*
X167365905Y-174887295D02*
X167413524Y-174792057D01*
X167413524Y-174792057D02*
X167461143Y-174744438D01*
X167461143Y-174744438D02*
X167556381Y-174696819D01*
X167556381Y-174696819D02*
X167794476Y-174696819D01*
X167794476Y-174696819D02*
X167937333Y-174744438D01*
X168318286Y-174792057D02*
X168365905Y-174744438D01*
X168365905Y-174744438D02*
X168461143Y-174696819D01*
X168461143Y-174696819D02*
X168699238Y-174696819D01*
X168699238Y-174696819D02*
X168794476Y-174744438D01*
X168794476Y-174744438D02*
X168842095Y-174792057D01*
X168842095Y-174792057D02*
X168889714Y-174887295D01*
X168889714Y-174887295D02*
X168889714Y-174982533D01*
X168889714Y-174982533D02*
X168842095Y-175125390D01*
X168842095Y-175125390D02*
X168270667Y-175696819D01*
X168270667Y-175696819D02*
X168889714Y-175696819D01*
X169223048Y-174696819D02*
X169842095Y-174696819D01*
X169842095Y-174696819D02*
X169508762Y-175077771D01*
X169508762Y-175077771D02*
X169651619Y-175077771D01*
X169651619Y-175077771D02*
X169746857Y-175125390D01*
X169746857Y-175125390D02*
X169794476Y-175173009D01*
X169794476Y-175173009D02*
X169842095Y-175268247D01*
X169842095Y-175268247D02*
X169842095Y-175506342D01*
X169842095Y-175506342D02*
X169794476Y-175601580D01*
X169794476Y-175601580D02*
X169746857Y-175649200D01*
X169746857Y-175649200D02*
X169651619Y-175696819D01*
X169651619Y-175696819D02*
X169365905Y-175696819D01*
X169365905Y-175696819D02*
X169270667Y-175649200D01*
X169270667Y-175649200D02*
X169223048Y-175601580D01*
X243315905Y-137649200D02*
X243458762Y-137696819D01*
X243458762Y-137696819D02*
X243696857Y-137696819D01*
X243696857Y-137696819D02*
X243792095Y-137649200D01*
X243792095Y-137649200D02*
X243839714Y-137601580D01*
X243839714Y-137601580D02*
X243887333Y-137506342D01*
X243887333Y-137506342D02*
X243887333Y-137411104D01*
X243887333Y-137411104D02*
X243839714Y-137315866D01*
X243839714Y-137315866D02*
X243792095Y-137268247D01*
X243792095Y-137268247D02*
X243696857Y-137220628D01*
X243696857Y-137220628D02*
X243506381Y-137173009D01*
X243506381Y-137173009D02*
X243411143Y-137125390D01*
X243411143Y-137125390D02*
X243363524Y-137077771D01*
X243363524Y-137077771D02*
X243315905Y-136982533D01*
X243315905Y-136982533D02*
X243315905Y-136887295D01*
X243315905Y-136887295D02*
X243363524Y-136792057D01*
X243363524Y-136792057D02*
X243411143Y-136744438D01*
X243411143Y-136744438D02*
X243506381Y-136696819D01*
X243506381Y-136696819D02*
X243744476Y-136696819D01*
X243744476Y-136696819D02*
X243887333Y-136744438D01*
X244839714Y-137696819D02*
X244268286Y-137696819D01*
X244554000Y-137696819D02*
X244554000Y-136696819D01*
X244554000Y-136696819D02*
X244458762Y-136839676D01*
X244458762Y-136839676D02*
X244363524Y-136934914D01*
X244363524Y-136934914D02*
X244268286Y-136982533D01*
X245696857Y-137030152D02*
X245696857Y-137696819D01*
X245458762Y-136649200D02*
X245220667Y-137363485D01*
X245220667Y-137363485D02*
X245839714Y-137363485D01*
X157190476Y-164654819D02*
X157190476Y-163654819D01*
X157190476Y-163654819D02*
X157523809Y-164369104D01*
X157523809Y-164369104D02*
X157857142Y-163654819D01*
X157857142Y-163654819D02*
X157857142Y-164654819D01*
X158238095Y-163654819D02*
X158857142Y-163654819D01*
X158857142Y-163654819D02*
X158523809Y-164035771D01*
X158523809Y-164035771D02*
X158666666Y-164035771D01*
X158666666Y-164035771D02*
X158761904Y-164083390D01*
X158761904Y-164083390D02*
X158809523Y-164131009D01*
X158809523Y-164131009D02*
X158857142Y-164226247D01*
X158857142Y-164226247D02*
X158857142Y-164464342D01*
X158857142Y-164464342D02*
X158809523Y-164559580D01*
X158809523Y-164559580D02*
X158761904Y-164607200D01*
X158761904Y-164607200D02*
X158666666Y-164654819D01*
X158666666Y-164654819D02*
X158380952Y-164654819D01*
X158380952Y-164654819D02*
X158285714Y-164607200D01*
X158285714Y-164607200D02*
X158238095Y-164559580D01*
X285435200Y-177029332D02*
X285482819Y-176886475D01*
X285482819Y-176886475D02*
X285482819Y-176648380D01*
X285482819Y-176648380D02*
X285435200Y-176553142D01*
X285435200Y-176553142D02*
X285387580Y-176505523D01*
X285387580Y-176505523D02*
X285292342Y-176457904D01*
X285292342Y-176457904D02*
X285197104Y-176457904D01*
X285197104Y-176457904D02*
X285101866Y-176505523D01*
X285101866Y-176505523D02*
X285054247Y-176553142D01*
X285054247Y-176553142D02*
X285006628Y-176648380D01*
X285006628Y-176648380D02*
X284959009Y-176838856D01*
X284959009Y-176838856D02*
X284911390Y-176934094D01*
X284911390Y-176934094D02*
X284863771Y-176981713D01*
X284863771Y-176981713D02*
X284768533Y-177029332D01*
X284768533Y-177029332D02*
X284673295Y-177029332D01*
X284673295Y-177029332D02*
X284578057Y-176981713D01*
X284578057Y-176981713D02*
X284530438Y-176934094D01*
X284530438Y-176934094D02*
X284482819Y-176838856D01*
X284482819Y-176838856D02*
X284482819Y-176600761D01*
X284482819Y-176600761D02*
X284530438Y-176457904D01*
X284482819Y-176124570D02*
X285482819Y-175886475D01*
X285482819Y-175886475D02*
X284768533Y-175695999D01*
X284768533Y-175695999D02*
X285482819Y-175505523D01*
X285482819Y-175505523D02*
X284482819Y-175267428D01*
X285482819Y-174362666D02*
X285482819Y-174934094D01*
X285482819Y-174648380D02*
X284482819Y-174648380D01*
X284482819Y-174648380D02*
X284625676Y-174743618D01*
X284625676Y-174743618D02*
X284720914Y-174838856D01*
X284720914Y-174838856D02*
X284768533Y-174934094D01*
X294998819Y-158157333D02*
X295713104Y-158157333D01*
X295713104Y-158157333D02*
X295855961Y-158204952D01*
X295855961Y-158204952D02*
X295951200Y-158300190D01*
X295951200Y-158300190D02*
X295998819Y-158443047D01*
X295998819Y-158443047D02*
X295998819Y-158538285D01*
X295998819Y-157157333D02*
X295998819Y-157728761D01*
X295998819Y-157443047D02*
X294998819Y-157443047D01*
X294998819Y-157443047D02*
X295141676Y-157538285D01*
X295141676Y-157538285D02*
X295236914Y-157633523D01*
X295236914Y-157633523D02*
X295284533Y-157728761D01*
X243365905Y-175649200D02*
X243508762Y-175696819D01*
X243508762Y-175696819D02*
X243746857Y-175696819D01*
X243746857Y-175696819D02*
X243842095Y-175649200D01*
X243842095Y-175649200D02*
X243889714Y-175601580D01*
X243889714Y-175601580D02*
X243937333Y-175506342D01*
X243937333Y-175506342D02*
X243937333Y-175411104D01*
X243937333Y-175411104D02*
X243889714Y-175315866D01*
X243889714Y-175315866D02*
X243842095Y-175268247D01*
X243842095Y-175268247D02*
X243746857Y-175220628D01*
X243746857Y-175220628D02*
X243556381Y-175173009D01*
X243556381Y-175173009D02*
X243461143Y-175125390D01*
X243461143Y-175125390D02*
X243413524Y-175077771D01*
X243413524Y-175077771D02*
X243365905Y-174982533D01*
X243365905Y-174982533D02*
X243365905Y-174887295D01*
X243365905Y-174887295D02*
X243413524Y-174792057D01*
X243413524Y-174792057D02*
X243461143Y-174744438D01*
X243461143Y-174744438D02*
X243556381Y-174696819D01*
X243556381Y-174696819D02*
X243794476Y-174696819D01*
X243794476Y-174696819D02*
X243937333Y-174744438D01*
X244318286Y-174792057D02*
X244365905Y-174744438D01*
X244365905Y-174744438D02*
X244461143Y-174696819D01*
X244461143Y-174696819D02*
X244699238Y-174696819D01*
X244699238Y-174696819D02*
X244794476Y-174744438D01*
X244794476Y-174744438D02*
X244842095Y-174792057D01*
X244842095Y-174792057D02*
X244889714Y-174887295D01*
X244889714Y-174887295D02*
X244889714Y-174982533D01*
X244889714Y-174982533D02*
X244842095Y-175125390D01*
X244842095Y-175125390D02*
X244270667Y-175696819D01*
X244270667Y-175696819D02*
X244889714Y-175696819D01*
X245223048Y-174696819D02*
X245889714Y-174696819D01*
X245889714Y-174696819D02*
X245461143Y-175696819D01*
X271358819Y-123822666D02*
X270882628Y-124155999D01*
X271358819Y-124394094D02*
X270358819Y-124394094D01*
X270358819Y-124394094D02*
X270358819Y-124013142D01*
X270358819Y-124013142D02*
X270406438Y-123917904D01*
X270406438Y-123917904D02*
X270454057Y-123870285D01*
X270454057Y-123870285D02*
X270549295Y-123822666D01*
X270549295Y-123822666D02*
X270692152Y-123822666D01*
X270692152Y-123822666D02*
X270787390Y-123870285D01*
X270787390Y-123870285D02*
X270835009Y-123917904D01*
X270835009Y-123917904D02*
X270882628Y-124013142D01*
X270882628Y-124013142D02*
X270882628Y-124394094D01*
X271358819Y-122870285D02*
X271358819Y-123441713D01*
X271358819Y-123155999D02*
X270358819Y-123155999D01*
X270358819Y-123155999D02*
X270501676Y-123251237D01*
X270501676Y-123251237D02*
X270596914Y-123346475D01*
X270596914Y-123346475D02*
X270644533Y-123441713D01*
X158190476Y-125654819D02*
X158190476Y-124654819D01*
X158190476Y-124654819D02*
X158523809Y-125369104D01*
X158523809Y-125369104D02*
X158857142Y-124654819D01*
X158857142Y-124654819D02*
X158857142Y-125654819D01*
X159761904Y-124988152D02*
X159761904Y-125654819D01*
X159523809Y-124607200D02*
X159285714Y-125321485D01*
X159285714Y-125321485D02*
X159904761Y-125321485D01*
X281487475Y-146756580D02*
X281439856Y-146804200D01*
X281439856Y-146804200D02*
X281296999Y-146851819D01*
X281296999Y-146851819D02*
X281201761Y-146851819D01*
X281201761Y-146851819D02*
X281058904Y-146804200D01*
X281058904Y-146804200D02*
X280963666Y-146708961D01*
X280963666Y-146708961D02*
X280916047Y-146613723D01*
X280916047Y-146613723D02*
X280868428Y-146423247D01*
X280868428Y-146423247D02*
X280868428Y-146280390D01*
X280868428Y-146280390D02*
X280916047Y-146089914D01*
X280916047Y-146089914D02*
X280963666Y-145994676D01*
X280963666Y-145994676D02*
X281058904Y-145899438D01*
X281058904Y-145899438D02*
X281201761Y-145851819D01*
X281201761Y-145851819D02*
X281296999Y-145851819D01*
X281296999Y-145851819D02*
X281439856Y-145899438D01*
X281439856Y-145899438D02*
X281487475Y-145947057D01*
X282106523Y-145851819D02*
X282296999Y-145851819D01*
X282296999Y-145851819D02*
X282392237Y-145899438D01*
X282392237Y-145899438D02*
X282487475Y-145994676D01*
X282487475Y-145994676D02*
X282535094Y-146185152D01*
X282535094Y-146185152D02*
X282535094Y-146518485D01*
X282535094Y-146518485D02*
X282487475Y-146708961D01*
X282487475Y-146708961D02*
X282392237Y-146804200D01*
X282392237Y-146804200D02*
X282296999Y-146851819D01*
X282296999Y-146851819D02*
X282106523Y-146851819D01*
X282106523Y-146851819D02*
X282011285Y-146804200D01*
X282011285Y-146804200D02*
X281916047Y-146708961D01*
X281916047Y-146708961D02*
X281868428Y-146518485D01*
X281868428Y-146518485D02*
X281868428Y-146185152D01*
X281868428Y-146185152D02*
X281916047Y-145994676D01*
X281916047Y-145994676D02*
X282011285Y-145899438D01*
X282011285Y-145899438D02*
X282106523Y-145851819D01*
X282963666Y-146851819D02*
X282963666Y-145851819D01*
X282963666Y-145851819D02*
X283296999Y-146566104D01*
X283296999Y-146566104D02*
X283630332Y-145851819D01*
X283630332Y-145851819D02*
X283630332Y-146851819D01*
X283868428Y-146947057D02*
X284630332Y-146947057D01*
X284820809Y-146804200D02*
X284963666Y-146851819D01*
X284963666Y-146851819D02*
X285201761Y-146851819D01*
X285201761Y-146851819D02*
X285296999Y-146804200D01*
X285296999Y-146804200D02*
X285344618Y-146756580D01*
X285344618Y-146756580D02*
X285392237Y-146661342D01*
X285392237Y-146661342D02*
X285392237Y-146566104D01*
X285392237Y-146566104D02*
X285344618Y-146470866D01*
X285344618Y-146470866D02*
X285296999Y-146423247D01*
X285296999Y-146423247D02*
X285201761Y-146375628D01*
X285201761Y-146375628D02*
X285011285Y-146328009D01*
X285011285Y-146328009D02*
X284916047Y-146280390D01*
X284916047Y-146280390D02*
X284868428Y-146232771D01*
X284868428Y-146232771D02*
X284820809Y-146137533D01*
X284820809Y-146137533D02*
X284820809Y-146042295D01*
X284820809Y-146042295D02*
X284868428Y-145947057D01*
X284868428Y-145947057D02*
X284916047Y-145899438D01*
X284916047Y-145899438D02*
X285011285Y-145851819D01*
X285011285Y-145851819D02*
X285249380Y-145851819D01*
X285249380Y-145851819D02*
X285392237Y-145899438D01*
X285820809Y-146328009D02*
X286154142Y-146328009D01*
X286296999Y-146851819D02*
X285820809Y-146851819D01*
X285820809Y-146851819D02*
X285820809Y-145851819D01*
X285820809Y-145851819D02*
X286296999Y-145851819D01*
X287201761Y-146851819D02*
X286725571Y-146851819D01*
X286725571Y-146851819D02*
X286725571Y-145851819D01*
X287535095Y-146328009D02*
X287868428Y-146328009D01*
X288011285Y-146851819D02*
X287535095Y-146851819D01*
X287535095Y-146851819D02*
X287535095Y-145851819D01*
X287535095Y-145851819D02*
X288011285Y-145851819D01*
X289011285Y-146756580D02*
X288963666Y-146804200D01*
X288963666Y-146804200D02*
X288820809Y-146851819D01*
X288820809Y-146851819D02*
X288725571Y-146851819D01*
X288725571Y-146851819D02*
X288582714Y-146804200D01*
X288582714Y-146804200D02*
X288487476Y-146708961D01*
X288487476Y-146708961D02*
X288439857Y-146613723D01*
X288439857Y-146613723D02*
X288392238Y-146423247D01*
X288392238Y-146423247D02*
X288392238Y-146280390D01*
X288392238Y-146280390D02*
X288439857Y-146089914D01*
X288439857Y-146089914D02*
X288487476Y-145994676D01*
X288487476Y-145994676D02*
X288582714Y-145899438D01*
X288582714Y-145899438D02*
X288725571Y-145851819D01*
X288725571Y-145851819D02*
X288820809Y-145851819D01*
X288820809Y-145851819D02*
X288963666Y-145899438D01*
X288963666Y-145899438D02*
X289011285Y-145947057D01*
X289297000Y-145851819D02*
X289868428Y-145851819D01*
X289582714Y-146851819D02*
X289582714Y-145851819D01*
X290725571Y-146851819D02*
X290154143Y-146851819D01*
X290439857Y-146851819D02*
X290439857Y-145851819D01*
X290439857Y-145851819D02*
X290344619Y-145994676D01*
X290344619Y-145994676D02*
X290249381Y-146089914D01*
X290249381Y-146089914D02*
X290154143Y-146137533D01*
X288781523Y-148626819D02*
X288448190Y-148150628D01*
X288210095Y-148626819D02*
X288210095Y-147626819D01*
X288210095Y-147626819D02*
X288591047Y-147626819D01*
X288591047Y-147626819D02*
X288686285Y-147674438D01*
X288686285Y-147674438D02*
X288733904Y-147722057D01*
X288733904Y-147722057D02*
X288781523Y-147817295D01*
X288781523Y-147817295D02*
X288781523Y-147960152D01*
X288781523Y-147960152D02*
X288733904Y-148055390D01*
X288733904Y-148055390D02*
X288686285Y-148103009D01*
X288686285Y-148103009D02*
X288591047Y-148150628D01*
X288591047Y-148150628D02*
X288210095Y-148150628D01*
X282031523Y-148626819D02*
X281555333Y-148626819D01*
X281555333Y-148626819D02*
X281555333Y-147626819D01*
X262365905Y-175649200D02*
X262508762Y-175696819D01*
X262508762Y-175696819D02*
X262746857Y-175696819D01*
X262746857Y-175696819D02*
X262842095Y-175649200D01*
X262842095Y-175649200D02*
X262889714Y-175601580D01*
X262889714Y-175601580D02*
X262937333Y-175506342D01*
X262937333Y-175506342D02*
X262937333Y-175411104D01*
X262937333Y-175411104D02*
X262889714Y-175315866D01*
X262889714Y-175315866D02*
X262842095Y-175268247D01*
X262842095Y-175268247D02*
X262746857Y-175220628D01*
X262746857Y-175220628D02*
X262556381Y-175173009D01*
X262556381Y-175173009D02*
X262461143Y-175125390D01*
X262461143Y-175125390D02*
X262413524Y-175077771D01*
X262413524Y-175077771D02*
X262365905Y-174982533D01*
X262365905Y-174982533D02*
X262365905Y-174887295D01*
X262365905Y-174887295D02*
X262413524Y-174792057D01*
X262413524Y-174792057D02*
X262461143Y-174744438D01*
X262461143Y-174744438D02*
X262556381Y-174696819D01*
X262556381Y-174696819D02*
X262794476Y-174696819D01*
X262794476Y-174696819D02*
X262937333Y-174744438D01*
X263318286Y-174792057D02*
X263365905Y-174744438D01*
X263365905Y-174744438D02*
X263461143Y-174696819D01*
X263461143Y-174696819D02*
X263699238Y-174696819D01*
X263699238Y-174696819D02*
X263794476Y-174744438D01*
X263794476Y-174744438D02*
X263842095Y-174792057D01*
X263842095Y-174792057D02*
X263889714Y-174887295D01*
X263889714Y-174887295D02*
X263889714Y-174982533D01*
X263889714Y-174982533D02*
X263842095Y-175125390D01*
X263842095Y-175125390D02*
X263270667Y-175696819D01*
X263270667Y-175696819D02*
X263889714Y-175696819D01*
X264461143Y-175125390D02*
X264365905Y-175077771D01*
X264365905Y-175077771D02*
X264318286Y-175030152D01*
X264318286Y-175030152D02*
X264270667Y-174934914D01*
X264270667Y-174934914D02*
X264270667Y-174887295D01*
X264270667Y-174887295D02*
X264318286Y-174792057D01*
X264318286Y-174792057D02*
X264365905Y-174744438D01*
X264365905Y-174744438D02*
X264461143Y-174696819D01*
X264461143Y-174696819D02*
X264651619Y-174696819D01*
X264651619Y-174696819D02*
X264746857Y-174744438D01*
X264746857Y-174744438D02*
X264794476Y-174792057D01*
X264794476Y-174792057D02*
X264842095Y-174887295D01*
X264842095Y-174887295D02*
X264842095Y-174934914D01*
X264842095Y-174934914D02*
X264794476Y-175030152D01*
X264794476Y-175030152D02*
X264746857Y-175077771D01*
X264746857Y-175077771D02*
X264651619Y-175125390D01*
X264651619Y-175125390D02*
X264461143Y-175125390D01*
X264461143Y-175125390D02*
X264365905Y-175173009D01*
X264365905Y-175173009D02*
X264318286Y-175220628D01*
X264318286Y-175220628D02*
X264270667Y-175315866D01*
X264270667Y-175315866D02*
X264270667Y-175506342D01*
X264270667Y-175506342D02*
X264318286Y-175601580D01*
X264318286Y-175601580D02*
X264365905Y-175649200D01*
X264365905Y-175649200D02*
X264461143Y-175696819D01*
X264461143Y-175696819D02*
X264651619Y-175696819D01*
X264651619Y-175696819D02*
X264746857Y-175649200D01*
X264746857Y-175649200D02*
X264794476Y-175601580D01*
X264794476Y-175601580D02*
X264842095Y-175506342D01*
X264842095Y-175506342D02*
X264842095Y-175315866D01*
X264842095Y-175315866D02*
X264794476Y-175220628D01*
X264794476Y-175220628D02*
X264746857Y-175173009D01*
X264746857Y-175173009D02*
X264651619Y-175125390D01*
X275591819Y-106163952D02*
X275115628Y-106497285D01*
X275591819Y-106735380D02*
X274591819Y-106735380D01*
X274591819Y-106735380D02*
X274591819Y-106354428D01*
X274591819Y-106354428D02*
X274639438Y-106259190D01*
X274639438Y-106259190D02*
X274687057Y-106211571D01*
X274687057Y-106211571D02*
X274782295Y-106163952D01*
X274782295Y-106163952D02*
X274925152Y-106163952D01*
X274925152Y-106163952D02*
X275020390Y-106211571D01*
X275020390Y-106211571D02*
X275068009Y-106259190D01*
X275068009Y-106259190D02*
X275115628Y-106354428D01*
X275115628Y-106354428D02*
X275115628Y-106735380D01*
X274591819Y-105830618D02*
X275591819Y-105163952D01*
X274591819Y-105163952D02*
X275591819Y-105830618D01*
X275591819Y-104782999D02*
X274591819Y-104782999D01*
X274687057Y-104354428D02*
X274639438Y-104306809D01*
X274639438Y-104306809D02*
X274591819Y-104211571D01*
X274591819Y-104211571D02*
X274591819Y-103973476D01*
X274591819Y-103973476D02*
X274639438Y-103878238D01*
X274639438Y-103878238D02*
X274687057Y-103830619D01*
X274687057Y-103830619D02*
X274782295Y-103783000D01*
X274782295Y-103783000D02*
X274877533Y-103783000D01*
X274877533Y-103783000D02*
X275020390Y-103830619D01*
X275020390Y-103830619D02*
X275591819Y-104402047D01*
X275591819Y-104402047D02*
X275591819Y-103783000D01*
X277366819Y-102298476D02*
X276890628Y-102631809D01*
X277366819Y-102869904D02*
X276366819Y-102869904D01*
X276366819Y-102869904D02*
X276366819Y-102488952D01*
X276366819Y-102488952D02*
X276414438Y-102393714D01*
X276414438Y-102393714D02*
X276462057Y-102346095D01*
X276462057Y-102346095D02*
X276557295Y-102298476D01*
X276557295Y-102298476D02*
X276700152Y-102298476D01*
X276700152Y-102298476D02*
X276795390Y-102346095D01*
X276795390Y-102346095D02*
X276843009Y-102393714D01*
X276843009Y-102393714D02*
X276890628Y-102488952D01*
X276890628Y-102488952D02*
X276890628Y-102869904D01*
X277366819Y-109048476D02*
X277366819Y-109524666D01*
X277366819Y-109524666D02*
X276366819Y-109524666D01*
X128694405Y-156649200D02*
X128837262Y-156696819D01*
X128837262Y-156696819D02*
X129075357Y-156696819D01*
X129075357Y-156696819D02*
X129170595Y-156649200D01*
X129170595Y-156649200D02*
X129218214Y-156601580D01*
X129218214Y-156601580D02*
X129265833Y-156506342D01*
X129265833Y-156506342D02*
X129265833Y-156411104D01*
X129265833Y-156411104D02*
X129218214Y-156315866D01*
X129218214Y-156315866D02*
X129170595Y-156268247D01*
X129170595Y-156268247D02*
X129075357Y-156220628D01*
X129075357Y-156220628D02*
X128884881Y-156173009D01*
X128884881Y-156173009D02*
X128789643Y-156125390D01*
X128789643Y-156125390D02*
X128742024Y-156077771D01*
X128742024Y-156077771D02*
X128694405Y-155982533D01*
X128694405Y-155982533D02*
X128694405Y-155887295D01*
X128694405Y-155887295D02*
X128742024Y-155792057D01*
X128742024Y-155792057D02*
X128789643Y-155744438D01*
X128789643Y-155744438D02*
X128884881Y-155696819D01*
X128884881Y-155696819D02*
X129122976Y-155696819D01*
X129122976Y-155696819D02*
X129265833Y-155744438D01*
X130218214Y-156696819D02*
X129646786Y-156696819D01*
X129932500Y-156696819D02*
X129932500Y-155696819D01*
X129932500Y-155696819D02*
X129837262Y-155839676D01*
X129837262Y-155839676D02*
X129742024Y-155934914D01*
X129742024Y-155934914D02*
X129646786Y-155982533D01*
X131122976Y-155696819D02*
X130646786Y-155696819D01*
X130646786Y-155696819D02*
X130599167Y-156173009D01*
X130599167Y-156173009D02*
X130646786Y-156125390D01*
X130646786Y-156125390D02*
X130742024Y-156077771D01*
X130742024Y-156077771D02*
X130980119Y-156077771D01*
X130980119Y-156077771D02*
X131075357Y-156125390D01*
X131075357Y-156125390D02*
X131122976Y-156173009D01*
X131122976Y-156173009D02*
X131170595Y-156268247D01*
X131170595Y-156268247D02*
X131170595Y-156506342D01*
X131170595Y-156506342D02*
X131122976Y-156601580D01*
X131122976Y-156601580D02*
X131075357Y-156649200D01*
X131075357Y-156649200D02*
X130980119Y-156696819D01*
X130980119Y-156696819D02*
X130742024Y-156696819D01*
X130742024Y-156696819D02*
X130646786Y-156649200D01*
X130646786Y-156649200D02*
X130599167Y-156601580D01*
X133456905Y-175649200D02*
X133599762Y-175696819D01*
X133599762Y-175696819D02*
X133837857Y-175696819D01*
X133837857Y-175696819D02*
X133933095Y-175649200D01*
X133933095Y-175649200D02*
X133980714Y-175601580D01*
X133980714Y-175601580D02*
X134028333Y-175506342D01*
X134028333Y-175506342D02*
X134028333Y-175411104D01*
X134028333Y-175411104D02*
X133980714Y-175315866D01*
X133980714Y-175315866D02*
X133933095Y-175268247D01*
X133933095Y-175268247D02*
X133837857Y-175220628D01*
X133837857Y-175220628D02*
X133647381Y-175173009D01*
X133647381Y-175173009D02*
X133552143Y-175125390D01*
X133552143Y-175125390D02*
X133504524Y-175077771D01*
X133504524Y-175077771D02*
X133456905Y-174982533D01*
X133456905Y-174982533D02*
X133456905Y-174887295D01*
X133456905Y-174887295D02*
X133504524Y-174792057D01*
X133504524Y-174792057D02*
X133552143Y-174744438D01*
X133552143Y-174744438D02*
X133647381Y-174696819D01*
X133647381Y-174696819D02*
X133885476Y-174696819D01*
X133885476Y-174696819D02*
X134028333Y-174744438D01*
X134409286Y-174792057D02*
X134456905Y-174744438D01*
X134456905Y-174744438D02*
X134552143Y-174696819D01*
X134552143Y-174696819D02*
X134790238Y-174696819D01*
X134790238Y-174696819D02*
X134885476Y-174744438D01*
X134885476Y-174744438D02*
X134933095Y-174792057D01*
X134933095Y-174792057D02*
X134980714Y-174887295D01*
X134980714Y-174887295D02*
X134980714Y-174982533D01*
X134980714Y-174982533D02*
X134933095Y-175125390D01*
X134933095Y-175125390D02*
X134361667Y-175696819D01*
X134361667Y-175696819D02*
X134980714Y-175696819D01*
X135361667Y-174792057D02*
X135409286Y-174744438D01*
X135409286Y-174744438D02*
X135504524Y-174696819D01*
X135504524Y-174696819D02*
X135742619Y-174696819D01*
X135742619Y-174696819D02*
X135837857Y-174744438D01*
X135837857Y-174744438D02*
X135885476Y-174792057D01*
X135885476Y-174792057D02*
X135933095Y-174887295D01*
X135933095Y-174887295D02*
X135933095Y-174982533D01*
X135933095Y-174982533D02*
X135885476Y-175125390D01*
X135885476Y-175125390D02*
X135314048Y-175696819D01*
X135314048Y-175696819D02*
X135933095Y-175696819D01*
X214840905Y-156649200D02*
X214983762Y-156696819D01*
X214983762Y-156696819D02*
X215221857Y-156696819D01*
X215221857Y-156696819D02*
X215317095Y-156649200D01*
X215317095Y-156649200D02*
X215364714Y-156601580D01*
X215364714Y-156601580D02*
X215412333Y-156506342D01*
X215412333Y-156506342D02*
X215412333Y-156411104D01*
X215412333Y-156411104D02*
X215364714Y-156315866D01*
X215364714Y-156315866D02*
X215317095Y-156268247D01*
X215317095Y-156268247D02*
X215221857Y-156220628D01*
X215221857Y-156220628D02*
X215031381Y-156173009D01*
X215031381Y-156173009D02*
X214936143Y-156125390D01*
X214936143Y-156125390D02*
X214888524Y-156077771D01*
X214888524Y-156077771D02*
X214840905Y-155982533D01*
X214840905Y-155982533D02*
X214840905Y-155887295D01*
X214840905Y-155887295D02*
X214888524Y-155792057D01*
X214888524Y-155792057D02*
X214936143Y-155744438D01*
X214936143Y-155744438D02*
X215031381Y-155696819D01*
X215031381Y-155696819D02*
X215269476Y-155696819D01*
X215269476Y-155696819D02*
X215412333Y-155744438D01*
X216364714Y-156696819D02*
X215793286Y-156696819D01*
X216079000Y-156696819D02*
X216079000Y-155696819D01*
X216079000Y-155696819D02*
X215983762Y-155839676D01*
X215983762Y-155839676D02*
X215888524Y-155934914D01*
X215888524Y-155934914D02*
X215793286Y-155982533D01*
X216840905Y-156696819D02*
X217031381Y-156696819D01*
X217031381Y-156696819D02*
X217126619Y-156649200D01*
X217126619Y-156649200D02*
X217174238Y-156601580D01*
X217174238Y-156601580D02*
X217269476Y-156458723D01*
X217269476Y-156458723D02*
X217317095Y-156268247D01*
X217317095Y-156268247D02*
X217317095Y-155887295D01*
X217317095Y-155887295D02*
X217269476Y-155792057D01*
X217269476Y-155792057D02*
X217221857Y-155744438D01*
X217221857Y-155744438D02*
X217126619Y-155696819D01*
X217126619Y-155696819D02*
X216936143Y-155696819D01*
X216936143Y-155696819D02*
X216840905Y-155744438D01*
X216840905Y-155744438D02*
X216793286Y-155792057D01*
X216793286Y-155792057D02*
X216745667Y-155887295D01*
X216745667Y-155887295D02*
X216745667Y-156125390D01*
X216745667Y-156125390D02*
X216793286Y-156220628D01*
X216793286Y-156220628D02*
X216840905Y-156268247D01*
X216840905Y-156268247D02*
X216936143Y-156315866D01*
X216936143Y-156315866D02*
X217126619Y-156315866D01*
X217126619Y-156315866D02*
X217221857Y-156268247D01*
X217221857Y-156268247D02*
X217269476Y-156220628D01*
X217269476Y-156220628D02*
X217317095Y-156125390D01*
X148792095Y-137649200D02*
X148934952Y-137696819D01*
X148934952Y-137696819D02*
X149173047Y-137696819D01*
X149173047Y-137696819D02*
X149268285Y-137649200D01*
X149268285Y-137649200D02*
X149315904Y-137601580D01*
X149315904Y-137601580D02*
X149363523Y-137506342D01*
X149363523Y-137506342D02*
X149363523Y-137411104D01*
X149363523Y-137411104D02*
X149315904Y-137315866D01*
X149315904Y-137315866D02*
X149268285Y-137268247D01*
X149268285Y-137268247D02*
X149173047Y-137220628D01*
X149173047Y-137220628D02*
X148982571Y-137173009D01*
X148982571Y-137173009D02*
X148887333Y-137125390D01*
X148887333Y-137125390D02*
X148839714Y-137077771D01*
X148839714Y-137077771D02*
X148792095Y-136982533D01*
X148792095Y-136982533D02*
X148792095Y-136887295D01*
X148792095Y-136887295D02*
X148839714Y-136792057D01*
X148839714Y-136792057D02*
X148887333Y-136744438D01*
X148887333Y-136744438D02*
X148982571Y-136696819D01*
X148982571Y-136696819D02*
X149220666Y-136696819D01*
X149220666Y-136696819D02*
X149363523Y-136744438D01*
X149839714Y-137696819D02*
X150030190Y-137696819D01*
X150030190Y-137696819D02*
X150125428Y-137649200D01*
X150125428Y-137649200D02*
X150173047Y-137601580D01*
X150173047Y-137601580D02*
X150268285Y-137458723D01*
X150268285Y-137458723D02*
X150315904Y-137268247D01*
X150315904Y-137268247D02*
X150315904Y-136887295D01*
X150315904Y-136887295D02*
X150268285Y-136792057D01*
X150268285Y-136792057D02*
X150220666Y-136744438D01*
X150220666Y-136744438D02*
X150125428Y-136696819D01*
X150125428Y-136696819D02*
X149934952Y-136696819D01*
X149934952Y-136696819D02*
X149839714Y-136744438D01*
X149839714Y-136744438D02*
X149792095Y-136792057D01*
X149792095Y-136792057D02*
X149744476Y-136887295D01*
X149744476Y-136887295D02*
X149744476Y-137125390D01*
X149744476Y-137125390D02*
X149792095Y-137220628D01*
X149792095Y-137220628D02*
X149839714Y-137268247D01*
X149839714Y-137268247D02*
X149934952Y-137315866D01*
X149934952Y-137315866D02*
X150125428Y-137315866D01*
X150125428Y-137315866D02*
X150220666Y-137268247D01*
X150220666Y-137268247D02*
X150268285Y-137220628D01*
X150268285Y-137220628D02*
X150315904Y-137125390D01*
X283970819Y-102298476D02*
X283494628Y-102631809D01*
X283970819Y-102869904D02*
X282970819Y-102869904D01*
X282970819Y-102869904D02*
X282970819Y-102488952D01*
X282970819Y-102488952D02*
X283018438Y-102393714D01*
X283018438Y-102393714D02*
X283066057Y-102346095D01*
X283066057Y-102346095D02*
X283161295Y-102298476D01*
X283161295Y-102298476D02*
X283304152Y-102298476D01*
X283304152Y-102298476D02*
X283399390Y-102346095D01*
X283399390Y-102346095D02*
X283447009Y-102393714D01*
X283447009Y-102393714D02*
X283494628Y-102488952D01*
X283494628Y-102488952D02*
X283494628Y-102869904D01*
X283970819Y-109048476D02*
X283970819Y-109524666D01*
X283970819Y-109524666D02*
X282970819Y-109524666D01*
X224315905Y-137649200D02*
X224458762Y-137696819D01*
X224458762Y-137696819D02*
X224696857Y-137696819D01*
X224696857Y-137696819D02*
X224792095Y-137649200D01*
X224792095Y-137649200D02*
X224839714Y-137601580D01*
X224839714Y-137601580D02*
X224887333Y-137506342D01*
X224887333Y-137506342D02*
X224887333Y-137411104D01*
X224887333Y-137411104D02*
X224839714Y-137315866D01*
X224839714Y-137315866D02*
X224792095Y-137268247D01*
X224792095Y-137268247D02*
X224696857Y-137220628D01*
X224696857Y-137220628D02*
X224506381Y-137173009D01*
X224506381Y-137173009D02*
X224411143Y-137125390D01*
X224411143Y-137125390D02*
X224363524Y-137077771D01*
X224363524Y-137077771D02*
X224315905Y-136982533D01*
X224315905Y-136982533D02*
X224315905Y-136887295D01*
X224315905Y-136887295D02*
X224363524Y-136792057D01*
X224363524Y-136792057D02*
X224411143Y-136744438D01*
X224411143Y-136744438D02*
X224506381Y-136696819D01*
X224506381Y-136696819D02*
X224744476Y-136696819D01*
X224744476Y-136696819D02*
X224887333Y-136744438D01*
X225839714Y-137696819D02*
X225268286Y-137696819D01*
X225554000Y-137696819D02*
X225554000Y-136696819D01*
X225554000Y-136696819D02*
X225458762Y-136839676D01*
X225458762Y-136839676D02*
X225363524Y-136934914D01*
X225363524Y-136934914D02*
X225268286Y-136982533D01*
X226173048Y-136696819D02*
X226792095Y-136696819D01*
X226792095Y-136696819D02*
X226458762Y-137077771D01*
X226458762Y-137077771D02*
X226601619Y-137077771D01*
X226601619Y-137077771D02*
X226696857Y-137125390D01*
X226696857Y-137125390D02*
X226744476Y-137173009D01*
X226744476Y-137173009D02*
X226792095Y-137268247D01*
X226792095Y-137268247D02*
X226792095Y-137506342D01*
X226792095Y-137506342D02*
X226744476Y-137601580D01*
X226744476Y-137601580D02*
X226696857Y-137649200D01*
X226696857Y-137649200D02*
X226601619Y-137696819D01*
X226601619Y-137696819D02*
X226315905Y-137696819D01*
X226315905Y-137696819D02*
X226220667Y-137649200D01*
X226220667Y-137649200D02*
X226173048Y-137601580D01*
X280668819Y-109048476D02*
X280668819Y-109524666D01*
X280668819Y-109524666D02*
X279668819Y-109524666D01*
X280668819Y-102298476D02*
X280192628Y-102631809D01*
X280668819Y-102869904D02*
X279668819Y-102869904D01*
X279668819Y-102869904D02*
X279668819Y-102488952D01*
X279668819Y-102488952D02*
X279716438Y-102393714D01*
X279716438Y-102393714D02*
X279764057Y-102346095D01*
X279764057Y-102346095D02*
X279859295Y-102298476D01*
X279859295Y-102298476D02*
X280002152Y-102298476D01*
X280002152Y-102298476D02*
X280097390Y-102346095D01*
X280097390Y-102346095D02*
X280145009Y-102393714D01*
X280145009Y-102393714D02*
X280192628Y-102488952D01*
X280192628Y-102488952D02*
X280192628Y-102869904D01*
X267348819Y-109476666D02*
X266872628Y-109809999D01*
X267348819Y-110048094D02*
X266348819Y-110048094D01*
X266348819Y-110048094D02*
X266348819Y-109667142D01*
X266348819Y-109667142D02*
X266396438Y-109571904D01*
X266396438Y-109571904D02*
X266444057Y-109524285D01*
X266444057Y-109524285D02*
X266539295Y-109476666D01*
X266539295Y-109476666D02*
X266682152Y-109476666D01*
X266682152Y-109476666D02*
X266777390Y-109524285D01*
X266777390Y-109524285D02*
X266825009Y-109571904D01*
X266825009Y-109571904D02*
X266872628Y-109667142D01*
X266872628Y-109667142D02*
X266872628Y-110048094D01*
X266444057Y-109095713D02*
X266396438Y-109048094D01*
X266396438Y-109048094D02*
X266348819Y-108952856D01*
X266348819Y-108952856D02*
X266348819Y-108714761D01*
X266348819Y-108714761D02*
X266396438Y-108619523D01*
X266396438Y-108619523D02*
X266444057Y-108571904D01*
X266444057Y-108571904D02*
X266539295Y-108524285D01*
X266539295Y-108524285D02*
X266634533Y-108524285D01*
X266634533Y-108524285D02*
X266777390Y-108571904D01*
X266777390Y-108571904D02*
X267348819Y-109143332D01*
X267348819Y-109143332D02*
X267348819Y-108524285D01*
X167315905Y-137649200D02*
X167458762Y-137696819D01*
X167458762Y-137696819D02*
X167696857Y-137696819D01*
X167696857Y-137696819D02*
X167792095Y-137649200D01*
X167792095Y-137649200D02*
X167839714Y-137601580D01*
X167839714Y-137601580D02*
X167887333Y-137506342D01*
X167887333Y-137506342D02*
X167887333Y-137411104D01*
X167887333Y-137411104D02*
X167839714Y-137315866D01*
X167839714Y-137315866D02*
X167792095Y-137268247D01*
X167792095Y-137268247D02*
X167696857Y-137220628D01*
X167696857Y-137220628D02*
X167506381Y-137173009D01*
X167506381Y-137173009D02*
X167411143Y-137125390D01*
X167411143Y-137125390D02*
X167363524Y-137077771D01*
X167363524Y-137077771D02*
X167315905Y-136982533D01*
X167315905Y-136982533D02*
X167315905Y-136887295D01*
X167315905Y-136887295D02*
X167363524Y-136792057D01*
X167363524Y-136792057D02*
X167411143Y-136744438D01*
X167411143Y-136744438D02*
X167506381Y-136696819D01*
X167506381Y-136696819D02*
X167744476Y-136696819D01*
X167744476Y-136696819D02*
X167887333Y-136744438D01*
X168839714Y-137696819D02*
X168268286Y-137696819D01*
X168554000Y-137696819D02*
X168554000Y-136696819D01*
X168554000Y-136696819D02*
X168458762Y-136839676D01*
X168458762Y-136839676D02*
X168363524Y-136934914D01*
X168363524Y-136934914D02*
X168268286Y-136982533D01*
X169458762Y-136696819D02*
X169554000Y-136696819D01*
X169554000Y-136696819D02*
X169649238Y-136744438D01*
X169649238Y-136744438D02*
X169696857Y-136792057D01*
X169696857Y-136792057D02*
X169744476Y-136887295D01*
X169744476Y-136887295D02*
X169792095Y-137077771D01*
X169792095Y-137077771D02*
X169792095Y-137315866D01*
X169792095Y-137315866D02*
X169744476Y-137506342D01*
X169744476Y-137506342D02*
X169696857Y-137601580D01*
X169696857Y-137601580D02*
X169649238Y-137649200D01*
X169649238Y-137649200D02*
X169554000Y-137696819D01*
X169554000Y-137696819D02*
X169458762Y-137696819D01*
X169458762Y-137696819D02*
X169363524Y-137649200D01*
X169363524Y-137649200D02*
X169315905Y-137601580D01*
X169315905Y-137601580D02*
X169268286Y-137506342D01*
X169268286Y-137506342D02*
X169220667Y-137315866D01*
X169220667Y-137315866D02*
X169220667Y-137077771D01*
X169220667Y-137077771D02*
X169268286Y-136887295D01*
X169268286Y-136887295D02*
X169315905Y-136792057D01*
X169315905Y-136792057D02*
X169363524Y-136744438D01*
X169363524Y-136744438D02*
X169458762Y-136696819D01*
X163103405Y-194649200D02*
X163246262Y-194696819D01*
X163246262Y-194696819D02*
X163484357Y-194696819D01*
X163484357Y-194696819D02*
X163579595Y-194649200D01*
X163579595Y-194649200D02*
X163627214Y-194601580D01*
X163627214Y-194601580D02*
X163674833Y-194506342D01*
X163674833Y-194506342D02*
X163674833Y-194411104D01*
X163674833Y-194411104D02*
X163627214Y-194315866D01*
X163627214Y-194315866D02*
X163579595Y-194268247D01*
X163579595Y-194268247D02*
X163484357Y-194220628D01*
X163484357Y-194220628D02*
X163293881Y-194173009D01*
X163293881Y-194173009D02*
X163198643Y-194125390D01*
X163198643Y-194125390D02*
X163151024Y-194077771D01*
X163151024Y-194077771D02*
X163103405Y-193982533D01*
X163103405Y-193982533D02*
X163103405Y-193887295D01*
X163103405Y-193887295D02*
X163151024Y-193792057D01*
X163151024Y-193792057D02*
X163198643Y-193744438D01*
X163198643Y-193744438D02*
X163293881Y-193696819D01*
X163293881Y-193696819D02*
X163531976Y-193696819D01*
X163531976Y-193696819D02*
X163674833Y-193744438D01*
X164008167Y-193696819D02*
X164627214Y-193696819D01*
X164627214Y-193696819D02*
X164293881Y-194077771D01*
X164293881Y-194077771D02*
X164436738Y-194077771D01*
X164436738Y-194077771D02*
X164531976Y-194125390D01*
X164531976Y-194125390D02*
X164579595Y-194173009D01*
X164579595Y-194173009D02*
X164627214Y-194268247D01*
X164627214Y-194268247D02*
X164627214Y-194506342D01*
X164627214Y-194506342D02*
X164579595Y-194601580D01*
X164579595Y-194601580D02*
X164531976Y-194649200D01*
X164531976Y-194649200D02*
X164436738Y-194696819D01*
X164436738Y-194696819D02*
X164151024Y-194696819D01*
X164151024Y-194696819D02*
X164055786Y-194649200D01*
X164055786Y-194649200D02*
X164008167Y-194601580D01*
X165246262Y-193696819D02*
X165341500Y-193696819D01*
X165341500Y-193696819D02*
X165436738Y-193744438D01*
X165436738Y-193744438D02*
X165484357Y-193792057D01*
X165484357Y-193792057D02*
X165531976Y-193887295D01*
X165531976Y-193887295D02*
X165579595Y-194077771D01*
X165579595Y-194077771D02*
X165579595Y-194315866D01*
X165579595Y-194315866D02*
X165531976Y-194506342D01*
X165531976Y-194506342D02*
X165484357Y-194601580D01*
X165484357Y-194601580D02*
X165436738Y-194649200D01*
X165436738Y-194649200D02*
X165341500Y-194696819D01*
X165341500Y-194696819D02*
X165246262Y-194696819D01*
X165246262Y-194696819D02*
X165151024Y-194649200D01*
X165151024Y-194649200D02*
X165103405Y-194601580D01*
X165103405Y-194601580D02*
X165055786Y-194506342D01*
X165055786Y-194506342D02*
X165008167Y-194315866D01*
X165008167Y-194315866D02*
X165008167Y-194077771D01*
X165008167Y-194077771D02*
X165055786Y-193887295D01*
X165055786Y-193887295D02*
X165103405Y-193792057D01*
X165103405Y-193792057D02*
X165151024Y-193744438D01*
X165151024Y-193744438D02*
X165246262Y-193696819D01*
%TO.C,S33*%
X245907500Y-102352000D02*
X246907500Y-102352000D01*
X245907500Y-103352000D02*
X245907500Y-102352000D01*
X245907500Y-116352000D02*
X245907500Y-115352000D01*
X246907500Y-116352000D02*
X245907500Y-116352000D01*
X250907500Y-113552000D02*
X251407500Y-113052000D01*
X250907500Y-117052000D02*
X251407500Y-117552000D01*
X251407500Y-113052000D02*
X253907500Y-113052000D01*
X251407500Y-117552000D02*
X254407500Y-117552000D01*
X254407500Y-117552000D02*
X254907500Y-117052000D01*
X254907500Y-116052000D02*
X254907500Y-117052000D01*
X255407500Y-110852000D02*
X259907500Y-110852000D01*
X255407500Y-111552000D02*
X255407500Y-110852000D01*
X258907500Y-102352000D02*
X259907500Y-102352000D01*
X259907500Y-102352000D02*
X259907500Y-103352000D01*
X259907500Y-110852000D02*
X259907500Y-111352000D01*
X259907500Y-114952000D02*
X259907500Y-115552000D01*
X259907500Y-115352000D02*
X259907500Y-116352000D01*
X259907500Y-115552000D02*
X255407500Y-115552000D01*
X259907500Y-116352000D02*
X258907500Y-116352000D01*
X254907500Y-116052000D02*
G75*
G02*
X255407500Y-115552000I500001J-1D01*
G01*
X255407500Y-111552000D02*
G75*
G02*
X253907500Y-113052000I-1500001J1D01*
G01*
D14*
%TO.C,R3*%
X266340000Y-108914000D02*
X266340000Y-112754000D01*
X266340000Y-112754000D02*
X268180000Y-112754000D01*
X267260000Y-107964000D02*
X267260000Y-108914000D01*
X267260000Y-113704000D02*
X267260000Y-112754000D01*
X268180000Y-108914000D02*
X266340000Y-108914000D01*
X268180000Y-112754000D02*
X268180000Y-108914000D01*
D12*
%TO.C,D26*%
X234752000Y-175458000D02*
X235352000Y-175858000D01*
X234752000Y-175858000D02*
X234252000Y-175858000D01*
X234752000Y-176258000D02*
X234752000Y-175458000D01*
X235352000Y-175858000D02*
X234752000Y-176258000D01*
X235352000Y-175858000D02*
X235352000Y-175308000D01*
X235352000Y-175858000D02*
X235352000Y-176408000D01*
X235752000Y-175858000D02*
X235352000Y-175858000D01*
%TO.C,D24*%
X195264000Y-176112000D02*
X195664000Y-176112000D01*
X195664000Y-176112000D02*
X195664000Y-175562000D01*
X195664000Y-176112000D02*
X195664000Y-176662000D01*
X195664000Y-176112000D02*
X196264000Y-175712000D01*
X196264000Y-175712000D02*
X196264000Y-176512000D01*
X196264000Y-176112000D02*
X196764000Y-176112000D01*
X196264000Y-176512000D02*
X195664000Y-176112000D01*
D11*
%TO.C,S31*%
X181725500Y-178352000D02*
X182725500Y-178352000D01*
X181725500Y-179352000D02*
X181725500Y-178352000D01*
X181725500Y-192352000D02*
X181725500Y-191352000D01*
X182725500Y-192352000D02*
X181725500Y-192352000D01*
X186725500Y-189552000D02*
X187225500Y-189052000D01*
X186725500Y-193052000D02*
X187225500Y-193552000D01*
X187225500Y-189052000D02*
X189725500Y-189052000D01*
X187225500Y-193552000D02*
X190225500Y-193552000D01*
X190225500Y-193552000D02*
X190725500Y-193052000D01*
X190725500Y-192052000D02*
X190725500Y-193052000D01*
X191225500Y-186852000D02*
X195725500Y-186852000D01*
X191225500Y-187552000D02*
X191225500Y-186852000D01*
X194725500Y-178352000D02*
X195725500Y-178352000D01*
X195725500Y-178352000D02*
X195725500Y-179352000D01*
X195725500Y-186852000D02*
X195725500Y-187352000D01*
X195725500Y-190952000D02*
X195725500Y-191552000D01*
X195725500Y-191352000D02*
X195725500Y-192352000D01*
X195725500Y-191552000D02*
X191225500Y-191552000D01*
X195725500Y-192352000D02*
X194725500Y-192352000D01*
X190725500Y-192052000D02*
G75*
G02*
X191225500Y-191552000I500001J-1D01*
G01*
X191225500Y-187552000D02*
G75*
G02*
X189725500Y-189052000I-1500001J1D01*
G01*
%TO.C,S8*%
X118170000Y-121352000D02*
X119170000Y-121352000D01*
X118170000Y-122352000D02*
X118170000Y-121352000D01*
X118170000Y-135352000D02*
X118170000Y-134352000D01*
X119170000Y-135352000D02*
X118170000Y-135352000D01*
X123170000Y-132552000D02*
X123670000Y-132052000D01*
X123170000Y-136052000D02*
X123670000Y-136552000D01*
X123670000Y-132052000D02*
X126170000Y-132052000D01*
X123670000Y-136552000D02*
X126670000Y-136552000D01*
X126670000Y-136552000D02*
X127170000Y-136052000D01*
X127170000Y-135052000D02*
X127170000Y-136052000D01*
X127670000Y-129852000D02*
X132170000Y-129852000D01*
X127670000Y-130552000D02*
X127670000Y-129852000D01*
X131170000Y-121352000D02*
X132170000Y-121352000D01*
X132170000Y-121352000D02*
X132170000Y-122352000D01*
X132170000Y-129852000D02*
X132170000Y-130352000D01*
X132170000Y-133952000D02*
X132170000Y-134552000D01*
X132170000Y-134352000D02*
X132170000Y-135352000D01*
X132170000Y-134552000D02*
X127670000Y-134552000D01*
X132170000Y-135352000D02*
X131170000Y-135352000D01*
X127170000Y-135052000D02*
G75*
G02*
X127670000Y-134552000I500001J-1D01*
G01*
X127670000Y-130552000D02*
G75*
G02*
X126170000Y-132052000I-1500001J1D01*
G01*
D12*
%TO.C,D6*%
X224846000Y-118308000D02*
X225446000Y-118708000D01*
X224846000Y-118708000D02*
X224346000Y-118708000D01*
X224846000Y-119108000D02*
X224846000Y-118308000D01*
X225446000Y-118708000D02*
X224846000Y-119108000D01*
X225446000Y-118708000D02*
X225446000Y-118158000D01*
X225446000Y-118708000D02*
X225446000Y-119258000D01*
X225846000Y-118708000D02*
X225446000Y-118708000D01*
%TO.C,D33*%
X258500000Y-118054000D02*
X259100000Y-118454000D01*
X258500000Y-118454000D02*
X258000000Y-118454000D01*
X258500000Y-118854000D02*
X258500000Y-118054000D01*
X259100000Y-118454000D02*
X258500000Y-118854000D01*
X259100000Y-118454000D02*
X259100000Y-117904000D01*
X259100000Y-118454000D02*
X259100000Y-119004000D01*
X259500000Y-118454000D02*
X259100000Y-118454000D01*
%TO.C,D9*%
X159314000Y-137612000D02*
X159914000Y-138012000D01*
X159314000Y-138012000D02*
X158814000Y-138012000D01*
X159314000Y-138412000D02*
X159314000Y-137612000D01*
X159914000Y-138012000D02*
X159314000Y-138412000D01*
X159914000Y-138012000D02*
X159914000Y-137462000D01*
X159914000Y-138012000D02*
X159914000Y-138562000D01*
X160314000Y-138012000D02*
X159914000Y-138012000D01*
%TO.C,D16*%
X168458000Y-155900000D02*
X169058000Y-156300000D01*
X168458000Y-156300000D02*
X167958000Y-156300000D01*
X168458000Y-156700000D02*
X168458000Y-155900000D01*
X169058000Y-156300000D02*
X168458000Y-156700000D01*
X169058000Y-156300000D02*
X169058000Y-155750000D01*
X169058000Y-156300000D02*
X169058000Y-156850000D01*
X169458000Y-156300000D02*
X169058000Y-156300000D01*
%TO.C,D10*%
X177602000Y-137358000D02*
X178202000Y-137758000D01*
X177602000Y-137758000D02*
X177102000Y-137758000D01*
X177602000Y-138158000D02*
X177602000Y-137358000D01*
X178202000Y-137758000D02*
X177602000Y-138158000D01*
X178202000Y-137758000D02*
X178202000Y-137208000D01*
X178202000Y-137758000D02*
X178202000Y-138308000D01*
X178602000Y-137758000D02*
X178202000Y-137758000D01*
D11*
%TO.C,S20*%
X228079000Y-140352000D02*
X229079000Y-140352000D01*
X228079000Y-141352000D02*
X228079000Y-140352000D01*
X228079000Y-154352000D02*
X228079000Y-153352000D01*
X229079000Y-154352000D02*
X228079000Y-154352000D01*
X233079000Y-151552000D02*
X233579000Y-151052000D01*
X233079000Y-155052000D02*
X233579000Y-155552000D01*
X233579000Y-151052000D02*
X236079000Y-151052000D01*
X233579000Y-155552000D02*
X236579000Y-155552000D01*
X236579000Y-155552000D02*
X237079000Y-155052000D01*
X237079000Y-154052000D02*
X237079000Y-155052000D01*
X237579000Y-148852000D02*
X242079000Y-148852000D01*
X237579000Y-149552000D02*
X237579000Y-148852000D01*
X241079000Y-140352000D02*
X242079000Y-140352000D01*
X242079000Y-140352000D02*
X242079000Y-141352000D01*
X242079000Y-148852000D02*
X242079000Y-149352000D01*
X242079000Y-152952000D02*
X242079000Y-153552000D01*
X242079000Y-153352000D02*
X242079000Y-154352000D01*
X242079000Y-153552000D02*
X237579000Y-153552000D01*
X242079000Y-154352000D02*
X241079000Y-154352000D01*
X237079000Y-154052000D02*
G75*
G02*
X237579000Y-153552000I500001J-1D01*
G01*
X237579000Y-149552000D02*
G75*
G02*
X236079000Y-151052000I-1500001J1D01*
G01*
%TO.C,S11*%
X180554000Y-121352000D02*
X181554000Y-121352000D01*
X180554000Y-122352000D02*
X180554000Y-121352000D01*
X180554000Y-135352000D02*
X180554000Y-134352000D01*
X181554000Y-135352000D02*
X180554000Y-135352000D01*
X185554000Y-132552000D02*
X186054000Y-132052000D01*
X185554000Y-136052000D02*
X186054000Y-136552000D01*
X186054000Y-132052000D02*
X188554000Y-132052000D01*
X186054000Y-136552000D02*
X189054000Y-136552000D01*
X189054000Y-136552000D02*
X189554000Y-136052000D01*
X189554000Y-135052000D02*
X189554000Y-136052000D01*
X190054000Y-129852000D02*
X194554000Y-129852000D01*
X190054000Y-130552000D02*
X190054000Y-129852000D01*
X193554000Y-121352000D02*
X194554000Y-121352000D01*
X194554000Y-121352000D02*
X194554000Y-122352000D01*
X194554000Y-129852000D02*
X194554000Y-130352000D01*
X194554000Y-133952000D02*
X194554000Y-134552000D01*
X194554000Y-134352000D02*
X194554000Y-135352000D01*
X194554000Y-134552000D02*
X190054000Y-134552000D01*
X194554000Y-135352000D02*
X193554000Y-135352000D01*
X189554000Y-135052000D02*
G75*
G02*
X190054000Y-134552000I500001J-1D01*
G01*
X190054000Y-130552000D02*
G75*
G02*
X188554000Y-132052000I-1500001J1D01*
G01*
D14*
%TO.C,J2*%
X278375500Y-189548000D02*
X278375500Y-190148000D01*
X278375500Y-190148000D02*
X278975500Y-189848000D01*
X278865500Y-187238000D02*
X287285500Y-187238000D01*
X278865500Y-188458000D02*
X278865500Y-187238000D01*
X278865500Y-193738000D02*
X281065500Y-193738000D01*
X278865500Y-194958000D02*
X278865500Y-193738000D01*
X278975500Y-189848000D02*
X278375500Y-189548000D01*
X281065500Y-188458000D02*
X278865500Y-188458000D01*
X281065500Y-188458000D02*
X281065500Y-187238000D01*
X281065500Y-191018000D02*
X281065500Y-191178000D01*
X281065500Y-193738000D02*
X281065500Y-194958000D01*
X282065500Y-188458000D02*
X282065500Y-193738000D01*
X282065500Y-189528000D02*
X285485500Y-189528000D01*
X282065500Y-189848000D02*
X282065500Y-189528000D01*
X282065500Y-190168000D02*
X282065500Y-189848000D01*
X282065500Y-192028000D02*
X285485500Y-192028000D01*
X282065500Y-192348000D02*
X282065500Y-192028000D01*
X282065500Y-192668000D02*
X282065500Y-192348000D01*
X285485500Y-189528000D02*
X285565500Y-189848000D01*
X285485500Y-190168000D02*
X282065500Y-190168000D01*
X285485500Y-192028000D02*
X285565500Y-192348000D01*
X285485500Y-192668000D02*
X282065500Y-192668000D01*
X285565500Y-189848000D02*
X285485500Y-190168000D01*
X285565500Y-192348000D02*
X285485500Y-192668000D01*
X286065500Y-187238000D02*
X286065500Y-188458000D01*
X286065500Y-188458000D02*
X281065500Y-188458000D01*
X286065500Y-193738000D02*
X281065500Y-193738000D01*
X286065500Y-194958000D02*
X286065500Y-193738000D01*
X287285500Y-187238000D02*
X287285500Y-194958000D01*
X287285500Y-194958000D02*
X278865500Y-194958000D01*
D12*
%TO.C,D23*%
X165284000Y-175712000D02*
X165884000Y-176112000D01*
X165284000Y-176112000D02*
X164784000Y-176112000D01*
X165284000Y-176512000D02*
X165284000Y-175712000D01*
X165884000Y-176112000D02*
X165284000Y-176512000D01*
X165884000Y-176112000D02*
X165884000Y-175562000D01*
X165884000Y-176112000D02*
X165884000Y-176662000D01*
X166284000Y-176112000D02*
X165884000Y-176112000D01*
%TO.C,D7*%
X246182000Y-117546000D02*
X246782000Y-117946000D01*
X246182000Y-117946000D02*
X245682000Y-117946000D01*
X246182000Y-118346000D02*
X246182000Y-117546000D01*
X246782000Y-117946000D02*
X246182000Y-118346000D01*
X246782000Y-117946000D02*
X246782000Y-117396000D01*
X246782000Y-117946000D02*
X246782000Y-118496000D01*
X247182000Y-117946000D02*
X246782000Y-117946000D01*
D11*
%TO.C,S6*%
X207907500Y-102352000D02*
X208907500Y-102352000D01*
X207907500Y-103352000D02*
X207907500Y-102352000D01*
X207907500Y-116352000D02*
X207907500Y-115352000D01*
X208907500Y-116352000D02*
X207907500Y-116352000D01*
X212907500Y-113552000D02*
X213407500Y-113052000D01*
X212907500Y-117052000D02*
X213407500Y-117552000D01*
X213407500Y-113052000D02*
X215907500Y-113052000D01*
X213407500Y-117552000D02*
X216407500Y-117552000D01*
X216407500Y-117552000D02*
X216907500Y-117052000D01*
X216907500Y-116052000D02*
X216907500Y-117052000D01*
X217407500Y-110852000D02*
X221907500Y-110852000D01*
X217407500Y-111552000D02*
X217407500Y-110852000D01*
X220907500Y-102352000D02*
X221907500Y-102352000D01*
X221907500Y-102352000D02*
X221907500Y-103352000D01*
X221907500Y-110852000D02*
X221907500Y-111352000D01*
X221907500Y-114952000D02*
X221907500Y-115552000D01*
X221907500Y-115352000D02*
X221907500Y-116352000D01*
X221907500Y-115552000D02*
X217407500Y-115552000D01*
X221907500Y-116352000D02*
X220907500Y-116352000D01*
X216907500Y-116052000D02*
G75*
G02*
X217407500Y-115552000I500001J-1D01*
G01*
X217407500Y-111552000D02*
G75*
G02*
X215907500Y-113052000I-1500001J1D01*
G01*
%TO.C,U2*%
D12*
X257570000Y-183986000D02*
X284570000Y-183986000D01*
X284570000Y-211786000D01*
X257570000Y-211786000D01*
X257570000Y-183986000D01*
X257570000Y-183986000D02*
X284570000Y-183986000D01*
X284570000Y-211786000D01*
X257570000Y-211786000D01*
X257570000Y-183986000D01*
X257570000Y-187986000D02*
X284570000Y-187986000D01*
X284570000Y-203286000D01*
X257570000Y-203286000D01*
X257570000Y-187986000D01*
X260570000Y-185986000D02*
G75*
G02*
X258570000Y-185986000I-1000000J0D01*
G01*
X258570000Y-185986000D02*
G75*
G02*
X260570000Y-185986000I1000000J0D01*
G01*
X260570000Y-209786000D02*
G75*
G02*
X258570000Y-209786000I-1000000J0D01*
G01*
X258570000Y-209786000D02*
G75*
G02*
X260570000Y-209786000I1000000J0D01*
G01*
X283570000Y-185986000D02*
G75*
G02*
X281570000Y-185986000I-1000000J0D01*
G01*
X281570000Y-185986000D02*
G75*
G02*
X283570000Y-185986000I1000000J0D01*
G01*
X283570000Y-209786000D02*
G75*
G02*
X281570000Y-209786000I-1000000J0D01*
G01*
X281570000Y-209786000D02*
G75*
G02*
X283570000Y-209786000I1000000J0D01*
G01*
D14*
%TO.C,VCC1*%
X283074000Y-111386000D02*
X285024000Y-111386000D01*
X283074000Y-116886000D02*
X283074000Y-111386000D01*
X285024000Y-111386000D02*
X285024000Y-116886000D01*
X285024000Y-116886000D02*
X283074000Y-116886000D01*
D11*
%TO.C,S35*%
X112907500Y-83800000D02*
X113907500Y-83800000D01*
X112907500Y-84800000D02*
X112907500Y-83800000D01*
X112907500Y-97800000D02*
X112907500Y-96800000D01*
X113907500Y-97800000D02*
X112907500Y-97800000D01*
X117907500Y-95000000D02*
X118407500Y-94500000D01*
X117907500Y-98500000D02*
X118407500Y-99000000D01*
X118407500Y-94500000D02*
X120907500Y-94500000D01*
X118407500Y-99000000D02*
X121407500Y-99000000D01*
X121407500Y-99000000D02*
X121907500Y-98500000D01*
X121907500Y-97500000D02*
X121907500Y-98500000D01*
X122407500Y-92300000D02*
X126907500Y-92300000D01*
X122407500Y-93000000D02*
X122407500Y-92300000D01*
X125907500Y-83800000D02*
X126907500Y-83800000D01*
X126907500Y-83800000D02*
X126907500Y-84800000D01*
X126907500Y-92300000D02*
X126907500Y-92800000D01*
X126907500Y-96400000D02*
X126907500Y-97000000D01*
X126907500Y-96800000D02*
X126907500Y-97800000D01*
X126907500Y-97000000D02*
X122407500Y-97000000D01*
X126907500Y-97800000D02*
X125907500Y-97800000D01*
X121907500Y-97500000D02*
G75*
G02*
X122407500Y-97000000I500001J-1D01*
G01*
X122407500Y-93000000D02*
G75*
G02*
X120907500Y-94500000I-1500001J1D01*
G01*
%TO.C,S4*%
X169907500Y-102352000D02*
X170907500Y-102352000D01*
X169907500Y-103352000D02*
X169907500Y-102352000D01*
X169907500Y-116352000D02*
X169907500Y-115352000D01*
X170907500Y-116352000D02*
X169907500Y-116352000D01*
X174907500Y-113552000D02*
X175407500Y-113052000D01*
X174907500Y-117052000D02*
X175407500Y-117552000D01*
X175407500Y-113052000D02*
X177907500Y-113052000D01*
X175407500Y-117552000D02*
X178407500Y-117552000D01*
X178407500Y-117552000D02*
X178907500Y-117052000D01*
X178907500Y-116052000D02*
X178907500Y-117052000D01*
X179407500Y-110852000D02*
X183907500Y-110852000D01*
X179407500Y-111552000D02*
X179407500Y-110852000D01*
X182907500Y-102352000D02*
X183907500Y-102352000D01*
X183907500Y-102352000D02*
X183907500Y-103352000D01*
X183907500Y-110852000D02*
X183907500Y-111352000D01*
X183907500Y-114952000D02*
X183907500Y-115552000D01*
X183907500Y-115352000D02*
X183907500Y-116352000D01*
X183907500Y-115552000D02*
X179407500Y-115552000D01*
X183907500Y-116352000D02*
X182907500Y-116352000D01*
X178907500Y-116052000D02*
G75*
G02*
X179407500Y-115552000I500001J-1D01*
G01*
X179407500Y-111552000D02*
G75*
G02*
X177907500Y-113052000I-1500001J1D01*
G01*
%TO.C,S3*%
X150907500Y-102352000D02*
X151907500Y-102352000D01*
X150907500Y-103352000D02*
X150907500Y-102352000D01*
X150907500Y-116352000D02*
X150907500Y-115352000D01*
X151907500Y-116352000D02*
X150907500Y-116352000D01*
X155907500Y-113552000D02*
X156407500Y-113052000D01*
X155907500Y-117052000D02*
X156407500Y-117552000D01*
X156407500Y-113052000D02*
X158907500Y-113052000D01*
X156407500Y-117552000D02*
X159407500Y-117552000D01*
X159407500Y-117552000D02*
X159907500Y-117052000D01*
X159907500Y-116052000D02*
X159907500Y-117052000D01*
X160407500Y-110852000D02*
X164907500Y-110852000D01*
X160407500Y-111552000D02*
X160407500Y-110852000D01*
X163907500Y-102352000D02*
X164907500Y-102352000D01*
X164907500Y-102352000D02*
X164907500Y-103352000D01*
X164907500Y-110852000D02*
X164907500Y-111352000D01*
X164907500Y-114952000D02*
X164907500Y-115552000D01*
X164907500Y-115352000D02*
X164907500Y-116352000D01*
X164907500Y-115552000D02*
X160407500Y-115552000D01*
X164907500Y-116352000D02*
X163907500Y-116352000D01*
X159907500Y-116052000D02*
G75*
G02*
X160407500Y-115552000I500001J-1D01*
G01*
X160407500Y-111552000D02*
G75*
G02*
X158907500Y-113052000I-1500001J1D01*
G01*
D12*
%TO.C,D15*%
X150100000Y-156408000D02*
X150700000Y-156808000D01*
X150100000Y-156808000D02*
X149600000Y-156808000D01*
X150100000Y-157208000D02*
X150100000Y-156408000D01*
X150700000Y-156808000D02*
X150100000Y-157208000D01*
X150700000Y-156808000D02*
X150700000Y-156258000D01*
X150700000Y-156808000D02*
X150700000Y-157358000D01*
X151100000Y-156808000D02*
X150700000Y-156808000D01*
D14*
%TO.C,GND1*%
X276674000Y-111100000D02*
X278624000Y-111100000D01*
X276674000Y-116600000D02*
X276674000Y-111100000D01*
X278624000Y-111100000D02*
X278624000Y-116600000D01*
X278624000Y-116600000D02*
X276674000Y-116600000D01*
%TO.C,GND2*%
X271908000Y-100436000D02*
X277408000Y-100436000D01*
X271908000Y-102386000D02*
X271908000Y-100436000D01*
X277408000Y-100436000D02*
X277408000Y-102386000D01*
X277408000Y-102386000D02*
X271908000Y-102386000D01*
%TO.C,RXI1*%
X285310000Y-105982000D02*
X287260000Y-105982000D01*
X285310000Y-111482000D02*
X285310000Y-105982000D01*
X287260000Y-105982000D02*
X287260000Y-111482000D01*
X287260000Y-111482000D02*
X285310000Y-111482000D01*
D11*
%TO.C,S5*%
X188907500Y-102352000D02*
X189907500Y-102352000D01*
X188907500Y-103352000D02*
X188907500Y-102352000D01*
X188907500Y-116352000D02*
X188907500Y-115352000D01*
X189907500Y-116352000D02*
X188907500Y-116352000D01*
X193907500Y-113552000D02*
X194407500Y-113052000D01*
X193907500Y-117052000D02*
X194407500Y-117552000D01*
X194407500Y-113052000D02*
X196907500Y-113052000D01*
X194407500Y-117552000D02*
X197407500Y-117552000D01*
X197407500Y-117552000D02*
X197907500Y-117052000D01*
X197907500Y-116052000D02*
X197907500Y-117052000D01*
X198407500Y-110852000D02*
X202907500Y-110852000D01*
X198407500Y-111552000D02*
X198407500Y-110852000D01*
X201907500Y-102352000D02*
X202907500Y-102352000D01*
X202907500Y-102352000D02*
X202907500Y-103352000D01*
X202907500Y-110852000D02*
X202907500Y-111352000D01*
X202907500Y-114952000D02*
X202907500Y-115552000D01*
X202907500Y-115352000D02*
X202907500Y-116352000D01*
X202907500Y-115552000D02*
X198407500Y-115552000D01*
X202907500Y-116352000D02*
X201907500Y-116352000D01*
X197907500Y-116052000D02*
G75*
G02*
X198407500Y-115552000I500001J-1D01*
G01*
X198407500Y-111552000D02*
G75*
G02*
X196907500Y-113052000I-1500001J1D01*
G01*
D12*
%TO.C,D4*%
X187126000Y-118054000D02*
X187726000Y-118454000D01*
X187126000Y-118454000D02*
X186626000Y-118454000D01*
X187126000Y-118854000D02*
X187126000Y-118054000D01*
X187726000Y-118454000D02*
X187126000Y-118854000D01*
X187726000Y-118454000D02*
X187726000Y-117904000D01*
X187726000Y-118454000D02*
X187726000Y-119004000D01*
X188126000Y-118454000D02*
X187726000Y-118454000D01*
%TO.C,D5*%
X205668000Y-118562000D02*
X206268000Y-118962000D01*
X205668000Y-118962000D02*
X205168000Y-118962000D01*
X205668000Y-119362000D02*
X205668000Y-118562000D01*
X206268000Y-118962000D02*
X205668000Y-119362000D01*
X206268000Y-118962000D02*
X206268000Y-118412000D01*
X206268000Y-118962000D02*
X206268000Y-119512000D01*
X206668000Y-118962000D02*
X206268000Y-118962000D01*
D11*
%TO.C,S25*%
X199604000Y-159352000D02*
X200604000Y-159352000D01*
X199604000Y-160352000D02*
X199604000Y-159352000D01*
X199604000Y-173352000D02*
X199604000Y-172352000D01*
X200604000Y-173352000D02*
X199604000Y-173352000D01*
X204604000Y-170552000D02*
X205104000Y-170052000D01*
X204604000Y-174052000D02*
X205104000Y-174552000D01*
X205104000Y-170052000D02*
X207604000Y-170052000D01*
X205104000Y-174552000D02*
X208104000Y-174552000D01*
X208104000Y-174552000D02*
X208604000Y-174052000D01*
X208604000Y-173052000D02*
X208604000Y-174052000D01*
X209104000Y-167852000D02*
X213604000Y-167852000D01*
X209104000Y-168552000D02*
X209104000Y-167852000D01*
X212604000Y-159352000D02*
X213604000Y-159352000D01*
X213604000Y-159352000D02*
X213604000Y-160352000D01*
X213604000Y-167852000D02*
X213604000Y-168352000D01*
X213604000Y-171952000D02*
X213604000Y-172552000D01*
X213604000Y-172352000D02*
X213604000Y-173352000D01*
X213604000Y-172552000D02*
X209104000Y-172552000D01*
X213604000Y-173352000D02*
X212604000Y-173352000D01*
X208604000Y-173052000D02*
G75*
G02*
X209104000Y-172552000I500001J-1D01*
G01*
X209104000Y-168552000D02*
G75*
G02*
X207604000Y-170052000I-1500001J1D01*
G01*
D14*
%TO.C,SCL1*%
X277182000Y-127896000D02*
X279132000Y-127896000D01*
X277182000Y-133396000D02*
X277182000Y-127896000D01*
X279132000Y-127896000D02*
X279132000Y-133396000D01*
X279132000Y-133396000D02*
X277182000Y-133396000D01*
D11*
%TO.C,S7*%
X226907500Y-102352000D02*
X227907500Y-102352000D01*
X226907500Y-103352000D02*
X226907500Y-102352000D01*
X226907500Y-116352000D02*
X226907500Y-115352000D01*
X227907500Y-116352000D02*
X226907500Y-116352000D01*
X231907500Y-113552000D02*
X232407500Y-113052000D01*
X231907500Y-117052000D02*
X232407500Y-117552000D01*
X232407500Y-113052000D02*
X234907500Y-113052000D01*
X232407500Y-117552000D02*
X235407500Y-117552000D01*
X235407500Y-117552000D02*
X235907500Y-117052000D01*
X235907500Y-116052000D02*
X235907500Y-117052000D01*
X236407500Y-110852000D02*
X240907500Y-110852000D01*
X236407500Y-111552000D02*
X236407500Y-110852000D01*
X239907500Y-102352000D02*
X240907500Y-102352000D01*
X240907500Y-102352000D02*
X240907500Y-103352000D01*
X240907500Y-110852000D02*
X240907500Y-111352000D01*
X240907500Y-114952000D02*
X240907500Y-115552000D01*
X240907500Y-115352000D02*
X240907500Y-116352000D01*
X240907500Y-115552000D02*
X236407500Y-115552000D01*
X240907500Y-116352000D02*
X239907500Y-116352000D01*
X235907500Y-116052000D02*
G75*
G02*
X236407500Y-115552000I500001J-1D01*
G01*
X236407500Y-111552000D02*
G75*
G02*
X234907500Y-113052000I-1500001J1D01*
G01*
%TO.C,S1*%
X112907500Y-102352000D02*
X113907500Y-102352000D01*
X112907500Y-103352000D02*
X112907500Y-102352000D01*
X112907500Y-116352000D02*
X112907500Y-115352000D01*
X113907500Y-116352000D02*
X112907500Y-116352000D01*
X117907500Y-113552000D02*
X118407500Y-113052000D01*
X117907500Y-117052000D02*
X118407500Y-117552000D01*
X118407500Y-113052000D02*
X120907500Y-113052000D01*
X118407500Y-117552000D02*
X121407500Y-117552000D01*
X121407500Y-117552000D02*
X121907500Y-117052000D01*
X121907500Y-116052000D02*
X121907500Y-117052000D01*
X122407500Y-110852000D02*
X126907500Y-110852000D01*
X122407500Y-111552000D02*
X122407500Y-110852000D01*
X125907500Y-102352000D02*
X126907500Y-102352000D01*
X126907500Y-102352000D02*
X126907500Y-103352000D01*
X126907500Y-110852000D02*
X126907500Y-111352000D01*
X126907500Y-114952000D02*
X126907500Y-115552000D01*
X126907500Y-115352000D02*
X126907500Y-116352000D01*
X126907500Y-115552000D02*
X122407500Y-115552000D01*
X126907500Y-116352000D02*
X125907500Y-116352000D01*
X121907500Y-116052000D02*
G75*
G02*
X122407500Y-115552000I500001J-1D01*
G01*
X122407500Y-111552000D02*
G75*
G02*
X120907500Y-113052000I-1500001J1D01*
G01*
D14*
%TO.C,Bat+1*%
X284608000Y-100436000D02*
X290108000Y-100436000D01*
X284608000Y-102386000D02*
X284608000Y-100436000D01*
X290108000Y-100436000D02*
X290108000Y-102386000D01*
X290108000Y-102386000D02*
X284608000Y-102386000D01*
D12*
%TO.C,D30*%
X154846000Y-176362000D02*
X155246000Y-175762000D01*
X155246000Y-175362000D02*
X155246000Y-175762000D01*
X155246000Y-175762000D02*
X154696000Y-175762000D01*
X155246000Y-175762000D02*
X155646000Y-176362000D01*
X155246000Y-175762000D02*
X155796000Y-175762000D01*
X155246000Y-176362000D02*
X155246000Y-176862000D01*
X155646000Y-176362000D02*
X154846000Y-176362000D01*
%TO.C,D28*%
X268288000Y-176366000D02*
X268688000Y-176366000D01*
X268688000Y-176366000D02*
X268688000Y-175816000D01*
X268688000Y-176366000D02*
X268688000Y-176916000D01*
X268688000Y-176366000D02*
X269288000Y-175966000D01*
X269288000Y-175966000D02*
X269288000Y-176766000D01*
X269288000Y-176366000D02*
X269788000Y-176366000D01*
X269288000Y-176766000D02*
X268688000Y-176366000D01*
D11*
%TO.C,S12*%
X199554000Y-121352000D02*
X200554000Y-121352000D01*
X199554000Y-122352000D02*
X199554000Y-121352000D01*
X199554000Y-135352000D02*
X199554000Y-134352000D01*
X200554000Y-135352000D02*
X199554000Y-135352000D01*
X204554000Y-132552000D02*
X205054000Y-132052000D01*
X204554000Y-136052000D02*
X205054000Y-136552000D01*
X205054000Y-132052000D02*
X207554000Y-132052000D01*
X205054000Y-136552000D02*
X208054000Y-136552000D01*
X208054000Y-136552000D02*
X208554000Y-136052000D01*
X208554000Y-135052000D02*
X208554000Y-136052000D01*
X209054000Y-129852000D02*
X213554000Y-129852000D01*
X209054000Y-130552000D02*
X209054000Y-129852000D01*
X212554000Y-121352000D02*
X213554000Y-121352000D01*
X213554000Y-121352000D02*
X213554000Y-122352000D01*
X213554000Y-129852000D02*
X213554000Y-130352000D01*
X213554000Y-133952000D02*
X213554000Y-134552000D01*
X213554000Y-134352000D02*
X213554000Y-135352000D01*
X213554000Y-134552000D02*
X209054000Y-134552000D01*
X213554000Y-135352000D02*
X212554000Y-135352000D01*
X208554000Y-135052000D02*
G75*
G02*
X209054000Y-134552000I500001J-1D01*
G01*
X209054000Y-130552000D02*
G75*
G02*
X207554000Y-132052000I-1500001J1D01*
G01*
%TO.C,S24*%
X180604000Y-159352000D02*
X181604000Y-159352000D01*
X180604000Y-160352000D02*
X180604000Y-159352000D01*
X180604000Y-173352000D02*
X180604000Y-172352000D01*
X181604000Y-173352000D02*
X180604000Y-173352000D01*
X185604000Y-170552000D02*
X186104000Y-170052000D01*
X185604000Y-174052000D02*
X186104000Y-174552000D01*
X186104000Y-170052000D02*
X188604000Y-170052000D01*
X186104000Y-174552000D02*
X189104000Y-174552000D01*
X189104000Y-174552000D02*
X189604000Y-174052000D01*
X189604000Y-173052000D02*
X189604000Y-174052000D01*
X190104000Y-167852000D02*
X194604000Y-167852000D01*
X190104000Y-168552000D02*
X190104000Y-167852000D01*
X193604000Y-159352000D02*
X194604000Y-159352000D01*
X194604000Y-159352000D02*
X194604000Y-160352000D01*
X194604000Y-167852000D02*
X194604000Y-168352000D01*
X194604000Y-171952000D02*
X194604000Y-172552000D01*
X194604000Y-172352000D02*
X194604000Y-173352000D01*
X194604000Y-172552000D02*
X190104000Y-172552000D01*
X194604000Y-173352000D02*
X193604000Y-173352000D01*
X189604000Y-173052000D02*
G75*
G02*
X190104000Y-172552000I500001J-1D01*
G01*
X190104000Y-168552000D02*
G75*
G02*
X188604000Y-170052000I-1500001J1D01*
G01*
D12*
%TO.C,D12*%
X216590000Y-137612000D02*
X217190000Y-138012000D01*
X216590000Y-138012000D02*
X216090000Y-138012000D01*
X216590000Y-138412000D02*
X216590000Y-137612000D01*
X217190000Y-138012000D02*
X216590000Y-138412000D01*
X217190000Y-138012000D02*
X217190000Y-137462000D01*
X217190000Y-138012000D02*
X217190000Y-138562000D01*
X217590000Y-138012000D02*
X217190000Y-138012000D01*
%TO.C,U1*%
X275896000Y-121375000D02*
X280976000Y-126455000D01*
X280976000Y-116295000D02*
X275896000Y-121375000D01*
X280976000Y-126455000D02*
X286056000Y-121375000D01*
X286056000Y-121375000D02*
X280976000Y-116295000D01*
X272086000Y-102325000D02*
X289866000Y-102325000D01*
X289866000Y-135345000D01*
X272086000Y-135345000D01*
X272086000Y-102325000D01*
X277166000Y-101055000D02*
X284786000Y-101055000D01*
X284786000Y-106135000D01*
X277166000Y-106135000D01*
X277166000Y-101055000D01*
%TO.C,D17*%
X188524000Y-156662000D02*
X189124000Y-157062000D01*
X188524000Y-157062000D02*
X188024000Y-157062000D01*
X188524000Y-157462000D02*
X188524000Y-156662000D01*
X189124000Y-157062000D02*
X188524000Y-157462000D01*
X189124000Y-157062000D02*
X189124000Y-156512000D01*
X189124000Y-157062000D02*
X189124000Y-157612000D01*
X189524000Y-157062000D02*
X189124000Y-157062000D01*
D14*
%TO.C,P3*%
X284344000Y-127896000D02*
X286294000Y-127896000D01*
X284344000Y-133396000D02*
X284344000Y-127896000D01*
X286294000Y-127896000D02*
X286294000Y-133396000D01*
X286294000Y-133396000D02*
X284344000Y-133396000D01*
D12*
%TO.C,D14*%
X256342000Y-136596000D02*
X256942000Y-136996000D01*
X256342000Y-136996000D02*
X255842000Y-136996000D01*
X256342000Y-137396000D02*
X256342000Y-136596000D01*
X256942000Y-136996000D02*
X256342000Y-137396000D01*
X256942000Y-136996000D02*
X256942000Y-136446000D01*
X256942000Y-136996000D02*
X256942000Y-137546000D01*
X257342000Y-136996000D02*
X256942000Y-136996000D01*
%TO.C,D20*%
X240856000Y-157062000D02*
X241256000Y-157062000D01*
X241256000Y-157062000D02*
X241256000Y-156512000D01*
X241256000Y-157062000D02*
X241256000Y-157612000D01*
X241256000Y-157062000D02*
X241856000Y-156662000D01*
X241856000Y-156662000D02*
X241856000Y-157462000D01*
X241856000Y-157062000D02*
X242356000Y-157062000D01*
X241856000Y-157462000D02*
X241256000Y-157062000D01*
%TO.C,D25*%
X206686000Y-177236000D02*
X207286000Y-177636000D01*
X206686000Y-177636000D02*
X206186000Y-177636000D01*
X206686000Y-178036000D02*
X206686000Y-177236000D01*
X207286000Y-177636000D02*
X206686000Y-178036000D01*
X207286000Y-177636000D02*
X207286000Y-177086000D01*
X207286000Y-177636000D02*
X207286000Y-178186000D01*
X207686000Y-177636000D02*
X207286000Y-177636000D01*
%TO.C,D22*%
X150900000Y-187600000D02*
X151500000Y-188000000D01*
X150900000Y-188000000D02*
X150400000Y-188000000D01*
X150900000Y-188400000D02*
X150900000Y-187600000D01*
X151500000Y-188000000D02*
X150900000Y-188400000D01*
X151500000Y-188000000D02*
X151500000Y-187450000D01*
X151500000Y-188000000D02*
X151500000Y-188550000D01*
X151900000Y-188000000D02*
X151500000Y-188000000D01*
D11*
%TO.C,S2*%
X131907500Y-102352000D02*
X132907500Y-102352000D01*
X131907500Y-103352000D02*
X131907500Y-102352000D01*
X131907500Y-116352000D02*
X131907500Y-115352000D01*
X132907500Y-116352000D02*
X131907500Y-116352000D01*
X136907500Y-113552000D02*
X137407500Y-113052000D01*
X136907500Y-117052000D02*
X137407500Y-117552000D01*
X137407500Y-113052000D02*
X139907500Y-113052000D01*
X137407500Y-117552000D02*
X140407500Y-117552000D01*
X140407500Y-117552000D02*
X140907500Y-117052000D01*
X140907500Y-116052000D02*
X140907500Y-117052000D01*
X141407500Y-110852000D02*
X145907500Y-110852000D01*
X141407500Y-111552000D02*
X141407500Y-110852000D01*
X144907500Y-102352000D02*
X145907500Y-102352000D01*
X145907500Y-102352000D02*
X145907500Y-103352000D01*
X145907500Y-110852000D02*
X145907500Y-111352000D01*
X145907500Y-114952000D02*
X145907500Y-115552000D01*
X145907500Y-115352000D02*
X145907500Y-116352000D01*
X145907500Y-115552000D02*
X141407500Y-115552000D01*
X145907500Y-116352000D02*
X144907500Y-116352000D01*
X140907500Y-116052000D02*
G75*
G02*
X141407500Y-115552000I500001J-1D01*
G01*
X141407500Y-111552000D02*
G75*
G02*
X139907500Y-113052000I-1500001J1D01*
G01*
D12*
%TO.C,D3*%
X167950000Y-118816000D02*
X168550000Y-119216000D01*
X167950000Y-119216000D02*
X167450000Y-119216000D01*
X167950000Y-119616000D02*
X167950000Y-118816000D01*
X168550000Y-119216000D02*
X167950000Y-119616000D01*
X168550000Y-119216000D02*
X168550000Y-118666000D01*
X168550000Y-119216000D02*
X168550000Y-119766000D01*
X168950000Y-119216000D02*
X168550000Y-119216000D01*
D11*
%TO.C,S16*%
X152079000Y-140352000D02*
X153079000Y-140352000D01*
X152079000Y-141352000D02*
X152079000Y-140352000D01*
X152079000Y-154352000D02*
X152079000Y-153352000D01*
X153079000Y-154352000D02*
X152079000Y-154352000D01*
X157079000Y-151552000D02*
X157579000Y-151052000D01*
X157079000Y-155052000D02*
X157579000Y-155552000D01*
X157579000Y-151052000D02*
X160079000Y-151052000D01*
X157579000Y-155552000D02*
X160579000Y-155552000D01*
X160579000Y-155552000D02*
X161079000Y-155052000D01*
X161079000Y-154052000D02*
X161079000Y-155052000D01*
X161579000Y-148852000D02*
X166079000Y-148852000D01*
X161579000Y-149552000D02*
X161579000Y-148852000D01*
X165079000Y-140352000D02*
X166079000Y-140352000D01*
X166079000Y-140352000D02*
X166079000Y-141352000D01*
X166079000Y-148852000D02*
X166079000Y-149352000D01*
X166079000Y-152952000D02*
X166079000Y-153552000D01*
X166079000Y-153352000D02*
X166079000Y-154352000D01*
X166079000Y-153552000D02*
X161579000Y-153552000D01*
X166079000Y-154352000D02*
X165079000Y-154352000D01*
X161079000Y-154052000D02*
G75*
G02*
X161579000Y-153552000I500001J-1D01*
G01*
X161579000Y-149552000D02*
G75*
G02*
X160079000Y-151052000I-1500001J1D01*
G01*
%TO.C,S21*%
X247079000Y-140352000D02*
X248079000Y-140352000D01*
X247079000Y-141352000D02*
X247079000Y-140352000D01*
X247079000Y-154352000D02*
X247079000Y-153352000D01*
X248079000Y-154352000D02*
X247079000Y-154352000D01*
X252079000Y-151552000D02*
X252579000Y-151052000D01*
X252079000Y-155052000D02*
X252579000Y-155552000D01*
X252579000Y-151052000D02*
X255079000Y-151052000D01*
X252579000Y-155552000D02*
X255579000Y-155552000D01*
X255579000Y-155552000D02*
X256079000Y-155052000D01*
X256079000Y-154052000D02*
X256079000Y-155052000D01*
X256579000Y-148852000D02*
X261079000Y-148852000D01*
X256579000Y-149552000D02*
X256579000Y-148852000D01*
X260079000Y-140352000D02*
X261079000Y-140352000D01*
X261079000Y-140352000D02*
X261079000Y-141352000D01*
X261079000Y-148852000D02*
X261079000Y-149352000D01*
X261079000Y-152952000D02*
X261079000Y-153552000D01*
X261079000Y-153352000D02*
X261079000Y-154352000D01*
X261079000Y-153552000D02*
X256579000Y-153552000D01*
X261079000Y-154352000D02*
X260079000Y-154352000D01*
X256079000Y-154052000D02*
G75*
G02*
X256579000Y-153552000I500001J-1D01*
G01*
X256579000Y-149552000D02*
G75*
G02*
X255079000Y-151052000I-1500001J1D01*
G01*
%TO.C,S26*%
X218604000Y-159352000D02*
X219604000Y-159352000D01*
X218604000Y-160352000D02*
X218604000Y-159352000D01*
X218604000Y-173352000D02*
X218604000Y-172352000D01*
X219604000Y-173352000D02*
X218604000Y-173352000D01*
X223604000Y-170552000D02*
X224104000Y-170052000D01*
X223604000Y-174052000D02*
X224104000Y-174552000D01*
X224104000Y-170052000D02*
X226604000Y-170052000D01*
X224104000Y-174552000D02*
X227104000Y-174552000D01*
X227104000Y-174552000D02*
X227604000Y-174052000D01*
X227604000Y-173052000D02*
X227604000Y-174052000D01*
X228104000Y-167852000D02*
X232604000Y-167852000D01*
X228104000Y-168552000D02*
X228104000Y-167852000D01*
X231604000Y-159352000D02*
X232604000Y-159352000D01*
X232604000Y-159352000D02*
X232604000Y-160352000D01*
X232604000Y-167852000D02*
X232604000Y-168352000D01*
X232604000Y-171952000D02*
X232604000Y-172552000D01*
X232604000Y-172352000D02*
X232604000Y-173352000D01*
X232604000Y-172552000D02*
X228104000Y-172552000D01*
X232604000Y-173352000D02*
X231604000Y-173352000D01*
X227604000Y-173052000D02*
G75*
G02*
X228104000Y-172552000I500001J-1D01*
G01*
X228104000Y-168552000D02*
G75*
G02*
X226604000Y-170052000I-1500001J1D01*
G01*
D12*
%TO.C,D21*%
X261684000Y-157316000D02*
X262084000Y-157316000D01*
X262084000Y-157316000D02*
X262084000Y-156766000D01*
X262084000Y-157316000D02*
X262084000Y-157866000D01*
X262084000Y-157316000D02*
X262684000Y-156916000D01*
X262684000Y-156916000D02*
X262684000Y-157716000D01*
X262684000Y-157316000D02*
X263184000Y-157316000D01*
X262684000Y-157716000D02*
X262084000Y-157316000D01*
D11*
%TO.C,S17*%
X171079000Y-140352000D02*
X172079000Y-140352000D01*
X171079000Y-141352000D02*
X171079000Y-140352000D01*
X171079000Y-154352000D02*
X171079000Y-153352000D01*
X172079000Y-154352000D02*
X171079000Y-154352000D01*
X176079000Y-151552000D02*
X176579000Y-151052000D01*
X176079000Y-155052000D02*
X176579000Y-155552000D01*
X176579000Y-151052000D02*
X179079000Y-151052000D01*
X176579000Y-155552000D02*
X179579000Y-155552000D01*
X179579000Y-155552000D02*
X180079000Y-155052000D01*
X180079000Y-154052000D02*
X180079000Y-155052000D01*
X180579000Y-148852000D02*
X185079000Y-148852000D01*
X180579000Y-149552000D02*
X180579000Y-148852000D01*
X184079000Y-140352000D02*
X185079000Y-140352000D01*
X185079000Y-140352000D02*
X185079000Y-141352000D01*
X185079000Y-148852000D02*
X185079000Y-149352000D01*
X185079000Y-152952000D02*
X185079000Y-153552000D01*
X185079000Y-153352000D02*
X185079000Y-154352000D01*
X185079000Y-153552000D02*
X180579000Y-153552000D01*
X185079000Y-154352000D02*
X184079000Y-154352000D01*
X180079000Y-154052000D02*
G75*
G02*
X180579000Y-153552000I500001J-1D01*
G01*
X180579000Y-149552000D02*
G75*
G02*
X179079000Y-151052000I-1500001J1D01*
G01*
D14*
%TO.C,P2*%
X284344000Y-119330000D02*
X286294000Y-119330000D01*
X284344000Y-124830000D02*
X284344000Y-119330000D01*
X286294000Y-119330000D02*
X286294000Y-124830000D01*
X286294000Y-124830000D02*
X284344000Y-124830000D01*
D11*
%TO.C,S18*%
X190079000Y-140352000D02*
X191079000Y-140352000D01*
X190079000Y-141352000D02*
X190079000Y-140352000D01*
X190079000Y-154352000D02*
X190079000Y-153352000D01*
X191079000Y-154352000D02*
X190079000Y-154352000D01*
X195079000Y-151552000D02*
X195579000Y-151052000D01*
X195079000Y-155052000D02*
X195579000Y-155552000D01*
X195579000Y-151052000D02*
X198079000Y-151052000D01*
X195579000Y-155552000D02*
X198579000Y-155552000D01*
X198579000Y-155552000D02*
X199079000Y-155052000D01*
X199079000Y-154052000D02*
X199079000Y-155052000D01*
X199579000Y-148852000D02*
X204079000Y-148852000D01*
X199579000Y-149552000D02*
X199579000Y-148852000D01*
X203079000Y-140352000D02*
X204079000Y-140352000D01*
X204079000Y-140352000D02*
X204079000Y-141352000D01*
X204079000Y-148852000D02*
X204079000Y-149352000D01*
X204079000Y-152952000D02*
X204079000Y-153552000D01*
X204079000Y-153352000D02*
X204079000Y-154352000D01*
X204079000Y-153552000D02*
X199579000Y-153552000D01*
X204079000Y-154352000D02*
X203079000Y-154352000D01*
X199079000Y-154052000D02*
G75*
G02*
X199579000Y-153552000I500001J-1D01*
G01*
X199579000Y-149552000D02*
G75*
G02*
X198079000Y-151052000I-1500001J1D01*
G01*
D14*
%TO.C,SDA1*%
X277182000Y-119260000D02*
X279132000Y-119260000D01*
X277182000Y-124760000D02*
X277182000Y-119260000D01*
X279132000Y-119260000D02*
X279132000Y-124760000D01*
X279132000Y-124760000D02*
X277182000Y-124760000D01*
D12*
%TO.C,D35*%
X128600000Y-101250000D02*
X129400000Y-101250000D01*
X129000000Y-101250000D02*
X129000000Y-100750000D01*
X129000000Y-101850000D02*
X128450000Y-101850000D01*
X129000000Y-101850000D02*
X128600000Y-101250000D01*
X129000000Y-101850000D02*
X129550000Y-101850000D01*
X129000000Y-102250000D02*
X129000000Y-101850000D01*
X129400000Y-101250000D02*
X129000000Y-101850000D01*
D11*
%TO.C,S32*%
X220275500Y-178352000D02*
X221275500Y-178352000D01*
X220275500Y-179352000D02*
X220275500Y-178352000D01*
X220275500Y-192352000D02*
X220275500Y-191352000D01*
X221275500Y-192352000D02*
X220275500Y-192352000D01*
X225275500Y-189552000D02*
X225775500Y-189052000D01*
X225275500Y-193052000D02*
X225775500Y-193552000D01*
X225775500Y-189052000D02*
X228275500Y-189052000D01*
X225775500Y-193552000D02*
X228775500Y-193552000D01*
X228775500Y-193552000D02*
X229275500Y-193052000D01*
X229275500Y-192052000D02*
X229275500Y-193052000D01*
X229775500Y-186852000D02*
X234275500Y-186852000D01*
X229775500Y-187552000D02*
X229775500Y-186852000D01*
X233275500Y-178352000D02*
X234275500Y-178352000D01*
X234275500Y-178352000D02*
X234275500Y-179352000D01*
X234275500Y-186852000D02*
X234275500Y-187352000D01*
X234275500Y-190952000D02*
X234275500Y-191552000D01*
X234275500Y-191352000D02*
X234275500Y-192352000D01*
X234275500Y-191552000D02*
X229775500Y-191552000D01*
X234275500Y-192352000D02*
X233275500Y-192352000D01*
X229275500Y-192052000D02*
G75*
G02*
X229775500Y-191552000I500001J-1D01*
G01*
X229775500Y-187552000D02*
G75*
G02*
X228275500Y-189052000I-1500001J1D01*
G01*
%TO.C,S29*%
X122932500Y-178352000D02*
X123932500Y-178352000D01*
X122932500Y-179352000D02*
X122932500Y-178352000D01*
X122932500Y-192352000D02*
X122932500Y-191352000D01*
X123932500Y-192352000D02*
X122932500Y-192352000D01*
X127932500Y-189552000D02*
X128432500Y-189052000D01*
X127932500Y-193052000D02*
X128432500Y-193552000D01*
X128432500Y-189052000D02*
X130932500Y-189052000D01*
X128432500Y-193552000D02*
X131432500Y-193552000D01*
X131432500Y-193552000D02*
X131932500Y-193052000D01*
X131932500Y-192052000D02*
X131932500Y-193052000D01*
X132432500Y-186852000D02*
X136932500Y-186852000D01*
X132432500Y-187552000D02*
X132432500Y-186852000D01*
X135932500Y-178352000D02*
X136932500Y-178352000D01*
X136932500Y-178352000D02*
X136932500Y-179352000D01*
X136932500Y-186852000D02*
X136932500Y-187352000D01*
X136932500Y-190952000D02*
X136932500Y-191552000D01*
X136932500Y-191352000D02*
X136932500Y-192352000D01*
X136932500Y-191552000D02*
X132432500Y-191552000D01*
X136932500Y-192352000D02*
X135932500Y-192352000D01*
X131932500Y-192052000D02*
G75*
G02*
X132432500Y-191552000I500001J-1D01*
G01*
X132432500Y-187552000D02*
G75*
G02*
X130932500Y-189052000I-1500001J1D01*
G01*
D12*
%TO.C,D31*%
X180530000Y-177128000D02*
X180930000Y-177128000D01*
X180930000Y-177128000D02*
X180930000Y-176578000D01*
X180930000Y-177128000D02*
X180930000Y-177678000D01*
X180930000Y-177128000D02*
X181530000Y-176728000D01*
X181530000Y-176728000D02*
X181530000Y-177528000D01*
X181530000Y-177128000D02*
X182030000Y-177128000D01*
X181530000Y-177528000D02*
X180930000Y-177128000D01*
D11*
%TO.C,S23*%
X161604000Y-159352000D02*
X162604000Y-159352000D01*
X161604000Y-160352000D02*
X161604000Y-159352000D01*
X161604000Y-173352000D02*
X161604000Y-172352000D01*
X162604000Y-173352000D02*
X161604000Y-173352000D01*
X166604000Y-170552000D02*
X167104000Y-170052000D01*
X166604000Y-174052000D02*
X167104000Y-174552000D01*
X167104000Y-170052000D02*
X169604000Y-170052000D01*
X167104000Y-174552000D02*
X170104000Y-174552000D01*
X170104000Y-174552000D02*
X170604000Y-174052000D01*
X170604000Y-173052000D02*
X170604000Y-174052000D01*
X171104000Y-167852000D02*
X175604000Y-167852000D01*
X171104000Y-168552000D02*
X171104000Y-167852000D01*
X174604000Y-159352000D02*
X175604000Y-159352000D01*
X175604000Y-159352000D02*
X175604000Y-160352000D01*
X175604000Y-167852000D02*
X175604000Y-168352000D01*
X175604000Y-171952000D02*
X175604000Y-172552000D01*
X175604000Y-172352000D02*
X175604000Y-173352000D01*
X175604000Y-172552000D02*
X171104000Y-172552000D01*
X175604000Y-173352000D02*
X174604000Y-173352000D01*
X170604000Y-173052000D02*
G75*
G02*
X171104000Y-172552000I500001J-1D01*
G01*
X171104000Y-168552000D02*
G75*
G02*
X169604000Y-170052000I-1500001J1D01*
G01*
D12*
%TO.C,D11*%
X197286000Y-137612000D02*
X197886000Y-138012000D01*
X197286000Y-138012000D02*
X196786000Y-138012000D01*
X197286000Y-138412000D02*
X197286000Y-137612000D01*
X197886000Y-138012000D02*
X197286000Y-138412000D01*
X197886000Y-138012000D02*
X197886000Y-137462000D01*
X197886000Y-138012000D02*
X197886000Y-138562000D01*
X198286000Y-138012000D02*
X197886000Y-138012000D01*
D11*
%TO.C,S14*%
X237554000Y-121352000D02*
X238554000Y-121352000D01*
X237554000Y-122352000D02*
X237554000Y-121352000D01*
X237554000Y-135352000D02*
X237554000Y-134352000D01*
X238554000Y-135352000D02*
X237554000Y-135352000D01*
X242554000Y-132552000D02*
X243054000Y-132052000D01*
X242554000Y-136052000D02*
X243054000Y-136552000D01*
X243054000Y-132052000D02*
X245554000Y-132052000D01*
X243054000Y-136552000D02*
X246054000Y-136552000D01*
X246054000Y-136552000D02*
X246554000Y-136052000D01*
X246554000Y-135052000D02*
X246554000Y-136052000D01*
X247054000Y-129852000D02*
X251554000Y-129852000D01*
X247054000Y-130552000D02*
X247054000Y-129852000D01*
X250554000Y-121352000D02*
X251554000Y-121352000D01*
X251554000Y-121352000D02*
X251554000Y-122352000D01*
X251554000Y-129852000D02*
X251554000Y-130352000D01*
X251554000Y-133952000D02*
X251554000Y-134552000D01*
X251554000Y-134352000D02*
X251554000Y-135352000D01*
X251554000Y-134552000D02*
X247054000Y-134552000D01*
X251554000Y-135352000D02*
X250554000Y-135352000D01*
X246554000Y-135052000D02*
G75*
G02*
X247054000Y-134552000I500001J-1D01*
G01*
X247054000Y-130552000D02*
G75*
G02*
X245554000Y-132052000I-1500001J1D01*
G01*
D12*
%TO.C,D32*%
X208600000Y-184000000D02*
X209000000Y-184000000D01*
X209000000Y-184000000D02*
X209000000Y-183450000D01*
X209000000Y-184000000D02*
X209000000Y-184550000D01*
X209000000Y-184000000D02*
X209600000Y-183600000D01*
X209600000Y-183600000D02*
X209600000Y-184400000D01*
X209600000Y-184000000D02*
X210100000Y-184000000D01*
X209600000Y-184400000D02*
X209000000Y-184000000D01*
D14*
%TO.C,SW1*%
X286328000Y-179396000D02*
X286328000Y-170796000D01*
X290928000Y-173096000D02*
X290928000Y-170796000D01*
X290928000Y-179396000D02*
X290928000Y-177196000D01*
D12*
%TO.C,D2*%
X148646000Y-118562000D02*
X149246000Y-118962000D01*
X148646000Y-118962000D02*
X148146000Y-118962000D01*
X148646000Y-119362000D02*
X148646000Y-118562000D01*
X149246000Y-118962000D02*
X148646000Y-119362000D01*
X149246000Y-118962000D02*
X149246000Y-118412000D01*
X149246000Y-118962000D02*
X149246000Y-119512000D01*
X149646000Y-118962000D02*
X149246000Y-118962000D01*
D14*
%TO.C,J1*%
X276174000Y-153604000D02*
X294414000Y-153604000D01*
X276174000Y-162044000D02*
X276174000Y-153604000D01*
X294414000Y-153604000D02*
X294414000Y-162044000D01*
X294414000Y-162044000D02*
X276174000Y-162044000D01*
D12*
%TO.C,D27*%
X252286000Y-176112000D02*
X252686000Y-176112000D01*
X252686000Y-176112000D02*
X252686000Y-175562000D01*
X252686000Y-176112000D02*
X252686000Y-176662000D01*
X252686000Y-176112000D02*
X253286000Y-175712000D01*
X253286000Y-175712000D02*
X253286000Y-176512000D01*
X253286000Y-176112000D02*
X253786000Y-176112000D01*
X253286000Y-176512000D02*
X252686000Y-176112000D01*
D11*
%TO.C,S27*%
X237604000Y-159352000D02*
X238604000Y-159352000D01*
X237604000Y-160352000D02*
X237604000Y-159352000D01*
X237604000Y-173352000D02*
X237604000Y-172352000D01*
X238604000Y-173352000D02*
X237604000Y-173352000D01*
X242604000Y-170552000D02*
X243104000Y-170052000D01*
X242604000Y-174052000D02*
X243104000Y-174552000D01*
X243104000Y-170052000D02*
X245604000Y-170052000D01*
X243104000Y-174552000D02*
X246104000Y-174552000D01*
X246104000Y-174552000D02*
X246604000Y-174052000D01*
X246604000Y-173052000D02*
X246604000Y-174052000D01*
X247104000Y-167852000D02*
X251604000Y-167852000D01*
X247104000Y-168552000D02*
X247104000Y-167852000D01*
X250604000Y-159352000D02*
X251604000Y-159352000D01*
X251604000Y-159352000D02*
X251604000Y-160352000D01*
X251604000Y-167852000D02*
X251604000Y-168352000D01*
X251604000Y-171952000D02*
X251604000Y-172552000D01*
X251604000Y-172352000D02*
X251604000Y-173352000D01*
X251604000Y-172552000D02*
X247104000Y-172552000D01*
X251604000Y-173352000D02*
X250604000Y-173352000D01*
X246604000Y-173052000D02*
G75*
G02*
X247104000Y-172552000I500001J-1D01*
G01*
X247104000Y-168552000D02*
G75*
G02*
X245604000Y-170052000I-1500001J1D01*
G01*
D14*
%TO.C,R1*%
X257804000Y-126356000D02*
X257804000Y-122256000D01*
X257804000Y-134456000D02*
X257804000Y-130356000D01*
X260204000Y-134456000D02*
X257804000Y-134456000D01*
X263704000Y-127856000D02*
X263704000Y-128856000D01*
X264204000Y-128356000D02*
X263204000Y-128356000D01*
X265004000Y-134456000D02*
X262404000Y-134456000D01*
X267504000Y-120856000D02*
X267804000Y-120556000D01*
X267804000Y-120556000D02*
X267804000Y-121156000D01*
X267804000Y-121156000D02*
X267504000Y-120856000D01*
X269604000Y-122256000D02*
X257804000Y-122256000D01*
X269604000Y-126356000D02*
X269604000Y-122256000D01*
X269604000Y-130356000D02*
X269604000Y-134456000D01*
X269604000Y-134456000D02*
X267204000Y-134456000D01*
X266704000Y-128356000D02*
G75*
G02*
X260704000Y-128356000I-3000000J0D01*
G01*
X260704000Y-128356000D02*
G75*
G02*
X266704000Y-128356000I3000000J0D01*
G01*
%TO.C,COM_SELECT1*%
X282322000Y-147172000D02*
X287822000Y-147172000D01*
X282322000Y-149122000D02*
X282322000Y-147172000D01*
X287822000Y-147172000D02*
X287822000Y-149122000D01*
X287822000Y-149122000D02*
X282322000Y-149122000D01*
D11*
%TO.C,S28*%
X256604000Y-159352000D02*
X257604000Y-159352000D01*
X256604000Y-160352000D02*
X256604000Y-159352000D01*
X256604000Y-173352000D02*
X256604000Y-172352000D01*
X257604000Y-173352000D02*
X256604000Y-173352000D01*
X261604000Y-170552000D02*
X262104000Y-170052000D01*
X261604000Y-174052000D02*
X262104000Y-174552000D01*
X262104000Y-170052000D02*
X264604000Y-170052000D01*
X262104000Y-174552000D02*
X265104000Y-174552000D01*
X265104000Y-174552000D02*
X265604000Y-174052000D01*
X265604000Y-173052000D02*
X265604000Y-174052000D01*
X266104000Y-167852000D02*
X270604000Y-167852000D01*
X266104000Y-168552000D02*
X266104000Y-167852000D01*
X269604000Y-159352000D02*
X270604000Y-159352000D01*
X270604000Y-159352000D02*
X270604000Y-160352000D01*
X270604000Y-167852000D02*
X270604000Y-168352000D01*
X270604000Y-171952000D02*
X270604000Y-172552000D01*
X270604000Y-172352000D02*
X270604000Y-173352000D01*
X270604000Y-172552000D02*
X266104000Y-172552000D01*
X270604000Y-173352000D02*
X269604000Y-173352000D01*
X265604000Y-173052000D02*
G75*
G02*
X266104000Y-172552000I500001J-1D01*
G01*
X266104000Y-168552000D02*
G75*
G02*
X264604000Y-170052000I-1500001J1D01*
G01*
D12*
%TO.C,D29*%
X150250000Y-190100000D02*
X150850000Y-190500000D01*
X150250000Y-190500000D02*
X149750000Y-190500000D01*
X150250000Y-190900000D02*
X150250000Y-190100000D01*
X150850000Y-190500000D02*
X150250000Y-190900000D01*
X150850000Y-190500000D02*
X150850000Y-189950000D01*
X150850000Y-190500000D02*
X150850000Y-191050000D01*
X151250000Y-190500000D02*
X150850000Y-190500000D01*
%TO.C,D13*%
X235132000Y-137612000D02*
X235732000Y-138012000D01*
X235132000Y-138012000D02*
X234632000Y-138012000D01*
X235132000Y-138412000D02*
X235132000Y-137612000D01*
X235732000Y-138012000D02*
X235132000Y-138412000D01*
X235732000Y-138012000D02*
X235732000Y-137462000D01*
X235732000Y-138012000D02*
X235732000Y-138562000D01*
X236132000Y-138012000D02*
X235732000Y-138012000D01*
D14*
%TO.C,RXI2*%
X275912000Y-103258000D02*
X277862000Y-103258000D01*
X275912000Y-108758000D02*
X275912000Y-103258000D01*
X277862000Y-103258000D02*
X277862000Y-108758000D01*
X277862000Y-108758000D02*
X275912000Y-108758000D01*
D11*
%TO.C,S15*%
X122932500Y-140352000D02*
X123932500Y-140352000D01*
X122932500Y-141352000D02*
X122932500Y-140352000D01*
X122932500Y-154352000D02*
X122932500Y-153352000D01*
X123932500Y-154352000D02*
X122932500Y-154352000D01*
X127932500Y-151552000D02*
X128432500Y-151052000D01*
X127932500Y-155052000D02*
X128432500Y-155552000D01*
X128432500Y-151052000D02*
X130932500Y-151052000D01*
X128432500Y-155552000D02*
X131432500Y-155552000D01*
X131432500Y-155552000D02*
X131932500Y-155052000D01*
X131932500Y-154052000D02*
X131932500Y-155052000D01*
X132432500Y-148852000D02*
X136932500Y-148852000D01*
X132432500Y-149552000D02*
X132432500Y-148852000D01*
X135932500Y-140352000D02*
X136932500Y-140352000D01*
X136932500Y-140352000D02*
X136932500Y-141352000D01*
X136932500Y-148852000D02*
X136932500Y-149352000D01*
X136932500Y-152952000D02*
X136932500Y-153552000D01*
X136932500Y-153352000D02*
X136932500Y-154352000D01*
X136932500Y-153552000D02*
X132432500Y-153552000D01*
X136932500Y-154352000D02*
X135932500Y-154352000D01*
X131932500Y-154052000D02*
G75*
G02*
X132432500Y-153552000I500001J-1D01*
G01*
X132432500Y-149552000D02*
G75*
G02*
X130932500Y-151052000I-1500001J1D01*
G01*
%TO.C,S22*%
X127695000Y-159352000D02*
X128695000Y-159352000D01*
X127695000Y-160352000D02*
X127695000Y-159352000D01*
X127695000Y-173352000D02*
X127695000Y-172352000D01*
X128695000Y-173352000D02*
X127695000Y-173352000D01*
X132695000Y-170552000D02*
X133195000Y-170052000D01*
X132695000Y-174052000D02*
X133195000Y-174552000D01*
X133195000Y-170052000D02*
X135695000Y-170052000D01*
X133195000Y-174552000D02*
X136195000Y-174552000D01*
X136195000Y-174552000D02*
X136695000Y-174052000D01*
X136695000Y-173052000D02*
X136695000Y-174052000D01*
X137195000Y-167852000D02*
X141695000Y-167852000D01*
X137195000Y-168552000D02*
X137195000Y-167852000D01*
X140695000Y-159352000D02*
X141695000Y-159352000D01*
X141695000Y-159352000D02*
X141695000Y-160352000D01*
X141695000Y-167852000D02*
X141695000Y-168352000D01*
X141695000Y-171952000D02*
X141695000Y-172552000D01*
X141695000Y-172352000D02*
X141695000Y-173352000D01*
X141695000Y-172552000D02*
X137195000Y-172552000D01*
X141695000Y-173352000D02*
X140695000Y-173352000D01*
X136695000Y-173052000D02*
G75*
G02*
X137195000Y-172552000I500001J-1D01*
G01*
X137195000Y-168552000D02*
G75*
G02*
X135695000Y-170052000I-1500001J1D01*
G01*
D12*
%TO.C,D19*%
X222568000Y-156554000D02*
X222968000Y-156554000D01*
X222968000Y-156554000D02*
X222968000Y-156004000D01*
X222968000Y-156554000D02*
X222968000Y-157104000D01*
X222968000Y-156554000D02*
X223568000Y-156154000D01*
X223568000Y-156154000D02*
X223568000Y-156954000D01*
X223568000Y-156554000D02*
X224068000Y-156554000D01*
X223568000Y-156954000D02*
X222968000Y-156554000D01*
D11*
%TO.C,S19*%
X209079000Y-140352000D02*
X210079000Y-140352000D01*
X209079000Y-141352000D02*
X209079000Y-140352000D01*
X209079000Y-154352000D02*
X209079000Y-153352000D01*
X210079000Y-154352000D02*
X209079000Y-154352000D01*
X214079000Y-151552000D02*
X214579000Y-151052000D01*
X214079000Y-155052000D02*
X214579000Y-155552000D01*
X214579000Y-151052000D02*
X217079000Y-151052000D01*
X214579000Y-155552000D02*
X217579000Y-155552000D01*
X217579000Y-155552000D02*
X218079000Y-155052000D01*
X218079000Y-154052000D02*
X218079000Y-155052000D01*
X218579000Y-148852000D02*
X223079000Y-148852000D01*
X218579000Y-149552000D02*
X218579000Y-148852000D01*
X222079000Y-140352000D02*
X223079000Y-140352000D01*
X223079000Y-140352000D02*
X223079000Y-141352000D01*
X223079000Y-148852000D02*
X223079000Y-149352000D01*
X223079000Y-152952000D02*
X223079000Y-153552000D01*
X223079000Y-153352000D02*
X223079000Y-154352000D01*
X223079000Y-153552000D02*
X218579000Y-153552000D01*
X223079000Y-154352000D02*
X222079000Y-154352000D01*
X218079000Y-154052000D02*
G75*
G02*
X218579000Y-153552000I500001J-1D01*
G01*
X218579000Y-149552000D02*
G75*
G02*
X217079000Y-151052000I-1500001J1D01*
G01*
%TO.C,S9*%
X142554000Y-121352000D02*
X143554000Y-121352000D01*
X142554000Y-122352000D02*
X142554000Y-121352000D01*
X142554000Y-135352000D02*
X142554000Y-134352000D01*
X143554000Y-135352000D02*
X142554000Y-135352000D01*
X147554000Y-132552000D02*
X148054000Y-132052000D01*
X147554000Y-136052000D02*
X148054000Y-136552000D01*
X148054000Y-132052000D02*
X150554000Y-132052000D01*
X148054000Y-136552000D02*
X151054000Y-136552000D01*
X151054000Y-136552000D02*
X151554000Y-136052000D01*
X151554000Y-135052000D02*
X151554000Y-136052000D01*
X152054000Y-129852000D02*
X156554000Y-129852000D01*
X152054000Y-130552000D02*
X152054000Y-129852000D01*
X155554000Y-121352000D02*
X156554000Y-121352000D01*
X156554000Y-121352000D02*
X156554000Y-122352000D01*
X156554000Y-129852000D02*
X156554000Y-130352000D01*
X156554000Y-133952000D02*
X156554000Y-134552000D01*
X156554000Y-134352000D02*
X156554000Y-135352000D01*
X156554000Y-134552000D02*
X152054000Y-134552000D01*
X156554000Y-135352000D02*
X155554000Y-135352000D01*
X151554000Y-135052000D02*
G75*
G02*
X152054000Y-134552000I500001J-1D01*
G01*
X152054000Y-130552000D02*
G75*
G02*
X150554000Y-132052000I-1500001J1D01*
G01*
D14*
%TO.C,TXD1*%
X282516000Y-103258000D02*
X284466000Y-103258000D01*
X282516000Y-108758000D02*
X282516000Y-103258000D01*
X284466000Y-103258000D02*
X284466000Y-108758000D01*
X284466000Y-108758000D02*
X282516000Y-108758000D01*
D12*
%TO.C,D18*%
X203010000Y-156808000D02*
X203410000Y-156808000D01*
X203410000Y-156808000D02*
X203410000Y-156258000D01*
X203410000Y-156808000D02*
X203410000Y-157358000D01*
X203410000Y-156808000D02*
X204010000Y-156408000D01*
X204010000Y-156408000D02*
X204010000Y-157208000D01*
X204010000Y-156808000D02*
X204510000Y-156808000D01*
X204010000Y-157208000D02*
X203410000Y-156808000D01*
D11*
%TO.C,S13*%
X218554000Y-121352000D02*
X219554000Y-121352000D01*
X218554000Y-122352000D02*
X218554000Y-121352000D01*
X218554000Y-135352000D02*
X218554000Y-134352000D01*
X219554000Y-135352000D02*
X218554000Y-135352000D01*
X223554000Y-132552000D02*
X224054000Y-132052000D01*
X223554000Y-136052000D02*
X224054000Y-136552000D01*
X224054000Y-132052000D02*
X226554000Y-132052000D01*
X224054000Y-136552000D02*
X227054000Y-136552000D01*
X227054000Y-136552000D02*
X227554000Y-136052000D01*
X227554000Y-135052000D02*
X227554000Y-136052000D01*
X228054000Y-129852000D02*
X232554000Y-129852000D01*
X228054000Y-130552000D02*
X228054000Y-129852000D01*
X231554000Y-121352000D02*
X232554000Y-121352000D01*
X232554000Y-121352000D02*
X232554000Y-122352000D01*
X232554000Y-129852000D02*
X232554000Y-130352000D01*
X232554000Y-133952000D02*
X232554000Y-134552000D01*
X232554000Y-134352000D02*
X232554000Y-135352000D01*
X232554000Y-134552000D02*
X228054000Y-134552000D01*
X232554000Y-135352000D02*
X231554000Y-135352000D01*
X227554000Y-135052000D02*
G75*
G02*
X228054000Y-134552000I500001J-1D01*
G01*
X228054000Y-130552000D02*
G75*
G02*
X226554000Y-132052000I-1500001J1D01*
G01*
D12*
%TO.C,D1*%
X129216000Y-118308000D02*
X129816000Y-118708000D01*
X129216000Y-118708000D02*
X128716000Y-118708000D01*
X129216000Y-119108000D02*
X129216000Y-118308000D01*
X129816000Y-118708000D02*
X129216000Y-119108000D01*
X129816000Y-118708000D02*
X129816000Y-118158000D01*
X129816000Y-118708000D02*
X129816000Y-119258000D01*
X130216000Y-118708000D02*
X129816000Y-118708000D01*
%TO.C,D8*%
X146250000Y-143100000D02*
X146850000Y-143500000D01*
X146250000Y-143500000D02*
X145750000Y-143500000D01*
X146250000Y-143900000D02*
X146250000Y-143100000D01*
X146850000Y-143500000D02*
X146250000Y-143900000D01*
X146850000Y-143500000D02*
X146850000Y-142950000D01*
X146850000Y-143500000D02*
X146850000Y-144050000D01*
X147250000Y-143500000D02*
X146850000Y-143500000D01*
D14*
%TO.C,TXD2*%
X279214000Y-103258000D02*
X281164000Y-103258000D01*
X279214000Y-108758000D02*
X279214000Y-103258000D01*
X281164000Y-103258000D02*
X281164000Y-108758000D01*
X281164000Y-108758000D02*
X279214000Y-108758000D01*
%TO.C,R2*%
X264054000Y-107390000D02*
X264054000Y-111230000D01*
X264054000Y-111230000D02*
X265894000Y-111230000D01*
X264974000Y-106440000D02*
X264974000Y-107390000D01*
X264974000Y-112180000D02*
X264974000Y-111230000D01*
X265894000Y-107390000D02*
X264054000Y-107390000D01*
X265894000Y-111230000D02*
X265894000Y-107390000D01*
D11*
%TO.C,S10*%
X161554000Y-121352000D02*
X162554000Y-121352000D01*
X161554000Y-122352000D02*
X161554000Y-121352000D01*
X161554000Y-135352000D02*
X161554000Y-134352000D01*
X162554000Y-135352000D02*
X161554000Y-135352000D01*
X166554000Y-132552000D02*
X167054000Y-132052000D01*
X166554000Y-136052000D02*
X167054000Y-136552000D01*
X167054000Y-132052000D02*
X169554000Y-132052000D01*
X167054000Y-136552000D02*
X170054000Y-136552000D01*
X170054000Y-136552000D02*
X170554000Y-136052000D01*
X170554000Y-135052000D02*
X170554000Y-136052000D01*
X171054000Y-129852000D02*
X175554000Y-129852000D01*
X171054000Y-130552000D02*
X171054000Y-129852000D01*
X174554000Y-121352000D02*
X175554000Y-121352000D01*
X175554000Y-121352000D02*
X175554000Y-122352000D01*
X175554000Y-129852000D02*
X175554000Y-130352000D01*
X175554000Y-133952000D02*
X175554000Y-134552000D01*
X175554000Y-134352000D02*
X175554000Y-135352000D01*
X175554000Y-134552000D02*
X171054000Y-134552000D01*
X175554000Y-135352000D02*
X174554000Y-135352000D01*
X170554000Y-135052000D02*
G75*
G02*
X171054000Y-134552000I500001J-1D01*
G01*
X171054000Y-130552000D02*
G75*
G02*
X169554000Y-132052000I-1500001J1D01*
G01*
%TO.C,S30*%
X157341500Y-178352000D02*
X158341500Y-178352000D01*
X157341500Y-179352000D02*
X157341500Y-178352000D01*
X157341500Y-192352000D02*
X157341500Y-191352000D01*
X158341500Y-192352000D02*
X157341500Y-192352000D01*
X162341500Y-189552000D02*
X162841500Y-189052000D01*
X162341500Y-193052000D02*
X162841500Y-193552000D01*
X162841500Y-189052000D02*
X165341500Y-189052000D01*
X162841500Y-193552000D02*
X165841500Y-193552000D01*
X165841500Y-193552000D02*
X166341500Y-193052000D01*
X166341500Y-192052000D02*
X166341500Y-193052000D01*
X166841500Y-186852000D02*
X171341500Y-186852000D01*
X166841500Y-187552000D02*
X166841500Y-186852000D01*
X170341500Y-178352000D02*
X171341500Y-178352000D01*
X171341500Y-178352000D02*
X171341500Y-179352000D01*
X171341500Y-186852000D02*
X171341500Y-187352000D01*
X171341500Y-190952000D02*
X171341500Y-191552000D01*
X171341500Y-191352000D02*
X171341500Y-192352000D01*
X171341500Y-191552000D02*
X166841500Y-191552000D01*
X171341500Y-192352000D02*
X170341500Y-192352000D01*
X166341500Y-192052000D02*
G75*
G02*
X166841500Y-191552000I500001J-1D01*
G01*
X166841500Y-187552000D02*
G75*
G02*
X165341500Y-189052000I-1500001J1D01*
G01*
%TD*%
M02*
