%TF.GenerationSoftware,KiCad,Pcbnew,8.0.4*%
%TF.CreationDate,2024-11-14T10:30:57-07:00*%
%TF.ProjectId,simple_split_MX,73696d70-6c65-45f7-9370-6c69745f4d58,v1.0.0*%
%TF.SameCoordinates,Original*%
%TF.FileFunction,Paste,Top*%
%TF.FilePolarity,Positive*%
%FSLAX46Y46*%
G04 Gerber Fmt 4.6, Leading zero omitted, Abs format (unit mm)*
G04 Created by KiCad (PCBNEW 8.0.4) date 2024-11-14 10:30:57*
%MOMM*%
%LPD*%
G01*
G04 APERTURE LIST*
%ADD10R,2.550000X2.500000*%
%ADD11R,0.900000X1.200000*%
G04 APERTURE END LIST*
D10*
%TO.C,S33*%
X246617500Y-104272000D03*
X260467500Y-106812000D03*
%TD*%
D11*
%TO.C,D26*%
X236652000Y-175858000D03*
X233352000Y-175858000D03*
%TD*%
%TO.C,D24*%
X199896000Y-176276000D03*
X196596000Y-176276000D03*
%TD*%
D10*
%TO.C,S31*%
X182435500Y-180272000D03*
X196285500Y-182812000D03*
%TD*%
%TO.C,S8*%
X118880000Y-123272000D03*
X132730000Y-125812000D03*
%TD*%
D11*
%TO.C,D6*%
X226746000Y-118708000D03*
X223446000Y-118708000D03*
%TD*%
%TO.C,D33*%
X260349000Y-117348000D03*
X257049000Y-117348000D03*
%TD*%
%TO.C,D9*%
X161214000Y-138012000D03*
X157914000Y-138012000D03*
%TD*%
%TO.C,D16*%
X170358000Y-156300000D03*
X167058000Y-156300000D03*
%TD*%
%TO.C,D10*%
X179502000Y-137758000D03*
X176202000Y-137758000D03*
%TD*%
D10*
%TO.C,S20*%
X228789000Y-142272000D03*
X242639000Y-144812000D03*
%TD*%
%TO.C,S11*%
X181264000Y-123272000D03*
X195114000Y-125812000D03*
%TD*%
D11*
%TO.C,D23*%
X179958000Y-176276000D03*
X176658000Y-176276000D03*
%TD*%
%TO.C,D7*%
X248082000Y-117946000D03*
X244782000Y-117946000D03*
%TD*%
D10*
%TO.C,S6*%
X208617500Y-104272000D03*
X222467500Y-106812000D03*
%TD*%
%TO.C,F3*%
X170617500Y-85720000D03*
X184467500Y-88260000D03*
%TD*%
%TO.C,F1*%
X132617500Y-85720000D03*
X146467500Y-88260000D03*
%TD*%
%TO.C,S35*%
X113617500Y-85720000D03*
X127467500Y-88260000D03*
%TD*%
%TO.C,S4*%
X170617500Y-104272000D03*
X184467500Y-106812000D03*
%TD*%
%TO.C,S3*%
X151617500Y-104272000D03*
X165467500Y-106812000D03*
%TD*%
%TO.C,Extra_Function_Key1*%
X246617500Y-85720000D03*
X260467500Y-88260000D03*
%TD*%
D11*
%TO.C,D37*%
X187452000Y-101346000D03*
X184152000Y-101346000D03*
%TD*%
%TO.C,D15*%
X152000000Y-156808000D03*
X148700000Y-156808000D03*
%TD*%
%TO.C,D39*%
X225932000Y-100584000D03*
X222632000Y-100584000D03*
%TD*%
D10*
%TO.C,F6*%
X227617500Y-85720000D03*
X241467500Y-88260000D03*
%TD*%
%TO.C,S5*%
X189617500Y-104272000D03*
X203467500Y-106812000D03*
%TD*%
D11*
%TO.C,D36*%
X168782000Y-100076000D03*
X165482000Y-100076000D03*
%TD*%
%TO.C,D4*%
X189026000Y-118454000D03*
X185726000Y-118454000D03*
%TD*%
%TO.C,D5*%
X207568000Y-118962000D03*
X204268000Y-118962000D03*
%TD*%
D10*
%TO.C,S25*%
X200314000Y-161272000D03*
X214164000Y-163812000D03*
%TD*%
%TO.C,S7*%
X227617500Y-104272000D03*
X241467500Y-106812000D03*
%TD*%
%TO.C,S1*%
X113617500Y-104272000D03*
X127467500Y-106812000D03*
%TD*%
D11*
%TO.C,D30*%
X177926000Y-194564000D03*
X174626000Y-194564000D03*
%TD*%
%TO.C,D38*%
X206756000Y-100584000D03*
X203456000Y-100584000D03*
%TD*%
D10*
%TO.C,F2*%
X151617500Y-85720000D03*
X165467500Y-88260000D03*
%TD*%
D11*
%TO.C,D28*%
X270688000Y-176366000D03*
X267388000Y-176366000D03*
%TD*%
D10*
%TO.C,S12*%
X200264000Y-123272000D03*
X214114000Y-125812000D03*
%TD*%
%TO.C,S24*%
X181314000Y-161272000D03*
X195164000Y-163812000D03*
%TD*%
D11*
%TO.C,D12*%
X218490000Y-138012000D03*
X215190000Y-138012000D03*
%TD*%
%TO.C,D17*%
X190424000Y-157062000D03*
X187124000Y-157062000D03*
%TD*%
%TO.C,D34*%
X149860000Y-99314000D03*
X146560000Y-99314000D03*
%TD*%
%TO.C,D14*%
X255396000Y-136779000D03*
X252096000Y-136779000D03*
%TD*%
%TO.C,D20*%
X246252000Y-157480000D03*
X242952000Y-157480000D03*
%TD*%
%TO.C,D25*%
X217550000Y-174752000D03*
X214250000Y-174752000D03*
%TD*%
%TO.C,D22*%
X155448000Y-173482000D03*
X152148000Y-173482000D03*
%TD*%
D10*
%TO.C,S2*%
X132617500Y-104272000D03*
X146467500Y-106812000D03*
%TD*%
D11*
%TO.C,D3*%
X169850000Y-119216000D03*
X166550000Y-119216000D03*
%TD*%
D10*
%TO.C,S16*%
X152789000Y-142272000D03*
X166639000Y-144812000D03*
%TD*%
%TO.C,S21*%
X247789000Y-142272000D03*
X261639000Y-144812000D03*
%TD*%
%TO.C,S26*%
X219314000Y-161272000D03*
X233164000Y-163812000D03*
%TD*%
D11*
%TO.C,D21*%
X264084000Y-157316000D03*
X260784000Y-157316000D03*
%TD*%
D10*
%TO.C,S17*%
X171789000Y-142272000D03*
X185639000Y-144812000D03*
%TD*%
%TO.C,S18*%
X190789000Y-142272000D03*
X204639000Y-144812000D03*
%TD*%
D11*
%TO.C,D35*%
X130174000Y-100838000D03*
X126874000Y-100838000D03*
%TD*%
D10*
%TO.C,S32*%
X220985500Y-180272000D03*
X234835500Y-182812000D03*
%TD*%
%TO.C,S29*%
X123642500Y-180272000D03*
X137492500Y-182812000D03*
%TD*%
D11*
%TO.C,D31*%
X203326000Y-180594000D03*
X200026000Y-180594000D03*
%TD*%
D10*
%TO.C,S23*%
X162314000Y-161272000D03*
X176164000Y-163812000D03*
%TD*%
D11*
%TO.C,D11*%
X199186000Y-138012000D03*
X195886000Y-138012000D03*
%TD*%
%TO.C,D40*%
X248284000Y-100330000D03*
X244984000Y-100330000D03*
%TD*%
D10*
%TO.C,F5*%
X208617500Y-85720000D03*
X222467500Y-88260000D03*
%TD*%
%TO.C,S14*%
X238264000Y-123272000D03*
X252114000Y-125812000D03*
%TD*%
D11*
%TO.C,D32*%
X241172000Y-182880000D03*
X237872000Y-182880000D03*
%TD*%
%TO.C,D2*%
X150546000Y-118962000D03*
X147246000Y-118962000D03*
%TD*%
%TO.C,D27*%
X255650000Y-175768000D03*
X252350000Y-175768000D03*
%TD*%
D10*
%TO.C,S27*%
X238314000Y-161272000D03*
X252164000Y-163812000D03*
%TD*%
%TO.C,S28*%
X257314000Y-161272000D03*
X271164000Y-163812000D03*
%TD*%
D11*
%TO.C,D29*%
X152150000Y-190500000D03*
X148850000Y-190500000D03*
%TD*%
%TO.C,D13*%
X237032000Y-138012000D03*
X233732000Y-138012000D03*
%TD*%
D10*
%TO.C,S15*%
X123642500Y-142272000D03*
X137492500Y-144812000D03*
%TD*%
%TO.C,S22*%
X128405000Y-161272000D03*
X142255000Y-163812000D03*
%TD*%
D11*
%TO.C,D19*%
X227202000Y-156972000D03*
X223902000Y-156972000D03*
%TD*%
D10*
%TO.C,S19*%
X209789000Y-142272000D03*
X223639000Y-144812000D03*
%TD*%
%TO.C,S9*%
X143264000Y-123272000D03*
X157114000Y-125812000D03*
%TD*%
%TO.C,F4*%
X189617500Y-85720000D03*
X203467500Y-88260000D03*
%TD*%
D11*
%TO.C,D18*%
X208152000Y-157226000D03*
X204852000Y-157226000D03*
%TD*%
D10*
%TO.C,S13*%
X219264000Y-123272000D03*
X233114000Y-125812000D03*
%TD*%
D11*
%TO.C,D1*%
X131116000Y-118708000D03*
X127816000Y-118708000D03*
%TD*%
%TO.C,D8*%
X149224000Y-139192000D03*
X145924000Y-139192000D03*
%TD*%
%TO.C,D41*%
X262128000Y-100838000D03*
X258828000Y-100838000D03*
%TD*%
D10*
%TO.C,S10*%
X162264000Y-123272000D03*
X176114000Y-125812000D03*
%TD*%
%TO.C,S30*%
X158051500Y-180272000D03*
X171901500Y-182812000D03*
%TD*%
M02*
