%TF.GenerationSoftware,KiCad,Pcbnew,8.0.4*%
%TF.CreationDate,2024-11-14T10:30:58-07:00*%
%TF.ProjectId,simple_split_MX,73696d70-6c65-45f7-9370-6c69745f4d58,v1.0.0*%
%TF.SameCoordinates,Original*%
%TF.FileFunction,Soldermask,Bot*%
%TF.FilePolarity,Negative*%
%FSLAX46Y46*%
G04 Gerber Fmt 4.6, Leading zero omitted, Abs format (unit mm)*
G04 Created by KiCad (PCBNEW 8.0.4) date 2024-11-14 10:30:58*
%MOMM*%
%LPD*%
G01*
G04 APERTURE LIST*
G04 Aperture macros list*
%AMRoundRect*
0 Rectangle with rounded corners*
0 $1 Rounding radius*
0 $2 $3 $4 $5 $6 $7 $8 $9 X,Y pos of 4 corners*
0 Add a 4 corners polygon primitive as box body*
4,1,4,$2,$3,$4,$5,$6,$7,$8,$9,$2,$3,0*
0 Add four circle primitives for the rounded corners*
1,1,$1+$1,$2,$3*
1,1,$1+$1,$4,$5*
1,1,$1+$1,$6,$7*
1,1,$1+$1,$8,$9*
0 Add four rect primitives between the rounded corners*
20,1,$1+$1,$2,$3,$4,$5,0*
20,1,$1+$1,$4,$5,$6,$7,0*
20,1,$1+$1,$6,$7,$8,$9,0*
20,1,$1+$1,$8,$9,$2,$3,0*%
%AMFreePoly0*
4,1,16,0.535355,0.785355,0.541603,0.777735,1.041603,0.027735,1.049029,-0.009806,1.041603,-0.027735,0.541603,-0.777735,0.509806,-0.799029,0.500000,-0.800000,-0.500000,-0.800000,-0.535355,-0.785355,-0.550000,-0.750000,-0.550000,0.750000,-0.535355,0.785355,-0.500000,0.800000,0.500000,0.800000,0.535355,0.785355,0.535355,0.785355,$1*%
G04 Aperture macros list end*
%ADD10C,1.801800*%
%ADD11C,3.100000*%
%ADD12C,4.087800*%
%ADD13RoundRect,0.050000X1.275000X1.250000X-1.275000X1.250000X-1.275000X-1.250000X1.275000X-1.250000X0*%
%ADD14C,1.500000*%
%ADD15O,1.500000X1.500000*%
%ADD16C,0.900000*%
%ADD17RoundRect,0.050000X0.450000X0.600000X-0.450000X0.600000X-0.450000X-0.600000X0.450000X-0.600000X0*%
%ADD18C,2.300000*%
%ADD19RoundRect,0.264706X-0.785294X0.635294X-0.785294X-0.635294X0.785294X-0.635294X0.785294X0.635294X0*%
%ADD20O,2.100000X1.800000*%
%ADD21RoundRect,0.050000X-1.000000X-1.000000X1.000000X-1.000000X1.000000X1.000000X-1.000000X1.000000X0*%
%ADD22C,2.100000*%
%ADD23C,3.148000*%
%ADD24RoundRect,0.050000X-0.889000X-0.762000X0.889000X-0.762000X0.889000X0.762000X-0.889000X0.762000X0*%
%ADD25C,1.878000*%
%ADD26O,3.600000X2.300000*%
%ADD27RoundRect,0.050000X1.250000X-0.750000X1.250000X0.750000X-1.250000X0.750000X-1.250000X-0.750000X0*%
%ADD28O,2.600000X1.600000*%
%ADD29O,1.900000X2.900000*%
%ADD30RoundRect,0.050000X-1.000000X1.000000X-1.000000X-1.000000X1.000000X-1.000000X1.000000X1.000000X0*%
%ADD31RoundRect,0.050000X-1.000000X1.600000X-1.000000X-1.600000X1.000000X-1.600000X1.000000X1.600000X0*%
%ADD32R,1.500000X1.500000*%
%ADD33FreePoly0,180.000000*%
%ADD34FreePoly0,0.000000*%
G04 APERTURE END LIST*
D10*
%TO.C,S33*%
X257987500Y-109352000D03*
D11*
X256717500Y-111892000D03*
X256717500Y-106812000D03*
D12*
X252907500Y-109352000D03*
D11*
X250367500Y-114432000D03*
X250367500Y-104272000D03*
D10*
X247827500Y-109352000D03*
D13*
X246617500Y-114432000D03*
X260467500Y-111892000D03*
%TD*%
D14*
%TO.C,R3*%
X267260000Y-114644000D03*
D15*
X267260000Y-107024000D03*
%TD*%
D16*
%TO.C,D26*%
X236652000Y-175858000D03*
D17*
X236652000Y-175858000D03*
D16*
X233352000Y-175858000D03*
D17*
X233352000Y-175858000D03*
%TD*%
D16*
%TO.C,D24*%
X199896000Y-176276000D03*
D17*
X199896000Y-176276000D03*
D16*
X196596000Y-176276000D03*
D17*
X196596000Y-176276000D03*
%TD*%
D10*
%TO.C,S31*%
X193805500Y-185352000D03*
D11*
X192535500Y-187892000D03*
X192535500Y-182812000D03*
D12*
X188725500Y-185352000D03*
D11*
X186185500Y-190432000D03*
X186185500Y-180272000D03*
D10*
X183645500Y-185352000D03*
D13*
X182435500Y-190432000D03*
X196285500Y-187892000D03*
%TD*%
D10*
%TO.C,S8*%
X130250000Y-128352000D03*
D11*
X128980000Y-130892000D03*
X128980000Y-125812000D03*
D12*
X125170000Y-128352000D03*
D11*
X122630000Y-133432000D03*
X122630000Y-123272000D03*
D10*
X120090000Y-128352000D03*
D13*
X118880000Y-133432000D03*
X132730000Y-130892000D03*
%TD*%
D16*
%TO.C,D6*%
X226746000Y-118708000D03*
D17*
X226746000Y-118708000D03*
D16*
X223446000Y-118708000D03*
D17*
X223446000Y-118708000D03*
%TD*%
D16*
%TO.C,D33*%
X260349000Y-117348000D03*
D17*
X260349000Y-117348000D03*
D16*
X257049000Y-117348000D03*
D17*
X257049000Y-117348000D03*
%TD*%
D16*
%TO.C,D9*%
X161214000Y-138012000D03*
D17*
X161214000Y-138012000D03*
D16*
X157914000Y-138012000D03*
D17*
X157914000Y-138012000D03*
%TD*%
D18*
%TO.C,M1*%
X112268000Y-100076000D03*
%TD*%
D16*
%TO.C,D16*%
X170358000Y-156300000D03*
D17*
X170358000Y-156300000D03*
D16*
X167058000Y-156300000D03*
D17*
X167058000Y-156300000D03*
%TD*%
D16*
%TO.C,D10*%
X179502000Y-137758000D03*
D17*
X179502000Y-137758000D03*
D16*
X176202000Y-137758000D03*
D17*
X176202000Y-137758000D03*
%TD*%
D10*
%TO.C,S20*%
X240159000Y-147352000D03*
D11*
X238889000Y-149892000D03*
X238889000Y-144812000D03*
D12*
X235079000Y-147352000D03*
D11*
X232539000Y-152432000D03*
X232539000Y-142272000D03*
D10*
X229999000Y-147352000D03*
D13*
X228789000Y-152432000D03*
X242639000Y-149892000D03*
%TD*%
D10*
%TO.C,S11*%
X192634000Y-128352000D03*
D11*
X191364000Y-130892000D03*
X191364000Y-125812000D03*
D12*
X187554000Y-128352000D03*
D11*
X185014000Y-133432000D03*
X185014000Y-123272000D03*
D10*
X182474000Y-128352000D03*
D13*
X181264000Y-133432000D03*
X195114000Y-130892000D03*
%TD*%
D19*
%TO.C,J2*%
X280475500Y-189848000D03*
D20*
X280475500Y-192348000D03*
%TD*%
D18*
%TO.C,M9*%
X261500000Y-189000000D03*
%TD*%
D16*
%TO.C,D23*%
X179958000Y-176276000D03*
D17*
X179958000Y-176276000D03*
D16*
X176658000Y-176276000D03*
D17*
X176658000Y-176276000D03*
%TD*%
D16*
%TO.C,D7*%
X248082000Y-117946000D03*
D17*
X248082000Y-117946000D03*
D16*
X244782000Y-117946000D03*
D17*
X244782000Y-117946000D03*
%TD*%
D10*
%TO.C,S6*%
X219987500Y-109352000D03*
D11*
X218717500Y-111892000D03*
X218717500Y-106812000D03*
D12*
X214907500Y-109352000D03*
D11*
X212367500Y-114432000D03*
X212367500Y-104272000D03*
D10*
X209827500Y-109352000D03*
D13*
X208617500Y-114432000D03*
X222467500Y-111892000D03*
%TD*%
D10*
%TO.C,F3*%
X181987500Y-90800000D03*
D11*
X180717500Y-93340000D03*
X180717500Y-88260000D03*
D12*
X176907500Y-90800000D03*
D11*
X174367500Y-95880000D03*
X174367500Y-85720000D03*
D10*
X171827500Y-90800000D03*
D13*
X170617500Y-95880000D03*
X184467500Y-93340000D03*
%TD*%
D21*
%TO.C,U2*%
X267260000Y-185256000D03*
D22*
X269800000Y-185256000D03*
X272340000Y-185256000D03*
X274880000Y-185256000D03*
%TD*%
D23*
%TO.C,DRA2*%
X113270000Y-121367000D03*
D12*
X113270000Y-136607000D03*
D23*
X137070000Y-121367000D03*
D12*
X137070000Y-136607000D03*
%TD*%
D18*
%TO.C,M7*%
X234442000Y-120904000D03*
%TD*%
D10*
%TO.C,F1*%
X143987500Y-90800000D03*
D11*
X142717500Y-93340000D03*
X142717500Y-88260000D03*
D12*
X138907500Y-90800000D03*
D11*
X136367500Y-95880000D03*
X136367500Y-85720000D03*
D10*
X133827500Y-90800000D03*
D13*
X132617500Y-95880000D03*
X146467500Y-93340000D03*
%TD*%
D18*
%TO.C,M5*%
X203327000Y-186309000D03*
%TD*%
D10*
%TO.C,S35*%
X124987500Y-90800000D03*
D11*
X123717500Y-93340000D03*
X123717500Y-88260000D03*
D12*
X119907500Y-90800000D03*
D11*
X117367500Y-95880000D03*
X117367500Y-85720000D03*
D10*
X114827500Y-90800000D03*
D13*
X113617500Y-95880000D03*
X127467500Y-93340000D03*
%TD*%
D10*
%TO.C,S4*%
X181987500Y-109352000D03*
D11*
X180717500Y-111892000D03*
X180717500Y-106812000D03*
D12*
X176907500Y-109352000D03*
D11*
X174367500Y-114432000D03*
X174367500Y-104272000D03*
D10*
X171827500Y-109352000D03*
D13*
X170617500Y-114432000D03*
X184467500Y-111892000D03*
%TD*%
D10*
%TO.C,S3*%
X162987500Y-109352000D03*
D11*
X161717500Y-111892000D03*
X161717500Y-106812000D03*
D12*
X157907500Y-109352000D03*
D11*
X155367500Y-114432000D03*
X155367500Y-104272000D03*
D10*
X152827500Y-109352000D03*
D13*
X151617500Y-114432000D03*
X165467500Y-111892000D03*
%TD*%
D18*
%TO.C,M11*%
X185928000Y-97536000D03*
%TD*%
D10*
%TO.C,Extra_Function_Key1*%
X257987500Y-90800000D03*
D11*
X256717500Y-93340000D03*
X256717500Y-88260000D03*
D12*
X252907500Y-90800000D03*
D11*
X250367500Y-95880000D03*
X250367500Y-85720000D03*
D10*
X247827500Y-90800000D03*
D13*
X246617500Y-95880000D03*
X260467500Y-93340000D03*
%TD*%
D16*
%TO.C,D37*%
X187452000Y-101346000D03*
D17*
X187452000Y-101346000D03*
D16*
X184152000Y-101346000D03*
D17*
X184152000Y-101346000D03*
%TD*%
D16*
%TO.C,D15*%
X152000000Y-156808000D03*
D17*
X152000000Y-156808000D03*
D16*
X148700000Y-156808000D03*
D17*
X148700000Y-156808000D03*
%TD*%
D16*
%TO.C,D39*%
X225932000Y-100584000D03*
D17*
X225932000Y-100584000D03*
D16*
X222632000Y-100584000D03*
D17*
X222632000Y-100584000D03*
%TD*%
D10*
%TO.C,F6*%
X238987500Y-90800000D03*
D11*
X237717500Y-93340000D03*
X237717500Y-88260000D03*
D12*
X233907500Y-90800000D03*
D11*
X231367500Y-95880000D03*
X231367500Y-85720000D03*
D10*
X228827500Y-90800000D03*
D13*
X227617500Y-95880000D03*
X241467500Y-93340000D03*
%TD*%
D10*
%TO.C,S5*%
X200987500Y-109352000D03*
D11*
X199717500Y-111892000D03*
X199717500Y-106812000D03*
D12*
X195907500Y-109352000D03*
D11*
X193367500Y-114432000D03*
X193367500Y-104272000D03*
D10*
X190827500Y-109352000D03*
D13*
X189617500Y-114432000D03*
X203467500Y-111892000D03*
%TD*%
D16*
%TO.C,D36*%
X168782000Y-100076000D03*
D17*
X168782000Y-100076000D03*
D16*
X165482000Y-100076000D03*
D17*
X165482000Y-100076000D03*
%TD*%
D16*
%TO.C,D4*%
X189026000Y-118454000D03*
D17*
X189026000Y-118454000D03*
D16*
X185726000Y-118454000D03*
D17*
X185726000Y-118454000D03*
%TD*%
D16*
%TO.C,D5*%
X207568000Y-118962000D03*
D17*
X207568000Y-118962000D03*
D16*
X204268000Y-118962000D03*
D17*
X204268000Y-118962000D03*
%TD*%
D10*
%TO.C,S25*%
X211684000Y-166352000D03*
D11*
X210414000Y-168892000D03*
X210414000Y-163812000D03*
D12*
X206604000Y-166352000D03*
D11*
X204064000Y-171432000D03*
X204064000Y-161272000D03*
D10*
X201524000Y-166352000D03*
D13*
X200314000Y-171432000D03*
X214164000Y-168892000D03*
%TD*%
D23*
%TO.C,DRA4*%
X118032500Y-178367000D03*
D12*
X118032500Y-193607000D03*
D23*
X141832500Y-178367000D03*
D12*
X141832500Y-193607000D03*
%TD*%
D10*
%TO.C,S7*%
X238987500Y-109352000D03*
D11*
X237717500Y-111892000D03*
X237717500Y-106812000D03*
D12*
X233907500Y-109352000D03*
D11*
X231367500Y-114432000D03*
X231367500Y-104272000D03*
D10*
X228827500Y-109352000D03*
D13*
X227617500Y-114432000D03*
X241467500Y-111892000D03*
%TD*%
D10*
%TO.C,S1*%
X124987500Y-109352000D03*
D11*
X123717500Y-111892000D03*
X123717500Y-106812000D03*
D12*
X119907500Y-109352000D03*
D11*
X117367500Y-114432000D03*
X117367500Y-104272000D03*
D10*
X114827500Y-109352000D03*
D13*
X113617500Y-114432000D03*
X127467500Y-111892000D03*
%TD*%
D16*
%TO.C,D30*%
X177926000Y-194564000D03*
D17*
X177926000Y-194564000D03*
D16*
X174626000Y-194564000D03*
D17*
X174626000Y-194564000D03*
%TD*%
D16*
%TO.C,D38*%
X206756000Y-100584000D03*
D17*
X206756000Y-100584000D03*
D16*
X203456000Y-100584000D03*
D17*
X203456000Y-100584000D03*
%TD*%
D10*
%TO.C,F2*%
X162987500Y-90800000D03*
D11*
X161717500Y-93340000D03*
X161717500Y-88260000D03*
D12*
X157907500Y-90800000D03*
D11*
X155367500Y-95880000D03*
X155367500Y-85720000D03*
D10*
X152827500Y-90800000D03*
D13*
X151617500Y-95880000D03*
X165467500Y-93340000D03*
%TD*%
D16*
%TO.C,D28*%
X270688000Y-176366000D03*
D17*
X270688000Y-176366000D03*
D16*
X267388000Y-176366000D03*
D17*
X267388000Y-176366000D03*
%TD*%
D10*
%TO.C,S12*%
X211634000Y-128352000D03*
D11*
X210364000Y-130892000D03*
X210364000Y-125812000D03*
D12*
X206554000Y-128352000D03*
D11*
X204014000Y-133432000D03*
X204014000Y-123272000D03*
D10*
X201474000Y-128352000D03*
D13*
X200264000Y-133432000D03*
X214114000Y-130892000D03*
%TD*%
D10*
%TO.C,S24*%
X192684000Y-166352000D03*
D11*
X191414000Y-168892000D03*
X191414000Y-163812000D03*
D12*
X187604000Y-166352000D03*
D11*
X185064000Y-171432000D03*
X185064000Y-161272000D03*
D10*
X182524000Y-166352000D03*
D13*
X181314000Y-171432000D03*
X195164000Y-168892000D03*
%TD*%
D16*
%TO.C,D12*%
X218490000Y-138012000D03*
D17*
X218490000Y-138012000D03*
D16*
X215190000Y-138012000D03*
D17*
X215190000Y-138012000D03*
%TD*%
D23*
%TO.C,DRA5*%
X215375500Y-178367000D03*
D12*
X215375500Y-193607000D03*
D23*
X239175500Y-178367000D03*
D12*
X239175500Y-193607000D03*
%TD*%
D24*
%TO.C,U1*%
X273356000Y-103595000D03*
D25*
X273356000Y-106135000D03*
X273356000Y-108675000D03*
X273356000Y-111215000D03*
X273356000Y-113755000D03*
X273356000Y-116295000D03*
X273356000Y-118835000D03*
X273356000Y-121375000D03*
X273356000Y-123915000D03*
X273356000Y-126455000D03*
X273356000Y-128995000D03*
X273356000Y-131535000D03*
X273356000Y-134075000D03*
X288596000Y-134075000D03*
X288596000Y-131535000D03*
X288596000Y-128995000D03*
X288596000Y-126455000D03*
X288596000Y-123915000D03*
X288596000Y-121375000D03*
X288596000Y-118835000D03*
X288596000Y-116295000D03*
X288596000Y-113755000D03*
X288596000Y-111215000D03*
X288596000Y-108675000D03*
X288596000Y-106135000D03*
X288596000Y-103595000D03*
%TD*%
D23*
%TO.C,DRA3*%
X122795000Y-159367000D03*
D12*
X122795000Y-174607000D03*
D23*
X146595000Y-159367000D03*
D12*
X146595000Y-174607000D03*
%TD*%
D16*
%TO.C,D17*%
X190424000Y-157062000D03*
D17*
X190424000Y-157062000D03*
D16*
X187124000Y-157062000D03*
D17*
X187124000Y-157062000D03*
%TD*%
D18*
%TO.C,M2*%
X113284000Y-189230000D03*
%TD*%
D23*
%TO.C,DRA1*%
X118032500Y-140367000D03*
D12*
X118032500Y-155607000D03*
D23*
X141832500Y-140367000D03*
D12*
X141832500Y-155607000D03*
%TD*%
D16*
%TO.C,D34*%
X149860000Y-99314000D03*
D17*
X149860000Y-99314000D03*
D16*
X146560000Y-99314000D03*
D17*
X146560000Y-99314000D03*
%TD*%
D16*
%TO.C,D14*%
X255396000Y-136779000D03*
D17*
X255396000Y-136779000D03*
D16*
X252096000Y-136779000D03*
D17*
X252096000Y-136779000D03*
%TD*%
D18*
%TO.C,M6*%
X206502000Y-143256000D03*
%TD*%
D16*
%TO.C,D20*%
X246252000Y-157480000D03*
D17*
X246252000Y-157480000D03*
D16*
X242952000Y-157480000D03*
D17*
X242952000Y-157480000D03*
%TD*%
D18*
%TO.C,M10*%
X240792000Y-102108000D03*
%TD*%
D16*
%TO.C,D25*%
X217550000Y-174752000D03*
D17*
X217550000Y-174752000D03*
D16*
X214250000Y-174752000D03*
D17*
X214250000Y-174752000D03*
%TD*%
D16*
%TO.C,D22*%
X155448000Y-173482000D03*
D17*
X155448000Y-173482000D03*
D16*
X152148000Y-173482000D03*
D17*
X152148000Y-173482000D03*
%TD*%
D10*
%TO.C,S2*%
X143987500Y-109352000D03*
D11*
X142717500Y-111892000D03*
X142717500Y-106812000D03*
D12*
X138907500Y-109352000D03*
D11*
X136367500Y-114432000D03*
X136367500Y-104272000D03*
D10*
X133827500Y-109352000D03*
D13*
X132617500Y-114432000D03*
X146467500Y-111892000D03*
%TD*%
D16*
%TO.C,D3*%
X169850000Y-119216000D03*
D17*
X169850000Y-119216000D03*
D16*
X166550000Y-119216000D03*
D17*
X166550000Y-119216000D03*
%TD*%
D10*
%TO.C,S16*%
X164159000Y-147352000D03*
D11*
X162889000Y-149892000D03*
X162889000Y-144812000D03*
D12*
X159079000Y-147352000D03*
D11*
X156539000Y-152432000D03*
X156539000Y-142272000D03*
D10*
X153999000Y-147352000D03*
D13*
X152789000Y-152432000D03*
X166639000Y-149892000D03*
%TD*%
D10*
%TO.C,S21*%
X259159000Y-147352000D03*
D11*
X257889000Y-149892000D03*
X257889000Y-144812000D03*
D12*
X254079000Y-147352000D03*
D11*
X251539000Y-152432000D03*
X251539000Y-142272000D03*
D10*
X248999000Y-147352000D03*
D13*
X247789000Y-152432000D03*
X261639000Y-149892000D03*
%TD*%
D10*
%TO.C,S26*%
X230684000Y-166352000D03*
D11*
X229414000Y-168892000D03*
X229414000Y-163812000D03*
D12*
X225604000Y-166352000D03*
D11*
X223064000Y-171432000D03*
X223064000Y-161272000D03*
D10*
X220524000Y-166352000D03*
D13*
X219314000Y-171432000D03*
X233164000Y-168892000D03*
%TD*%
D16*
%TO.C,D21*%
X264084000Y-157316000D03*
D17*
X264084000Y-157316000D03*
D16*
X260784000Y-157316000D03*
D17*
X260784000Y-157316000D03*
%TD*%
D10*
%TO.C,S17*%
X183159000Y-147352000D03*
D11*
X181889000Y-149892000D03*
X181889000Y-144812000D03*
D12*
X178079000Y-147352000D03*
D11*
X175539000Y-152432000D03*
X175539000Y-142272000D03*
D10*
X172999000Y-147352000D03*
D13*
X171789000Y-152432000D03*
X185639000Y-149892000D03*
%TD*%
D10*
%TO.C,S18*%
X202159000Y-147352000D03*
D11*
X200889000Y-149892000D03*
X200889000Y-144812000D03*
D12*
X197079000Y-147352000D03*
D11*
X194539000Y-152432000D03*
X194539000Y-142272000D03*
D10*
X191999000Y-147352000D03*
D13*
X190789000Y-152432000D03*
X204639000Y-149892000D03*
%TD*%
D16*
%TO.C,D35*%
X130174000Y-100838000D03*
D17*
X130174000Y-100838000D03*
D16*
X126874000Y-100838000D03*
D17*
X126874000Y-100838000D03*
%TD*%
D18*
%TO.C,M8*%
X271000000Y-147500000D03*
%TD*%
D10*
%TO.C,S32*%
X232355500Y-185352000D03*
D11*
X231085500Y-187892000D03*
X231085500Y-182812000D03*
D12*
X227275500Y-185352000D03*
D11*
X224735500Y-190432000D03*
X224735500Y-180272000D03*
D10*
X222195500Y-185352000D03*
D13*
X220985500Y-190432000D03*
X234835500Y-187892000D03*
%TD*%
D10*
%TO.C,S29*%
X135012500Y-185352000D03*
D11*
X133742500Y-187892000D03*
X133742500Y-182812000D03*
D12*
X129932500Y-185352000D03*
D11*
X127392500Y-190432000D03*
X127392500Y-180272000D03*
D10*
X124852500Y-185352000D03*
D13*
X123642500Y-190432000D03*
X137492500Y-187892000D03*
%TD*%
D16*
%TO.C,D31*%
X203326000Y-180594000D03*
D17*
X203326000Y-180594000D03*
D16*
X200026000Y-180594000D03*
D17*
X200026000Y-180594000D03*
%TD*%
D10*
%TO.C,S23*%
X173684000Y-166352000D03*
D11*
X172414000Y-168892000D03*
X172414000Y-163812000D03*
D12*
X168604000Y-166352000D03*
D11*
X166064000Y-171432000D03*
X166064000Y-161272000D03*
D10*
X163524000Y-166352000D03*
D13*
X162314000Y-171432000D03*
X176164000Y-168892000D03*
%TD*%
D16*
%TO.C,D11*%
X199186000Y-138012000D03*
D17*
X199186000Y-138012000D03*
D16*
X195886000Y-138012000D03*
D17*
X195886000Y-138012000D03*
%TD*%
D16*
%TO.C,D40*%
X248284000Y-100330000D03*
D17*
X248284000Y-100330000D03*
D16*
X244984000Y-100330000D03*
D17*
X244984000Y-100330000D03*
%TD*%
D10*
%TO.C,F5*%
X219987500Y-90800000D03*
D11*
X218717500Y-93340000D03*
X218717500Y-88260000D03*
D12*
X214907500Y-90800000D03*
D11*
X212367500Y-95880000D03*
X212367500Y-85720000D03*
D10*
X209827500Y-90800000D03*
D13*
X208617500Y-95880000D03*
X222467500Y-93340000D03*
%TD*%
D10*
%TO.C,S14*%
X249634000Y-128352000D03*
D11*
X248364000Y-130892000D03*
X248364000Y-125812000D03*
D12*
X244554000Y-128352000D03*
D11*
X242014000Y-133432000D03*
X242014000Y-123272000D03*
D10*
X239474000Y-128352000D03*
D13*
X238264000Y-133432000D03*
X252114000Y-130892000D03*
%TD*%
D18*
%TO.C,M3*%
X158000000Y-161000000D03*
%TD*%
D16*
%TO.C,D32*%
X241172000Y-182880000D03*
D17*
X241172000Y-182880000D03*
D16*
X237872000Y-182880000D03*
D17*
X237872000Y-182880000D03*
%TD*%
D26*
%TO.C,SW1*%
X288628000Y-179196000D03*
X288628000Y-170996000D03*
D27*
X288628000Y-177096000D03*
D28*
X288628000Y-175096000D03*
X288628000Y-173096000D03*
%TD*%
D16*
%TO.C,D2*%
X150546000Y-118962000D03*
D17*
X150546000Y-118962000D03*
D16*
X147246000Y-118962000D03*
D17*
X147246000Y-118962000D03*
%TD*%
D29*
%TO.C,J1*%
X281194000Y-155724000D03*
X281194000Y-159724000D03*
X289094000Y-157724000D03*
X286694000Y-155724000D03*
X286694000Y-159724000D03*
%TD*%
D16*
%TO.C,D27*%
X255650000Y-175768000D03*
D17*
X255650000Y-175768000D03*
D16*
X252350000Y-175768000D03*
D17*
X252350000Y-175768000D03*
%TD*%
D10*
%TO.C,S27*%
X249684000Y-166352000D03*
D11*
X248414000Y-168892000D03*
X248414000Y-163812000D03*
D12*
X244604000Y-166352000D03*
D11*
X242064000Y-171432000D03*
X242064000Y-161272000D03*
D10*
X239524000Y-166352000D03*
D13*
X238314000Y-171432000D03*
X252164000Y-168892000D03*
%TD*%
D30*
%TO.C,R1*%
X266204000Y-120856000D03*
D22*
X261204000Y-120856000D03*
X263704000Y-120856000D03*
D31*
X269304000Y-128356000D03*
X258104000Y-128356000D03*
D22*
X261204000Y-135356000D03*
X266204000Y-135356000D03*
%TD*%
D18*
%TO.C,M4*%
X158242000Y-121793000D03*
%TD*%
D10*
%TO.C,S28*%
X268684000Y-166352000D03*
D11*
X267414000Y-168892000D03*
X267414000Y-163812000D03*
D12*
X263604000Y-166352000D03*
D11*
X261064000Y-171432000D03*
X261064000Y-161272000D03*
D10*
X258524000Y-166352000D03*
D13*
X257314000Y-171432000D03*
X271164000Y-168892000D03*
%TD*%
D16*
%TO.C,D29*%
X152150000Y-190500000D03*
D17*
X152150000Y-190500000D03*
D16*
X148850000Y-190500000D03*
D17*
X148850000Y-190500000D03*
%TD*%
D16*
%TO.C,D13*%
X237032000Y-138012000D03*
D17*
X237032000Y-138012000D03*
D16*
X233732000Y-138012000D03*
D17*
X233732000Y-138012000D03*
%TD*%
D10*
%TO.C,S15*%
X135012500Y-147352000D03*
D11*
X133742500Y-149892000D03*
X133742500Y-144812000D03*
D12*
X129932500Y-147352000D03*
D11*
X127392500Y-152432000D03*
X127392500Y-142272000D03*
D10*
X124852500Y-147352000D03*
D13*
X123642500Y-152432000D03*
X137492500Y-149892000D03*
%TD*%
D10*
%TO.C,S22*%
X139775000Y-166352000D03*
D11*
X138505000Y-168892000D03*
X138505000Y-163812000D03*
D12*
X134695000Y-166352000D03*
D11*
X132155000Y-171432000D03*
X132155000Y-161272000D03*
D10*
X129615000Y-166352000D03*
D13*
X128405000Y-171432000D03*
X142255000Y-168892000D03*
%TD*%
D16*
%TO.C,D19*%
X227202000Y-156972000D03*
D17*
X227202000Y-156972000D03*
D16*
X223902000Y-156972000D03*
D17*
X223902000Y-156972000D03*
%TD*%
D10*
%TO.C,S19*%
X221159000Y-147352000D03*
D11*
X219889000Y-149892000D03*
X219889000Y-144812000D03*
D12*
X216079000Y-147352000D03*
D11*
X213539000Y-152432000D03*
X213539000Y-142272000D03*
D10*
X210999000Y-147352000D03*
D13*
X209789000Y-152432000D03*
X223639000Y-149892000D03*
%TD*%
D10*
%TO.C,S9*%
X154634000Y-128352000D03*
D11*
X153364000Y-130892000D03*
X153364000Y-125812000D03*
D12*
X149554000Y-128352000D03*
D11*
X147014000Y-133432000D03*
X147014000Y-123272000D03*
D10*
X144474000Y-128352000D03*
D13*
X143264000Y-133432000D03*
X157114000Y-130892000D03*
%TD*%
D10*
%TO.C,F4*%
X200987500Y-90800000D03*
D11*
X199717500Y-93340000D03*
X199717500Y-88260000D03*
D12*
X195907500Y-90800000D03*
D11*
X193367500Y-95880000D03*
X193367500Y-85720000D03*
D10*
X190827500Y-90800000D03*
D13*
X189617500Y-95880000D03*
X203467500Y-93340000D03*
%TD*%
D16*
%TO.C,D18*%
X208152000Y-157226000D03*
D17*
X208152000Y-157226000D03*
D16*
X204852000Y-157226000D03*
D17*
X204852000Y-157226000D03*
%TD*%
D10*
%TO.C,S13*%
X230634000Y-128352000D03*
D11*
X229364000Y-130892000D03*
X229364000Y-125812000D03*
D12*
X225554000Y-128352000D03*
D11*
X223014000Y-133432000D03*
X223014000Y-123272000D03*
D10*
X220474000Y-128352000D03*
D13*
X219264000Y-133432000D03*
X233114000Y-130892000D03*
%TD*%
D16*
%TO.C,D1*%
X131116000Y-118708000D03*
D17*
X131116000Y-118708000D03*
D16*
X127816000Y-118708000D03*
D17*
X127816000Y-118708000D03*
%TD*%
D16*
%TO.C,D8*%
X149224000Y-139192000D03*
D17*
X149224000Y-139192000D03*
D16*
X145924000Y-139192000D03*
D17*
X145924000Y-139192000D03*
%TD*%
D16*
%TO.C,D41*%
X262128000Y-100838000D03*
D17*
X262128000Y-100838000D03*
D16*
X258828000Y-100838000D03*
D17*
X258828000Y-100838000D03*
%TD*%
D14*
%TO.C,R2*%
X264974000Y-105500000D03*
D15*
X264974000Y-113120000D03*
%TD*%
D10*
%TO.C,S10*%
X173634000Y-128352000D03*
D11*
X172364000Y-130892000D03*
X172364000Y-125812000D03*
D12*
X168554000Y-128352000D03*
D11*
X166014000Y-133432000D03*
X166014000Y-123272000D03*
D10*
X163474000Y-128352000D03*
D13*
X162264000Y-133432000D03*
X176114000Y-130892000D03*
%TD*%
D10*
%TO.C,S30*%
X169421500Y-185352000D03*
D11*
X168151500Y-187892000D03*
X168151500Y-182812000D03*
D12*
X164341500Y-185352000D03*
D11*
X161801500Y-190432000D03*
X161801500Y-180272000D03*
D10*
X159261500Y-185352000D03*
D13*
X158051500Y-190432000D03*
X171901500Y-187892000D03*
%TD*%
D32*
%TO.C,ExtraButtonsSelect1*%
X269710000Y-102000000D03*
X267310000Y-102000000D03*
D33*
X270510000Y-102000000D03*
D34*
X266510000Y-102000000D03*
%TD*%
M02*
