%TF.GenerationSoftware,KiCad,Pcbnew,8.0.4*%
%TF.CreationDate,2024-11-14T10:30:57-07:00*%
%TF.ProjectId,simple_split_MX,73696d70-6c65-45f7-9370-6c69745f4d58,v1.0.0*%
%TF.SameCoordinates,Original*%
%TF.FileFunction,Legend,Bot*%
%TF.FilePolarity,Positive*%
%FSLAX46Y46*%
G04 Gerber Fmt 4.6, Leading zero omitted, Abs format (unit mm)*
G04 Created by KiCad (PCBNEW 8.0.4) date 2024-11-14 10:30:57*
%MOMM*%
%LPD*%
G01*
G04 APERTURE LIST*
%ADD10C,0.300000*%
%ADD11C,0.150000*%
%ADD12C,0.000000*%
%ADD13C,0.100000*%
%ADD14C,0.120000*%
G04 APERTURE END LIST*
D10*
X273924346Y-180262080D02*
X274424346Y-179547794D01*
X274781489Y-180262080D02*
X274781489Y-178762080D01*
X274781489Y-178762080D02*
X274210060Y-178762080D01*
X274210060Y-178762080D02*
X274067203Y-178833509D01*
X274067203Y-178833509D02*
X273995774Y-178904937D01*
X273995774Y-178904937D02*
X273924346Y-179047794D01*
X273924346Y-179047794D02*
X273924346Y-179262080D01*
X273924346Y-179262080D02*
X273995774Y-179404937D01*
X273995774Y-179404937D02*
X274067203Y-179476366D01*
X274067203Y-179476366D02*
X274210060Y-179547794D01*
X274210060Y-179547794D02*
X274781489Y-179547794D01*
X272995774Y-178762080D02*
X272710060Y-178762080D01*
X272710060Y-178762080D02*
X272567203Y-178833509D01*
X272567203Y-178833509D02*
X272424346Y-178976366D01*
X272424346Y-178976366D02*
X272352917Y-179262080D01*
X272352917Y-179262080D02*
X272352917Y-179762080D01*
X272352917Y-179762080D02*
X272424346Y-180047794D01*
X272424346Y-180047794D02*
X272567203Y-180190652D01*
X272567203Y-180190652D02*
X272710060Y-180262080D01*
X272710060Y-180262080D02*
X272995774Y-180262080D01*
X272995774Y-180262080D02*
X273138632Y-180190652D01*
X273138632Y-180190652D02*
X273281489Y-180047794D01*
X273281489Y-180047794D02*
X273352917Y-179762080D01*
X273352917Y-179762080D02*
X273352917Y-179262080D01*
X273352917Y-179262080D02*
X273281489Y-178976366D01*
X273281489Y-178976366D02*
X273138632Y-178833509D01*
X273138632Y-178833509D02*
X272995774Y-178762080D01*
X271424345Y-179547794D02*
X271424345Y-180262080D01*
X271924345Y-178762080D02*
X271424345Y-179547794D01*
X271424345Y-179547794D02*
X270924345Y-178762080D01*
X270495774Y-179833509D02*
X269781489Y-179833509D01*
X270638631Y-180262080D02*
X270138631Y-178762080D01*
X270138631Y-178762080D02*
X269638631Y-180262080D01*
X268424346Y-180262080D02*
X269138632Y-180262080D01*
X269138632Y-180262080D02*
X269138632Y-178762080D01*
X266852917Y-180190652D02*
X266638632Y-180262080D01*
X266638632Y-180262080D02*
X266281489Y-180262080D01*
X266281489Y-180262080D02*
X266138632Y-180190652D01*
X266138632Y-180190652D02*
X266067203Y-180119223D01*
X266067203Y-180119223D02*
X265995774Y-179976366D01*
X265995774Y-179976366D02*
X265995774Y-179833509D01*
X265995774Y-179833509D02*
X266067203Y-179690652D01*
X266067203Y-179690652D02*
X266138632Y-179619223D01*
X266138632Y-179619223D02*
X266281489Y-179547794D01*
X266281489Y-179547794D02*
X266567203Y-179476366D01*
X266567203Y-179476366D02*
X266710060Y-179404937D01*
X266710060Y-179404937D02*
X266781489Y-179333509D01*
X266781489Y-179333509D02*
X266852917Y-179190652D01*
X266852917Y-179190652D02*
X266852917Y-179047794D01*
X266852917Y-179047794D02*
X266781489Y-178904937D01*
X266781489Y-178904937D02*
X266710060Y-178833509D01*
X266710060Y-178833509D02*
X266567203Y-178762080D01*
X266567203Y-178762080D02*
X266210060Y-178762080D01*
X266210060Y-178762080D02*
X265995774Y-178833509D01*
X265352918Y-180262080D02*
X265352918Y-178762080D01*
X265352918Y-178762080D02*
X264781489Y-178762080D01*
X264781489Y-178762080D02*
X264638632Y-178833509D01*
X264638632Y-178833509D02*
X264567203Y-178904937D01*
X264567203Y-178904937D02*
X264495775Y-179047794D01*
X264495775Y-179047794D02*
X264495775Y-179262080D01*
X264495775Y-179262080D02*
X264567203Y-179404937D01*
X264567203Y-179404937D02*
X264638632Y-179476366D01*
X264638632Y-179476366D02*
X264781489Y-179547794D01*
X264781489Y-179547794D02*
X265352918Y-179547794D01*
X263138632Y-180262080D02*
X263852918Y-180262080D01*
X263852918Y-180262080D02*
X263852918Y-178762080D01*
X262638632Y-180262080D02*
X262638632Y-178762080D01*
X262138631Y-178762080D02*
X261281489Y-178762080D01*
X261710060Y-180262080D02*
X261710060Y-178762080D01*
X259638632Y-180262080D02*
X259638632Y-178762080D01*
X258781489Y-180262080D02*
X259424346Y-179404937D01*
X258781489Y-178762080D02*
X259638632Y-179619223D01*
X258138632Y-179476366D02*
X257638632Y-179476366D01*
X257424346Y-180262080D02*
X258138632Y-180262080D01*
X258138632Y-180262080D02*
X258138632Y-178762080D01*
X258138632Y-178762080D02*
X257424346Y-178762080D01*
X256495774Y-179547794D02*
X256495774Y-180262080D01*
X256995774Y-178762080D02*
X256495774Y-179547794D01*
X256495774Y-179547794D02*
X255995774Y-178762080D01*
X254995775Y-179476366D02*
X254781489Y-179547794D01*
X254781489Y-179547794D02*
X254710060Y-179619223D01*
X254710060Y-179619223D02*
X254638632Y-179762080D01*
X254638632Y-179762080D02*
X254638632Y-179976366D01*
X254638632Y-179976366D02*
X254710060Y-180119223D01*
X254710060Y-180119223D02*
X254781489Y-180190652D01*
X254781489Y-180190652D02*
X254924346Y-180262080D01*
X254924346Y-180262080D02*
X255495775Y-180262080D01*
X255495775Y-180262080D02*
X255495775Y-178762080D01*
X255495775Y-178762080D02*
X254995775Y-178762080D01*
X254995775Y-178762080D02*
X254852918Y-178833509D01*
X254852918Y-178833509D02*
X254781489Y-178904937D01*
X254781489Y-178904937D02*
X254710060Y-179047794D01*
X254710060Y-179047794D02*
X254710060Y-179190652D01*
X254710060Y-179190652D02*
X254781489Y-179333509D01*
X254781489Y-179333509D02*
X254852918Y-179404937D01*
X254852918Y-179404937D02*
X254995775Y-179476366D01*
X254995775Y-179476366D02*
X255495775Y-179476366D01*
X253710060Y-178762080D02*
X253424346Y-178762080D01*
X253424346Y-178762080D02*
X253281489Y-178833509D01*
X253281489Y-178833509D02*
X253138632Y-178976366D01*
X253138632Y-178976366D02*
X253067203Y-179262080D01*
X253067203Y-179262080D02*
X253067203Y-179762080D01*
X253067203Y-179762080D02*
X253138632Y-180047794D01*
X253138632Y-180047794D02*
X253281489Y-180190652D01*
X253281489Y-180190652D02*
X253424346Y-180262080D01*
X253424346Y-180262080D02*
X253710060Y-180262080D01*
X253710060Y-180262080D02*
X253852918Y-180190652D01*
X253852918Y-180190652D02*
X253995775Y-180047794D01*
X253995775Y-180047794D02*
X254067203Y-179762080D01*
X254067203Y-179762080D02*
X254067203Y-179262080D01*
X254067203Y-179262080D02*
X253995775Y-178976366D01*
X253995775Y-178976366D02*
X253852918Y-178833509D01*
X253852918Y-178833509D02*
X253710060Y-178762080D01*
X252495774Y-179833509D02*
X251781489Y-179833509D01*
X252638631Y-180262080D02*
X252138631Y-178762080D01*
X252138631Y-178762080D02*
X251638631Y-180262080D01*
X250281489Y-180262080D02*
X250781489Y-179547794D01*
X251138632Y-180262080D02*
X251138632Y-178762080D01*
X251138632Y-178762080D02*
X250567203Y-178762080D01*
X250567203Y-178762080D02*
X250424346Y-178833509D01*
X250424346Y-178833509D02*
X250352917Y-178904937D01*
X250352917Y-178904937D02*
X250281489Y-179047794D01*
X250281489Y-179047794D02*
X250281489Y-179262080D01*
X250281489Y-179262080D02*
X250352917Y-179404937D01*
X250352917Y-179404937D02*
X250424346Y-179476366D01*
X250424346Y-179476366D02*
X250567203Y-179547794D01*
X250567203Y-179547794D02*
X251138632Y-179547794D01*
X249638632Y-180262080D02*
X249638632Y-178762080D01*
X249638632Y-178762080D02*
X249281489Y-178762080D01*
X249281489Y-178762080D02*
X249067203Y-178833509D01*
X249067203Y-178833509D02*
X248924346Y-178976366D01*
X248924346Y-178976366D02*
X248852917Y-179119223D01*
X248852917Y-179119223D02*
X248781489Y-179404937D01*
X248781489Y-179404937D02*
X248781489Y-179619223D01*
X248781489Y-179619223D02*
X248852917Y-179904937D01*
X248852917Y-179904937D02*
X248924346Y-180047794D01*
X248924346Y-180047794D02*
X249067203Y-180190652D01*
X249067203Y-180190652D02*
X249281489Y-180262080D01*
X249281489Y-180262080D02*
X249638632Y-180262080D01*
X274852917Y-181176996D02*
X274852917Y-181462710D01*
X274281489Y-181176996D02*
X274281489Y-181462710D01*
X273852917Y-181176996D02*
X272995775Y-181176996D01*
X273424346Y-182676996D02*
X273424346Y-181176996D01*
X272495775Y-182676996D02*
X272495775Y-181176996D01*
X272495775Y-181891282D02*
X271638632Y-181891282D01*
X271638632Y-182676996D02*
X271638632Y-181176996D01*
X270924346Y-181891282D02*
X270424346Y-181891282D01*
X270210060Y-182676996D02*
X270924346Y-182676996D01*
X270924346Y-182676996D02*
X270924346Y-181176996D01*
X270924346Y-181176996D02*
X270210060Y-181176996D01*
X267924346Y-181891282D02*
X267710060Y-181962710D01*
X267710060Y-181962710D02*
X267638631Y-182034139D01*
X267638631Y-182034139D02*
X267567203Y-182176996D01*
X267567203Y-182176996D02*
X267567203Y-182391282D01*
X267567203Y-182391282D02*
X267638631Y-182534139D01*
X267638631Y-182534139D02*
X267710060Y-182605568D01*
X267710060Y-182605568D02*
X267852917Y-182676996D01*
X267852917Y-182676996D02*
X268424346Y-182676996D01*
X268424346Y-182676996D02*
X268424346Y-181176996D01*
X268424346Y-181176996D02*
X267924346Y-181176996D01*
X267924346Y-181176996D02*
X267781489Y-181248425D01*
X267781489Y-181248425D02*
X267710060Y-181319853D01*
X267710060Y-181319853D02*
X267638631Y-181462710D01*
X267638631Y-181462710D02*
X267638631Y-181605568D01*
X267638631Y-181605568D02*
X267710060Y-181748425D01*
X267710060Y-181748425D02*
X267781489Y-181819853D01*
X267781489Y-181819853D02*
X267924346Y-181891282D01*
X267924346Y-181891282D02*
X268424346Y-181891282D01*
X266638631Y-181176996D02*
X266352917Y-181176996D01*
X266352917Y-181176996D02*
X266210060Y-181248425D01*
X266210060Y-181248425D02*
X266067203Y-181391282D01*
X266067203Y-181391282D02*
X265995774Y-181676996D01*
X265995774Y-181676996D02*
X265995774Y-182176996D01*
X265995774Y-182176996D02*
X266067203Y-182462710D01*
X266067203Y-182462710D02*
X266210060Y-182605568D01*
X266210060Y-182605568D02*
X266352917Y-182676996D01*
X266352917Y-182676996D02*
X266638631Y-182676996D01*
X266638631Y-182676996D02*
X266781489Y-182605568D01*
X266781489Y-182605568D02*
X266924346Y-182462710D01*
X266924346Y-182462710D02*
X266995774Y-182176996D01*
X266995774Y-182176996D02*
X266995774Y-181676996D01*
X266995774Y-181676996D02*
X266924346Y-181391282D01*
X266924346Y-181391282D02*
X266781489Y-181248425D01*
X266781489Y-181248425D02*
X266638631Y-181176996D01*
X265424345Y-182605568D02*
X265210060Y-182676996D01*
X265210060Y-182676996D02*
X264852917Y-182676996D01*
X264852917Y-182676996D02*
X264710060Y-182605568D01*
X264710060Y-182605568D02*
X264638631Y-182534139D01*
X264638631Y-182534139D02*
X264567202Y-182391282D01*
X264567202Y-182391282D02*
X264567202Y-182248425D01*
X264567202Y-182248425D02*
X264638631Y-182105568D01*
X264638631Y-182105568D02*
X264710060Y-182034139D01*
X264710060Y-182034139D02*
X264852917Y-181962710D01*
X264852917Y-181962710D02*
X265138631Y-181891282D01*
X265138631Y-181891282D02*
X265281488Y-181819853D01*
X265281488Y-181819853D02*
X265352917Y-181748425D01*
X265352917Y-181748425D02*
X265424345Y-181605568D01*
X265424345Y-181605568D02*
X265424345Y-181462710D01*
X265424345Y-181462710D02*
X265352917Y-181319853D01*
X265352917Y-181319853D02*
X265281488Y-181248425D01*
X265281488Y-181248425D02*
X265138631Y-181176996D01*
X265138631Y-181176996D02*
X264781488Y-181176996D01*
X264781488Y-181176996D02*
X264567202Y-181248425D01*
X263995774Y-182605568D02*
X263781489Y-182676996D01*
X263781489Y-182676996D02*
X263424346Y-182676996D01*
X263424346Y-182676996D02*
X263281489Y-182605568D01*
X263281489Y-182605568D02*
X263210060Y-182534139D01*
X263210060Y-182534139D02*
X263138631Y-182391282D01*
X263138631Y-182391282D02*
X263138631Y-182248425D01*
X263138631Y-182248425D02*
X263210060Y-182105568D01*
X263210060Y-182105568D02*
X263281489Y-182034139D01*
X263281489Y-182034139D02*
X263424346Y-181962710D01*
X263424346Y-181962710D02*
X263710060Y-181891282D01*
X263710060Y-181891282D02*
X263852917Y-181819853D01*
X263852917Y-181819853D02*
X263924346Y-181748425D01*
X263924346Y-181748425D02*
X263995774Y-181605568D01*
X263995774Y-181605568D02*
X263995774Y-181462710D01*
X263995774Y-181462710D02*
X263924346Y-181319853D01*
X263924346Y-181319853D02*
X263852917Y-181248425D01*
X263852917Y-181248425D02*
X263710060Y-181176996D01*
X263710060Y-181176996D02*
X263352917Y-181176996D01*
X263352917Y-181176996D02*
X263138631Y-181248425D01*
X262567203Y-181176996D02*
X262567203Y-181462710D01*
X261995775Y-181176996D02*
X261995775Y-181462710D01*
X274781489Y-185091912D02*
X274781489Y-183591912D01*
X274781489Y-183591912D02*
X273924346Y-185091912D01*
X273924346Y-185091912D02*
X273924346Y-183591912D01*
X272567203Y-185091912D02*
X272567203Y-184306198D01*
X272567203Y-184306198D02*
X272638631Y-184163341D01*
X272638631Y-184163341D02*
X272781488Y-184091912D01*
X272781488Y-184091912D02*
X273067203Y-184091912D01*
X273067203Y-184091912D02*
X273210060Y-184163341D01*
X272567203Y-185020484D02*
X272710060Y-185091912D01*
X272710060Y-185091912D02*
X273067203Y-185091912D01*
X273067203Y-185091912D02*
X273210060Y-185020484D01*
X273210060Y-185020484D02*
X273281488Y-184877626D01*
X273281488Y-184877626D02*
X273281488Y-184734769D01*
X273281488Y-184734769D02*
X273210060Y-184591912D01*
X273210060Y-184591912D02*
X273067203Y-184520484D01*
X273067203Y-184520484D02*
X272710060Y-184520484D01*
X272710060Y-184520484D02*
X272567203Y-184449055D01*
X272067202Y-184091912D02*
X271495774Y-184091912D01*
X271852917Y-183591912D02*
X271852917Y-184877626D01*
X271852917Y-184877626D02*
X271781488Y-185020484D01*
X271781488Y-185020484D02*
X271638631Y-185091912D01*
X271638631Y-185091912D02*
X271495774Y-185091912D01*
X270995774Y-185091912D02*
X270995774Y-183591912D01*
X270352917Y-185091912D02*
X270352917Y-184306198D01*
X270352917Y-184306198D02*
X270424345Y-184163341D01*
X270424345Y-184163341D02*
X270567202Y-184091912D01*
X270567202Y-184091912D02*
X270781488Y-184091912D01*
X270781488Y-184091912D02*
X270924345Y-184163341D01*
X270924345Y-184163341D02*
X270995774Y-184234769D01*
X268995774Y-185091912D02*
X268995774Y-184306198D01*
X268995774Y-184306198D02*
X269067202Y-184163341D01*
X269067202Y-184163341D02*
X269210059Y-184091912D01*
X269210059Y-184091912D02*
X269495774Y-184091912D01*
X269495774Y-184091912D02*
X269638631Y-184163341D01*
X268995774Y-185020484D02*
X269138631Y-185091912D01*
X269138631Y-185091912D02*
X269495774Y-185091912D01*
X269495774Y-185091912D02*
X269638631Y-185020484D01*
X269638631Y-185020484D02*
X269710059Y-184877626D01*
X269710059Y-184877626D02*
X269710059Y-184734769D01*
X269710059Y-184734769D02*
X269638631Y-184591912D01*
X269638631Y-184591912D02*
X269495774Y-184520484D01*
X269495774Y-184520484D02*
X269138631Y-184520484D01*
X269138631Y-184520484D02*
X268995774Y-184449055D01*
X268281488Y-184091912D02*
X268281488Y-185091912D01*
X268281488Y-184234769D02*
X268210059Y-184163341D01*
X268210059Y-184163341D02*
X268067202Y-184091912D01*
X268067202Y-184091912D02*
X267852916Y-184091912D01*
X267852916Y-184091912D02*
X267710059Y-184163341D01*
X267710059Y-184163341D02*
X267638631Y-184306198D01*
X267638631Y-184306198D02*
X267638631Y-185091912D01*
X265281488Y-184306198D02*
X265781488Y-184306198D01*
X265781488Y-185091912D02*
X265781488Y-183591912D01*
X265781488Y-183591912D02*
X265067202Y-183591912D01*
X264281488Y-185091912D02*
X264424345Y-185020484D01*
X264424345Y-185020484D02*
X264495774Y-184949055D01*
X264495774Y-184949055D02*
X264567202Y-184806198D01*
X264567202Y-184806198D02*
X264567202Y-184377626D01*
X264567202Y-184377626D02*
X264495774Y-184234769D01*
X264495774Y-184234769D02*
X264424345Y-184163341D01*
X264424345Y-184163341D02*
X264281488Y-184091912D01*
X264281488Y-184091912D02*
X264067202Y-184091912D01*
X264067202Y-184091912D02*
X263924345Y-184163341D01*
X263924345Y-184163341D02*
X263852917Y-184234769D01*
X263852917Y-184234769D02*
X263781488Y-184377626D01*
X263781488Y-184377626D02*
X263781488Y-184806198D01*
X263781488Y-184806198D02*
X263852917Y-184949055D01*
X263852917Y-184949055D02*
X263924345Y-185020484D01*
X263924345Y-185020484D02*
X264067202Y-185091912D01*
X264067202Y-185091912D02*
X264281488Y-185091912D01*
X263138631Y-185091912D02*
X263138631Y-184091912D01*
X263138631Y-184377626D02*
X263067202Y-184234769D01*
X263067202Y-184234769D02*
X262995774Y-184163341D01*
X262995774Y-184163341D02*
X262852916Y-184091912D01*
X262852916Y-184091912D02*
X262710059Y-184091912D01*
X261567203Y-185091912D02*
X261567203Y-183591912D01*
X261567203Y-185020484D02*
X261710060Y-185091912D01*
X261710060Y-185091912D02*
X261995774Y-185091912D01*
X261995774Y-185091912D02*
X262138631Y-185020484D01*
X262138631Y-185020484D02*
X262210060Y-184949055D01*
X262210060Y-184949055D02*
X262281488Y-184806198D01*
X262281488Y-184806198D02*
X262281488Y-184377626D01*
X262281488Y-184377626D02*
X262210060Y-184234769D01*
X262210060Y-184234769D02*
X262138631Y-184163341D01*
X262138631Y-184163341D02*
X261995774Y-184091912D01*
X261995774Y-184091912D02*
X261710060Y-184091912D01*
X261710060Y-184091912D02*
X261567203Y-184163341D01*
X259781488Y-183734769D02*
X259710060Y-183663341D01*
X259710060Y-183663341D02*
X259567203Y-183591912D01*
X259567203Y-183591912D02*
X259210060Y-183591912D01*
X259210060Y-183591912D02*
X259067203Y-183663341D01*
X259067203Y-183663341D02*
X258995774Y-183734769D01*
X258995774Y-183734769D02*
X258924345Y-183877626D01*
X258924345Y-183877626D02*
X258924345Y-184020484D01*
X258924345Y-184020484D02*
X258995774Y-184234769D01*
X258995774Y-184234769D02*
X259852917Y-185091912D01*
X259852917Y-185091912D02*
X258924345Y-185091912D01*
X257995774Y-183591912D02*
X257852917Y-183591912D01*
X257852917Y-183591912D02*
X257710060Y-183663341D01*
X257710060Y-183663341D02*
X257638632Y-183734769D01*
X257638632Y-183734769D02*
X257567203Y-183877626D01*
X257567203Y-183877626D02*
X257495774Y-184163341D01*
X257495774Y-184163341D02*
X257495774Y-184520484D01*
X257495774Y-184520484D02*
X257567203Y-184806198D01*
X257567203Y-184806198D02*
X257638632Y-184949055D01*
X257638632Y-184949055D02*
X257710060Y-185020484D01*
X257710060Y-185020484D02*
X257852917Y-185091912D01*
X257852917Y-185091912D02*
X257995774Y-185091912D01*
X257995774Y-185091912D02*
X258138632Y-185020484D01*
X258138632Y-185020484D02*
X258210060Y-184949055D01*
X258210060Y-184949055D02*
X258281489Y-184806198D01*
X258281489Y-184806198D02*
X258352917Y-184520484D01*
X258352917Y-184520484D02*
X258352917Y-184163341D01*
X258352917Y-184163341D02*
X258281489Y-183877626D01*
X258281489Y-183877626D02*
X258210060Y-183734769D01*
X258210060Y-183734769D02*
X258138632Y-183663341D01*
X258138632Y-183663341D02*
X257995774Y-183591912D01*
X256924346Y-183734769D02*
X256852918Y-183663341D01*
X256852918Y-183663341D02*
X256710061Y-183591912D01*
X256710061Y-183591912D02*
X256352918Y-183591912D01*
X256352918Y-183591912D02*
X256210061Y-183663341D01*
X256210061Y-183663341D02*
X256138632Y-183734769D01*
X256138632Y-183734769D02*
X256067203Y-183877626D01*
X256067203Y-183877626D02*
X256067203Y-184020484D01*
X256067203Y-184020484D02*
X256138632Y-184234769D01*
X256138632Y-184234769D02*
X256995775Y-185091912D01*
X256995775Y-185091912D02*
X256067203Y-185091912D01*
X254781490Y-184091912D02*
X254781490Y-185091912D01*
X255138632Y-183520484D02*
X255495775Y-184591912D01*
X255495775Y-184591912D02*
X254567204Y-184591912D01*
X274781489Y-187506828D02*
X274781489Y-186006828D01*
X274067203Y-186721114D02*
X273567203Y-186721114D01*
X273352917Y-187506828D02*
X274067203Y-187506828D01*
X274067203Y-187506828D02*
X274067203Y-186006828D01*
X274067203Y-186006828D02*
X273352917Y-186006828D01*
X272710060Y-186721114D02*
X272210060Y-186721114D01*
X271995774Y-187506828D02*
X272710060Y-187506828D01*
X272710060Y-187506828D02*
X272710060Y-186006828D01*
X272710060Y-186006828D02*
X271995774Y-186006828D01*
X271352917Y-186721114D02*
X270852917Y-186721114D01*
X270638631Y-187506828D02*
X271352917Y-187506828D01*
X271352917Y-187506828D02*
X271352917Y-186006828D01*
X271352917Y-186006828D02*
X270638631Y-186006828D01*
X268352917Y-186721114D02*
X268138631Y-186792542D01*
X268138631Y-186792542D02*
X268067202Y-186863971D01*
X268067202Y-186863971D02*
X267995774Y-187006828D01*
X267995774Y-187006828D02*
X267995774Y-187221114D01*
X267995774Y-187221114D02*
X268067202Y-187363971D01*
X268067202Y-187363971D02*
X268138631Y-187435400D01*
X268138631Y-187435400D02*
X268281488Y-187506828D01*
X268281488Y-187506828D02*
X268852917Y-187506828D01*
X268852917Y-187506828D02*
X268852917Y-186006828D01*
X268852917Y-186006828D02*
X268352917Y-186006828D01*
X268352917Y-186006828D02*
X268210060Y-186078257D01*
X268210060Y-186078257D02*
X268138631Y-186149685D01*
X268138631Y-186149685D02*
X268067202Y-186292542D01*
X268067202Y-186292542D02*
X268067202Y-186435400D01*
X268067202Y-186435400D02*
X268138631Y-186578257D01*
X268138631Y-186578257D02*
X268210060Y-186649685D01*
X268210060Y-186649685D02*
X268352917Y-186721114D01*
X268352917Y-186721114D02*
X268852917Y-186721114D01*
X267067202Y-186792542D02*
X267067202Y-187506828D01*
X267567202Y-186006828D02*
X267067202Y-186792542D01*
X267067202Y-186792542D02*
X266567202Y-186006828D01*
X266067203Y-186006828D02*
X266067203Y-187221114D01*
X266067203Y-187221114D02*
X265995774Y-187363971D01*
X265995774Y-187363971D02*
X265924346Y-187435400D01*
X265924346Y-187435400D02*
X265781488Y-187506828D01*
X265781488Y-187506828D02*
X265495774Y-187506828D01*
X265495774Y-187506828D02*
X265352917Y-187435400D01*
X265352917Y-187435400D02*
X265281488Y-187363971D01*
X265281488Y-187363971D02*
X265210060Y-187221114D01*
X265210060Y-187221114D02*
X265210060Y-186006828D01*
X282245427Y-187717757D02*
X282388285Y-187646328D01*
X282388285Y-187646328D02*
X282602570Y-187646328D01*
X282602570Y-187646328D02*
X282816856Y-187717757D01*
X282816856Y-187717757D02*
X282959713Y-187860614D01*
X282959713Y-187860614D02*
X283031142Y-188003471D01*
X283031142Y-188003471D02*
X283102570Y-188289185D01*
X283102570Y-188289185D02*
X283102570Y-188503471D01*
X283102570Y-188503471D02*
X283031142Y-188789185D01*
X283031142Y-188789185D02*
X282959713Y-188932042D01*
X282959713Y-188932042D02*
X282816856Y-189074900D01*
X282816856Y-189074900D02*
X282602570Y-189146328D01*
X282602570Y-189146328D02*
X282459713Y-189146328D01*
X282459713Y-189146328D02*
X282245427Y-189074900D01*
X282245427Y-189074900D02*
X282173999Y-189003471D01*
X282173999Y-189003471D02*
X282173999Y-188503471D01*
X282173999Y-188503471D02*
X282459713Y-188503471D01*
X281316856Y-187646328D02*
X281316856Y-188003471D01*
X281673999Y-187860614D02*
X281316856Y-188003471D01*
X281316856Y-188003471D02*
X280959713Y-187860614D01*
X281531142Y-188289185D02*
X281316856Y-188003471D01*
X281316856Y-188003471D02*
X281102570Y-188289185D01*
X280173999Y-187646328D02*
X280173999Y-188003471D01*
X280531142Y-187860614D02*
X280173999Y-188003471D01*
X280173999Y-188003471D02*
X279816856Y-187860614D01*
X280388285Y-188289185D02*
X280173999Y-188003471D01*
X280173999Y-188003471D02*
X279959713Y-188289185D01*
X279031142Y-187646328D02*
X279031142Y-188003471D01*
X279388285Y-187860614D02*
X279031142Y-188003471D01*
X279031142Y-188003471D02*
X278673999Y-187860614D01*
X279245428Y-188289185D02*
X279031142Y-188003471D01*
X279031142Y-188003471D02*
X278816856Y-188289185D01*
D11*
X254145594Y-118014200D02*
X254002737Y-118061819D01*
X254002737Y-118061819D02*
X253764642Y-118061819D01*
X253764642Y-118061819D02*
X253669404Y-118014200D01*
X253669404Y-118014200D02*
X253621785Y-117966580D01*
X253621785Y-117966580D02*
X253574166Y-117871342D01*
X253574166Y-117871342D02*
X253574166Y-117776104D01*
X253574166Y-117776104D02*
X253621785Y-117680866D01*
X253621785Y-117680866D02*
X253669404Y-117633247D01*
X253669404Y-117633247D02*
X253764642Y-117585628D01*
X253764642Y-117585628D02*
X253955118Y-117538009D01*
X253955118Y-117538009D02*
X254050356Y-117490390D01*
X254050356Y-117490390D02*
X254097975Y-117442771D01*
X254097975Y-117442771D02*
X254145594Y-117347533D01*
X254145594Y-117347533D02*
X254145594Y-117252295D01*
X254145594Y-117252295D02*
X254097975Y-117157057D01*
X254097975Y-117157057D02*
X254050356Y-117109438D01*
X254050356Y-117109438D02*
X253955118Y-117061819D01*
X253955118Y-117061819D02*
X253717023Y-117061819D01*
X253717023Y-117061819D02*
X253574166Y-117109438D01*
X253240832Y-117061819D02*
X252621785Y-117061819D01*
X252621785Y-117061819D02*
X252955118Y-117442771D01*
X252955118Y-117442771D02*
X252812261Y-117442771D01*
X252812261Y-117442771D02*
X252717023Y-117490390D01*
X252717023Y-117490390D02*
X252669404Y-117538009D01*
X252669404Y-117538009D02*
X252621785Y-117633247D01*
X252621785Y-117633247D02*
X252621785Y-117871342D01*
X252621785Y-117871342D02*
X252669404Y-117966580D01*
X252669404Y-117966580D02*
X252717023Y-118014200D01*
X252717023Y-118014200D02*
X252812261Y-118061819D01*
X252812261Y-118061819D02*
X253097975Y-118061819D01*
X253097975Y-118061819D02*
X253193213Y-118014200D01*
X253193213Y-118014200D02*
X253240832Y-117966580D01*
X252288451Y-117061819D02*
X251669404Y-117061819D01*
X251669404Y-117061819D02*
X252002737Y-117442771D01*
X252002737Y-117442771D02*
X251859880Y-117442771D01*
X251859880Y-117442771D02*
X251764642Y-117490390D01*
X251764642Y-117490390D02*
X251717023Y-117538009D01*
X251717023Y-117538009D02*
X251669404Y-117633247D01*
X251669404Y-117633247D02*
X251669404Y-117871342D01*
X251669404Y-117871342D02*
X251717023Y-117966580D01*
X251717023Y-117966580D02*
X251764642Y-118014200D01*
X251764642Y-118014200D02*
X251859880Y-118061819D01*
X251859880Y-118061819D02*
X252145594Y-118061819D01*
X252145594Y-118061819D02*
X252240832Y-118014200D01*
X252240832Y-118014200D02*
X252288451Y-117966580D01*
X189963594Y-194014200D02*
X189820737Y-194061819D01*
X189820737Y-194061819D02*
X189582642Y-194061819D01*
X189582642Y-194061819D02*
X189487404Y-194014200D01*
X189487404Y-194014200D02*
X189439785Y-193966580D01*
X189439785Y-193966580D02*
X189392166Y-193871342D01*
X189392166Y-193871342D02*
X189392166Y-193776104D01*
X189392166Y-193776104D02*
X189439785Y-193680866D01*
X189439785Y-193680866D02*
X189487404Y-193633247D01*
X189487404Y-193633247D02*
X189582642Y-193585628D01*
X189582642Y-193585628D02*
X189773118Y-193538009D01*
X189773118Y-193538009D02*
X189868356Y-193490390D01*
X189868356Y-193490390D02*
X189915975Y-193442771D01*
X189915975Y-193442771D02*
X189963594Y-193347533D01*
X189963594Y-193347533D02*
X189963594Y-193252295D01*
X189963594Y-193252295D02*
X189915975Y-193157057D01*
X189915975Y-193157057D02*
X189868356Y-193109438D01*
X189868356Y-193109438D02*
X189773118Y-193061819D01*
X189773118Y-193061819D02*
X189535023Y-193061819D01*
X189535023Y-193061819D02*
X189392166Y-193109438D01*
X189058832Y-193061819D02*
X188439785Y-193061819D01*
X188439785Y-193061819D02*
X188773118Y-193442771D01*
X188773118Y-193442771D02*
X188630261Y-193442771D01*
X188630261Y-193442771D02*
X188535023Y-193490390D01*
X188535023Y-193490390D02*
X188487404Y-193538009D01*
X188487404Y-193538009D02*
X188439785Y-193633247D01*
X188439785Y-193633247D02*
X188439785Y-193871342D01*
X188439785Y-193871342D02*
X188487404Y-193966580D01*
X188487404Y-193966580D02*
X188535023Y-194014200D01*
X188535023Y-194014200D02*
X188630261Y-194061819D01*
X188630261Y-194061819D02*
X188915975Y-194061819D01*
X188915975Y-194061819D02*
X189011213Y-194014200D01*
X189011213Y-194014200D02*
X189058832Y-193966580D01*
X187487404Y-194061819D02*
X188058832Y-194061819D01*
X187773118Y-194061819D02*
X187773118Y-193061819D01*
X187773118Y-193061819D02*
X187868356Y-193204676D01*
X187868356Y-193204676D02*
X187963594Y-193299914D01*
X187963594Y-193299914D02*
X188058832Y-193347533D01*
X125931904Y-137014200D02*
X125789047Y-137061819D01*
X125789047Y-137061819D02*
X125550952Y-137061819D01*
X125550952Y-137061819D02*
X125455714Y-137014200D01*
X125455714Y-137014200D02*
X125408095Y-136966580D01*
X125408095Y-136966580D02*
X125360476Y-136871342D01*
X125360476Y-136871342D02*
X125360476Y-136776104D01*
X125360476Y-136776104D02*
X125408095Y-136680866D01*
X125408095Y-136680866D02*
X125455714Y-136633247D01*
X125455714Y-136633247D02*
X125550952Y-136585628D01*
X125550952Y-136585628D02*
X125741428Y-136538009D01*
X125741428Y-136538009D02*
X125836666Y-136490390D01*
X125836666Y-136490390D02*
X125884285Y-136442771D01*
X125884285Y-136442771D02*
X125931904Y-136347533D01*
X125931904Y-136347533D02*
X125931904Y-136252295D01*
X125931904Y-136252295D02*
X125884285Y-136157057D01*
X125884285Y-136157057D02*
X125836666Y-136109438D01*
X125836666Y-136109438D02*
X125741428Y-136061819D01*
X125741428Y-136061819D02*
X125503333Y-136061819D01*
X125503333Y-136061819D02*
X125360476Y-136109438D01*
X124789047Y-136490390D02*
X124884285Y-136442771D01*
X124884285Y-136442771D02*
X124931904Y-136395152D01*
X124931904Y-136395152D02*
X124979523Y-136299914D01*
X124979523Y-136299914D02*
X124979523Y-136252295D01*
X124979523Y-136252295D02*
X124931904Y-136157057D01*
X124931904Y-136157057D02*
X124884285Y-136109438D01*
X124884285Y-136109438D02*
X124789047Y-136061819D01*
X124789047Y-136061819D02*
X124598571Y-136061819D01*
X124598571Y-136061819D02*
X124503333Y-136109438D01*
X124503333Y-136109438D02*
X124455714Y-136157057D01*
X124455714Y-136157057D02*
X124408095Y-136252295D01*
X124408095Y-136252295D02*
X124408095Y-136299914D01*
X124408095Y-136299914D02*
X124455714Y-136395152D01*
X124455714Y-136395152D02*
X124503333Y-136442771D01*
X124503333Y-136442771D02*
X124598571Y-136490390D01*
X124598571Y-136490390D02*
X124789047Y-136490390D01*
X124789047Y-136490390D02*
X124884285Y-136538009D01*
X124884285Y-136538009D02*
X124931904Y-136585628D01*
X124931904Y-136585628D02*
X124979523Y-136680866D01*
X124979523Y-136680866D02*
X124979523Y-136871342D01*
X124979523Y-136871342D02*
X124931904Y-136966580D01*
X124931904Y-136966580D02*
X124884285Y-137014200D01*
X124884285Y-137014200D02*
X124789047Y-137061819D01*
X124789047Y-137061819D02*
X124598571Y-137061819D01*
X124598571Y-137061819D02*
X124503333Y-137014200D01*
X124503333Y-137014200D02*
X124455714Y-136966580D01*
X124455714Y-136966580D02*
X124408095Y-136871342D01*
X124408095Y-136871342D02*
X124408095Y-136680866D01*
X124408095Y-136680866D02*
X124455714Y-136585628D01*
X124455714Y-136585628D02*
X124503333Y-136538009D01*
X124503333Y-136538009D02*
X124598571Y-136490390D01*
X236317094Y-156014200D02*
X236174237Y-156061819D01*
X236174237Y-156061819D02*
X235936142Y-156061819D01*
X235936142Y-156061819D02*
X235840904Y-156014200D01*
X235840904Y-156014200D02*
X235793285Y-155966580D01*
X235793285Y-155966580D02*
X235745666Y-155871342D01*
X235745666Y-155871342D02*
X235745666Y-155776104D01*
X235745666Y-155776104D02*
X235793285Y-155680866D01*
X235793285Y-155680866D02*
X235840904Y-155633247D01*
X235840904Y-155633247D02*
X235936142Y-155585628D01*
X235936142Y-155585628D02*
X236126618Y-155538009D01*
X236126618Y-155538009D02*
X236221856Y-155490390D01*
X236221856Y-155490390D02*
X236269475Y-155442771D01*
X236269475Y-155442771D02*
X236317094Y-155347533D01*
X236317094Y-155347533D02*
X236317094Y-155252295D01*
X236317094Y-155252295D02*
X236269475Y-155157057D01*
X236269475Y-155157057D02*
X236221856Y-155109438D01*
X236221856Y-155109438D02*
X236126618Y-155061819D01*
X236126618Y-155061819D02*
X235888523Y-155061819D01*
X235888523Y-155061819D02*
X235745666Y-155109438D01*
X235364713Y-155157057D02*
X235317094Y-155109438D01*
X235317094Y-155109438D02*
X235221856Y-155061819D01*
X235221856Y-155061819D02*
X234983761Y-155061819D01*
X234983761Y-155061819D02*
X234888523Y-155109438D01*
X234888523Y-155109438D02*
X234840904Y-155157057D01*
X234840904Y-155157057D02*
X234793285Y-155252295D01*
X234793285Y-155252295D02*
X234793285Y-155347533D01*
X234793285Y-155347533D02*
X234840904Y-155490390D01*
X234840904Y-155490390D02*
X235412332Y-156061819D01*
X235412332Y-156061819D02*
X234793285Y-156061819D01*
X234174237Y-155061819D02*
X234078999Y-155061819D01*
X234078999Y-155061819D02*
X233983761Y-155109438D01*
X233983761Y-155109438D02*
X233936142Y-155157057D01*
X233936142Y-155157057D02*
X233888523Y-155252295D01*
X233888523Y-155252295D02*
X233840904Y-155442771D01*
X233840904Y-155442771D02*
X233840904Y-155680866D01*
X233840904Y-155680866D02*
X233888523Y-155871342D01*
X233888523Y-155871342D02*
X233936142Y-155966580D01*
X233936142Y-155966580D02*
X233983761Y-156014200D01*
X233983761Y-156014200D02*
X234078999Y-156061819D01*
X234078999Y-156061819D02*
X234174237Y-156061819D01*
X234174237Y-156061819D02*
X234269475Y-156014200D01*
X234269475Y-156014200D02*
X234317094Y-155966580D01*
X234317094Y-155966580D02*
X234364713Y-155871342D01*
X234364713Y-155871342D02*
X234412332Y-155680866D01*
X234412332Y-155680866D02*
X234412332Y-155442771D01*
X234412332Y-155442771D02*
X234364713Y-155252295D01*
X234364713Y-155252295D02*
X234317094Y-155157057D01*
X234317094Y-155157057D02*
X234269475Y-155109438D01*
X234269475Y-155109438D02*
X234174237Y-155061819D01*
X188792094Y-137014200D02*
X188649237Y-137061819D01*
X188649237Y-137061819D02*
X188411142Y-137061819D01*
X188411142Y-137061819D02*
X188315904Y-137014200D01*
X188315904Y-137014200D02*
X188268285Y-136966580D01*
X188268285Y-136966580D02*
X188220666Y-136871342D01*
X188220666Y-136871342D02*
X188220666Y-136776104D01*
X188220666Y-136776104D02*
X188268285Y-136680866D01*
X188268285Y-136680866D02*
X188315904Y-136633247D01*
X188315904Y-136633247D02*
X188411142Y-136585628D01*
X188411142Y-136585628D02*
X188601618Y-136538009D01*
X188601618Y-136538009D02*
X188696856Y-136490390D01*
X188696856Y-136490390D02*
X188744475Y-136442771D01*
X188744475Y-136442771D02*
X188792094Y-136347533D01*
X188792094Y-136347533D02*
X188792094Y-136252295D01*
X188792094Y-136252295D02*
X188744475Y-136157057D01*
X188744475Y-136157057D02*
X188696856Y-136109438D01*
X188696856Y-136109438D02*
X188601618Y-136061819D01*
X188601618Y-136061819D02*
X188363523Y-136061819D01*
X188363523Y-136061819D02*
X188220666Y-136109438D01*
X187268285Y-137061819D02*
X187839713Y-137061819D01*
X187553999Y-137061819D02*
X187553999Y-136061819D01*
X187553999Y-136061819D02*
X187649237Y-136204676D01*
X187649237Y-136204676D02*
X187744475Y-136299914D01*
X187744475Y-136299914D02*
X187839713Y-136347533D01*
X186315904Y-137061819D02*
X186887332Y-137061819D01*
X186601618Y-137061819D02*
X186601618Y-136061819D01*
X186601618Y-136061819D02*
X186696856Y-136204676D01*
X186696856Y-136204676D02*
X186792094Y-136299914D01*
X186792094Y-136299914D02*
X186887332Y-136347533D01*
X215669404Y-118014200D02*
X215526547Y-118061819D01*
X215526547Y-118061819D02*
X215288452Y-118061819D01*
X215288452Y-118061819D02*
X215193214Y-118014200D01*
X215193214Y-118014200D02*
X215145595Y-117966580D01*
X215145595Y-117966580D02*
X215097976Y-117871342D01*
X215097976Y-117871342D02*
X215097976Y-117776104D01*
X215097976Y-117776104D02*
X215145595Y-117680866D01*
X215145595Y-117680866D02*
X215193214Y-117633247D01*
X215193214Y-117633247D02*
X215288452Y-117585628D01*
X215288452Y-117585628D02*
X215478928Y-117538009D01*
X215478928Y-117538009D02*
X215574166Y-117490390D01*
X215574166Y-117490390D02*
X215621785Y-117442771D01*
X215621785Y-117442771D02*
X215669404Y-117347533D01*
X215669404Y-117347533D02*
X215669404Y-117252295D01*
X215669404Y-117252295D02*
X215621785Y-117157057D01*
X215621785Y-117157057D02*
X215574166Y-117109438D01*
X215574166Y-117109438D02*
X215478928Y-117061819D01*
X215478928Y-117061819D02*
X215240833Y-117061819D01*
X215240833Y-117061819D02*
X215097976Y-117109438D01*
X214240833Y-117061819D02*
X214431309Y-117061819D01*
X214431309Y-117061819D02*
X214526547Y-117109438D01*
X214526547Y-117109438D02*
X214574166Y-117157057D01*
X214574166Y-117157057D02*
X214669404Y-117299914D01*
X214669404Y-117299914D02*
X214717023Y-117490390D01*
X214717023Y-117490390D02*
X214717023Y-117871342D01*
X214717023Y-117871342D02*
X214669404Y-117966580D01*
X214669404Y-117966580D02*
X214621785Y-118014200D01*
X214621785Y-118014200D02*
X214526547Y-118061819D01*
X214526547Y-118061819D02*
X214336071Y-118061819D01*
X214336071Y-118061819D02*
X214240833Y-118014200D01*
X214240833Y-118014200D02*
X214193214Y-117966580D01*
X214193214Y-117966580D02*
X214145595Y-117871342D01*
X214145595Y-117871342D02*
X214145595Y-117633247D01*
X214145595Y-117633247D02*
X214193214Y-117538009D01*
X214193214Y-117538009D02*
X214240833Y-117490390D01*
X214240833Y-117490390D02*
X214336071Y-117442771D01*
X214336071Y-117442771D02*
X214526547Y-117442771D01*
X214526547Y-117442771D02*
X214621785Y-117490390D01*
X214621785Y-117490390D02*
X214669404Y-117538009D01*
X214669404Y-117538009D02*
X214717023Y-117633247D01*
X177240833Y-98986009D02*
X177574166Y-98986009D01*
X177574166Y-99509819D02*
X177574166Y-98509819D01*
X177574166Y-98509819D02*
X177097976Y-98509819D01*
X176812261Y-98509819D02*
X176193214Y-98509819D01*
X176193214Y-98509819D02*
X176526547Y-98890771D01*
X176526547Y-98890771D02*
X176383690Y-98890771D01*
X176383690Y-98890771D02*
X176288452Y-98938390D01*
X176288452Y-98938390D02*
X176240833Y-98986009D01*
X176240833Y-98986009D02*
X176193214Y-99081247D01*
X176193214Y-99081247D02*
X176193214Y-99319342D01*
X176193214Y-99319342D02*
X176240833Y-99414580D01*
X176240833Y-99414580D02*
X176288452Y-99462200D01*
X176288452Y-99462200D02*
X176383690Y-99509819D01*
X176383690Y-99509819D02*
X176669404Y-99509819D01*
X176669404Y-99509819D02*
X176764642Y-99462200D01*
X176764642Y-99462200D02*
X176812261Y-99414580D01*
X139240833Y-98986009D02*
X139574166Y-98986009D01*
X139574166Y-99509819D02*
X139574166Y-98509819D01*
X139574166Y-98509819D02*
X139097976Y-98509819D01*
X138193214Y-99509819D02*
X138764642Y-99509819D01*
X138478928Y-99509819D02*
X138478928Y-98509819D01*
X138478928Y-98509819D02*
X138574166Y-98652676D01*
X138574166Y-98652676D02*
X138669404Y-98747914D01*
X138669404Y-98747914D02*
X138764642Y-98795533D01*
X121145594Y-99462200D02*
X121002737Y-99509819D01*
X121002737Y-99509819D02*
X120764642Y-99509819D01*
X120764642Y-99509819D02*
X120669404Y-99462200D01*
X120669404Y-99462200D02*
X120621785Y-99414580D01*
X120621785Y-99414580D02*
X120574166Y-99319342D01*
X120574166Y-99319342D02*
X120574166Y-99224104D01*
X120574166Y-99224104D02*
X120621785Y-99128866D01*
X120621785Y-99128866D02*
X120669404Y-99081247D01*
X120669404Y-99081247D02*
X120764642Y-99033628D01*
X120764642Y-99033628D02*
X120955118Y-98986009D01*
X120955118Y-98986009D02*
X121050356Y-98938390D01*
X121050356Y-98938390D02*
X121097975Y-98890771D01*
X121097975Y-98890771D02*
X121145594Y-98795533D01*
X121145594Y-98795533D02*
X121145594Y-98700295D01*
X121145594Y-98700295D02*
X121097975Y-98605057D01*
X121097975Y-98605057D02*
X121050356Y-98557438D01*
X121050356Y-98557438D02*
X120955118Y-98509819D01*
X120955118Y-98509819D02*
X120717023Y-98509819D01*
X120717023Y-98509819D02*
X120574166Y-98557438D01*
X120240832Y-98509819D02*
X119621785Y-98509819D01*
X119621785Y-98509819D02*
X119955118Y-98890771D01*
X119955118Y-98890771D02*
X119812261Y-98890771D01*
X119812261Y-98890771D02*
X119717023Y-98938390D01*
X119717023Y-98938390D02*
X119669404Y-98986009D01*
X119669404Y-98986009D02*
X119621785Y-99081247D01*
X119621785Y-99081247D02*
X119621785Y-99319342D01*
X119621785Y-99319342D02*
X119669404Y-99414580D01*
X119669404Y-99414580D02*
X119717023Y-99462200D01*
X119717023Y-99462200D02*
X119812261Y-99509819D01*
X119812261Y-99509819D02*
X120097975Y-99509819D01*
X120097975Y-99509819D02*
X120193213Y-99462200D01*
X120193213Y-99462200D02*
X120240832Y-99414580D01*
X118717023Y-98509819D02*
X119193213Y-98509819D01*
X119193213Y-98509819D02*
X119240832Y-98986009D01*
X119240832Y-98986009D02*
X119193213Y-98938390D01*
X119193213Y-98938390D02*
X119097975Y-98890771D01*
X119097975Y-98890771D02*
X118859880Y-98890771D01*
X118859880Y-98890771D02*
X118764642Y-98938390D01*
X118764642Y-98938390D02*
X118717023Y-98986009D01*
X118717023Y-98986009D02*
X118669404Y-99081247D01*
X118669404Y-99081247D02*
X118669404Y-99319342D01*
X118669404Y-99319342D02*
X118717023Y-99414580D01*
X118717023Y-99414580D02*
X118764642Y-99462200D01*
X118764642Y-99462200D02*
X118859880Y-99509819D01*
X118859880Y-99509819D02*
X119097975Y-99509819D01*
X119097975Y-99509819D02*
X119193213Y-99462200D01*
X119193213Y-99462200D02*
X119240832Y-99414580D01*
X177669404Y-118014200D02*
X177526547Y-118061819D01*
X177526547Y-118061819D02*
X177288452Y-118061819D01*
X177288452Y-118061819D02*
X177193214Y-118014200D01*
X177193214Y-118014200D02*
X177145595Y-117966580D01*
X177145595Y-117966580D02*
X177097976Y-117871342D01*
X177097976Y-117871342D02*
X177097976Y-117776104D01*
X177097976Y-117776104D02*
X177145595Y-117680866D01*
X177145595Y-117680866D02*
X177193214Y-117633247D01*
X177193214Y-117633247D02*
X177288452Y-117585628D01*
X177288452Y-117585628D02*
X177478928Y-117538009D01*
X177478928Y-117538009D02*
X177574166Y-117490390D01*
X177574166Y-117490390D02*
X177621785Y-117442771D01*
X177621785Y-117442771D02*
X177669404Y-117347533D01*
X177669404Y-117347533D02*
X177669404Y-117252295D01*
X177669404Y-117252295D02*
X177621785Y-117157057D01*
X177621785Y-117157057D02*
X177574166Y-117109438D01*
X177574166Y-117109438D02*
X177478928Y-117061819D01*
X177478928Y-117061819D02*
X177240833Y-117061819D01*
X177240833Y-117061819D02*
X177097976Y-117109438D01*
X176240833Y-117395152D02*
X176240833Y-118061819D01*
X176478928Y-117014200D02*
X176717023Y-117728485D01*
X176717023Y-117728485D02*
X176097976Y-117728485D01*
X158669404Y-118014200D02*
X158526547Y-118061819D01*
X158526547Y-118061819D02*
X158288452Y-118061819D01*
X158288452Y-118061819D02*
X158193214Y-118014200D01*
X158193214Y-118014200D02*
X158145595Y-117966580D01*
X158145595Y-117966580D02*
X158097976Y-117871342D01*
X158097976Y-117871342D02*
X158097976Y-117776104D01*
X158097976Y-117776104D02*
X158145595Y-117680866D01*
X158145595Y-117680866D02*
X158193214Y-117633247D01*
X158193214Y-117633247D02*
X158288452Y-117585628D01*
X158288452Y-117585628D02*
X158478928Y-117538009D01*
X158478928Y-117538009D02*
X158574166Y-117490390D01*
X158574166Y-117490390D02*
X158621785Y-117442771D01*
X158621785Y-117442771D02*
X158669404Y-117347533D01*
X158669404Y-117347533D02*
X158669404Y-117252295D01*
X158669404Y-117252295D02*
X158621785Y-117157057D01*
X158621785Y-117157057D02*
X158574166Y-117109438D01*
X158574166Y-117109438D02*
X158478928Y-117061819D01*
X158478928Y-117061819D02*
X158240833Y-117061819D01*
X158240833Y-117061819D02*
X158097976Y-117109438D01*
X157764642Y-117061819D02*
X157145595Y-117061819D01*
X157145595Y-117061819D02*
X157478928Y-117442771D01*
X157478928Y-117442771D02*
X157336071Y-117442771D01*
X157336071Y-117442771D02*
X157240833Y-117490390D01*
X157240833Y-117490390D02*
X157193214Y-117538009D01*
X157193214Y-117538009D02*
X157145595Y-117633247D01*
X157145595Y-117633247D02*
X157145595Y-117871342D01*
X157145595Y-117871342D02*
X157193214Y-117966580D01*
X157193214Y-117966580D02*
X157240833Y-118014200D01*
X157240833Y-118014200D02*
X157336071Y-118061819D01*
X157336071Y-118061819D02*
X157621785Y-118061819D01*
X157621785Y-118061819D02*
X157717023Y-118014200D01*
X157717023Y-118014200D02*
X157764642Y-117966580D01*
X260312262Y-98986009D02*
X259978929Y-98986009D01*
X259836072Y-99509819D02*
X260312262Y-99509819D01*
X260312262Y-99509819D02*
X260312262Y-98509819D01*
X260312262Y-98509819D02*
X259836072Y-98509819D01*
X259502738Y-99509819D02*
X258978929Y-98843152D01*
X259502738Y-98843152D02*
X258978929Y-99509819D01*
X258740833Y-98843152D02*
X258359881Y-98843152D01*
X258597976Y-98509819D02*
X258597976Y-99366961D01*
X258597976Y-99366961D02*
X258550357Y-99462200D01*
X258550357Y-99462200D02*
X258455119Y-99509819D01*
X258455119Y-99509819D02*
X258359881Y-99509819D01*
X258026547Y-99509819D02*
X258026547Y-98843152D01*
X258026547Y-99033628D02*
X257978928Y-98938390D01*
X257978928Y-98938390D02*
X257931309Y-98890771D01*
X257931309Y-98890771D02*
X257836071Y-98843152D01*
X257836071Y-98843152D02*
X257740833Y-98843152D01*
X256978928Y-99509819D02*
X256978928Y-98986009D01*
X256978928Y-98986009D02*
X257026547Y-98890771D01*
X257026547Y-98890771D02*
X257121785Y-98843152D01*
X257121785Y-98843152D02*
X257312261Y-98843152D01*
X257312261Y-98843152D02*
X257407499Y-98890771D01*
X256978928Y-99462200D02*
X257074166Y-99509819D01*
X257074166Y-99509819D02*
X257312261Y-99509819D01*
X257312261Y-99509819D02*
X257407499Y-99462200D01*
X257407499Y-99462200D02*
X257455118Y-99366961D01*
X257455118Y-99366961D02*
X257455118Y-99271723D01*
X257455118Y-99271723D02*
X257407499Y-99176485D01*
X257407499Y-99176485D02*
X257312261Y-99128866D01*
X257312261Y-99128866D02*
X257074166Y-99128866D01*
X257074166Y-99128866D02*
X256978928Y-99081247D01*
X256740833Y-99605057D02*
X255978928Y-99605057D01*
X255407499Y-98986009D02*
X255740832Y-98986009D01*
X255740832Y-99509819D02*
X255740832Y-98509819D01*
X255740832Y-98509819D02*
X255264642Y-98509819D01*
X254455118Y-98843152D02*
X254455118Y-99509819D01*
X254883689Y-98843152D02*
X254883689Y-99366961D01*
X254883689Y-99366961D02*
X254836070Y-99462200D01*
X254836070Y-99462200D02*
X254740832Y-99509819D01*
X254740832Y-99509819D02*
X254597975Y-99509819D01*
X254597975Y-99509819D02*
X254502737Y-99462200D01*
X254502737Y-99462200D02*
X254455118Y-99414580D01*
X253978927Y-98843152D02*
X253978927Y-99509819D01*
X253978927Y-98938390D02*
X253931308Y-98890771D01*
X253931308Y-98890771D02*
X253836070Y-98843152D01*
X253836070Y-98843152D02*
X253693213Y-98843152D01*
X253693213Y-98843152D02*
X253597975Y-98890771D01*
X253597975Y-98890771D02*
X253550356Y-98986009D01*
X253550356Y-98986009D02*
X253550356Y-99509819D01*
X252645594Y-99462200D02*
X252740832Y-99509819D01*
X252740832Y-99509819D02*
X252931308Y-99509819D01*
X252931308Y-99509819D02*
X253026546Y-99462200D01*
X253026546Y-99462200D02*
X253074165Y-99414580D01*
X253074165Y-99414580D02*
X253121784Y-99319342D01*
X253121784Y-99319342D02*
X253121784Y-99033628D01*
X253121784Y-99033628D02*
X253074165Y-98938390D01*
X253074165Y-98938390D02*
X253026546Y-98890771D01*
X253026546Y-98890771D02*
X252931308Y-98843152D01*
X252931308Y-98843152D02*
X252740832Y-98843152D01*
X252740832Y-98843152D02*
X252645594Y-98890771D01*
X252359879Y-98843152D02*
X251978927Y-98843152D01*
X252217022Y-98509819D02*
X252217022Y-99366961D01*
X252217022Y-99366961D02*
X252169403Y-99462200D01*
X252169403Y-99462200D02*
X252074165Y-99509819D01*
X252074165Y-99509819D02*
X251978927Y-99509819D01*
X251645593Y-99509819D02*
X251645593Y-98843152D01*
X251645593Y-98509819D02*
X251693212Y-98557438D01*
X251693212Y-98557438D02*
X251645593Y-98605057D01*
X251645593Y-98605057D02*
X251597974Y-98557438D01*
X251597974Y-98557438D02*
X251645593Y-98509819D01*
X251645593Y-98509819D02*
X251645593Y-98605057D01*
X251026546Y-99509819D02*
X251121784Y-99462200D01*
X251121784Y-99462200D02*
X251169403Y-99414580D01*
X251169403Y-99414580D02*
X251217022Y-99319342D01*
X251217022Y-99319342D02*
X251217022Y-99033628D01*
X251217022Y-99033628D02*
X251169403Y-98938390D01*
X251169403Y-98938390D02*
X251121784Y-98890771D01*
X251121784Y-98890771D02*
X251026546Y-98843152D01*
X251026546Y-98843152D02*
X250883689Y-98843152D01*
X250883689Y-98843152D02*
X250788451Y-98890771D01*
X250788451Y-98890771D02*
X250740832Y-98938390D01*
X250740832Y-98938390D02*
X250693213Y-99033628D01*
X250693213Y-99033628D02*
X250693213Y-99319342D01*
X250693213Y-99319342D02*
X250740832Y-99414580D01*
X250740832Y-99414580D02*
X250788451Y-99462200D01*
X250788451Y-99462200D02*
X250883689Y-99509819D01*
X250883689Y-99509819D02*
X251026546Y-99509819D01*
X250264641Y-98843152D02*
X250264641Y-99509819D01*
X250264641Y-98938390D02*
X250217022Y-98890771D01*
X250217022Y-98890771D02*
X250121784Y-98843152D01*
X250121784Y-98843152D02*
X249978927Y-98843152D01*
X249978927Y-98843152D02*
X249883689Y-98890771D01*
X249883689Y-98890771D02*
X249836070Y-98986009D01*
X249836070Y-98986009D02*
X249836070Y-99509819D01*
X249597975Y-99605057D02*
X248836070Y-99605057D01*
X248597974Y-99509819D02*
X248597974Y-98509819D01*
X248026546Y-99509819D02*
X248455117Y-98938390D01*
X248026546Y-98509819D02*
X248597974Y-99081247D01*
X247217022Y-99462200D02*
X247312260Y-99509819D01*
X247312260Y-99509819D02*
X247502736Y-99509819D01*
X247502736Y-99509819D02*
X247597974Y-99462200D01*
X247597974Y-99462200D02*
X247645593Y-99366961D01*
X247645593Y-99366961D02*
X247645593Y-98986009D01*
X247645593Y-98986009D02*
X247597974Y-98890771D01*
X247597974Y-98890771D02*
X247502736Y-98843152D01*
X247502736Y-98843152D02*
X247312260Y-98843152D01*
X247312260Y-98843152D02*
X247217022Y-98890771D01*
X247217022Y-98890771D02*
X247169403Y-98986009D01*
X247169403Y-98986009D02*
X247169403Y-99081247D01*
X247169403Y-99081247D02*
X247645593Y-99176485D01*
X246836069Y-98843152D02*
X246597974Y-99509819D01*
X246359879Y-98843152D02*
X246597974Y-99509819D01*
X246597974Y-99509819D02*
X246693212Y-99747914D01*
X246693212Y-99747914D02*
X246740831Y-99795533D01*
X246740831Y-99795533D02*
X246836069Y-99843152D01*
X245455117Y-99509819D02*
X246026545Y-99509819D01*
X245740831Y-99509819D02*
X245740831Y-98509819D01*
X245740831Y-98509819D02*
X245836069Y-98652676D01*
X245836069Y-98652676D02*
X245931307Y-98747914D01*
X245931307Y-98747914D02*
X246026545Y-98795533D01*
X234240833Y-98986009D02*
X234574166Y-98986009D01*
X234574166Y-99509819D02*
X234574166Y-98509819D01*
X234574166Y-98509819D02*
X234097976Y-98509819D01*
X233288452Y-98509819D02*
X233478928Y-98509819D01*
X233478928Y-98509819D02*
X233574166Y-98557438D01*
X233574166Y-98557438D02*
X233621785Y-98605057D01*
X233621785Y-98605057D02*
X233717023Y-98747914D01*
X233717023Y-98747914D02*
X233764642Y-98938390D01*
X233764642Y-98938390D02*
X233764642Y-99319342D01*
X233764642Y-99319342D02*
X233717023Y-99414580D01*
X233717023Y-99414580D02*
X233669404Y-99462200D01*
X233669404Y-99462200D02*
X233574166Y-99509819D01*
X233574166Y-99509819D02*
X233383690Y-99509819D01*
X233383690Y-99509819D02*
X233288452Y-99462200D01*
X233288452Y-99462200D02*
X233240833Y-99414580D01*
X233240833Y-99414580D02*
X233193214Y-99319342D01*
X233193214Y-99319342D02*
X233193214Y-99081247D01*
X233193214Y-99081247D02*
X233240833Y-98986009D01*
X233240833Y-98986009D02*
X233288452Y-98938390D01*
X233288452Y-98938390D02*
X233383690Y-98890771D01*
X233383690Y-98890771D02*
X233574166Y-98890771D01*
X233574166Y-98890771D02*
X233669404Y-98938390D01*
X233669404Y-98938390D02*
X233717023Y-98986009D01*
X233717023Y-98986009D02*
X233764642Y-99081247D01*
X196669404Y-118014200D02*
X196526547Y-118061819D01*
X196526547Y-118061819D02*
X196288452Y-118061819D01*
X196288452Y-118061819D02*
X196193214Y-118014200D01*
X196193214Y-118014200D02*
X196145595Y-117966580D01*
X196145595Y-117966580D02*
X196097976Y-117871342D01*
X196097976Y-117871342D02*
X196097976Y-117776104D01*
X196097976Y-117776104D02*
X196145595Y-117680866D01*
X196145595Y-117680866D02*
X196193214Y-117633247D01*
X196193214Y-117633247D02*
X196288452Y-117585628D01*
X196288452Y-117585628D02*
X196478928Y-117538009D01*
X196478928Y-117538009D02*
X196574166Y-117490390D01*
X196574166Y-117490390D02*
X196621785Y-117442771D01*
X196621785Y-117442771D02*
X196669404Y-117347533D01*
X196669404Y-117347533D02*
X196669404Y-117252295D01*
X196669404Y-117252295D02*
X196621785Y-117157057D01*
X196621785Y-117157057D02*
X196574166Y-117109438D01*
X196574166Y-117109438D02*
X196478928Y-117061819D01*
X196478928Y-117061819D02*
X196240833Y-117061819D01*
X196240833Y-117061819D02*
X196097976Y-117109438D01*
X195193214Y-117061819D02*
X195669404Y-117061819D01*
X195669404Y-117061819D02*
X195717023Y-117538009D01*
X195717023Y-117538009D02*
X195669404Y-117490390D01*
X195669404Y-117490390D02*
X195574166Y-117442771D01*
X195574166Y-117442771D02*
X195336071Y-117442771D01*
X195336071Y-117442771D02*
X195240833Y-117490390D01*
X195240833Y-117490390D02*
X195193214Y-117538009D01*
X195193214Y-117538009D02*
X195145595Y-117633247D01*
X195145595Y-117633247D02*
X195145595Y-117871342D01*
X195145595Y-117871342D02*
X195193214Y-117966580D01*
X195193214Y-117966580D02*
X195240833Y-118014200D01*
X195240833Y-118014200D02*
X195336071Y-118061819D01*
X195336071Y-118061819D02*
X195574166Y-118061819D01*
X195574166Y-118061819D02*
X195669404Y-118014200D01*
X195669404Y-118014200D02*
X195717023Y-117966580D01*
X207842094Y-175014200D02*
X207699237Y-175061819D01*
X207699237Y-175061819D02*
X207461142Y-175061819D01*
X207461142Y-175061819D02*
X207365904Y-175014200D01*
X207365904Y-175014200D02*
X207318285Y-174966580D01*
X207318285Y-174966580D02*
X207270666Y-174871342D01*
X207270666Y-174871342D02*
X207270666Y-174776104D01*
X207270666Y-174776104D02*
X207318285Y-174680866D01*
X207318285Y-174680866D02*
X207365904Y-174633247D01*
X207365904Y-174633247D02*
X207461142Y-174585628D01*
X207461142Y-174585628D02*
X207651618Y-174538009D01*
X207651618Y-174538009D02*
X207746856Y-174490390D01*
X207746856Y-174490390D02*
X207794475Y-174442771D01*
X207794475Y-174442771D02*
X207842094Y-174347533D01*
X207842094Y-174347533D02*
X207842094Y-174252295D01*
X207842094Y-174252295D02*
X207794475Y-174157057D01*
X207794475Y-174157057D02*
X207746856Y-174109438D01*
X207746856Y-174109438D02*
X207651618Y-174061819D01*
X207651618Y-174061819D02*
X207413523Y-174061819D01*
X207413523Y-174061819D02*
X207270666Y-174109438D01*
X206889713Y-174157057D02*
X206842094Y-174109438D01*
X206842094Y-174109438D02*
X206746856Y-174061819D01*
X206746856Y-174061819D02*
X206508761Y-174061819D01*
X206508761Y-174061819D02*
X206413523Y-174109438D01*
X206413523Y-174109438D02*
X206365904Y-174157057D01*
X206365904Y-174157057D02*
X206318285Y-174252295D01*
X206318285Y-174252295D02*
X206318285Y-174347533D01*
X206318285Y-174347533D02*
X206365904Y-174490390D01*
X206365904Y-174490390D02*
X206937332Y-175061819D01*
X206937332Y-175061819D02*
X206318285Y-175061819D01*
X205413523Y-174061819D02*
X205889713Y-174061819D01*
X205889713Y-174061819D02*
X205937332Y-174538009D01*
X205937332Y-174538009D02*
X205889713Y-174490390D01*
X205889713Y-174490390D02*
X205794475Y-174442771D01*
X205794475Y-174442771D02*
X205556380Y-174442771D01*
X205556380Y-174442771D02*
X205461142Y-174490390D01*
X205461142Y-174490390D02*
X205413523Y-174538009D01*
X205413523Y-174538009D02*
X205365904Y-174633247D01*
X205365904Y-174633247D02*
X205365904Y-174871342D01*
X205365904Y-174871342D02*
X205413523Y-174966580D01*
X205413523Y-174966580D02*
X205461142Y-175014200D01*
X205461142Y-175014200D02*
X205556380Y-175061819D01*
X205556380Y-175061819D02*
X205794475Y-175061819D01*
X205794475Y-175061819D02*
X205889713Y-175014200D01*
X205889713Y-175014200D02*
X205937332Y-174966580D01*
X234669404Y-118014200D02*
X234526547Y-118061819D01*
X234526547Y-118061819D02*
X234288452Y-118061819D01*
X234288452Y-118061819D02*
X234193214Y-118014200D01*
X234193214Y-118014200D02*
X234145595Y-117966580D01*
X234145595Y-117966580D02*
X234097976Y-117871342D01*
X234097976Y-117871342D02*
X234097976Y-117776104D01*
X234097976Y-117776104D02*
X234145595Y-117680866D01*
X234145595Y-117680866D02*
X234193214Y-117633247D01*
X234193214Y-117633247D02*
X234288452Y-117585628D01*
X234288452Y-117585628D02*
X234478928Y-117538009D01*
X234478928Y-117538009D02*
X234574166Y-117490390D01*
X234574166Y-117490390D02*
X234621785Y-117442771D01*
X234621785Y-117442771D02*
X234669404Y-117347533D01*
X234669404Y-117347533D02*
X234669404Y-117252295D01*
X234669404Y-117252295D02*
X234621785Y-117157057D01*
X234621785Y-117157057D02*
X234574166Y-117109438D01*
X234574166Y-117109438D02*
X234478928Y-117061819D01*
X234478928Y-117061819D02*
X234240833Y-117061819D01*
X234240833Y-117061819D02*
X234097976Y-117109438D01*
X233764642Y-117061819D02*
X233097976Y-117061819D01*
X233097976Y-117061819D02*
X233526547Y-118061819D01*
X120669404Y-118014200D02*
X120526547Y-118061819D01*
X120526547Y-118061819D02*
X120288452Y-118061819D01*
X120288452Y-118061819D02*
X120193214Y-118014200D01*
X120193214Y-118014200D02*
X120145595Y-117966580D01*
X120145595Y-117966580D02*
X120097976Y-117871342D01*
X120097976Y-117871342D02*
X120097976Y-117776104D01*
X120097976Y-117776104D02*
X120145595Y-117680866D01*
X120145595Y-117680866D02*
X120193214Y-117633247D01*
X120193214Y-117633247D02*
X120288452Y-117585628D01*
X120288452Y-117585628D02*
X120478928Y-117538009D01*
X120478928Y-117538009D02*
X120574166Y-117490390D01*
X120574166Y-117490390D02*
X120621785Y-117442771D01*
X120621785Y-117442771D02*
X120669404Y-117347533D01*
X120669404Y-117347533D02*
X120669404Y-117252295D01*
X120669404Y-117252295D02*
X120621785Y-117157057D01*
X120621785Y-117157057D02*
X120574166Y-117109438D01*
X120574166Y-117109438D02*
X120478928Y-117061819D01*
X120478928Y-117061819D02*
X120240833Y-117061819D01*
X120240833Y-117061819D02*
X120097976Y-117109438D01*
X119145595Y-118061819D02*
X119717023Y-118061819D01*
X119431309Y-118061819D02*
X119431309Y-117061819D01*
X119431309Y-117061819D02*
X119526547Y-117204676D01*
X119526547Y-117204676D02*
X119621785Y-117299914D01*
X119621785Y-117299914D02*
X119717023Y-117347533D01*
X158240833Y-98986009D02*
X158574166Y-98986009D01*
X158574166Y-99509819D02*
X158574166Y-98509819D01*
X158574166Y-98509819D02*
X158097976Y-98509819D01*
X157764642Y-98605057D02*
X157717023Y-98557438D01*
X157717023Y-98557438D02*
X157621785Y-98509819D01*
X157621785Y-98509819D02*
X157383690Y-98509819D01*
X157383690Y-98509819D02*
X157288452Y-98557438D01*
X157288452Y-98557438D02*
X157240833Y-98605057D01*
X157240833Y-98605057D02*
X157193214Y-98700295D01*
X157193214Y-98700295D02*
X157193214Y-98795533D01*
X157193214Y-98795533D02*
X157240833Y-98938390D01*
X157240833Y-98938390D02*
X157812261Y-99509819D01*
X157812261Y-99509819D02*
X157193214Y-99509819D01*
X207792094Y-137014200D02*
X207649237Y-137061819D01*
X207649237Y-137061819D02*
X207411142Y-137061819D01*
X207411142Y-137061819D02*
X207315904Y-137014200D01*
X207315904Y-137014200D02*
X207268285Y-136966580D01*
X207268285Y-136966580D02*
X207220666Y-136871342D01*
X207220666Y-136871342D02*
X207220666Y-136776104D01*
X207220666Y-136776104D02*
X207268285Y-136680866D01*
X207268285Y-136680866D02*
X207315904Y-136633247D01*
X207315904Y-136633247D02*
X207411142Y-136585628D01*
X207411142Y-136585628D02*
X207601618Y-136538009D01*
X207601618Y-136538009D02*
X207696856Y-136490390D01*
X207696856Y-136490390D02*
X207744475Y-136442771D01*
X207744475Y-136442771D02*
X207792094Y-136347533D01*
X207792094Y-136347533D02*
X207792094Y-136252295D01*
X207792094Y-136252295D02*
X207744475Y-136157057D01*
X207744475Y-136157057D02*
X207696856Y-136109438D01*
X207696856Y-136109438D02*
X207601618Y-136061819D01*
X207601618Y-136061819D02*
X207363523Y-136061819D01*
X207363523Y-136061819D02*
X207220666Y-136109438D01*
X206268285Y-137061819D02*
X206839713Y-137061819D01*
X206553999Y-137061819D02*
X206553999Y-136061819D01*
X206553999Y-136061819D02*
X206649237Y-136204676D01*
X206649237Y-136204676D02*
X206744475Y-136299914D01*
X206744475Y-136299914D02*
X206839713Y-136347533D01*
X205887332Y-136157057D02*
X205839713Y-136109438D01*
X205839713Y-136109438D02*
X205744475Y-136061819D01*
X205744475Y-136061819D02*
X205506380Y-136061819D01*
X205506380Y-136061819D02*
X205411142Y-136109438D01*
X205411142Y-136109438D02*
X205363523Y-136157057D01*
X205363523Y-136157057D02*
X205315904Y-136252295D01*
X205315904Y-136252295D02*
X205315904Y-136347533D01*
X205315904Y-136347533D02*
X205363523Y-136490390D01*
X205363523Y-136490390D02*
X205934951Y-137061819D01*
X205934951Y-137061819D02*
X205315904Y-137061819D01*
X188842094Y-175014200D02*
X188699237Y-175061819D01*
X188699237Y-175061819D02*
X188461142Y-175061819D01*
X188461142Y-175061819D02*
X188365904Y-175014200D01*
X188365904Y-175014200D02*
X188318285Y-174966580D01*
X188318285Y-174966580D02*
X188270666Y-174871342D01*
X188270666Y-174871342D02*
X188270666Y-174776104D01*
X188270666Y-174776104D02*
X188318285Y-174680866D01*
X188318285Y-174680866D02*
X188365904Y-174633247D01*
X188365904Y-174633247D02*
X188461142Y-174585628D01*
X188461142Y-174585628D02*
X188651618Y-174538009D01*
X188651618Y-174538009D02*
X188746856Y-174490390D01*
X188746856Y-174490390D02*
X188794475Y-174442771D01*
X188794475Y-174442771D02*
X188842094Y-174347533D01*
X188842094Y-174347533D02*
X188842094Y-174252295D01*
X188842094Y-174252295D02*
X188794475Y-174157057D01*
X188794475Y-174157057D02*
X188746856Y-174109438D01*
X188746856Y-174109438D02*
X188651618Y-174061819D01*
X188651618Y-174061819D02*
X188413523Y-174061819D01*
X188413523Y-174061819D02*
X188270666Y-174109438D01*
X187889713Y-174157057D02*
X187842094Y-174109438D01*
X187842094Y-174109438D02*
X187746856Y-174061819D01*
X187746856Y-174061819D02*
X187508761Y-174061819D01*
X187508761Y-174061819D02*
X187413523Y-174109438D01*
X187413523Y-174109438D02*
X187365904Y-174157057D01*
X187365904Y-174157057D02*
X187318285Y-174252295D01*
X187318285Y-174252295D02*
X187318285Y-174347533D01*
X187318285Y-174347533D02*
X187365904Y-174490390D01*
X187365904Y-174490390D02*
X187937332Y-175061819D01*
X187937332Y-175061819D02*
X187318285Y-175061819D01*
X186461142Y-174395152D02*
X186461142Y-175061819D01*
X186699237Y-174014200D02*
X186937332Y-174728485D01*
X186937332Y-174728485D02*
X186318285Y-174728485D01*
X139669404Y-118014200D02*
X139526547Y-118061819D01*
X139526547Y-118061819D02*
X139288452Y-118061819D01*
X139288452Y-118061819D02*
X139193214Y-118014200D01*
X139193214Y-118014200D02*
X139145595Y-117966580D01*
X139145595Y-117966580D02*
X139097976Y-117871342D01*
X139097976Y-117871342D02*
X139097976Y-117776104D01*
X139097976Y-117776104D02*
X139145595Y-117680866D01*
X139145595Y-117680866D02*
X139193214Y-117633247D01*
X139193214Y-117633247D02*
X139288452Y-117585628D01*
X139288452Y-117585628D02*
X139478928Y-117538009D01*
X139478928Y-117538009D02*
X139574166Y-117490390D01*
X139574166Y-117490390D02*
X139621785Y-117442771D01*
X139621785Y-117442771D02*
X139669404Y-117347533D01*
X139669404Y-117347533D02*
X139669404Y-117252295D01*
X139669404Y-117252295D02*
X139621785Y-117157057D01*
X139621785Y-117157057D02*
X139574166Y-117109438D01*
X139574166Y-117109438D02*
X139478928Y-117061819D01*
X139478928Y-117061819D02*
X139240833Y-117061819D01*
X139240833Y-117061819D02*
X139097976Y-117109438D01*
X138717023Y-117157057D02*
X138669404Y-117109438D01*
X138669404Y-117109438D02*
X138574166Y-117061819D01*
X138574166Y-117061819D02*
X138336071Y-117061819D01*
X138336071Y-117061819D02*
X138240833Y-117109438D01*
X138240833Y-117109438D02*
X138193214Y-117157057D01*
X138193214Y-117157057D02*
X138145595Y-117252295D01*
X138145595Y-117252295D02*
X138145595Y-117347533D01*
X138145595Y-117347533D02*
X138193214Y-117490390D01*
X138193214Y-117490390D02*
X138764642Y-118061819D01*
X138764642Y-118061819D02*
X138145595Y-118061819D01*
X160317094Y-156014200D02*
X160174237Y-156061819D01*
X160174237Y-156061819D02*
X159936142Y-156061819D01*
X159936142Y-156061819D02*
X159840904Y-156014200D01*
X159840904Y-156014200D02*
X159793285Y-155966580D01*
X159793285Y-155966580D02*
X159745666Y-155871342D01*
X159745666Y-155871342D02*
X159745666Y-155776104D01*
X159745666Y-155776104D02*
X159793285Y-155680866D01*
X159793285Y-155680866D02*
X159840904Y-155633247D01*
X159840904Y-155633247D02*
X159936142Y-155585628D01*
X159936142Y-155585628D02*
X160126618Y-155538009D01*
X160126618Y-155538009D02*
X160221856Y-155490390D01*
X160221856Y-155490390D02*
X160269475Y-155442771D01*
X160269475Y-155442771D02*
X160317094Y-155347533D01*
X160317094Y-155347533D02*
X160317094Y-155252295D01*
X160317094Y-155252295D02*
X160269475Y-155157057D01*
X160269475Y-155157057D02*
X160221856Y-155109438D01*
X160221856Y-155109438D02*
X160126618Y-155061819D01*
X160126618Y-155061819D02*
X159888523Y-155061819D01*
X159888523Y-155061819D02*
X159745666Y-155109438D01*
X158793285Y-156061819D02*
X159364713Y-156061819D01*
X159078999Y-156061819D02*
X159078999Y-155061819D01*
X159078999Y-155061819D02*
X159174237Y-155204676D01*
X159174237Y-155204676D02*
X159269475Y-155299914D01*
X159269475Y-155299914D02*
X159364713Y-155347533D01*
X157936142Y-155061819D02*
X158126618Y-155061819D01*
X158126618Y-155061819D02*
X158221856Y-155109438D01*
X158221856Y-155109438D02*
X158269475Y-155157057D01*
X158269475Y-155157057D02*
X158364713Y-155299914D01*
X158364713Y-155299914D02*
X158412332Y-155490390D01*
X158412332Y-155490390D02*
X158412332Y-155871342D01*
X158412332Y-155871342D02*
X158364713Y-155966580D01*
X158364713Y-155966580D02*
X158317094Y-156014200D01*
X158317094Y-156014200D02*
X158221856Y-156061819D01*
X158221856Y-156061819D02*
X158031380Y-156061819D01*
X158031380Y-156061819D02*
X157936142Y-156014200D01*
X157936142Y-156014200D02*
X157888523Y-155966580D01*
X157888523Y-155966580D02*
X157840904Y-155871342D01*
X157840904Y-155871342D02*
X157840904Y-155633247D01*
X157840904Y-155633247D02*
X157888523Y-155538009D01*
X157888523Y-155538009D02*
X157936142Y-155490390D01*
X157936142Y-155490390D02*
X158031380Y-155442771D01*
X158031380Y-155442771D02*
X158221856Y-155442771D01*
X158221856Y-155442771D02*
X158317094Y-155490390D01*
X158317094Y-155490390D02*
X158364713Y-155538009D01*
X158364713Y-155538009D02*
X158412332Y-155633247D01*
X255317094Y-156014200D02*
X255174237Y-156061819D01*
X255174237Y-156061819D02*
X254936142Y-156061819D01*
X254936142Y-156061819D02*
X254840904Y-156014200D01*
X254840904Y-156014200D02*
X254793285Y-155966580D01*
X254793285Y-155966580D02*
X254745666Y-155871342D01*
X254745666Y-155871342D02*
X254745666Y-155776104D01*
X254745666Y-155776104D02*
X254793285Y-155680866D01*
X254793285Y-155680866D02*
X254840904Y-155633247D01*
X254840904Y-155633247D02*
X254936142Y-155585628D01*
X254936142Y-155585628D02*
X255126618Y-155538009D01*
X255126618Y-155538009D02*
X255221856Y-155490390D01*
X255221856Y-155490390D02*
X255269475Y-155442771D01*
X255269475Y-155442771D02*
X255317094Y-155347533D01*
X255317094Y-155347533D02*
X255317094Y-155252295D01*
X255317094Y-155252295D02*
X255269475Y-155157057D01*
X255269475Y-155157057D02*
X255221856Y-155109438D01*
X255221856Y-155109438D02*
X255126618Y-155061819D01*
X255126618Y-155061819D02*
X254888523Y-155061819D01*
X254888523Y-155061819D02*
X254745666Y-155109438D01*
X254364713Y-155157057D02*
X254317094Y-155109438D01*
X254317094Y-155109438D02*
X254221856Y-155061819D01*
X254221856Y-155061819D02*
X253983761Y-155061819D01*
X253983761Y-155061819D02*
X253888523Y-155109438D01*
X253888523Y-155109438D02*
X253840904Y-155157057D01*
X253840904Y-155157057D02*
X253793285Y-155252295D01*
X253793285Y-155252295D02*
X253793285Y-155347533D01*
X253793285Y-155347533D02*
X253840904Y-155490390D01*
X253840904Y-155490390D02*
X254412332Y-156061819D01*
X254412332Y-156061819D02*
X253793285Y-156061819D01*
X252840904Y-156061819D02*
X253412332Y-156061819D01*
X253126618Y-156061819D02*
X253126618Y-155061819D01*
X253126618Y-155061819D02*
X253221856Y-155204676D01*
X253221856Y-155204676D02*
X253317094Y-155299914D01*
X253317094Y-155299914D02*
X253412332Y-155347533D01*
X226842094Y-175014200D02*
X226699237Y-175061819D01*
X226699237Y-175061819D02*
X226461142Y-175061819D01*
X226461142Y-175061819D02*
X226365904Y-175014200D01*
X226365904Y-175014200D02*
X226318285Y-174966580D01*
X226318285Y-174966580D02*
X226270666Y-174871342D01*
X226270666Y-174871342D02*
X226270666Y-174776104D01*
X226270666Y-174776104D02*
X226318285Y-174680866D01*
X226318285Y-174680866D02*
X226365904Y-174633247D01*
X226365904Y-174633247D02*
X226461142Y-174585628D01*
X226461142Y-174585628D02*
X226651618Y-174538009D01*
X226651618Y-174538009D02*
X226746856Y-174490390D01*
X226746856Y-174490390D02*
X226794475Y-174442771D01*
X226794475Y-174442771D02*
X226842094Y-174347533D01*
X226842094Y-174347533D02*
X226842094Y-174252295D01*
X226842094Y-174252295D02*
X226794475Y-174157057D01*
X226794475Y-174157057D02*
X226746856Y-174109438D01*
X226746856Y-174109438D02*
X226651618Y-174061819D01*
X226651618Y-174061819D02*
X226413523Y-174061819D01*
X226413523Y-174061819D02*
X226270666Y-174109438D01*
X225889713Y-174157057D02*
X225842094Y-174109438D01*
X225842094Y-174109438D02*
X225746856Y-174061819D01*
X225746856Y-174061819D02*
X225508761Y-174061819D01*
X225508761Y-174061819D02*
X225413523Y-174109438D01*
X225413523Y-174109438D02*
X225365904Y-174157057D01*
X225365904Y-174157057D02*
X225318285Y-174252295D01*
X225318285Y-174252295D02*
X225318285Y-174347533D01*
X225318285Y-174347533D02*
X225365904Y-174490390D01*
X225365904Y-174490390D02*
X225937332Y-175061819D01*
X225937332Y-175061819D02*
X225318285Y-175061819D01*
X224461142Y-174061819D02*
X224651618Y-174061819D01*
X224651618Y-174061819D02*
X224746856Y-174109438D01*
X224746856Y-174109438D02*
X224794475Y-174157057D01*
X224794475Y-174157057D02*
X224889713Y-174299914D01*
X224889713Y-174299914D02*
X224937332Y-174490390D01*
X224937332Y-174490390D02*
X224937332Y-174871342D01*
X224937332Y-174871342D02*
X224889713Y-174966580D01*
X224889713Y-174966580D02*
X224842094Y-175014200D01*
X224842094Y-175014200D02*
X224746856Y-175061819D01*
X224746856Y-175061819D02*
X224556380Y-175061819D01*
X224556380Y-175061819D02*
X224461142Y-175014200D01*
X224461142Y-175014200D02*
X224413523Y-174966580D01*
X224413523Y-174966580D02*
X224365904Y-174871342D01*
X224365904Y-174871342D02*
X224365904Y-174633247D01*
X224365904Y-174633247D02*
X224413523Y-174538009D01*
X224413523Y-174538009D02*
X224461142Y-174490390D01*
X224461142Y-174490390D02*
X224556380Y-174442771D01*
X224556380Y-174442771D02*
X224746856Y-174442771D01*
X224746856Y-174442771D02*
X224842094Y-174490390D01*
X224842094Y-174490390D02*
X224889713Y-174538009D01*
X224889713Y-174538009D02*
X224937332Y-174633247D01*
X179317094Y-156014200D02*
X179174237Y-156061819D01*
X179174237Y-156061819D02*
X178936142Y-156061819D01*
X178936142Y-156061819D02*
X178840904Y-156014200D01*
X178840904Y-156014200D02*
X178793285Y-155966580D01*
X178793285Y-155966580D02*
X178745666Y-155871342D01*
X178745666Y-155871342D02*
X178745666Y-155776104D01*
X178745666Y-155776104D02*
X178793285Y-155680866D01*
X178793285Y-155680866D02*
X178840904Y-155633247D01*
X178840904Y-155633247D02*
X178936142Y-155585628D01*
X178936142Y-155585628D02*
X179126618Y-155538009D01*
X179126618Y-155538009D02*
X179221856Y-155490390D01*
X179221856Y-155490390D02*
X179269475Y-155442771D01*
X179269475Y-155442771D02*
X179317094Y-155347533D01*
X179317094Y-155347533D02*
X179317094Y-155252295D01*
X179317094Y-155252295D02*
X179269475Y-155157057D01*
X179269475Y-155157057D02*
X179221856Y-155109438D01*
X179221856Y-155109438D02*
X179126618Y-155061819D01*
X179126618Y-155061819D02*
X178888523Y-155061819D01*
X178888523Y-155061819D02*
X178745666Y-155109438D01*
X177793285Y-156061819D02*
X178364713Y-156061819D01*
X178078999Y-156061819D02*
X178078999Y-155061819D01*
X178078999Y-155061819D02*
X178174237Y-155204676D01*
X178174237Y-155204676D02*
X178269475Y-155299914D01*
X178269475Y-155299914D02*
X178364713Y-155347533D01*
X177459951Y-155061819D02*
X176793285Y-155061819D01*
X176793285Y-155061819D02*
X177221856Y-156061819D01*
X198317094Y-156014200D02*
X198174237Y-156061819D01*
X198174237Y-156061819D02*
X197936142Y-156061819D01*
X197936142Y-156061819D02*
X197840904Y-156014200D01*
X197840904Y-156014200D02*
X197793285Y-155966580D01*
X197793285Y-155966580D02*
X197745666Y-155871342D01*
X197745666Y-155871342D02*
X197745666Y-155776104D01*
X197745666Y-155776104D02*
X197793285Y-155680866D01*
X197793285Y-155680866D02*
X197840904Y-155633247D01*
X197840904Y-155633247D02*
X197936142Y-155585628D01*
X197936142Y-155585628D02*
X198126618Y-155538009D01*
X198126618Y-155538009D02*
X198221856Y-155490390D01*
X198221856Y-155490390D02*
X198269475Y-155442771D01*
X198269475Y-155442771D02*
X198317094Y-155347533D01*
X198317094Y-155347533D02*
X198317094Y-155252295D01*
X198317094Y-155252295D02*
X198269475Y-155157057D01*
X198269475Y-155157057D02*
X198221856Y-155109438D01*
X198221856Y-155109438D02*
X198126618Y-155061819D01*
X198126618Y-155061819D02*
X197888523Y-155061819D01*
X197888523Y-155061819D02*
X197745666Y-155109438D01*
X196793285Y-156061819D02*
X197364713Y-156061819D01*
X197078999Y-156061819D02*
X197078999Y-155061819D01*
X197078999Y-155061819D02*
X197174237Y-155204676D01*
X197174237Y-155204676D02*
X197269475Y-155299914D01*
X197269475Y-155299914D02*
X197364713Y-155347533D01*
X196221856Y-155490390D02*
X196317094Y-155442771D01*
X196317094Y-155442771D02*
X196364713Y-155395152D01*
X196364713Y-155395152D02*
X196412332Y-155299914D01*
X196412332Y-155299914D02*
X196412332Y-155252295D01*
X196412332Y-155252295D02*
X196364713Y-155157057D01*
X196364713Y-155157057D02*
X196317094Y-155109438D01*
X196317094Y-155109438D02*
X196221856Y-155061819D01*
X196221856Y-155061819D02*
X196031380Y-155061819D01*
X196031380Y-155061819D02*
X195936142Y-155109438D01*
X195936142Y-155109438D02*
X195888523Y-155157057D01*
X195888523Y-155157057D02*
X195840904Y-155252295D01*
X195840904Y-155252295D02*
X195840904Y-155299914D01*
X195840904Y-155299914D02*
X195888523Y-155395152D01*
X195888523Y-155395152D02*
X195936142Y-155442771D01*
X195936142Y-155442771D02*
X196031380Y-155490390D01*
X196031380Y-155490390D02*
X196221856Y-155490390D01*
X196221856Y-155490390D02*
X196317094Y-155538009D01*
X196317094Y-155538009D02*
X196364713Y-155585628D01*
X196364713Y-155585628D02*
X196412332Y-155680866D01*
X196412332Y-155680866D02*
X196412332Y-155871342D01*
X196412332Y-155871342D02*
X196364713Y-155966580D01*
X196364713Y-155966580D02*
X196317094Y-156014200D01*
X196317094Y-156014200D02*
X196221856Y-156061819D01*
X196221856Y-156061819D02*
X196031380Y-156061819D01*
X196031380Y-156061819D02*
X195936142Y-156014200D01*
X195936142Y-156014200D02*
X195888523Y-155966580D01*
X195888523Y-155966580D02*
X195840904Y-155871342D01*
X195840904Y-155871342D02*
X195840904Y-155680866D01*
X195840904Y-155680866D02*
X195888523Y-155585628D01*
X195888523Y-155585628D02*
X195936142Y-155538009D01*
X195936142Y-155538009D02*
X196031380Y-155490390D01*
X228513594Y-194014200D02*
X228370737Y-194061819D01*
X228370737Y-194061819D02*
X228132642Y-194061819D01*
X228132642Y-194061819D02*
X228037404Y-194014200D01*
X228037404Y-194014200D02*
X227989785Y-193966580D01*
X227989785Y-193966580D02*
X227942166Y-193871342D01*
X227942166Y-193871342D02*
X227942166Y-193776104D01*
X227942166Y-193776104D02*
X227989785Y-193680866D01*
X227989785Y-193680866D02*
X228037404Y-193633247D01*
X228037404Y-193633247D02*
X228132642Y-193585628D01*
X228132642Y-193585628D02*
X228323118Y-193538009D01*
X228323118Y-193538009D02*
X228418356Y-193490390D01*
X228418356Y-193490390D02*
X228465975Y-193442771D01*
X228465975Y-193442771D02*
X228513594Y-193347533D01*
X228513594Y-193347533D02*
X228513594Y-193252295D01*
X228513594Y-193252295D02*
X228465975Y-193157057D01*
X228465975Y-193157057D02*
X228418356Y-193109438D01*
X228418356Y-193109438D02*
X228323118Y-193061819D01*
X228323118Y-193061819D02*
X228085023Y-193061819D01*
X228085023Y-193061819D02*
X227942166Y-193109438D01*
X227608832Y-193061819D02*
X226989785Y-193061819D01*
X226989785Y-193061819D02*
X227323118Y-193442771D01*
X227323118Y-193442771D02*
X227180261Y-193442771D01*
X227180261Y-193442771D02*
X227085023Y-193490390D01*
X227085023Y-193490390D02*
X227037404Y-193538009D01*
X227037404Y-193538009D02*
X226989785Y-193633247D01*
X226989785Y-193633247D02*
X226989785Y-193871342D01*
X226989785Y-193871342D02*
X227037404Y-193966580D01*
X227037404Y-193966580D02*
X227085023Y-194014200D01*
X227085023Y-194014200D02*
X227180261Y-194061819D01*
X227180261Y-194061819D02*
X227465975Y-194061819D01*
X227465975Y-194061819D02*
X227561213Y-194014200D01*
X227561213Y-194014200D02*
X227608832Y-193966580D01*
X226608832Y-193157057D02*
X226561213Y-193109438D01*
X226561213Y-193109438D02*
X226465975Y-193061819D01*
X226465975Y-193061819D02*
X226227880Y-193061819D01*
X226227880Y-193061819D02*
X226132642Y-193109438D01*
X226132642Y-193109438D02*
X226085023Y-193157057D01*
X226085023Y-193157057D02*
X226037404Y-193252295D01*
X226037404Y-193252295D02*
X226037404Y-193347533D01*
X226037404Y-193347533D02*
X226085023Y-193490390D01*
X226085023Y-193490390D02*
X226656451Y-194061819D01*
X226656451Y-194061819D02*
X226037404Y-194061819D01*
X131170594Y-194014200D02*
X131027737Y-194061819D01*
X131027737Y-194061819D02*
X130789642Y-194061819D01*
X130789642Y-194061819D02*
X130694404Y-194014200D01*
X130694404Y-194014200D02*
X130646785Y-193966580D01*
X130646785Y-193966580D02*
X130599166Y-193871342D01*
X130599166Y-193871342D02*
X130599166Y-193776104D01*
X130599166Y-193776104D02*
X130646785Y-193680866D01*
X130646785Y-193680866D02*
X130694404Y-193633247D01*
X130694404Y-193633247D02*
X130789642Y-193585628D01*
X130789642Y-193585628D02*
X130980118Y-193538009D01*
X130980118Y-193538009D02*
X131075356Y-193490390D01*
X131075356Y-193490390D02*
X131122975Y-193442771D01*
X131122975Y-193442771D02*
X131170594Y-193347533D01*
X131170594Y-193347533D02*
X131170594Y-193252295D01*
X131170594Y-193252295D02*
X131122975Y-193157057D01*
X131122975Y-193157057D02*
X131075356Y-193109438D01*
X131075356Y-193109438D02*
X130980118Y-193061819D01*
X130980118Y-193061819D02*
X130742023Y-193061819D01*
X130742023Y-193061819D02*
X130599166Y-193109438D01*
X130218213Y-193157057D02*
X130170594Y-193109438D01*
X130170594Y-193109438D02*
X130075356Y-193061819D01*
X130075356Y-193061819D02*
X129837261Y-193061819D01*
X129837261Y-193061819D02*
X129742023Y-193109438D01*
X129742023Y-193109438D02*
X129694404Y-193157057D01*
X129694404Y-193157057D02*
X129646785Y-193252295D01*
X129646785Y-193252295D02*
X129646785Y-193347533D01*
X129646785Y-193347533D02*
X129694404Y-193490390D01*
X129694404Y-193490390D02*
X130265832Y-194061819D01*
X130265832Y-194061819D02*
X129646785Y-194061819D01*
X129170594Y-194061819D02*
X128980118Y-194061819D01*
X128980118Y-194061819D02*
X128884880Y-194014200D01*
X128884880Y-194014200D02*
X128837261Y-193966580D01*
X128837261Y-193966580D02*
X128742023Y-193823723D01*
X128742023Y-193823723D02*
X128694404Y-193633247D01*
X128694404Y-193633247D02*
X128694404Y-193252295D01*
X128694404Y-193252295D02*
X128742023Y-193157057D01*
X128742023Y-193157057D02*
X128789642Y-193109438D01*
X128789642Y-193109438D02*
X128884880Y-193061819D01*
X128884880Y-193061819D02*
X129075356Y-193061819D01*
X129075356Y-193061819D02*
X129170594Y-193109438D01*
X129170594Y-193109438D02*
X129218213Y-193157057D01*
X129218213Y-193157057D02*
X129265832Y-193252295D01*
X129265832Y-193252295D02*
X129265832Y-193490390D01*
X129265832Y-193490390D02*
X129218213Y-193585628D01*
X129218213Y-193585628D02*
X129170594Y-193633247D01*
X129170594Y-193633247D02*
X129075356Y-193680866D01*
X129075356Y-193680866D02*
X128884880Y-193680866D01*
X128884880Y-193680866D02*
X128789642Y-193633247D01*
X128789642Y-193633247D02*
X128742023Y-193585628D01*
X128742023Y-193585628D02*
X128694404Y-193490390D01*
X169842094Y-175014200D02*
X169699237Y-175061819D01*
X169699237Y-175061819D02*
X169461142Y-175061819D01*
X169461142Y-175061819D02*
X169365904Y-175014200D01*
X169365904Y-175014200D02*
X169318285Y-174966580D01*
X169318285Y-174966580D02*
X169270666Y-174871342D01*
X169270666Y-174871342D02*
X169270666Y-174776104D01*
X169270666Y-174776104D02*
X169318285Y-174680866D01*
X169318285Y-174680866D02*
X169365904Y-174633247D01*
X169365904Y-174633247D02*
X169461142Y-174585628D01*
X169461142Y-174585628D02*
X169651618Y-174538009D01*
X169651618Y-174538009D02*
X169746856Y-174490390D01*
X169746856Y-174490390D02*
X169794475Y-174442771D01*
X169794475Y-174442771D02*
X169842094Y-174347533D01*
X169842094Y-174347533D02*
X169842094Y-174252295D01*
X169842094Y-174252295D02*
X169794475Y-174157057D01*
X169794475Y-174157057D02*
X169746856Y-174109438D01*
X169746856Y-174109438D02*
X169651618Y-174061819D01*
X169651618Y-174061819D02*
X169413523Y-174061819D01*
X169413523Y-174061819D02*
X169270666Y-174109438D01*
X168889713Y-174157057D02*
X168842094Y-174109438D01*
X168842094Y-174109438D02*
X168746856Y-174061819D01*
X168746856Y-174061819D02*
X168508761Y-174061819D01*
X168508761Y-174061819D02*
X168413523Y-174109438D01*
X168413523Y-174109438D02*
X168365904Y-174157057D01*
X168365904Y-174157057D02*
X168318285Y-174252295D01*
X168318285Y-174252295D02*
X168318285Y-174347533D01*
X168318285Y-174347533D02*
X168365904Y-174490390D01*
X168365904Y-174490390D02*
X168937332Y-175061819D01*
X168937332Y-175061819D02*
X168318285Y-175061819D01*
X167984951Y-174061819D02*
X167365904Y-174061819D01*
X167365904Y-174061819D02*
X167699237Y-174442771D01*
X167699237Y-174442771D02*
X167556380Y-174442771D01*
X167556380Y-174442771D02*
X167461142Y-174490390D01*
X167461142Y-174490390D02*
X167413523Y-174538009D01*
X167413523Y-174538009D02*
X167365904Y-174633247D01*
X167365904Y-174633247D02*
X167365904Y-174871342D01*
X167365904Y-174871342D02*
X167413523Y-174966580D01*
X167413523Y-174966580D02*
X167461142Y-175014200D01*
X167461142Y-175014200D02*
X167556380Y-175061819D01*
X167556380Y-175061819D02*
X167842094Y-175061819D01*
X167842094Y-175061819D02*
X167937332Y-175014200D01*
X167937332Y-175014200D02*
X167984951Y-174966580D01*
X215240833Y-98986009D02*
X215574166Y-98986009D01*
X215574166Y-99509819D02*
X215574166Y-98509819D01*
X215574166Y-98509819D02*
X215097976Y-98509819D01*
X214240833Y-98509819D02*
X214717023Y-98509819D01*
X214717023Y-98509819D02*
X214764642Y-98986009D01*
X214764642Y-98986009D02*
X214717023Y-98938390D01*
X214717023Y-98938390D02*
X214621785Y-98890771D01*
X214621785Y-98890771D02*
X214383690Y-98890771D01*
X214383690Y-98890771D02*
X214288452Y-98938390D01*
X214288452Y-98938390D02*
X214240833Y-98986009D01*
X214240833Y-98986009D02*
X214193214Y-99081247D01*
X214193214Y-99081247D02*
X214193214Y-99319342D01*
X214193214Y-99319342D02*
X214240833Y-99414580D01*
X214240833Y-99414580D02*
X214288452Y-99462200D01*
X214288452Y-99462200D02*
X214383690Y-99509819D01*
X214383690Y-99509819D02*
X214621785Y-99509819D01*
X214621785Y-99509819D02*
X214717023Y-99462200D01*
X214717023Y-99462200D02*
X214764642Y-99414580D01*
X245792094Y-137014200D02*
X245649237Y-137061819D01*
X245649237Y-137061819D02*
X245411142Y-137061819D01*
X245411142Y-137061819D02*
X245315904Y-137014200D01*
X245315904Y-137014200D02*
X245268285Y-136966580D01*
X245268285Y-136966580D02*
X245220666Y-136871342D01*
X245220666Y-136871342D02*
X245220666Y-136776104D01*
X245220666Y-136776104D02*
X245268285Y-136680866D01*
X245268285Y-136680866D02*
X245315904Y-136633247D01*
X245315904Y-136633247D02*
X245411142Y-136585628D01*
X245411142Y-136585628D02*
X245601618Y-136538009D01*
X245601618Y-136538009D02*
X245696856Y-136490390D01*
X245696856Y-136490390D02*
X245744475Y-136442771D01*
X245744475Y-136442771D02*
X245792094Y-136347533D01*
X245792094Y-136347533D02*
X245792094Y-136252295D01*
X245792094Y-136252295D02*
X245744475Y-136157057D01*
X245744475Y-136157057D02*
X245696856Y-136109438D01*
X245696856Y-136109438D02*
X245601618Y-136061819D01*
X245601618Y-136061819D02*
X245363523Y-136061819D01*
X245363523Y-136061819D02*
X245220666Y-136109438D01*
X244268285Y-137061819D02*
X244839713Y-137061819D01*
X244553999Y-137061819D02*
X244553999Y-136061819D01*
X244553999Y-136061819D02*
X244649237Y-136204676D01*
X244649237Y-136204676D02*
X244744475Y-136299914D01*
X244744475Y-136299914D02*
X244839713Y-136347533D01*
X243411142Y-136395152D02*
X243411142Y-137061819D01*
X243649237Y-136014200D02*
X243887332Y-136728485D01*
X243887332Y-136728485D02*
X243268285Y-136728485D01*
X245842094Y-175014200D02*
X245699237Y-175061819D01*
X245699237Y-175061819D02*
X245461142Y-175061819D01*
X245461142Y-175061819D02*
X245365904Y-175014200D01*
X245365904Y-175014200D02*
X245318285Y-174966580D01*
X245318285Y-174966580D02*
X245270666Y-174871342D01*
X245270666Y-174871342D02*
X245270666Y-174776104D01*
X245270666Y-174776104D02*
X245318285Y-174680866D01*
X245318285Y-174680866D02*
X245365904Y-174633247D01*
X245365904Y-174633247D02*
X245461142Y-174585628D01*
X245461142Y-174585628D02*
X245651618Y-174538009D01*
X245651618Y-174538009D02*
X245746856Y-174490390D01*
X245746856Y-174490390D02*
X245794475Y-174442771D01*
X245794475Y-174442771D02*
X245842094Y-174347533D01*
X245842094Y-174347533D02*
X245842094Y-174252295D01*
X245842094Y-174252295D02*
X245794475Y-174157057D01*
X245794475Y-174157057D02*
X245746856Y-174109438D01*
X245746856Y-174109438D02*
X245651618Y-174061819D01*
X245651618Y-174061819D02*
X245413523Y-174061819D01*
X245413523Y-174061819D02*
X245270666Y-174109438D01*
X244889713Y-174157057D02*
X244842094Y-174109438D01*
X244842094Y-174109438D02*
X244746856Y-174061819D01*
X244746856Y-174061819D02*
X244508761Y-174061819D01*
X244508761Y-174061819D02*
X244413523Y-174109438D01*
X244413523Y-174109438D02*
X244365904Y-174157057D01*
X244365904Y-174157057D02*
X244318285Y-174252295D01*
X244318285Y-174252295D02*
X244318285Y-174347533D01*
X244318285Y-174347533D02*
X244365904Y-174490390D01*
X244365904Y-174490390D02*
X244937332Y-175061819D01*
X244937332Y-175061819D02*
X244318285Y-175061819D01*
X243984951Y-174061819D02*
X243318285Y-174061819D01*
X243318285Y-174061819D02*
X243746856Y-175061819D01*
X264842094Y-175014200D02*
X264699237Y-175061819D01*
X264699237Y-175061819D02*
X264461142Y-175061819D01*
X264461142Y-175061819D02*
X264365904Y-175014200D01*
X264365904Y-175014200D02*
X264318285Y-174966580D01*
X264318285Y-174966580D02*
X264270666Y-174871342D01*
X264270666Y-174871342D02*
X264270666Y-174776104D01*
X264270666Y-174776104D02*
X264318285Y-174680866D01*
X264318285Y-174680866D02*
X264365904Y-174633247D01*
X264365904Y-174633247D02*
X264461142Y-174585628D01*
X264461142Y-174585628D02*
X264651618Y-174538009D01*
X264651618Y-174538009D02*
X264746856Y-174490390D01*
X264746856Y-174490390D02*
X264794475Y-174442771D01*
X264794475Y-174442771D02*
X264842094Y-174347533D01*
X264842094Y-174347533D02*
X264842094Y-174252295D01*
X264842094Y-174252295D02*
X264794475Y-174157057D01*
X264794475Y-174157057D02*
X264746856Y-174109438D01*
X264746856Y-174109438D02*
X264651618Y-174061819D01*
X264651618Y-174061819D02*
X264413523Y-174061819D01*
X264413523Y-174061819D02*
X264270666Y-174109438D01*
X263889713Y-174157057D02*
X263842094Y-174109438D01*
X263842094Y-174109438D02*
X263746856Y-174061819D01*
X263746856Y-174061819D02*
X263508761Y-174061819D01*
X263508761Y-174061819D02*
X263413523Y-174109438D01*
X263413523Y-174109438D02*
X263365904Y-174157057D01*
X263365904Y-174157057D02*
X263318285Y-174252295D01*
X263318285Y-174252295D02*
X263318285Y-174347533D01*
X263318285Y-174347533D02*
X263365904Y-174490390D01*
X263365904Y-174490390D02*
X263937332Y-175061819D01*
X263937332Y-175061819D02*
X263318285Y-175061819D01*
X262746856Y-174490390D02*
X262842094Y-174442771D01*
X262842094Y-174442771D02*
X262889713Y-174395152D01*
X262889713Y-174395152D02*
X262937332Y-174299914D01*
X262937332Y-174299914D02*
X262937332Y-174252295D01*
X262937332Y-174252295D02*
X262889713Y-174157057D01*
X262889713Y-174157057D02*
X262842094Y-174109438D01*
X262842094Y-174109438D02*
X262746856Y-174061819D01*
X262746856Y-174061819D02*
X262556380Y-174061819D01*
X262556380Y-174061819D02*
X262461142Y-174109438D01*
X262461142Y-174109438D02*
X262413523Y-174157057D01*
X262413523Y-174157057D02*
X262365904Y-174252295D01*
X262365904Y-174252295D02*
X262365904Y-174299914D01*
X262365904Y-174299914D02*
X262413523Y-174395152D01*
X262413523Y-174395152D02*
X262461142Y-174442771D01*
X262461142Y-174442771D02*
X262556380Y-174490390D01*
X262556380Y-174490390D02*
X262746856Y-174490390D01*
X262746856Y-174490390D02*
X262842094Y-174538009D01*
X262842094Y-174538009D02*
X262889713Y-174585628D01*
X262889713Y-174585628D02*
X262937332Y-174680866D01*
X262937332Y-174680866D02*
X262937332Y-174871342D01*
X262937332Y-174871342D02*
X262889713Y-174966580D01*
X262889713Y-174966580D02*
X262842094Y-175014200D01*
X262842094Y-175014200D02*
X262746856Y-175061819D01*
X262746856Y-175061819D02*
X262556380Y-175061819D01*
X262556380Y-175061819D02*
X262461142Y-175014200D01*
X262461142Y-175014200D02*
X262413523Y-174966580D01*
X262413523Y-174966580D02*
X262365904Y-174871342D01*
X262365904Y-174871342D02*
X262365904Y-174680866D01*
X262365904Y-174680866D02*
X262413523Y-174585628D01*
X262413523Y-174585628D02*
X262461142Y-174538009D01*
X262461142Y-174538009D02*
X262556380Y-174490390D01*
X131170594Y-156014200D02*
X131027737Y-156061819D01*
X131027737Y-156061819D02*
X130789642Y-156061819D01*
X130789642Y-156061819D02*
X130694404Y-156014200D01*
X130694404Y-156014200D02*
X130646785Y-155966580D01*
X130646785Y-155966580D02*
X130599166Y-155871342D01*
X130599166Y-155871342D02*
X130599166Y-155776104D01*
X130599166Y-155776104D02*
X130646785Y-155680866D01*
X130646785Y-155680866D02*
X130694404Y-155633247D01*
X130694404Y-155633247D02*
X130789642Y-155585628D01*
X130789642Y-155585628D02*
X130980118Y-155538009D01*
X130980118Y-155538009D02*
X131075356Y-155490390D01*
X131075356Y-155490390D02*
X131122975Y-155442771D01*
X131122975Y-155442771D02*
X131170594Y-155347533D01*
X131170594Y-155347533D02*
X131170594Y-155252295D01*
X131170594Y-155252295D02*
X131122975Y-155157057D01*
X131122975Y-155157057D02*
X131075356Y-155109438D01*
X131075356Y-155109438D02*
X130980118Y-155061819D01*
X130980118Y-155061819D02*
X130742023Y-155061819D01*
X130742023Y-155061819D02*
X130599166Y-155109438D01*
X129646785Y-156061819D02*
X130218213Y-156061819D01*
X129932499Y-156061819D02*
X129932499Y-155061819D01*
X129932499Y-155061819D02*
X130027737Y-155204676D01*
X130027737Y-155204676D02*
X130122975Y-155299914D01*
X130122975Y-155299914D02*
X130218213Y-155347533D01*
X128742023Y-155061819D02*
X129218213Y-155061819D01*
X129218213Y-155061819D02*
X129265832Y-155538009D01*
X129265832Y-155538009D02*
X129218213Y-155490390D01*
X129218213Y-155490390D02*
X129122975Y-155442771D01*
X129122975Y-155442771D02*
X128884880Y-155442771D01*
X128884880Y-155442771D02*
X128789642Y-155490390D01*
X128789642Y-155490390D02*
X128742023Y-155538009D01*
X128742023Y-155538009D02*
X128694404Y-155633247D01*
X128694404Y-155633247D02*
X128694404Y-155871342D01*
X128694404Y-155871342D02*
X128742023Y-155966580D01*
X128742023Y-155966580D02*
X128789642Y-156014200D01*
X128789642Y-156014200D02*
X128884880Y-156061819D01*
X128884880Y-156061819D02*
X129122975Y-156061819D01*
X129122975Y-156061819D02*
X129218213Y-156014200D01*
X129218213Y-156014200D02*
X129265832Y-155966580D01*
X135933094Y-175014200D02*
X135790237Y-175061819D01*
X135790237Y-175061819D02*
X135552142Y-175061819D01*
X135552142Y-175061819D02*
X135456904Y-175014200D01*
X135456904Y-175014200D02*
X135409285Y-174966580D01*
X135409285Y-174966580D02*
X135361666Y-174871342D01*
X135361666Y-174871342D02*
X135361666Y-174776104D01*
X135361666Y-174776104D02*
X135409285Y-174680866D01*
X135409285Y-174680866D02*
X135456904Y-174633247D01*
X135456904Y-174633247D02*
X135552142Y-174585628D01*
X135552142Y-174585628D02*
X135742618Y-174538009D01*
X135742618Y-174538009D02*
X135837856Y-174490390D01*
X135837856Y-174490390D02*
X135885475Y-174442771D01*
X135885475Y-174442771D02*
X135933094Y-174347533D01*
X135933094Y-174347533D02*
X135933094Y-174252295D01*
X135933094Y-174252295D02*
X135885475Y-174157057D01*
X135885475Y-174157057D02*
X135837856Y-174109438D01*
X135837856Y-174109438D02*
X135742618Y-174061819D01*
X135742618Y-174061819D02*
X135504523Y-174061819D01*
X135504523Y-174061819D02*
X135361666Y-174109438D01*
X134980713Y-174157057D02*
X134933094Y-174109438D01*
X134933094Y-174109438D02*
X134837856Y-174061819D01*
X134837856Y-174061819D02*
X134599761Y-174061819D01*
X134599761Y-174061819D02*
X134504523Y-174109438D01*
X134504523Y-174109438D02*
X134456904Y-174157057D01*
X134456904Y-174157057D02*
X134409285Y-174252295D01*
X134409285Y-174252295D02*
X134409285Y-174347533D01*
X134409285Y-174347533D02*
X134456904Y-174490390D01*
X134456904Y-174490390D02*
X135028332Y-175061819D01*
X135028332Y-175061819D02*
X134409285Y-175061819D01*
X134028332Y-174157057D02*
X133980713Y-174109438D01*
X133980713Y-174109438D02*
X133885475Y-174061819D01*
X133885475Y-174061819D02*
X133647380Y-174061819D01*
X133647380Y-174061819D02*
X133552142Y-174109438D01*
X133552142Y-174109438D02*
X133504523Y-174157057D01*
X133504523Y-174157057D02*
X133456904Y-174252295D01*
X133456904Y-174252295D02*
X133456904Y-174347533D01*
X133456904Y-174347533D02*
X133504523Y-174490390D01*
X133504523Y-174490390D02*
X134075951Y-175061819D01*
X134075951Y-175061819D02*
X133456904Y-175061819D01*
X217317094Y-156014200D02*
X217174237Y-156061819D01*
X217174237Y-156061819D02*
X216936142Y-156061819D01*
X216936142Y-156061819D02*
X216840904Y-156014200D01*
X216840904Y-156014200D02*
X216793285Y-155966580D01*
X216793285Y-155966580D02*
X216745666Y-155871342D01*
X216745666Y-155871342D02*
X216745666Y-155776104D01*
X216745666Y-155776104D02*
X216793285Y-155680866D01*
X216793285Y-155680866D02*
X216840904Y-155633247D01*
X216840904Y-155633247D02*
X216936142Y-155585628D01*
X216936142Y-155585628D02*
X217126618Y-155538009D01*
X217126618Y-155538009D02*
X217221856Y-155490390D01*
X217221856Y-155490390D02*
X217269475Y-155442771D01*
X217269475Y-155442771D02*
X217317094Y-155347533D01*
X217317094Y-155347533D02*
X217317094Y-155252295D01*
X217317094Y-155252295D02*
X217269475Y-155157057D01*
X217269475Y-155157057D02*
X217221856Y-155109438D01*
X217221856Y-155109438D02*
X217126618Y-155061819D01*
X217126618Y-155061819D02*
X216888523Y-155061819D01*
X216888523Y-155061819D02*
X216745666Y-155109438D01*
X215793285Y-156061819D02*
X216364713Y-156061819D01*
X216078999Y-156061819D02*
X216078999Y-155061819D01*
X216078999Y-155061819D02*
X216174237Y-155204676D01*
X216174237Y-155204676D02*
X216269475Y-155299914D01*
X216269475Y-155299914D02*
X216364713Y-155347533D01*
X215317094Y-156061819D02*
X215126618Y-156061819D01*
X215126618Y-156061819D02*
X215031380Y-156014200D01*
X215031380Y-156014200D02*
X214983761Y-155966580D01*
X214983761Y-155966580D02*
X214888523Y-155823723D01*
X214888523Y-155823723D02*
X214840904Y-155633247D01*
X214840904Y-155633247D02*
X214840904Y-155252295D01*
X214840904Y-155252295D02*
X214888523Y-155157057D01*
X214888523Y-155157057D02*
X214936142Y-155109438D01*
X214936142Y-155109438D02*
X215031380Y-155061819D01*
X215031380Y-155061819D02*
X215221856Y-155061819D01*
X215221856Y-155061819D02*
X215317094Y-155109438D01*
X215317094Y-155109438D02*
X215364713Y-155157057D01*
X215364713Y-155157057D02*
X215412332Y-155252295D01*
X215412332Y-155252295D02*
X215412332Y-155490390D01*
X215412332Y-155490390D02*
X215364713Y-155585628D01*
X215364713Y-155585628D02*
X215317094Y-155633247D01*
X215317094Y-155633247D02*
X215221856Y-155680866D01*
X215221856Y-155680866D02*
X215031380Y-155680866D01*
X215031380Y-155680866D02*
X214936142Y-155633247D01*
X214936142Y-155633247D02*
X214888523Y-155585628D01*
X214888523Y-155585628D02*
X214840904Y-155490390D01*
X150315904Y-137014200D02*
X150173047Y-137061819D01*
X150173047Y-137061819D02*
X149934952Y-137061819D01*
X149934952Y-137061819D02*
X149839714Y-137014200D01*
X149839714Y-137014200D02*
X149792095Y-136966580D01*
X149792095Y-136966580D02*
X149744476Y-136871342D01*
X149744476Y-136871342D02*
X149744476Y-136776104D01*
X149744476Y-136776104D02*
X149792095Y-136680866D01*
X149792095Y-136680866D02*
X149839714Y-136633247D01*
X149839714Y-136633247D02*
X149934952Y-136585628D01*
X149934952Y-136585628D02*
X150125428Y-136538009D01*
X150125428Y-136538009D02*
X150220666Y-136490390D01*
X150220666Y-136490390D02*
X150268285Y-136442771D01*
X150268285Y-136442771D02*
X150315904Y-136347533D01*
X150315904Y-136347533D02*
X150315904Y-136252295D01*
X150315904Y-136252295D02*
X150268285Y-136157057D01*
X150268285Y-136157057D02*
X150220666Y-136109438D01*
X150220666Y-136109438D02*
X150125428Y-136061819D01*
X150125428Y-136061819D02*
X149887333Y-136061819D01*
X149887333Y-136061819D02*
X149744476Y-136109438D01*
X149268285Y-137061819D02*
X149077809Y-137061819D01*
X149077809Y-137061819D02*
X148982571Y-137014200D01*
X148982571Y-137014200D02*
X148934952Y-136966580D01*
X148934952Y-136966580D02*
X148839714Y-136823723D01*
X148839714Y-136823723D02*
X148792095Y-136633247D01*
X148792095Y-136633247D02*
X148792095Y-136252295D01*
X148792095Y-136252295D02*
X148839714Y-136157057D01*
X148839714Y-136157057D02*
X148887333Y-136109438D01*
X148887333Y-136109438D02*
X148982571Y-136061819D01*
X148982571Y-136061819D02*
X149173047Y-136061819D01*
X149173047Y-136061819D02*
X149268285Y-136109438D01*
X149268285Y-136109438D02*
X149315904Y-136157057D01*
X149315904Y-136157057D02*
X149363523Y-136252295D01*
X149363523Y-136252295D02*
X149363523Y-136490390D01*
X149363523Y-136490390D02*
X149315904Y-136585628D01*
X149315904Y-136585628D02*
X149268285Y-136633247D01*
X149268285Y-136633247D02*
X149173047Y-136680866D01*
X149173047Y-136680866D02*
X148982571Y-136680866D01*
X148982571Y-136680866D02*
X148887333Y-136633247D01*
X148887333Y-136633247D02*
X148839714Y-136585628D01*
X148839714Y-136585628D02*
X148792095Y-136490390D01*
X196240833Y-98986009D02*
X196574166Y-98986009D01*
X196574166Y-99509819D02*
X196574166Y-98509819D01*
X196574166Y-98509819D02*
X196097976Y-98509819D01*
X195288452Y-98843152D02*
X195288452Y-99509819D01*
X195526547Y-98462200D02*
X195764642Y-99176485D01*
X195764642Y-99176485D02*
X195145595Y-99176485D01*
X226792094Y-137014200D02*
X226649237Y-137061819D01*
X226649237Y-137061819D02*
X226411142Y-137061819D01*
X226411142Y-137061819D02*
X226315904Y-137014200D01*
X226315904Y-137014200D02*
X226268285Y-136966580D01*
X226268285Y-136966580D02*
X226220666Y-136871342D01*
X226220666Y-136871342D02*
X226220666Y-136776104D01*
X226220666Y-136776104D02*
X226268285Y-136680866D01*
X226268285Y-136680866D02*
X226315904Y-136633247D01*
X226315904Y-136633247D02*
X226411142Y-136585628D01*
X226411142Y-136585628D02*
X226601618Y-136538009D01*
X226601618Y-136538009D02*
X226696856Y-136490390D01*
X226696856Y-136490390D02*
X226744475Y-136442771D01*
X226744475Y-136442771D02*
X226792094Y-136347533D01*
X226792094Y-136347533D02*
X226792094Y-136252295D01*
X226792094Y-136252295D02*
X226744475Y-136157057D01*
X226744475Y-136157057D02*
X226696856Y-136109438D01*
X226696856Y-136109438D02*
X226601618Y-136061819D01*
X226601618Y-136061819D02*
X226363523Y-136061819D01*
X226363523Y-136061819D02*
X226220666Y-136109438D01*
X225268285Y-137061819D02*
X225839713Y-137061819D01*
X225553999Y-137061819D02*
X225553999Y-136061819D01*
X225553999Y-136061819D02*
X225649237Y-136204676D01*
X225649237Y-136204676D02*
X225744475Y-136299914D01*
X225744475Y-136299914D02*
X225839713Y-136347533D01*
X224934951Y-136061819D02*
X224315904Y-136061819D01*
X224315904Y-136061819D02*
X224649237Y-136442771D01*
X224649237Y-136442771D02*
X224506380Y-136442771D01*
X224506380Y-136442771D02*
X224411142Y-136490390D01*
X224411142Y-136490390D02*
X224363523Y-136538009D01*
X224363523Y-136538009D02*
X224315904Y-136633247D01*
X224315904Y-136633247D02*
X224315904Y-136871342D01*
X224315904Y-136871342D02*
X224363523Y-136966580D01*
X224363523Y-136966580D02*
X224411142Y-137014200D01*
X224411142Y-137014200D02*
X224506380Y-137061819D01*
X224506380Y-137061819D02*
X224792094Y-137061819D01*
X224792094Y-137061819D02*
X224887332Y-137014200D01*
X224887332Y-137014200D02*
X224934951Y-136966580D01*
X169792094Y-137014200D02*
X169649237Y-137061819D01*
X169649237Y-137061819D02*
X169411142Y-137061819D01*
X169411142Y-137061819D02*
X169315904Y-137014200D01*
X169315904Y-137014200D02*
X169268285Y-136966580D01*
X169268285Y-136966580D02*
X169220666Y-136871342D01*
X169220666Y-136871342D02*
X169220666Y-136776104D01*
X169220666Y-136776104D02*
X169268285Y-136680866D01*
X169268285Y-136680866D02*
X169315904Y-136633247D01*
X169315904Y-136633247D02*
X169411142Y-136585628D01*
X169411142Y-136585628D02*
X169601618Y-136538009D01*
X169601618Y-136538009D02*
X169696856Y-136490390D01*
X169696856Y-136490390D02*
X169744475Y-136442771D01*
X169744475Y-136442771D02*
X169792094Y-136347533D01*
X169792094Y-136347533D02*
X169792094Y-136252295D01*
X169792094Y-136252295D02*
X169744475Y-136157057D01*
X169744475Y-136157057D02*
X169696856Y-136109438D01*
X169696856Y-136109438D02*
X169601618Y-136061819D01*
X169601618Y-136061819D02*
X169363523Y-136061819D01*
X169363523Y-136061819D02*
X169220666Y-136109438D01*
X168268285Y-137061819D02*
X168839713Y-137061819D01*
X168553999Y-137061819D02*
X168553999Y-136061819D01*
X168553999Y-136061819D02*
X168649237Y-136204676D01*
X168649237Y-136204676D02*
X168744475Y-136299914D01*
X168744475Y-136299914D02*
X168839713Y-136347533D01*
X167649237Y-136061819D02*
X167553999Y-136061819D01*
X167553999Y-136061819D02*
X167458761Y-136109438D01*
X167458761Y-136109438D02*
X167411142Y-136157057D01*
X167411142Y-136157057D02*
X167363523Y-136252295D01*
X167363523Y-136252295D02*
X167315904Y-136442771D01*
X167315904Y-136442771D02*
X167315904Y-136680866D01*
X167315904Y-136680866D02*
X167363523Y-136871342D01*
X167363523Y-136871342D02*
X167411142Y-136966580D01*
X167411142Y-136966580D02*
X167458761Y-137014200D01*
X167458761Y-137014200D02*
X167553999Y-137061819D01*
X167553999Y-137061819D02*
X167649237Y-137061819D01*
X167649237Y-137061819D02*
X167744475Y-137014200D01*
X167744475Y-137014200D02*
X167792094Y-136966580D01*
X167792094Y-136966580D02*
X167839713Y-136871342D01*
X167839713Y-136871342D02*
X167887332Y-136680866D01*
X167887332Y-136680866D02*
X167887332Y-136442771D01*
X167887332Y-136442771D02*
X167839713Y-136252295D01*
X167839713Y-136252295D02*
X167792094Y-136157057D01*
X167792094Y-136157057D02*
X167744475Y-136109438D01*
X167744475Y-136109438D02*
X167649237Y-136061819D01*
X165579594Y-194014200D02*
X165436737Y-194061819D01*
X165436737Y-194061819D02*
X165198642Y-194061819D01*
X165198642Y-194061819D02*
X165103404Y-194014200D01*
X165103404Y-194014200D02*
X165055785Y-193966580D01*
X165055785Y-193966580D02*
X165008166Y-193871342D01*
X165008166Y-193871342D02*
X165008166Y-193776104D01*
X165008166Y-193776104D02*
X165055785Y-193680866D01*
X165055785Y-193680866D02*
X165103404Y-193633247D01*
X165103404Y-193633247D02*
X165198642Y-193585628D01*
X165198642Y-193585628D02*
X165389118Y-193538009D01*
X165389118Y-193538009D02*
X165484356Y-193490390D01*
X165484356Y-193490390D02*
X165531975Y-193442771D01*
X165531975Y-193442771D02*
X165579594Y-193347533D01*
X165579594Y-193347533D02*
X165579594Y-193252295D01*
X165579594Y-193252295D02*
X165531975Y-193157057D01*
X165531975Y-193157057D02*
X165484356Y-193109438D01*
X165484356Y-193109438D02*
X165389118Y-193061819D01*
X165389118Y-193061819D02*
X165151023Y-193061819D01*
X165151023Y-193061819D02*
X165008166Y-193109438D01*
X164674832Y-193061819D02*
X164055785Y-193061819D01*
X164055785Y-193061819D02*
X164389118Y-193442771D01*
X164389118Y-193442771D02*
X164246261Y-193442771D01*
X164246261Y-193442771D02*
X164151023Y-193490390D01*
X164151023Y-193490390D02*
X164103404Y-193538009D01*
X164103404Y-193538009D02*
X164055785Y-193633247D01*
X164055785Y-193633247D02*
X164055785Y-193871342D01*
X164055785Y-193871342D02*
X164103404Y-193966580D01*
X164103404Y-193966580D02*
X164151023Y-194014200D01*
X164151023Y-194014200D02*
X164246261Y-194061819D01*
X164246261Y-194061819D02*
X164531975Y-194061819D01*
X164531975Y-194061819D02*
X164627213Y-194014200D01*
X164627213Y-194014200D02*
X164674832Y-193966580D01*
X163436737Y-193061819D02*
X163341499Y-193061819D01*
X163341499Y-193061819D02*
X163246261Y-193109438D01*
X163246261Y-193109438D02*
X163198642Y-193157057D01*
X163198642Y-193157057D02*
X163151023Y-193252295D01*
X163151023Y-193252295D02*
X163103404Y-193442771D01*
X163103404Y-193442771D02*
X163103404Y-193680866D01*
X163103404Y-193680866D02*
X163151023Y-193871342D01*
X163151023Y-193871342D02*
X163198642Y-193966580D01*
X163198642Y-193966580D02*
X163246261Y-194014200D01*
X163246261Y-194014200D02*
X163341499Y-194061819D01*
X163341499Y-194061819D02*
X163436737Y-194061819D01*
X163436737Y-194061819D02*
X163531975Y-194014200D01*
X163531975Y-194014200D02*
X163579594Y-193966580D01*
X163579594Y-193966580D02*
X163627213Y-193871342D01*
X163627213Y-193871342D02*
X163674832Y-193680866D01*
X163674832Y-193680866D02*
X163674832Y-193442771D01*
X163674832Y-193442771D02*
X163627213Y-193252295D01*
X163627213Y-193252295D02*
X163579594Y-193157057D01*
X163579594Y-193157057D02*
X163531975Y-193109438D01*
X163531975Y-193109438D02*
X163436737Y-193061819D01*
X275070715Y-100156009D02*
X274737382Y-100156009D01*
X274594525Y-100679819D02*
X275070715Y-100679819D01*
X275070715Y-100679819D02*
X275070715Y-99679819D01*
X275070715Y-99679819D02*
X274594525Y-99679819D01*
X274261191Y-100679819D02*
X273737382Y-100013152D01*
X274261191Y-100013152D02*
X273737382Y-100679819D01*
X273499286Y-100013152D02*
X273118334Y-100013152D01*
X273356429Y-99679819D02*
X273356429Y-100536961D01*
X273356429Y-100536961D02*
X273308810Y-100632200D01*
X273308810Y-100632200D02*
X273213572Y-100679819D01*
X273213572Y-100679819D02*
X273118334Y-100679819D01*
X272785000Y-100679819D02*
X272785000Y-100013152D01*
X272785000Y-100203628D02*
X272737381Y-100108390D01*
X272737381Y-100108390D02*
X272689762Y-100060771D01*
X272689762Y-100060771D02*
X272594524Y-100013152D01*
X272594524Y-100013152D02*
X272499286Y-100013152D01*
X271737381Y-100679819D02*
X271737381Y-100156009D01*
X271737381Y-100156009D02*
X271785000Y-100060771D01*
X271785000Y-100060771D02*
X271880238Y-100013152D01*
X271880238Y-100013152D02*
X272070714Y-100013152D01*
X272070714Y-100013152D02*
X272165952Y-100060771D01*
X271737381Y-100632200D02*
X271832619Y-100679819D01*
X271832619Y-100679819D02*
X272070714Y-100679819D01*
X272070714Y-100679819D02*
X272165952Y-100632200D01*
X272165952Y-100632200D02*
X272213571Y-100536961D01*
X272213571Y-100536961D02*
X272213571Y-100441723D01*
X272213571Y-100441723D02*
X272165952Y-100346485D01*
X272165952Y-100346485D02*
X272070714Y-100298866D01*
X272070714Y-100298866D02*
X271832619Y-100298866D01*
X271832619Y-100298866D02*
X271737381Y-100251247D01*
X270927857Y-100156009D02*
X270785000Y-100203628D01*
X270785000Y-100203628D02*
X270737381Y-100251247D01*
X270737381Y-100251247D02*
X270689762Y-100346485D01*
X270689762Y-100346485D02*
X270689762Y-100489342D01*
X270689762Y-100489342D02*
X270737381Y-100584580D01*
X270737381Y-100584580D02*
X270785000Y-100632200D01*
X270785000Y-100632200D02*
X270880238Y-100679819D01*
X270880238Y-100679819D02*
X271261190Y-100679819D01*
X271261190Y-100679819D02*
X271261190Y-99679819D01*
X271261190Y-99679819D02*
X270927857Y-99679819D01*
X270927857Y-99679819D02*
X270832619Y-99727438D01*
X270832619Y-99727438D02*
X270785000Y-99775057D01*
X270785000Y-99775057D02*
X270737381Y-99870295D01*
X270737381Y-99870295D02*
X270737381Y-99965533D01*
X270737381Y-99965533D02*
X270785000Y-100060771D01*
X270785000Y-100060771D02*
X270832619Y-100108390D01*
X270832619Y-100108390D02*
X270927857Y-100156009D01*
X270927857Y-100156009D02*
X271261190Y-100156009D01*
X269832619Y-100013152D02*
X269832619Y-100679819D01*
X270261190Y-100013152D02*
X270261190Y-100536961D01*
X270261190Y-100536961D02*
X270213571Y-100632200D01*
X270213571Y-100632200D02*
X270118333Y-100679819D01*
X270118333Y-100679819D02*
X269975476Y-100679819D01*
X269975476Y-100679819D02*
X269880238Y-100632200D01*
X269880238Y-100632200D02*
X269832619Y-100584580D01*
X269499285Y-100013152D02*
X269118333Y-100013152D01*
X269356428Y-99679819D02*
X269356428Y-100536961D01*
X269356428Y-100536961D02*
X269308809Y-100632200D01*
X269308809Y-100632200D02*
X269213571Y-100679819D01*
X269213571Y-100679819D02*
X269118333Y-100679819D01*
X268927856Y-100013152D02*
X268546904Y-100013152D01*
X268784999Y-99679819D02*
X268784999Y-100536961D01*
X268784999Y-100536961D02*
X268737380Y-100632200D01*
X268737380Y-100632200D02*
X268642142Y-100679819D01*
X268642142Y-100679819D02*
X268546904Y-100679819D01*
X268070713Y-100679819D02*
X268165951Y-100632200D01*
X268165951Y-100632200D02*
X268213570Y-100584580D01*
X268213570Y-100584580D02*
X268261189Y-100489342D01*
X268261189Y-100489342D02*
X268261189Y-100203628D01*
X268261189Y-100203628D02*
X268213570Y-100108390D01*
X268213570Y-100108390D02*
X268165951Y-100060771D01*
X268165951Y-100060771D02*
X268070713Y-100013152D01*
X268070713Y-100013152D02*
X267927856Y-100013152D01*
X267927856Y-100013152D02*
X267832618Y-100060771D01*
X267832618Y-100060771D02*
X267784999Y-100108390D01*
X267784999Y-100108390D02*
X267737380Y-100203628D01*
X267737380Y-100203628D02*
X267737380Y-100489342D01*
X267737380Y-100489342D02*
X267784999Y-100584580D01*
X267784999Y-100584580D02*
X267832618Y-100632200D01*
X267832618Y-100632200D02*
X267927856Y-100679819D01*
X267927856Y-100679819D02*
X268070713Y-100679819D01*
X267308808Y-100013152D02*
X267308808Y-100679819D01*
X267308808Y-100108390D02*
X267261189Y-100060771D01*
X267261189Y-100060771D02*
X267165951Y-100013152D01*
X267165951Y-100013152D02*
X267023094Y-100013152D01*
X267023094Y-100013152D02*
X266927856Y-100060771D01*
X266927856Y-100060771D02*
X266880237Y-100156009D01*
X266880237Y-100156009D02*
X266880237Y-100679819D01*
X266451665Y-100632200D02*
X266356427Y-100679819D01*
X266356427Y-100679819D02*
X266165951Y-100679819D01*
X266165951Y-100679819D02*
X266070713Y-100632200D01*
X266070713Y-100632200D02*
X266023094Y-100536961D01*
X266023094Y-100536961D02*
X266023094Y-100489342D01*
X266023094Y-100489342D02*
X266070713Y-100394104D01*
X266070713Y-100394104D02*
X266165951Y-100346485D01*
X266165951Y-100346485D02*
X266308808Y-100346485D01*
X266308808Y-100346485D02*
X266404046Y-100298866D01*
X266404046Y-100298866D02*
X266451665Y-100203628D01*
X266451665Y-100203628D02*
X266451665Y-100156009D01*
X266451665Y-100156009D02*
X266404046Y-100060771D01*
X266404046Y-100060771D02*
X266308808Y-100013152D01*
X266308808Y-100013152D02*
X266165951Y-100013152D01*
X266165951Y-100013152D02*
X266070713Y-100060771D01*
X265642141Y-100632200D02*
X265499284Y-100679819D01*
X265499284Y-100679819D02*
X265261189Y-100679819D01*
X265261189Y-100679819D02*
X265165951Y-100632200D01*
X265165951Y-100632200D02*
X265118332Y-100584580D01*
X265118332Y-100584580D02*
X265070713Y-100489342D01*
X265070713Y-100489342D02*
X265070713Y-100394104D01*
X265070713Y-100394104D02*
X265118332Y-100298866D01*
X265118332Y-100298866D02*
X265165951Y-100251247D01*
X265165951Y-100251247D02*
X265261189Y-100203628D01*
X265261189Y-100203628D02*
X265451665Y-100156009D01*
X265451665Y-100156009D02*
X265546903Y-100108390D01*
X265546903Y-100108390D02*
X265594522Y-100060771D01*
X265594522Y-100060771D02*
X265642141Y-99965533D01*
X265642141Y-99965533D02*
X265642141Y-99870295D01*
X265642141Y-99870295D02*
X265594522Y-99775057D01*
X265594522Y-99775057D02*
X265546903Y-99727438D01*
X265546903Y-99727438D02*
X265451665Y-99679819D01*
X265451665Y-99679819D02*
X265213570Y-99679819D01*
X265213570Y-99679819D02*
X265070713Y-99727438D01*
X264261189Y-100632200D02*
X264356427Y-100679819D01*
X264356427Y-100679819D02*
X264546903Y-100679819D01*
X264546903Y-100679819D02*
X264642141Y-100632200D01*
X264642141Y-100632200D02*
X264689760Y-100536961D01*
X264689760Y-100536961D02*
X264689760Y-100156009D01*
X264689760Y-100156009D02*
X264642141Y-100060771D01*
X264642141Y-100060771D02*
X264546903Y-100013152D01*
X264546903Y-100013152D02*
X264356427Y-100013152D01*
X264356427Y-100013152D02*
X264261189Y-100060771D01*
X264261189Y-100060771D02*
X264213570Y-100156009D01*
X264213570Y-100156009D02*
X264213570Y-100251247D01*
X264213570Y-100251247D02*
X264689760Y-100346485D01*
X263642141Y-100679819D02*
X263737379Y-100632200D01*
X263737379Y-100632200D02*
X263784998Y-100536961D01*
X263784998Y-100536961D02*
X263784998Y-99679819D01*
X262880236Y-100632200D02*
X262975474Y-100679819D01*
X262975474Y-100679819D02*
X263165950Y-100679819D01*
X263165950Y-100679819D02*
X263261188Y-100632200D01*
X263261188Y-100632200D02*
X263308807Y-100536961D01*
X263308807Y-100536961D02*
X263308807Y-100156009D01*
X263308807Y-100156009D02*
X263261188Y-100060771D01*
X263261188Y-100060771D02*
X263165950Y-100013152D01*
X263165950Y-100013152D02*
X262975474Y-100013152D01*
X262975474Y-100013152D02*
X262880236Y-100060771D01*
X262880236Y-100060771D02*
X262832617Y-100156009D01*
X262832617Y-100156009D02*
X262832617Y-100251247D01*
X262832617Y-100251247D02*
X263308807Y-100346485D01*
X261975474Y-100632200D02*
X262070712Y-100679819D01*
X262070712Y-100679819D02*
X262261188Y-100679819D01*
X262261188Y-100679819D02*
X262356426Y-100632200D01*
X262356426Y-100632200D02*
X262404045Y-100584580D01*
X262404045Y-100584580D02*
X262451664Y-100489342D01*
X262451664Y-100489342D02*
X262451664Y-100203628D01*
X262451664Y-100203628D02*
X262404045Y-100108390D01*
X262404045Y-100108390D02*
X262356426Y-100060771D01*
X262356426Y-100060771D02*
X262261188Y-100013152D01*
X262261188Y-100013152D02*
X262070712Y-100013152D01*
X262070712Y-100013152D02*
X261975474Y-100060771D01*
X261689759Y-100013152D02*
X261308807Y-100013152D01*
X261546902Y-99679819D02*
X261546902Y-100536961D01*
X261546902Y-100536961D02*
X261499283Y-100632200D01*
X261499283Y-100632200D02*
X261404045Y-100679819D01*
X261404045Y-100679819D02*
X261308807Y-100679819D01*
X260451664Y-100679819D02*
X261023092Y-100679819D01*
X260737378Y-100679819D02*
X260737378Y-99679819D01*
X260737378Y-99679819D02*
X260832616Y-99822676D01*
X260832616Y-99822676D02*
X260927854Y-99917914D01*
X260927854Y-99917914D02*
X261023092Y-99965533D01*
X271550476Y-102454819D02*
X272026666Y-102454819D01*
X272026666Y-102454819D02*
X272026666Y-101454819D01*
X264800476Y-102454819D02*
X265133809Y-101978628D01*
X265371904Y-102454819D02*
X265371904Y-101454819D01*
X265371904Y-101454819D02*
X264990952Y-101454819D01*
X264990952Y-101454819D02*
X264895714Y-101502438D01*
X264895714Y-101502438D02*
X264848095Y-101550057D01*
X264848095Y-101550057D02*
X264800476Y-101645295D01*
X264800476Y-101645295D02*
X264800476Y-101788152D01*
X264800476Y-101788152D02*
X264848095Y-101883390D01*
X264848095Y-101883390D02*
X264895714Y-101931009D01*
X264895714Y-101931009D02*
X264990952Y-101978628D01*
X264990952Y-101978628D02*
X265371904Y-101978628D01*
D12*
%TO.C,G\u002A\u002A\u002A*%
G36*
X284811512Y-180976950D02*
G01*
X284830706Y-181019655D01*
X284863189Y-181095137D01*
X284906275Y-181197153D01*
X284957892Y-181320742D01*
X285015968Y-181460940D01*
X285078432Y-181612786D01*
X285143211Y-181771317D01*
X285418165Y-182446502D01*
X285535024Y-183967443D01*
X285564762Y-184355145D01*
X285593524Y-184731680D01*
X285619372Y-185071946D01*
X285642406Y-185377329D01*
X285662722Y-185649213D01*
X285680420Y-185888983D01*
X285695597Y-186098023D01*
X285708351Y-186277720D01*
X285718782Y-186429457D01*
X285726986Y-186554619D01*
X285733063Y-186654592D01*
X285737111Y-186730760D01*
X285739227Y-186784508D01*
X285739510Y-186817221D01*
X285738059Y-186830284D01*
X285713814Y-186838987D01*
X285660290Y-186844520D01*
X285587146Y-186847063D01*
X285504039Y-186846799D01*
X285420626Y-186843911D01*
X285346566Y-186838582D01*
X285291516Y-186830993D01*
X285265132Y-186821330D01*
X285262463Y-186815908D01*
X285250835Y-186777428D01*
X285233184Y-186707450D01*
X285210637Y-186610883D01*
X285184323Y-186492639D01*
X285155368Y-186357625D01*
X285124901Y-186210753D01*
X285005399Y-185625154D01*
X284890545Y-183456384D01*
X284888759Y-183422656D01*
X284873320Y-183130930D01*
X284858323Y-182847254D01*
X284843916Y-182574444D01*
X284830247Y-182315315D01*
X284817464Y-182072684D01*
X284805716Y-181849365D01*
X284795149Y-181648174D01*
X284785913Y-181471927D01*
X284778155Y-181323440D01*
X284772023Y-181205528D01*
X284767665Y-181121007D01*
X284765229Y-181072692D01*
X284754767Y-180857769D01*
X284811512Y-180976950D01*
G37*
G36*
X277092314Y-180858530D02*
G01*
X277093021Y-180900757D01*
X277091226Y-180968095D01*
X277087021Y-181053154D01*
X277085316Y-181083111D01*
X277081217Y-181157617D01*
X277075335Y-181266180D01*
X277067827Y-181405856D01*
X277058850Y-181573705D01*
X277048560Y-181766783D01*
X277037114Y-181982148D01*
X277024667Y-182216859D01*
X277011378Y-182467972D01*
X276997402Y-182732546D01*
X276982895Y-183007639D01*
X276968015Y-183290307D01*
X276957034Y-183498577D01*
X276942485Y-183772950D01*
X276928428Y-184036323D01*
X276915015Y-184285894D01*
X276902401Y-184518862D01*
X276890739Y-184732423D01*
X276880185Y-184923774D01*
X276870891Y-185090114D01*
X276863011Y-185228640D01*
X276856701Y-185336549D01*
X276852112Y-185411039D01*
X276849401Y-185449307D01*
X276843598Y-185497889D01*
X276830783Y-185583423D01*
X276812235Y-185695910D01*
X276788746Y-185831263D01*
X276761112Y-185985393D01*
X276730125Y-186154212D01*
X276696579Y-186333633D01*
X276661268Y-186519568D01*
X276624985Y-186707929D01*
X276588524Y-186894629D01*
X276552678Y-187075580D01*
X276518242Y-187246693D01*
X276486009Y-187403882D01*
X276456772Y-187543059D01*
X276431325Y-187660135D01*
X276410462Y-187751023D01*
X276394976Y-187811635D01*
X276385662Y-187837884D01*
X276366094Y-187846816D01*
X276316785Y-187855219D01*
X276249988Y-187860732D01*
X276176967Y-187863045D01*
X276108983Y-187861844D01*
X276057297Y-187856818D01*
X276033172Y-187847654D01*
X276031228Y-187826640D01*
X276032005Y-187773989D01*
X276035517Y-187698427D01*
X276041474Y-187608307D01*
X276045221Y-187558229D01*
X276052226Y-187464555D01*
X276061455Y-187341095D01*
X276072528Y-187192951D01*
X276085062Y-187025222D01*
X276098678Y-186843010D01*
X276112994Y-186651415D01*
X276127628Y-186455538D01*
X276135488Y-186350453D01*
X276150394Y-186151612D01*
X276167551Y-185923224D01*
X276186518Y-185671122D01*
X276206855Y-185401136D01*
X276228124Y-185119100D01*
X276249884Y-184830844D01*
X276271695Y-184542200D01*
X276293119Y-184259001D01*
X276313715Y-183987077D01*
X276430468Y-182446694D01*
X276637581Y-181935539D01*
X276720867Y-181730301D01*
X276812984Y-181504199D01*
X276892428Y-181310305D01*
X276958914Y-181149305D01*
X277012156Y-181021887D01*
X277051868Y-180928738D01*
X277077765Y-180870547D01*
X277089560Y-180848000D01*
X277092314Y-180858530D01*
G37*
G36*
X280397163Y-186126803D02*
G01*
X280755676Y-186127092D01*
X281122593Y-186127588D01*
X284554801Y-186133154D01*
X284639516Y-186192530D01*
X284675739Y-186222299D01*
X284736425Y-186286601D01*
X284786394Y-186355505D01*
X284794828Y-186369969D01*
X284829818Y-186436518D01*
X284867270Y-186515823D01*
X284903929Y-186599902D01*
X284936539Y-186680768D01*
X284961845Y-186750438D01*
X284976590Y-186800926D01*
X284977519Y-186824248D01*
X284966599Y-186825958D01*
X284920177Y-186828666D01*
X284840692Y-186831603D01*
X284731685Y-186834688D01*
X284596700Y-186837840D01*
X284439279Y-186840979D01*
X284262963Y-186844024D01*
X284071296Y-186846894D01*
X283867819Y-186849510D01*
X283733734Y-186851223D01*
X283534258Y-186854260D01*
X283347355Y-186857680D01*
X283176812Y-186861384D01*
X283026414Y-186865271D01*
X282899948Y-186869238D01*
X282801200Y-186873186D01*
X282733955Y-186877013D01*
X282702000Y-186880619D01*
X282557101Y-186935921D01*
X282404675Y-187028825D01*
X282255242Y-187154417D01*
X282112524Y-187309550D01*
X281980243Y-187491077D01*
X281966946Y-187511867D01*
X281899984Y-187623751D01*
X281823246Y-187761494D01*
X281741058Y-187916781D01*
X281657746Y-188081293D01*
X281577635Y-188246715D01*
X281505052Y-188404727D01*
X281433280Y-188566147D01*
X280666445Y-188561035D01*
X279899610Y-188555923D01*
X279811105Y-188428923D01*
X279731257Y-188323931D01*
X279637348Y-188217427D01*
X279540312Y-188121635D01*
X279447878Y-188044164D01*
X279367776Y-187992619D01*
X279318418Y-187967380D01*
X279274467Y-187945123D01*
X279233979Y-187926240D01*
X279193681Y-187910452D01*
X279150303Y-187897479D01*
X279100571Y-187887043D01*
X279041213Y-187878864D01*
X278968958Y-187872663D01*
X278880532Y-187868160D01*
X278772663Y-187865078D01*
X278642080Y-187863136D01*
X278485510Y-187862055D01*
X278299680Y-187861557D01*
X278081319Y-187861362D01*
X277827154Y-187861191D01*
X277791042Y-187861152D01*
X277574654Y-187860675D01*
X277368925Y-187859817D01*
X277177408Y-187858620D01*
X277003654Y-187857122D01*
X276851215Y-187855363D01*
X276723645Y-187853385D01*
X276624495Y-187851226D01*
X276557317Y-187848927D01*
X276525664Y-187846528D01*
X276455098Y-187833000D01*
X276742228Y-187114311D01*
X276756095Y-187079672D01*
X276820973Y-186919472D01*
X276883162Y-186768802D01*
X276940736Y-186632139D01*
X276991766Y-186513960D01*
X277034328Y-186418739D01*
X277066492Y-186350952D01*
X277086333Y-186315075D01*
X277118810Y-186271057D01*
X277164210Y-186220848D01*
X277213078Y-186186645D01*
X277274317Y-186164363D01*
X277356827Y-186149918D01*
X277469511Y-186139223D01*
X277478026Y-186138691D01*
X277531940Y-186136922D01*
X277622164Y-186135271D01*
X277746551Y-186133744D01*
X277902954Y-186132348D01*
X278089228Y-186131090D01*
X278303226Y-186129976D01*
X278542800Y-186129014D01*
X278805806Y-186128210D01*
X279090095Y-186127571D01*
X279393522Y-186127104D01*
X279713940Y-186126816D01*
X280049203Y-186126713D01*
X280397163Y-186126803D01*
G37*
G36*
X286043077Y-187358936D02*
G01*
X289139923Y-187364077D01*
X289227846Y-187410144D01*
X289265418Y-187430946D01*
X289376454Y-187511996D01*
X289456685Y-187609370D01*
X289510119Y-187729050D01*
X289540767Y-187877017D01*
X289543139Y-187900750D01*
X289548226Y-187968948D01*
X289554697Y-188070916D01*
X289562401Y-188203386D01*
X289571185Y-188363092D01*
X289580899Y-188546766D01*
X289591388Y-188751141D01*
X289602502Y-188972949D01*
X289614087Y-189208925D01*
X289625993Y-189455801D01*
X289638067Y-189710309D01*
X289650156Y-189969183D01*
X289662109Y-190229156D01*
X289673774Y-190486960D01*
X289684998Y-190739328D01*
X289695629Y-190982994D01*
X289705516Y-191214689D01*
X289714505Y-191431148D01*
X289722446Y-191629102D01*
X289729185Y-191805286D01*
X289734571Y-191956431D01*
X289738452Y-192079271D01*
X289740675Y-192170538D01*
X289741141Y-192196822D01*
X289742417Y-192298999D01*
X289741393Y-192372279D01*
X289736998Y-192425047D01*
X289728157Y-192465686D01*
X289713797Y-192502579D01*
X289692845Y-192544108D01*
X289641507Y-192625163D01*
X289547190Y-192720016D01*
X289423231Y-192793975D01*
X289393539Y-192806425D01*
X289351104Y-192819068D01*
X289297933Y-192828445D01*
X289226941Y-192835430D01*
X289131043Y-192840894D01*
X289003154Y-192845711D01*
X288984751Y-192846253D01*
X288898234Y-192848005D01*
X288776891Y-192849622D01*
X288623677Y-192851102D01*
X288441549Y-192852445D01*
X288233462Y-192853651D01*
X288002372Y-192854719D01*
X287751236Y-192855649D01*
X287483010Y-192856441D01*
X287200650Y-192857094D01*
X286907112Y-192857608D01*
X286605353Y-192857981D01*
X286298328Y-192858215D01*
X285988994Y-192858308D01*
X285680306Y-192858260D01*
X285375221Y-192858071D01*
X285076696Y-192857740D01*
X284787685Y-192857267D01*
X284511146Y-192856651D01*
X284250034Y-192855892D01*
X284007306Y-192854990D01*
X283785918Y-192853943D01*
X283588826Y-192852753D01*
X283418986Y-192851417D01*
X283279353Y-192849937D01*
X283172886Y-192848311D01*
X283102539Y-192846539D01*
X283001268Y-192842712D01*
X282888667Y-192837521D01*
X282804265Y-192831833D01*
X282741723Y-192824889D01*
X282694701Y-192815928D01*
X282656863Y-192804191D01*
X282621867Y-192788918D01*
X282543043Y-192743126D01*
X282435839Y-192645899D01*
X282357306Y-192522231D01*
X282356480Y-192520460D01*
X282344859Y-192493978D01*
X282335045Y-192466388D01*
X282327043Y-192434772D01*
X282320857Y-192396213D01*
X282316495Y-192347794D01*
X282313960Y-192286598D01*
X282313258Y-192209708D01*
X282314395Y-192114206D01*
X282317377Y-191997176D01*
X282322207Y-191855699D01*
X282328893Y-191686860D01*
X282337438Y-191487740D01*
X282347849Y-191255423D01*
X282360131Y-190986991D01*
X282377114Y-190618991D01*
X282395344Y-190227634D01*
X282412117Y-189872165D01*
X282427531Y-189550892D01*
X282441683Y-189262120D01*
X282454671Y-189004158D01*
X282466593Y-188775311D01*
X282477545Y-188573888D01*
X282487626Y-188398194D01*
X282496933Y-188246538D01*
X282505564Y-188117226D01*
X282513616Y-188008565D01*
X282521186Y-187918861D01*
X282528373Y-187846423D01*
X282535273Y-187789557D01*
X282541985Y-187746570D01*
X282548606Y-187715769D01*
X282562197Y-187675143D01*
X282621489Y-187574966D01*
X282711068Y-187485497D01*
X282824627Y-187413640D01*
X282946231Y-187353796D01*
X286043077Y-187358936D01*
G37*
G36*
X280936540Y-180207263D02*
G01*
X284001308Y-180213000D01*
X284097925Y-180257547D01*
X284122553Y-180269199D01*
X284223237Y-180326191D01*
X284300014Y-180390664D01*
X284356497Y-180468851D01*
X284396300Y-180566981D01*
X284423038Y-180691287D01*
X284440322Y-180848000D01*
X284441556Y-180864176D01*
X284447720Y-180954952D01*
X284455301Y-181079417D01*
X284464126Y-181233935D01*
X284474023Y-181414869D01*
X284484819Y-181618586D01*
X284496339Y-181841448D01*
X284508411Y-182079820D01*
X284520863Y-182330067D01*
X284533520Y-182588554D01*
X284546210Y-182851643D01*
X284558760Y-183115701D01*
X284570996Y-183377092D01*
X284582746Y-183632179D01*
X284593836Y-183877327D01*
X284604094Y-184108901D01*
X284613346Y-184323265D01*
X284621418Y-184516784D01*
X284628140Y-184685822D01*
X284633336Y-184826743D01*
X284636833Y-184935911D01*
X284638460Y-185009692D01*
X284638453Y-185089207D01*
X284636209Y-185178481D01*
X284631950Y-185249956D01*
X284626139Y-185293000D01*
X284623046Y-185304679D01*
X284567985Y-185436579D01*
X284482695Y-185544081D01*
X284368254Y-185626137D01*
X284225740Y-185681700D01*
X284213181Y-185684505D01*
X284189312Y-185688056D01*
X284156159Y-185691283D01*
X284111969Y-185694200D01*
X284054989Y-185696825D01*
X283983468Y-185699173D01*
X283895652Y-185701260D01*
X283789789Y-185703103D01*
X283664127Y-185704716D01*
X283516913Y-185706117D01*
X283346395Y-185707321D01*
X283150820Y-185708344D01*
X282928435Y-185709203D01*
X282677488Y-185709913D01*
X282396228Y-185710490D01*
X282082900Y-185710950D01*
X281735752Y-185711310D01*
X281353033Y-185711584D01*
X280932990Y-185711791D01*
X280673891Y-185711903D01*
X280274270Y-185712085D01*
X279910834Y-185712214D01*
X279581777Y-185712234D01*
X279285296Y-185712091D01*
X279019584Y-185711728D01*
X278782838Y-185711090D01*
X278573253Y-185710122D01*
X278389024Y-185708767D01*
X278228347Y-185706971D01*
X278089416Y-185704678D01*
X277970427Y-185701833D01*
X277869576Y-185698379D01*
X277785057Y-185694262D01*
X277715066Y-185689426D01*
X277657798Y-185683815D01*
X277611448Y-185677374D01*
X277574212Y-185670047D01*
X277544285Y-185661779D01*
X277519862Y-185652515D01*
X277499139Y-185642198D01*
X277480310Y-185630774D01*
X277461572Y-185618186D01*
X277441119Y-185604380D01*
X277423343Y-185591880D01*
X277340502Y-185512933D01*
X277271932Y-185415252D01*
X277229023Y-185314412D01*
X277226333Y-185303694D01*
X277220357Y-185271587D01*
X277215802Y-185230823D01*
X277212725Y-185178640D01*
X277211181Y-185112279D01*
X277211226Y-185028979D01*
X277212914Y-184925980D01*
X277216302Y-184800519D01*
X277221445Y-184649838D01*
X277228399Y-184471176D01*
X277237218Y-184261771D01*
X277247959Y-184018863D01*
X277260677Y-183739692D01*
X277264825Y-183649606D01*
X277283378Y-183248126D01*
X277300369Y-182883451D01*
X277315913Y-182553736D01*
X277330127Y-182257139D01*
X277343126Y-181991814D01*
X277355027Y-181755919D01*
X277365944Y-181547609D01*
X277375995Y-181365041D01*
X277385294Y-181206371D01*
X277393957Y-181069754D01*
X277402101Y-180953347D01*
X277409842Y-180855306D01*
X277417294Y-180773788D01*
X277424575Y-180706948D01*
X277431800Y-180652942D01*
X277439084Y-180609927D01*
X277446544Y-180576059D01*
X277454295Y-180549493D01*
X277462454Y-180528387D01*
X277519096Y-180434081D01*
X277618575Y-180336980D01*
X277751641Y-180257742D01*
X277871773Y-180201526D01*
X280936540Y-180207263D01*
G37*
G36*
X275886291Y-188357739D02*
G01*
X276203199Y-188358477D01*
X276516320Y-188359594D01*
X276820923Y-188361097D01*
X276986161Y-188362032D01*
X277301700Y-188363839D01*
X277581604Y-188365562D01*
X277828195Y-188367324D01*
X278043796Y-188369246D01*
X278230729Y-188371451D01*
X278391317Y-188374061D01*
X278527883Y-188377197D01*
X278642750Y-188380983D01*
X278738239Y-188385540D01*
X278816675Y-188390991D01*
X278880378Y-188397457D01*
X278931673Y-188405060D01*
X278972882Y-188413924D01*
X279006327Y-188424169D01*
X279034331Y-188435918D01*
X279059217Y-188449294D01*
X279083308Y-188464418D01*
X279108925Y-188481413D01*
X279133234Y-188499044D01*
X279216100Y-188584372D01*
X279281421Y-188691395D01*
X279320587Y-188806871D01*
X279320823Y-188808103D01*
X279325473Y-188847993D01*
X279331635Y-188923617D01*
X279339154Y-189031861D01*
X279347876Y-189169612D01*
X279357645Y-189333756D01*
X279368306Y-189521181D01*
X279379705Y-189728772D01*
X279391685Y-189953416D01*
X279404093Y-190192001D01*
X279416772Y-190441413D01*
X279429569Y-190698537D01*
X279442328Y-190960262D01*
X279454893Y-191223473D01*
X279467111Y-191485057D01*
X279478825Y-191741902D01*
X279489881Y-191990893D01*
X279500123Y-192228917D01*
X279509398Y-192452860D01*
X279517549Y-192659610D01*
X279524421Y-192846054D01*
X279529860Y-193009077D01*
X279532513Y-193096175D01*
X279535598Y-193213516D01*
X279536708Y-193301613D01*
X279535483Y-193366593D01*
X279531564Y-193414583D01*
X279524594Y-193451711D01*
X279514212Y-193484103D01*
X279500061Y-193517888D01*
X279479568Y-193561771D01*
X279421240Y-193658878D01*
X279351511Y-193732158D01*
X279260696Y-193792731D01*
X279235650Y-193806431D01*
X279202138Y-193822855D01*
X279168085Y-193834970D01*
X279127071Y-193843681D01*
X279072675Y-193849891D01*
X278998478Y-193854506D01*
X278898060Y-193858429D01*
X278765000Y-193862564D01*
X278702264Y-193863873D01*
X278601534Y-193865147D01*
X278466736Y-193866337D01*
X278300415Y-193867436D01*
X278105115Y-193868438D01*
X277883377Y-193869334D01*
X277637747Y-193870119D01*
X277370768Y-193870783D01*
X277084984Y-193871322D01*
X276782937Y-193871726D01*
X276467171Y-193871989D01*
X276140231Y-193872105D01*
X275804660Y-193872065D01*
X275463000Y-193871863D01*
X272551769Y-193869442D01*
X272428517Y-193813004D01*
X272357201Y-193774290D01*
X272257193Y-193697052D01*
X272178460Y-193606966D01*
X272129758Y-193512831D01*
X272122533Y-193473610D01*
X272117248Y-193399637D01*
X272114580Y-193292203D01*
X272114546Y-193150694D01*
X272117161Y-192974497D01*
X272122440Y-192762999D01*
X272130399Y-192515588D01*
X272141054Y-192231649D01*
X272154420Y-191910570D01*
X272170512Y-191551737D01*
X272189346Y-191154538D01*
X272203183Y-190870040D01*
X272219053Y-190546167D01*
X272233365Y-190257529D01*
X272246248Y-190002008D01*
X272257833Y-189777488D01*
X272268247Y-189581854D01*
X272277623Y-189412988D01*
X272286087Y-189268774D01*
X272293771Y-189147095D01*
X272300803Y-189045836D01*
X272307313Y-188962880D01*
X272313431Y-188896110D01*
X272319287Y-188843410D01*
X272325008Y-188802664D01*
X272330726Y-188771755D01*
X272336569Y-188748566D01*
X272345069Y-188723020D01*
X272406485Y-188609331D01*
X272498800Y-188510986D01*
X272615773Y-188434998D01*
X272727616Y-188380077D01*
X273772923Y-188364900D01*
X273782390Y-188364764D01*
X273959285Y-188362684D01*
X274170239Y-188360935D01*
X274410522Y-188359524D01*
X274675403Y-188358456D01*
X274960152Y-188357738D01*
X275260036Y-188357375D01*
X275570326Y-188357373D01*
X275886291Y-188357739D01*
G37*
G36*
X279668830Y-189044430D02*
G01*
X279687917Y-189081898D01*
X279719089Y-189151846D01*
X279737429Y-189194869D01*
X279770505Y-189274284D01*
X279814112Y-189380161D01*
X279866090Y-189507220D01*
X279924279Y-189650182D01*
X279986522Y-189803766D01*
X280050659Y-189962692D01*
X280318167Y-190627000D01*
X280493298Y-192922769D01*
X280508804Y-193125944D01*
X280538835Y-193519070D01*
X280566088Y-193875978D01*
X280590647Y-194198526D01*
X280612595Y-194488570D01*
X280632014Y-194747966D01*
X280648987Y-194978571D01*
X280663597Y-195182241D01*
X280675926Y-195360833D01*
X280686057Y-195516203D01*
X280694072Y-195650208D01*
X280700055Y-195764704D01*
X280704088Y-195861547D01*
X280706254Y-195942595D01*
X280706635Y-196009703D01*
X280705315Y-196064728D01*
X280702375Y-196109527D01*
X280697899Y-196145955D01*
X280691969Y-196175870D01*
X280684668Y-196201128D01*
X280676078Y-196223585D01*
X280666283Y-196245097D01*
X280655365Y-196267522D01*
X280643406Y-196292716D01*
X280617715Y-196345830D01*
X280548075Y-196459550D01*
X280465601Y-196548484D01*
X280361546Y-196620874D01*
X280227162Y-196684965D01*
X280113154Y-196731841D01*
X276273846Y-196730805D01*
X276253840Y-196730800D01*
X275861637Y-196730615D01*
X275475468Y-196730292D01*
X275097536Y-196729839D01*
X274730044Y-196729264D01*
X274375196Y-196728575D01*
X274035193Y-196727779D01*
X273712239Y-196726884D01*
X273408537Y-196725897D01*
X273126288Y-196724827D01*
X272867697Y-196723681D01*
X272634966Y-196722466D01*
X272430297Y-196721191D01*
X272255895Y-196719863D01*
X272113960Y-196718491D01*
X272006697Y-196717080D01*
X271936308Y-196715640D01*
X271888450Y-196714273D01*
X271745401Y-196709928D01*
X271634489Y-196705783D01*
X271550333Y-196701278D01*
X271487550Y-196695851D01*
X271440760Y-196688940D01*
X271404582Y-196679985D01*
X271373633Y-196668424D01*
X271342533Y-196653695D01*
X271224046Y-196580927D01*
X271105383Y-196469109D01*
X271017461Y-196334097D01*
X271003450Y-196306186D01*
X270989043Y-196277597D01*
X270976204Y-196250188D01*
X270965001Y-196221953D01*
X270955500Y-196190882D01*
X270947769Y-196154970D01*
X270941875Y-196112208D01*
X270937886Y-196060589D01*
X270935868Y-195998105D01*
X270935890Y-195922750D01*
X270938017Y-195832516D01*
X270942318Y-195725395D01*
X270948860Y-195599381D01*
X270957710Y-195452465D01*
X270968935Y-195282640D01*
X270982603Y-195087898D01*
X270998780Y-194866234D01*
X271017534Y-194615638D01*
X271038933Y-194334103D01*
X271063043Y-194019623D01*
X271089932Y-193670189D01*
X271119668Y-193283795D01*
X271325440Y-190607461D01*
X271540867Y-190079923D01*
X271601293Y-189932023D01*
X271677107Y-189746767D01*
X271740437Y-189592498D01*
X271792582Y-189466127D01*
X271834835Y-189364561D01*
X271868494Y-189284710D01*
X271894855Y-189223483D01*
X271915214Y-189177789D01*
X271930866Y-189144537D01*
X271943108Y-189120637D01*
X271952893Y-189102860D01*
X271964943Y-189086075D01*
X271971299Y-189093476D01*
X271973923Y-189130028D01*
X271974780Y-189200692D01*
X271974707Y-189208835D01*
X271973126Y-189258494D01*
X271969597Y-189343651D01*
X271964256Y-189461655D01*
X271957233Y-189609860D01*
X271948661Y-189785615D01*
X271938674Y-189986273D01*
X271927403Y-190209185D01*
X271914982Y-190451701D01*
X271901542Y-190711174D01*
X271887217Y-190984955D01*
X271872139Y-191270395D01*
X271856440Y-191564846D01*
X271737141Y-193792231D01*
X271496602Y-194993846D01*
X271488109Y-195036293D01*
X271446462Y-195245117D01*
X271407471Y-195441710D01*
X271371767Y-195622814D01*
X271339985Y-195785169D01*
X271312758Y-195925516D01*
X271290717Y-196040594D01*
X271274498Y-196127144D01*
X271264731Y-196181906D01*
X271262051Y-196201622D01*
X271265411Y-196195884D01*
X271281547Y-196159393D01*
X271309576Y-196092450D01*
X271348000Y-195998737D01*
X271395322Y-195881939D01*
X271450046Y-195745736D01*
X271510674Y-195593813D01*
X271575711Y-195429852D01*
X271610248Y-195342645D01*
X271675394Y-195178786D01*
X271736511Y-195025872D01*
X271791886Y-194888141D01*
X271839807Y-194769828D01*
X271878561Y-194675171D01*
X271906437Y-194608406D01*
X271921721Y-194573769D01*
X271973416Y-194489490D01*
X272058853Y-194395639D01*
X272155337Y-194327826D01*
X272163914Y-194323726D01*
X272175274Y-194319504D01*
X272190123Y-194315655D01*
X272210157Y-194312162D01*
X272237069Y-194309007D01*
X272272554Y-194306174D01*
X272318307Y-194303644D01*
X272376023Y-194301402D01*
X272447396Y-194299429D01*
X272534121Y-194297708D01*
X272637892Y-194296222D01*
X272760405Y-194294955D01*
X272903353Y-194293888D01*
X273068432Y-194293004D01*
X273257336Y-194292286D01*
X273471759Y-194291718D01*
X273713397Y-194291281D01*
X273983944Y-194290959D01*
X274285095Y-194290734D01*
X274618544Y-194290589D01*
X274985986Y-194290506D01*
X275389115Y-194290470D01*
X275829627Y-194290461D01*
X279431427Y-194290461D01*
X279519670Y-194346423D01*
X279549768Y-194366864D01*
X279607728Y-194413003D01*
X279648893Y-194454483D01*
X279652602Y-194459411D01*
X279672777Y-194491815D01*
X279698692Y-194541824D01*
X279731346Y-194611812D01*
X279771738Y-194704150D01*
X279820867Y-194821212D01*
X279879733Y-194965368D01*
X279949335Y-195138991D01*
X280030673Y-195344454D01*
X280124745Y-195584128D01*
X280170895Y-195701407D01*
X280224528Y-195835881D01*
X280272351Y-195953775D01*
X280312709Y-196051114D01*
X280343951Y-196123923D01*
X280364425Y-196168227D01*
X280372477Y-196180051D01*
X280372506Y-196179881D01*
X280369417Y-196155730D01*
X280359176Y-196096789D01*
X280342439Y-196006435D01*
X280319862Y-195888047D01*
X280292099Y-195745004D01*
X280259808Y-195580684D01*
X280223642Y-195398465D01*
X280184258Y-195201727D01*
X280142312Y-194993846D01*
X279906823Y-193831307D01*
X279868771Y-193147461D01*
X279868652Y-193145322D01*
X279857036Y-192935463D01*
X279844584Y-192708560D01*
X279831451Y-192467565D01*
X279817793Y-192215427D01*
X279803766Y-191955099D01*
X279789523Y-191689530D01*
X279775221Y-191421671D01*
X279761015Y-191154473D01*
X279747060Y-190890887D01*
X279733510Y-190633862D01*
X279720522Y-190386351D01*
X279708251Y-190151303D01*
X279696851Y-189931670D01*
X279686478Y-189730401D01*
X279677287Y-189550448D01*
X279669433Y-189394762D01*
X279663072Y-189266292D01*
X279658358Y-189167990D01*
X279655448Y-189102807D01*
X279654495Y-189073692D01*
X279655058Y-189052591D01*
X279658865Y-189035856D01*
X279668830Y-189044430D01*
G37*
G36*
X290875229Y-195213952D02*
G01*
X290807469Y-195363381D01*
X290714717Y-195484685D01*
X290593947Y-195581334D01*
X290442136Y-195656802D01*
X290292692Y-195715423D01*
X286004000Y-195711211D01*
X281715308Y-195707000D01*
X281568769Y-195636453D01*
X281484645Y-195591854D01*
X281369750Y-195509564D01*
X281281156Y-195411415D01*
X281210961Y-195289752D01*
X281190684Y-195242403D01*
X281170449Y-195179069D01*
X290580175Y-195179069D01*
X290582513Y-195202256D01*
X290588390Y-195205313D01*
X290595539Y-195189231D01*
X290594129Y-195178887D01*
X290582513Y-195176205D01*
X290580175Y-195179069D01*
X281170449Y-195179069D01*
X281166745Y-195167475D01*
X281150696Y-195083639D01*
X281142108Y-194984945D01*
X281140549Y-194865445D01*
X281145591Y-194719190D01*
X281156804Y-194540231D01*
X281168648Y-194376263D01*
X281185026Y-194152437D01*
X281202876Y-193911248D01*
X281221989Y-193655378D01*
X281242155Y-193387508D01*
X281263163Y-193110321D01*
X281284804Y-192826500D01*
X281306868Y-192538727D01*
X281329145Y-192249685D01*
X281351424Y-191962055D01*
X281373497Y-191678520D01*
X281395151Y-191401763D01*
X281416179Y-191134466D01*
X281436369Y-190879311D01*
X281455513Y-190638981D01*
X281473398Y-190416159D01*
X281489817Y-190213526D01*
X281504558Y-190033765D01*
X281517413Y-189879558D01*
X281528170Y-189753588D01*
X281536619Y-189658537D01*
X281542552Y-189597088D01*
X281545757Y-189571923D01*
X281549167Y-189561803D01*
X281566509Y-189515782D01*
X281596261Y-189439686D01*
X281636774Y-189337640D01*
X281686399Y-189213764D01*
X281743488Y-189072181D01*
X281806393Y-188917013D01*
X281873466Y-188752383D01*
X281941647Y-188586378D01*
X282014743Y-188411099D01*
X282075614Y-188268493D01*
X282123919Y-188159328D01*
X282159318Y-188084373D01*
X282181469Y-188044392D01*
X282190031Y-188040154D01*
X282189718Y-188063591D01*
X282187478Y-188123272D01*
X282183446Y-188216045D01*
X282177778Y-188338903D01*
X282170630Y-188488839D01*
X282162157Y-188662847D01*
X282152514Y-188857918D01*
X282141857Y-189071047D01*
X282130342Y-189299226D01*
X282118124Y-189539448D01*
X282105357Y-189788706D01*
X282092199Y-190043993D01*
X282078804Y-190302302D01*
X282065328Y-190560627D01*
X282051926Y-190815959D01*
X282038754Y-191065292D01*
X282025968Y-191305619D01*
X282013721Y-191533934D01*
X282002172Y-191747228D01*
X281991473Y-191942495D01*
X281981782Y-192116728D01*
X281973254Y-192266921D01*
X281966043Y-192390065D01*
X281960307Y-192483154D01*
X281957646Y-192520355D01*
X281951365Y-192588480D01*
X281942453Y-192664310D01*
X281930323Y-192751241D01*
X281914389Y-192852669D01*
X281894065Y-192971990D01*
X281868764Y-193112599D01*
X281837901Y-193277893D01*
X281800889Y-193471267D01*
X281757141Y-193696119D01*
X281706073Y-193955842D01*
X281698232Y-193995591D01*
X281657197Y-194204410D01*
X281618808Y-194401052D01*
X281583687Y-194582249D01*
X281552457Y-194744731D01*
X281525739Y-194885231D01*
X281504156Y-195000479D01*
X281488330Y-195087207D01*
X281478884Y-195142147D01*
X281476440Y-195162029D01*
X281477314Y-195161256D01*
X281489178Y-195136605D01*
X281513318Y-195080409D01*
X281548160Y-194996522D01*
X281592128Y-194888796D01*
X281643646Y-194761083D01*
X281701140Y-194617237D01*
X281763034Y-194461110D01*
X281842806Y-194259473D01*
X281915361Y-194077232D01*
X281976610Y-193925146D01*
X282027997Y-193799972D01*
X282070962Y-193698468D01*
X282106947Y-193617393D01*
X282137394Y-193553503D01*
X282163744Y-193503556D01*
X282187439Y-193464311D01*
X282209921Y-193432524D01*
X282232631Y-193404954D01*
X282243163Y-193392026D01*
X282253731Y-193377275D01*
X282263180Y-193363803D01*
X282273185Y-193351553D01*
X282285422Y-193340467D01*
X282301564Y-193330487D01*
X282323287Y-193321556D01*
X282352266Y-193313616D01*
X282390175Y-193306610D01*
X282438689Y-193300479D01*
X282499483Y-193295167D01*
X282574232Y-193290615D01*
X282664611Y-193286766D01*
X282772293Y-193283562D01*
X282898955Y-193280946D01*
X283046271Y-193278860D01*
X283215915Y-193277246D01*
X283409564Y-193276047D01*
X283628890Y-193275204D01*
X283875570Y-193274661D01*
X284151277Y-193274360D01*
X284457688Y-193274243D01*
X284796476Y-193274252D01*
X285169316Y-193274330D01*
X285577883Y-193274419D01*
X286023853Y-193274461D01*
X286389642Y-193274503D01*
X286840821Y-193274690D01*
X287254650Y-193275031D01*
X287632114Y-193275534D01*
X287974196Y-193276204D01*
X288281881Y-193277046D01*
X288556153Y-193278067D01*
X288797996Y-193279272D01*
X289008394Y-193280668D01*
X289188331Y-193282260D01*
X289338793Y-193284053D01*
X289460762Y-193286055D01*
X289555223Y-193288271D01*
X289623160Y-193290706D01*
X289665558Y-193293366D01*
X289683400Y-193296258D01*
X289711661Y-193314957D01*
X289761313Y-193355150D01*
X289815677Y-193404710D01*
X289818053Y-193407015D01*
X289839543Y-193428939D01*
X289859592Y-193452765D01*
X289879778Y-193481935D01*
X289901680Y-193519895D01*
X289926876Y-193570090D01*
X289956945Y-193635964D01*
X289993466Y-193720963D01*
X290038017Y-193828531D01*
X290092177Y-193962114D01*
X290157525Y-194125155D01*
X290235640Y-194321100D01*
X290294591Y-194468637D01*
X290358411Y-194627114D01*
X290416579Y-194770236D01*
X290467647Y-194894504D01*
X290510164Y-194996420D01*
X290542683Y-195072484D01*
X290563754Y-195119198D01*
X290571928Y-195133063D01*
X290571410Y-195125386D01*
X290564911Y-195083693D01*
X290551823Y-195009203D01*
X290532816Y-194905474D01*
X290508557Y-194776064D01*
X290479717Y-194624530D01*
X290446966Y-194454429D01*
X290410973Y-194269320D01*
X290372406Y-194072760D01*
X290355713Y-193987996D01*
X290316385Y-193787858D01*
X290278849Y-193596249D01*
X290243932Y-193417427D01*
X290212462Y-193255651D01*
X290185266Y-193115178D01*
X290163171Y-193000265D01*
X290147005Y-192915171D01*
X290137594Y-192864154D01*
X290137358Y-192862770D01*
X290132424Y-192819651D01*
X290125710Y-192740788D01*
X290117387Y-192629278D01*
X290107629Y-192488217D01*
X290096608Y-192320703D01*
X290084496Y-192129832D01*
X290071467Y-191918702D01*
X290057693Y-191690411D01*
X290043347Y-191448053D01*
X290028600Y-191194728D01*
X290013627Y-190933532D01*
X289998598Y-190667563D01*
X289983688Y-190399916D01*
X289969068Y-190133689D01*
X289954912Y-189871980D01*
X289941391Y-189617885D01*
X289928679Y-189374502D01*
X289916947Y-189144927D01*
X289906369Y-188932257D01*
X289897118Y-188739590D01*
X289889365Y-188570023D01*
X289883284Y-188426652D01*
X289879047Y-188312576D01*
X289876826Y-188230890D01*
X289876795Y-188184692D01*
X289882385Y-188047923D01*
X289976423Y-188261161D01*
X289980891Y-188271338D01*
X290015033Y-188350807D01*
X290060395Y-188458464D01*
X290114112Y-188587407D01*
X290173320Y-188730733D01*
X290235153Y-188881542D01*
X290296748Y-189032930D01*
X290523035Y-189591461D01*
X290694674Y-191831821D01*
X290712111Y-192059401D01*
X290741973Y-192449213D01*
X290769039Y-192802908D01*
X290793424Y-193122328D01*
X290815242Y-193409318D01*
X290834608Y-193665723D01*
X290851637Y-193893386D01*
X290866442Y-194094151D01*
X290879139Y-194269862D01*
X290889841Y-194422362D01*
X290898664Y-194553497D01*
X290905722Y-194665111D01*
X290911129Y-194759046D01*
X290915001Y-194837147D01*
X290917451Y-194901258D01*
X290918594Y-194953223D01*
X290918544Y-194994887D01*
X290917416Y-195028092D01*
X290915326Y-195054683D01*
X290912386Y-195076505D01*
X290908712Y-195095400D01*
X290904418Y-195113213D01*
X290899618Y-195131788D01*
X290882567Y-195189231D01*
X290875229Y-195213952D01*
G37*
D11*
%TO.C,S33*%
X245907500Y-102352000D02*
X246907500Y-102352000D01*
X245907500Y-103352000D02*
X245907500Y-102352000D01*
X245907500Y-116352000D02*
X245907500Y-115956000D01*
X246907500Y-116352000D02*
X245907500Y-116352000D01*
X247827500Y-111892000D02*
X247827500Y-112908000D01*
X247827500Y-115956000D02*
X247827500Y-116337000D01*
X247827500Y-116337000D02*
X256717500Y-116337000D01*
X252907500Y-111892000D02*
X247827500Y-111892000D01*
X257098500Y-109987000D02*
X255447500Y-109987000D01*
X258907500Y-102352000D02*
X259907500Y-102352000D01*
X259257500Y-109987000D02*
X258876500Y-109987000D01*
X259257500Y-110368000D02*
X259257500Y-109987000D01*
X259257500Y-113797000D02*
X259257500Y-113416000D01*
X259907500Y-102352000D02*
X259907500Y-103352000D01*
X259907500Y-115352000D02*
X259907500Y-116352000D01*
X259907500Y-116352000D02*
X258907500Y-116352000D01*
X255368768Y-109979503D02*
G75*
G02*
X252907500Y-111892000I-2461268J627503D01*
G01*
X259257500Y-113797000D02*
G75*
G02*
X256717500Y-116337000I-2540001J1D01*
G01*
D13*
%TO.C,D26*%
X234752000Y-175458000D02*
X235352000Y-175858000D01*
X234752000Y-175858000D02*
X234252000Y-175858000D01*
X234752000Y-176258000D02*
X234752000Y-175458000D01*
X235352000Y-175858000D02*
X234752000Y-176258000D01*
X235352000Y-175858000D02*
X235352000Y-175308000D01*
X235352000Y-175858000D02*
X235352000Y-176408000D01*
X235752000Y-175858000D02*
X235352000Y-175858000D01*
%TO.C,D24*%
X197996000Y-175876000D02*
X198596000Y-176276000D01*
X197996000Y-176276000D02*
X197496000Y-176276000D01*
X197996000Y-176676000D02*
X197996000Y-175876000D01*
X198596000Y-176276000D02*
X197996000Y-176676000D01*
X198596000Y-176276000D02*
X198596000Y-175726000D01*
X198596000Y-176276000D02*
X198596000Y-176826000D01*
X198996000Y-176276000D02*
X198596000Y-176276000D01*
D11*
%TO.C,S31*%
X181725500Y-178352000D02*
X182725500Y-178352000D01*
X181725500Y-179352000D02*
X181725500Y-178352000D01*
X181725500Y-192352000D02*
X181725500Y-191956000D01*
X182725500Y-192352000D02*
X181725500Y-192352000D01*
X183645500Y-187892000D02*
X183645500Y-188908000D01*
X183645500Y-191956000D02*
X183645500Y-192337000D01*
X183645500Y-192337000D02*
X192535500Y-192337000D01*
X188725500Y-187892000D02*
X183645500Y-187892000D01*
X192916500Y-185987000D02*
X191265500Y-185987000D01*
X194725500Y-178352000D02*
X195725500Y-178352000D01*
X195075500Y-185987000D02*
X194694500Y-185987000D01*
X195075500Y-186368000D02*
X195075500Y-185987000D01*
X195075500Y-189797000D02*
X195075500Y-189416000D01*
X195725500Y-178352000D02*
X195725500Y-179352000D01*
X195725500Y-191352000D02*
X195725500Y-192352000D01*
X195725500Y-192352000D02*
X194725500Y-192352000D01*
X191186768Y-185979503D02*
G75*
G02*
X188725500Y-187892000I-2461268J627503D01*
G01*
X195075500Y-189797000D02*
G75*
G02*
X192535500Y-192337000I-2540001J1D01*
G01*
%TO.C,S8*%
X118170000Y-121352000D02*
X119170000Y-121352000D01*
X118170000Y-122352000D02*
X118170000Y-121352000D01*
X118170000Y-135352000D02*
X118170000Y-134956000D01*
X119170000Y-135352000D02*
X118170000Y-135352000D01*
X120090000Y-130892000D02*
X120090000Y-131908000D01*
X120090000Y-134956000D02*
X120090000Y-135337000D01*
X120090000Y-135337000D02*
X128980000Y-135337000D01*
X125170000Y-130892000D02*
X120090000Y-130892000D01*
X129361000Y-128987000D02*
X127710000Y-128987000D01*
X131170000Y-121352000D02*
X132170000Y-121352000D01*
X131520000Y-128987000D02*
X131139000Y-128987000D01*
X131520000Y-129368000D02*
X131520000Y-128987000D01*
X131520000Y-132797000D02*
X131520000Y-132416000D01*
X132170000Y-121352000D02*
X132170000Y-122352000D01*
X132170000Y-134352000D02*
X132170000Y-135352000D01*
X132170000Y-135352000D02*
X131170000Y-135352000D01*
X127631268Y-128979503D02*
G75*
G02*
X125170000Y-130892000I-2461268J627503D01*
G01*
X131520000Y-132797000D02*
G75*
G02*
X128980000Y-135337000I-2540001J1D01*
G01*
D13*
%TO.C,D6*%
X224846000Y-118308000D02*
X225446000Y-118708000D01*
X224846000Y-118708000D02*
X224346000Y-118708000D01*
X224846000Y-119108000D02*
X224846000Y-118308000D01*
X225446000Y-118708000D02*
X224846000Y-119108000D01*
X225446000Y-118708000D02*
X225446000Y-118158000D01*
X225446000Y-118708000D02*
X225446000Y-119258000D01*
X225846000Y-118708000D02*
X225446000Y-118708000D01*
%TO.C,D33*%
X258449000Y-116948000D02*
X259049000Y-117348000D01*
X258449000Y-117348000D02*
X257949000Y-117348000D01*
X258449000Y-117748000D02*
X258449000Y-116948000D01*
X259049000Y-117348000D02*
X258449000Y-117748000D01*
X259049000Y-117348000D02*
X259049000Y-116798000D01*
X259049000Y-117348000D02*
X259049000Y-117898000D01*
X259449000Y-117348000D02*
X259049000Y-117348000D01*
%TO.C,D9*%
X159314000Y-137612000D02*
X159914000Y-138012000D01*
X159314000Y-138012000D02*
X158814000Y-138012000D01*
X159314000Y-138412000D02*
X159314000Y-137612000D01*
X159914000Y-138012000D02*
X159314000Y-138412000D01*
X159914000Y-138012000D02*
X159914000Y-137462000D01*
X159914000Y-138012000D02*
X159914000Y-138562000D01*
X160314000Y-138012000D02*
X159914000Y-138012000D01*
%TO.C,D16*%
X168458000Y-155900000D02*
X169058000Y-156300000D01*
X168458000Y-156300000D02*
X167958000Y-156300000D01*
X168458000Y-156700000D02*
X168458000Y-155900000D01*
X169058000Y-156300000D02*
X168458000Y-156700000D01*
X169058000Y-156300000D02*
X169058000Y-155750000D01*
X169058000Y-156300000D02*
X169058000Y-156850000D01*
X169458000Y-156300000D02*
X169058000Y-156300000D01*
%TO.C,D10*%
X177602000Y-137358000D02*
X178202000Y-137758000D01*
X177602000Y-137758000D02*
X177102000Y-137758000D01*
X177602000Y-138158000D02*
X177602000Y-137358000D01*
X178202000Y-137758000D02*
X177602000Y-138158000D01*
X178202000Y-137758000D02*
X178202000Y-137208000D01*
X178202000Y-137758000D02*
X178202000Y-138308000D01*
X178602000Y-137758000D02*
X178202000Y-137758000D01*
D11*
%TO.C,S20*%
X228079000Y-140352000D02*
X229079000Y-140352000D01*
X228079000Y-141352000D02*
X228079000Y-140352000D01*
X228079000Y-154352000D02*
X228079000Y-153956000D01*
X229079000Y-154352000D02*
X228079000Y-154352000D01*
X229999000Y-149892000D02*
X229999000Y-150908000D01*
X229999000Y-153956000D02*
X229999000Y-154337000D01*
X229999000Y-154337000D02*
X238889000Y-154337000D01*
X235079000Y-149892000D02*
X229999000Y-149892000D01*
X239270000Y-147987000D02*
X237619000Y-147987000D01*
X241079000Y-140352000D02*
X242079000Y-140352000D01*
X241429000Y-147987000D02*
X241048000Y-147987000D01*
X241429000Y-148368000D02*
X241429000Y-147987000D01*
X241429000Y-151797000D02*
X241429000Y-151416000D01*
X242079000Y-140352000D02*
X242079000Y-141352000D01*
X242079000Y-153352000D02*
X242079000Y-154352000D01*
X242079000Y-154352000D02*
X241079000Y-154352000D01*
X237540268Y-147979503D02*
G75*
G02*
X235079000Y-149892000I-2461268J627503D01*
G01*
X241429000Y-151797000D02*
G75*
G02*
X238889000Y-154337000I-2540001J1D01*
G01*
%TO.C,S11*%
X180554000Y-121352000D02*
X181554000Y-121352000D01*
X180554000Y-122352000D02*
X180554000Y-121352000D01*
X180554000Y-135352000D02*
X180554000Y-134956000D01*
X181554000Y-135352000D02*
X180554000Y-135352000D01*
X182474000Y-130892000D02*
X182474000Y-131908000D01*
X182474000Y-134956000D02*
X182474000Y-135337000D01*
X182474000Y-135337000D02*
X191364000Y-135337000D01*
X187554000Y-130892000D02*
X182474000Y-130892000D01*
X191745000Y-128987000D02*
X190094000Y-128987000D01*
X193554000Y-121352000D02*
X194554000Y-121352000D01*
X193904000Y-128987000D02*
X193523000Y-128987000D01*
X193904000Y-129368000D02*
X193904000Y-128987000D01*
X193904000Y-132797000D02*
X193904000Y-132416000D01*
X194554000Y-121352000D02*
X194554000Y-122352000D01*
X194554000Y-134352000D02*
X194554000Y-135352000D01*
X194554000Y-135352000D02*
X193554000Y-135352000D01*
X190015268Y-128979503D02*
G75*
G02*
X187554000Y-130892000I-2461268J627503D01*
G01*
X193904000Y-132797000D02*
G75*
G02*
X191364000Y-135337000I-2540001J1D01*
G01*
D13*
%TO.C,D23*%
X178058000Y-175876000D02*
X178658000Y-176276000D01*
X178058000Y-176276000D02*
X177558000Y-176276000D01*
X178058000Y-176676000D02*
X178058000Y-175876000D01*
X178658000Y-176276000D02*
X178058000Y-176676000D01*
X178658000Y-176276000D02*
X178658000Y-175726000D01*
X178658000Y-176276000D02*
X178658000Y-176826000D01*
X179058000Y-176276000D02*
X178658000Y-176276000D01*
%TO.C,D7*%
X246182000Y-117546000D02*
X246782000Y-117946000D01*
X246182000Y-117946000D02*
X245682000Y-117946000D01*
X246182000Y-118346000D02*
X246182000Y-117546000D01*
X246782000Y-117946000D02*
X246182000Y-118346000D01*
X246782000Y-117946000D02*
X246782000Y-117396000D01*
X246782000Y-117946000D02*
X246782000Y-118496000D01*
X247182000Y-117946000D02*
X246782000Y-117946000D01*
D11*
%TO.C,S6*%
X207907500Y-102352000D02*
X208907500Y-102352000D01*
X207907500Y-103352000D02*
X207907500Y-102352000D01*
X207907500Y-116352000D02*
X207907500Y-115956000D01*
X208907500Y-116352000D02*
X207907500Y-116352000D01*
X209827500Y-111892000D02*
X209827500Y-112908000D01*
X209827500Y-115956000D02*
X209827500Y-116337000D01*
X209827500Y-116337000D02*
X218717500Y-116337000D01*
X214907500Y-111892000D02*
X209827500Y-111892000D01*
X219098500Y-109987000D02*
X217447500Y-109987000D01*
X220907500Y-102352000D02*
X221907500Y-102352000D01*
X221257500Y-109987000D02*
X220876500Y-109987000D01*
X221257500Y-110368000D02*
X221257500Y-109987000D01*
X221257500Y-113797000D02*
X221257500Y-113416000D01*
X221907500Y-102352000D02*
X221907500Y-103352000D01*
X221907500Y-115352000D02*
X221907500Y-116352000D01*
X221907500Y-116352000D02*
X220907500Y-116352000D01*
X217368768Y-109979503D02*
G75*
G02*
X214907500Y-111892000I-2461268J627503D01*
G01*
X221257500Y-113797000D02*
G75*
G02*
X218717500Y-116337000I-2540001J1D01*
G01*
%TO.C,F3*%
X169907500Y-83800000D02*
X170907500Y-83800000D01*
X169907500Y-84800000D02*
X169907500Y-83800000D01*
X169907500Y-97800000D02*
X169907500Y-97404000D01*
X170907500Y-97800000D02*
X169907500Y-97800000D01*
X171827500Y-93340000D02*
X171827500Y-94356000D01*
X171827500Y-97404000D02*
X171827500Y-97785000D01*
X171827500Y-97785000D02*
X180717500Y-97785000D01*
X176907500Y-93340000D02*
X171827500Y-93340000D01*
X181098500Y-91435000D02*
X179447500Y-91435000D01*
X182907500Y-83800000D02*
X183907500Y-83800000D01*
X183257500Y-91435000D02*
X182876500Y-91435000D01*
X183257500Y-91816000D02*
X183257500Y-91435000D01*
X183257500Y-95245000D02*
X183257500Y-94864000D01*
X183907500Y-83800000D02*
X183907500Y-84800000D01*
X183907500Y-96800000D02*
X183907500Y-97800000D01*
X183907500Y-97800000D02*
X182907500Y-97800000D01*
X179368768Y-91427503D02*
G75*
G02*
X176907500Y-93340000I-2461268J627503D01*
G01*
X183257500Y-95245000D02*
G75*
G02*
X180717500Y-97785000I-2540001J1D01*
G01*
%TO.C,F1*%
X131907500Y-83800000D02*
X132907500Y-83800000D01*
X131907500Y-84800000D02*
X131907500Y-83800000D01*
X131907500Y-97800000D02*
X131907500Y-97404000D01*
X132907500Y-97800000D02*
X131907500Y-97800000D01*
X133827500Y-93340000D02*
X133827500Y-94356000D01*
X133827500Y-97404000D02*
X133827500Y-97785000D01*
X133827500Y-97785000D02*
X142717500Y-97785000D01*
X138907500Y-93340000D02*
X133827500Y-93340000D01*
X143098500Y-91435000D02*
X141447500Y-91435000D01*
X144907500Y-83800000D02*
X145907500Y-83800000D01*
X145257500Y-91435000D02*
X144876500Y-91435000D01*
X145257500Y-91816000D02*
X145257500Y-91435000D01*
X145257500Y-95245000D02*
X145257500Y-94864000D01*
X145907500Y-83800000D02*
X145907500Y-84800000D01*
X145907500Y-96800000D02*
X145907500Y-97800000D01*
X145907500Y-97800000D02*
X144907500Y-97800000D01*
X141368768Y-91427503D02*
G75*
G02*
X138907500Y-93340000I-2461268J627503D01*
G01*
X145257500Y-95245000D02*
G75*
G02*
X142717500Y-97785000I-2540001J1D01*
G01*
%TO.C,S35*%
X112907500Y-83800000D02*
X113907500Y-83800000D01*
X112907500Y-84800000D02*
X112907500Y-83800000D01*
X112907500Y-97800000D02*
X112907500Y-97404000D01*
X113907500Y-97800000D02*
X112907500Y-97800000D01*
X114827500Y-93340000D02*
X114827500Y-94356000D01*
X114827500Y-97404000D02*
X114827500Y-97785000D01*
X114827500Y-97785000D02*
X123717500Y-97785000D01*
X119907500Y-93340000D02*
X114827500Y-93340000D01*
X124098500Y-91435000D02*
X122447500Y-91435000D01*
X125907500Y-83800000D02*
X126907500Y-83800000D01*
X126257500Y-91435000D02*
X125876500Y-91435000D01*
X126257500Y-91816000D02*
X126257500Y-91435000D01*
X126257500Y-95245000D02*
X126257500Y-94864000D01*
X126907500Y-83800000D02*
X126907500Y-84800000D01*
X126907500Y-96800000D02*
X126907500Y-97800000D01*
X126907500Y-97800000D02*
X125907500Y-97800000D01*
X122368768Y-91427503D02*
G75*
G02*
X119907500Y-93340000I-2461268J627503D01*
G01*
X126257500Y-95245000D02*
G75*
G02*
X123717500Y-97785000I-2540001J1D01*
G01*
%TO.C,S4*%
X169907500Y-102352000D02*
X170907500Y-102352000D01*
X169907500Y-103352000D02*
X169907500Y-102352000D01*
X169907500Y-116352000D02*
X169907500Y-115956000D01*
X170907500Y-116352000D02*
X169907500Y-116352000D01*
X171827500Y-111892000D02*
X171827500Y-112908000D01*
X171827500Y-115956000D02*
X171827500Y-116337000D01*
X171827500Y-116337000D02*
X180717500Y-116337000D01*
X176907500Y-111892000D02*
X171827500Y-111892000D01*
X181098500Y-109987000D02*
X179447500Y-109987000D01*
X182907500Y-102352000D02*
X183907500Y-102352000D01*
X183257500Y-109987000D02*
X182876500Y-109987000D01*
X183257500Y-110368000D02*
X183257500Y-109987000D01*
X183257500Y-113797000D02*
X183257500Y-113416000D01*
X183907500Y-102352000D02*
X183907500Y-103352000D01*
X183907500Y-115352000D02*
X183907500Y-116352000D01*
X183907500Y-116352000D02*
X182907500Y-116352000D01*
X179368768Y-109979503D02*
G75*
G02*
X176907500Y-111892000I-2461268J627503D01*
G01*
X183257500Y-113797000D02*
G75*
G02*
X180717500Y-116337000I-2540001J1D01*
G01*
%TO.C,S3*%
X150907500Y-102352000D02*
X151907500Y-102352000D01*
X150907500Y-103352000D02*
X150907500Y-102352000D01*
X150907500Y-116352000D02*
X150907500Y-115956000D01*
X151907500Y-116352000D02*
X150907500Y-116352000D01*
X152827500Y-111892000D02*
X152827500Y-112908000D01*
X152827500Y-115956000D02*
X152827500Y-116337000D01*
X152827500Y-116337000D02*
X161717500Y-116337000D01*
X157907500Y-111892000D02*
X152827500Y-111892000D01*
X162098500Y-109987000D02*
X160447500Y-109987000D01*
X163907500Y-102352000D02*
X164907500Y-102352000D01*
X164257500Y-109987000D02*
X163876500Y-109987000D01*
X164257500Y-110368000D02*
X164257500Y-109987000D01*
X164257500Y-113797000D02*
X164257500Y-113416000D01*
X164907500Y-102352000D02*
X164907500Y-103352000D01*
X164907500Y-115352000D02*
X164907500Y-116352000D01*
X164907500Y-116352000D02*
X163907500Y-116352000D01*
X160368768Y-109979503D02*
G75*
G02*
X157907500Y-111892000I-2461268J627503D01*
G01*
X164257500Y-113797000D02*
G75*
G02*
X161717500Y-116337000I-2540001J1D01*
G01*
%TO.C,Extra_Function_Key1*%
X245907500Y-83800000D02*
X246907500Y-83800000D01*
X245907500Y-84800000D02*
X245907500Y-83800000D01*
X245907500Y-97800000D02*
X245907500Y-97404000D01*
X246907500Y-97800000D02*
X245907500Y-97800000D01*
X247827500Y-93340000D02*
X247827500Y-94356000D01*
X247827500Y-97404000D02*
X247827500Y-97785000D01*
X247827500Y-97785000D02*
X256717500Y-97785000D01*
X252907500Y-93340000D02*
X247827500Y-93340000D01*
X257098500Y-91435000D02*
X255447500Y-91435000D01*
X258907500Y-83800000D02*
X259907500Y-83800000D01*
X259257500Y-91435000D02*
X258876500Y-91435000D01*
X259257500Y-91816000D02*
X259257500Y-91435000D01*
X259257500Y-95245000D02*
X259257500Y-94864000D01*
X259907500Y-83800000D02*
X259907500Y-84800000D01*
X259907500Y-96800000D02*
X259907500Y-97800000D01*
X259907500Y-97800000D02*
X258907500Y-97800000D01*
X255368768Y-91427503D02*
G75*
G02*
X252907500Y-93340000I-2461268J627503D01*
G01*
X259257500Y-95245000D02*
G75*
G02*
X256717500Y-97785000I-2540001J1D01*
G01*
D13*
%TO.C,D37*%
X185552000Y-100946000D02*
X186152000Y-101346000D01*
X185552000Y-101346000D02*
X185052000Y-101346000D01*
X185552000Y-101746000D02*
X185552000Y-100946000D01*
X186152000Y-101346000D02*
X185552000Y-101746000D01*
X186152000Y-101346000D02*
X186152000Y-100796000D01*
X186152000Y-101346000D02*
X186152000Y-101896000D01*
X186552000Y-101346000D02*
X186152000Y-101346000D01*
%TO.C,D15*%
X150100000Y-156408000D02*
X150700000Y-156808000D01*
X150100000Y-156808000D02*
X149600000Y-156808000D01*
X150100000Y-157208000D02*
X150100000Y-156408000D01*
X150700000Y-156808000D02*
X150100000Y-157208000D01*
X150700000Y-156808000D02*
X150700000Y-156258000D01*
X150700000Y-156808000D02*
X150700000Y-157358000D01*
X151100000Y-156808000D02*
X150700000Y-156808000D01*
%TO.C,D39*%
X224032000Y-100184000D02*
X224632000Y-100584000D01*
X224032000Y-100584000D02*
X223532000Y-100584000D01*
X224032000Y-100984000D02*
X224032000Y-100184000D01*
X224632000Y-100584000D02*
X224032000Y-100984000D01*
X224632000Y-100584000D02*
X224632000Y-100034000D01*
X224632000Y-100584000D02*
X224632000Y-101134000D01*
X225032000Y-100584000D02*
X224632000Y-100584000D01*
D11*
%TO.C,F6*%
X226907500Y-83800000D02*
X227907500Y-83800000D01*
X226907500Y-84800000D02*
X226907500Y-83800000D01*
X226907500Y-97800000D02*
X226907500Y-97404000D01*
X227907500Y-97800000D02*
X226907500Y-97800000D01*
X228827500Y-93340000D02*
X228827500Y-94356000D01*
X228827500Y-97404000D02*
X228827500Y-97785000D01*
X228827500Y-97785000D02*
X237717500Y-97785000D01*
X233907500Y-93340000D02*
X228827500Y-93340000D01*
X238098500Y-91435000D02*
X236447500Y-91435000D01*
X239907500Y-83800000D02*
X240907500Y-83800000D01*
X240257500Y-91435000D02*
X239876500Y-91435000D01*
X240257500Y-91816000D02*
X240257500Y-91435000D01*
X240257500Y-95245000D02*
X240257500Y-94864000D01*
X240907500Y-83800000D02*
X240907500Y-84800000D01*
X240907500Y-96800000D02*
X240907500Y-97800000D01*
X240907500Y-97800000D02*
X239907500Y-97800000D01*
X236368768Y-91427503D02*
G75*
G02*
X233907500Y-93340000I-2461268J627503D01*
G01*
X240257500Y-95245000D02*
G75*
G02*
X237717500Y-97785000I-2540001J1D01*
G01*
%TO.C,S5*%
X188907500Y-102352000D02*
X189907500Y-102352000D01*
X188907500Y-103352000D02*
X188907500Y-102352000D01*
X188907500Y-116352000D02*
X188907500Y-115956000D01*
X189907500Y-116352000D02*
X188907500Y-116352000D01*
X190827500Y-111892000D02*
X190827500Y-112908000D01*
X190827500Y-115956000D02*
X190827500Y-116337000D01*
X190827500Y-116337000D02*
X199717500Y-116337000D01*
X195907500Y-111892000D02*
X190827500Y-111892000D01*
X200098500Y-109987000D02*
X198447500Y-109987000D01*
X201907500Y-102352000D02*
X202907500Y-102352000D01*
X202257500Y-109987000D02*
X201876500Y-109987000D01*
X202257500Y-110368000D02*
X202257500Y-109987000D01*
X202257500Y-113797000D02*
X202257500Y-113416000D01*
X202907500Y-102352000D02*
X202907500Y-103352000D01*
X202907500Y-115352000D02*
X202907500Y-116352000D01*
X202907500Y-116352000D02*
X201907500Y-116352000D01*
X198368768Y-109979503D02*
G75*
G02*
X195907500Y-111892000I-2461268J627503D01*
G01*
X202257500Y-113797000D02*
G75*
G02*
X199717500Y-116337000I-2540001J1D01*
G01*
D13*
%TO.C,D36*%
X166882000Y-99676000D02*
X167482000Y-100076000D01*
X166882000Y-100076000D02*
X166382000Y-100076000D01*
X166882000Y-100476000D02*
X166882000Y-99676000D01*
X167482000Y-100076000D02*
X166882000Y-100476000D01*
X167482000Y-100076000D02*
X167482000Y-99526000D01*
X167482000Y-100076000D02*
X167482000Y-100626000D01*
X167882000Y-100076000D02*
X167482000Y-100076000D01*
%TO.C,D4*%
X187126000Y-118054000D02*
X187726000Y-118454000D01*
X187126000Y-118454000D02*
X186626000Y-118454000D01*
X187126000Y-118854000D02*
X187126000Y-118054000D01*
X187726000Y-118454000D02*
X187126000Y-118854000D01*
X187726000Y-118454000D02*
X187726000Y-117904000D01*
X187726000Y-118454000D02*
X187726000Y-119004000D01*
X188126000Y-118454000D02*
X187726000Y-118454000D01*
%TO.C,D5*%
X205668000Y-118562000D02*
X206268000Y-118962000D01*
X205668000Y-118962000D02*
X205168000Y-118962000D01*
X205668000Y-119362000D02*
X205668000Y-118562000D01*
X206268000Y-118962000D02*
X205668000Y-119362000D01*
X206268000Y-118962000D02*
X206268000Y-118412000D01*
X206268000Y-118962000D02*
X206268000Y-119512000D01*
X206668000Y-118962000D02*
X206268000Y-118962000D01*
D11*
%TO.C,S25*%
X199604000Y-159352000D02*
X200604000Y-159352000D01*
X199604000Y-160352000D02*
X199604000Y-159352000D01*
X199604000Y-173352000D02*
X199604000Y-172956000D01*
X200604000Y-173352000D02*
X199604000Y-173352000D01*
X201524000Y-168892000D02*
X201524000Y-169908000D01*
X201524000Y-172956000D02*
X201524000Y-173337000D01*
X201524000Y-173337000D02*
X210414000Y-173337000D01*
X206604000Y-168892000D02*
X201524000Y-168892000D01*
X210795000Y-166987000D02*
X209144000Y-166987000D01*
X212604000Y-159352000D02*
X213604000Y-159352000D01*
X212954000Y-166987000D02*
X212573000Y-166987000D01*
X212954000Y-167368000D02*
X212954000Y-166987000D01*
X212954000Y-170797000D02*
X212954000Y-170416000D01*
X213604000Y-159352000D02*
X213604000Y-160352000D01*
X213604000Y-172352000D02*
X213604000Y-173352000D01*
X213604000Y-173352000D02*
X212604000Y-173352000D01*
X209065268Y-166979503D02*
G75*
G02*
X206604000Y-168892000I-2461268J627503D01*
G01*
X212954000Y-170797000D02*
G75*
G02*
X210414000Y-173337000I-2540001J1D01*
G01*
%TO.C,S7*%
X226907500Y-102352000D02*
X227907500Y-102352000D01*
X226907500Y-103352000D02*
X226907500Y-102352000D01*
X226907500Y-116352000D02*
X226907500Y-115956000D01*
X227907500Y-116352000D02*
X226907500Y-116352000D01*
X228827500Y-111892000D02*
X228827500Y-112908000D01*
X228827500Y-115956000D02*
X228827500Y-116337000D01*
X228827500Y-116337000D02*
X237717500Y-116337000D01*
X233907500Y-111892000D02*
X228827500Y-111892000D01*
X238098500Y-109987000D02*
X236447500Y-109987000D01*
X239907500Y-102352000D02*
X240907500Y-102352000D01*
X240257500Y-109987000D02*
X239876500Y-109987000D01*
X240257500Y-110368000D02*
X240257500Y-109987000D01*
X240257500Y-113797000D02*
X240257500Y-113416000D01*
X240907500Y-102352000D02*
X240907500Y-103352000D01*
X240907500Y-115352000D02*
X240907500Y-116352000D01*
X240907500Y-116352000D02*
X239907500Y-116352000D01*
X236368768Y-109979503D02*
G75*
G02*
X233907500Y-111892000I-2461268J627503D01*
G01*
X240257500Y-113797000D02*
G75*
G02*
X237717500Y-116337000I-2540001J1D01*
G01*
%TO.C,S1*%
X112907500Y-102352000D02*
X113907500Y-102352000D01*
X112907500Y-103352000D02*
X112907500Y-102352000D01*
X112907500Y-116352000D02*
X112907500Y-115956000D01*
X113907500Y-116352000D02*
X112907500Y-116352000D01*
X114827500Y-111892000D02*
X114827500Y-112908000D01*
X114827500Y-115956000D02*
X114827500Y-116337000D01*
X114827500Y-116337000D02*
X123717500Y-116337000D01*
X119907500Y-111892000D02*
X114827500Y-111892000D01*
X124098500Y-109987000D02*
X122447500Y-109987000D01*
X125907500Y-102352000D02*
X126907500Y-102352000D01*
X126257500Y-109987000D02*
X125876500Y-109987000D01*
X126257500Y-110368000D02*
X126257500Y-109987000D01*
X126257500Y-113797000D02*
X126257500Y-113416000D01*
X126907500Y-102352000D02*
X126907500Y-103352000D01*
X126907500Y-115352000D02*
X126907500Y-116352000D01*
X126907500Y-116352000D02*
X125907500Y-116352000D01*
X122368768Y-109979503D02*
G75*
G02*
X119907500Y-111892000I-2461268J627503D01*
G01*
X126257500Y-113797000D02*
G75*
G02*
X123717500Y-116337000I-2540001J1D01*
G01*
D13*
%TO.C,D30*%
X176026000Y-194164000D02*
X176626000Y-194564000D01*
X176026000Y-194564000D02*
X175526000Y-194564000D01*
X176026000Y-194964000D02*
X176026000Y-194164000D01*
X176626000Y-194564000D02*
X176026000Y-194964000D01*
X176626000Y-194564000D02*
X176626000Y-194014000D01*
X176626000Y-194564000D02*
X176626000Y-195114000D01*
X177026000Y-194564000D02*
X176626000Y-194564000D01*
%TO.C,D38*%
X204856000Y-100184000D02*
X205456000Y-100584000D01*
X204856000Y-100584000D02*
X204356000Y-100584000D01*
X204856000Y-100984000D02*
X204856000Y-100184000D01*
X205456000Y-100584000D02*
X204856000Y-100984000D01*
X205456000Y-100584000D02*
X205456000Y-100034000D01*
X205456000Y-100584000D02*
X205456000Y-101134000D01*
X205856000Y-100584000D02*
X205456000Y-100584000D01*
D11*
%TO.C,F2*%
X150907500Y-83800000D02*
X151907500Y-83800000D01*
X150907500Y-84800000D02*
X150907500Y-83800000D01*
X150907500Y-97800000D02*
X150907500Y-97404000D01*
X151907500Y-97800000D02*
X150907500Y-97800000D01*
X152827500Y-93340000D02*
X152827500Y-94356000D01*
X152827500Y-97404000D02*
X152827500Y-97785000D01*
X152827500Y-97785000D02*
X161717500Y-97785000D01*
X157907500Y-93340000D02*
X152827500Y-93340000D01*
X162098500Y-91435000D02*
X160447500Y-91435000D01*
X163907500Y-83800000D02*
X164907500Y-83800000D01*
X164257500Y-91435000D02*
X163876500Y-91435000D01*
X164257500Y-91816000D02*
X164257500Y-91435000D01*
X164257500Y-95245000D02*
X164257500Y-94864000D01*
X164907500Y-83800000D02*
X164907500Y-84800000D01*
X164907500Y-96800000D02*
X164907500Y-97800000D01*
X164907500Y-97800000D02*
X163907500Y-97800000D01*
X160368768Y-91427503D02*
G75*
G02*
X157907500Y-93340000I-2461268J627503D01*
G01*
X164257500Y-95245000D02*
G75*
G02*
X161717500Y-97785000I-2540001J1D01*
G01*
D13*
%TO.C,D28*%
X268788000Y-175966000D02*
X269388000Y-176366000D01*
X268788000Y-176366000D02*
X268288000Y-176366000D01*
X268788000Y-176766000D02*
X268788000Y-175966000D01*
X269388000Y-176366000D02*
X268788000Y-176766000D01*
X269388000Y-176366000D02*
X269388000Y-175816000D01*
X269388000Y-176366000D02*
X269388000Y-176916000D01*
X269788000Y-176366000D02*
X269388000Y-176366000D01*
D11*
%TO.C,S12*%
X199554000Y-121352000D02*
X200554000Y-121352000D01*
X199554000Y-122352000D02*
X199554000Y-121352000D01*
X199554000Y-135352000D02*
X199554000Y-134956000D01*
X200554000Y-135352000D02*
X199554000Y-135352000D01*
X201474000Y-130892000D02*
X201474000Y-131908000D01*
X201474000Y-134956000D02*
X201474000Y-135337000D01*
X201474000Y-135337000D02*
X210364000Y-135337000D01*
X206554000Y-130892000D02*
X201474000Y-130892000D01*
X210745000Y-128987000D02*
X209094000Y-128987000D01*
X212554000Y-121352000D02*
X213554000Y-121352000D01*
X212904000Y-128987000D02*
X212523000Y-128987000D01*
X212904000Y-129368000D02*
X212904000Y-128987000D01*
X212904000Y-132797000D02*
X212904000Y-132416000D01*
X213554000Y-121352000D02*
X213554000Y-122352000D01*
X213554000Y-134352000D02*
X213554000Y-135352000D01*
X213554000Y-135352000D02*
X212554000Y-135352000D01*
X209015268Y-128979503D02*
G75*
G02*
X206554000Y-130892000I-2461268J627503D01*
G01*
X212904000Y-132797000D02*
G75*
G02*
X210364000Y-135337000I-2540001J1D01*
G01*
%TO.C,S24*%
X180604000Y-159352000D02*
X181604000Y-159352000D01*
X180604000Y-160352000D02*
X180604000Y-159352000D01*
X180604000Y-173352000D02*
X180604000Y-172956000D01*
X181604000Y-173352000D02*
X180604000Y-173352000D01*
X182524000Y-168892000D02*
X182524000Y-169908000D01*
X182524000Y-172956000D02*
X182524000Y-173337000D01*
X182524000Y-173337000D02*
X191414000Y-173337000D01*
X187604000Y-168892000D02*
X182524000Y-168892000D01*
X191795000Y-166987000D02*
X190144000Y-166987000D01*
X193604000Y-159352000D02*
X194604000Y-159352000D01*
X193954000Y-166987000D02*
X193573000Y-166987000D01*
X193954000Y-167368000D02*
X193954000Y-166987000D01*
X193954000Y-170797000D02*
X193954000Y-170416000D01*
X194604000Y-159352000D02*
X194604000Y-160352000D01*
X194604000Y-172352000D02*
X194604000Y-173352000D01*
X194604000Y-173352000D02*
X193604000Y-173352000D01*
X190065268Y-166979503D02*
G75*
G02*
X187604000Y-168892000I-2461268J627503D01*
G01*
X193954000Y-170797000D02*
G75*
G02*
X191414000Y-173337000I-2540001J1D01*
G01*
D13*
%TO.C,D12*%
X216590000Y-137612000D02*
X217190000Y-138012000D01*
X216590000Y-138012000D02*
X216090000Y-138012000D01*
X216590000Y-138412000D02*
X216590000Y-137612000D01*
X217190000Y-138012000D02*
X216590000Y-138412000D01*
X217190000Y-138012000D02*
X217190000Y-137462000D01*
X217190000Y-138012000D02*
X217190000Y-138562000D01*
X217590000Y-138012000D02*
X217190000Y-138012000D01*
%TO.C,D17*%
X188524000Y-156662000D02*
X189124000Y-157062000D01*
X188524000Y-157062000D02*
X188024000Y-157062000D01*
X188524000Y-157462000D02*
X188524000Y-156662000D01*
X189124000Y-157062000D02*
X188524000Y-157462000D01*
X189124000Y-157062000D02*
X189124000Y-156512000D01*
X189124000Y-157062000D02*
X189124000Y-157612000D01*
X189524000Y-157062000D02*
X189124000Y-157062000D01*
%TO.C,D34*%
X147960000Y-98914000D02*
X148560000Y-99314000D01*
X147960000Y-99314000D02*
X147460000Y-99314000D01*
X147960000Y-99714000D02*
X147960000Y-98914000D01*
X148560000Y-99314000D02*
X147960000Y-99714000D01*
X148560000Y-99314000D02*
X148560000Y-98764000D01*
X148560000Y-99314000D02*
X148560000Y-99864000D01*
X148960000Y-99314000D02*
X148560000Y-99314000D01*
%TO.C,D14*%
X253496000Y-136379000D02*
X254096000Y-136779000D01*
X253496000Y-136779000D02*
X252996000Y-136779000D01*
X253496000Y-137179000D02*
X253496000Y-136379000D01*
X254096000Y-136779000D02*
X253496000Y-137179000D01*
X254096000Y-136779000D02*
X254096000Y-136229000D01*
X254096000Y-136779000D02*
X254096000Y-137329000D01*
X254496000Y-136779000D02*
X254096000Y-136779000D01*
%TO.C,D20*%
X244352000Y-157080000D02*
X244952000Y-157480000D01*
X244352000Y-157480000D02*
X243852000Y-157480000D01*
X244352000Y-157880000D02*
X244352000Y-157080000D01*
X244952000Y-157480000D02*
X244352000Y-157880000D01*
X244952000Y-157480000D02*
X244952000Y-156930000D01*
X244952000Y-157480000D02*
X244952000Y-158030000D01*
X245352000Y-157480000D02*
X244952000Y-157480000D01*
%TO.C,D25*%
X215650000Y-174352000D02*
X216250000Y-174752000D01*
X215650000Y-174752000D02*
X215150000Y-174752000D01*
X215650000Y-175152000D02*
X215650000Y-174352000D01*
X216250000Y-174752000D02*
X215650000Y-175152000D01*
X216250000Y-174752000D02*
X216250000Y-174202000D01*
X216250000Y-174752000D02*
X216250000Y-175302000D01*
X216650000Y-174752000D02*
X216250000Y-174752000D01*
%TO.C,D22*%
X153548000Y-173082000D02*
X154148000Y-173482000D01*
X153548000Y-173482000D02*
X153048000Y-173482000D01*
X153548000Y-173882000D02*
X153548000Y-173082000D01*
X154148000Y-173482000D02*
X153548000Y-173882000D01*
X154148000Y-173482000D02*
X154148000Y-172932000D01*
X154148000Y-173482000D02*
X154148000Y-174032000D01*
X154548000Y-173482000D02*
X154148000Y-173482000D01*
D11*
%TO.C,S2*%
X131907500Y-102352000D02*
X132907500Y-102352000D01*
X131907500Y-103352000D02*
X131907500Y-102352000D01*
X131907500Y-116352000D02*
X131907500Y-115956000D01*
X132907500Y-116352000D02*
X131907500Y-116352000D01*
X133827500Y-111892000D02*
X133827500Y-112908000D01*
X133827500Y-115956000D02*
X133827500Y-116337000D01*
X133827500Y-116337000D02*
X142717500Y-116337000D01*
X138907500Y-111892000D02*
X133827500Y-111892000D01*
X143098500Y-109987000D02*
X141447500Y-109987000D01*
X144907500Y-102352000D02*
X145907500Y-102352000D01*
X145257500Y-109987000D02*
X144876500Y-109987000D01*
X145257500Y-110368000D02*
X145257500Y-109987000D01*
X145257500Y-113797000D02*
X145257500Y-113416000D01*
X145907500Y-102352000D02*
X145907500Y-103352000D01*
X145907500Y-115352000D02*
X145907500Y-116352000D01*
X145907500Y-116352000D02*
X144907500Y-116352000D01*
X141368768Y-109979503D02*
G75*
G02*
X138907500Y-111892000I-2461268J627503D01*
G01*
X145257500Y-113797000D02*
G75*
G02*
X142717500Y-116337000I-2540001J1D01*
G01*
D13*
%TO.C,D3*%
X167950000Y-118816000D02*
X168550000Y-119216000D01*
X167950000Y-119216000D02*
X167450000Y-119216000D01*
X167950000Y-119616000D02*
X167950000Y-118816000D01*
X168550000Y-119216000D02*
X167950000Y-119616000D01*
X168550000Y-119216000D02*
X168550000Y-118666000D01*
X168550000Y-119216000D02*
X168550000Y-119766000D01*
X168950000Y-119216000D02*
X168550000Y-119216000D01*
D11*
%TO.C,S16*%
X152079000Y-140352000D02*
X153079000Y-140352000D01*
X152079000Y-141352000D02*
X152079000Y-140352000D01*
X152079000Y-154352000D02*
X152079000Y-153956000D01*
X153079000Y-154352000D02*
X152079000Y-154352000D01*
X153999000Y-149892000D02*
X153999000Y-150908000D01*
X153999000Y-153956000D02*
X153999000Y-154337000D01*
X153999000Y-154337000D02*
X162889000Y-154337000D01*
X159079000Y-149892000D02*
X153999000Y-149892000D01*
X163270000Y-147987000D02*
X161619000Y-147987000D01*
X165079000Y-140352000D02*
X166079000Y-140352000D01*
X165429000Y-147987000D02*
X165048000Y-147987000D01*
X165429000Y-148368000D02*
X165429000Y-147987000D01*
X165429000Y-151797000D02*
X165429000Y-151416000D01*
X166079000Y-140352000D02*
X166079000Y-141352000D01*
X166079000Y-153352000D02*
X166079000Y-154352000D01*
X166079000Y-154352000D02*
X165079000Y-154352000D01*
X161540268Y-147979503D02*
G75*
G02*
X159079000Y-149892000I-2461268J627503D01*
G01*
X165429000Y-151797000D02*
G75*
G02*
X162889000Y-154337000I-2540001J1D01*
G01*
%TO.C,S21*%
X247079000Y-140352000D02*
X248079000Y-140352000D01*
X247079000Y-141352000D02*
X247079000Y-140352000D01*
X247079000Y-154352000D02*
X247079000Y-153956000D01*
X248079000Y-154352000D02*
X247079000Y-154352000D01*
X248999000Y-149892000D02*
X248999000Y-150908000D01*
X248999000Y-153956000D02*
X248999000Y-154337000D01*
X248999000Y-154337000D02*
X257889000Y-154337000D01*
X254079000Y-149892000D02*
X248999000Y-149892000D01*
X258270000Y-147987000D02*
X256619000Y-147987000D01*
X260079000Y-140352000D02*
X261079000Y-140352000D01*
X260429000Y-147987000D02*
X260048000Y-147987000D01*
X260429000Y-148368000D02*
X260429000Y-147987000D01*
X260429000Y-151797000D02*
X260429000Y-151416000D01*
X261079000Y-140352000D02*
X261079000Y-141352000D01*
X261079000Y-153352000D02*
X261079000Y-154352000D01*
X261079000Y-154352000D02*
X260079000Y-154352000D01*
X256540268Y-147979503D02*
G75*
G02*
X254079000Y-149892000I-2461268J627503D01*
G01*
X260429000Y-151797000D02*
G75*
G02*
X257889000Y-154337000I-2540001J1D01*
G01*
%TO.C,S26*%
X218604000Y-159352000D02*
X219604000Y-159352000D01*
X218604000Y-160352000D02*
X218604000Y-159352000D01*
X218604000Y-173352000D02*
X218604000Y-172956000D01*
X219604000Y-173352000D02*
X218604000Y-173352000D01*
X220524000Y-168892000D02*
X220524000Y-169908000D01*
X220524000Y-172956000D02*
X220524000Y-173337000D01*
X220524000Y-173337000D02*
X229414000Y-173337000D01*
X225604000Y-168892000D02*
X220524000Y-168892000D01*
X229795000Y-166987000D02*
X228144000Y-166987000D01*
X231604000Y-159352000D02*
X232604000Y-159352000D01*
X231954000Y-166987000D02*
X231573000Y-166987000D01*
X231954000Y-167368000D02*
X231954000Y-166987000D01*
X231954000Y-170797000D02*
X231954000Y-170416000D01*
X232604000Y-159352000D02*
X232604000Y-160352000D01*
X232604000Y-172352000D02*
X232604000Y-173352000D01*
X232604000Y-173352000D02*
X231604000Y-173352000D01*
X228065268Y-166979503D02*
G75*
G02*
X225604000Y-168892000I-2461268J627503D01*
G01*
X231954000Y-170797000D02*
G75*
G02*
X229414000Y-173337000I-2540001J1D01*
G01*
D13*
%TO.C,D21*%
X262184000Y-156916000D02*
X262784000Y-157316000D01*
X262184000Y-157316000D02*
X261684000Y-157316000D01*
X262184000Y-157716000D02*
X262184000Y-156916000D01*
X262784000Y-157316000D02*
X262184000Y-157716000D01*
X262784000Y-157316000D02*
X262784000Y-156766000D01*
X262784000Y-157316000D02*
X262784000Y-157866000D01*
X263184000Y-157316000D02*
X262784000Y-157316000D01*
D11*
%TO.C,S17*%
X171079000Y-140352000D02*
X172079000Y-140352000D01*
X171079000Y-141352000D02*
X171079000Y-140352000D01*
X171079000Y-154352000D02*
X171079000Y-153956000D01*
X172079000Y-154352000D02*
X171079000Y-154352000D01*
X172999000Y-149892000D02*
X172999000Y-150908000D01*
X172999000Y-153956000D02*
X172999000Y-154337000D01*
X172999000Y-154337000D02*
X181889000Y-154337000D01*
X178079000Y-149892000D02*
X172999000Y-149892000D01*
X182270000Y-147987000D02*
X180619000Y-147987000D01*
X184079000Y-140352000D02*
X185079000Y-140352000D01*
X184429000Y-147987000D02*
X184048000Y-147987000D01*
X184429000Y-148368000D02*
X184429000Y-147987000D01*
X184429000Y-151797000D02*
X184429000Y-151416000D01*
X185079000Y-140352000D02*
X185079000Y-141352000D01*
X185079000Y-153352000D02*
X185079000Y-154352000D01*
X185079000Y-154352000D02*
X184079000Y-154352000D01*
X180540268Y-147979503D02*
G75*
G02*
X178079000Y-149892000I-2461268J627503D01*
G01*
X184429000Y-151797000D02*
G75*
G02*
X181889000Y-154337000I-2540001J1D01*
G01*
%TO.C,S18*%
X190079000Y-140352000D02*
X191079000Y-140352000D01*
X190079000Y-141352000D02*
X190079000Y-140352000D01*
X190079000Y-154352000D02*
X190079000Y-153956000D01*
X191079000Y-154352000D02*
X190079000Y-154352000D01*
X191999000Y-149892000D02*
X191999000Y-150908000D01*
X191999000Y-153956000D02*
X191999000Y-154337000D01*
X191999000Y-154337000D02*
X200889000Y-154337000D01*
X197079000Y-149892000D02*
X191999000Y-149892000D01*
X201270000Y-147987000D02*
X199619000Y-147987000D01*
X203079000Y-140352000D02*
X204079000Y-140352000D01*
X203429000Y-147987000D02*
X203048000Y-147987000D01*
X203429000Y-148368000D02*
X203429000Y-147987000D01*
X203429000Y-151797000D02*
X203429000Y-151416000D01*
X204079000Y-140352000D02*
X204079000Y-141352000D01*
X204079000Y-153352000D02*
X204079000Y-154352000D01*
X204079000Y-154352000D02*
X203079000Y-154352000D01*
X199540268Y-147979503D02*
G75*
G02*
X197079000Y-149892000I-2461268J627503D01*
G01*
X203429000Y-151797000D02*
G75*
G02*
X200889000Y-154337000I-2540001J1D01*
G01*
D13*
%TO.C,D35*%
X128274000Y-100438000D02*
X128874000Y-100838000D01*
X128274000Y-100838000D02*
X127774000Y-100838000D01*
X128274000Y-101238000D02*
X128274000Y-100438000D01*
X128874000Y-100838000D02*
X128274000Y-101238000D01*
X128874000Y-100838000D02*
X128874000Y-100288000D01*
X128874000Y-100838000D02*
X128874000Y-101388000D01*
X129274000Y-100838000D02*
X128874000Y-100838000D01*
D11*
%TO.C,S32*%
X220275500Y-178352000D02*
X221275500Y-178352000D01*
X220275500Y-179352000D02*
X220275500Y-178352000D01*
X220275500Y-192352000D02*
X220275500Y-191956000D01*
X221275500Y-192352000D02*
X220275500Y-192352000D01*
X222195500Y-187892000D02*
X222195500Y-188908000D01*
X222195500Y-191956000D02*
X222195500Y-192337000D01*
X222195500Y-192337000D02*
X231085500Y-192337000D01*
X227275500Y-187892000D02*
X222195500Y-187892000D01*
X231466500Y-185987000D02*
X229815500Y-185987000D01*
X233275500Y-178352000D02*
X234275500Y-178352000D01*
X233625500Y-185987000D02*
X233244500Y-185987000D01*
X233625500Y-186368000D02*
X233625500Y-185987000D01*
X233625500Y-189797000D02*
X233625500Y-189416000D01*
X234275500Y-178352000D02*
X234275500Y-179352000D01*
X234275500Y-191352000D02*
X234275500Y-192352000D01*
X234275500Y-192352000D02*
X233275500Y-192352000D01*
X229736768Y-185979503D02*
G75*
G02*
X227275500Y-187892000I-2461268J627503D01*
G01*
X233625500Y-189797000D02*
G75*
G02*
X231085500Y-192337000I-2540001J1D01*
G01*
%TO.C,S29*%
X122932500Y-178352000D02*
X123932500Y-178352000D01*
X122932500Y-179352000D02*
X122932500Y-178352000D01*
X122932500Y-192352000D02*
X122932500Y-191956000D01*
X123932500Y-192352000D02*
X122932500Y-192352000D01*
X124852500Y-187892000D02*
X124852500Y-188908000D01*
X124852500Y-191956000D02*
X124852500Y-192337000D01*
X124852500Y-192337000D02*
X133742500Y-192337000D01*
X129932500Y-187892000D02*
X124852500Y-187892000D01*
X134123500Y-185987000D02*
X132472500Y-185987000D01*
X135932500Y-178352000D02*
X136932500Y-178352000D01*
X136282500Y-185987000D02*
X135901500Y-185987000D01*
X136282500Y-186368000D02*
X136282500Y-185987000D01*
X136282500Y-189797000D02*
X136282500Y-189416000D01*
X136932500Y-178352000D02*
X136932500Y-179352000D01*
X136932500Y-191352000D02*
X136932500Y-192352000D01*
X136932500Y-192352000D02*
X135932500Y-192352000D01*
X132393768Y-185979503D02*
G75*
G02*
X129932500Y-187892000I-2461268J627503D01*
G01*
X136282500Y-189797000D02*
G75*
G02*
X133742500Y-192337000I-2540001J1D01*
G01*
D13*
%TO.C,D31*%
X201426000Y-180194000D02*
X202026000Y-180594000D01*
X201426000Y-180594000D02*
X200926000Y-180594000D01*
X201426000Y-180994000D02*
X201426000Y-180194000D01*
X202026000Y-180594000D02*
X201426000Y-180994000D01*
X202026000Y-180594000D02*
X202026000Y-180044000D01*
X202026000Y-180594000D02*
X202026000Y-181144000D01*
X202426000Y-180594000D02*
X202026000Y-180594000D01*
D11*
%TO.C,S23*%
X161604000Y-159352000D02*
X162604000Y-159352000D01*
X161604000Y-160352000D02*
X161604000Y-159352000D01*
X161604000Y-173352000D02*
X161604000Y-172956000D01*
X162604000Y-173352000D02*
X161604000Y-173352000D01*
X163524000Y-168892000D02*
X163524000Y-169908000D01*
X163524000Y-172956000D02*
X163524000Y-173337000D01*
X163524000Y-173337000D02*
X172414000Y-173337000D01*
X168604000Y-168892000D02*
X163524000Y-168892000D01*
X172795000Y-166987000D02*
X171144000Y-166987000D01*
X174604000Y-159352000D02*
X175604000Y-159352000D01*
X174954000Y-166987000D02*
X174573000Y-166987000D01*
X174954000Y-167368000D02*
X174954000Y-166987000D01*
X174954000Y-170797000D02*
X174954000Y-170416000D01*
X175604000Y-159352000D02*
X175604000Y-160352000D01*
X175604000Y-172352000D02*
X175604000Y-173352000D01*
X175604000Y-173352000D02*
X174604000Y-173352000D01*
X171065268Y-166979503D02*
G75*
G02*
X168604000Y-168892000I-2461268J627503D01*
G01*
X174954000Y-170797000D02*
G75*
G02*
X172414000Y-173337000I-2540001J1D01*
G01*
D13*
%TO.C,D11*%
X197286000Y-137612000D02*
X197886000Y-138012000D01*
X197286000Y-138012000D02*
X196786000Y-138012000D01*
X197286000Y-138412000D02*
X197286000Y-137612000D01*
X197886000Y-138012000D02*
X197286000Y-138412000D01*
X197886000Y-138012000D02*
X197886000Y-137462000D01*
X197886000Y-138012000D02*
X197886000Y-138562000D01*
X198286000Y-138012000D02*
X197886000Y-138012000D01*
%TO.C,D40*%
X246384000Y-99930000D02*
X246984000Y-100330000D01*
X246384000Y-100330000D02*
X245884000Y-100330000D01*
X246384000Y-100730000D02*
X246384000Y-99930000D01*
X246984000Y-100330000D02*
X246384000Y-100730000D01*
X246984000Y-100330000D02*
X246984000Y-99780000D01*
X246984000Y-100330000D02*
X246984000Y-100880000D01*
X247384000Y-100330000D02*
X246984000Y-100330000D01*
D11*
%TO.C,F5*%
X207907500Y-83800000D02*
X208907500Y-83800000D01*
X207907500Y-84800000D02*
X207907500Y-83800000D01*
X207907500Y-97800000D02*
X207907500Y-97404000D01*
X208907500Y-97800000D02*
X207907500Y-97800000D01*
X209827500Y-93340000D02*
X209827500Y-94356000D01*
X209827500Y-97404000D02*
X209827500Y-97785000D01*
X209827500Y-97785000D02*
X218717500Y-97785000D01*
X214907500Y-93340000D02*
X209827500Y-93340000D01*
X219098500Y-91435000D02*
X217447500Y-91435000D01*
X220907500Y-83800000D02*
X221907500Y-83800000D01*
X221257500Y-91435000D02*
X220876500Y-91435000D01*
X221257500Y-91816000D02*
X221257500Y-91435000D01*
X221257500Y-95245000D02*
X221257500Y-94864000D01*
X221907500Y-83800000D02*
X221907500Y-84800000D01*
X221907500Y-96800000D02*
X221907500Y-97800000D01*
X221907500Y-97800000D02*
X220907500Y-97800000D01*
X217368768Y-91427503D02*
G75*
G02*
X214907500Y-93340000I-2461268J627503D01*
G01*
X221257500Y-95245000D02*
G75*
G02*
X218717500Y-97785000I-2540001J1D01*
G01*
%TO.C,S14*%
X237554000Y-121352000D02*
X238554000Y-121352000D01*
X237554000Y-122352000D02*
X237554000Y-121352000D01*
X237554000Y-135352000D02*
X237554000Y-134956000D01*
X238554000Y-135352000D02*
X237554000Y-135352000D01*
X239474000Y-130892000D02*
X239474000Y-131908000D01*
X239474000Y-134956000D02*
X239474000Y-135337000D01*
X239474000Y-135337000D02*
X248364000Y-135337000D01*
X244554000Y-130892000D02*
X239474000Y-130892000D01*
X248745000Y-128987000D02*
X247094000Y-128987000D01*
X250554000Y-121352000D02*
X251554000Y-121352000D01*
X250904000Y-128987000D02*
X250523000Y-128987000D01*
X250904000Y-129368000D02*
X250904000Y-128987000D01*
X250904000Y-132797000D02*
X250904000Y-132416000D01*
X251554000Y-121352000D02*
X251554000Y-122352000D01*
X251554000Y-134352000D02*
X251554000Y-135352000D01*
X251554000Y-135352000D02*
X250554000Y-135352000D01*
X247015268Y-128979503D02*
G75*
G02*
X244554000Y-130892000I-2461268J627503D01*
G01*
X250904000Y-132797000D02*
G75*
G02*
X248364000Y-135337000I-2540001J1D01*
G01*
D13*
%TO.C,D32*%
X239272000Y-182480000D02*
X239872000Y-182880000D01*
X239272000Y-182880000D02*
X238772000Y-182880000D01*
X239272000Y-183280000D02*
X239272000Y-182480000D01*
X239872000Y-182880000D02*
X239272000Y-183280000D01*
X239872000Y-182880000D02*
X239872000Y-182330000D01*
X239872000Y-182880000D02*
X239872000Y-183430000D01*
X240272000Y-182880000D02*
X239872000Y-182880000D01*
%TO.C,D2*%
X148646000Y-118562000D02*
X149246000Y-118962000D01*
X148646000Y-118962000D02*
X148146000Y-118962000D01*
X148646000Y-119362000D02*
X148646000Y-118562000D01*
X149246000Y-118962000D02*
X148646000Y-119362000D01*
X149246000Y-118962000D02*
X149246000Y-118412000D01*
X149246000Y-118962000D02*
X149246000Y-119512000D01*
X149646000Y-118962000D02*
X149246000Y-118962000D01*
%TO.C,D27*%
X253750000Y-175368000D02*
X254350000Y-175768000D01*
X253750000Y-175768000D02*
X253250000Y-175768000D01*
X253750000Y-176168000D02*
X253750000Y-175368000D01*
X254350000Y-175768000D02*
X253750000Y-176168000D01*
X254350000Y-175768000D02*
X254350000Y-175218000D01*
X254350000Y-175768000D02*
X254350000Y-176318000D01*
X254750000Y-175768000D02*
X254350000Y-175768000D01*
D11*
%TO.C,S27*%
X237604000Y-159352000D02*
X238604000Y-159352000D01*
X237604000Y-160352000D02*
X237604000Y-159352000D01*
X237604000Y-173352000D02*
X237604000Y-172956000D01*
X238604000Y-173352000D02*
X237604000Y-173352000D01*
X239524000Y-168892000D02*
X239524000Y-169908000D01*
X239524000Y-172956000D02*
X239524000Y-173337000D01*
X239524000Y-173337000D02*
X248414000Y-173337000D01*
X244604000Y-168892000D02*
X239524000Y-168892000D01*
X248795000Y-166987000D02*
X247144000Y-166987000D01*
X250604000Y-159352000D02*
X251604000Y-159352000D01*
X250954000Y-166987000D02*
X250573000Y-166987000D01*
X250954000Y-167368000D02*
X250954000Y-166987000D01*
X250954000Y-170797000D02*
X250954000Y-170416000D01*
X251604000Y-159352000D02*
X251604000Y-160352000D01*
X251604000Y-172352000D02*
X251604000Y-173352000D01*
X251604000Y-173352000D02*
X250604000Y-173352000D01*
X247065268Y-166979503D02*
G75*
G02*
X244604000Y-168892000I-2461268J627503D01*
G01*
X250954000Y-170797000D02*
G75*
G02*
X248414000Y-173337000I-2540001J1D01*
G01*
%TO.C,S28*%
X256604000Y-159352000D02*
X257604000Y-159352000D01*
X256604000Y-160352000D02*
X256604000Y-159352000D01*
X256604000Y-173352000D02*
X256604000Y-172956000D01*
X257604000Y-173352000D02*
X256604000Y-173352000D01*
X258524000Y-168892000D02*
X258524000Y-169908000D01*
X258524000Y-172956000D02*
X258524000Y-173337000D01*
X258524000Y-173337000D02*
X267414000Y-173337000D01*
X263604000Y-168892000D02*
X258524000Y-168892000D01*
X267795000Y-166987000D02*
X266144000Y-166987000D01*
X269604000Y-159352000D02*
X270604000Y-159352000D01*
X269954000Y-166987000D02*
X269573000Y-166987000D01*
X269954000Y-167368000D02*
X269954000Y-166987000D01*
X269954000Y-170797000D02*
X269954000Y-170416000D01*
X270604000Y-159352000D02*
X270604000Y-160352000D01*
X270604000Y-172352000D02*
X270604000Y-173352000D01*
X270604000Y-173352000D02*
X269604000Y-173352000D01*
X266065268Y-166979503D02*
G75*
G02*
X263604000Y-168892000I-2461268J627503D01*
G01*
X269954000Y-170797000D02*
G75*
G02*
X267414000Y-173337000I-2540001J1D01*
G01*
D13*
%TO.C,D29*%
X150250000Y-190100000D02*
X150850000Y-190500000D01*
X150250000Y-190500000D02*
X149750000Y-190500000D01*
X150250000Y-190900000D02*
X150250000Y-190100000D01*
X150850000Y-190500000D02*
X150250000Y-190900000D01*
X150850000Y-190500000D02*
X150850000Y-189950000D01*
X150850000Y-190500000D02*
X150850000Y-191050000D01*
X151250000Y-190500000D02*
X150850000Y-190500000D01*
%TO.C,D13*%
X235132000Y-137612000D02*
X235732000Y-138012000D01*
X235132000Y-138012000D02*
X234632000Y-138012000D01*
X235132000Y-138412000D02*
X235132000Y-137612000D01*
X235732000Y-138012000D02*
X235132000Y-138412000D01*
X235732000Y-138012000D02*
X235732000Y-137462000D01*
X235732000Y-138012000D02*
X235732000Y-138562000D01*
X236132000Y-138012000D02*
X235732000Y-138012000D01*
D11*
%TO.C,S15*%
X122932500Y-140352000D02*
X123932500Y-140352000D01*
X122932500Y-141352000D02*
X122932500Y-140352000D01*
X122932500Y-154352000D02*
X122932500Y-153956000D01*
X123932500Y-154352000D02*
X122932500Y-154352000D01*
X124852500Y-149892000D02*
X124852500Y-150908000D01*
X124852500Y-153956000D02*
X124852500Y-154337000D01*
X124852500Y-154337000D02*
X133742500Y-154337000D01*
X129932500Y-149892000D02*
X124852500Y-149892000D01*
X134123500Y-147987000D02*
X132472500Y-147987000D01*
X135932500Y-140352000D02*
X136932500Y-140352000D01*
X136282500Y-147987000D02*
X135901500Y-147987000D01*
X136282500Y-148368000D02*
X136282500Y-147987000D01*
X136282500Y-151797000D02*
X136282500Y-151416000D01*
X136932500Y-140352000D02*
X136932500Y-141352000D01*
X136932500Y-153352000D02*
X136932500Y-154352000D01*
X136932500Y-154352000D02*
X135932500Y-154352000D01*
X132393768Y-147979503D02*
G75*
G02*
X129932500Y-149892000I-2461268J627503D01*
G01*
X136282500Y-151797000D02*
G75*
G02*
X133742500Y-154337000I-2540001J1D01*
G01*
%TO.C,S22*%
X127695000Y-159352000D02*
X128695000Y-159352000D01*
X127695000Y-160352000D02*
X127695000Y-159352000D01*
X127695000Y-173352000D02*
X127695000Y-172956000D01*
X128695000Y-173352000D02*
X127695000Y-173352000D01*
X129615000Y-168892000D02*
X129615000Y-169908000D01*
X129615000Y-172956000D02*
X129615000Y-173337000D01*
X129615000Y-173337000D02*
X138505000Y-173337000D01*
X134695000Y-168892000D02*
X129615000Y-168892000D01*
X138886000Y-166987000D02*
X137235000Y-166987000D01*
X140695000Y-159352000D02*
X141695000Y-159352000D01*
X141045000Y-166987000D02*
X140664000Y-166987000D01*
X141045000Y-167368000D02*
X141045000Y-166987000D01*
X141045000Y-170797000D02*
X141045000Y-170416000D01*
X141695000Y-159352000D02*
X141695000Y-160352000D01*
X141695000Y-172352000D02*
X141695000Y-173352000D01*
X141695000Y-173352000D02*
X140695000Y-173352000D01*
X137156268Y-166979503D02*
G75*
G02*
X134695000Y-168892000I-2461268J627503D01*
G01*
X141045000Y-170797000D02*
G75*
G02*
X138505000Y-173337000I-2540001J1D01*
G01*
D13*
%TO.C,D19*%
X225302000Y-156572000D02*
X225902000Y-156972000D01*
X225302000Y-156972000D02*
X224802000Y-156972000D01*
X225302000Y-157372000D02*
X225302000Y-156572000D01*
X225902000Y-156972000D02*
X225302000Y-157372000D01*
X225902000Y-156972000D02*
X225902000Y-156422000D01*
X225902000Y-156972000D02*
X225902000Y-157522000D01*
X226302000Y-156972000D02*
X225902000Y-156972000D01*
D11*
%TO.C,S19*%
X209079000Y-140352000D02*
X210079000Y-140352000D01*
X209079000Y-141352000D02*
X209079000Y-140352000D01*
X209079000Y-154352000D02*
X209079000Y-153956000D01*
X210079000Y-154352000D02*
X209079000Y-154352000D01*
X210999000Y-149892000D02*
X210999000Y-150908000D01*
X210999000Y-153956000D02*
X210999000Y-154337000D01*
X210999000Y-154337000D02*
X219889000Y-154337000D01*
X216079000Y-149892000D02*
X210999000Y-149892000D01*
X220270000Y-147987000D02*
X218619000Y-147987000D01*
X222079000Y-140352000D02*
X223079000Y-140352000D01*
X222429000Y-147987000D02*
X222048000Y-147987000D01*
X222429000Y-148368000D02*
X222429000Y-147987000D01*
X222429000Y-151797000D02*
X222429000Y-151416000D01*
X223079000Y-140352000D02*
X223079000Y-141352000D01*
X223079000Y-153352000D02*
X223079000Y-154352000D01*
X223079000Y-154352000D02*
X222079000Y-154352000D01*
X218540268Y-147979503D02*
G75*
G02*
X216079000Y-149892000I-2461268J627503D01*
G01*
X222429000Y-151797000D02*
G75*
G02*
X219889000Y-154337000I-2540001J1D01*
G01*
%TO.C,S9*%
X142554000Y-121352000D02*
X143554000Y-121352000D01*
X142554000Y-122352000D02*
X142554000Y-121352000D01*
X142554000Y-135352000D02*
X142554000Y-134956000D01*
X143554000Y-135352000D02*
X142554000Y-135352000D01*
X144474000Y-130892000D02*
X144474000Y-131908000D01*
X144474000Y-134956000D02*
X144474000Y-135337000D01*
X144474000Y-135337000D02*
X153364000Y-135337000D01*
X149554000Y-130892000D02*
X144474000Y-130892000D01*
X153745000Y-128987000D02*
X152094000Y-128987000D01*
X155554000Y-121352000D02*
X156554000Y-121352000D01*
X155904000Y-128987000D02*
X155523000Y-128987000D01*
X155904000Y-129368000D02*
X155904000Y-128987000D01*
X155904000Y-132797000D02*
X155904000Y-132416000D01*
X156554000Y-121352000D02*
X156554000Y-122352000D01*
X156554000Y-134352000D02*
X156554000Y-135352000D01*
X156554000Y-135352000D02*
X155554000Y-135352000D01*
X152015268Y-128979503D02*
G75*
G02*
X149554000Y-130892000I-2461268J627503D01*
G01*
X155904000Y-132797000D02*
G75*
G02*
X153364000Y-135337000I-2540001J1D01*
G01*
%TO.C,F4*%
X188907500Y-83800000D02*
X189907500Y-83800000D01*
X188907500Y-84800000D02*
X188907500Y-83800000D01*
X188907500Y-97800000D02*
X188907500Y-97404000D01*
X189907500Y-97800000D02*
X188907500Y-97800000D01*
X190827500Y-93340000D02*
X190827500Y-94356000D01*
X190827500Y-97404000D02*
X190827500Y-97785000D01*
X190827500Y-97785000D02*
X199717500Y-97785000D01*
X195907500Y-93340000D02*
X190827500Y-93340000D01*
X200098500Y-91435000D02*
X198447500Y-91435000D01*
X201907500Y-83800000D02*
X202907500Y-83800000D01*
X202257500Y-91435000D02*
X201876500Y-91435000D01*
X202257500Y-91816000D02*
X202257500Y-91435000D01*
X202257500Y-95245000D02*
X202257500Y-94864000D01*
X202907500Y-83800000D02*
X202907500Y-84800000D01*
X202907500Y-96800000D02*
X202907500Y-97800000D01*
X202907500Y-97800000D02*
X201907500Y-97800000D01*
X198368768Y-91427503D02*
G75*
G02*
X195907500Y-93340000I-2461268J627503D01*
G01*
X202257500Y-95245000D02*
G75*
G02*
X199717500Y-97785000I-2540001J1D01*
G01*
D13*
%TO.C,D18*%
X206252000Y-156826000D02*
X206852000Y-157226000D01*
X206252000Y-157226000D02*
X205752000Y-157226000D01*
X206252000Y-157626000D02*
X206252000Y-156826000D01*
X206852000Y-157226000D02*
X206252000Y-157626000D01*
X206852000Y-157226000D02*
X206852000Y-156676000D01*
X206852000Y-157226000D02*
X206852000Y-157776000D01*
X207252000Y-157226000D02*
X206852000Y-157226000D01*
D11*
%TO.C,S13*%
X218554000Y-121352000D02*
X219554000Y-121352000D01*
X218554000Y-122352000D02*
X218554000Y-121352000D01*
X218554000Y-135352000D02*
X218554000Y-134956000D01*
X219554000Y-135352000D02*
X218554000Y-135352000D01*
X220474000Y-130892000D02*
X220474000Y-131908000D01*
X220474000Y-134956000D02*
X220474000Y-135337000D01*
X220474000Y-135337000D02*
X229364000Y-135337000D01*
X225554000Y-130892000D02*
X220474000Y-130892000D01*
X229745000Y-128987000D02*
X228094000Y-128987000D01*
X231554000Y-121352000D02*
X232554000Y-121352000D01*
X231904000Y-128987000D02*
X231523000Y-128987000D01*
X231904000Y-129368000D02*
X231904000Y-128987000D01*
X231904000Y-132797000D02*
X231904000Y-132416000D01*
X232554000Y-121352000D02*
X232554000Y-122352000D01*
X232554000Y-134352000D02*
X232554000Y-135352000D01*
X232554000Y-135352000D02*
X231554000Y-135352000D01*
X228015268Y-128979503D02*
G75*
G02*
X225554000Y-130892000I-2461268J627503D01*
G01*
X231904000Y-132797000D02*
G75*
G02*
X229364000Y-135337000I-2540001J1D01*
G01*
D13*
%TO.C,D1*%
X129216000Y-118308000D02*
X129816000Y-118708000D01*
X129216000Y-118708000D02*
X128716000Y-118708000D01*
X129216000Y-119108000D02*
X129216000Y-118308000D01*
X129816000Y-118708000D02*
X129216000Y-119108000D01*
X129816000Y-118708000D02*
X129816000Y-118158000D01*
X129816000Y-118708000D02*
X129816000Y-119258000D01*
X130216000Y-118708000D02*
X129816000Y-118708000D01*
%TO.C,D8*%
X147324000Y-138792000D02*
X147924000Y-139192000D01*
X147324000Y-139192000D02*
X146824000Y-139192000D01*
X147324000Y-139592000D02*
X147324000Y-138792000D01*
X147924000Y-139192000D02*
X147324000Y-139592000D01*
X147924000Y-139192000D02*
X147924000Y-138642000D01*
X147924000Y-139192000D02*
X147924000Y-139742000D01*
X148324000Y-139192000D02*
X147924000Y-139192000D01*
%TO.C,D41*%
X260228000Y-100438000D02*
X260828000Y-100838000D01*
X260228000Y-100838000D02*
X259728000Y-100838000D01*
X260228000Y-101238000D02*
X260228000Y-100438000D01*
X260828000Y-100838000D02*
X260228000Y-101238000D01*
X260828000Y-100838000D02*
X260828000Y-100288000D01*
X260828000Y-100838000D02*
X260828000Y-101388000D01*
X261228000Y-100838000D02*
X260828000Y-100838000D01*
D11*
%TO.C,S10*%
X161554000Y-121352000D02*
X162554000Y-121352000D01*
X161554000Y-122352000D02*
X161554000Y-121352000D01*
X161554000Y-135352000D02*
X161554000Y-134956000D01*
X162554000Y-135352000D02*
X161554000Y-135352000D01*
X163474000Y-130892000D02*
X163474000Y-131908000D01*
X163474000Y-134956000D02*
X163474000Y-135337000D01*
X163474000Y-135337000D02*
X172364000Y-135337000D01*
X168554000Y-130892000D02*
X163474000Y-130892000D01*
X172745000Y-128987000D02*
X171094000Y-128987000D01*
X174554000Y-121352000D02*
X175554000Y-121352000D01*
X174904000Y-128987000D02*
X174523000Y-128987000D01*
X174904000Y-129368000D02*
X174904000Y-128987000D01*
X174904000Y-132797000D02*
X174904000Y-132416000D01*
X175554000Y-121352000D02*
X175554000Y-122352000D01*
X175554000Y-134352000D02*
X175554000Y-135352000D01*
X175554000Y-135352000D02*
X174554000Y-135352000D01*
X171015268Y-128979503D02*
G75*
G02*
X168554000Y-130892000I-2461268J627503D01*
G01*
X174904000Y-132797000D02*
G75*
G02*
X172364000Y-135337000I-2540001J1D01*
G01*
%TO.C,S30*%
X157341500Y-178352000D02*
X158341500Y-178352000D01*
X157341500Y-179352000D02*
X157341500Y-178352000D01*
X157341500Y-192352000D02*
X157341500Y-191956000D01*
X158341500Y-192352000D02*
X157341500Y-192352000D01*
X159261500Y-187892000D02*
X159261500Y-188908000D01*
X159261500Y-191956000D02*
X159261500Y-192337000D01*
X159261500Y-192337000D02*
X168151500Y-192337000D01*
X164341500Y-187892000D02*
X159261500Y-187892000D01*
X168532500Y-185987000D02*
X166881500Y-185987000D01*
X170341500Y-178352000D02*
X171341500Y-178352000D01*
X170691500Y-185987000D02*
X170310500Y-185987000D01*
X170691500Y-186368000D02*
X170691500Y-185987000D01*
X170691500Y-189797000D02*
X170691500Y-189416000D01*
X171341500Y-178352000D02*
X171341500Y-179352000D01*
X171341500Y-191352000D02*
X171341500Y-192352000D01*
X171341500Y-192352000D02*
X170341500Y-192352000D01*
X166802768Y-185979503D02*
G75*
G02*
X164341500Y-187892000I-2461268J627503D01*
G01*
X170691500Y-189797000D02*
G75*
G02*
X168151500Y-192337000I-2540001J1D01*
G01*
D14*
%TO.C,ExtraButtonsSelect1*%
X265760000Y-101000000D02*
X271260000Y-101000000D01*
X265760000Y-102950000D02*
X265760000Y-101000000D01*
X271260000Y-101000000D02*
X271260000Y-102950000D01*
X271260000Y-102950000D02*
X265760000Y-102950000D01*
%TD*%
M02*
