M48
; DRILL file {KiCad 8.0.6} date 2024-11-14T19:17:11-0700
; FORMAT={-:-/ absolute / inch / decimal}
; #@! TF.CreationDate,2024-11-14T19:17:11-07:00
; #@! TF.GenerationSoftware,Kicad,Pcbnew,8.0.6
; #@! TF.FileFunction,Plated,1,2,PTH
FMAT,2
INCH
; #@! TA.AperFunction,Plated,PTH,ViaDrill
T1C0.0157
; #@! TA.AperFunction,Plated,PTH,ComponentDrill
T2C0.0157
; #@! TA.AperFunction,Plated,PTH,ComponentDrill
T3C0.0276
; #@! TA.AperFunction,Plated,PTH,ComponentDrill
T4C0.0350
; #@! TA.AperFunction,Plated,PTH,ComponentDrill
T5C0.0354
; #@! TA.AperFunction,Plated,PTH,ComponentDrill
T6C0.0394
; #@! TA.AperFunction,Plated,PTH,ComponentDrill
T7C0.0500
; #@! TA.AperFunction,Plated,PTH,ComponentDrill
T8C0.0591
%
G90
G05
T1
X4.6063Y-3.6024
X5.1181Y-4.2126
X5.2815Y-3.8976
X5.4724Y-3.4549
X5.9077Y-4.0179
X6.2205Y-3.4549
X6.6142Y-4.0551
X6.9685Y-3.4549
X7.3425Y-4.0354
X7.7165Y-3.4549
X8.1299Y-3.9764
X8.248Y-4.0157
X8.4646Y-3.4549
X8.7205Y-3.9961
X9.2126Y-3.4549
X9.5866Y-4.0945
X9.5866Y-4.1732
X9.9606Y-3.4549
X10.042Y-5.1035
X10.0787Y-3.9764
X10.152Y-4.8635
X10.242Y-4.6035
X10.332Y-5.0335
X10.332Y-5.2235
X10.412Y-4.3535
X10.472Y-5.8635
X10.482Y-6.2035
X10.532Y-6.4735
X10.562Y-5.2235
X10.572Y-4.8935
X10.572Y-5.9935
X10.592Y-4.3535
X10.612Y-4.8035
X10.642Y-4.5735
X10.662Y-4.8435
X10.682Y-5.1335
X10.692Y-4.4235
X10.692Y-4.9535
X10.722Y-5.5935
X10.862Y-5.5735
X10.892Y-4.9535
X10.952Y-5.5435
X10.9528Y-5.7614
X10.962Y-4.3335
X10.982Y-4.1635
X11.032Y-5.1035
X11.062Y-4.3535
X11.112Y-4.3135
X11.132Y-5.1435
X11.132Y-5.7535
X11.172Y-5.1035
X11.172Y-5.3035
X11.242Y-4.9735
X11.242Y-5.6535
X11.282Y-5.3535
X11.292Y-5.7235
X11.352Y-5.7435
T2
X5.0321Y-4.6735
X5.0394Y-3.9311
X5.0394Y-4.061
X5.1181Y-3.9508
X5.1181Y-4.0807
X5.162Y-4.6735
X5.7028Y-5.6496
X5.7874Y-3.8524
X5.7874Y-3.9823
X5.7971Y-4.6835
X5.8327Y-5.6496
X5.8543Y-6.1735
X5.8602Y-7.5
X5.8858Y-7.4016
X5.927Y-4.6835
X5.9843Y-6.1735
X5.9902Y-7.5
X6.0157Y-7.4016
X6.112Y-6.8686
X6.112Y-6.9985
X6.2171Y-5.4335
X6.347Y-5.4335
X6.4521Y-6.9335
X6.5571Y-4.6935
X6.5689Y-3.9567
X6.5771Y-6.1535
X6.582Y-6.9335
X6.687Y-4.6935
X6.6988Y-3.9567
X6.707Y-6.1535
X6.9371Y-5.4235
X7.067Y-5.4235
X7.072Y-6.9735
X7.202Y-6.9735
X7.312Y-4.6635
X7.3307Y-3.9567
X7.3671Y-6.1835
X7.442Y-4.6635
X7.4606Y-3.9567
X7.497Y-6.1835
X7.6521Y-6.9335
X7.712Y-5.4335
X7.782Y-6.9335
X7.842Y-5.4335
X7.9571Y-6.1735
X8.042Y-4.6835
X8.065Y-3.9567
X8.0821Y-6.9935
X8.087Y-6.1735
X8.172Y-4.6835
X8.1772Y-7.2441
X8.1949Y-3.9567
X8.212Y-6.9935
X8.3071Y-7.2441
X8.472Y-5.4335
X8.602Y-5.4335
X8.7271Y-6.1635
X8.7971Y-4.6735
X8.857Y-6.1635
X8.9114Y-3.9764
X8.927Y-4.6735
X9.0413Y-3.9764
X9.1871Y-6.9235
X9.202Y-5.4335
X9.317Y-6.9235
X9.332Y-5.4335
X9.4471Y-6.1835
X9.577Y-6.1835
X9.6201Y-3.9764
X9.6371Y-4.6435
X9.75Y-3.9764
X9.767Y-4.6435
X9.8971Y-6.9335
X10.027Y-6.9335
X10.0371Y-5.3935
X10.122Y-4.6635
X10.167Y-5.3935
X10.252Y-4.6635
X10.2671Y-6.1935
X10.397Y-6.1935
X10.5271Y-6.9435
X10.657Y-6.9435
T3
X10.432Y-4.1535
X10.432Y-4.4535
X10.522Y-4.2135
X10.522Y-4.5135
T4
X10.762Y-4.0785
X10.762Y-4.1785
X10.762Y-4.2785
X10.762Y-4.3785
X10.762Y-4.4785
X10.762Y-4.5785
X10.762Y-4.6785
X10.762Y-4.7785
X10.762Y-4.8785
X10.762Y-4.9785
X10.762Y-5.0785
X10.762Y-5.1785
X10.762Y-5.2785
X11.362Y-4.0785
X11.362Y-4.1785
X11.362Y-4.2785
X11.362Y-4.3785
X11.362Y-4.4785
X11.362Y-4.5785
X11.362Y-4.6785
X11.362Y-4.7785
X11.362Y-4.8785
X11.362Y-4.9785
X11.362Y-5.0785
X11.362Y-5.1785
X11.362Y-5.2785
T5
X10.522Y-7.2935
X10.622Y-7.2935
X10.722Y-7.2935
X10.822Y-7.2935
X11.3633Y-6.8148
X11.3633Y-6.8935
X11.3633Y-6.9723
T6
X10.2836Y-4.7581
X10.2836Y-5.329
X10.382Y-4.7581
X10.4805Y-4.7581
X10.4805Y-5.329
X11.0423Y-7.4743
X11.0423Y-7.5728
T7
X4.5239Y-3.4252
X4.5239Y-4.1556
X4.7208Y-3.3425
X4.7208Y-4.0729
X4.7311Y-4.9036
X4.9176Y-3.4252
X4.9176Y-4.1556
X4.9186Y-5.6517
X4.9186Y-7.1477
X4.928Y-4.8209
X5.1061Y-6.3997
X5.1155Y-5.569
X5.1155Y-7.065
X5.1248Y-4.9036
X5.2719Y-3.4252
X5.2719Y-4.1556
X5.303Y-6.317
X5.3123Y-5.6517
X5.3123Y-7.1477
X5.4688Y-3.3425
X5.4688Y-4.0729
X5.4998Y-6.3997
X5.6656Y-3.4252
X5.6656Y-4.1556
X5.6911Y-4.9036
X5.888Y-4.8209
X6.02Y-3.4252
X6.02Y-4.1556
X6.0661Y-5.6517
X6.0848Y-4.9036
X6.2168Y-3.3425
X6.2168Y-4.0729
X6.263Y-5.569
X6.2733Y-7.1477
X6.4137Y-3.4252
X6.4137Y-4.1556
X6.4391Y-4.9036
X6.4411Y-6.3997
X6.4598Y-5.6517
X6.4701Y-7.065
X6.636Y-4.8209
X6.638Y-6.317
X6.667Y-7.1477
X6.768Y-3.4252
X6.768Y-4.1556
X6.8141Y-5.6517
X6.8328Y-4.9036
X6.8348Y-6.3997
X6.9649Y-3.3425
X6.9649Y-4.0729
X7.011Y-5.569
X7.1617Y-3.4252
X7.1617Y-4.1556
X7.1872Y-4.9036
X7.1891Y-6.3997
X7.2078Y-5.6517
X7.2333Y-7.1477
X7.384Y-4.8209
X7.386Y-6.317
X7.4301Y-7.065
X7.516Y-3.4252
X7.516Y-4.1556
X7.5622Y-5.6517
X7.5809Y-4.9036
X7.5828Y-6.3997
X7.627Y-7.1477
X7.7129Y-3.3425
X7.7129Y-4.0729
X7.759Y-5.569
X7.9097Y-3.4252
X7.9097Y-4.1556
X7.9352Y-4.9036
X7.9372Y-6.3997
X7.9559Y-5.6517
X8.132Y-4.8209
X8.134Y-6.317
X8.2641Y-3.4252
X8.2641Y-4.1556
X8.3102Y-5.6517
X8.3289Y-4.9036
X8.3309Y-6.3997
X8.4609Y-3.3425
X8.4609Y-4.0729
X8.507Y-5.569
X8.6578Y-3.4252
X8.6578Y-4.1556
X8.6832Y-4.9036
X8.6852Y-6.3997
X8.7039Y-5.6517
X8.751Y-7.1477
X8.8801Y-4.8209
X8.882Y-6.317
X8.9479Y-7.065
X9.0121Y-3.4252
X9.0121Y-4.1556
X9.0582Y-5.6517
X9.0769Y-4.9036
X9.0789Y-6.3997
X9.1447Y-7.1477
X9.209Y-3.3425
X9.209Y-4.0729
X9.2551Y-5.569
X9.4058Y-3.4252
X9.4058Y-4.1556
X9.4313Y-4.9036
X9.4332Y-6.3997
X9.4519Y-5.6517
X9.6281Y-4.8209
X9.6301Y-6.317
X9.7601Y-3.4252
X9.7601Y-4.1556
X9.8063Y-5.6517
X9.825Y-4.9036
X9.8269Y-6.3997
X9.957Y-3.3425
X9.957Y-4.0729
X10.0031Y-5.569
X10.1538Y-3.4252
X10.1538Y-4.1556
X10.1813Y-6.3997
X10.2Y-5.6517
X10.3781Y-6.317
X10.575Y-6.3997
T8
X11.3633Y-6.7321
X11.3633Y-7.055
T6
G00X11.0706Y-6.1112
M15
G01X11.0706Y-6.1506
M16
G05
G00X11.0706Y-6.2687
M15
G01X11.0706Y-6.308
M16
G05
G00X11.2872Y-6.1112
M15
G01X11.2872Y-6.1506
M16
G05
G00X11.2872Y-6.2687
M15
G01X11.2872Y-6.308
M16
G05
G00X11.3817Y-6.1899
M15
G01X11.3817Y-6.2293
M16
G05
T8
G00X10.1616Y-5.0278
M15
G01X10.1616Y-5.079
M16
G05
G00X10.6025Y-5.0278
M15
G01X10.6025Y-5.079
M16
G05
M30
