M48
; DRILL file {KiCad 8.0.4} date 2024-11-20T20:15:19-0700
; FORMAT={-:-/ absolute / metric / decimal}
; #@! TF.CreationDate,2024-11-20T20:15:19-07:00
; #@! TF.GenerationSoftware,Kicad,Pcbnew,8.0.4
; #@! TF.FileFunction,NonPlated,1,2,NPTH
FMAT,2
METRIC
; #@! TA.AperFunction,NonPlated,NPTH,ComponentDrill
T1C1.702
; #@! TA.AperFunction,NonPlated,NPTH,ComponentDrill
T2C2.200
; #@! TA.AperFunction,NonPlated,NPTH,ComponentDrill
T3C3.000
; #@! TA.AperFunction,NonPlated,NPTH,ComponentDrill
T4C3.048
; #@! TA.AperFunction,NonPlated,NPTH,ComponentDrill
T5C3.988
%
G90
G05
T1
X114.828Y-90.8
X114.828Y-109.352
X120.09Y-128.352
X124.852Y-147.352
X124.852Y-185.352
X124.987Y-90.8
X124.987Y-109.352
X129.615Y-166.352
X130.25Y-128.352
X133.827Y-90.8
X133.827Y-109.352
X135.012Y-147.352
X135.012Y-185.352
X139.775Y-166.352
X143.987Y-90.8
X143.987Y-109.352
X144.474Y-128.352
X152.827Y-90.8
X152.827Y-109.352
X153.999Y-147.352
X154.634Y-128.352
X159.261Y-185.352
X162.987Y-90.8
X162.987Y-109.352
X163.474Y-128.352
X163.524Y-166.352
X164.159Y-147.352
X169.421Y-185.352
X171.827Y-90.8
X171.827Y-109.352
X172.999Y-147.352
X173.634Y-128.352
X173.684Y-166.352
X181.987Y-90.8
X181.987Y-109.352
X182.474Y-128.352
X182.524Y-166.352
X183.159Y-147.352
X183.645Y-185.352
X190.827Y-90.8
X190.827Y-109.352
X191.999Y-147.352
X192.634Y-128.352
X192.684Y-166.352
X193.805Y-185.352
X200.987Y-90.8
X200.987Y-109.352
X201.474Y-128.352
X201.524Y-166.352
X202.159Y-147.352
X209.827Y-90.8
X209.827Y-109.352
X210.999Y-147.352
X211.634Y-128.352
X211.684Y-166.352
X219.987Y-90.8
X219.987Y-109.352
X220.474Y-128.352
X220.524Y-166.352
X221.159Y-147.352
X222.195Y-185.352
X228.827Y-90.8
X228.827Y-109.352
X229.999Y-147.352
X230.634Y-128.352
X230.684Y-166.352
X232.355Y-185.352
X238.987Y-90.8
X238.987Y-109.352
X239.474Y-128.352
X239.524Y-166.352
X240.159Y-147.352
X247.827Y-90.8
X247.827Y-109.352
X248.999Y-147.352
X249.634Y-128.352
X249.684Y-166.352
X257.988Y-90.8
X257.988Y-109.352
X258.524Y-166.352
X259.159Y-147.352
X268.684Y-166.352
T2
X112.268Y-100.076
X113.284Y-189.23
X158.0Y-161.0
X158.242Y-121.793
X185.928Y-97.536
X203.327Y-186.309
X206.502Y-143.256
X234.442Y-120.904
X240.792Y-102.108
X261.5Y-189.0
X271.0Y-147.5
T3
X117.367Y-85.72
X117.367Y-95.88
X117.367Y-104.272
X117.367Y-114.432
X122.63Y-123.272
X122.63Y-133.432
X123.718Y-88.26
X123.718Y-93.34
X123.718Y-106.812
X123.718Y-111.892
X127.392Y-142.272
X127.392Y-152.432
X127.392Y-180.272
X127.392Y-190.432
X128.98Y-125.812
X128.98Y-130.892
X132.155Y-161.272
X132.155Y-171.432
X133.743Y-144.812
X133.743Y-149.892
X133.743Y-182.812
X133.743Y-187.892
X136.368Y-85.72
X136.368Y-95.88
X136.368Y-104.272
X136.368Y-114.432
X138.505Y-163.812
X138.505Y-168.892
X142.718Y-88.26
X142.718Y-93.34
X142.718Y-106.812
X142.718Y-111.892
X147.014Y-123.272
X147.014Y-133.432
X153.364Y-125.812
X153.364Y-130.892
X155.368Y-85.72
X155.368Y-95.88
X155.368Y-104.272
X155.368Y-114.432
X156.539Y-142.272
X156.539Y-152.432
X161.718Y-88.26
X161.718Y-93.34
X161.718Y-106.812
X161.718Y-111.892
X161.802Y-180.272
X161.802Y-190.432
X162.889Y-144.812
X162.889Y-149.892
X166.014Y-123.272
X166.014Y-133.432
X166.064Y-161.272
X166.064Y-171.432
X168.151Y-182.812
X168.151Y-187.892
X172.364Y-125.812
X172.364Y-130.892
X172.414Y-163.812
X172.414Y-168.892
X174.367Y-85.72
X174.367Y-95.88
X174.367Y-104.272
X174.367Y-114.432
X175.539Y-142.272
X175.539Y-152.432
X180.718Y-88.26
X180.718Y-93.34
X180.718Y-106.812
X180.718Y-111.892
X181.889Y-144.812
X181.889Y-149.892
X185.014Y-123.272
X185.014Y-133.432
X185.064Y-161.272
X185.064Y-171.432
X186.185Y-180.272
X186.185Y-190.432
X191.364Y-125.812
X191.364Y-130.892
X191.414Y-163.812
X191.414Y-168.892
X192.535Y-182.812
X192.535Y-187.892
X193.367Y-85.72
X193.367Y-95.88
X193.367Y-104.272
X193.367Y-114.432
X194.539Y-142.272
X194.539Y-152.432
X199.718Y-88.26
X199.718Y-93.34
X199.718Y-106.812
X199.718Y-111.892
X200.889Y-144.812
X200.889Y-149.892
X204.014Y-123.272
X204.014Y-133.432
X204.064Y-161.272
X204.064Y-171.432
X210.364Y-125.812
X210.364Y-130.892
X210.414Y-163.812
X210.414Y-168.892
X212.367Y-85.72
X212.367Y-95.88
X212.367Y-104.272
X212.367Y-114.432
X213.539Y-142.272
X213.539Y-152.432
X218.718Y-88.26
X218.718Y-93.34
X218.718Y-106.812
X218.718Y-111.892
X219.889Y-144.812
X219.889Y-149.892
X223.014Y-123.272
X223.014Y-133.432
X223.064Y-161.272
X223.064Y-171.432
X224.736Y-180.272
X224.736Y-190.432
X229.364Y-125.812
X229.364Y-130.892
X229.414Y-163.812
X229.414Y-168.892
X231.085Y-182.812
X231.085Y-187.892
X231.367Y-85.72
X231.367Y-95.88
X231.367Y-104.272
X231.367Y-114.432
X232.539Y-142.272
X232.539Y-152.432
X237.718Y-88.26
X237.718Y-93.34
X237.718Y-106.812
X237.718Y-111.892
X238.889Y-144.812
X238.889Y-149.892
X242.014Y-123.272
X242.014Y-133.432
X242.064Y-161.272
X242.064Y-171.432
X248.364Y-125.812
X248.364Y-130.892
X248.414Y-163.812
X248.414Y-168.892
X250.367Y-85.72
X250.367Y-95.88
X250.367Y-104.272
X250.367Y-114.432
X251.539Y-142.272
X251.539Y-152.432
X256.717Y-88.26
X256.717Y-93.34
X256.717Y-106.812
X256.717Y-111.892
X257.889Y-144.812
X257.889Y-149.892
X261.064Y-161.272
X261.064Y-171.432
X267.414Y-163.812
X267.414Y-168.892
T4
X113.27Y-121.367
X118.032Y-140.367
X118.032Y-178.367
X122.795Y-159.367
X137.07Y-121.367
X141.832Y-140.367
X141.832Y-178.367
X146.595Y-159.367
X215.375Y-178.367
X239.175Y-178.367
T5
X113.27Y-136.607
X118.032Y-155.607
X118.032Y-193.607
X119.907Y-90.8
X119.907Y-109.352
X122.795Y-174.607
X125.17Y-128.352
X129.933Y-147.352
X129.933Y-185.352
X134.695Y-166.352
X137.07Y-136.607
X138.907Y-90.8
X138.907Y-109.352
X141.832Y-155.607
X141.832Y-193.607
X146.595Y-174.607
X149.554Y-128.352
X157.907Y-90.8
X157.907Y-109.352
X159.079Y-147.352
X164.341Y-185.352
X168.554Y-128.352
X168.604Y-166.352
X176.907Y-90.8
X176.907Y-109.352
X178.079Y-147.352
X187.554Y-128.352
X187.604Y-166.352
X188.725Y-185.352
X195.907Y-90.8
X195.907Y-109.352
X197.079Y-147.352
X206.554Y-128.352
X206.604Y-166.352
X214.907Y-90.8
X214.907Y-109.352
X215.375Y-193.607
X216.079Y-147.352
X225.554Y-128.352
X225.604Y-166.352
X227.275Y-185.352
X233.907Y-90.8
X233.907Y-109.352
X235.079Y-147.352
X239.175Y-193.607
X244.554Y-128.352
X244.604Y-166.352
X252.907Y-90.8
X252.907Y-109.352
X254.079Y-147.352
X263.604Y-166.352
M30
