%TF.GenerationSoftware,KiCad,Pcbnew,8.0.6*%
%TF.CreationDate,2024-11-03T15:23:54-07:00*%
%TF.ProjectId,simple_split,73696d70-6c65-45f7-9370-6c69742e6b69,v1.0.0*%
%TF.SameCoordinates,Original*%
%TF.FileFunction,Soldermask,Top*%
%TF.FilePolarity,Negative*%
%FSLAX46Y46*%
G04 Gerber Fmt 4.6, Leading zero omitted, Abs format (unit mm)*
G04 Created by KiCad (PCBNEW 8.0.6) date 2024-11-03 15:23:54*
%MOMM*%
%LPD*%
G01*
G04 APERTURE LIST*
G04 Aperture macros list*
%AMRoundRect*
0 Rectangle with rounded corners*
0 $1 Rounding radius*
0 $2 $3 $4 $5 $6 $7 $8 $9 X,Y pos of 4 corners*
0 Add a 4 corners polygon primitive as box body*
4,1,4,$2,$3,$4,$5,$6,$7,$8,$9,$2,$3,0*
0 Add four circle primitives for the rounded corners*
1,1,$1+$1,$2,$3*
1,1,$1+$1,$4,$5*
1,1,$1+$1,$6,$7*
1,1,$1+$1,$8,$9*
0 Add four rect primitives between the rounded corners*
20,1,$1+$1,$2,$3,$4,$5,0*
20,1,$1+$1,$4,$5,$6,$7,0*
20,1,$1+$1,$6,$7,$8,$9,0*
20,1,$1+$1,$8,$9,$2,$3,0*%
%AMFreePoly0*
4,1,16,0.535355,0.785355,0.541603,0.777735,1.041603,0.027735,1.049029,-0.009806,1.041603,-0.027735,0.541603,-0.777735,0.509806,-0.799029,0.500000,-0.800000,-0.500000,-0.800000,-0.535355,-0.785355,-0.550000,-0.750000,-0.550000,0.750000,-0.535355,0.785355,-0.500000,0.800000,0.500000,0.800000,0.535355,0.785355,0.535355,0.785355,$1*%
G04 Aperture macros list end*
%ADD10C,2.300000*%
%ADD11C,2.132000*%
%ADD12C,3.100000*%
%ADD13RoundRect,0.050000X1.300000X1.300000X-1.300000X1.300000X-1.300000X-1.300000X1.300000X-1.300000X0*%
%ADD14C,3.529000*%
%ADD15C,1.801800*%
%ADD16C,0.900000*%
%ADD17RoundRect,0.050000X0.450000X0.600000X-0.450000X0.600000X-0.450000X-0.600000X0.450000X-0.600000X0*%
%ADD18RoundRect,0.050000X0.600000X-0.450000X0.600000X0.450000X-0.600000X0.450000X-0.600000X-0.450000X0*%
%ADD19C,1.500000*%
%ADD20O,1.500000X1.500000*%
%ADD21RoundRect,0.050000X-0.450000X-0.600000X0.450000X-0.600000X0.450000X0.600000X-0.450000X0.600000X0*%
%ADD22RoundRect,0.264706X-0.785294X0.635294X-0.785294X-0.635294X0.785294X-0.635294X0.785294X0.635294X0*%
%ADD23O,2.100000X1.800000*%
%ADD24RoundRect,0.050000X-1.000000X-1.000000X1.000000X-1.000000X1.000000X1.000000X-1.000000X1.000000X0*%
%ADD25C,2.100000*%
%ADD26C,3.148000*%
%ADD27C,4.087800*%
%ADD28R,1.500000X1.500000*%
%ADD29FreePoly0,270.000000*%
%ADD30FreePoly0,90.000000*%
%ADD31FreePoly0,0.000000*%
%ADD32FreePoly0,180.000000*%
%ADD33RoundRect,0.050000X-0.600000X0.450000X-0.600000X-0.450000X0.600000X-0.450000X0.600000X0.450000X0*%
%ADD34RoundRect,0.050000X-0.889000X-0.762000X0.889000X-0.762000X0.889000X0.762000X-0.889000X0.762000X0*%
%ADD35C,1.878000*%
%ADD36O,3.600000X2.300000*%
%ADD37RoundRect,0.050000X1.250000X-0.750000X1.250000X0.750000X-1.250000X0.750000X-1.250000X-0.750000X0*%
%ADD38O,2.600000X1.600000*%
%ADD39O,1.900000X2.900000*%
%ADD40RoundRect,0.050000X-1.000000X1.000000X-1.000000X-1.000000X1.000000X-1.000000X1.000000X1.000000X0*%
%ADD41RoundRect,0.050000X-1.000000X1.600000X-1.000000X-1.600000X1.000000X-1.600000X1.000000X1.600000X0*%
G04 APERTURE END LIST*
D10*
%TO.C,M11*%
X186500000Y-87000000D03*
%TD*%
%TO.C,M10*%
X243500000Y-87500000D03*
%TD*%
D11*
%TO.C,F6*%
X238907500Y-87000000D03*
D12*
X228907500Y-94550000D03*
D13*
X242182500Y-94550000D03*
D12*
X233907500Y-96750000D03*
D11*
X233907500Y-84900000D03*
X228907500Y-87000000D03*
D14*
X233907500Y-90800000D03*
D12*
X238907500Y-94550000D03*
D13*
X230632500Y-96750000D03*
D15*
X228407500Y-90800000D03*
X239407500Y-90800000D03*
%TD*%
D11*
%TO.C,F5*%
X219907500Y-87000000D03*
D12*
X209907500Y-94550000D03*
D13*
X223182500Y-94550000D03*
D12*
X214907500Y-96750000D03*
D11*
X214907500Y-84900000D03*
X209907500Y-87000000D03*
D14*
X214907500Y-90800000D03*
D12*
X219907500Y-94550000D03*
D13*
X211632500Y-96750000D03*
D15*
X209407500Y-90800000D03*
X220407500Y-90800000D03*
%TD*%
D11*
%TO.C,F4*%
X200907500Y-87000000D03*
D12*
X190907500Y-94550000D03*
D13*
X204182500Y-94550000D03*
D12*
X195907500Y-96750000D03*
D11*
X195907500Y-84900000D03*
X190907500Y-87000000D03*
D14*
X195907500Y-90800000D03*
D12*
X200907500Y-94550000D03*
D13*
X192632500Y-96750000D03*
D15*
X190407500Y-90800000D03*
X201407500Y-90800000D03*
%TD*%
D11*
%TO.C,F3*%
X181907500Y-87000000D03*
D12*
X171907500Y-94550000D03*
D13*
X185182500Y-94550000D03*
D12*
X176907500Y-96750000D03*
D11*
X176907500Y-84900000D03*
X171907500Y-87000000D03*
D14*
X176907500Y-90800000D03*
D12*
X181907500Y-94550000D03*
D13*
X173632500Y-96750000D03*
D15*
X171407500Y-90800000D03*
X182407500Y-90800000D03*
%TD*%
D11*
%TO.C,F2*%
X162907500Y-87000000D03*
D12*
X152907500Y-94550000D03*
D13*
X166182500Y-94550000D03*
D12*
X157907500Y-96750000D03*
D11*
X157907500Y-84900000D03*
X152907500Y-87000000D03*
D14*
X157907500Y-90800000D03*
D12*
X162907500Y-94550000D03*
D13*
X154632500Y-96750000D03*
D15*
X152407500Y-90800000D03*
X163407500Y-90800000D03*
%TD*%
D11*
%TO.C,F1*%
X143907500Y-87000000D03*
D12*
X133907500Y-94550000D03*
D13*
X147182500Y-94550000D03*
D12*
X138907500Y-96750000D03*
D11*
X138907500Y-84900000D03*
X133907500Y-87000000D03*
D14*
X138907500Y-90800000D03*
D12*
X143907500Y-94550000D03*
D13*
X135632500Y-96750000D03*
D15*
X133407500Y-90800000D03*
X144407500Y-90800000D03*
%TD*%
D11*
%TO.C,Extra_Function_Key1*%
X257907500Y-87000000D03*
D12*
X247907500Y-94550000D03*
D13*
X261182500Y-94550000D03*
D12*
X252907500Y-96750000D03*
D11*
X252907500Y-84900000D03*
X247907500Y-87000000D03*
D14*
X252907500Y-90800000D03*
D12*
X257907500Y-94550000D03*
D13*
X249632500Y-96750000D03*
D15*
X247407500Y-90800000D03*
X258407500Y-90800000D03*
%TD*%
D16*
%TO.C,D41*%
X247650000Y-101000000D03*
D17*
X247650000Y-101000000D03*
D16*
X244350000Y-101000000D03*
D17*
X244350000Y-101000000D03*
%TD*%
D16*
%TO.C,D40*%
X229650000Y-101000000D03*
D17*
X229650000Y-101000000D03*
D16*
X226350000Y-101000000D03*
D17*
X226350000Y-101000000D03*
%TD*%
D16*
%TO.C,D39*%
X208150000Y-100500000D03*
D17*
X208150000Y-100500000D03*
D16*
X204850000Y-100500000D03*
D17*
X204850000Y-100500000D03*
%TD*%
D16*
%TO.C,D38*%
X189500000Y-100500000D03*
D17*
X189500000Y-100500000D03*
D16*
X186200000Y-100500000D03*
D17*
X186200000Y-100500000D03*
%TD*%
D16*
%TO.C,D37*%
X170150000Y-100500000D03*
D17*
X170150000Y-100500000D03*
D16*
X166850000Y-100500000D03*
D17*
X166850000Y-100500000D03*
%TD*%
D16*
%TO.C,D36*%
X147000000Y-101150000D03*
D18*
X147000000Y-101150000D03*
D16*
X147000000Y-97850000D03*
D18*
X147000000Y-97850000D03*
%TD*%
D16*
%TO.C,D34*%
X130000000Y-103650000D03*
D18*
X130000000Y-103650000D03*
D16*
X130000000Y-100350000D03*
D18*
X130000000Y-100350000D03*
%TD*%
D11*
%TO.C,S33*%
X247907500Y-105552000D03*
X257907500Y-105552000D03*
D13*
X261182500Y-113102000D03*
X249632500Y-115302000D03*
D11*
X252907500Y-103452000D03*
D15*
X247407500Y-109352000D03*
D12*
X247907500Y-113102000D03*
D14*
X252907500Y-109352000D03*
D12*
X252907500Y-115302000D03*
X257907500Y-113102000D03*
D15*
X258407500Y-109352000D03*
%TD*%
D19*
%TO.C,R3*%
X267260000Y-114644000D03*
D20*
X267260000Y-107024000D03*
%TD*%
D16*
%TO.C,D26*%
X236652000Y-175858000D03*
D17*
X236652000Y-175858000D03*
D16*
X233352000Y-175858000D03*
D17*
X233352000Y-175858000D03*
%TD*%
D16*
%TO.C,D24*%
X194364000Y-176112000D03*
D21*
X194364000Y-176112000D03*
D16*
X197664000Y-176112000D03*
D21*
X197664000Y-176112000D03*
%TD*%
D15*
%TO.C,S31*%
X194225500Y-185352000D03*
D12*
X193725500Y-189102000D03*
X188725500Y-191302000D03*
D14*
X188725500Y-185352000D03*
D12*
X183725500Y-189102000D03*
D15*
X183225500Y-185352000D03*
D11*
X188725500Y-179452000D03*
D13*
X185450500Y-191302000D03*
X197000500Y-189102000D03*
D11*
X193725500Y-181552000D03*
X183725500Y-181552000D03*
%TD*%
D15*
%TO.C,S8*%
X130670000Y-128352000D03*
D12*
X130170000Y-132102000D03*
X125170000Y-134302000D03*
D14*
X125170000Y-128352000D03*
D12*
X120170000Y-132102000D03*
D15*
X119670000Y-128352000D03*
D11*
X125170000Y-122452000D03*
D13*
X121895000Y-134302000D03*
X133445000Y-132102000D03*
D11*
X130170000Y-124552000D03*
X120170000Y-124552000D03*
%TD*%
D16*
%TO.C,D6*%
X226746000Y-118708000D03*
D17*
X226746000Y-118708000D03*
D16*
X223446000Y-118708000D03*
D17*
X223446000Y-118708000D03*
%TD*%
D16*
%TO.C,D33*%
X260400000Y-118454000D03*
D17*
X260400000Y-118454000D03*
D16*
X257100000Y-118454000D03*
D17*
X257100000Y-118454000D03*
%TD*%
D16*
%TO.C,D9*%
X161214000Y-138012000D03*
D17*
X161214000Y-138012000D03*
D16*
X157914000Y-138012000D03*
D17*
X157914000Y-138012000D03*
%TD*%
D10*
%TO.C,M1*%
X112500000Y-100500000D03*
%TD*%
D16*
%TO.C,D16*%
X170358000Y-156300000D03*
D17*
X170358000Y-156300000D03*
D16*
X167058000Y-156300000D03*
D17*
X167058000Y-156300000D03*
%TD*%
D16*
%TO.C,D10*%
X179502000Y-137758000D03*
D17*
X179502000Y-137758000D03*
D16*
X176202000Y-137758000D03*
D17*
X176202000Y-137758000D03*
%TD*%
D15*
%TO.C,S20*%
X240579000Y-147352000D03*
D12*
X240079000Y-151102000D03*
X235079000Y-153302000D03*
D14*
X235079000Y-147352000D03*
D12*
X230079000Y-151102000D03*
D15*
X229579000Y-147352000D03*
D11*
X235079000Y-141452000D03*
D13*
X231804000Y-153302000D03*
X243354000Y-151102000D03*
D11*
X240079000Y-143552000D03*
X230079000Y-143552000D03*
%TD*%
D15*
%TO.C,S11*%
X193054000Y-128352000D03*
D12*
X192554000Y-132102000D03*
X187554000Y-134302000D03*
D14*
X187554000Y-128352000D03*
D12*
X182554000Y-132102000D03*
D15*
X182054000Y-128352000D03*
D11*
X187554000Y-122452000D03*
D13*
X184279000Y-134302000D03*
X195829000Y-132102000D03*
D11*
X192554000Y-124552000D03*
X182554000Y-124552000D03*
%TD*%
D22*
%TO.C,J2*%
X280475500Y-189848000D03*
D23*
X280475500Y-192348000D03*
%TD*%
D10*
%TO.C,M9*%
X261500000Y-189000000D03*
%TD*%
D16*
%TO.C,D23*%
X167184000Y-176112000D03*
D17*
X167184000Y-176112000D03*
D16*
X163884000Y-176112000D03*
D17*
X163884000Y-176112000D03*
%TD*%
D16*
%TO.C,D7*%
X248082000Y-117946000D03*
D17*
X248082000Y-117946000D03*
D16*
X244782000Y-117946000D03*
D17*
X244782000Y-117946000D03*
%TD*%
D15*
%TO.C,S6*%
X220407500Y-109352000D03*
D12*
X219907500Y-113102000D03*
X214907500Y-115302000D03*
D14*
X214907500Y-109352000D03*
D12*
X209907500Y-113102000D03*
D15*
X209407500Y-109352000D03*
D11*
X214907500Y-103452000D03*
D13*
X211632500Y-115302000D03*
X223182500Y-113102000D03*
D11*
X219907500Y-105552000D03*
X209907500Y-105552000D03*
%TD*%
D24*
%TO.C,U2*%
X267260000Y-185256000D03*
D25*
X269800000Y-185256000D03*
X272340000Y-185256000D03*
X274880000Y-185256000D03*
%TD*%
D26*
%TO.C,DRA2*%
X113270000Y-121367000D03*
D27*
X113270000Y-136607000D03*
D26*
X137070000Y-121367000D03*
D27*
X137070000Y-136607000D03*
%TD*%
D10*
%TO.C,M7*%
X235000000Y-122000000D03*
%TD*%
%TO.C,M5*%
X203000000Y-185500000D03*
%TD*%
D28*
%TO.C,VCC1*%
X284024000Y-112936000D03*
X284024000Y-115336000D03*
D29*
X284024000Y-112136000D03*
D30*
X284024000Y-116136000D03*
%TD*%
D15*
%TO.C,S35*%
X125407500Y-90800000D03*
D12*
X124907500Y-94550000D03*
X119907500Y-96750000D03*
D14*
X119907500Y-90800000D03*
D12*
X114907500Y-94550000D03*
D15*
X114407500Y-90800000D03*
D11*
X119907500Y-84900000D03*
D13*
X116632500Y-96750000D03*
X128182500Y-94550000D03*
D11*
X124907500Y-87000000D03*
X114907500Y-87000000D03*
%TD*%
D15*
%TO.C,S4*%
X182407500Y-109352000D03*
D12*
X181907500Y-113102000D03*
X176907500Y-115302000D03*
D14*
X176907500Y-109352000D03*
D12*
X171907500Y-113102000D03*
D15*
X171407500Y-109352000D03*
D11*
X176907500Y-103452000D03*
D13*
X173632500Y-115302000D03*
X185182500Y-113102000D03*
D11*
X181907500Y-105552000D03*
X171907500Y-105552000D03*
%TD*%
D15*
%TO.C,S3*%
X163407500Y-109352000D03*
D12*
X162907500Y-113102000D03*
X157907500Y-115302000D03*
D14*
X157907500Y-109352000D03*
D12*
X152907500Y-113102000D03*
D15*
X152407500Y-109352000D03*
D11*
X157907500Y-103452000D03*
D13*
X154632500Y-115302000D03*
X166182500Y-113102000D03*
D11*
X162907500Y-105552000D03*
X152907500Y-105552000D03*
%TD*%
D16*
%TO.C,D15*%
X152000000Y-156808000D03*
D17*
X152000000Y-156808000D03*
D16*
X148700000Y-156808000D03*
D17*
X148700000Y-156808000D03*
%TD*%
D28*
%TO.C,GND1*%
X277674000Y-115050000D03*
X277674000Y-112650000D03*
D30*
X277674000Y-115850000D03*
D29*
X277674000Y-111850000D03*
%TD*%
D28*
%TO.C,GND2*%
X273458000Y-101436000D03*
X275858000Y-101436000D03*
D31*
X272658000Y-101436000D03*
D32*
X276658000Y-101436000D03*
%TD*%
D28*
%TO.C,RXI1*%
X286310000Y-109932000D03*
X286310000Y-107532000D03*
D30*
X286310000Y-110732000D03*
D29*
X286310000Y-106732000D03*
%TD*%
D15*
%TO.C,S5*%
X201407500Y-109352000D03*
D12*
X200907500Y-113102000D03*
X195907500Y-115302000D03*
D14*
X195907500Y-109352000D03*
D12*
X190907500Y-113102000D03*
D15*
X190407500Y-109352000D03*
D11*
X195907500Y-103452000D03*
D13*
X192632500Y-115302000D03*
X204182500Y-113102000D03*
D11*
X200907500Y-105552000D03*
X190907500Y-105552000D03*
%TD*%
D16*
%TO.C,D4*%
X189026000Y-118454000D03*
D17*
X189026000Y-118454000D03*
D16*
X185726000Y-118454000D03*
D17*
X185726000Y-118454000D03*
%TD*%
D16*
%TO.C,D5*%
X207568000Y-118962000D03*
D17*
X207568000Y-118962000D03*
D16*
X204268000Y-118962000D03*
D17*
X204268000Y-118962000D03*
%TD*%
D15*
%TO.C,S25*%
X212104000Y-166352000D03*
D12*
X211604000Y-170102000D03*
X206604000Y-172302000D03*
D14*
X206604000Y-166352000D03*
D12*
X201604000Y-170102000D03*
D15*
X201104000Y-166352000D03*
D11*
X206604000Y-160452000D03*
D13*
X203329000Y-172302000D03*
X214879000Y-170102000D03*
D11*
X211604000Y-162552000D03*
X201604000Y-162552000D03*
%TD*%
D26*
%TO.C,DRA4*%
X118032500Y-178367000D03*
D27*
X118032500Y-193607000D03*
D26*
X141832500Y-178367000D03*
D27*
X141832500Y-193607000D03*
%TD*%
D28*
%TO.C,SCL1*%
X278182000Y-131846000D03*
X278182000Y-129446000D03*
D30*
X278182000Y-132646000D03*
D29*
X278182000Y-128646000D03*
%TD*%
D15*
%TO.C,S7*%
X239407500Y-109352000D03*
D12*
X238907500Y-113102000D03*
X233907500Y-115302000D03*
D14*
X233907500Y-109352000D03*
D12*
X228907500Y-113102000D03*
D15*
X228407500Y-109352000D03*
D11*
X233907500Y-103452000D03*
D13*
X230632500Y-115302000D03*
X242182500Y-113102000D03*
D11*
X238907500Y-105552000D03*
X228907500Y-105552000D03*
%TD*%
D15*
%TO.C,S1*%
X125407500Y-109352000D03*
D12*
X124907500Y-113102000D03*
X119907500Y-115302000D03*
D14*
X119907500Y-109352000D03*
D12*
X114907500Y-113102000D03*
D15*
X114407500Y-109352000D03*
D11*
X119907500Y-103452000D03*
D13*
X116632500Y-115302000D03*
X128182500Y-113102000D03*
D11*
X124907500Y-105552000D03*
X114907500Y-105552000D03*
%TD*%
D28*
%TO.C,Bat+1*%
X286158000Y-101436000D03*
X288558000Y-101436000D03*
D31*
X285358000Y-101436000D03*
D32*
X289358000Y-101436000D03*
%TD*%
D16*
%TO.C,D30*%
X155246000Y-174462000D03*
D33*
X155246000Y-174462000D03*
D16*
X155246000Y-177762000D03*
D33*
X155246000Y-177762000D03*
%TD*%
D16*
%TO.C,D28*%
X267388000Y-176366000D03*
D21*
X267388000Y-176366000D03*
D16*
X270688000Y-176366000D03*
D21*
X270688000Y-176366000D03*
%TD*%
D15*
%TO.C,S12*%
X212054000Y-128352000D03*
D12*
X211554000Y-132102000D03*
X206554000Y-134302000D03*
D14*
X206554000Y-128352000D03*
D12*
X201554000Y-132102000D03*
D15*
X201054000Y-128352000D03*
D11*
X206554000Y-122452000D03*
D13*
X203279000Y-134302000D03*
X214829000Y-132102000D03*
D11*
X211554000Y-124552000D03*
X201554000Y-124552000D03*
%TD*%
D15*
%TO.C,S24*%
X193104000Y-166352000D03*
D12*
X192604000Y-170102000D03*
X187604000Y-172302000D03*
D14*
X187604000Y-166352000D03*
D12*
X182604000Y-170102000D03*
D15*
X182104000Y-166352000D03*
D11*
X187604000Y-160452000D03*
D13*
X184329000Y-172302000D03*
X195879000Y-170102000D03*
D11*
X192604000Y-162552000D03*
X182604000Y-162552000D03*
%TD*%
D16*
%TO.C,D12*%
X218490000Y-138012000D03*
D17*
X218490000Y-138012000D03*
D16*
X215190000Y-138012000D03*
D17*
X215190000Y-138012000D03*
%TD*%
D26*
%TO.C,DRA5*%
X215375500Y-178367000D03*
D27*
X215375500Y-193607000D03*
D26*
X239175500Y-178367000D03*
D27*
X239175500Y-193607000D03*
%TD*%
D34*
%TO.C,U1*%
X273356000Y-103595000D03*
D35*
X273356000Y-106135000D03*
X273356000Y-108675000D03*
X273356000Y-111215000D03*
X273356000Y-113755000D03*
X273356000Y-116295000D03*
X273356000Y-118835000D03*
X273356000Y-121375000D03*
X273356000Y-123915000D03*
X273356000Y-126455000D03*
X273356000Y-128995000D03*
X273356000Y-131535000D03*
X273356000Y-134075000D03*
X288596000Y-134075000D03*
X288596000Y-131535000D03*
X288596000Y-128995000D03*
X288596000Y-126455000D03*
X288596000Y-123915000D03*
X288596000Y-121375000D03*
X288596000Y-118835000D03*
X288596000Y-116295000D03*
X288596000Y-113755000D03*
X288596000Y-111215000D03*
X288596000Y-108675000D03*
X288596000Y-106135000D03*
X288596000Y-103595000D03*
%TD*%
D26*
%TO.C,DRA3*%
X122795000Y-159367000D03*
D27*
X122795000Y-174607000D03*
D26*
X146595000Y-159367000D03*
D27*
X146595000Y-174607000D03*
%TD*%
D16*
%TO.C,D17*%
X190424000Y-157062000D03*
D17*
X190424000Y-157062000D03*
D16*
X187124000Y-157062000D03*
D17*
X187124000Y-157062000D03*
%TD*%
D10*
%TO.C,M2*%
X114000000Y-190500000D03*
%TD*%
D26*
%TO.C,DRA1*%
X118032500Y-140367000D03*
D27*
X118032500Y-155607000D03*
D26*
X141832500Y-140367000D03*
D27*
X141832500Y-155607000D03*
%TD*%
D28*
%TO.C,P3*%
X285294000Y-129446000D03*
X285294000Y-131846000D03*
D29*
X285294000Y-128646000D03*
D30*
X285294000Y-132646000D03*
%TD*%
D16*
%TO.C,D14*%
X258242000Y-136996000D03*
D17*
X258242000Y-136996000D03*
D16*
X254942000Y-136996000D03*
D17*
X254942000Y-136996000D03*
%TD*%
D10*
%TO.C,M6*%
X206502000Y-143256000D03*
%TD*%
D16*
%TO.C,D20*%
X239956000Y-157062000D03*
D21*
X239956000Y-157062000D03*
D16*
X243256000Y-157062000D03*
D21*
X243256000Y-157062000D03*
%TD*%
D16*
%TO.C,D25*%
X208586000Y-177636000D03*
D17*
X208586000Y-177636000D03*
D16*
X205286000Y-177636000D03*
D17*
X205286000Y-177636000D03*
%TD*%
D16*
%TO.C,D22*%
X152800000Y-188000000D03*
D17*
X152800000Y-188000000D03*
D16*
X149500000Y-188000000D03*
D17*
X149500000Y-188000000D03*
%TD*%
D15*
%TO.C,S2*%
X144407500Y-109352000D03*
D12*
X143907500Y-113102000D03*
X138907500Y-115302000D03*
D14*
X138907500Y-109352000D03*
D12*
X133907500Y-113102000D03*
D15*
X133407500Y-109352000D03*
D11*
X138907500Y-103452000D03*
D13*
X135632500Y-115302000D03*
X147182500Y-113102000D03*
D11*
X143907500Y-105552000D03*
X133907500Y-105552000D03*
%TD*%
D16*
%TO.C,D3*%
X169850000Y-119216000D03*
D17*
X169850000Y-119216000D03*
D16*
X166550000Y-119216000D03*
D17*
X166550000Y-119216000D03*
%TD*%
D15*
%TO.C,S16*%
X164579000Y-147352000D03*
D12*
X164079000Y-151102000D03*
X159079000Y-153302000D03*
D14*
X159079000Y-147352000D03*
D12*
X154079000Y-151102000D03*
D15*
X153579000Y-147352000D03*
D11*
X159079000Y-141452000D03*
D13*
X155804000Y-153302000D03*
X167354000Y-151102000D03*
D11*
X164079000Y-143552000D03*
X154079000Y-143552000D03*
%TD*%
D15*
%TO.C,S21*%
X259579000Y-147352000D03*
D12*
X259079000Y-151102000D03*
X254079000Y-153302000D03*
D14*
X254079000Y-147352000D03*
D12*
X249079000Y-151102000D03*
D15*
X248579000Y-147352000D03*
D11*
X254079000Y-141452000D03*
D13*
X250804000Y-153302000D03*
X262354000Y-151102000D03*
D11*
X259079000Y-143552000D03*
X249079000Y-143552000D03*
%TD*%
D15*
%TO.C,S26*%
X231104000Y-166352000D03*
D12*
X230604000Y-170102000D03*
X225604000Y-172302000D03*
D14*
X225604000Y-166352000D03*
D12*
X220604000Y-170102000D03*
D15*
X220104000Y-166352000D03*
D11*
X225604000Y-160452000D03*
D13*
X222329000Y-172302000D03*
X233879000Y-170102000D03*
D11*
X230604000Y-162552000D03*
X220604000Y-162552000D03*
%TD*%
D16*
%TO.C,D21*%
X260784000Y-157316000D03*
D21*
X260784000Y-157316000D03*
D16*
X264084000Y-157316000D03*
D21*
X264084000Y-157316000D03*
%TD*%
D15*
%TO.C,S17*%
X183579000Y-147352000D03*
D12*
X183079000Y-151102000D03*
X178079000Y-153302000D03*
D14*
X178079000Y-147352000D03*
D12*
X173079000Y-151102000D03*
D15*
X172579000Y-147352000D03*
D11*
X178079000Y-141452000D03*
D13*
X174804000Y-153302000D03*
X186354000Y-151102000D03*
D11*
X183079000Y-143552000D03*
X173079000Y-143552000D03*
%TD*%
D28*
%TO.C,P2*%
X285294000Y-120880000D03*
X285294000Y-123280000D03*
D29*
X285294000Y-120080000D03*
D30*
X285294000Y-124080000D03*
%TD*%
D15*
%TO.C,S18*%
X202579000Y-147352000D03*
D12*
X202079000Y-151102000D03*
X197079000Y-153302000D03*
D14*
X197079000Y-147352000D03*
D12*
X192079000Y-151102000D03*
D15*
X191579000Y-147352000D03*
D11*
X197079000Y-141452000D03*
D13*
X193804000Y-153302000D03*
X205354000Y-151102000D03*
D11*
X202079000Y-143552000D03*
X192079000Y-143552000D03*
%TD*%
D28*
%TO.C,SDA1*%
X278182000Y-123210000D03*
X278182000Y-120810000D03*
D30*
X278182000Y-124010000D03*
D29*
X278182000Y-120010000D03*
%TD*%
D16*
%TO.C,D35*%
X128000000Y-103150000D03*
D18*
X128000000Y-103150000D03*
D16*
X128000000Y-99850000D03*
D18*
X128000000Y-99850000D03*
%TD*%
D10*
%TO.C,M8*%
X271000000Y-147500000D03*
%TD*%
D15*
%TO.C,S32*%
X232775500Y-185352000D03*
D12*
X232275500Y-189102000D03*
X227275500Y-191302000D03*
D14*
X227275500Y-185352000D03*
D12*
X222275500Y-189102000D03*
D15*
X221775500Y-185352000D03*
D11*
X227275500Y-179452000D03*
D13*
X224000500Y-191302000D03*
X235550500Y-189102000D03*
D11*
X232275500Y-181552000D03*
X222275500Y-181552000D03*
%TD*%
D15*
%TO.C,S29*%
X135432500Y-185352000D03*
D12*
X134932500Y-189102000D03*
X129932500Y-191302000D03*
D14*
X129932500Y-185352000D03*
D12*
X124932500Y-189102000D03*
D15*
X124432500Y-185352000D03*
D11*
X129932500Y-179452000D03*
D13*
X126657500Y-191302000D03*
X138207500Y-189102000D03*
D11*
X134932500Y-181552000D03*
X124932500Y-181552000D03*
%TD*%
D16*
%TO.C,D31*%
X179630000Y-177128000D03*
D21*
X179630000Y-177128000D03*
D16*
X182930000Y-177128000D03*
D21*
X182930000Y-177128000D03*
%TD*%
D15*
%TO.C,S23*%
X174104000Y-166352000D03*
D12*
X173604000Y-170102000D03*
X168604000Y-172302000D03*
D14*
X168604000Y-166352000D03*
D12*
X163604000Y-170102000D03*
D15*
X163104000Y-166352000D03*
D11*
X168604000Y-160452000D03*
D13*
X165329000Y-172302000D03*
X176879000Y-170102000D03*
D11*
X173604000Y-162552000D03*
X163604000Y-162552000D03*
%TD*%
D16*
%TO.C,D11*%
X199186000Y-138012000D03*
D17*
X199186000Y-138012000D03*
D16*
X195886000Y-138012000D03*
D17*
X195886000Y-138012000D03*
%TD*%
D15*
%TO.C,S14*%
X250054000Y-128352000D03*
D12*
X249554000Y-132102000D03*
X244554000Y-134302000D03*
D14*
X244554000Y-128352000D03*
D12*
X239554000Y-132102000D03*
D15*
X239054000Y-128352000D03*
D11*
X244554000Y-122452000D03*
D13*
X241279000Y-134302000D03*
X252829000Y-132102000D03*
D11*
X249554000Y-124552000D03*
X239554000Y-124552000D03*
%TD*%
D10*
%TO.C,M3*%
X158000000Y-161000000D03*
%TD*%
D16*
%TO.C,D32*%
X207700000Y-184000000D03*
D21*
X207700000Y-184000000D03*
D16*
X211000000Y-184000000D03*
D21*
X211000000Y-184000000D03*
%TD*%
D36*
%TO.C,SW1*%
X288628000Y-179196000D03*
X288628000Y-170996000D03*
D37*
X288628000Y-177096000D03*
D38*
X288628000Y-175096000D03*
X288628000Y-173096000D03*
%TD*%
D16*
%TO.C,D2*%
X150546000Y-118962000D03*
D17*
X150546000Y-118962000D03*
D16*
X147246000Y-118962000D03*
D17*
X147246000Y-118962000D03*
%TD*%
D39*
%TO.C,J1*%
X281194000Y-155724000D03*
X281194000Y-159724000D03*
X289094000Y-157724000D03*
X286694000Y-155724000D03*
X286694000Y-159724000D03*
%TD*%
D16*
%TO.C,D27*%
X251386000Y-176112000D03*
D21*
X251386000Y-176112000D03*
D16*
X254686000Y-176112000D03*
D21*
X254686000Y-176112000D03*
%TD*%
D15*
%TO.C,S27*%
X250104000Y-166352000D03*
D12*
X249604000Y-170102000D03*
X244604000Y-172302000D03*
D14*
X244604000Y-166352000D03*
D12*
X239604000Y-170102000D03*
D15*
X239104000Y-166352000D03*
D11*
X244604000Y-160452000D03*
D13*
X241329000Y-172302000D03*
X252879000Y-170102000D03*
D11*
X249604000Y-162552000D03*
X239604000Y-162552000D03*
%TD*%
D40*
%TO.C,R1*%
X266204000Y-120856000D03*
D25*
X261204000Y-120856000D03*
X263704000Y-120856000D03*
D41*
X269304000Y-128356000D03*
X258104000Y-128356000D03*
D25*
X261204000Y-135356000D03*
X266204000Y-135356000D03*
%TD*%
D10*
%TO.C,M4*%
X159000000Y-122000000D03*
%TD*%
D28*
%TO.C,COM_SELECT1*%
X283872000Y-148172000D03*
X286272000Y-148172000D03*
D31*
X283072000Y-148172000D03*
D32*
X287072000Y-148172000D03*
%TD*%
D15*
%TO.C,S28*%
X269104000Y-166352000D03*
D12*
X268604000Y-170102000D03*
X263604000Y-172302000D03*
D14*
X263604000Y-166352000D03*
D12*
X258604000Y-170102000D03*
D15*
X258104000Y-166352000D03*
D11*
X263604000Y-160452000D03*
D13*
X260329000Y-172302000D03*
X271879000Y-170102000D03*
D11*
X268604000Y-162552000D03*
X258604000Y-162552000D03*
%TD*%
D16*
%TO.C,D29*%
X152150000Y-190500000D03*
D17*
X152150000Y-190500000D03*
D16*
X148850000Y-190500000D03*
D17*
X148850000Y-190500000D03*
%TD*%
D16*
%TO.C,D13*%
X237032000Y-138012000D03*
D17*
X237032000Y-138012000D03*
D16*
X233732000Y-138012000D03*
D17*
X233732000Y-138012000D03*
%TD*%
D28*
%TO.C,RXI2*%
X276912000Y-107208000D03*
X276912000Y-104808000D03*
D30*
X276912000Y-108008000D03*
D29*
X276912000Y-104008000D03*
%TD*%
D15*
%TO.C,S15*%
X135432500Y-147352000D03*
D12*
X134932500Y-151102000D03*
X129932500Y-153302000D03*
D14*
X129932500Y-147352000D03*
D12*
X124932500Y-151102000D03*
D15*
X124432500Y-147352000D03*
D11*
X129932500Y-141452000D03*
D13*
X126657500Y-153302000D03*
X138207500Y-151102000D03*
D11*
X134932500Y-143552000D03*
X124932500Y-143552000D03*
%TD*%
D15*
%TO.C,S22*%
X140195000Y-166352000D03*
D12*
X139695000Y-170102000D03*
X134695000Y-172302000D03*
D14*
X134695000Y-166352000D03*
D12*
X129695000Y-170102000D03*
D15*
X129195000Y-166352000D03*
D11*
X134695000Y-160452000D03*
D13*
X131420000Y-172302000D03*
X142970000Y-170102000D03*
D11*
X139695000Y-162552000D03*
X129695000Y-162552000D03*
%TD*%
D16*
%TO.C,D19*%
X221668000Y-156554000D03*
D21*
X221668000Y-156554000D03*
D16*
X224968000Y-156554000D03*
D21*
X224968000Y-156554000D03*
%TD*%
D15*
%TO.C,S19*%
X221579000Y-147352000D03*
D12*
X221079000Y-151102000D03*
X216079000Y-153302000D03*
D14*
X216079000Y-147352000D03*
D12*
X211079000Y-151102000D03*
D15*
X210579000Y-147352000D03*
D11*
X216079000Y-141452000D03*
D13*
X212804000Y-153302000D03*
X224354000Y-151102000D03*
D11*
X221079000Y-143552000D03*
X211079000Y-143552000D03*
%TD*%
D15*
%TO.C,S9*%
X155054000Y-128352000D03*
D12*
X154554000Y-132102000D03*
X149554000Y-134302000D03*
D14*
X149554000Y-128352000D03*
D12*
X144554000Y-132102000D03*
D15*
X144054000Y-128352000D03*
D11*
X149554000Y-122452000D03*
D13*
X146279000Y-134302000D03*
X157829000Y-132102000D03*
D11*
X154554000Y-124552000D03*
X144554000Y-124552000D03*
%TD*%
D28*
%TO.C,TXD1*%
X283516000Y-107208000D03*
X283516000Y-104808000D03*
D30*
X283516000Y-108008000D03*
D29*
X283516000Y-104008000D03*
%TD*%
D16*
%TO.C,D18*%
X202110000Y-156808000D03*
D21*
X202110000Y-156808000D03*
D16*
X205410000Y-156808000D03*
D21*
X205410000Y-156808000D03*
%TD*%
D15*
%TO.C,S13*%
X231054000Y-128352000D03*
D12*
X230554000Y-132102000D03*
X225554000Y-134302000D03*
D14*
X225554000Y-128352000D03*
D12*
X220554000Y-132102000D03*
D15*
X220054000Y-128352000D03*
D11*
X225554000Y-122452000D03*
D13*
X222279000Y-134302000D03*
X233829000Y-132102000D03*
D11*
X230554000Y-124552000D03*
X220554000Y-124552000D03*
%TD*%
D16*
%TO.C,D1*%
X131116000Y-118708000D03*
D17*
X131116000Y-118708000D03*
D16*
X127816000Y-118708000D03*
D17*
X127816000Y-118708000D03*
%TD*%
D16*
%TO.C,D8*%
X148150000Y-143500000D03*
D17*
X148150000Y-143500000D03*
D16*
X144850000Y-143500000D03*
D17*
X144850000Y-143500000D03*
%TD*%
D28*
%TO.C,TXD2*%
X280214000Y-107208000D03*
X280214000Y-104808000D03*
D30*
X280214000Y-108008000D03*
D29*
X280214000Y-104008000D03*
%TD*%
D19*
%TO.C,R2*%
X264974000Y-105500000D03*
D20*
X264974000Y-113120000D03*
%TD*%
D15*
%TO.C,S10*%
X174054000Y-128352000D03*
D12*
X173554000Y-132102000D03*
X168554000Y-134302000D03*
D14*
X168554000Y-128352000D03*
D12*
X163554000Y-132102000D03*
D15*
X163054000Y-128352000D03*
D11*
X168554000Y-122452000D03*
D13*
X165279000Y-134302000D03*
X176829000Y-132102000D03*
D11*
X173554000Y-124552000D03*
X163554000Y-124552000D03*
%TD*%
D15*
%TO.C,S30*%
X169841500Y-185352000D03*
D12*
X169341500Y-189102000D03*
X164341500Y-191302000D03*
D14*
X164341500Y-185352000D03*
D12*
X159341500Y-189102000D03*
D15*
X158841500Y-185352000D03*
D11*
X164341500Y-179452000D03*
D13*
X161066500Y-191302000D03*
X172616500Y-189102000D03*
D11*
X169341500Y-181552000D03*
X159341500Y-181552000D03*
%TD*%
M02*
