%TF.GenerationSoftware,KiCad,Pcbnew,8.0.4*%
%TF.CreationDate,2024-11-08T15:10:11-07:00*%
%TF.ProjectId,simple_split_MX,73696d70-6c65-45f7-9370-6c69745f4d58,v1.0.0*%
%TF.SameCoordinates,Original*%
%TF.FileFunction,Legend,Bot*%
%TF.FilePolarity,Positive*%
%FSLAX46Y46*%
G04 Gerber Fmt 4.6, Leading zero omitted, Abs format (unit mm)*
G04 Created by KiCad (PCBNEW 8.0.4) date 2024-11-08 15:10:11*
%MOMM*%
%LPD*%
G01*
G04 APERTURE LIST*
%ADD10C,0.150000*%
%ADD11C,0.100000*%
%ADD12C,0.120000*%
G04 APERTURE END LIST*
D10*
X260312262Y-98986009D02*
X259978929Y-98986009D01*
X259836072Y-99509819D02*
X260312262Y-99509819D01*
X260312262Y-99509819D02*
X260312262Y-98509819D01*
X260312262Y-98509819D02*
X259836072Y-98509819D01*
X259502738Y-99509819D02*
X258978929Y-98843152D01*
X259502738Y-98843152D02*
X258978929Y-99509819D01*
X258740833Y-98843152D02*
X258359881Y-98843152D01*
X258597976Y-98509819D02*
X258597976Y-99366961D01*
X258597976Y-99366961D02*
X258550357Y-99462200D01*
X258550357Y-99462200D02*
X258455119Y-99509819D01*
X258455119Y-99509819D02*
X258359881Y-99509819D01*
X258026547Y-99509819D02*
X258026547Y-98843152D01*
X258026547Y-99033628D02*
X257978928Y-98938390D01*
X257978928Y-98938390D02*
X257931309Y-98890771D01*
X257931309Y-98890771D02*
X257836071Y-98843152D01*
X257836071Y-98843152D02*
X257740833Y-98843152D01*
X256978928Y-99509819D02*
X256978928Y-98986009D01*
X256978928Y-98986009D02*
X257026547Y-98890771D01*
X257026547Y-98890771D02*
X257121785Y-98843152D01*
X257121785Y-98843152D02*
X257312261Y-98843152D01*
X257312261Y-98843152D02*
X257407499Y-98890771D01*
X256978928Y-99462200D02*
X257074166Y-99509819D01*
X257074166Y-99509819D02*
X257312261Y-99509819D01*
X257312261Y-99509819D02*
X257407499Y-99462200D01*
X257407499Y-99462200D02*
X257455118Y-99366961D01*
X257455118Y-99366961D02*
X257455118Y-99271723D01*
X257455118Y-99271723D02*
X257407499Y-99176485D01*
X257407499Y-99176485D02*
X257312261Y-99128866D01*
X257312261Y-99128866D02*
X257074166Y-99128866D01*
X257074166Y-99128866D02*
X256978928Y-99081247D01*
X256740833Y-99605057D02*
X255978928Y-99605057D01*
X255407499Y-98986009D02*
X255740832Y-98986009D01*
X255740832Y-99509819D02*
X255740832Y-98509819D01*
X255740832Y-98509819D02*
X255264642Y-98509819D01*
X254455118Y-98843152D02*
X254455118Y-99509819D01*
X254883689Y-98843152D02*
X254883689Y-99366961D01*
X254883689Y-99366961D02*
X254836070Y-99462200D01*
X254836070Y-99462200D02*
X254740832Y-99509819D01*
X254740832Y-99509819D02*
X254597975Y-99509819D01*
X254597975Y-99509819D02*
X254502737Y-99462200D01*
X254502737Y-99462200D02*
X254455118Y-99414580D01*
X253978927Y-98843152D02*
X253978927Y-99509819D01*
X253978927Y-98938390D02*
X253931308Y-98890771D01*
X253931308Y-98890771D02*
X253836070Y-98843152D01*
X253836070Y-98843152D02*
X253693213Y-98843152D01*
X253693213Y-98843152D02*
X253597975Y-98890771D01*
X253597975Y-98890771D02*
X253550356Y-98986009D01*
X253550356Y-98986009D02*
X253550356Y-99509819D01*
X252645594Y-99462200D02*
X252740832Y-99509819D01*
X252740832Y-99509819D02*
X252931308Y-99509819D01*
X252931308Y-99509819D02*
X253026546Y-99462200D01*
X253026546Y-99462200D02*
X253074165Y-99414580D01*
X253074165Y-99414580D02*
X253121784Y-99319342D01*
X253121784Y-99319342D02*
X253121784Y-99033628D01*
X253121784Y-99033628D02*
X253074165Y-98938390D01*
X253074165Y-98938390D02*
X253026546Y-98890771D01*
X253026546Y-98890771D02*
X252931308Y-98843152D01*
X252931308Y-98843152D02*
X252740832Y-98843152D01*
X252740832Y-98843152D02*
X252645594Y-98890771D01*
X252359879Y-98843152D02*
X251978927Y-98843152D01*
X252217022Y-98509819D02*
X252217022Y-99366961D01*
X252217022Y-99366961D02*
X252169403Y-99462200D01*
X252169403Y-99462200D02*
X252074165Y-99509819D01*
X252074165Y-99509819D02*
X251978927Y-99509819D01*
X251645593Y-99509819D02*
X251645593Y-98843152D01*
X251645593Y-98509819D02*
X251693212Y-98557438D01*
X251693212Y-98557438D02*
X251645593Y-98605057D01*
X251645593Y-98605057D02*
X251597974Y-98557438D01*
X251597974Y-98557438D02*
X251645593Y-98509819D01*
X251645593Y-98509819D02*
X251645593Y-98605057D01*
X251026546Y-99509819D02*
X251121784Y-99462200D01*
X251121784Y-99462200D02*
X251169403Y-99414580D01*
X251169403Y-99414580D02*
X251217022Y-99319342D01*
X251217022Y-99319342D02*
X251217022Y-99033628D01*
X251217022Y-99033628D02*
X251169403Y-98938390D01*
X251169403Y-98938390D02*
X251121784Y-98890771D01*
X251121784Y-98890771D02*
X251026546Y-98843152D01*
X251026546Y-98843152D02*
X250883689Y-98843152D01*
X250883689Y-98843152D02*
X250788451Y-98890771D01*
X250788451Y-98890771D02*
X250740832Y-98938390D01*
X250740832Y-98938390D02*
X250693213Y-99033628D01*
X250693213Y-99033628D02*
X250693213Y-99319342D01*
X250693213Y-99319342D02*
X250740832Y-99414580D01*
X250740832Y-99414580D02*
X250788451Y-99462200D01*
X250788451Y-99462200D02*
X250883689Y-99509819D01*
X250883689Y-99509819D02*
X251026546Y-99509819D01*
X250264641Y-98843152D02*
X250264641Y-99509819D01*
X250264641Y-98938390D02*
X250217022Y-98890771D01*
X250217022Y-98890771D02*
X250121784Y-98843152D01*
X250121784Y-98843152D02*
X249978927Y-98843152D01*
X249978927Y-98843152D02*
X249883689Y-98890771D01*
X249883689Y-98890771D02*
X249836070Y-98986009D01*
X249836070Y-98986009D02*
X249836070Y-99509819D01*
X249597975Y-99605057D02*
X248836070Y-99605057D01*
X248597974Y-99509819D02*
X248597974Y-98509819D01*
X248026546Y-99509819D02*
X248455117Y-98938390D01*
X248026546Y-98509819D02*
X248597974Y-99081247D01*
X247217022Y-99462200D02*
X247312260Y-99509819D01*
X247312260Y-99509819D02*
X247502736Y-99509819D01*
X247502736Y-99509819D02*
X247597974Y-99462200D01*
X247597974Y-99462200D02*
X247645593Y-99366961D01*
X247645593Y-99366961D02*
X247645593Y-98986009D01*
X247645593Y-98986009D02*
X247597974Y-98890771D01*
X247597974Y-98890771D02*
X247502736Y-98843152D01*
X247502736Y-98843152D02*
X247312260Y-98843152D01*
X247312260Y-98843152D02*
X247217022Y-98890771D01*
X247217022Y-98890771D02*
X247169403Y-98986009D01*
X247169403Y-98986009D02*
X247169403Y-99081247D01*
X247169403Y-99081247D02*
X247645593Y-99176485D01*
X246836069Y-98843152D02*
X246597974Y-99509819D01*
X246359879Y-98843152D02*
X246597974Y-99509819D01*
X246597974Y-99509819D02*
X246693212Y-99747914D01*
X246693212Y-99747914D02*
X246740831Y-99795533D01*
X246740831Y-99795533D02*
X246836069Y-99843152D01*
X245455117Y-99509819D02*
X246026545Y-99509819D01*
X245740831Y-99509819D02*
X245740831Y-98509819D01*
X245740831Y-98509819D02*
X245836069Y-98652676D01*
X245836069Y-98652676D02*
X245931307Y-98747914D01*
X245931307Y-98747914D02*
X246026545Y-98795533D01*
X121145594Y-99462200D02*
X121002737Y-99509819D01*
X121002737Y-99509819D02*
X120764642Y-99509819D01*
X120764642Y-99509819D02*
X120669404Y-99462200D01*
X120669404Y-99462200D02*
X120621785Y-99414580D01*
X120621785Y-99414580D02*
X120574166Y-99319342D01*
X120574166Y-99319342D02*
X120574166Y-99224104D01*
X120574166Y-99224104D02*
X120621785Y-99128866D01*
X120621785Y-99128866D02*
X120669404Y-99081247D01*
X120669404Y-99081247D02*
X120764642Y-99033628D01*
X120764642Y-99033628D02*
X120955118Y-98986009D01*
X120955118Y-98986009D02*
X121050356Y-98938390D01*
X121050356Y-98938390D02*
X121097975Y-98890771D01*
X121097975Y-98890771D02*
X121145594Y-98795533D01*
X121145594Y-98795533D02*
X121145594Y-98700295D01*
X121145594Y-98700295D02*
X121097975Y-98605057D01*
X121097975Y-98605057D02*
X121050356Y-98557438D01*
X121050356Y-98557438D02*
X120955118Y-98509819D01*
X120955118Y-98509819D02*
X120717023Y-98509819D01*
X120717023Y-98509819D02*
X120574166Y-98557438D01*
X120240832Y-98509819D02*
X119621785Y-98509819D01*
X119621785Y-98509819D02*
X119955118Y-98890771D01*
X119955118Y-98890771D02*
X119812261Y-98890771D01*
X119812261Y-98890771D02*
X119717023Y-98938390D01*
X119717023Y-98938390D02*
X119669404Y-98986009D01*
X119669404Y-98986009D02*
X119621785Y-99081247D01*
X119621785Y-99081247D02*
X119621785Y-99319342D01*
X119621785Y-99319342D02*
X119669404Y-99414580D01*
X119669404Y-99414580D02*
X119717023Y-99462200D01*
X119717023Y-99462200D02*
X119812261Y-99509819D01*
X119812261Y-99509819D02*
X120097975Y-99509819D01*
X120097975Y-99509819D02*
X120193213Y-99462200D01*
X120193213Y-99462200D02*
X120240832Y-99414580D01*
X118717023Y-98509819D02*
X119193213Y-98509819D01*
X119193213Y-98509819D02*
X119240832Y-98986009D01*
X119240832Y-98986009D02*
X119193213Y-98938390D01*
X119193213Y-98938390D02*
X119097975Y-98890771D01*
X119097975Y-98890771D02*
X118859880Y-98890771D01*
X118859880Y-98890771D02*
X118764642Y-98938390D01*
X118764642Y-98938390D02*
X118717023Y-98986009D01*
X118717023Y-98986009D02*
X118669404Y-99081247D01*
X118669404Y-99081247D02*
X118669404Y-99319342D01*
X118669404Y-99319342D02*
X118717023Y-99414580D01*
X118717023Y-99414580D02*
X118764642Y-99462200D01*
X118764642Y-99462200D02*
X118859880Y-99509819D01*
X118859880Y-99509819D02*
X119097975Y-99509819D01*
X119097975Y-99509819D02*
X119193213Y-99462200D01*
X119193213Y-99462200D02*
X119240832Y-99414580D01*
X254145594Y-118014200D02*
X254002737Y-118061819D01*
X254002737Y-118061819D02*
X253764642Y-118061819D01*
X253764642Y-118061819D02*
X253669404Y-118014200D01*
X253669404Y-118014200D02*
X253621785Y-117966580D01*
X253621785Y-117966580D02*
X253574166Y-117871342D01*
X253574166Y-117871342D02*
X253574166Y-117776104D01*
X253574166Y-117776104D02*
X253621785Y-117680866D01*
X253621785Y-117680866D02*
X253669404Y-117633247D01*
X253669404Y-117633247D02*
X253764642Y-117585628D01*
X253764642Y-117585628D02*
X253955118Y-117538009D01*
X253955118Y-117538009D02*
X254050356Y-117490390D01*
X254050356Y-117490390D02*
X254097975Y-117442771D01*
X254097975Y-117442771D02*
X254145594Y-117347533D01*
X254145594Y-117347533D02*
X254145594Y-117252295D01*
X254145594Y-117252295D02*
X254097975Y-117157057D01*
X254097975Y-117157057D02*
X254050356Y-117109438D01*
X254050356Y-117109438D02*
X253955118Y-117061819D01*
X253955118Y-117061819D02*
X253717023Y-117061819D01*
X253717023Y-117061819D02*
X253574166Y-117109438D01*
X253240832Y-117061819D02*
X252621785Y-117061819D01*
X252621785Y-117061819D02*
X252955118Y-117442771D01*
X252955118Y-117442771D02*
X252812261Y-117442771D01*
X252812261Y-117442771D02*
X252717023Y-117490390D01*
X252717023Y-117490390D02*
X252669404Y-117538009D01*
X252669404Y-117538009D02*
X252621785Y-117633247D01*
X252621785Y-117633247D02*
X252621785Y-117871342D01*
X252621785Y-117871342D02*
X252669404Y-117966580D01*
X252669404Y-117966580D02*
X252717023Y-118014200D01*
X252717023Y-118014200D02*
X252812261Y-118061819D01*
X252812261Y-118061819D02*
X253097975Y-118061819D01*
X253097975Y-118061819D02*
X253193213Y-118014200D01*
X253193213Y-118014200D02*
X253240832Y-117966580D01*
X252288451Y-117061819D02*
X251669404Y-117061819D01*
X251669404Y-117061819D02*
X252002737Y-117442771D01*
X252002737Y-117442771D02*
X251859880Y-117442771D01*
X251859880Y-117442771D02*
X251764642Y-117490390D01*
X251764642Y-117490390D02*
X251717023Y-117538009D01*
X251717023Y-117538009D02*
X251669404Y-117633247D01*
X251669404Y-117633247D02*
X251669404Y-117871342D01*
X251669404Y-117871342D02*
X251717023Y-117966580D01*
X251717023Y-117966580D02*
X251764642Y-118014200D01*
X251764642Y-118014200D02*
X251859880Y-118061819D01*
X251859880Y-118061819D02*
X252145594Y-118061819D01*
X252145594Y-118061819D02*
X252240832Y-118014200D01*
X252240832Y-118014200D02*
X252288451Y-117966580D01*
X228513594Y-194014200D02*
X228370737Y-194061819D01*
X228370737Y-194061819D02*
X228132642Y-194061819D01*
X228132642Y-194061819D02*
X228037404Y-194014200D01*
X228037404Y-194014200D02*
X227989785Y-193966580D01*
X227989785Y-193966580D02*
X227942166Y-193871342D01*
X227942166Y-193871342D02*
X227942166Y-193776104D01*
X227942166Y-193776104D02*
X227989785Y-193680866D01*
X227989785Y-193680866D02*
X228037404Y-193633247D01*
X228037404Y-193633247D02*
X228132642Y-193585628D01*
X228132642Y-193585628D02*
X228323118Y-193538009D01*
X228323118Y-193538009D02*
X228418356Y-193490390D01*
X228418356Y-193490390D02*
X228465975Y-193442771D01*
X228465975Y-193442771D02*
X228513594Y-193347533D01*
X228513594Y-193347533D02*
X228513594Y-193252295D01*
X228513594Y-193252295D02*
X228465975Y-193157057D01*
X228465975Y-193157057D02*
X228418356Y-193109438D01*
X228418356Y-193109438D02*
X228323118Y-193061819D01*
X228323118Y-193061819D02*
X228085023Y-193061819D01*
X228085023Y-193061819D02*
X227942166Y-193109438D01*
X227608832Y-193061819D02*
X226989785Y-193061819D01*
X226989785Y-193061819D02*
X227323118Y-193442771D01*
X227323118Y-193442771D02*
X227180261Y-193442771D01*
X227180261Y-193442771D02*
X227085023Y-193490390D01*
X227085023Y-193490390D02*
X227037404Y-193538009D01*
X227037404Y-193538009D02*
X226989785Y-193633247D01*
X226989785Y-193633247D02*
X226989785Y-193871342D01*
X226989785Y-193871342D02*
X227037404Y-193966580D01*
X227037404Y-193966580D02*
X227085023Y-194014200D01*
X227085023Y-194014200D02*
X227180261Y-194061819D01*
X227180261Y-194061819D02*
X227465975Y-194061819D01*
X227465975Y-194061819D02*
X227561213Y-194014200D01*
X227561213Y-194014200D02*
X227608832Y-193966580D01*
X226608832Y-193157057D02*
X226561213Y-193109438D01*
X226561213Y-193109438D02*
X226465975Y-193061819D01*
X226465975Y-193061819D02*
X226227880Y-193061819D01*
X226227880Y-193061819D02*
X226132642Y-193109438D01*
X226132642Y-193109438D02*
X226085023Y-193157057D01*
X226085023Y-193157057D02*
X226037404Y-193252295D01*
X226037404Y-193252295D02*
X226037404Y-193347533D01*
X226037404Y-193347533D02*
X226085023Y-193490390D01*
X226085023Y-193490390D02*
X226656451Y-194061819D01*
X226656451Y-194061819D02*
X226037404Y-194061819D01*
X189963594Y-194014200D02*
X189820737Y-194061819D01*
X189820737Y-194061819D02*
X189582642Y-194061819D01*
X189582642Y-194061819D02*
X189487404Y-194014200D01*
X189487404Y-194014200D02*
X189439785Y-193966580D01*
X189439785Y-193966580D02*
X189392166Y-193871342D01*
X189392166Y-193871342D02*
X189392166Y-193776104D01*
X189392166Y-193776104D02*
X189439785Y-193680866D01*
X189439785Y-193680866D02*
X189487404Y-193633247D01*
X189487404Y-193633247D02*
X189582642Y-193585628D01*
X189582642Y-193585628D02*
X189773118Y-193538009D01*
X189773118Y-193538009D02*
X189868356Y-193490390D01*
X189868356Y-193490390D02*
X189915975Y-193442771D01*
X189915975Y-193442771D02*
X189963594Y-193347533D01*
X189963594Y-193347533D02*
X189963594Y-193252295D01*
X189963594Y-193252295D02*
X189915975Y-193157057D01*
X189915975Y-193157057D02*
X189868356Y-193109438D01*
X189868356Y-193109438D02*
X189773118Y-193061819D01*
X189773118Y-193061819D02*
X189535023Y-193061819D01*
X189535023Y-193061819D02*
X189392166Y-193109438D01*
X189058832Y-193061819D02*
X188439785Y-193061819D01*
X188439785Y-193061819D02*
X188773118Y-193442771D01*
X188773118Y-193442771D02*
X188630261Y-193442771D01*
X188630261Y-193442771D02*
X188535023Y-193490390D01*
X188535023Y-193490390D02*
X188487404Y-193538009D01*
X188487404Y-193538009D02*
X188439785Y-193633247D01*
X188439785Y-193633247D02*
X188439785Y-193871342D01*
X188439785Y-193871342D02*
X188487404Y-193966580D01*
X188487404Y-193966580D02*
X188535023Y-194014200D01*
X188535023Y-194014200D02*
X188630261Y-194061819D01*
X188630261Y-194061819D02*
X188915975Y-194061819D01*
X188915975Y-194061819D02*
X189011213Y-194014200D01*
X189011213Y-194014200D02*
X189058832Y-193966580D01*
X187487404Y-194061819D02*
X188058832Y-194061819D01*
X187773118Y-194061819D02*
X187773118Y-193061819D01*
X187773118Y-193061819D02*
X187868356Y-193204676D01*
X187868356Y-193204676D02*
X187963594Y-193299914D01*
X187963594Y-193299914D02*
X188058832Y-193347533D01*
X165579594Y-194014200D02*
X165436737Y-194061819D01*
X165436737Y-194061819D02*
X165198642Y-194061819D01*
X165198642Y-194061819D02*
X165103404Y-194014200D01*
X165103404Y-194014200D02*
X165055785Y-193966580D01*
X165055785Y-193966580D02*
X165008166Y-193871342D01*
X165008166Y-193871342D02*
X165008166Y-193776104D01*
X165008166Y-193776104D02*
X165055785Y-193680866D01*
X165055785Y-193680866D02*
X165103404Y-193633247D01*
X165103404Y-193633247D02*
X165198642Y-193585628D01*
X165198642Y-193585628D02*
X165389118Y-193538009D01*
X165389118Y-193538009D02*
X165484356Y-193490390D01*
X165484356Y-193490390D02*
X165531975Y-193442771D01*
X165531975Y-193442771D02*
X165579594Y-193347533D01*
X165579594Y-193347533D02*
X165579594Y-193252295D01*
X165579594Y-193252295D02*
X165531975Y-193157057D01*
X165531975Y-193157057D02*
X165484356Y-193109438D01*
X165484356Y-193109438D02*
X165389118Y-193061819D01*
X165389118Y-193061819D02*
X165151023Y-193061819D01*
X165151023Y-193061819D02*
X165008166Y-193109438D01*
X164674832Y-193061819D02*
X164055785Y-193061819D01*
X164055785Y-193061819D02*
X164389118Y-193442771D01*
X164389118Y-193442771D02*
X164246261Y-193442771D01*
X164246261Y-193442771D02*
X164151023Y-193490390D01*
X164151023Y-193490390D02*
X164103404Y-193538009D01*
X164103404Y-193538009D02*
X164055785Y-193633247D01*
X164055785Y-193633247D02*
X164055785Y-193871342D01*
X164055785Y-193871342D02*
X164103404Y-193966580D01*
X164103404Y-193966580D02*
X164151023Y-194014200D01*
X164151023Y-194014200D02*
X164246261Y-194061819D01*
X164246261Y-194061819D02*
X164531975Y-194061819D01*
X164531975Y-194061819D02*
X164627213Y-194014200D01*
X164627213Y-194014200D02*
X164674832Y-193966580D01*
X163436737Y-193061819D02*
X163341499Y-193061819D01*
X163341499Y-193061819D02*
X163246261Y-193109438D01*
X163246261Y-193109438D02*
X163198642Y-193157057D01*
X163198642Y-193157057D02*
X163151023Y-193252295D01*
X163151023Y-193252295D02*
X163103404Y-193442771D01*
X163103404Y-193442771D02*
X163103404Y-193680866D01*
X163103404Y-193680866D02*
X163151023Y-193871342D01*
X163151023Y-193871342D02*
X163198642Y-193966580D01*
X163198642Y-193966580D02*
X163246261Y-194014200D01*
X163246261Y-194014200D02*
X163341499Y-194061819D01*
X163341499Y-194061819D02*
X163436737Y-194061819D01*
X163436737Y-194061819D02*
X163531975Y-194014200D01*
X163531975Y-194014200D02*
X163579594Y-193966580D01*
X163579594Y-193966580D02*
X163627213Y-193871342D01*
X163627213Y-193871342D02*
X163674832Y-193680866D01*
X163674832Y-193680866D02*
X163674832Y-193442771D01*
X163674832Y-193442771D02*
X163627213Y-193252295D01*
X163627213Y-193252295D02*
X163579594Y-193157057D01*
X163579594Y-193157057D02*
X163531975Y-193109438D01*
X163531975Y-193109438D02*
X163436737Y-193061819D01*
X131170594Y-194014200D02*
X131027737Y-194061819D01*
X131027737Y-194061819D02*
X130789642Y-194061819D01*
X130789642Y-194061819D02*
X130694404Y-194014200D01*
X130694404Y-194014200D02*
X130646785Y-193966580D01*
X130646785Y-193966580D02*
X130599166Y-193871342D01*
X130599166Y-193871342D02*
X130599166Y-193776104D01*
X130599166Y-193776104D02*
X130646785Y-193680866D01*
X130646785Y-193680866D02*
X130694404Y-193633247D01*
X130694404Y-193633247D02*
X130789642Y-193585628D01*
X130789642Y-193585628D02*
X130980118Y-193538009D01*
X130980118Y-193538009D02*
X131075356Y-193490390D01*
X131075356Y-193490390D02*
X131122975Y-193442771D01*
X131122975Y-193442771D02*
X131170594Y-193347533D01*
X131170594Y-193347533D02*
X131170594Y-193252295D01*
X131170594Y-193252295D02*
X131122975Y-193157057D01*
X131122975Y-193157057D02*
X131075356Y-193109438D01*
X131075356Y-193109438D02*
X130980118Y-193061819D01*
X130980118Y-193061819D02*
X130742023Y-193061819D01*
X130742023Y-193061819D02*
X130599166Y-193109438D01*
X130218213Y-193157057D02*
X130170594Y-193109438D01*
X130170594Y-193109438D02*
X130075356Y-193061819D01*
X130075356Y-193061819D02*
X129837261Y-193061819D01*
X129837261Y-193061819D02*
X129742023Y-193109438D01*
X129742023Y-193109438D02*
X129694404Y-193157057D01*
X129694404Y-193157057D02*
X129646785Y-193252295D01*
X129646785Y-193252295D02*
X129646785Y-193347533D01*
X129646785Y-193347533D02*
X129694404Y-193490390D01*
X129694404Y-193490390D02*
X130265832Y-194061819D01*
X130265832Y-194061819D02*
X129646785Y-194061819D01*
X129170594Y-194061819D02*
X128980118Y-194061819D01*
X128980118Y-194061819D02*
X128884880Y-194014200D01*
X128884880Y-194014200D02*
X128837261Y-193966580D01*
X128837261Y-193966580D02*
X128742023Y-193823723D01*
X128742023Y-193823723D02*
X128694404Y-193633247D01*
X128694404Y-193633247D02*
X128694404Y-193252295D01*
X128694404Y-193252295D02*
X128742023Y-193157057D01*
X128742023Y-193157057D02*
X128789642Y-193109438D01*
X128789642Y-193109438D02*
X128884880Y-193061819D01*
X128884880Y-193061819D02*
X129075356Y-193061819D01*
X129075356Y-193061819D02*
X129170594Y-193109438D01*
X129170594Y-193109438D02*
X129218213Y-193157057D01*
X129218213Y-193157057D02*
X129265832Y-193252295D01*
X129265832Y-193252295D02*
X129265832Y-193490390D01*
X129265832Y-193490390D02*
X129218213Y-193585628D01*
X129218213Y-193585628D02*
X129170594Y-193633247D01*
X129170594Y-193633247D02*
X129075356Y-193680866D01*
X129075356Y-193680866D02*
X128884880Y-193680866D01*
X128884880Y-193680866D02*
X128789642Y-193633247D01*
X128789642Y-193633247D02*
X128742023Y-193585628D01*
X128742023Y-193585628D02*
X128694404Y-193490390D01*
X264842094Y-175014200D02*
X264699237Y-175061819D01*
X264699237Y-175061819D02*
X264461142Y-175061819D01*
X264461142Y-175061819D02*
X264365904Y-175014200D01*
X264365904Y-175014200D02*
X264318285Y-174966580D01*
X264318285Y-174966580D02*
X264270666Y-174871342D01*
X264270666Y-174871342D02*
X264270666Y-174776104D01*
X264270666Y-174776104D02*
X264318285Y-174680866D01*
X264318285Y-174680866D02*
X264365904Y-174633247D01*
X264365904Y-174633247D02*
X264461142Y-174585628D01*
X264461142Y-174585628D02*
X264651618Y-174538009D01*
X264651618Y-174538009D02*
X264746856Y-174490390D01*
X264746856Y-174490390D02*
X264794475Y-174442771D01*
X264794475Y-174442771D02*
X264842094Y-174347533D01*
X264842094Y-174347533D02*
X264842094Y-174252295D01*
X264842094Y-174252295D02*
X264794475Y-174157057D01*
X264794475Y-174157057D02*
X264746856Y-174109438D01*
X264746856Y-174109438D02*
X264651618Y-174061819D01*
X264651618Y-174061819D02*
X264413523Y-174061819D01*
X264413523Y-174061819D02*
X264270666Y-174109438D01*
X263889713Y-174157057D02*
X263842094Y-174109438D01*
X263842094Y-174109438D02*
X263746856Y-174061819D01*
X263746856Y-174061819D02*
X263508761Y-174061819D01*
X263508761Y-174061819D02*
X263413523Y-174109438D01*
X263413523Y-174109438D02*
X263365904Y-174157057D01*
X263365904Y-174157057D02*
X263318285Y-174252295D01*
X263318285Y-174252295D02*
X263318285Y-174347533D01*
X263318285Y-174347533D02*
X263365904Y-174490390D01*
X263365904Y-174490390D02*
X263937332Y-175061819D01*
X263937332Y-175061819D02*
X263318285Y-175061819D01*
X262746856Y-174490390D02*
X262842094Y-174442771D01*
X262842094Y-174442771D02*
X262889713Y-174395152D01*
X262889713Y-174395152D02*
X262937332Y-174299914D01*
X262937332Y-174299914D02*
X262937332Y-174252295D01*
X262937332Y-174252295D02*
X262889713Y-174157057D01*
X262889713Y-174157057D02*
X262842094Y-174109438D01*
X262842094Y-174109438D02*
X262746856Y-174061819D01*
X262746856Y-174061819D02*
X262556380Y-174061819D01*
X262556380Y-174061819D02*
X262461142Y-174109438D01*
X262461142Y-174109438D02*
X262413523Y-174157057D01*
X262413523Y-174157057D02*
X262365904Y-174252295D01*
X262365904Y-174252295D02*
X262365904Y-174299914D01*
X262365904Y-174299914D02*
X262413523Y-174395152D01*
X262413523Y-174395152D02*
X262461142Y-174442771D01*
X262461142Y-174442771D02*
X262556380Y-174490390D01*
X262556380Y-174490390D02*
X262746856Y-174490390D01*
X262746856Y-174490390D02*
X262842094Y-174538009D01*
X262842094Y-174538009D02*
X262889713Y-174585628D01*
X262889713Y-174585628D02*
X262937332Y-174680866D01*
X262937332Y-174680866D02*
X262937332Y-174871342D01*
X262937332Y-174871342D02*
X262889713Y-174966580D01*
X262889713Y-174966580D02*
X262842094Y-175014200D01*
X262842094Y-175014200D02*
X262746856Y-175061819D01*
X262746856Y-175061819D02*
X262556380Y-175061819D01*
X262556380Y-175061819D02*
X262461142Y-175014200D01*
X262461142Y-175014200D02*
X262413523Y-174966580D01*
X262413523Y-174966580D02*
X262365904Y-174871342D01*
X262365904Y-174871342D02*
X262365904Y-174680866D01*
X262365904Y-174680866D02*
X262413523Y-174585628D01*
X262413523Y-174585628D02*
X262461142Y-174538009D01*
X262461142Y-174538009D02*
X262556380Y-174490390D01*
X245842094Y-175014200D02*
X245699237Y-175061819D01*
X245699237Y-175061819D02*
X245461142Y-175061819D01*
X245461142Y-175061819D02*
X245365904Y-175014200D01*
X245365904Y-175014200D02*
X245318285Y-174966580D01*
X245318285Y-174966580D02*
X245270666Y-174871342D01*
X245270666Y-174871342D02*
X245270666Y-174776104D01*
X245270666Y-174776104D02*
X245318285Y-174680866D01*
X245318285Y-174680866D02*
X245365904Y-174633247D01*
X245365904Y-174633247D02*
X245461142Y-174585628D01*
X245461142Y-174585628D02*
X245651618Y-174538009D01*
X245651618Y-174538009D02*
X245746856Y-174490390D01*
X245746856Y-174490390D02*
X245794475Y-174442771D01*
X245794475Y-174442771D02*
X245842094Y-174347533D01*
X245842094Y-174347533D02*
X245842094Y-174252295D01*
X245842094Y-174252295D02*
X245794475Y-174157057D01*
X245794475Y-174157057D02*
X245746856Y-174109438D01*
X245746856Y-174109438D02*
X245651618Y-174061819D01*
X245651618Y-174061819D02*
X245413523Y-174061819D01*
X245413523Y-174061819D02*
X245270666Y-174109438D01*
X244889713Y-174157057D02*
X244842094Y-174109438D01*
X244842094Y-174109438D02*
X244746856Y-174061819D01*
X244746856Y-174061819D02*
X244508761Y-174061819D01*
X244508761Y-174061819D02*
X244413523Y-174109438D01*
X244413523Y-174109438D02*
X244365904Y-174157057D01*
X244365904Y-174157057D02*
X244318285Y-174252295D01*
X244318285Y-174252295D02*
X244318285Y-174347533D01*
X244318285Y-174347533D02*
X244365904Y-174490390D01*
X244365904Y-174490390D02*
X244937332Y-175061819D01*
X244937332Y-175061819D02*
X244318285Y-175061819D01*
X243984951Y-174061819D02*
X243318285Y-174061819D01*
X243318285Y-174061819D02*
X243746856Y-175061819D01*
X226842094Y-175014200D02*
X226699237Y-175061819D01*
X226699237Y-175061819D02*
X226461142Y-175061819D01*
X226461142Y-175061819D02*
X226365904Y-175014200D01*
X226365904Y-175014200D02*
X226318285Y-174966580D01*
X226318285Y-174966580D02*
X226270666Y-174871342D01*
X226270666Y-174871342D02*
X226270666Y-174776104D01*
X226270666Y-174776104D02*
X226318285Y-174680866D01*
X226318285Y-174680866D02*
X226365904Y-174633247D01*
X226365904Y-174633247D02*
X226461142Y-174585628D01*
X226461142Y-174585628D02*
X226651618Y-174538009D01*
X226651618Y-174538009D02*
X226746856Y-174490390D01*
X226746856Y-174490390D02*
X226794475Y-174442771D01*
X226794475Y-174442771D02*
X226842094Y-174347533D01*
X226842094Y-174347533D02*
X226842094Y-174252295D01*
X226842094Y-174252295D02*
X226794475Y-174157057D01*
X226794475Y-174157057D02*
X226746856Y-174109438D01*
X226746856Y-174109438D02*
X226651618Y-174061819D01*
X226651618Y-174061819D02*
X226413523Y-174061819D01*
X226413523Y-174061819D02*
X226270666Y-174109438D01*
X225889713Y-174157057D02*
X225842094Y-174109438D01*
X225842094Y-174109438D02*
X225746856Y-174061819D01*
X225746856Y-174061819D02*
X225508761Y-174061819D01*
X225508761Y-174061819D02*
X225413523Y-174109438D01*
X225413523Y-174109438D02*
X225365904Y-174157057D01*
X225365904Y-174157057D02*
X225318285Y-174252295D01*
X225318285Y-174252295D02*
X225318285Y-174347533D01*
X225318285Y-174347533D02*
X225365904Y-174490390D01*
X225365904Y-174490390D02*
X225937332Y-175061819D01*
X225937332Y-175061819D02*
X225318285Y-175061819D01*
X224461142Y-174061819D02*
X224651618Y-174061819D01*
X224651618Y-174061819D02*
X224746856Y-174109438D01*
X224746856Y-174109438D02*
X224794475Y-174157057D01*
X224794475Y-174157057D02*
X224889713Y-174299914D01*
X224889713Y-174299914D02*
X224937332Y-174490390D01*
X224937332Y-174490390D02*
X224937332Y-174871342D01*
X224937332Y-174871342D02*
X224889713Y-174966580D01*
X224889713Y-174966580D02*
X224842094Y-175014200D01*
X224842094Y-175014200D02*
X224746856Y-175061819D01*
X224746856Y-175061819D02*
X224556380Y-175061819D01*
X224556380Y-175061819D02*
X224461142Y-175014200D01*
X224461142Y-175014200D02*
X224413523Y-174966580D01*
X224413523Y-174966580D02*
X224365904Y-174871342D01*
X224365904Y-174871342D02*
X224365904Y-174633247D01*
X224365904Y-174633247D02*
X224413523Y-174538009D01*
X224413523Y-174538009D02*
X224461142Y-174490390D01*
X224461142Y-174490390D02*
X224556380Y-174442771D01*
X224556380Y-174442771D02*
X224746856Y-174442771D01*
X224746856Y-174442771D02*
X224842094Y-174490390D01*
X224842094Y-174490390D02*
X224889713Y-174538009D01*
X224889713Y-174538009D02*
X224937332Y-174633247D01*
X207842094Y-175014200D02*
X207699237Y-175061819D01*
X207699237Y-175061819D02*
X207461142Y-175061819D01*
X207461142Y-175061819D02*
X207365904Y-175014200D01*
X207365904Y-175014200D02*
X207318285Y-174966580D01*
X207318285Y-174966580D02*
X207270666Y-174871342D01*
X207270666Y-174871342D02*
X207270666Y-174776104D01*
X207270666Y-174776104D02*
X207318285Y-174680866D01*
X207318285Y-174680866D02*
X207365904Y-174633247D01*
X207365904Y-174633247D02*
X207461142Y-174585628D01*
X207461142Y-174585628D02*
X207651618Y-174538009D01*
X207651618Y-174538009D02*
X207746856Y-174490390D01*
X207746856Y-174490390D02*
X207794475Y-174442771D01*
X207794475Y-174442771D02*
X207842094Y-174347533D01*
X207842094Y-174347533D02*
X207842094Y-174252295D01*
X207842094Y-174252295D02*
X207794475Y-174157057D01*
X207794475Y-174157057D02*
X207746856Y-174109438D01*
X207746856Y-174109438D02*
X207651618Y-174061819D01*
X207651618Y-174061819D02*
X207413523Y-174061819D01*
X207413523Y-174061819D02*
X207270666Y-174109438D01*
X206889713Y-174157057D02*
X206842094Y-174109438D01*
X206842094Y-174109438D02*
X206746856Y-174061819D01*
X206746856Y-174061819D02*
X206508761Y-174061819D01*
X206508761Y-174061819D02*
X206413523Y-174109438D01*
X206413523Y-174109438D02*
X206365904Y-174157057D01*
X206365904Y-174157057D02*
X206318285Y-174252295D01*
X206318285Y-174252295D02*
X206318285Y-174347533D01*
X206318285Y-174347533D02*
X206365904Y-174490390D01*
X206365904Y-174490390D02*
X206937332Y-175061819D01*
X206937332Y-175061819D02*
X206318285Y-175061819D01*
X205413523Y-174061819D02*
X205889713Y-174061819D01*
X205889713Y-174061819D02*
X205937332Y-174538009D01*
X205937332Y-174538009D02*
X205889713Y-174490390D01*
X205889713Y-174490390D02*
X205794475Y-174442771D01*
X205794475Y-174442771D02*
X205556380Y-174442771D01*
X205556380Y-174442771D02*
X205461142Y-174490390D01*
X205461142Y-174490390D02*
X205413523Y-174538009D01*
X205413523Y-174538009D02*
X205365904Y-174633247D01*
X205365904Y-174633247D02*
X205365904Y-174871342D01*
X205365904Y-174871342D02*
X205413523Y-174966580D01*
X205413523Y-174966580D02*
X205461142Y-175014200D01*
X205461142Y-175014200D02*
X205556380Y-175061819D01*
X205556380Y-175061819D02*
X205794475Y-175061819D01*
X205794475Y-175061819D02*
X205889713Y-175014200D01*
X205889713Y-175014200D02*
X205937332Y-174966580D01*
X188842094Y-175014200D02*
X188699237Y-175061819D01*
X188699237Y-175061819D02*
X188461142Y-175061819D01*
X188461142Y-175061819D02*
X188365904Y-175014200D01*
X188365904Y-175014200D02*
X188318285Y-174966580D01*
X188318285Y-174966580D02*
X188270666Y-174871342D01*
X188270666Y-174871342D02*
X188270666Y-174776104D01*
X188270666Y-174776104D02*
X188318285Y-174680866D01*
X188318285Y-174680866D02*
X188365904Y-174633247D01*
X188365904Y-174633247D02*
X188461142Y-174585628D01*
X188461142Y-174585628D02*
X188651618Y-174538009D01*
X188651618Y-174538009D02*
X188746856Y-174490390D01*
X188746856Y-174490390D02*
X188794475Y-174442771D01*
X188794475Y-174442771D02*
X188842094Y-174347533D01*
X188842094Y-174347533D02*
X188842094Y-174252295D01*
X188842094Y-174252295D02*
X188794475Y-174157057D01*
X188794475Y-174157057D02*
X188746856Y-174109438D01*
X188746856Y-174109438D02*
X188651618Y-174061819D01*
X188651618Y-174061819D02*
X188413523Y-174061819D01*
X188413523Y-174061819D02*
X188270666Y-174109438D01*
X187889713Y-174157057D02*
X187842094Y-174109438D01*
X187842094Y-174109438D02*
X187746856Y-174061819D01*
X187746856Y-174061819D02*
X187508761Y-174061819D01*
X187508761Y-174061819D02*
X187413523Y-174109438D01*
X187413523Y-174109438D02*
X187365904Y-174157057D01*
X187365904Y-174157057D02*
X187318285Y-174252295D01*
X187318285Y-174252295D02*
X187318285Y-174347533D01*
X187318285Y-174347533D02*
X187365904Y-174490390D01*
X187365904Y-174490390D02*
X187937332Y-175061819D01*
X187937332Y-175061819D02*
X187318285Y-175061819D01*
X186461142Y-174395152D02*
X186461142Y-175061819D01*
X186699237Y-174014200D02*
X186937332Y-174728485D01*
X186937332Y-174728485D02*
X186318285Y-174728485D01*
X169842094Y-175014200D02*
X169699237Y-175061819D01*
X169699237Y-175061819D02*
X169461142Y-175061819D01*
X169461142Y-175061819D02*
X169365904Y-175014200D01*
X169365904Y-175014200D02*
X169318285Y-174966580D01*
X169318285Y-174966580D02*
X169270666Y-174871342D01*
X169270666Y-174871342D02*
X169270666Y-174776104D01*
X169270666Y-174776104D02*
X169318285Y-174680866D01*
X169318285Y-174680866D02*
X169365904Y-174633247D01*
X169365904Y-174633247D02*
X169461142Y-174585628D01*
X169461142Y-174585628D02*
X169651618Y-174538009D01*
X169651618Y-174538009D02*
X169746856Y-174490390D01*
X169746856Y-174490390D02*
X169794475Y-174442771D01*
X169794475Y-174442771D02*
X169842094Y-174347533D01*
X169842094Y-174347533D02*
X169842094Y-174252295D01*
X169842094Y-174252295D02*
X169794475Y-174157057D01*
X169794475Y-174157057D02*
X169746856Y-174109438D01*
X169746856Y-174109438D02*
X169651618Y-174061819D01*
X169651618Y-174061819D02*
X169413523Y-174061819D01*
X169413523Y-174061819D02*
X169270666Y-174109438D01*
X168889713Y-174157057D02*
X168842094Y-174109438D01*
X168842094Y-174109438D02*
X168746856Y-174061819D01*
X168746856Y-174061819D02*
X168508761Y-174061819D01*
X168508761Y-174061819D02*
X168413523Y-174109438D01*
X168413523Y-174109438D02*
X168365904Y-174157057D01*
X168365904Y-174157057D02*
X168318285Y-174252295D01*
X168318285Y-174252295D02*
X168318285Y-174347533D01*
X168318285Y-174347533D02*
X168365904Y-174490390D01*
X168365904Y-174490390D02*
X168937332Y-175061819D01*
X168937332Y-175061819D02*
X168318285Y-175061819D01*
X167984951Y-174061819D02*
X167365904Y-174061819D01*
X167365904Y-174061819D02*
X167699237Y-174442771D01*
X167699237Y-174442771D02*
X167556380Y-174442771D01*
X167556380Y-174442771D02*
X167461142Y-174490390D01*
X167461142Y-174490390D02*
X167413523Y-174538009D01*
X167413523Y-174538009D02*
X167365904Y-174633247D01*
X167365904Y-174633247D02*
X167365904Y-174871342D01*
X167365904Y-174871342D02*
X167413523Y-174966580D01*
X167413523Y-174966580D02*
X167461142Y-175014200D01*
X167461142Y-175014200D02*
X167556380Y-175061819D01*
X167556380Y-175061819D02*
X167842094Y-175061819D01*
X167842094Y-175061819D02*
X167937332Y-175014200D01*
X167937332Y-175014200D02*
X167984951Y-174966580D01*
X135933094Y-175014200D02*
X135790237Y-175061819D01*
X135790237Y-175061819D02*
X135552142Y-175061819D01*
X135552142Y-175061819D02*
X135456904Y-175014200D01*
X135456904Y-175014200D02*
X135409285Y-174966580D01*
X135409285Y-174966580D02*
X135361666Y-174871342D01*
X135361666Y-174871342D02*
X135361666Y-174776104D01*
X135361666Y-174776104D02*
X135409285Y-174680866D01*
X135409285Y-174680866D02*
X135456904Y-174633247D01*
X135456904Y-174633247D02*
X135552142Y-174585628D01*
X135552142Y-174585628D02*
X135742618Y-174538009D01*
X135742618Y-174538009D02*
X135837856Y-174490390D01*
X135837856Y-174490390D02*
X135885475Y-174442771D01*
X135885475Y-174442771D02*
X135933094Y-174347533D01*
X135933094Y-174347533D02*
X135933094Y-174252295D01*
X135933094Y-174252295D02*
X135885475Y-174157057D01*
X135885475Y-174157057D02*
X135837856Y-174109438D01*
X135837856Y-174109438D02*
X135742618Y-174061819D01*
X135742618Y-174061819D02*
X135504523Y-174061819D01*
X135504523Y-174061819D02*
X135361666Y-174109438D01*
X134980713Y-174157057D02*
X134933094Y-174109438D01*
X134933094Y-174109438D02*
X134837856Y-174061819D01*
X134837856Y-174061819D02*
X134599761Y-174061819D01*
X134599761Y-174061819D02*
X134504523Y-174109438D01*
X134504523Y-174109438D02*
X134456904Y-174157057D01*
X134456904Y-174157057D02*
X134409285Y-174252295D01*
X134409285Y-174252295D02*
X134409285Y-174347533D01*
X134409285Y-174347533D02*
X134456904Y-174490390D01*
X134456904Y-174490390D02*
X135028332Y-175061819D01*
X135028332Y-175061819D02*
X134409285Y-175061819D01*
X134028332Y-174157057D02*
X133980713Y-174109438D01*
X133980713Y-174109438D02*
X133885475Y-174061819D01*
X133885475Y-174061819D02*
X133647380Y-174061819D01*
X133647380Y-174061819D02*
X133552142Y-174109438D01*
X133552142Y-174109438D02*
X133504523Y-174157057D01*
X133504523Y-174157057D02*
X133456904Y-174252295D01*
X133456904Y-174252295D02*
X133456904Y-174347533D01*
X133456904Y-174347533D02*
X133504523Y-174490390D01*
X133504523Y-174490390D02*
X134075951Y-175061819D01*
X134075951Y-175061819D02*
X133456904Y-175061819D01*
X255317094Y-156014200D02*
X255174237Y-156061819D01*
X255174237Y-156061819D02*
X254936142Y-156061819D01*
X254936142Y-156061819D02*
X254840904Y-156014200D01*
X254840904Y-156014200D02*
X254793285Y-155966580D01*
X254793285Y-155966580D02*
X254745666Y-155871342D01*
X254745666Y-155871342D02*
X254745666Y-155776104D01*
X254745666Y-155776104D02*
X254793285Y-155680866D01*
X254793285Y-155680866D02*
X254840904Y-155633247D01*
X254840904Y-155633247D02*
X254936142Y-155585628D01*
X254936142Y-155585628D02*
X255126618Y-155538009D01*
X255126618Y-155538009D02*
X255221856Y-155490390D01*
X255221856Y-155490390D02*
X255269475Y-155442771D01*
X255269475Y-155442771D02*
X255317094Y-155347533D01*
X255317094Y-155347533D02*
X255317094Y-155252295D01*
X255317094Y-155252295D02*
X255269475Y-155157057D01*
X255269475Y-155157057D02*
X255221856Y-155109438D01*
X255221856Y-155109438D02*
X255126618Y-155061819D01*
X255126618Y-155061819D02*
X254888523Y-155061819D01*
X254888523Y-155061819D02*
X254745666Y-155109438D01*
X254364713Y-155157057D02*
X254317094Y-155109438D01*
X254317094Y-155109438D02*
X254221856Y-155061819D01*
X254221856Y-155061819D02*
X253983761Y-155061819D01*
X253983761Y-155061819D02*
X253888523Y-155109438D01*
X253888523Y-155109438D02*
X253840904Y-155157057D01*
X253840904Y-155157057D02*
X253793285Y-155252295D01*
X253793285Y-155252295D02*
X253793285Y-155347533D01*
X253793285Y-155347533D02*
X253840904Y-155490390D01*
X253840904Y-155490390D02*
X254412332Y-156061819D01*
X254412332Y-156061819D02*
X253793285Y-156061819D01*
X252840904Y-156061819D02*
X253412332Y-156061819D01*
X253126618Y-156061819D02*
X253126618Y-155061819D01*
X253126618Y-155061819D02*
X253221856Y-155204676D01*
X253221856Y-155204676D02*
X253317094Y-155299914D01*
X253317094Y-155299914D02*
X253412332Y-155347533D01*
X217317094Y-156014200D02*
X217174237Y-156061819D01*
X217174237Y-156061819D02*
X216936142Y-156061819D01*
X216936142Y-156061819D02*
X216840904Y-156014200D01*
X216840904Y-156014200D02*
X216793285Y-155966580D01*
X216793285Y-155966580D02*
X216745666Y-155871342D01*
X216745666Y-155871342D02*
X216745666Y-155776104D01*
X216745666Y-155776104D02*
X216793285Y-155680866D01*
X216793285Y-155680866D02*
X216840904Y-155633247D01*
X216840904Y-155633247D02*
X216936142Y-155585628D01*
X216936142Y-155585628D02*
X217126618Y-155538009D01*
X217126618Y-155538009D02*
X217221856Y-155490390D01*
X217221856Y-155490390D02*
X217269475Y-155442771D01*
X217269475Y-155442771D02*
X217317094Y-155347533D01*
X217317094Y-155347533D02*
X217317094Y-155252295D01*
X217317094Y-155252295D02*
X217269475Y-155157057D01*
X217269475Y-155157057D02*
X217221856Y-155109438D01*
X217221856Y-155109438D02*
X217126618Y-155061819D01*
X217126618Y-155061819D02*
X216888523Y-155061819D01*
X216888523Y-155061819D02*
X216745666Y-155109438D01*
X215793285Y-156061819D02*
X216364713Y-156061819D01*
X216078999Y-156061819D02*
X216078999Y-155061819D01*
X216078999Y-155061819D02*
X216174237Y-155204676D01*
X216174237Y-155204676D02*
X216269475Y-155299914D01*
X216269475Y-155299914D02*
X216364713Y-155347533D01*
X215317094Y-156061819D02*
X215126618Y-156061819D01*
X215126618Y-156061819D02*
X215031380Y-156014200D01*
X215031380Y-156014200D02*
X214983761Y-155966580D01*
X214983761Y-155966580D02*
X214888523Y-155823723D01*
X214888523Y-155823723D02*
X214840904Y-155633247D01*
X214840904Y-155633247D02*
X214840904Y-155252295D01*
X214840904Y-155252295D02*
X214888523Y-155157057D01*
X214888523Y-155157057D02*
X214936142Y-155109438D01*
X214936142Y-155109438D02*
X215031380Y-155061819D01*
X215031380Y-155061819D02*
X215221856Y-155061819D01*
X215221856Y-155061819D02*
X215317094Y-155109438D01*
X215317094Y-155109438D02*
X215364713Y-155157057D01*
X215364713Y-155157057D02*
X215412332Y-155252295D01*
X215412332Y-155252295D02*
X215412332Y-155490390D01*
X215412332Y-155490390D02*
X215364713Y-155585628D01*
X215364713Y-155585628D02*
X215317094Y-155633247D01*
X215317094Y-155633247D02*
X215221856Y-155680866D01*
X215221856Y-155680866D02*
X215031380Y-155680866D01*
X215031380Y-155680866D02*
X214936142Y-155633247D01*
X214936142Y-155633247D02*
X214888523Y-155585628D01*
X214888523Y-155585628D02*
X214840904Y-155490390D01*
X198317094Y-156014200D02*
X198174237Y-156061819D01*
X198174237Y-156061819D02*
X197936142Y-156061819D01*
X197936142Y-156061819D02*
X197840904Y-156014200D01*
X197840904Y-156014200D02*
X197793285Y-155966580D01*
X197793285Y-155966580D02*
X197745666Y-155871342D01*
X197745666Y-155871342D02*
X197745666Y-155776104D01*
X197745666Y-155776104D02*
X197793285Y-155680866D01*
X197793285Y-155680866D02*
X197840904Y-155633247D01*
X197840904Y-155633247D02*
X197936142Y-155585628D01*
X197936142Y-155585628D02*
X198126618Y-155538009D01*
X198126618Y-155538009D02*
X198221856Y-155490390D01*
X198221856Y-155490390D02*
X198269475Y-155442771D01*
X198269475Y-155442771D02*
X198317094Y-155347533D01*
X198317094Y-155347533D02*
X198317094Y-155252295D01*
X198317094Y-155252295D02*
X198269475Y-155157057D01*
X198269475Y-155157057D02*
X198221856Y-155109438D01*
X198221856Y-155109438D02*
X198126618Y-155061819D01*
X198126618Y-155061819D02*
X197888523Y-155061819D01*
X197888523Y-155061819D02*
X197745666Y-155109438D01*
X196793285Y-156061819D02*
X197364713Y-156061819D01*
X197078999Y-156061819D02*
X197078999Y-155061819D01*
X197078999Y-155061819D02*
X197174237Y-155204676D01*
X197174237Y-155204676D02*
X197269475Y-155299914D01*
X197269475Y-155299914D02*
X197364713Y-155347533D01*
X196221856Y-155490390D02*
X196317094Y-155442771D01*
X196317094Y-155442771D02*
X196364713Y-155395152D01*
X196364713Y-155395152D02*
X196412332Y-155299914D01*
X196412332Y-155299914D02*
X196412332Y-155252295D01*
X196412332Y-155252295D02*
X196364713Y-155157057D01*
X196364713Y-155157057D02*
X196317094Y-155109438D01*
X196317094Y-155109438D02*
X196221856Y-155061819D01*
X196221856Y-155061819D02*
X196031380Y-155061819D01*
X196031380Y-155061819D02*
X195936142Y-155109438D01*
X195936142Y-155109438D02*
X195888523Y-155157057D01*
X195888523Y-155157057D02*
X195840904Y-155252295D01*
X195840904Y-155252295D02*
X195840904Y-155299914D01*
X195840904Y-155299914D02*
X195888523Y-155395152D01*
X195888523Y-155395152D02*
X195936142Y-155442771D01*
X195936142Y-155442771D02*
X196031380Y-155490390D01*
X196031380Y-155490390D02*
X196221856Y-155490390D01*
X196221856Y-155490390D02*
X196317094Y-155538009D01*
X196317094Y-155538009D02*
X196364713Y-155585628D01*
X196364713Y-155585628D02*
X196412332Y-155680866D01*
X196412332Y-155680866D02*
X196412332Y-155871342D01*
X196412332Y-155871342D02*
X196364713Y-155966580D01*
X196364713Y-155966580D02*
X196317094Y-156014200D01*
X196317094Y-156014200D02*
X196221856Y-156061819D01*
X196221856Y-156061819D02*
X196031380Y-156061819D01*
X196031380Y-156061819D02*
X195936142Y-156014200D01*
X195936142Y-156014200D02*
X195888523Y-155966580D01*
X195888523Y-155966580D02*
X195840904Y-155871342D01*
X195840904Y-155871342D02*
X195840904Y-155680866D01*
X195840904Y-155680866D02*
X195888523Y-155585628D01*
X195888523Y-155585628D02*
X195936142Y-155538009D01*
X195936142Y-155538009D02*
X196031380Y-155490390D01*
X179317094Y-156014200D02*
X179174237Y-156061819D01*
X179174237Y-156061819D02*
X178936142Y-156061819D01*
X178936142Y-156061819D02*
X178840904Y-156014200D01*
X178840904Y-156014200D02*
X178793285Y-155966580D01*
X178793285Y-155966580D02*
X178745666Y-155871342D01*
X178745666Y-155871342D02*
X178745666Y-155776104D01*
X178745666Y-155776104D02*
X178793285Y-155680866D01*
X178793285Y-155680866D02*
X178840904Y-155633247D01*
X178840904Y-155633247D02*
X178936142Y-155585628D01*
X178936142Y-155585628D02*
X179126618Y-155538009D01*
X179126618Y-155538009D02*
X179221856Y-155490390D01*
X179221856Y-155490390D02*
X179269475Y-155442771D01*
X179269475Y-155442771D02*
X179317094Y-155347533D01*
X179317094Y-155347533D02*
X179317094Y-155252295D01*
X179317094Y-155252295D02*
X179269475Y-155157057D01*
X179269475Y-155157057D02*
X179221856Y-155109438D01*
X179221856Y-155109438D02*
X179126618Y-155061819D01*
X179126618Y-155061819D02*
X178888523Y-155061819D01*
X178888523Y-155061819D02*
X178745666Y-155109438D01*
X177793285Y-156061819D02*
X178364713Y-156061819D01*
X178078999Y-156061819D02*
X178078999Y-155061819D01*
X178078999Y-155061819D02*
X178174237Y-155204676D01*
X178174237Y-155204676D02*
X178269475Y-155299914D01*
X178269475Y-155299914D02*
X178364713Y-155347533D01*
X177459951Y-155061819D02*
X176793285Y-155061819D01*
X176793285Y-155061819D02*
X177221856Y-156061819D01*
X160317094Y-156014200D02*
X160174237Y-156061819D01*
X160174237Y-156061819D02*
X159936142Y-156061819D01*
X159936142Y-156061819D02*
X159840904Y-156014200D01*
X159840904Y-156014200D02*
X159793285Y-155966580D01*
X159793285Y-155966580D02*
X159745666Y-155871342D01*
X159745666Y-155871342D02*
X159745666Y-155776104D01*
X159745666Y-155776104D02*
X159793285Y-155680866D01*
X159793285Y-155680866D02*
X159840904Y-155633247D01*
X159840904Y-155633247D02*
X159936142Y-155585628D01*
X159936142Y-155585628D02*
X160126618Y-155538009D01*
X160126618Y-155538009D02*
X160221856Y-155490390D01*
X160221856Y-155490390D02*
X160269475Y-155442771D01*
X160269475Y-155442771D02*
X160317094Y-155347533D01*
X160317094Y-155347533D02*
X160317094Y-155252295D01*
X160317094Y-155252295D02*
X160269475Y-155157057D01*
X160269475Y-155157057D02*
X160221856Y-155109438D01*
X160221856Y-155109438D02*
X160126618Y-155061819D01*
X160126618Y-155061819D02*
X159888523Y-155061819D01*
X159888523Y-155061819D02*
X159745666Y-155109438D01*
X158793285Y-156061819D02*
X159364713Y-156061819D01*
X159078999Y-156061819D02*
X159078999Y-155061819D01*
X159078999Y-155061819D02*
X159174237Y-155204676D01*
X159174237Y-155204676D02*
X159269475Y-155299914D01*
X159269475Y-155299914D02*
X159364713Y-155347533D01*
X157936142Y-155061819D02*
X158126618Y-155061819D01*
X158126618Y-155061819D02*
X158221856Y-155109438D01*
X158221856Y-155109438D02*
X158269475Y-155157057D01*
X158269475Y-155157057D02*
X158364713Y-155299914D01*
X158364713Y-155299914D02*
X158412332Y-155490390D01*
X158412332Y-155490390D02*
X158412332Y-155871342D01*
X158412332Y-155871342D02*
X158364713Y-155966580D01*
X158364713Y-155966580D02*
X158317094Y-156014200D01*
X158317094Y-156014200D02*
X158221856Y-156061819D01*
X158221856Y-156061819D02*
X158031380Y-156061819D01*
X158031380Y-156061819D02*
X157936142Y-156014200D01*
X157936142Y-156014200D02*
X157888523Y-155966580D01*
X157888523Y-155966580D02*
X157840904Y-155871342D01*
X157840904Y-155871342D02*
X157840904Y-155633247D01*
X157840904Y-155633247D02*
X157888523Y-155538009D01*
X157888523Y-155538009D02*
X157936142Y-155490390D01*
X157936142Y-155490390D02*
X158031380Y-155442771D01*
X158031380Y-155442771D02*
X158221856Y-155442771D01*
X158221856Y-155442771D02*
X158317094Y-155490390D01*
X158317094Y-155490390D02*
X158364713Y-155538009D01*
X158364713Y-155538009D02*
X158412332Y-155633247D01*
X131170594Y-156014200D02*
X131027737Y-156061819D01*
X131027737Y-156061819D02*
X130789642Y-156061819D01*
X130789642Y-156061819D02*
X130694404Y-156014200D01*
X130694404Y-156014200D02*
X130646785Y-155966580D01*
X130646785Y-155966580D02*
X130599166Y-155871342D01*
X130599166Y-155871342D02*
X130599166Y-155776104D01*
X130599166Y-155776104D02*
X130646785Y-155680866D01*
X130646785Y-155680866D02*
X130694404Y-155633247D01*
X130694404Y-155633247D02*
X130789642Y-155585628D01*
X130789642Y-155585628D02*
X130980118Y-155538009D01*
X130980118Y-155538009D02*
X131075356Y-155490390D01*
X131075356Y-155490390D02*
X131122975Y-155442771D01*
X131122975Y-155442771D02*
X131170594Y-155347533D01*
X131170594Y-155347533D02*
X131170594Y-155252295D01*
X131170594Y-155252295D02*
X131122975Y-155157057D01*
X131122975Y-155157057D02*
X131075356Y-155109438D01*
X131075356Y-155109438D02*
X130980118Y-155061819D01*
X130980118Y-155061819D02*
X130742023Y-155061819D01*
X130742023Y-155061819D02*
X130599166Y-155109438D01*
X129646785Y-156061819D02*
X130218213Y-156061819D01*
X129932499Y-156061819D02*
X129932499Y-155061819D01*
X129932499Y-155061819D02*
X130027737Y-155204676D01*
X130027737Y-155204676D02*
X130122975Y-155299914D01*
X130122975Y-155299914D02*
X130218213Y-155347533D01*
X128742023Y-155061819D02*
X129218213Y-155061819D01*
X129218213Y-155061819D02*
X129265832Y-155538009D01*
X129265832Y-155538009D02*
X129218213Y-155490390D01*
X129218213Y-155490390D02*
X129122975Y-155442771D01*
X129122975Y-155442771D02*
X128884880Y-155442771D01*
X128884880Y-155442771D02*
X128789642Y-155490390D01*
X128789642Y-155490390D02*
X128742023Y-155538009D01*
X128742023Y-155538009D02*
X128694404Y-155633247D01*
X128694404Y-155633247D02*
X128694404Y-155871342D01*
X128694404Y-155871342D02*
X128742023Y-155966580D01*
X128742023Y-155966580D02*
X128789642Y-156014200D01*
X128789642Y-156014200D02*
X128884880Y-156061819D01*
X128884880Y-156061819D02*
X129122975Y-156061819D01*
X129122975Y-156061819D02*
X129218213Y-156014200D01*
X129218213Y-156014200D02*
X129265832Y-155966580D01*
X245792094Y-137014200D02*
X245649237Y-137061819D01*
X245649237Y-137061819D02*
X245411142Y-137061819D01*
X245411142Y-137061819D02*
X245315904Y-137014200D01*
X245315904Y-137014200D02*
X245268285Y-136966580D01*
X245268285Y-136966580D02*
X245220666Y-136871342D01*
X245220666Y-136871342D02*
X245220666Y-136776104D01*
X245220666Y-136776104D02*
X245268285Y-136680866D01*
X245268285Y-136680866D02*
X245315904Y-136633247D01*
X245315904Y-136633247D02*
X245411142Y-136585628D01*
X245411142Y-136585628D02*
X245601618Y-136538009D01*
X245601618Y-136538009D02*
X245696856Y-136490390D01*
X245696856Y-136490390D02*
X245744475Y-136442771D01*
X245744475Y-136442771D02*
X245792094Y-136347533D01*
X245792094Y-136347533D02*
X245792094Y-136252295D01*
X245792094Y-136252295D02*
X245744475Y-136157057D01*
X245744475Y-136157057D02*
X245696856Y-136109438D01*
X245696856Y-136109438D02*
X245601618Y-136061819D01*
X245601618Y-136061819D02*
X245363523Y-136061819D01*
X245363523Y-136061819D02*
X245220666Y-136109438D01*
X244268285Y-137061819D02*
X244839713Y-137061819D01*
X244553999Y-137061819D02*
X244553999Y-136061819D01*
X244553999Y-136061819D02*
X244649237Y-136204676D01*
X244649237Y-136204676D02*
X244744475Y-136299914D01*
X244744475Y-136299914D02*
X244839713Y-136347533D01*
X243411142Y-136395152D02*
X243411142Y-137061819D01*
X243649237Y-136014200D02*
X243887332Y-136728485D01*
X243887332Y-136728485D02*
X243268285Y-136728485D01*
X226792094Y-137014200D02*
X226649237Y-137061819D01*
X226649237Y-137061819D02*
X226411142Y-137061819D01*
X226411142Y-137061819D02*
X226315904Y-137014200D01*
X226315904Y-137014200D02*
X226268285Y-136966580D01*
X226268285Y-136966580D02*
X226220666Y-136871342D01*
X226220666Y-136871342D02*
X226220666Y-136776104D01*
X226220666Y-136776104D02*
X226268285Y-136680866D01*
X226268285Y-136680866D02*
X226315904Y-136633247D01*
X226315904Y-136633247D02*
X226411142Y-136585628D01*
X226411142Y-136585628D02*
X226601618Y-136538009D01*
X226601618Y-136538009D02*
X226696856Y-136490390D01*
X226696856Y-136490390D02*
X226744475Y-136442771D01*
X226744475Y-136442771D02*
X226792094Y-136347533D01*
X226792094Y-136347533D02*
X226792094Y-136252295D01*
X226792094Y-136252295D02*
X226744475Y-136157057D01*
X226744475Y-136157057D02*
X226696856Y-136109438D01*
X226696856Y-136109438D02*
X226601618Y-136061819D01*
X226601618Y-136061819D02*
X226363523Y-136061819D01*
X226363523Y-136061819D02*
X226220666Y-136109438D01*
X225268285Y-137061819D02*
X225839713Y-137061819D01*
X225553999Y-137061819D02*
X225553999Y-136061819D01*
X225553999Y-136061819D02*
X225649237Y-136204676D01*
X225649237Y-136204676D02*
X225744475Y-136299914D01*
X225744475Y-136299914D02*
X225839713Y-136347533D01*
X224934951Y-136061819D02*
X224315904Y-136061819D01*
X224315904Y-136061819D02*
X224649237Y-136442771D01*
X224649237Y-136442771D02*
X224506380Y-136442771D01*
X224506380Y-136442771D02*
X224411142Y-136490390D01*
X224411142Y-136490390D02*
X224363523Y-136538009D01*
X224363523Y-136538009D02*
X224315904Y-136633247D01*
X224315904Y-136633247D02*
X224315904Y-136871342D01*
X224315904Y-136871342D02*
X224363523Y-136966580D01*
X224363523Y-136966580D02*
X224411142Y-137014200D01*
X224411142Y-137014200D02*
X224506380Y-137061819D01*
X224506380Y-137061819D02*
X224792094Y-137061819D01*
X224792094Y-137061819D02*
X224887332Y-137014200D01*
X224887332Y-137014200D02*
X224934951Y-136966580D01*
X207792094Y-137014200D02*
X207649237Y-137061819D01*
X207649237Y-137061819D02*
X207411142Y-137061819D01*
X207411142Y-137061819D02*
X207315904Y-137014200D01*
X207315904Y-137014200D02*
X207268285Y-136966580D01*
X207268285Y-136966580D02*
X207220666Y-136871342D01*
X207220666Y-136871342D02*
X207220666Y-136776104D01*
X207220666Y-136776104D02*
X207268285Y-136680866D01*
X207268285Y-136680866D02*
X207315904Y-136633247D01*
X207315904Y-136633247D02*
X207411142Y-136585628D01*
X207411142Y-136585628D02*
X207601618Y-136538009D01*
X207601618Y-136538009D02*
X207696856Y-136490390D01*
X207696856Y-136490390D02*
X207744475Y-136442771D01*
X207744475Y-136442771D02*
X207792094Y-136347533D01*
X207792094Y-136347533D02*
X207792094Y-136252295D01*
X207792094Y-136252295D02*
X207744475Y-136157057D01*
X207744475Y-136157057D02*
X207696856Y-136109438D01*
X207696856Y-136109438D02*
X207601618Y-136061819D01*
X207601618Y-136061819D02*
X207363523Y-136061819D01*
X207363523Y-136061819D02*
X207220666Y-136109438D01*
X206268285Y-137061819D02*
X206839713Y-137061819D01*
X206553999Y-137061819D02*
X206553999Y-136061819D01*
X206553999Y-136061819D02*
X206649237Y-136204676D01*
X206649237Y-136204676D02*
X206744475Y-136299914D01*
X206744475Y-136299914D02*
X206839713Y-136347533D01*
X205887332Y-136157057D02*
X205839713Y-136109438D01*
X205839713Y-136109438D02*
X205744475Y-136061819D01*
X205744475Y-136061819D02*
X205506380Y-136061819D01*
X205506380Y-136061819D02*
X205411142Y-136109438D01*
X205411142Y-136109438D02*
X205363523Y-136157057D01*
X205363523Y-136157057D02*
X205315904Y-136252295D01*
X205315904Y-136252295D02*
X205315904Y-136347533D01*
X205315904Y-136347533D02*
X205363523Y-136490390D01*
X205363523Y-136490390D02*
X205934951Y-137061819D01*
X205934951Y-137061819D02*
X205315904Y-137061819D01*
X188792094Y-137014200D02*
X188649237Y-137061819D01*
X188649237Y-137061819D02*
X188411142Y-137061819D01*
X188411142Y-137061819D02*
X188315904Y-137014200D01*
X188315904Y-137014200D02*
X188268285Y-136966580D01*
X188268285Y-136966580D02*
X188220666Y-136871342D01*
X188220666Y-136871342D02*
X188220666Y-136776104D01*
X188220666Y-136776104D02*
X188268285Y-136680866D01*
X188268285Y-136680866D02*
X188315904Y-136633247D01*
X188315904Y-136633247D02*
X188411142Y-136585628D01*
X188411142Y-136585628D02*
X188601618Y-136538009D01*
X188601618Y-136538009D02*
X188696856Y-136490390D01*
X188696856Y-136490390D02*
X188744475Y-136442771D01*
X188744475Y-136442771D02*
X188792094Y-136347533D01*
X188792094Y-136347533D02*
X188792094Y-136252295D01*
X188792094Y-136252295D02*
X188744475Y-136157057D01*
X188744475Y-136157057D02*
X188696856Y-136109438D01*
X188696856Y-136109438D02*
X188601618Y-136061819D01*
X188601618Y-136061819D02*
X188363523Y-136061819D01*
X188363523Y-136061819D02*
X188220666Y-136109438D01*
X187268285Y-137061819D02*
X187839713Y-137061819D01*
X187553999Y-137061819D02*
X187553999Y-136061819D01*
X187553999Y-136061819D02*
X187649237Y-136204676D01*
X187649237Y-136204676D02*
X187744475Y-136299914D01*
X187744475Y-136299914D02*
X187839713Y-136347533D01*
X186315904Y-137061819D02*
X186887332Y-137061819D01*
X186601618Y-137061819D02*
X186601618Y-136061819D01*
X186601618Y-136061819D02*
X186696856Y-136204676D01*
X186696856Y-136204676D02*
X186792094Y-136299914D01*
X186792094Y-136299914D02*
X186887332Y-136347533D01*
X169792094Y-137014200D02*
X169649237Y-137061819D01*
X169649237Y-137061819D02*
X169411142Y-137061819D01*
X169411142Y-137061819D02*
X169315904Y-137014200D01*
X169315904Y-137014200D02*
X169268285Y-136966580D01*
X169268285Y-136966580D02*
X169220666Y-136871342D01*
X169220666Y-136871342D02*
X169220666Y-136776104D01*
X169220666Y-136776104D02*
X169268285Y-136680866D01*
X169268285Y-136680866D02*
X169315904Y-136633247D01*
X169315904Y-136633247D02*
X169411142Y-136585628D01*
X169411142Y-136585628D02*
X169601618Y-136538009D01*
X169601618Y-136538009D02*
X169696856Y-136490390D01*
X169696856Y-136490390D02*
X169744475Y-136442771D01*
X169744475Y-136442771D02*
X169792094Y-136347533D01*
X169792094Y-136347533D02*
X169792094Y-136252295D01*
X169792094Y-136252295D02*
X169744475Y-136157057D01*
X169744475Y-136157057D02*
X169696856Y-136109438D01*
X169696856Y-136109438D02*
X169601618Y-136061819D01*
X169601618Y-136061819D02*
X169363523Y-136061819D01*
X169363523Y-136061819D02*
X169220666Y-136109438D01*
X168268285Y-137061819D02*
X168839713Y-137061819D01*
X168553999Y-137061819D02*
X168553999Y-136061819D01*
X168553999Y-136061819D02*
X168649237Y-136204676D01*
X168649237Y-136204676D02*
X168744475Y-136299914D01*
X168744475Y-136299914D02*
X168839713Y-136347533D01*
X167649237Y-136061819D02*
X167553999Y-136061819D01*
X167553999Y-136061819D02*
X167458761Y-136109438D01*
X167458761Y-136109438D02*
X167411142Y-136157057D01*
X167411142Y-136157057D02*
X167363523Y-136252295D01*
X167363523Y-136252295D02*
X167315904Y-136442771D01*
X167315904Y-136442771D02*
X167315904Y-136680866D01*
X167315904Y-136680866D02*
X167363523Y-136871342D01*
X167363523Y-136871342D02*
X167411142Y-136966580D01*
X167411142Y-136966580D02*
X167458761Y-137014200D01*
X167458761Y-137014200D02*
X167553999Y-137061819D01*
X167553999Y-137061819D02*
X167649237Y-137061819D01*
X167649237Y-137061819D02*
X167744475Y-137014200D01*
X167744475Y-137014200D02*
X167792094Y-136966580D01*
X167792094Y-136966580D02*
X167839713Y-136871342D01*
X167839713Y-136871342D02*
X167887332Y-136680866D01*
X167887332Y-136680866D02*
X167887332Y-136442771D01*
X167887332Y-136442771D02*
X167839713Y-136252295D01*
X167839713Y-136252295D02*
X167792094Y-136157057D01*
X167792094Y-136157057D02*
X167744475Y-136109438D01*
X167744475Y-136109438D02*
X167649237Y-136061819D01*
X150315904Y-137014200D02*
X150173047Y-137061819D01*
X150173047Y-137061819D02*
X149934952Y-137061819D01*
X149934952Y-137061819D02*
X149839714Y-137014200D01*
X149839714Y-137014200D02*
X149792095Y-136966580D01*
X149792095Y-136966580D02*
X149744476Y-136871342D01*
X149744476Y-136871342D02*
X149744476Y-136776104D01*
X149744476Y-136776104D02*
X149792095Y-136680866D01*
X149792095Y-136680866D02*
X149839714Y-136633247D01*
X149839714Y-136633247D02*
X149934952Y-136585628D01*
X149934952Y-136585628D02*
X150125428Y-136538009D01*
X150125428Y-136538009D02*
X150220666Y-136490390D01*
X150220666Y-136490390D02*
X150268285Y-136442771D01*
X150268285Y-136442771D02*
X150315904Y-136347533D01*
X150315904Y-136347533D02*
X150315904Y-136252295D01*
X150315904Y-136252295D02*
X150268285Y-136157057D01*
X150268285Y-136157057D02*
X150220666Y-136109438D01*
X150220666Y-136109438D02*
X150125428Y-136061819D01*
X150125428Y-136061819D02*
X149887333Y-136061819D01*
X149887333Y-136061819D02*
X149744476Y-136109438D01*
X149268285Y-137061819D02*
X149077809Y-137061819D01*
X149077809Y-137061819D02*
X148982571Y-137014200D01*
X148982571Y-137014200D02*
X148934952Y-136966580D01*
X148934952Y-136966580D02*
X148839714Y-136823723D01*
X148839714Y-136823723D02*
X148792095Y-136633247D01*
X148792095Y-136633247D02*
X148792095Y-136252295D01*
X148792095Y-136252295D02*
X148839714Y-136157057D01*
X148839714Y-136157057D02*
X148887333Y-136109438D01*
X148887333Y-136109438D02*
X148982571Y-136061819D01*
X148982571Y-136061819D02*
X149173047Y-136061819D01*
X149173047Y-136061819D02*
X149268285Y-136109438D01*
X149268285Y-136109438D02*
X149315904Y-136157057D01*
X149315904Y-136157057D02*
X149363523Y-136252295D01*
X149363523Y-136252295D02*
X149363523Y-136490390D01*
X149363523Y-136490390D02*
X149315904Y-136585628D01*
X149315904Y-136585628D02*
X149268285Y-136633247D01*
X149268285Y-136633247D02*
X149173047Y-136680866D01*
X149173047Y-136680866D02*
X148982571Y-136680866D01*
X148982571Y-136680866D02*
X148887333Y-136633247D01*
X148887333Y-136633247D02*
X148839714Y-136585628D01*
X148839714Y-136585628D02*
X148792095Y-136490390D01*
X125931904Y-137014200D02*
X125789047Y-137061819D01*
X125789047Y-137061819D02*
X125550952Y-137061819D01*
X125550952Y-137061819D02*
X125455714Y-137014200D01*
X125455714Y-137014200D02*
X125408095Y-136966580D01*
X125408095Y-136966580D02*
X125360476Y-136871342D01*
X125360476Y-136871342D02*
X125360476Y-136776104D01*
X125360476Y-136776104D02*
X125408095Y-136680866D01*
X125408095Y-136680866D02*
X125455714Y-136633247D01*
X125455714Y-136633247D02*
X125550952Y-136585628D01*
X125550952Y-136585628D02*
X125741428Y-136538009D01*
X125741428Y-136538009D02*
X125836666Y-136490390D01*
X125836666Y-136490390D02*
X125884285Y-136442771D01*
X125884285Y-136442771D02*
X125931904Y-136347533D01*
X125931904Y-136347533D02*
X125931904Y-136252295D01*
X125931904Y-136252295D02*
X125884285Y-136157057D01*
X125884285Y-136157057D02*
X125836666Y-136109438D01*
X125836666Y-136109438D02*
X125741428Y-136061819D01*
X125741428Y-136061819D02*
X125503333Y-136061819D01*
X125503333Y-136061819D02*
X125360476Y-136109438D01*
X124789047Y-136490390D02*
X124884285Y-136442771D01*
X124884285Y-136442771D02*
X124931904Y-136395152D01*
X124931904Y-136395152D02*
X124979523Y-136299914D01*
X124979523Y-136299914D02*
X124979523Y-136252295D01*
X124979523Y-136252295D02*
X124931904Y-136157057D01*
X124931904Y-136157057D02*
X124884285Y-136109438D01*
X124884285Y-136109438D02*
X124789047Y-136061819D01*
X124789047Y-136061819D02*
X124598571Y-136061819D01*
X124598571Y-136061819D02*
X124503333Y-136109438D01*
X124503333Y-136109438D02*
X124455714Y-136157057D01*
X124455714Y-136157057D02*
X124408095Y-136252295D01*
X124408095Y-136252295D02*
X124408095Y-136299914D01*
X124408095Y-136299914D02*
X124455714Y-136395152D01*
X124455714Y-136395152D02*
X124503333Y-136442771D01*
X124503333Y-136442771D02*
X124598571Y-136490390D01*
X124598571Y-136490390D02*
X124789047Y-136490390D01*
X124789047Y-136490390D02*
X124884285Y-136538009D01*
X124884285Y-136538009D02*
X124931904Y-136585628D01*
X124931904Y-136585628D02*
X124979523Y-136680866D01*
X124979523Y-136680866D02*
X124979523Y-136871342D01*
X124979523Y-136871342D02*
X124931904Y-136966580D01*
X124931904Y-136966580D02*
X124884285Y-137014200D01*
X124884285Y-137014200D02*
X124789047Y-137061819D01*
X124789047Y-137061819D02*
X124598571Y-137061819D01*
X124598571Y-137061819D02*
X124503333Y-137014200D01*
X124503333Y-137014200D02*
X124455714Y-136966580D01*
X124455714Y-136966580D02*
X124408095Y-136871342D01*
X124408095Y-136871342D02*
X124408095Y-136680866D01*
X124408095Y-136680866D02*
X124455714Y-136585628D01*
X124455714Y-136585628D02*
X124503333Y-136538009D01*
X124503333Y-136538009D02*
X124598571Y-136490390D01*
X234669404Y-118014200D02*
X234526547Y-118061819D01*
X234526547Y-118061819D02*
X234288452Y-118061819D01*
X234288452Y-118061819D02*
X234193214Y-118014200D01*
X234193214Y-118014200D02*
X234145595Y-117966580D01*
X234145595Y-117966580D02*
X234097976Y-117871342D01*
X234097976Y-117871342D02*
X234097976Y-117776104D01*
X234097976Y-117776104D02*
X234145595Y-117680866D01*
X234145595Y-117680866D02*
X234193214Y-117633247D01*
X234193214Y-117633247D02*
X234288452Y-117585628D01*
X234288452Y-117585628D02*
X234478928Y-117538009D01*
X234478928Y-117538009D02*
X234574166Y-117490390D01*
X234574166Y-117490390D02*
X234621785Y-117442771D01*
X234621785Y-117442771D02*
X234669404Y-117347533D01*
X234669404Y-117347533D02*
X234669404Y-117252295D01*
X234669404Y-117252295D02*
X234621785Y-117157057D01*
X234621785Y-117157057D02*
X234574166Y-117109438D01*
X234574166Y-117109438D02*
X234478928Y-117061819D01*
X234478928Y-117061819D02*
X234240833Y-117061819D01*
X234240833Y-117061819D02*
X234097976Y-117109438D01*
X233764642Y-117061819D02*
X233097976Y-117061819D01*
X233097976Y-117061819D02*
X233526547Y-118061819D01*
X215669404Y-118014200D02*
X215526547Y-118061819D01*
X215526547Y-118061819D02*
X215288452Y-118061819D01*
X215288452Y-118061819D02*
X215193214Y-118014200D01*
X215193214Y-118014200D02*
X215145595Y-117966580D01*
X215145595Y-117966580D02*
X215097976Y-117871342D01*
X215097976Y-117871342D02*
X215097976Y-117776104D01*
X215097976Y-117776104D02*
X215145595Y-117680866D01*
X215145595Y-117680866D02*
X215193214Y-117633247D01*
X215193214Y-117633247D02*
X215288452Y-117585628D01*
X215288452Y-117585628D02*
X215478928Y-117538009D01*
X215478928Y-117538009D02*
X215574166Y-117490390D01*
X215574166Y-117490390D02*
X215621785Y-117442771D01*
X215621785Y-117442771D02*
X215669404Y-117347533D01*
X215669404Y-117347533D02*
X215669404Y-117252295D01*
X215669404Y-117252295D02*
X215621785Y-117157057D01*
X215621785Y-117157057D02*
X215574166Y-117109438D01*
X215574166Y-117109438D02*
X215478928Y-117061819D01*
X215478928Y-117061819D02*
X215240833Y-117061819D01*
X215240833Y-117061819D02*
X215097976Y-117109438D01*
X214240833Y-117061819D02*
X214431309Y-117061819D01*
X214431309Y-117061819D02*
X214526547Y-117109438D01*
X214526547Y-117109438D02*
X214574166Y-117157057D01*
X214574166Y-117157057D02*
X214669404Y-117299914D01*
X214669404Y-117299914D02*
X214717023Y-117490390D01*
X214717023Y-117490390D02*
X214717023Y-117871342D01*
X214717023Y-117871342D02*
X214669404Y-117966580D01*
X214669404Y-117966580D02*
X214621785Y-118014200D01*
X214621785Y-118014200D02*
X214526547Y-118061819D01*
X214526547Y-118061819D02*
X214336071Y-118061819D01*
X214336071Y-118061819D02*
X214240833Y-118014200D01*
X214240833Y-118014200D02*
X214193214Y-117966580D01*
X214193214Y-117966580D02*
X214145595Y-117871342D01*
X214145595Y-117871342D02*
X214145595Y-117633247D01*
X214145595Y-117633247D02*
X214193214Y-117538009D01*
X214193214Y-117538009D02*
X214240833Y-117490390D01*
X214240833Y-117490390D02*
X214336071Y-117442771D01*
X214336071Y-117442771D02*
X214526547Y-117442771D01*
X214526547Y-117442771D02*
X214621785Y-117490390D01*
X214621785Y-117490390D02*
X214669404Y-117538009D01*
X214669404Y-117538009D02*
X214717023Y-117633247D01*
X196669404Y-118014200D02*
X196526547Y-118061819D01*
X196526547Y-118061819D02*
X196288452Y-118061819D01*
X196288452Y-118061819D02*
X196193214Y-118014200D01*
X196193214Y-118014200D02*
X196145595Y-117966580D01*
X196145595Y-117966580D02*
X196097976Y-117871342D01*
X196097976Y-117871342D02*
X196097976Y-117776104D01*
X196097976Y-117776104D02*
X196145595Y-117680866D01*
X196145595Y-117680866D02*
X196193214Y-117633247D01*
X196193214Y-117633247D02*
X196288452Y-117585628D01*
X196288452Y-117585628D02*
X196478928Y-117538009D01*
X196478928Y-117538009D02*
X196574166Y-117490390D01*
X196574166Y-117490390D02*
X196621785Y-117442771D01*
X196621785Y-117442771D02*
X196669404Y-117347533D01*
X196669404Y-117347533D02*
X196669404Y-117252295D01*
X196669404Y-117252295D02*
X196621785Y-117157057D01*
X196621785Y-117157057D02*
X196574166Y-117109438D01*
X196574166Y-117109438D02*
X196478928Y-117061819D01*
X196478928Y-117061819D02*
X196240833Y-117061819D01*
X196240833Y-117061819D02*
X196097976Y-117109438D01*
X195193214Y-117061819D02*
X195669404Y-117061819D01*
X195669404Y-117061819D02*
X195717023Y-117538009D01*
X195717023Y-117538009D02*
X195669404Y-117490390D01*
X195669404Y-117490390D02*
X195574166Y-117442771D01*
X195574166Y-117442771D02*
X195336071Y-117442771D01*
X195336071Y-117442771D02*
X195240833Y-117490390D01*
X195240833Y-117490390D02*
X195193214Y-117538009D01*
X195193214Y-117538009D02*
X195145595Y-117633247D01*
X195145595Y-117633247D02*
X195145595Y-117871342D01*
X195145595Y-117871342D02*
X195193214Y-117966580D01*
X195193214Y-117966580D02*
X195240833Y-118014200D01*
X195240833Y-118014200D02*
X195336071Y-118061819D01*
X195336071Y-118061819D02*
X195574166Y-118061819D01*
X195574166Y-118061819D02*
X195669404Y-118014200D01*
X195669404Y-118014200D02*
X195717023Y-117966580D01*
X177669404Y-118014200D02*
X177526547Y-118061819D01*
X177526547Y-118061819D02*
X177288452Y-118061819D01*
X177288452Y-118061819D02*
X177193214Y-118014200D01*
X177193214Y-118014200D02*
X177145595Y-117966580D01*
X177145595Y-117966580D02*
X177097976Y-117871342D01*
X177097976Y-117871342D02*
X177097976Y-117776104D01*
X177097976Y-117776104D02*
X177145595Y-117680866D01*
X177145595Y-117680866D02*
X177193214Y-117633247D01*
X177193214Y-117633247D02*
X177288452Y-117585628D01*
X177288452Y-117585628D02*
X177478928Y-117538009D01*
X177478928Y-117538009D02*
X177574166Y-117490390D01*
X177574166Y-117490390D02*
X177621785Y-117442771D01*
X177621785Y-117442771D02*
X177669404Y-117347533D01*
X177669404Y-117347533D02*
X177669404Y-117252295D01*
X177669404Y-117252295D02*
X177621785Y-117157057D01*
X177621785Y-117157057D02*
X177574166Y-117109438D01*
X177574166Y-117109438D02*
X177478928Y-117061819D01*
X177478928Y-117061819D02*
X177240833Y-117061819D01*
X177240833Y-117061819D02*
X177097976Y-117109438D01*
X176240833Y-117395152D02*
X176240833Y-118061819D01*
X176478928Y-117014200D02*
X176717023Y-117728485D01*
X176717023Y-117728485D02*
X176097976Y-117728485D01*
X158669404Y-118014200D02*
X158526547Y-118061819D01*
X158526547Y-118061819D02*
X158288452Y-118061819D01*
X158288452Y-118061819D02*
X158193214Y-118014200D01*
X158193214Y-118014200D02*
X158145595Y-117966580D01*
X158145595Y-117966580D02*
X158097976Y-117871342D01*
X158097976Y-117871342D02*
X158097976Y-117776104D01*
X158097976Y-117776104D02*
X158145595Y-117680866D01*
X158145595Y-117680866D02*
X158193214Y-117633247D01*
X158193214Y-117633247D02*
X158288452Y-117585628D01*
X158288452Y-117585628D02*
X158478928Y-117538009D01*
X158478928Y-117538009D02*
X158574166Y-117490390D01*
X158574166Y-117490390D02*
X158621785Y-117442771D01*
X158621785Y-117442771D02*
X158669404Y-117347533D01*
X158669404Y-117347533D02*
X158669404Y-117252295D01*
X158669404Y-117252295D02*
X158621785Y-117157057D01*
X158621785Y-117157057D02*
X158574166Y-117109438D01*
X158574166Y-117109438D02*
X158478928Y-117061819D01*
X158478928Y-117061819D02*
X158240833Y-117061819D01*
X158240833Y-117061819D02*
X158097976Y-117109438D01*
X157764642Y-117061819D02*
X157145595Y-117061819D01*
X157145595Y-117061819D02*
X157478928Y-117442771D01*
X157478928Y-117442771D02*
X157336071Y-117442771D01*
X157336071Y-117442771D02*
X157240833Y-117490390D01*
X157240833Y-117490390D02*
X157193214Y-117538009D01*
X157193214Y-117538009D02*
X157145595Y-117633247D01*
X157145595Y-117633247D02*
X157145595Y-117871342D01*
X157145595Y-117871342D02*
X157193214Y-117966580D01*
X157193214Y-117966580D02*
X157240833Y-118014200D01*
X157240833Y-118014200D02*
X157336071Y-118061819D01*
X157336071Y-118061819D02*
X157621785Y-118061819D01*
X157621785Y-118061819D02*
X157717023Y-118014200D01*
X157717023Y-118014200D02*
X157764642Y-117966580D01*
X120669404Y-118014200D02*
X120526547Y-118061819D01*
X120526547Y-118061819D02*
X120288452Y-118061819D01*
X120288452Y-118061819D02*
X120193214Y-118014200D01*
X120193214Y-118014200D02*
X120145595Y-117966580D01*
X120145595Y-117966580D02*
X120097976Y-117871342D01*
X120097976Y-117871342D02*
X120097976Y-117776104D01*
X120097976Y-117776104D02*
X120145595Y-117680866D01*
X120145595Y-117680866D02*
X120193214Y-117633247D01*
X120193214Y-117633247D02*
X120288452Y-117585628D01*
X120288452Y-117585628D02*
X120478928Y-117538009D01*
X120478928Y-117538009D02*
X120574166Y-117490390D01*
X120574166Y-117490390D02*
X120621785Y-117442771D01*
X120621785Y-117442771D02*
X120669404Y-117347533D01*
X120669404Y-117347533D02*
X120669404Y-117252295D01*
X120669404Y-117252295D02*
X120621785Y-117157057D01*
X120621785Y-117157057D02*
X120574166Y-117109438D01*
X120574166Y-117109438D02*
X120478928Y-117061819D01*
X120478928Y-117061819D02*
X120240833Y-117061819D01*
X120240833Y-117061819D02*
X120097976Y-117109438D01*
X119145595Y-118061819D02*
X119717023Y-118061819D01*
X119431309Y-118061819D02*
X119431309Y-117061819D01*
X119431309Y-117061819D02*
X119526547Y-117204676D01*
X119526547Y-117204676D02*
X119621785Y-117299914D01*
X119621785Y-117299914D02*
X119717023Y-117347533D01*
X234240833Y-98986009D02*
X234574166Y-98986009D01*
X234574166Y-99509819D02*
X234574166Y-98509819D01*
X234574166Y-98509819D02*
X234097976Y-98509819D01*
X233288452Y-98509819D02*
X233478928Y-98509819D01*
X233478928Y-98509819D02*
X233574166Y-98557438D01*
X233574166Y-98557438D02*
X233621785Y-98605057D01*
X233621785Y-98605057D02*
X233717023Y-98747914D01*
X233717023Y-98747914D02*
X233764642Y-98938390D01*
X233764642Y-98938390D02*
X233764642Y-99319342D01*
X233764642Y-99319342D02*
X233717023Y-99414580D01*
X233717023Y-99414580D02*
X233669404Y-99462200D01*
X233669404Y-99462200D02*
X233574166Y-99509819D01*
X233574166Y-99509819D02*
X233383690Y-99509819D01*
X233383690Y-99509819D02*
X233288452Y-99462200D01*
X233288452Y-99462200D02*
X233240833Y-99414580D01*
X233240833Y-99414580D02*
X233193214Y-99319342D01*
X233193214Y-99319342D02*
X233193214Y-99081247D01*
X233193214Y-99081247D02*
X233240833Y-98986009D01*
X233240833Y-98986009D02*
X233288452Y-98938390D01*
X233288452Y-98938390D02*
X233383690Y-98890771D01*
X233383690Y-98890771D02*
X233574166Y-98890771D01*
X233574166Y-98890771D02*
X233669404Y-98938390D01*
X233669404Y-98938390D02*
X233717023Y-98986009D01*
X233717023Y-98986009D02*
X233764642Y-99081247D01*
X215240833Y-98986009D02*
X215574166Y-98986009D01*
X215574166Y-99509819D02*
X215574166Y-98509819D01*
X215574166Y-98509819D02*
X215097976Y-98509819D01*
X214240833Y-98509819D02*
X214717023Y-98509819D01*
X214717023Y-98509819D02*
X214764642Y-98986009D01*
X214764642Y-98986009D02*
X214717023Y-98938390D01*
X214717023Y-98938390D02*
X214621785Y-98890771D01*
X214621785Y-98890771D02*
X214383690Y-98890771D01*
X214383690Y-98890771D02*
X214288452Y-98938390D01*
X214288452Y-98938390D02*
X214240833Y-98986009D01*
X214240833Y-98986009D02*
X214193214Y-99081247D01*
X214193214Y-99081247D02*
X214193214Y-99319342D01*
X214193214Y-99319342D02*
X214240833Y-99414580D01*
X214240833Y-99414580D02*
X214288452Y-99462200D01*
X214288452Y-99462200D02*
X214383690Y-99509819D01*
X214383690Y-99509819D02*
X214621785Y-99509819D01*
X214621785Y-99509819D02*
X214717023Y-99462200D01*
X214717023Y-99462200D02*
X214764642Y-99414580D01*
X196240833Y-98986009D02*
X196574166Y-98986009D01*
X196574166Y-99509819D02*
X196574166Y-98509819D01*
X196574166Y-98509819D02*
X196097976Y-98509819D01*
X195288452Y-98843152D02*
X195288452Y-99509819D01*
X195526547Y-98462200D02*
X195764642Y-99176485D01*
X195764642Y-99176485D02*
X195145595Y-99176485D01*
X177240833Y-98986009D02*
X177574166Y-98986009D01*
X177574166Y-99509819D02*
X177574166Y-98509819D01*
X177574166Y-98509819D02*
X177097976Y-98509819D01*
X176812261Y-98509819D02*
X176193214Y-98509819D01*
X176193214Y-98509819D02*
X176526547Y-98890771D01*
X176526547Y-98890771D02*
X176383690Y-98890771D01*
X176383690Y-98890771D02*
X176288452Y-98938390D01*
X176288452Y-98938390D02*
X176240833Y-98986009D01*
X176240833Y-98986009D02*
X176193214Y-99081247D01*
X176193214Y-99081247D02*
X176193214Y-99319342D01*
X176193214Y-99319342D02*
X176240833Y-99414580D01*
X176240833Y-99414580D02*
X176288452Y-99462200D01*
X176288452Y-99462200D02*
X176383690Y-99509819D01*
X176383690Y-99509819D02*
X176669404Y-99509819D01*
X176669404Y-99509819D02*
X176764642Y-99462200D01*
X176764642Y-99462200D02*
X176812261Y-99414580D01*
X158240833Y-98986009D02*
X158574166Y-98986009D01*
X158574166Y-99509819D02*
X158574166Y-98509819D01*
X158574166Y-98509819D02*
X158097976Y-98509819D01*
X157764642Y-98605057D02*
X157717023Y-98557438D01*
X157717023Y-98557438D02*
X157621785Y-98509819D01*
X157621785Y-98509819D02*
X157383690Y-98509819D01*
X157383690Y-98509819D02*
X157288452Y-98557438D01*
X157288452Y-98557438D02*
X157240833Y-98605057D01*
X157240833Y-98605057D02*
X157193214Y-98700295D01*
X157193214Y-98700295D02*
X157193214Y-98795533D01*
X157193214Y-98795533D02*
X157240833Y-98938390D01*
X157240833Y-98938390D02*
X157812261Y-99509819D01*
X157812261Y-99509819D02*
X157193214Y-99509819D01*
X139240833Y-98986009D02*
X139574166Y-98986009D01*
X139574166Y-99509819D02*
X139574166Y-98509819D01*
X139574166Y-98509819D02*
X139097976Y-98509819D01*
X138193214Y-99509819D02*
X138764642Y-99509819D01*
X138478928Y-99509819D02*
X138478928Y-98509819D01*
X138478928Y-98509819D02*
X138574166Y-98652676D01*
X138574166Y-98652676D02*
X138669404Y-98747914D01*
X138669404Y-98747914D02*
X138764642Y-98795533D01*
X275070715Y-100156009D02*
X274737382Y-100156009D01*
X274594525Y-100679819D02*
X275070715Y-100679819D01*
X275070715Y-100679819D02*
X275070715Y-99679819D01*
X275070715Y-99679819D02*
X274594525Y-99679819D01*
X274261191Y-100679819D02*
X273737382Y-100013152D01*
X274261191Y-100013152D02*
X273737382Y-100679819D01*
X273499286Y-100013152D02*
X273118334Y-100013152D01*
X273356429Y-99679819D02*
X273356429Y-100536961D01*
X273356429Y-100536961D02*
X273308810Y-100632200D01*
X273308810Y-100632200D02*
X273213572Y-100679819D01*
X273213572Y-100679819D02*
X273118334Y-100679819D01*
X272785000Y-100679819D02*
X272785000Y-100013152D01*
X272785000Y-100203628D02*
X272737381Y-100108390D01*
X272737381Y-100108390D02*
X272689762Y-100060771D01*
X272689762Y-100060771D02*
X272594524Y-100013152D01*
X272594524Y-100013152D02*
X272499286Y-100013152D01*
X271737381Y-100679819D02*
X271737381Y-100156009D01*
X271737381Y-100156009D02*
X271785000Y-100060771D01*
X271785000Y-100060771D02*
X271880238Y-100013152D01*
X271880238Y-100013152D02*
X272070714Y-100013152D01*
X272070714Y-100013152D02*
X272165952Y-100060771D01*
X271737381Y-100632200D02*
X271832619Y-100679819D01*
X271832619Y-100679819D02*
X272070714Y-100679819D01*
X272070714Y-100679819D02*
X272165952Y-100632200D01*
X272165952Y-100632200D02*
X272213571Y-100536961D01*
X272213571Y-100536961D02*
X272213571Y-100441723D01*
X272213571Y-100441723D02*
X272165952Y-100346485D01*
X272165952Y-100346485D02*
X272070714Y-100298866D01*
X272070714Y-100298866D02*
X271832619Y-100298866D01*
X271832619Y-100298866D02*
X271737381Y-100251247D01*
X270927857Y-100156009D02*
X270785000Y-100203628D01*
X270785000Y-100203628D02*
X270737381Y-100251247D01*
X270737381Y-100251247D02*
X270689762Y-100346485D01*
X270689762Y-100346485D02*
X270689762Y-100489342D01*
X270689762Y-100489342D02*
X270737381Y-100584580D01*
X270737381Y-100584580D02*
X270785000Y-100632200D01*
X270785000Y-100632200D02*
X270880238Y-100679819D01*
X270880238Y-100679819D02*
X271261190Y-100679819D01*
X271261190Y-100679819D02*
X271261190Y-99679819D01*
X271261190Y-99679819D02*
X270927857Y-99679819D01*
X270927857Y-99679819D02*
X270832619Y-99727438D01*
X270832619Y-99727438D02*
X270785000Y-99775057D01*
X270785000Y-99775057D02*
X270737381Y-99870295D01*
X270737381Y-99870295D02*
X270737381Y-99965533D01*
X270737381Y-99965533D02*
X270785000Y-100060771D01*
X270785000Y-100060771D02*
X270832619Y-100108390D01*
X270832619Y-100108390D02*
X270927857Y-100156009D01*
X270927857Y-100156009D02*
X271261190Y-100156009D01*
X269832619Y-100013152D02*
X269832619Y-100679819D01*
X270261190Y-100013152D02*
X270261190Y-100536961D01*
X270261190Y-100536961D02*
X270213571Y-100632200D01*
X270213571Y-100632200D02*
X270118333Y-100679819D01*
X270118333Y-100679819D02*
X269975476Y-100679819D01*
X269975476Y-100679819D02*
X269880238Y-100632200D01*
X269880238Y-100632200D02*
X269832619Y-100584580D01*
X269499285Y-100013152D02*
X269118333Y-100013152D01*
X269356428Y-99679819D02*
X269356428Y-100536961D01*
X269356428Y-100536961D02*
X269308809Y-100632200D01*
X269308809Y-100632200D02*
X269213571Y-100679819D01*
X269213571Y-100679819D02*
X269118333Y-100679819D01*
X268927856Y-100013152D02*
X268546904Y-100013152D01*
X268784999Y-99679819D02*
X268784999Y-100536961D01*
X268784999Y-100536961D02*
X268737380Y-100632200D01*
X268737380Y-100632200D02*
X268642142Y-100679819D01*
X268642142Y-100679819D02*
X268546904Y-100679819D01*
X268070713Y-100679819D02*
X268165951Y-100632200D01*
X268165951Y-100632200D02*
X268213570Y-100584580D01*
X268213570Y-100584580D02*
X268261189Y-100489342D01*
X268261189Y-100489342D02*
X268261189Y-100203628D01*
X268261189Y-100203628D02*
X268213570Y-100108390D01*
X268213570Y-100108390D02*
X268165951Y-100060771D01*
X268165951Y-100060771D02*
X268070713Y-100013152D01*
X268070713Y-100013152D02*
X267927856Y-100013152D01*
X267927856Y-100013152D02*
X267832618Y-100060771D01*
X267832618Y-100060771D02*
X267784999Y-100108390D01*
X267784999Y-100108390D02*
X267737380Y-100203628D01*
X267737380Y-100203628D02*
X267737380Y-100489342D01*
X267737380Y-100489342D02*
X267784999Y-100584580D01*
X267784999Y-100584580D02*
X267832618Y-100632200D01*
X267832618Y-100632200D02*
X267927856Y-100679819D01*
X267927856Y-100679819D02*
X268070713Y-100679819D01*
X267308808Y-100013152D02*
X267308808Y-100679819D01*
X267308808Y-100108390D02*
X267261189Y-100060771D01*
X267261189Y-100060771D02*
X267165951Y-100013152D01*
X267165951Y-100013152D02*
X267023094Y-100013152D01*
X267023094Y-100013152D02*
X266927856Y-100060771D01*
X266927856Y-100060771D02*
X266880237Y-100156009D01*
X266880237Y-100156009D02*
X266880237Y-100679819D01*
X266451665Y-100632200D02*
X266356427Y-100679819D01*
X266356427Y-100679819D02*
X266165951Y-100679819D01*
X266165951Y-100679819D02*
X266070713Y-100632200D01*
X266070713Y-100632200D02*
X266023094Y-100536961D01*
X266023094Y-100536961D02*
X266023094Y-100489342D01*
X266023094Y-100489342D02*
X266070713Y-100394104D01*
X266070713Y-100394104D02*
X266165951Y-100346485D01*
X266165951Y-100346485D02*
X266308808Y-100346485D01*
X266308808Y-100346485D02*
X266404046Y-100298866D01*
X266404046Y-100298866D02*
X266451665Y-100203628D01*
X266451665Y-100203628D02*
X266451665Y-100156009D01*
X266451665Y-100156009D02*
X266404046Y-100060771D01*
X266404046Y-100060771D02*
X266308808Y-100013152D01*
X266308808Y-100013152D02*
X266165951Y-100013152D01*
X266165951Y-100013152D02*
X266070713Y-100060771D01*
X265642141Y-100632200D02*
X265499284Y-100679819D01*
X265499284Y-100679819D02*
X265261189Y-100679819D01*
X265261189Y-100679819D02*
X265165951Y-100632200D01*
X265165951Y-100632200D02*
X265118332Y-100584580D01*
X265118332Y-100584580D02*
X265070713Y-100489342D01*
X265070713Y-100489342D02*
X265070713Y-100394104D01*
X265070713Y-100394104D02*
X265118332Y-100298866D01*
X265118332Y-100298866D02*
X265165951Y-100251247D01*
X265165951Y-100251247D02*
X265261189Y-100203628D01*
X265261189Y-100203628D02*
X265451665Y-100156009D01*
X265451665Y-100156009D02*
X265546903Y-100108390D01*
X265546903Y-100108390D02*
X265594522Y-100060771D01*
X265594522Y-100060771D02*
X265642141Y-99965533D01*
X265642141Y-99965533D02*
X265642141Y-99870295D01*
X265642141Y-99870295D02*
X265594522Y-99775057D01*
X265594522Y-99775057D02*
X265546903Y-99727438D01*
X265546903Y-99727438D02*
X265451665Y-99679819D01*
X265451665Y-99679819D02*
X265213570Y-99679819D01*
X265213570Y-99679819D02*
X265070713Y-99727438D01*
X264261189Y-100632200D02*
X264356427Y-100679819D01*
X264356427Y-100679819D02*
X264546903Y-100679819D01*
X264546903Y-100679819D02*
X264642141Y-100632200D01*
X264642141Y-100632200D02*
X264689760Y-100536961D01*
X264689760Y-100536961D02*
X264689760Y-100156009D01*
X264689760Y-100156009D02*
X264642141Y-100060771D01*
X264642141Y-100060771D02*
X264546903Y-100013152D01*
X264546903Y-100013152D02*
X264356427Y-100013152D01*
X264356427Y-100013152D02*
X264261189Y-100060771D01*
X264261189Y-100060771D02*
X264213570Y-100156009D01*
X264213570Y-100156009D02*
X264213570Y-100251247D01*
X264213570Y-100251247D02*
X264689760Y-100346485D01*
X263642141Y-100679819D02*
X263737379Y-100632200D01*
X263737379Y-100632200D02*
X263784998Y-100536961D01*
X263784998Y-100536961D02*
X263784998Y-99679819D01*
X262880236Y-100632200D02*
X262975474Y-100679819D01*
X262975474Y-100679819D02*
X263165950Y-100679819D01*
X263165950Y-100679819D02*
X263261188Y-100632200D01*
X263261188Y-100632200D02*
X263308807Y-100536961D01*
X263308807Y-100536961D02*
X263308807Y-100156009D01*
X263308807Y-100156009D02*
X263261188Y-100060771D01*
X263261188Y-100060771D02*
X263165950Y-100013152D01*
X263165950Y-100013152D02*
X262975474Y-100013152D01*
X262975474Y-100013152D02*
X262880236Y-100060771D01*
X262880236Y-100060771D02*
X262832617Y-100156009D01*
X262832617Y-100156009D02*
X262832617Y-100251247D01*
X262832617Y-100251247D02*
X263308807Y-100346485D01*
X261975474Y-100632200D02*
X262070712Y-100679819D01*
X262070712Y-100679819D02*
X262261188Y-100679819D01*
X262261188Y-100679819D02*
X262356426Y-100632200D01*
X262356426Y-100632200D02*
X262404045Y-100584580D01*
X262404045Y-100584580D02*
X262451664Y-100489342D01*
X262451664Y-100489342D02*
X262451664Y-100203628D01*
X262451664Y-100203628D02*
X262404045Y-100108390D01*
X262404045Y-100108390D02*
X262356426Y-100060771D01*
X262356426Y-100060771D02*
X262261188Y-100013152D01*
X262261188Y-100013152D02*
X262070712Y-100013152D01*
X262070712Y-100013152D02*
X261975474Y-100060771D01*
X261689759Y-100013152D02*
X261308807Y-100013152D01*
X261546902Y-99679819D02*
X261546902Y-100536961D01*
X261546902Y-100536961D02*
X261499283Y-100632200D01*
X261499283Y-100632200D02*
X261404045Y-100679819D01*
X261404045Y-100679819D02*
X261308807Y-100679819D01*
X260451664Y-100679819D02*
X261023092Y-100679819D01*
X260737378Y-100679819D02*
X260737378Y-99679819D01*
X260737378Y-99679819D02*
X260832616Y-99822676D01*
X260832616Y-99822676D02*
X260927854Y-99917914D01*
X260927854Y-99917914D02*
X261023092Y-99965533D01*
X271550476Y-102454819D02*
X272026666Y-102454819D01*
X272026666Y-102454819D02*
X272026666Y-101454819D01*
X264800476Y-102454819D02*
X265133809Y-101978628D01*
X265371904Y-102454819D02*
X265371904Y-101454819D01*
X265371904Y-101454819D02*
X264990952Y-101454819D01*
X264990952Y-101454819D02*
X264895714Y-101502438D01*
X264895714Y-101502438D02*
X264848095Y-101550057D01*
X264848095Y-101550057D02*
X264800476Y-101645295D01*
X264800476Y-101645295D02*
X264800476Y-101788152D01*
X264800476Y-101788152D02*
X264848095Y-101883390D01*
X264848095Y-101883390D02*
X264895714Y-101931009D01*
X264895714Y-101931009D02*
X264990952Y-101978628D01*
X264990952Y-101978628D02*
X265371904Y-101978628D01*
X139669404Y-118014200D02*
X139526547Y-118061819D01*
X139526547Y-118061819D02*
X139288452Y-118061819D01*
X139288452Y-118061819D02*
X139193214Y-118014200D01*
X139193214Y-118014200D02*
X139145595Y-117966580D01*
X139145595Y-117966580D02*
X139097976Y-117871342D01*
X139097976Y-117871342D02*
X139097976Y-117776104D01*
X139097976Y-117776104D02*
X139145595Y-117680866D01*
X139145595Y-117680866D02*
X139193214Y-117633247D01*
X139193214Y-117633247D02*
X139288452Y-117585628D01*
X139288452Y-117585628D02*
X139478928Y-117538009D01*
X139478928Y-117538009D02*
X139574166Y-117490390D01*
X139574166Y-117490390D02*
X139621785Y-117442771D01*
X139621785Y-117442771D02*
X139669404Y-117347533D01*
X139669404Y-117347533D02*
X139669404Y-117252295D01*
X139669404Y-117252295D02*
X139621785Y-117157057D01*
X139621785Y-117157057D02*
X139574166Y-117109438D01*
X139574166Y-117109438D02*
X139478928Y-117061819D01*
X139478928Y-117061819D02*
X139240833Y-117061819D01*
X139240833Y-117061819D02*
X139097976Y-117109438D01*
X138717023Y-117157057D02*
X138669404Y-117109438D01*
X138669404Y-117109438D02*
X138574166Y-117061819D01*
X138574166Y-117061819D02*
X138336071Y-117061819D01*
X138336071Y-117061819D02*
X138240833Y-117109438D01*
X138240833Y-117109438D02*
X138193214Y-117157057D01*
X138193214Y-117157057D02*
X138145595Y-117252295D01*
X138145595Y-117252295D02*
X138145595Y-117347533D01*
X138145595Y-117347533D02*
X138193214Y-117490390D01*
X138193214Y-117490390D02*
X138764642Y-118061819D01*
X138764642Y-118061819D02*
X138145595Y-118061819D01*
X236317094Y-156014200D02*
X236174237Y-156061819D01*
X236174237Y-156061819D02*
X235936142Y-156061819D01*
X235936142Y-156061819D02*
X235840904Y-156014200D01*
X235840904Y-156014200D02*
X235793285Y-155966580D01*
X235793285Y-155966580D02*
X235745666Y-155871342D01*
X235745666Y-155871342D02*
X235745666Y-155776104D01*
X235745666Y-155776104D02*
X235793285Y-155680866D01*
X235793285Y-155680866D02*
X235840904Y-155633247D01*
X235840904Y-155633247D02*
X235936142Y-155585628D01*
X235936142Y-155585628D02*
X236126618Y-155538009D01*
X236126618Y-155538009D02*
X236221856Y-155490390D01*
X236221856Y-155490390D02*
X236269475Y-155442771D01*
X236269475Y-155442771D02*
X236317094Y-155347533D01*
X236317094Y-155347533D02*
X236317094Y-155252295D01*
X236317094Y-155252295D02*
X236269475Y-155157057D01*
X236269475Y-155157057D02*
X236221856Y-155109438D01*
X236221856Y-155109438D02*
X236126618Y-155061819D01*
X236126618Y-155061819D02*
X235888523Y-155061819D01*
X235888523Y-155061819D02*
X235745666Y-155109438D01*
X235364713Y-155157057D02*
X235317094Y-155109438D01*
X235317094Y-155109438D02*
X235221856Y-155061819D01*
X235221856Y-155061819D02*
X234983761Y-155061819D01*
X234983761Y-155061819D02*
X234888523Y-155109438D01*
X234888523Y-155109438D02*
X234840904Y-155157057D01*
X234840904Y-155157057D02*
X234793285Y-155252295D01*
X234793285Y-155252295D02*
X234793285Y-155347533D01*
X234793285Y-155347533D02*
X234840904Y-155490390D01*
X234840904Y-155490390D02*
X235412332Y-156061819D01*
X235412332Y-156061819D02*
X234793285Y-156061819D01*
X234174237Y-155061819D02*
X234078999Y-155061819D01*
X234078999Y-155061819D02*
X233983761Y-155109438D01*
X233983761Y-155109438D02*
X233936142Y-155157057D01*
X233936142Y-155157057D02*
X233888523Y-155252295D01*
X233888523Y-155252295D02*
X233840904Y-155442771D01*
X233840904Y-155442771D02*
X233840904Y-155680866D01*
X233840904Y-155680866D02*
X233888523Y-155871342D01*
X233888523Y-155871342D02*
X233936142Y-155966580D01*
X233936142Y-155966580D02*
X233983761Y-156014200D01*
X233983761Y-156014200D02*
X234078999Y-156061819D01*
X234078999Y-156061819D02*
X234174237Y-156061819D01*
X234174237Y-156061819D02*
X234269475Y-156014200D01*
X234269475Y-156014200D02*
X234317094Y-155966580D01*
X234317094Y-155966580D02*
X234364713Y-155871342D01*
X234364713Y-155871342D02*
X234412332Y-155680866D01*
X234412332Y-155680866D02*
X234412332Y-155442771D01*
X234412332Y-155442771D02*
X234364713Y-155252295D01*
X234364713Y-155252295D02*
X234317094Y-155157057D01*
X234317094Y-155157057D02*
X234269475Y-155109438D01*
X234269475Y-155109438D02*
X234174237Y-155061819D01*
%TO.C,Extra_Function_Key1*%
X259907500Y-97800000D02*
X258907500Y-97800000D01*
X259907500Y-83800000D02*
X259907500Y-84800000D01*
X245907500Y-97800000D02*
X245907500Y-97404000D01*
X258907500Y-83800000D02*
X259907500Y-83800000D01*
X245907500Y-84800000D02*
X245907500Y-83800000D01*
X245907500Y-83800000D02*
X246907500Y-83800000D01*
X246907500Y-97800000D02*
X245907500Y-97800000D01*
X259907500Y-96800000D02*
X259907500Y-97800000D01*
X259257500Y-95245000D02*
G75*
G02*
X256717500Y-97785000I-2540000J0D01*
G01*
X255368768Y-91427503D02*
G75*
G02*
X252907500Y-93340000I-2461268J627503D01*
G01*
X259257500Y-95245000D02*
X259257500Y-94864000D01*
X259257500Y-91816000D02*
X259257500Y-91435000D01*
X259257500Y-91435000D02*
X258876500Y-91435000D01*
X257098500Y-91435000D02*
X255447500Y-91435000D01*
X252907500Y-93340000D02*
X247827500Y-93340000D01*
X247827500Y-93340000D02*
X247827500Y-94356000D01*
X247827500Y-97404000D02*
X247827500Y-97785000D01*
X247827500Y-97785000D02*
X256717500Y-97785000D01*
%TO.C,S35*%
X126907500Y-97800000D02*
X125907500Y-97800000D01*
X126907500Y-83800000D02*
X126907500Y-84800000D01*
X112907500Y-97800000D02*
X112907500Y-97404000D01*
X125907500Y-83800000D02*
X126907500Y-83800000D01*
X112907500Y-84800000D02*
X112907500Y-83800000D01*
X112907500Y-83800000D02*
X113907500Y-83800000D01*
X113907500Y-97800000D02*
X112907500Y-97800000D01*
X126907500Y-96800000D02*
X126907500Y-97800000D01*
X126257500Y-95245000D02*
G75*
G02*
X123717500Y-97785000I-2540000J0D01*
G01*
X122368768Y-91427503D02*
G75*
G02*
X119907500Y-93340000I-2461268J627503D01*
G01*
X126257500Y-95245000D02*
X126257500Y-94864000D01*
X126257500Y-91816000D02*
X126257500Y-91435000D01*
X126257500Y-91435000D02*
X125876500Y-91435000D01*
X124098500Y-91435000D02*
X122447500Y-91435000D01*
X119907500Y-93340000D02*
X114827500Y-93340000D01*
X114827500Y-93340000D02*
X114827500Y-94356000D01*
X114827500Y-97404000D02*
X114827500Y-97785000D01*
X114827500Y-97785000D02*
X123717500Y-97785000D01*
%TO.C,S33*%
X259907500Y-116352000D02*
X258907500Y-116352000D01*
X259907500Y-102352000D02*
X259907500Y-103352000D01*
X245907500Y-116352000D02*
X245907500Y-115956000D01*
X258907500Y-102352000D02*
X259907500Y-102352000D01*
X245907500Y-103352000D02*
X245907500Y-102352000D01*
X245907500Y-102352000D02*
X246907500Y-102352000D01*
X246907500Y-116352000D02*
X245907500Y-116352000D01*
X259907500Y-115352000D02*
X259907500Y-116352000D01*
X259257500Y-113797000D02*
G75*
G02*
X256717500Y-116337000I-2540000J0D01*
G01*
X255368768Y-109979503D02*
G75*
G02*
X252907500Y-111892000I-2461268J627503D01*
G01*
X259257500Y-113797000D02*
X259257500Y-113416000D01*
X259257500Y-110368000D02*
X259257500Y-109987000D01*
X259257500Y-109987000D02*
X258876500Y-109987000D01*
X257098500Y-109987000D02*
X255447500Y-109987000D01*
X252907500Y-111892000D02*
X247827500Y-111892000D01*
X247827500Y-111892000D02*
X247827500Y-112908000D01*
X247827500Y-115956000D02*
X247827500Y-116337000D01*
X247827500Y-116337000D02*
X256717500Y-116337000D01*
%TO.C,S32*%
X234275500Y-192352000D02*
X233275500Y-192352000D01*
X234275500Y-178352000D02*
X234275500Y-179352000D01*
X220275500Y-192352000D02*
X220275500Y-191956000D01*
X233275500Y-178352000D02*
X234275500Y-178352000D01*
X220275500Y-179352000D02*
X220275500Y-178352000D01*
X220275500Y-178352000D02*
X221275500Y-178352000D01*
X221275500Y-192352000D02*
X220275500Y-192352000D01*
X234275500Y-191352000D02*
X234275500Y-192352000D01*
X233625500Y-189797000D02*
G75*
G02*
X231085500Y-192337000I-2540000J0D01*
G01*
X229736768Y-185979503D02*
G75*
G02*
X227275500Y-187892000I-2461268J627503D01*
G01*
X233625500Y-189797000D02*
X233625500Y-189416000D01*
X233625500Y-186368000D02*
X233625500Y-185987000D01*
X233625500Y-185987000D02*
X233244500Y-185987000D01*
X231466500Y-185987000D02*
X229815500Y-185987000D01*
X227275500Y-187892000D02*
X222195500Y-187892000D01*
X222195500Y-187892000D02*
X222195500Y-188908000D01*
X222195500Y-191956000D02*
X222195500Y-192337000D01*
X222195500Y-192337000D02*
X231085500Y-192337000D01*
%TO.C,S31*%
X195725500Y-192352000D02*
X194725500Y-192352000D01*
X195725500Y-178352000D02*
X195725500Y-179352000D01*
X181725500Y-192352000D02*
X181725500Y-191956000D01*
X194725500Y-178352000D02*
X195725500Y-178352000D01*
X181725500Y-179352000D02*
X181725500Y-178352000D01*
X181725500Y-178352000D02*
X182725500Y-178352000D01*
X182725500Y-192352000D02*
X181725500Y-192352000D01*
X195725500Y-191352000D02*
X195725500Y-192352000D01*
X195075500Y-189797000D02*
G75*
G02*
X192535500Y-192337000I-2540000J0D01*
G01*
X191186768Y-185979503D02*
G75*
G02*
X188725500Y-187892000I-2461268J627503D01*
G01*
X195075500Y-189797000D02*
X195075500Y-189416000D01*
X195075500Y-186368000D02*
X195075500Y-185987000D01*
X195075500Y-185987000D02*
X194694500Y-185987000D01*
X192916500Y-185987000D02*
X191265500Y-185987000D01*
X188725500Y-187892000D02*
X183645500Y-187892000D01*
X183645500Y-187892000D02*
X183645500Y-188908000D01*
X183645500Y-191956000D02*
X183645500Y-192337000D01*
X183645500Y-192337000D02*
X192535500Y-192337000D01*
%TO.C,S30*%
X171341500Y-192352000D02*
X170341500Y-192352000D01*
X171341500Y-178352000D02*
X171341500Y-179352000D01*
X157341500Y-192352000D02*
X157341500Y-191956000D01*
X170341500Y-178352000D02*
X171341500Y-178352000D01*
X157341500Y-179352000D02*
X157341500Y-178352000D01*
X157341500Y-178352000D02*
X158341500Y-178352000D01*
X158341500Y-192352000D02*
X157341500Y-192352000D01*
X171341500Y-191352000D02*
X171341500Y-192352000D01*
X170691500Y-189797000D02*
G75*
G02*
X168151500Y-192337000I-2540000J0D01*
G01*
X166802768Y-185979503D02*
G75*
G02*
X164341500Y-187892000I-2461268J627503D01*
G01*
X170691500Y-189797000D02*
X170691500Y-189416000D01*
X170691500Y-186368000D02*
X170691500Y-185987000D01*
X170691500Y-185987000D02*
X170310500Y-185987000D01*
X168532500Y-185987000D02*
X166881500Y-185987000D01*
X164341500Y-187892000D02*
X159261500Y-187892000D01*
X159261500Y-187892000D02*
X159261500Y-188908000D01*
X159261500Y-191956000D02*
X159261500Y-192337000D01*
X159261500Y-192337000D02*
X168151500Y-192337000D01*
%TO.C,S29*%
X136932500Y-192352000D02*
X135932500Y-192352000D01*
X136932500Y-178352000D02*
X136932500Y-179352000D01*
X122932500Y-192352000D02*
X122932500Y-191956000D01*
X135932500Y-178352000D02*
X136932500Y-178352000D01*
X122932500Y-179352000D02*
X122932500Y-178352000D01*
X122932500Y-178352000D02*
X123932500Y-178352000D01*
X123932500Y-192352000D02*
X122932500Y-192352000D01*
X136932500Y-191352000D02*
X136932500Y-192352000D01*
X136282500Y-189797000D02*
G75*
G02*
X133742500Y-192337000I-2540000J0D01*
G01*
X132393768Y-185979503D02*
G75*
G02*
X129932500Y-187892000I-2461268J627503D01*
G01*
X136282500Y-189797000D02*
X136282500Y-189416000D01*
X136282500Y-186368000D02*
X136282500Y-185987000D01*
X136282500Y-185987000D02*
X135901500Y-185987000D01*
X134123500Y-185987000D02*
X132472500Y-185987000D01*
X129932500Y-187892000D02*
X124852500Y-187892000D01*
X124852500Y-187892000D02*
X124852500Y-188908000D01*
X124852500Y-191956000D02*
X124852500Y-192337000D01*
X124852500Y-192337000D02*
X133742500Y-192337000D01*
%TO.C,S28*%
X270604000Y-173352000D02*
X269604000Y-173352000D01*
X270604000Y-159352000D02*
X270604000Y-160352000D01*
X256604000Y-173352000D02*
X256604000Y-172956000D01*
X269604000Y-159352000D02*
X270604000Y-159352000D01*
X256604000Y-160352000D02*
X256604000Y-159352000D01*
X256604000Y-159352000D02*
X257604000Y-159352000D01*
X257604000Y-173352000D02*
X256604000Y-173352000D01*
X270604000Y-172352000D02*
X270604000Y-173352000D01*
X269954000Y-170797000D02*
G75*
G02*
X267414000Y-173337000I-2540000J0D01*
G01*
X266065268Y-166979503D02*
G75*
G02*
X263604000Y-168892000I-2461268J627503D01*
G01*
X269954000Y-170797000D02*
X269954000Y-170416000D01*
X269954000Y-167368000D02*
X269954000Y-166987000D01*
X269954000Y-166987000D02*
X269573000Y-166987000D01*
X267795000Y-166987000D02*
X266144000Y-166987000D01*
X263604000Y-168892000D02*
X258524000Y-168892000D01*
X258524000Y-168892000D02*
X258524000Y-169908000D01*
X258524000Y-172956000D02*
X258524000Y-173337000D01*
X258524000Y-173337000D02*
X267414000Y-173337000D01*
%TO.C,S27*%
X251604000Y-173352000D02*
X250604000Y-173352000D01*
X251604000Y-159352000D02*
X251604000Y-160352000D01*
X237604000Y-173352000D02*
X237604000Y-172956000D01*
X250604000Y-159352000D02*
X251604000Y-159352000D01*
X237604000Y-160352000D02*
X237604000Y-159352000D01*
X237604000Y-159352000D02*
X238604000Y-159352000D01*
X238604000Y-173352000D02*
X237604000Y-173352000D01*
X251604000Y-172352000D02*
X251604000Y-173352000D01*
X250954000Y-170797000D02*
G75*
G02*
X248414000Y-173337000I-2540000J0D01*
G01*
X247065268Y-166979503D02*
G75*
G02*
X244604000Y-168892000I-2461268J627503D01*
G01*
X250954000Y-170797000D02*
X250954000Y-170416000D01*
X250954000Y-167368000D02*
X250954000Y-166987000D01*
X250954000Y-166987000D02*
X250573000Y-166987000D01*
X248795000Y-166987000D02*
X247144000Y-166987000D01*
X244604000Y-168892000D02*
X239524000Y-168892000D01*
X239524000Y-168892000D02*
X239524000Y-169908000D01*
X239524000Y-172956000D02*
X239524000Y-173337000D01*
X239524000Y-173337000D02*
X248414000Y-173337000D01*
%TO.C,S26*%
X232604000Y-173352000D02*
X231604000Y-173352000D01*
X232604000Y-159352000D02*
X232604000Y-160352000D01*
X218604000Y-173352000D02*
X218604000Y-172956000D01*
X231604000Y-159352000D02*
X232604000Y-159352000D01*
X218604000Y-160352000D02*
X218604000Y-159352000D01*
X218604000Y-159352000D02*
X219604000Y-159352000D01*
X219604000Y-173352000D02*
X218604000Y-173352000D01*
X232604000Y-172352000D02*
X232604000Y-173352000D01*
X231954000Y-170797000D02*
G75*
G02*
X229414000Y-173337000I-2540000J0D01*
G01*
X228065268Y-166979503D02*
G75*
G02*
X225604000Y-168892000I-2461268J627503D01*
G01*
X231954000Y-170797000D02*
X231954000Y-170416000D01*
X231954000Y-167368000D02*
X231954000Y-166987000D01*
X231954000Y-166987000D02*
X231573000Y-166987000D01*
X229795000Y-166987000D02*
X228144000Y-166987000D01*
X225604000Y-168892000D02*
X220524000Y-168892000D01*
X220524000Y-168892000D02*
X220524000Y-169908000D01*
X220524000Y-172956000D02*
X220524000Y-173337000D01*
X220524000Y-173337000D02*
X229414000Y-173337000D01*
%TO.C,S25*%
X213604000Y-173352000D02*
X212604000Y-173352000D01*
X213604000Y-159352000D02*
X213604000Y-160352000D01*
X199604000Y-173352000D02*
X199604000Y-172956000D01*
X212604000Y-159352000D02*
X213604000Y-159352000D01*
X199604000Y-160352000D02*
X199604000Y-159352000D01*
X199604000Y-159352000D02*
X200604000Y-159352000D01*
X200604000Y-173352000D02*
X199604000Y-173352000D01*
X213604000Y-172352000D02*
X213604000Y-173352000D01*
X212954000Y-170797000D02*
G75*
G02*
X210414000Y-173337000I-2540000J0D01*
G01*
X209065268Y-166979503D02*
G75*
G02*
X206604000Y-168892000I-2461268J627503D01*
G01*
X212954000Y-170797000D02*
X212954000Y-170416000D01*
X212954000Y-167368000D02*
X212954000Y-166987000D01*
X212954000Y-166987000D02*
X212573000Y-166987000D01*
X210795000Y-166987000D02*
X209144000Y-166987000D01*
X206604000Y-168892000D02*
X201524000Y-168892000D01*
X201524000Y-168892000D02*
X201524000Y-169908000D01*
X201524000Y-172956000D02*
X201524000Y-173337000D01*
X201524000Y-173337000D02*
X210414000Y-173337000D01*
%TO.C,S24*%
X194604000Y-173352000D02*
X193604000Y-173352000D01*
X194604000Y-159352000D02*
X194604000Y-160352000D01*
X180604000Y-173352000D02*
X180604000Y-172956000D01*
X193604000Y-159352000D02*
X194604000Y-159352000D01*
X180604000Y-160352000D02*
X180604000Y-159352000D01*
X180604000Y-159352000D02*
X181604000Y-159352000D01*
X181604000Y-173352000D02*
X180604000Y-173352000D01*
X194604000Y-172352000D02*
X194604000Y-173352000D01*
X193954000Y-170797000D02*
G75*
G02*
X191414000Y-173337000I-2540000J0D01*
G01*
X190065268Y-166979503D02*
G75*
G02*
X187604000Y-168892000I-2461268J627503D01*
G01*
X193954000Y-170797000D02*
X193954000Y-170416000D01*
X193954000Y-167368000D02*
X193954000Y-166987000D01*
X193954000Y-166987000D02*
X193573000Y-166987000D01*
X191795000Y-166987000D02*
X190144000Y-166987000D01*
X187604000Y-168892000D02*
X182524000Y-168892000D01*
X182524000Y-168892000D02*
X182524000Y-169908000D01*
X182524000Y-172956000D02*
X182524000Y-173337000D01*
X182524000Y-173337000D02*
X191414000Y-173337000D01*
%TO.C,S23*%
X175604000Y-173352000D02*
X174604000Y-173352000D01*
X175604000Y-159352000D02*
X175604000Y-160352000D01*
X161604000Y-173352000D02*
X161604000Y-172956000D01*
X174604000Y-159352000D02*
X175604000Y-159352000D01*
X161604000Y-160352000D02*
X161604000Y-159352000D01*
X161604000Y-159352000D02*
X162604000Y-159352000D01*
X162604000Y-173352000D02*
X161604000Y-173352000D01*
X175604000Y-172352000D02*
X175604000Y-173352000D01*
X174954000Y-170797000D02*
G75*
G02*
X172414000Y-173337000I-2540000J0D01*
G01*
X171065268Y-166979503D02*
G75*
G02*
X168604000Y-168892000I-2461268J627503D01*
G01*
X174954000Y-170797000D02*
X174954000Y-170416000D01*
X174954000Y-167368000D02*
X174954000Y-166987000D01*
X174954000Y-166987000D02*
X174573000Y-166987000D01*
X172795000Y-166987000D02*
X171144000Y-166987000D01*
X168604000Y-168892000D02*
X163524000Y-168892000D01*
X163524000Y-168892000D02*
X163524000Y-169908000D01*
X163524000Y-172956000D02*
X163524000Y-173337000D01*
X163524000Y-173337000D02*
X172414000Y-173337000D01*
%TO.C,S22*%
X141695000Y-173352000D02*
X140695000Y-173352000D01*
X141695000Y-159352000D02*
X141695000Y-160352000D01*
X127695000Y-173352000D02*
X127695000Y-172956000D01*
X140695000Y-159352000D02*
X141695000Y-159352000D01*
X127695000Y-160352000D02*
X127695000Y-159352000D01*
X127695000Y-159352000D02*
X128695000Y-159352000D01*
X128695000Y-173352000D02*
X127695000Y-173352000D01*
X141695000Y-172352000D02*
X141695000Y-173352000D01*
X141045000Y-170797000D02*
G75*
G02*
X138505000Y-173337000I-2540000J0D01*
G01*
X137156268Y-166979503D02*
G75*
G02*
X134695000Y-168892000I-2461268J627503D01*
G01*
X141045000Y-170797000D02*
X141045000Y-170416000D01*
X141045000Y-167368000D02*
X141045000Y-166987000D01*
X141045000Y-166987000D02*
X140664000Y-166987000D01*
X138886000Y-166987000D02*
X137235000Y-166987000D01*
X134695000Y-168892000D02*
X129615000Y-168892000D01*
X129615000Y-168892000D02*
X129615000Y-169908000D01*
X129615000Y-172956000D02*
X129615000Y-173337000D01*
X129615000Y-173337000D02*
X138505000Y-173337000D01*
%TO.C,S21*%
X261079000Y-154352000D02*
X260079000Y-154352000D01*
X261079000Y-140352000D02*
X261079000Y-141352000D01*
X247079000Y-154352000D02*
X247079000Y-153956000D01*
X260079000Y-140352000D02*
X261079000Y-140352000D01*
X247079000Y-141352000D02*
X247079000Y-140352000D01*
X247079000Y-140352000D02*
X248079000Y-140352000D01*
X248079000Y-154352000D02*
X247079000Y-154352000D01*
X261079000Y-153352000D02*
X261079000Y-154352000D01*
X260429000Y-151797000D02*
G75*
G02*
X257889000Y-154337000I-2540000J0D01*
G01*
X256540268Y-147979503D02*
G75*
G02*
X254079000Y-149892000I-2461268J627503D01*
G01*
X260429000Y-151797000D02*
X260429000Y-151416000D01*
X260429000Y-148368000D02*
X260429000Y-147987000D01*
X260429000Y-147987000D02*
X260048000Y-147987000D01*
X258270000Y-147987000D02*
X256619000Y-147987000D01*
X254079000Y-149892000D02*
X248999000Y-149892000D01*
X248999000Y-149892000D02*
X248999000Y-150908000D01*
X248999000Y-153956000D02*
X248999000Y-154337000D01*
X248999000Y-154337000D02*
X257889000Y-154337000D01*
%TO.C,S19*%
X223079000Y-154352000D02*
X222079000Y-154352000D01*
X223079000Y-140352000D02*
X223079000Y-141352000D01*
X209079000Y-154352000D02*
X209079000Y-153956000D01*
X222079000Y-140352000D02*
X223079000Y-140352000D01*
X209079000Y-141352000D02*
X209079000Y-140352000D01*
X209079000Y-140352000D02*
X210079000Y-140352000D01*
X210079000Y-154352000D02*
X209079000Y-154352000D01*
X223079000Y-153352000D02*
X223079000Y-154352000D01*
X222429000Y-151797000D02*
G75*
G02*
X219889000Y-154337000I-2540000J0D01*
G01*
X218540268Y-147979503D02*
G75*
G02*
X216079000Y-149892000I-2461268J627503D01*
G01*
X222429000Y-151797000D02*
X222429000Y-151416000D01*
X222429000Y-148368000D02*
X222429000Y-147987000D01*
X222429000Y-147987000D02*
X222048000Y-147987000D01*
X220270000Y-147987000D02*
X218619000Y-147987000D01*
X216079000Y-149892000D02*
X210999000Y-149892000D01*
X210999000Y-149892000D02*
X210999000Y-150908000D01*
X210999000Y-153956000D02*
X210999000Y-154337000D01*
X210999000Y-154337000D02*
X219889000Y-154337000D01*
%TO.C,S18*%
X204079000Y-154352000D02*
X203079000Y-154352000D01*
X204079000Y-140352000D02*
X204079000Y-141352000D01*
X190079000Y-154352000D02*
X190079000Y-153956000D01*
X203079000Y-140352000D02*
X204079000Y-140352000D01*
X190079000Y-141352000D02*
X190079000Y-140352000D01*
X190079000Y-140352000D02*
X191079000Y-140352000D01*
X191079000Y-154352000D02*
X190079000Y-154352000D01*
X204079000Y-153352000D02*
X204079000Y-154352000D01*
X203429000Y-151797000D02*
G75*
G02*
X200889000Y-154337000I-2540000J0D01*
G01*
X199540268Y-147979503D02*
G75*
G02*
X197079000Y-149892000I-2461268J627503D01*
G01*
X203429000Y-151797000D02*
X203429000Y-151416000D01*
X203429000Y-148368000D02*
X203429000Y-147987000D01*
X203429000Y-147987000D02*
X203048000Y-147987000D01*
X201270000Y-147987000D02*
X199619000Y-147987000D01*
X197079000Y-149892000D02*
X191999000Y-149892000D01*
X191999000Y-149892000D02*
X191999000Y-150908000D01*
X191999000Y-153956000D02*
X191999000Y-154337000D01*
X191999000Y-154337000D02*
X200889000Y-154337000D01*
%TO.C,S17*%
X185079000Y-154352000D02*
X184079000Y-154352000D01*
X185079000Y-140352000D02*
X185079000Y-141352000D01*
X171079000Y-154352000D02*
X171079000Y-153956000D01*
X184079000Y-140352000D02*
X185079000Y-140352000D01*
X171079000Y-141352000D02*
X171079000Y-140352000D01*
X171079000Y-140352000D02*
X172079000Y-140352000D01*
X172079000Y-154352000D02*
X171079000Y-154352000D01*
X185079000Y-153352000D02*
X185079000Y-154352000D01*
X184429000Y-151797000D02*
G75*
G02*
X181889000Y-154337000I-2540000J0D01*
G01*
X180540268Y-147979503D02*
G75*
G02*
X178079000Y-149892000I-2461268J627503D01*
G01*
X184429000Y-151797000D02*
X184429000Y-151416000D01*
X184429000Y-148368000D02*
X184429000Y-147987000D01*
X184429000Y-147987000D02*
X184048000Y-147987000D01*
X182270000Y-147987000D02*
X180619000Y-147987000D01*
X178079000Y-149892000D02*
X172999000Y-149892000D01*
X172999000Y-149892000D02*
X172999000Y-150908000D01*
X172999000Y-153956000D02*
X172999000Y-154337000D01*
X172999000Y-154337000D02*
X181889000Y-154337000D01*
%TO.C,S16*%
X166079000Y-154352000D02*
X165079000Y-154352000D01*
X166079000Y-140352000D02*
X166079000Y-141352000D01*
X152079000Y-154352000D02*
X152079000Y-153956000D01*
X165079000Y-140352000D02*
X166079000Y-140352000D01*
X152079000Y-141352000D02*
X152079000Y-140352000D01*
X152079000Y-140352000D02*
X153079000Y-140352000D01*
X153079000Y-154352000D02*
X152079000Y-154352000D01*
X166079000Y-153352000D02*
X166079000Y-154352000D01*
X165429000Y-151797000D02*
G75*
G02*
X162889000Y-154337000I-2540000J0D01*
G01*
X161540268Y-147979503D02*
G75*
G02*
X159079000Y-149892000I-2461268J627503D01*
G01*
X165429000Y-151797000D02*
X165429000Y-151416000D01*
X165429000Y-148368000D02*
X165429000Y-147987000D01*
X165429000Y-147987000D02*
X165048000Y-147987000D01*
X163270000Y-147987000D02*
X161619000Y-147987000D01*
X159079000Y-149892000D02*
X153999000Y-149892000D01*
X153999000Y-149892000D02*
X153999000Y-150908000D01*
X153999000Y-153956000D02*
X153999000Y-154337000D01*
X153999000Y-154337000D02*
X162889000Y-154337000D01*
%TO.C,S15*%
X136932500Y-154352000D02*
X135932500Y-154352000D01*
X136932500Y-140352000D02*
X136932500Y-141352000D01*
X122932500Y-154352000D02*
X122932500Y-153956000D01*
X135932500Y-140352000D02*
X136932500Y-140352000D01*
X122932500Y-141352000D02*
X122932500Y-140352000D01*
X122932500Y-140352000D02*
X123932500Y-140352000D01*
X123932500Y-154352000D02*
X122932500Y-154352000D01*
X136932500Y-153352000D02*
X136932500Y-154352000D01*
X136282500Y-151797000D02*
G75*
G02*
X133742500Y-154337000I-2540000J0D01*
G01*
X132393768Y-147979503D02*
G75*
G02*
X129932500Y-149892000I-2461268J627503D01*
G01*
X136282500Y-151797000D02*
X136282500Y-151416000D01*
X136282500Y-148368000D02*
X136282500Y-147987000D01*
X136282500Y-147987000D02*
X135901500Y-147987000D01*
X134123500Y-147987000D02*
X132472500Y-147987000D01*
X129932500Y-149892000D02*
X124852500Y-149892000D01*
X124852500Y-149892000D02*
X124852500Y-150908000D01*
X124852500Y-153956000D02*
X124852500Y-154337000D01*
X124852500Y-154337000D02*
X133742500Y-154337000D01*
%TO.C,S14*%
X239474000Y-135337000D02*
X248364000Y-135337000D01*
X239474000Y-134956000D02*
X239474000Y-135337000D01*
X239474000Y-130892000D02*
X239474000Y-131908000D01*
X244554000Y-130892000D02*
X239474000Y-130892000D01*
X248745000Y-128987000D02*
X247094000Y-128987000D01*
X250904000Y-128987000D02*
X250523000Y-128987000D01*
X250904000Y-129368000D02*
X250904000Y-128987000D01*
X250904000Y-132797000D02*
X250904000Y-132416000D01*
X247015268Y-128979503D02*
G75*
G02*
X244554000Y-130892000I-2461268J627503D01*
G01*
X250904000Y-132797000D02*
G75*
G02*
X248364000Y-135337000I-2540000J0D01*
G01*
X251554000Y-134352000D02*
X251554000Y-135352000D01*
X238554000Y-135352000D02*
X237554000Y-135352000D01*
X237554000Y-121352000D02*
X238554000Y-121352000D01*
X237554000Y-122352000D02*
X237554000Y-121352000D01*
X250554000Y-121352000D02*
X251554000Y-121352000D01*
X237554000Y-135352000D02*
X237554000Y-134956000D01*
X251554000Y-121352000D02*
X251554000Y-122352000D01*
X251554000Y-135352000D02*
X250554000Y-135352000D01*
%TO.C,S13*%
X232554000Y-135352000D02*
X231554000Y-135352000D01*
X232554000Y-121352000D02*
X232554000Y-122352000D01*
X218554000Y-135352000D02*
X218554000Y-134956000D01*
X231554000Y-121352000D02*
X232554000Y-121352000D01*
X218554000Y-122352000D02*
X218554000Y-121352000D01*
X218554000Y-121352000D02*
X219554000Y-121352000D01*
X219554000Y-135352000D02*
X218554000Y-135352000D01*
X232554000Y-134352000D02*
X232554000Y-135352000D01*
X231904000Y-132797000D02*
G75*
G02*
X229364000Y-135337000I-2540000J0D01*
G01*
X228015268Y-128979503D02*
G75*
G02*
X225554000Y-130892000I-2461268J627503D01*
G01*
X231904000Y-132797000D02*
X231904000Y-132416000D01*
X231904000Y-129368000D02*
X231904000Y-128987000D01*
X231904000Y-128987000D02*
X231523000Y-128987000D01*
X229745000Y-128987000D02*
X228094000Y-128987000D01*
X225554000Y-130892000D02*
X220474000Y-130892000D01*
X220474000Y-130892000D02*
X220474000Y-131908000D01*
X220474000Y-134956000D02*
X220474000Y-135337000D01*
X220474000Y-135337000D02*
X229364000Y-135337000D01*
%TO.C,S12*%
X213554000Y-135352000D02*
X212554000Y-135352000D01*
X213554000Y-121352000D02*
X213554000Y-122352000D01*
X199554000Y-135352000D02*
X199554000Y-134956000D01*
X212554000Y-121352000D02*
X213554000Y-121352000D01*
X199554000Y-122352000D02*
X199554000Y-121352000D01*
X199554000Y-121352000D02*
X200554000Y-121352000D01*
X200554000Y-135352000D02*
X199554000Y-135352000D01*
X213554000Y-134352000D02*
X213554000Y-135352000D01*
X212904000Y-132797000D02*
G75*
G02*
X210364000Y-135337000I-2540000J0D01*
G01*
X209015268Y-128979503D02*
G75*
G02*
X206554000Y-130892000I-2461268J627503D01*
G01*
X212904000Y-132797000D02*
X212904000Y-132416000D01*
X212904000Y-129368000D02*
X212904000Y-128987000D01*
X212904000Y-128987000D02*
X212523000Y-128987000D01*
X210745000Y-128987000D02*
X209094000Y-128987000D01*
X206554000Y-130892000D02*
X201474000Y-130892000D01*
X201474000Y-130892000D02*
X201474000Y-131908000D01*
X201474000Y-134956000D02*
X201474000Y-135337000D01*
X201474000Y-135337000D02*
X210364000Y-135337000D01*
%TO.C,S11*%
X194554000Y-135352000D02*
X193554000Y-135352000D01*
X194554000Y-121352000D02*
X194554000Y-122352000D01*
X180554000Y-135352000D02*
X180554000Y-134956000D01*
X193554000Y-121352000D02*
X194554000Y-121352000D01*
X180554000Y-122352000D02*
X180554000Y-121352000D01*
X180554000Y-121352000D02*
X181554000Y-121352000D01*
X181554000Y-135352000D02*
X180554000Y-135352000D01*
X194554000Y-134352000D02*
X194554000Y-135352000D01*
X193904000Y-132797000D02*
G75*
G02*
X191364000Y-135337000I-2540000J0D01*
G01*
X190015268Y-128979503D02*
G75*
G02*
X187554000Y-130892000I-2461268J627503D01*
G01*
X193904000Y-132797000D02*
X193904000Y-132416000D01*
X193904000Y-129368000D02*
X193904000Y-128987000D01*
X193904000Y-128987000D02*
X193523000Y-128987000D01*
X191745000Y-128987000D02*
X190094000Y-128987000D01*
X187554000Y-130892000D02*
X182474000Y-130892000D01*
X182474000Y-130892000D02*
X182474000Y-131908000D01*
X182474000Y-134956000D02*
X182474000Y-135337000D01*
X182474000Y-135337000D02*
X191364000Y-135337000D01*
%TO.C,S10*%
X175554000Y-135352000D02*
X174554000Y-135352000D01*
X175554000Y-121352000D02*
X175554000Y-122352000D01*
X161554000Y-135352000D02*
X161554000Y-134956000D01*
X174554000Y-121352000D02*
X175554000Y-121352000D01*
X161554000Y-122352000D02*
X161554000Y-121352000D01*
X161554000Y-121352000D02*
X162554000Y-121352000D01*
X162554000Y-135352000D02*
X161554000Y-135352000D01*
X175554000Y-134352000D02*
X175554000Y-135352000D01*
X174904000Y-132797000D02*
G75*
G02*
X172364000Y-135337000I-2540000J0D01*
G01*
X171015268Y-128979503D02*
G75*
G02*
X168554000Y-130892000I-2461268J627503D01*
G01*
X174904000Y-132797000D02*
X174904000Y-132416000D01*
X174904000Y-129368000D02*
X174904000Y-128987000D01*
X174904000Y-128987000D02*
X174523000Y-128987000D01*
X172745000Y-128987000D02*
X171094000Y-128987000D01*
X168554000Y-130892000D02*
X163474000Y-130892000D01*
X163474000Y-130892000D02*
X163474000Y-131908000D01*
X163474000Y-134956000D02*
X163474000Y-135337000D01*
X163474000Y-135337000D02*
X172364000Y-135337000D01*
%TO.C,S9*%
X156554000Y-135352000D02*
X155554000Y-135352000D01*
X156554000Y-121352000D02*
X156554000Y-122352000D01*
X142554000Y-135352000D02*
X142554000Y-134956000D01*
X155554000Y-121352000D02*
X156554000Y-121352000D01*
X142554000Y-122352000D02*
X142554000Y-121352000D01*
X142554000Y-121352000D02*
X143554000Y-121352000D01*
X143554000Y-135352000D02*
X142554000Y-135352000D01*
X156554000Y-134352000D02*
X156554000Y-135352000D01*
X155904000Y-132797000D02*
G75*
G02*
X153364000Y-135337000I-2540000J0D01*
G01*
X152015268Y-128979503D02*
G75*
G02*
X149554000Y-130892000I-2461268J627503D01*
G01*
X155904000Y-132797000D02*
X155904000Y-132416000D01*
X155904000Y-129368000D02*
X155904000Y-128987000D01*
X155904000Y-128987000D02*
X155523000Y-128987000D01*
X153745000Y-128987000D02*
X152094000Y-128987000D01*
X149554000Y-130892000D02*
X144474000Y-130892000D01*
X144474000Y-130892000D02*
X144474000Y-131908000D01*
X144474000Y-134956000D02*
X144474000Y-135337000D01*
X144474000Y-135337000D02*
X153364000Y-135337000D01*
%TO.C,S8*%
X132170000Y-135352000D02*
X131170000Y-135352000D01*
X132170000Y-121352000D02*
X132170000Y-122352000D01*
X118170000Y-135352000D02*
X118170000Y-134956000D01*
X131170000Y-121352000D02*
X132170000Y-121352000D01*
X118170000Y-122352000D02*
X118170000Y-121352000D01*
X118170000Y-121352000D02*
X119170000Y-121352000D01*
X119170000Y-135352000D02*
X118170000Y-135352000D01*
X132170000Y-134352000D02*
X132170000Y-135352000D01*
X131520000Y-132797000D02*
G75*
G02*
X128980000Y-135337000I-2540000J0D01*
G01*
X127631268Y-128979503D02*
G75*
G02*
X125170000Y-130892000I-2461268J627503D01*
G01*
X131520000Y-132797000D02*
X131520000Y-132416000D01*
X131520000Y-129368000D02*
X131520000Y-128987000D01*
X131520000Y-128987000D02*
X131139000Y-128987000D01*
X129361000Y-128987000D02*
X127710000Y-128987000D01*
X125170000Y-130892000D02*
X120090000Y-130892000D01*
X120090000Y-130892000D02*
X120090000Y-131908000D01*
X120090000Y-134956000D02*
X120090000Y-135337000D01*
X120090000Y-135337000D02*
X128980000Y-135337000D01*
%TO.C,S7*%
X240907500Y-116352000D02*
X239907500Y-116352000D01*
X240907500Y-102352000D02*
X240907500Y-103352000D01*
X226907500Y-116352000D02*
X226907500Y-115956000D01*
X239907500Y-102352000D02*
X240907500Y-102352000D01*
X226907500Y-103352000D02*
X226907500Y-102352000D01*
X226907500Y-102352000D02*
X227907500Y-102352000D01*
X227907500Y-116352000D02*
X226907500Y-116352000D01*
X240907500Y-115352000D02*
X240907500Y-116352000D01*
X240257500Y-113797000D02*
G75*
G02*
X237717500Y-116337000I-2540000J0D01*
G01*
X236368768Y-109979503D02*
G75*
G02*
X233907500Y-111892000I-2461268J627503D01*
G01*
X240257500Y-113797000D02*
X240257500Y-113416000D01*
X240257500Y-110368000D02*
X240257500Y-109987000D01*
X240257500Y-109987000D02*
X239876500Y-109987000D01*
X238098500Y-109987000D02*
X236447500Y-109987000D01*
X233907500Y-111892000D02*
X228827500Y-111892000D01*
X228827500Y-111892000D02*
X228827500Y-112908000D01*
X228827500Y-115956000D02*
X228827500Y-116337000D01*
X228827500Y-116337000D02*
X237717500Y-116337000D01*
%TO.C,S6*%
X221907500Y-116352000D02*
X220907500Y-116352000D01*
X221907500Y-102352000D02*
X221907500Y-103352000D01*
X207907500Y-116352000D02*
X207907500Y-115956000D01*
X220907500Y-102352000D02*
X221907500Y-102352000D01*
X207907500Y-103352000D02*
X207907500Y-102352000D01*
X207907500Y-102352000D02*
X208907500Y-102352000D01*
X208907500Y-116352000D02*
X207907500Y-116352000D01*
X221907500Y-115352000D02*
X221907500Y-116352000D01*
X221257500Y-113797000D02*
G75*
G02*
X218717500Y-116337000I-2540000J0D01*
G01*
X217368768Y-109979503D02*
G75*
G02*
X214907500Y-111892000I-2461268J627503D01*
G01*
X221257500Y-113797000D02*
X221257500Y-113416000D01*
X221257500Y-110368000D02*
X221257500Y-109987000D01*
X221257500Y-109987000D02*
X220876500Y-109987000D01*
X219098500Y-109987000D02*
X217447500Y-109987000D01*
X214907500Y-111892000D02*
X209827500Y-111892000D01*
X209827500Y-111892000D02*
X209827500Y-112908000D01*
X209827500Y-115956000D02*
X209827500Y-116337000D01*
X209827500Y-116337000D02*
X218717500Y-116337000D01*
%TO.C,S5*%
X202907500Y-116352000D02*
X201907500Y-116352000D01*
X202907500Y-102352000D02*
X202907500Y-103352000D01*
X188907500Y-116352000D02*
X188907500Y-115956000D01*
X201907500Y-102352000D02*
X202907500Y-102352000D01*
X188907500Y-103352000D02*
X188907500Y-102352000D01*
X188907500Y-102352000D02*
X189907500Y-102352000D01*
X189907500Y-116352000D02*
X188907500Y-116352000D01*
X202907500Y-115352000D02*
X202907500Y-116352000D01*
X202257500Y-113797000D02*
G75*
G02*
X199717500Y-116337000I-2540000J0D01*
G01*
X198368768Y-109979503D02*
G75*
G02*
X195907500Y-111892000I-2461268J627503D01*
G01*
X202257500Y-113797000D02*
X202257500Y-113416000D01*
X202257500Y-110368000D02*
X202257500Y-109987000D01*
X202257500Y-109987000D02*
X201876500Y-109987000D01*
X200098500Y-109987000D02*
X198447500Y-109987000D01*
X195907500Y-111892000D02*
X190827500Y-111892000D01*
X190827500Y-111892000D02*
X190827500Y-112908000D01*
X190827500Y-115956000D02*
X190827500Y-116337000D01*
X190827500Y-116337000D02*
X199717500Y-116337000D01*
%TO.C,S4*%
X183907500Y-116352000D02*
X182907500Y-116352000D01*
X183907500Y-102352000D02*
X183907500Y-103352000D01*
X169907500Y-116352000D02*
X169907500Y-115956000D01*
X182907500Y-102352000D02*
X183907500Y-102352000D01*
X169907500Y-103352000D02*
X169907500Y-102352000D01*
X169907500Y-102352000D02*
X170907500Y-102352000D01*
X170907500Y-116352000D02*
X169907500Y-116352000D01*
X183907500Y-115352000D02*
X183907500Y-116352000D01*
X183257500Y-113797000D02*
G75*
G02*
X180717500Y-116337000I-2540000J0D01*
G01*
X179368768Y-109979503D02*
G75*
G02*
X176907500Y-111892000I-2461268J627503D01*
G01*
X183257500Y-113797000D02*
X183257500Y-113416000D01*
X183257500Y-110368000D02*
X183257500Y-109987000D01*
X183257500Y-109987000D02*
X182876500Y-109987000D01*
X181098500Y-109987000D02*
X179447500Y-109987000D01*
X176907500Y-111892000D02*
X171827500Y-111892000D01*
X171827500Y-111892000D02*
X171827500Y-112908000D01*
X171827500Y-115956000D02*
X171827500Y-116337000D01*
X171827500Y-116337000D02*
X180717500Y-116337000D01*
%TO.C,S3*%
X164907500Y-116352000D02*
X163907500Y-116352000D01*
X164907500Y-102352000D02*
X164907500Y-103352000D01*
X150907500Y-116352000D02*
X150907500Y-115956000D01*
X163907500Y-102352000D02*
X164907500Y-102352000D01*
X150907500Y-103352000D02*
X150907500Y-102352000D01*
X150907500Y-102352000D02*
X151907500Y-102352000D01*
X151907500Y-116352000D02*
X150907500Y-116352000D01*
X164907500Y-115352000D02*
X164907500Y-116352000D01*
X164257500Y-113797000D02*
G75*
G02*
X161717500Y-116337000I-2540000J0D01*
G01*
X160368768Y-109979503D02*
G75*
G02*
X157907500Y-111892000I-2461268J627503D01*
G01*
X164257500Y-113797000D02*
X164257500Y-113416000D01*
X164257500Y-110368000D02*
X164257500Y-109987000D01*
X164257500Y-109987000D02*
X163876500Y-109987000D01*
X162098500Y-109987000D02*
X160447500Y-109987000D01*
X157907500Y-111892000D02*
X152827500Y-111892000D01*
X152827500Y-111892000D02*
X152827500Y-112908000D01*
X152827500Y-115956000D02*
X152827500Y-116337000D01*
X152827500Y-116337000D02*
X161717500Y-116337000D01*
%TO.C,S1*%
X126907500Y-116352000D02*
X125907500Y-116352000D01*
X126907500Y-102352000D02*
X126907500Y-103352000D01*
X112907500Y-116352000D02*
X112907500Y-115956000D01*
X125907500Y-102352000D02*
X126907500Y-102352000D01*
X112907500Y-103352000D02*
X112907500Y-102352000D01*
X112907500Y-102352000D02*
X113907500Y-102352000D01*
X113907500Y-116352000D02*
X112907500Y-116352000D01*
X126907500Y-115352000D02*
X126907500Y-116352000D01*
X126257500Y-113797000D02*
G75*
G02*
X123717500Y-116337000I-2540000J0D01*
G01*
X122368768Y-109979503D02*
G75*
G02*
X119907500Y-111892000I-2461268J627503D01*
G01*
X126257500Y-113797000D02*
X126257500Y-113416000D01*
X126257500Y-110368000D02*
X126257500Y-109987000D01*
X126257500Y-109987000D02*
X125876500Y-109987000D01*
X124098500Y-109987000D02*
X122447500Y-109987000D01*
X119907500Y-111892000D02*
X114827500Y-111892000D01*
X114827500Y-111892000D02*
X114827500Y-112908000D01*
X114827500Y-115956000D02*
X114827500Y-116337000D01*
X114827500Y-116337000D02*
X123717500Y-116337000D01*
%TO.C,F6*%
X240907500Y-97800000D02*
X239907500Y-97800000D01*
X240907500Y-83800000D02*
X240907500Y-84800000D01*
X226907500Y-97800000D02*
X226907500Y-97404000D01*
X239907500Y-83800000D02*
X240907500Y-83800000D01*
X226907500Y-84800000D02*
X226907500Y-83800000D01*
X226907500Y-83800000D02*
X227907500Y-83800000D01*
X227907500Y-97800000D02*
X226907500Y-97800000D01*
X240907500Y-96800000D02*
X240907500Y-97800000D01*
X240257500Y-95245000D02*
G75*
G02*
X237717500Y-97785000I-2540000J0D01*
G01*
X236368768Y-91427503D02*
G75*
G02*
X233907500Y-93340000I-2461268J627503D01*
G01*
X240257500Y-95245000D02*
X240257500Y-94864000D01*
X240257500Y-91816000D02*
X240257500Y-91435000D01*
X240257500Y-91435000D02*
X239876500Y-91435000D01*
X238098500Y-91435000D02*
X236447500Y-91435000D01*
X233907500Y-93340000D02*
X228827500Y-93340000D01*
X228827500Y-93340000D02*
X228827500Y-94356000D01*
X228827500Y-97404000D02*
X228827500Y-97785000D01*
X228827500Y-97785000D02*
X237717500Y-97785000D01*
%TO.C,F5*%
X221907500Y-97800000D02*
X220907500Y-97800000D01*
X221907500Y-83800000D02*
X221907500Y-84800000D01*
X207907500Y-97800000D02*
X207907500Y-97404000D01*
X220907500Y-83800000D02*
X221907500Y-83800000D01*
X207907500Y-84800000D02*
X207907500Y-83800000D01*
X207907500Y-83800000D02*
X208907500Y-83800000D01*
X208907500Y-97800000D02*
X207907500Y-97800000D01*
X221907500Y-96800000D02*
X221907500Y-97800000D01*
X221257500Y-95245000D02*
G75*
G02*
X218717500Y-97785000I-2540000J0D01*
G01*
X217368768Y-91427503D02*
G75*
G02*
X214907500Y-93340000I-2461268J627503D01*
G01*
X221257500Y-95245000D02*
X221257500Y-94864000D01*
X221257500Y-91816000D02*
X221257500Y-91435000D01*
X221257500Y-91435000D02*
X220876500Y-91435000D01*
X219098500Y-91435000D02*
X217447500Y-91435000D01*
X214907500Y-93340000D02*
X209827500Y-93340000D01*
X209827500Y-93340000D02*
X209827500Y-94356000D01*
X209827500Y-97404000D02*
X209827500Y-97785000D01*
X209827500Y-97785000D02*
X218717500Y-97785000D01*
%TO.C,F4*%
X202907500Y-97800000D02*
X201907500Y-97800000D01*
X202907500Y-83800000D02*
X202907500Y-84800000D01*
X188907500Y-97800000D02*
X188907500Y-97404000D01*
X201907500Y-83800000D02*
X202907500Y-83800000D01*
X188907500Y-84800000D02*
X188907500Y-83800000D01*
X188907500Y-83800000D02*
X189907500Y-83800000D01*
X189907500Y-97800000D02*
X188907500Y-97800000D01*
X202907500Y-96800000D02*
X202907500Y-97800000D01*
X202257500Y-95245000D02*
G75*
G02*
X199717500Y-97785000I-2540000J0D01*
G01*
X198368768Y-91427503D02*
G75*
G02*
X195907500Y-93340000I-2461268J627503D01*
G01*
X202257500Y-95245000D02*
X202257500Y-94864000D01*
X202257500Y-91816000D02*
X202257500Y-91435000D01*
X202257500Y-91435000D02*
X201876500Y-91435000D01*
X200098500Y-91435000D02*
X198447500Y-91435000D01*
X195907500Y-93340000D02*
X190827500Y-93340000D01*
X190827500Y-93340000D02*
X190827500Y-94356000D01*
X190827500Y-97404000D02*
X190827500Y-97785000D01*
X190827500Y-97785000D02*
X199717500Y-97785000D01*
%TO.C,F3*%
X183907500Y-97800000D02*
X182907500Y-97800000D01*
X183907500Y-83800000D02*
X183907500Y-84800000D01*
X169907500Y-97800000D02*
X169907500Y-97404000D01*
X182907500Y-83800000D02*
X183907500Y-83800000D01*
X169907500Y-84800000D02*
X169907500Y-83800000D01*
X169907500Y-83800000D02*
X170907500Y-83800000D01*
X170907500Y-97800000D02*
X169907500Y-97800000D01*
X183907500Y-96800000D02*
X183907500Y-97800000D01*
X183257500Y-95245000D02*
G75*
G02*
X180717500Y-97785000I-2540000J0D01*
G01*
X179368768Y-91427503D02*
G75*
G02*
X176907500Y-93340000I-2461268J627503D01*
G01*
X183257500Y-95245000D02*
X183257500Y-94864000D01*
X183257500Y-91816000D02*
X183257500Y-91435000D01*
X183257500Y-91435000D02*
X182876500Y-91435000D01*
X181098500Y-91435000D02*
X179447500Y-91435000D01*
X176907500Y-93340000D02*
X171827500Y-93340000D01*
X171827500Y-93340000D02*
X171827500Y-94356000D01*
X171827500Y-97404000D02*
X171827500Y-97785000D01*
X171827500Y-97785000D02*
X180717500Y-97785000D01*
%TO.C,F2*%
X164907500Y-97800000D02*
X163907500Y-97800000D01*
X164907500Y-83800000D02*
X164907500Y-84800000D01*
X150907500Y-97800000D02*
X150907500Y-97404000D01*
X163907500Y-83800000D02*
X164907500Y-83800000D01*
X150907500Y-84800000D02*
X150907500Y-83800000D01*
X150907500Y-83800000D02*
X151907500Y-83800000D01*
X151907500Y-97800000D02*
X150907500Y-97800000D01*
X164907500Y-96800000D02*
X164907500Y-97800000D01*
X164257500Y-95245000D02*
G75*
G02*
X161717500Y-97785000I-2540000J0D01*
G01*
X160368768Y-91427503D02*
G75*
G02*
X157907500Y-93340000I-2461268J627503D01*
G01*
X164257500Y-95245000D02*
X164257500Y-94864000D01*
X164257500Y-91816000D02*
X164257500Y-91435000D01*
X164257500Y-91435000D02*
X163876500Y-91435000D01*
X162098500Y-91435000D02*
X160447500Y-91435000D01*
X157907500Y-93340000D02*
X152827500Y-93340000D01*
X152827500Y-93340000D02*
X152827500Y-94356000D01*
X152827500Y-97404000D02*
X152827500Y-97785000D01*
X152827500Y-97785000D02*
X161717500Y-97785000D01*
%TO.C,F1*%
X145907500Y-97800000D02*
X144907500Y-97800000D01*
X145907500Y-83800000D02*
X145907500Y-84800000D01*
X131907500Y-97800000D02*
X131907500Y-97404000D01*
X144907500Y-83800000D02*
X145907500Y-83800000D01*
X131907500Y-84800000D02*
X131907500Y-83800000D01*
X131907500Y-83800000D02*
X132907500Y-83800000D01*
X132907500Y-97800000D02*
X131907500Y-97800000D01*
X145907500Y-96800000D02*
X145907500Y-97800000D01*
X145257500Y-95245000D02*
G75*
G02*
X142717500Y-97785000I-2540000J0D01*
G01*
X141368768Y-91427503D02*
G75*
G02*
X138907500Y-93340000I-2461268J627503D01*
G01*
X145257500Y-95245000D02*
X145257500Y-94864000D01*
X145257500Y-91816000D02*
X145257500Y-91435000D01*
X145257500Y-91435000D02*
X144876500Y-91435000D01*
X143098500Y-91435000D02*
X141447500Y-91435000D01*
X138907500Y-93340000D02*
X133827500Y-93340000D01*
X133827500Y-93340000D02*
X133827500Y-94356000D01*
X133827500Y-97404000D02*
X133827500Y-97785000D01*
X133827500Y-97785000D02*
X142717500Y-97785000D01*
D11*
%TO.C,D33*%
X258449000Y-116948000D02*
X259049000Y-117348000D01*
X258449000Y-117348000D02*
X257949000Y-117348000D01*
X258449000Y-117748000D02*
X258449000Y-116948000D01*
X259049000Y-117348000D02*
X258449000Y-117748000D01*
X259049000Y-117348000D02*
X259049000Y-116798000D01*
X259049000Y-117348000D02*
X259049000Y-117898000D01*
X259449000Y-117348000D02*
X259049000Y-117348000D01*
%TO.C,D28*%
X269788000Y-176366000D02*
X269388000Y-176366000D01*
X269388000Y-176366000D02*
X269388000Y-176916000D01*
X269388000Y-176366000D02*
X269388000Y-175816000D01*
X269388000Y-176366000D02*
X268788000Y-176766000D01*
X268788000Y-176766000D02*
X268788000Y-175966000D01*
X268788000Y-176366000D02*
X268288000Y-176366000D01*
X268788000Y-175966000D02*
X269388000Y-176366000D01*
%TO.C,D21*%
X263184000Y-157316000D02*
X262784000Y-157316000D01*
X262784000Y-157316000D02*
X262784000Y-157866000D01*
X262784000Y-157316000D02*
X262784000Y-156766000D01*
X262784000Y-157316000D02*
X262184000Y-157716000D01*
X262184000Y-157716000D02*
X262184000Y-156916000D01*
X262184000Y-157316000D02*
X261684000Y-157316000D01*
X262184000Y-156916000D02*
X262784000Y-157316000D01*
D12*
%TO.C,ExtraButtonsSelect1*%
X265760000Y-101000000D02*
X271260000Y-101000000D01*
X265760000Y-102950000D02*
X265760000Y-101000000D01*
X271260000Y-101000000D02*
X271260000Y-102950000D01*
X271260000Y-102950000D02*
X265760000Y-102950000D01*
D11*
%TO.C,D26*%
X234752000Y-175458000D02*
X235352000Y-175858000D01*
X234752000Y-175858000D02*
X234252000Y-175858000D01*
X234752000Y-176258000D02*
X234752000Y-175458000D01*
X235352000Y-175858000D02*
X234752000Y-176258000D01*
X235352000Y-175858000D02*
X235352000Y-175308000D01*
X235352000Y-175858000D02*
X235352000Y-176408000D01*
X235752000Y-175858000D02*
X235352000Y-175858000D01*
%TO.C,D41*%
X260228000Y-100438000D02*
X260828000Y-100838000D01*
X260228000Y-100838000D02*
X259728000Y-100838000D01*
X260228000Y-101238000D02*
X260228000Y-100438000D01*
X260828000Y-100838000D02*
X260228000Y-101238000D01*
X260828000Y-100838000D02*
X260828000Y-100288000D01*
X260828000Y-100838000D02*
X260828000Y-101388000D01*
X261228000Y-100838000D02*
X260828000Y-100838000D01*
%TO.C,D1*%
X129216000Y-118308000D02*
X129816000Y-118708000D01*
X129216000Y-118708000D02*
X128716000Y-118708000D01*
X129216000Y-119108000D02*
X129216000Y-118308000D01*
X129816000Y-118708000D02*
X129216000Y-119108000D01*
X129816000Y-118708000D02*
X129816000Y-118158000D01*
X129816000Y-118708000D02*
X129816000Y-119258000D01*
X130216000Y-118708000D02*
X129816000Y-118708000D01*
%TO.C,D19*%
X226302000Y-156972000D02*
X225902000Y-156972000D01*
X225902000Y-156972000D02*
X225902000Y-157522000D01*
X225902000Y-156972000D02*
X225902000Y-156422000D01*
X225902000Y-156972000D02*
X225302000Y-157372000D01*
X225302000Y-157372000D02*
X225302000Y-156572000D01*
X225302000Y-156972000D02*
X224802000Y-156972000D01*
X225302000Y-156572000D02*
X225902000Y-156972000D01*
%TO.C,D27*%
X254750000Y-175768000D02*
X254350000Y-175768000D01*
X254350000Y-175768000D02*
X254350000Y-176318000D01*
X254350000Y-175768000D02*
X254350000Y-175218000D01*
X254350000Y-175768000D02*
X253750000Y-176168000D01*
X253750000Y-176168000D02*
X253750000Y-175368000D01*
X253750000Y-175768000D02*
X253250000Y-175768000D01*
X253750000Y-175368000D02*
X254350000Y-175768000D01*
%TO.C,D29*%
X150250000Y-190100000D02*
X150850000Y-190500000D01*
X150250000Y-190500000D02*
X149750000Y-190500000D01*
X150250000Y-190900000D02*
X150250000Y-190100000D01*
X150850000Y-190500000D02*
X150250000Y-190900000D01*
X150850000Y-190500000D02*
X150850000Y-189950000D01*
X150850000Y-190500000D02*
X150850000Y-191050000D01*
X151250000Y-190500000D02*
X150850000Y-190500000D01*
%TO.C,D2*%
X148646000Y-118562000D02*
X149246000Y-118962000D01*
X148646000Y-118962000D02*
X148146000Y-118962000D01*
X148646000Y-119362000D02*
X148646000Y-118562000D01*
X149246000Y-118962000D02*
X148646000Y-119362000D01*
X149246000Y-118962000D02*
X149246000Y-118412000D01*
X149246000Y-118962000D02*
X149246000Y-119512000D01*
X149646000Y-118962000D02*
X149246000Y-118962000D01*
%TO.C,D40*%
X246384000Y-99930000D02*
X246984000Y-100330000D01*
X246384000Y-100330000D02*
X245884000Y-100330000D01*
X246384000Y-100730000D02*
X246384000Y-99930000D01*
X246984000Y-100330000D02*
X246384000Y-100730000D01*
X246984000Y-100330000D02*
X246984000Y-99780000D01*
X246984000Y-100330000D02*
X246984000Y-100880000D01*
X247384000Y-100330000D02*
X246984000Y-100330000D01*
%TO.C,D32*%
X240272000Y-182880000D02*
X239872000Y-182880000D01*
X239872000Y-182880000D02*
X239872000Y-183430000D01*
X239872000Y-182880000D02*
X239872000Y-182330000D01*
X239872000Y-182880000D02*
X239272000Y-183280000D01*
X239272000Y-183280000D02*
X239272000Y-182480000D01*
X239272000Y-182880000D02*
X238772000Y-182880000D01*
X239272000Y-182480000D02*
X239872000Y-182880000D01*
%TO.C,D31*%
X202426000Y-180594000D02*
X202026000Y-180594000D01*
X202026000Y-180594000D02*
X202026000Y-181144000D01*
X202026000Y-180594000D02*
X202026000Y-180044000D01*
X202026000Y-180594000D02*
X201426000Y-180994000D01*
X201426000Y-180994000D02*
X201426000Y-180194000D01*
X201426000Y-180594000D02*
X200926000Y-180594000D01*
X201426000Y-180194000D02*
X202026000Y-180594000D01*
%TO.C,D34*%
X147960000Y-99714000D02*
X147960000Y-98914000D01*
X147960000Y-99314000D02*
X147460000Y-99314000D01*
X148560000Y-99314000D02*
X148560000Y-99864000D01*
X148560000Y-99314000D02*
X147960000Y-99714000D01*
X148560000Y-99314000D02*
X148560000Y-98764000D01*
X148960000Y-99314000D02*
X148560000Y-99314000D01*
X147960000Y-98914000D02*
X148560000Y-99314000D01*
%TO.C,D14*%
X253496000Y-136379000D02*
X254096000Y-136779000D01*
X253496000Y-136779000D02*
X252996000Y-136779000D01*
X253496000Y-137179000D02*
X253496000Y-136379000D01*
X254096000Y-136779000D02*
X253496000Y-137179000D01*
X254096000Y-136779000D02*
X254096000Y-136229000D01*
X254096000Y-136779000D02*
X254096000Y-137329000D01*
X254496000Y-136779000D02*
X254096000Y-136779000D01*
%TO.C,D22*%
X153548000Y-173082000D02*
X154148000Y-173482000D01*
X153548000Y-173482000D02*
X153048000Y-173482000D01*
X153548000Y-173882000D02*
X153548000Y-173082000D01*
X154148000Y-173482000D02*
X153548000Y-173882000D01*
X154148000Y-173482000D02*
X154148000Y-172932000D01*
X154148000Y-173482000D02*
X154148000Y-174032000D01*
X154548000Y-173482000D02*
X154148000Y-173482000D01*
%TO.C,D20*%
X245352000Y-157480000D02*
X244952000Y-157480000D01*
X244952000Y-157480000D02*
X244952000Y-158030000D01*
X244952000Y-157480000D02*
X244952000Y-156930000D01*
X244952000Y-157480000D02*
X244352000Y-157880000D01*
X244352000Y-157880000D02*
X244352000Y-157080000D01*
X244352000Y-157480000D02*
X243852000Y-157480000D01*
X244352000Y-157080000D02*
X244952000Y-157480000D01*
%TO.C,D24*%
X198996000Y-176276000D02*
X198596000Y-176276000D01*
X198596000Y-176276000D02*
X198596000Y-176826000D01*
X198596000Y-176276000D02*
X198596000Y-175726000D01*
X198596000Y-176276000D02*
X197996000Y-176676000D01*
X197996000Y-176676000D02*
X197996000Y-175876000D01*
X197996000Y-176276000D02*
X197496000Y-176276000D01*
X197996000Y-175876000D02*
X198596000Y-176276000D01*
%TO.C,D13*%
X235132000Y-137612000D02*
X235732000Y-138012000D01*
X235132000Y-138012000D02*
X234632000Y-138012000D01*
X235132000Y-138412000D02*
X235132000Y-137612000D01*
X235732000Y-138012000D02*
X235132000Y-138412000D01*
X235732000Y-138012000D02*
X235732000Y-137462000D01*
X235732000Y-138012000D02*
X235732000Y-138562000D01*
X236132000Y-138012000D02*
X235732000Y-138012000D01*
%TO.C,D35*%
X128274000Y-101238000D02*
X128274000Y-100438000D01*
X128274000Y-100838000D02*
X127774000Y-100838000D01*
X128874000Y-100838000D02*
X128874000Y-101388000D01*
X128874000Y-100838000D02*
X128274000Y-101238000D01*
X128874000Y-100838000D02*
X128874000Y-100288000D01*
X129274000Y-100838000D02*
X128874000Y-100838000D01*
X128274000Y-100438000D02*
X128874000Y-100838000D01*
%TO.C,D8*%
X147324000Y-138792000D02*
X147924000Y-139192000D01*
X147324000Y-139192000D02*
X146824000Y-139192000D01*
X147324000Y-139592000D02*
X147324000Y-138792000D01*
X147924000Y-139192000D02*
X147324000Y-139592000D01*
X147924000Y-139192000D02*
X147924000Y-138642000D01*
X147924000Y-139192000D02*
X147924000Y-139742000D01*
X148324000Y-139192000D02*
X147924000Y-139192000D01*
%TO.C,D18*%
X207252000Y-157226000D02*
X206852000Y-157226000D01*
X206852000Y-157226000D02*
X206852000Y-157776000D01*
X206852000Y-157226000D02*
X206852000Y-156676000D01*
X206852000Y-157226000D02*
X206252000Y-157626000D01*
X206252000Y-157626000D02*
X206252000Y-156826000D01*
X206252000Y-157226000D02*
X205752000Y-157226000D01*
X206252000Y-156826000D02*
X206852000Y-157226000D01*
%TO.C,D25*%
X215650000Y-174352000D02*
X216250000Y-174752000D01*
X215650000Y-174752000D02*
X215150000Y-174752000D01*
X215650000Y-175152000D02*
X215650000Y-174352000D01*
X216250000Y-174752000D02*
X215650000Y-175152000D01*
X216250000Y-174752000D02*
X216250000Y-174202000D01*
X216250000Y-174752000D02*
X216250000Y-175302000D01*
X216650000Y-174752000D02*
X216250000Y-174752000D01*
%TO.C,D17*%
X188524000Y-156662000D02*
X189124000Y-157062000D01*
X188524000Y-157062000D02*
X188024000Y-157062000D01*
X188524000Y-157462000D02*
X188524000Y-156662000D01*
X189124000Y-157062000D02*
X188524000Y-157462000D01*
X189124000Y-157062000D02*
X189124000Y-156512000D01*
X189124000Y-157062000D02*
X189124000Y-157612000D01*
X189524000Y-157062000D02*
X189124000Y-157062000D01*
%TO.C,D11*%
X197286000Y-137612000D02*
X197886000Y-138012000D01*
X197286000Y-138012000D02*
X196786000Y-138012000D01*
X197286000Y-138412000D02*
X197286000Y-137612000D01*
X197886000Y-138012000D02*
X197286000Y-138412000D01*
X197886000Y-138012000D02*
X197886000Y-137462000D01*
X197886000Y-138012000D02*
X197886000Y-138562000D01*
X198286000Y-138012000D02*
X197886000Y-138012000D01*
%TO.C,D39*%
X224032000Y-100184000D02*
X224632000Y-100584000D01*
X224032000Y-100584000D02*
X223532000Y-100584000D01*
X224032000Y-100984000D02*
X224032000Y-100184000D01*
X224632000Y-100584000D02*
X224032000Y-100984000D01*
X224632000Y-100584000D02*
X224632000Y-100034000D01*
X224632000Y-100584000D02*
X224632000Y-101134000D01*
X225032000Y-100584000D02*
X224632000Y-100584000D01*
%TO.C,D15*%
X150100000Y-156408000D02*
X150700000Y-156808000D01*
X150100000Y-156808000D02*
X149600000Y-156808000D01*
X150100000Y-157208000D02*
X150100000Y-156408000D01*
X150700000Y-156808000D02*
X150100000Y-157208000D01*
X150700000Y-156808000D02*
X150700000Y-156258000D01*
X150700000Y-156808000D02*
X150700000Y-157358000D01*
X151100000Y-156808000D02*
X150700000Y-156808000D01*
%TO.C,D23*%
X178058000Y-175876000D02*
X178658000Y-176276000D01*
X178058000Y-176276000D02*
X177558000Y-176276000D01*
X178058000Y-176676000D02*
X178058000Y-175876000D01*
X178658000Y-176276000D02*
X178058000Y-176676000D01*
X178658000Y-176276000D02*
X178658000Y-175726000D01*
X178658000Y-176276000D02*
X178658000Y-176826000D01*
X179058000Y-176276000D02*
X178658000Y-176276000D01*
%TO.C,D10*%
X177602000Y-137358000D02*
X178202000Y-137758000D01*
X177602000Y-137758000D02*
X177102000Y-137758000D01*
X177602000Y-138158000D02*
X177602000Y-137358000D01*
X178202000Y-137758000D02*
X177602000Y-138158000D01*
X178202000Y-137758000D02*
X178202000Y-137208000D01*
X178202000Y-137758000D02*
X178202000Y-138308000D01*
X178602000Y-137758000D02*
X178202000Y-137758000D01*
%TO.C,D7*%
X246182000Y-117546000D02*
X246782000Y-117946000D01*
X246182000Y-117946000D02*
X245682000Y-117946000D01*
X246182000Y-118346000D02*
X246182000Y-117546000D01*
X246782000Y-117946000D02*
X246182000Y-118346000D01*
X246782000Y-117946000D02*
X246782000Y-117396000D01*
X246782000Y-117946000D02*
X246782000Y-118496000D01*
X247182000Y-117946000D02*
X246782000Y-117946000D01*
%TO.C,D16*%
X168458000Y-155900000D02*
X169058000Y-156300000D01*
X168458000Y-156300000D02*
X167958000Y-156300000D01*
X168458000Y-156700000D02*
X168458000Y-155900000D01*
X169058000Y-156300000D02*
X168458000Y-156700000D01*
X169058000Y-156300000D02*
X169058000Y-155750000D01*
X169058000Y-156300000D02*
X169058000Y-156850000D01*
X169458000Y-156300000D02*
X169058000Y-156300000D01*
%TO.C,D9*%
X159314000Y-137612000D02*
X159914000Y-138012000D01*
X159314000Y-138012000D02*
X158814000Y-138012000D01*
X159314000Y-138412000D02*
X159314000Y-137612000D01*
X159914000Y-138012000D02*
X159314000Y-138412000D01*
X159914000Y-138012000D02*
X159914000Y-137462000D01*
X159914000Y-138012000D02*
X159914000Y-138562000D01*
X160314000Y-138012000D02*
X159914000Y-138012000D01*
%TO.C,D3*%
X167950000Y-118816000D02*
X168550000Y-119216000D01*
X167950000Y-119216000D02*
X167450000Y-119216000D01*
X167950000Y-119616000D02*
X167950000Y-118816000D01*
X168550000Y-119216000D02*
X167950000Y-119616000D01*
X168550000Y-119216000D02*
X168550000Y-118666000D01*
X168550000Y-119216000D02*
X168550000Y-119766000D01*
X168950000Y-119216000D02*
X168550000Y-119216000D01*
%TO.C,D12*%
X216590000Y-137612000D02*
X217190000Y-138012000D01*
X216590000Y-138012000D02*
X216090000Y-138012000D01*
X216590000Y-138412000D02*
X216590000Y-137612000D01*
X217190000Y-138012000D02*
X216590000Y-138412000D01*
X217190000Y-138012000D02*
X217190000Y-137462000D01*
X217190000Y-138012000D02*
X217190000Y-138562000D01*
X217590000Y-138012000D02*
X217190000Y-138012000D01*
%TO.C,D37*%
X185552000Y-100946000D02*
X186152000Y-101346000D01*
X185552000Y-101346000D02*
X185052000Y-101346000D01*
X185552000Y-101746000D02*
X185552000Y-100946000D01*
X186152000Y-101346000D02*
X185552000Y-101746000D01*
X186152000Y-101346000D02*
X186152000Y-100796000D01*
X186152000Y-101346000D02*
X186152000Y-101896000D01*
X186552000Y-101346000D02*
X186152000Y-101346000D01*
%TO.C,D5*%
X205668000Y-118562000D02*
X206268000Y-118962000D01*
X205668000Y-118962000D02*
X205168000Y-118962000D01*
X205668000Y-119362000D02*
X205668000Y-118562000D01*
X206268000Y-118962000D02*
X205668000Y-119362000D01*
X206268000Y-118962000D02*
X206268000Y-118412000D01*
X206268000Y-118962000D02*
X206268000Y-119512000D01*
X206668000Y-118962000D02*
X206268000Y-118962000D01*
%TO.C,D4*%
X187126000Y-118054000D02*
X187726000Y-118454000D01*
X187126000Y-118454000D02*
X186626000Y-118454000D01*
X187126000Y-118854000D02*
X187126000Y-118054000D01*
X187726000Y-118454000D02*
X187126000Y-118854000D01*
X187726000Y-118454000D02*
X187726000Y-117904000D01*
X187726000Y-118454000D02*
X187726000Y-119004000D01*
X188126000Y-118454000D02*
X187726000Y-118454000D01*
%TO.C,D36*%
X166882000Y-100476000D02*
X166882000Y-99676000D01*
X166882000Y-100076000D02*
X166382000Y-100076000D01*
X167482000Y-100076000D02*
X167482000Y-100626000D01*
X167482000Y-100076000D02*
X166882000Y-100476000D01*
X167482000Y-100076000D02*
X167482000Y-99526000D01*
X167882000Y-100076000D02*
X167482000Y-100076000D01*
X166882000Y-99676000D02*
X167482000Y-100076000D01*
%TO.C,D38*%
X204856000Y-100184000D02*
X205456000Y-100584000D01*
X204856000Y-100584000D02*
X204356000Y-100584000D01*
X204856000Y-100984000D02*
X204856000Y-100184000D01*
X205456000Y-100584000D02*
X204856000Y-100984000D01*
X205456000Y-100584000D02*
X205456000Y-100034000D01*
X205456000Y-100584000D02*
X205456000Y-101134000D01*
X205856000Y-100584000D02*
X205456000Y-100584000D01*
%TO.C,D6*%
X224846000Y-118308000D02*
X225446000Y-118708000D01*
X224846000Y-118708000D02*
X224346000Y-118708000D01*
X224846000Y-119108000D02*
X224846000Y-118308000D01*
X225446000Y-118708000D02*
X224846000Y-119108000D01*
X225446000Y-118708000D02*
X225446000Y-118158000D01*
X225446000Y-118708000D02*
X225446000Y-119258000D01*
X225846000Y-118708000D02*
X225446000Y-118708000D01*
%TO.C,D30*%
X176026000Y-194164000D02*
X176626000Y-194564000D01*
X177026000Y-194564000D02*
X176626000Y-194564000D01*
X176626000Y-194564000D02*
X176626000Y-194014000D01*
X176626000Y-194564000D02*
X176026000Y-194964000D01*
X176626000Y-194564000D02*
X176626000Y-195114000D01*
X176026000Y-194564000D02*
X175526000Y-194564000D01*
X176026000Y-194964000D02*
X176026000Y-194164000D01*
D10*
%TO.C,S2*%
X145907500Y-116352000D02*
X144907500Y-116352000D01*
X145907500Y-102352000D02*
X145907500Y-103352000D01*
X131907500Y-116352000D02*
X131907500Y-115956000D01*
X144907500Y-102352000D02*
X145907500Y-102352000D01*
X131907500Y-103352000D02*
X131907500Y-102352000D01*
X131907500Y-102352000D02*
X132907500Y-102352000D01*
X132907500Y-116352000D02*
X131907500Y-116352000D01*
X145907500Y-115352000D02*
X145907500Y-116352000D01*
X145257500Y-113797000D02*
G75*
G02*
X142717500Y-116337000I-2540000J0D01*
G01*
X141368768Y-109979503D02*
G75*
G02*
X138907500Y-111892000I-2461268J627503D01*
G01*
X145257500Y-113797000D02*
X145257500Y-113416000D01*
X145257500Y-110368000D02*
X145257500Y-109987000D01*
X145257500Y-109987000D02*
X144876500Y-109987000D01*
X143098500Y-109987000D02*
X141447500Y-109987000D01*
X138907500Y-111892000D02*
X133827500Y-111892000D01*
X133827500Y-111892000D02*
X133827500Y-112908000D01*
X133827500Y-115956000D02*
X133827500Y-116337000D01*
X133827500Y-116337000D02*
X142717500Y-116337000D01*
%TO.C,S20*%
X242079000Y-154352000D02*
X241079000Y-154352000D01*
X242079000Y-140352000D02*
X242079000Y-141352000D01*
X228079000Y-154352000D02*
X228079000Y-153956000D01*
X241079000Y-140352000D02*
X242079000Y-140352000D01*
X228079000Y-141352000D02*
X228079000Y-140352000D01*
X228079000Y-140352000D02*
X229079000Y-140352000D01*
X229079000Y-154352000D02*
X228079000Y-154352000D01*
X242079000Y-153352000D02*
X242079000Y-154352000D01*
X241429000Y-151797000D02*
G75*
G02*
X238889000Y-154337000I-2540000J0D01*
G01*
X237540268Y-147979503D02*
G75*
G02*
X235079000Y-149892000I-2461268J627503D01*
G01*
X241429000Y-151797000D02*
X241429000Y-151416000D01*
X241429000Y-148368000D02*
X241429000Y-147987000D01*
X241429000Y-147987000D02*
X241048000Y-147987000D01*
X239270000Y-147987000D02*
X237619000Y-147987000D01*
X235079000Y-149892000D02*
X229999000Y-149892000D01*
X229999000Y-149892000D02*
X229999000Y-150908000D01*
X229999000Y-153956000D02*
X229999000Y-154337000D01*
X229999000Y-154337000D02*
X238889000Y-154337000D01*
%TD*%
M02*
