%TF.GenerationSoftware,KiCad,Pcbnew,8.0.6*%
%TF.CreationDate,2024-11-14T19:17:05-07:00*%
%TF.ProjectId,simple_split,73696d70-6c65-45f7-9370-6c69742e6b69,v1.0.0*%
%TF.SameCoordinates,Original*%
%TF.FileFunction,Copper,L1,Top*%
%TF.FilePolarity,Positive*%
%FSLAX46Y46*%
G04 Gerber Fmt 4.6, Leading zero omitted, Abs format (unit mm)*
G04 Created by KiCad (PCBNEW 8.0.6) date 2024-11-14 19:17:05*
%MOMM*%
%LPD*%
G01*
G04 APERTURE LIST*
G04 Aperture macros list*
%AMRoundRect*
0 Rectangle with rounded corners*
0 $1 Rounding radius*
0 $2 $3 $4 $5 $6 $7 $8 $9 X,Y pos of 4 corners*
0 Add a 4 corners polygon primitive as box body*
4,1,4,$2,$3,$4,$5,$6,$7,$8,$9,$2,$3,0*
0 Add four circle primitives for the rounded corners*
1,1,$1+$1,$2,$3*
1,1,$1+$1,$4,$5*
1,1,$1+$1,$6,$7*
1,1,$1+$1,$8,$9*
0 Add four rect primitives between the rounded corners*
20,1,$1+$1,$2,$3,$4,$5,0*
20,1,$1+$1,$4,$5,$6,$7,0*
20,1,$1+$1,$6,$7,$8,$9,0*
20,1,$1+$1,$8,$9,$2,$3,0*%
%AMFreePoly0*
4,1,7,0.700000,0.000000,1.200000,-0.750000,-1.200000,-0.750000,-0.700000,0.000000,-1.200000,0.750000,1.200000,0.750000,0.700000,0.000000,0.700000,0.000000,$1*%
%AMFreePoly1*
4,1,6,1.000000,0.000000,0.500000,-0.750000,-0.500000,-0.750000,-0.500000,0.750000,0.500000,0.750000,1.000000,0.000000,1.000000,0.000000,$1*%
G04 Aperture macros list end*
%TA.AperFunction,ComponentPad*%
%ADD10C,2.032000*%
%TD*%
%TA.AperFunction,SMDPad,CuDef*%
%ADD11R,2.600000X2.600000*%
%TD*%
%TA.AperFunction,ComponentPad*%
%ADD12C,1.400000*%
%TD*%
%TA.AperFunction,ComponentPad*%
%ADD13O,1.400000X1.400000*%
%TD*%
%TA.AperFunction,ComponentPad*%
%ADD14C,0.800000*%
%TD*%
%TA.AperFunction,SMDPad,CuDef*%
%ADD15R,0.900000X1.200000*%
%TD*%
%TA.AperFunction,ComponentPad*%
%ADD16RoundRect,0.250000X-0.750000X0.600000X-0.750000X-0.600000X0.750000X-0.600000X0.750000X0.600000X0*%
%TD*%
%TA.AperFunction,ComponentPad*%
%ADD17O,2.000000X1.700000*%
%TD*%
%TA.AperFunction,ComponentPad*%
%ADD18R,2.000000X2.000000*%
%TD*%
%TA.AperFunction,ComponentPad*%
%ADD19C,2.000000*%
%TD*%
%TA.AperFunction,SMDPad,CuDef*%
%ADD20FreePoly0,270.000000*%
%TD*%
%TA.AperFunction,SMDPad,CuDef*%
%ADD21FreePoly1,270.000000*%
%TD*%
%TA.AperFunction,SMDPad,CuDef*%
%ADD22FreePoly1,90.000000*%
%TD*%
%TA.AperFunction,SMDPad,CuDef*%
%ADD23FreePoly0,90.000000*%
%TD*%
%TA.AperFunction,SMDPad,CuDef*%
%ADD24FreePoly0,0.000000*%
%TD*%
%TA.AperFunction,SMDPad,CuDef*%
%ADD25FreePoly1,0.000000*%
%TD*%
%TA.AperFunction,SMDPad,CuDef*%
%ADD26FreePoly1,180.000000*%
%TD*%
%TA.AperFunction,SMDPad,CuDef*%
%ADD27R,1.200000X0.900000*%
%TD*%
%TA.AperFunction,ComponentPad*%
%ADD28R,1.778000X1.524000*%
%TD*%
%TA.AperFunction,ComponentPad*%
%ADD29C,1.778000*%
%TD*%
%TA.AperFunction,ComponentPad*%
%ADD30O,3.500000X2.200000*%
%TD*%
%TA.AperFunction,ComponentPad*%
%ADD31R,2.500000X1.500000*%
%TD*%
%TA.AperFunction,ComponentPad*%
%ADD32O,2.500000X1.500000*%
%TD*%
%TA.AperFunction,ComponentPad*%
%ADD33O,1.800000X2.800000*%
%TD*%
%TA.AperFunction,ComponentPad*%
%ADD34R,2.000000X3.200000*%
%TD*%
%TA.AperFunction,ViaPad*%
%ADD35C,0.800000*%
%TD*%
%TA.AperFunction,Conductor*%
%ADD36C,0.250000*%
%TD*%
%TA.AperFunction,Conductor*%
%ADD37C,0.200000*%
%TD*%
G04 APERTURE END LIST*
D10*
%TO.P,S33,1,A*%
%TO.N,/F*%
X252907500Y-103452000D03*
D11*
X249632500Y-115302000D03*
%TO.P,S33,2,B*%
%TO.N,Net-(D33-A)*%
X261182500Y-113102000D03*
D10*
X257907500Y-105552000D03*
X247907500Y-105552000D03*
%TD*%
D12*
%TO.P,R3,1*%
%TO.N,/Rotary_A*%
X267260000Y-114644000D03*
D13*
%TO.P,R3,2*%
%TO.N,/VCC*%
X267260000Y-107024000D03*
%TD*%
D14*
%TO.P,D26,1,K*%
%TO.N,/4*%
X236652000Y-175858000D03*
D15*
X236652000Y-175858000D03*
D14*
%TO.P,D26,2,A*%
%TO.N,Net-(D26-A)*%
X233352000Y-175858000D03*
D15*
X233352000Y-175858000D03*
%TD*%
D14*
%TO.P,D24,1,K*%
%TO.N,/4*%
X194364000Y-176112000D03*
D15*
X194364000Y-176112000D03*
D14*
%TO.P,D24,2,A*%
%TO.N,Net-(D24-A)*%
X197664000Y-176112000D03*
D15*
X197664000Y-176112000D03*
%TD*%
D10*
%TO.P,S31,1,A*%
%TO.N,/C*%
X188725500Y-179452000D03*
D11*
X185450500Y-191302000D03*
%TO.P,S31,2,B*%
%TO.N,Net-(D31-A)*%
X197000500Y-189102000D03*
D10*
X193725500Y-181552000D03*
X183725500Y-181552000D03*
%TD*%
%TO.P,S8,1,A*%
%TO.N,/A*%
X125170000Y-122452000D03*
D11*
X121895000Y-134302000D03*
%TO.P,S8,2,B*%
%TO.N,Net-(D8-A)*%
X133445000Y-132102000D03*
D10*
X130170000Y-124552000D03*
X120170000Y-124552000D03*
%TD*%
D14*
%TO.P,D6,1,K*%
%TO.N,/1*%
X226746000Y-118708000D03*
D15*
X226746000Y-118708000D03*
D14*
%TO.P,D6,2,A*%
%TO.N,Net-(D6-A)*%
X223446000Y-118708000D03*
D15*
X223446000Y-118708000D03*
%TD*%
D14*
%TO.P,D33,1,K*%
%TO.N,/5*%
X260400000Y-118454000D03*
D15*
X260400000Y-118454000D03*
D14*
%TO.P,D33,2,A*%
%TO.N,Net-(D33-A)*%
X257100000Y-118454000D03*
D15*
X257100000Y-118454000D03*
%TD*%
D14*
%TO.P,D9,1,K*%
%TO.N,/2*%
X161214000Y-138012000D03*
D15*
X161214000Y-138012000D03*
D14*
%TO.P,D9,2,A*%
%TO.N,Net-(D9-A)*%
X157914000Y-138012000D03*
D15*
X157914000Y-138012000D03*
%TD*%
D14*
%TO.P,D16,1,K*%
%TO.N,/3*%
X170358000Y-156300000D03*
D15*
X170358000Y-156300000D03*
D14*
%TO.P,D16,2,A*%
%TO.N,Net-(D16-A)*%
X167058000Y-156300000D03*
D15*
X167058000Y-156300000D03*
%TD*%
D14*
%TO.P,D10,1,K*%
%TO.N,/2*%
X179502000Y-137758000D03*
D15*
X179502000Y-137758000D03*
D14*
%TO.P,D10,2,A*%
%TO.N,Net-(D10-A)*%
X176202000Y-137758000D03*
D15*
X176202000Y-137758000D03*
%TD*%
D10*
%TO.P,S20,1,A*%
%TO.N,/F*%
X235079000Y-141452000D03*
D11*
X231804000Y-153302000D03*
%TO.P,S20,2,B*%
%TO.N,Net-(D20-A)*%
X243354000Y-151102000D03*
D10*
X240079000Y-143552000D03*
X230079000Y-143552000D03*
%TD*%
%TO.P,S11,1,A*%
%TO.N,/D*%
X187554000Y-122452000D03*
D11*
X184279000Y-134302000D03*
%TO.P,S11,2,B*%
%TO.N,Net-(D11-A)*%
X195829000Y-132102000D03*
D10*
X192554000Y-124552000D03*
X182554000Y-124552000D03*
%TD*%
D16*
%TO.P,J2,1,Pin_1*%
%TO.N,Net-(J2-Pin_1)*%
X280475500Y-189848000D03*
D17*
%TO.P,J2,2,Pin_2*%
%TO.N,/Bat-*%
X280475500Y-192348000D03*
%TD*%
D14*
%TO.P,D23,1,K*%
%TO.N,/4*%
X167184000Y-176112000D03*
D15*
X167184000Y-176112000D03*
D14*
%TO.P,D23,2,A*%
%TO.N,Net-(D23-A)*%
X163884000Y-176112000D03*
D15*
X163884000Y-176112000D03*
%TD*%
D14*
%TO.P,D7,1,K*%
%TO.N,/1*%
X248082000Y-117946000D03*
D15*
X248082000Y-117946000D03*
D14*
%TO.P,D7,2,A*%
%TO.N,Net-(D7-A)*%
X244782000Y-117946000D03*
D15*
X244782000Y-117946000D03*
%TD*%
D10*
%TO.P,S6,1,A*%
%TO.N,/F*%
X214907500Y-103452000D03*
D11*
X211632500Y-115302000D03*
%TO.P,S6,2,B*%
%TO.N,Net-(D6-A)*%
X223182500Y-113102000D03*
D10*
X219907500Y-105552000D03*
X209907500Y-105552000D03*
%TD*%
%TO.P,F3,1,A*%
%TO.N,/C*%
X176907500Y-84900000D03*
D11*
X173632500Y-96750000D03*
%TO.P,F3,2,B*%
%TO.N,Net-(D37-A)*%
X185182500Y-94550000D03*
D10*
X181907500Y-87000000D03*
X171907500Y-87000000D03*
%TD*%
D18*
%TO.P,U2,1,GND*%
%TO.N,/GND*%
X267260000Y-185256000D03*
D19*
%TO.P,U2,2,VCC*%
%TO.N,/VCC*%
X269800000Y-185256000D03*
%TO.P,U2,3,SCL*%
%TO.N,/SCL*%
X272340000Y-185256000D03*
%TO.P,U2,4,SDA*%
%TO.N,/SDA*%
X274880000Y-185256000D03*
%TD*%
D10*
%TO.P,F1,1,A*%
%TO.N,/A*%
X138907500Y-84900000D03*
D11*
X135632500Y-96750000D03*
%TO.P,F1,2,B*%
%TO.N,Net-(D34-A)*%
X147182500Y-94550000D03*
D10*
X143907500Y-87000000D03*
X133907500Y-87000000D03*
%TD*%
D20*
%TO.P,VCC1,1,COM*%
%TO.N,Net-(U1-VCC)*%
X284024000Y-114136000D03*
D21*
%TO.P,VCC1,2,L*%
%TO.N,/VCC*%
X284024000Y-112136000D03*
D22*
%TO.P,VCC1,3,R*%
%TO.N,/GND*%
X284024000Y-116136000D03*
%TD*%
D10*
%TO.P,S35,1,A*%
%TO.N,/G*%
X119907500Y-84900000D03*
D11*
X116632500Y-96750000D03*
%TO.P,S35,2,B*%
%TO.N,Net-(D35-A)*%
X128182500Y-94550000D03*
D10*
X124907500Y-87000000D03*
X114907500Y-87000000D03*
%TD*%
%TO.P,S4,1,A*%
%TO.N,/D*%
X176907500Y-103452000D03*
D11*
X173632500Y-115302000D03*
%TO.P,S4,2,B*%
%TO.N,Net-(D4-A)*%
X185182500Y-113102000D03*
D10*
X181907500Y-105552000D03*
X171907500Y-105552000D03*
%TD*%
%TO.P,S3,1,A*%
%TO.N,/C*%
X157907500Y-103452000D03*
D11*
X154632500Y-115302000D03*
%TO.P,S3,2,B*%
%TO.N,Net-(D3-A)*%
X166182500Y-113102000D03*
D10*
X162907500Y-105552000D03*
X152907500Y-105552000D03*
%TD*%
%TO.P,Extra_Function_Key1,1,A*%
%TO.N,/G*%
X252907500Y-84900000D03*
D11*
X249632500Y-96750000D03*
%TO.P,Extra_Function_Key1,2,B*%
%TO.N,Net-(D41-A)*%
X261182500Y-94550000D03*
D10*
X257907500Y-87000000D03*
X247907500Y-87000000D03*
%TD*%
D14*
%TO.P,D37,1,K*%
%TO.N,/6*%
X170150000Y-100500000D03*
D15*
X170150000Y-100500000D03*
D14*
%TO.P,D37,2,A*%
%TO.N,Net-(D37-A)*%
X166850000Y-100500000D03*
D15*
X166850000Y-100500000D03*
%TD*%
D14*
%TO.P,D15,1,K*%
%TO.N,/3*%
X152000000Y-156808000D03*
D15*
X152000000Y-156808000D03*
D14*
%TO.P,D15,2,A*%
%TO.N,Net-(D15-A)*%
X148700000Y-156808000D03*
D15*
X148700000Y-156808000D03*
%TD*%
D23*
%TO.P,GND1,1,COM*%
%TO.N,Net-(GND1-COM)*%
X277674000Y-113850000D03*
D22*
%TO.P,GND1,2,L*%
%TO.N,/GND*%
X277674000Y-115850000D03*
D21*
%TO.P,GND1,3,R*%
%TO.N,/VCC*%
X277674000Y-111850000D03*
%TD*%
D24*
%TO.P,GND2,1,COM*%
%TO.N,Net-(GND2-COM)*%
X274658000Y-101436000D03*
D25*
%TO.P,GND2,2,L*%
%TO.N,unconnected-(GND2-L-Pad2)*%
X272658000Y-101436000D03*
D26*
%TO.P,GND2,3,R*%
%TO.N,/Bat+*%
X276658000Y-101436000D03*
%TD*%
D23*
%TO.P,RXI1,1,COM*%
%TO.N,Net-(RXI1-COM)*%
X286310000Y-108732000D03*
D22*
%TO.P,RXI1,2,L*%
%TO.N,unconnected-(RXI1-L-Pad2)*%
X286310000Y-110732000D03*
D21*
%TO.P,RXI1,3,R*%
%TO.N,/TXD*%
X286310000Y-106732000D03*
%TD*%
D14*
%TO.P,D39,1,K*%
%TO.N,/6*%
X208150000Y-100500000D03*
D15*
X208150000Y-100500000D03*
D14*
%TO.P,D39,2,A*%
%TO.N,Net-(D39-A)*%
X204850000Y-100500000D03*
D15*
X204850000Y-100500000D03*
%TD*%
D10*
%TO.P,F6,1,A*%
%TO.N,/F*%
X233907500Y-84900000D03*
D11*
X230632500Y-96750000D03*
%TO.P,F6,2,B*%
%TO.N,Net-(D40-A)*%
X242182500Y-94550000D03*
D10*
X238907500Y-87000000D03*
X228907500Y-87000000D03*
%TD*%
%TO.P,S5,1,A*%
%TO.N,/E*%
X195907500Y-103452000D03*
D11*
X192632500Y-115302000D03*
%TO.P,S5,2,B*%
%TO.N,Net-(D5-A)*%
X204182500Y-113102000D03*
D10*
X200907500Y-105552000D03*
X190907500Y-105552000D03*
%TD*%
D14*
%TO.P,D36,1,K*%
%TO.N,/6*%
X147000000Y-101150000D03*
D27*
X147000000Y-101150000D03*
D14*
%TO.P,D36,2,A*%
%TO.N,Net-(D36-A)*%
X147000000Y-97850000D03*
D27*
X147000000Y-97850000D03*
%TD*%
D14*
%TO.P,D4,1,K*%
%TO.N,/1*%
X189026000Y-118454000D03*
D15*
X189026000Y-118454000D03*
D14*
%TO.P,D4,2,A*%
%TO.N,Net-(D4-A)*%
X185726000Y-118454000D03*
D15*
X185726000Y-118454000D03*
%TD*%
D14*
%TO.P,D5,1,K*%
%TO.N,/1*%
X207568000Y-118962000D03*
D15*
X207568000Y-118962000D03*
D14*
%TO.P,D5,2,A*%
%TO.N,Net-(D5-A)*%
X204268000Y-118962000D03*
D15*
X204268000Y-118962000D03*
%TD*%
D10*
%TO.P,S25,1,A*%
%TO.N,/D*%
X206604000Y-160452000D03*
D11*
X203329000Y-172302000D03*
%TO.P,S25,2,B*%
%TO.N,Net-(D25-A)*%
X214879000Y-170102000D03*
D10*
X211604000Y-162552000D03*
X201604000Y-162552000D03*
%TD*%
D23*
%TO.P,SCL1,1,COM*%
%TO.N,Net-(SCL1-COM)*%
X278182000Y-130646000D03*
D22*
%TO.P,SCL1,2,L*%
%TO.N,/SCL*%
X278182000Y-132646000D03*
D21*
%TO.P,SCL1,3,R*%
%TO.N,/3*%
X278182000Y-128646000D03*
%TD*%
D10*
%TO.P,S7,1,A*%
%TO.N,/G*%
X233907500Y-103452000D03*
D11*
X230632500Y-115302000D03*
%TO.P,S7,2,B*%
%TO.N,Net-(D7-A)*%
X242182500Y-113102000D03*
D10*
X238907500Y-105552000D03*
X228907500Y-105552000D03*
%TD*%
%TO.P,S1,1,A*%
%TO.N,/A*%
X119907500Y-103452000D03*
D11*
X116632500Y-115302000D03*
%TO.P,S1,2,B*%
%TO.N,Net-(D1-A)*%
X128182500Y-113102000D03*
D10*
X124907500Y-105552000D03*
X114907500Y-105552000D03*
%TD*%
D24*
%TO.P,Bat+1,1,COM*%
%TO.N,Net-(Bat+1-COM)*%
X287358000Y-101436000D03*
D25*
%TO.P,Bat+1,2,L*%
%TO.N,/Bat+*%
X285358000Y-101436000D03*
D26*
%TO.P,Bat+1,3,R*%
%TO.N,unconnected-(Bat+1-R-Pad3)*%
X289358000Y-101436000D03*
%TD*%
D14*
%TO.P,D30,1,K*%
%TO.N,/5*%
X155246000Y-174462000D03*
D27*
X155246000Y-174462000D03*
D14*
%TO.P,D30,2,A*%
%TO.N,Net-(D30-A)*%
X155246000Y-177762000D03*
D27*
X155246000Y-177762000D03*
%TD*%
D14*
%TO.P,D38,1,K*%
%TO.N,/6*%
X189500000Y-100500000D03*
D15*
X189500000Y-100500000D03*
D14*
%TO.P,D38,2,A*%
%TO.N,Net-(D38-A)*%
X186200000Y-100500000D03*
D15*
X186200000Y-100500000D03*
%TD*%
D10*
%TO.P,F2,1,A*%
%TO.N,/B*%
X157907500Y-84900000D03*
D11*
X154632500Y-96750000D03*
%TO.P,F2,2,B*%
%TO.N,Net-(D36-A)*%
X166182500Y-94550000D03*
D10*
X162907500Y-87000000D03*
X152907500Y-87000000D03*
%TD*%
D14*
%TO.P,D28,1,K*%
%TO.N,/4*%
X267388000Y-176366000D03*
D15*
X267388000Y-176366000D03*
D14*
%TO.P,D28,2,A*%
%TO.N,Net-(D28-A)*%
X270688000Y-176366000D03*
D15*
X270688000Y-176366000D03*
%TD*%
D10*
%TO.P,S12,1,A*%
%TO.N,/E*%
X206554000Y-122452000D03*
D11*
X203279000Y-134302000D03*
%TO.P,S12,2,B*%
%TO.N,Net-(D12-A)*%
X214829000Y-132102000D03*
D10*
X211554000Y-124552000D03*
X201554000Y-124552000D03*
%TD*%
%TO.P,S24,1,A*%
%TO.N,/C*%
X187604000Y-160452000D03*
D11*
X184329000Y-172302000D03*
%TO.P,S24,2,B*%
%TO.N,Net-(D24-A)*%
X195879000Y-170102000D03*
D10*
X192604000Y-162552000D03*
X182604000Y-162552000D03*
%TD*%
D14*
%TO.P,D12,1,K*%
%TO.N,/2*%
X218490000Y-138012000D03*
D15*
X218490000Y-138012000D03*
D14*
%TO.P,D12,2,A*%
%TO.N,Net-(D12-A)*%
X215190000Y-138012000D03*
D15*
X215190000Y-138012000D03*
%TD*%
D28*
%TO.P,U1,0,GND*%
%TO.N,Net-(GND2-COM)*%
X273356000Y-103595000D03*
D29*
%TO.P,U1,1,Txd*%
%TO.N,Net-(TXD2-COM)*%
X273356000Y-106135000D03*
%TO.P,U1,2,RXI*%
%TO.N,Net-(RXI2-COM)*%
X273356000Y-108675000D03*
%TO.P,U1,3,GND*%
%TO.N,unconnected-(U1-GND-Pad3)*%
X273356000Y-111215000D03*
%TO.P,U1,4,GND*%
%TO.N,Net-(GND1-COM)*%
X273356000Y-113755000D03*
%TO.P,U1,5,2*%
%TO.N,/F*%
X273356000Y-116295000D03*
%TO.P,U1,6,3*%
%TO.N,/E*%
X273356000Y-118835000D03*
%TO.P,U1,7,4*%
%TO.N,/D*%
X273356000Y-121375000D03*
%TO.P,U1,8,5*%
%TO.N,/C*%
X273356000Y-123915000D03*
%TO.P,U1,9,6*%
%TO.N,Net-(SDA1-COM)*%
X273356000Y-126455000D03*
%TO.P,U1,10,7*%
%TO.N,Net-(SCL1-COM)*%
X273356000Y-128995000D03*
%TO.P,U1,11,8*%
%TO.N,/B*%
X273356000Y-131535000D03*
%TO.P,U1,12,9*%
%TO.N,/A*%
X273356000Y-134075000D03*
%TO.P,U1,13,10*%
%TO.N,/5*%
X288596000Y-134075000D03*
%TO.P,U1,14,16*%
%TO.N,/4*%
X288596000Y-131535000D03*
%TO.P,U1,15,14*%
%TO.N,Net-(P3-COM)*%
X288596000Y-128995000D03*
%TO.P,U1,16,15*%
%TO.N,Net-(P2-COM)*%
X288596000Y-126455000D03*
%TO.P,U1,17,A0*%
%TO.N,/1*%
X288596000Y-123915000D03*
%TO.P,U1,18,A1*%
%TO.N,/Rotary_A*%
X288596000Y-121375000D03*
%TO.P,U1,19,A2*%
%TO.N,/Rotary_B*%
X288596000Y-118835000D03*
%TO.P,U1,20,A3*%
%TO.N,/G*%
X288596000Y-116295000D03*
%TO.P,U1,21,VCC*%
%TO.N,Net-(U1-VCC)*%
X288596000Y-113755000D03*
%TO.P,U1,22,RST*%
%TO.N,unconnected-(U1-RST-Pad22)*%
X288596000Y-111215000D03*
%TO.P,U1,23,GND*%
%TO.N,Net-(RXI1-COM)*%
X288596000Y-108675000D03*
%TO.P,U1,24,Bat-*%
%TO.N,Net-(TXD1-COM)*%
X288596000Y-106135000D03*
%TO.P,U1,25,Bat+*%
%TO.N,Net-(Bat+1-COM)*%
X288596000Y-103595000D03*
%TD*%
D14*
%TO.P,D17,1,K*%
%TO.N,/3*%
X190424000Y-157062000D03*
D15*
X190424000Y-157062000D03*
D14*
%TO.P,D17,2,A*%
%TO.N,Net-(D17-A)*%
X187124000Y-157062000D03*
D15*
X187124000Y-157062000D03*
%TD*%
D14*
%TO.P,D34,1,K*%
%TO.N,/6*%
X130000000Y-103650000D03*
D27*
X130000000Y-103650000D03*
D14*
%TO.P,D34,2,A*%
%TO.N,Net-(D34-A)*%
X130000000Y-100350000D03*
D27*
X130000000Y-100350000D03*
%TD*%
D20*
%TO.P,P3,1,COM*%
%TO.N,Net-(P3-COM)*%
X285294000Y-130646000D03*
D21*
%TO.P,P3,2,L*%
%TO.N,/3*%
X285294000Y-128646000D03*
D22*
%TO.P,P3,3,R*%
%TO.N,/SCL*%
X285294000Y-132646000D03*
%TD*%
D14*
%TO.P,D14,1,K*%
%TO.N,/2*%
X258242000Y-136996000D03*
D15*
X258242000Y-136996000D03*
D14*
%TO.P,D14,2,A*%
%TO.N,Net-(D14-A)*%
X254942000Y-136996000D03*
D15*
X254942000Y-136996000D03*
%TD*%
D14*
%TO.P,D20,1,K*%
%TO.N,/3*%
X239956000Y-157062000D03*
D15*
X239956000Y-157062000D03*
D14*
%TO.P,D20,2,A*%
%TO.N,Net-(D20-A)*%
X243256000Y-157062000D03*
D15*
X243256000Y-157062000D03*
%TD*%
D14*
%TO.P,D25,1,K*%
%TO.N,/4*%
X208586000Y-177636000D03*
D15*
X208586000Y-177636000D03*
D14*
%TO.P,D25,2,A*%
%TO.N,Net-(D25-A)*%
X205286000Y-177636000D03*
D15*
X205286000Y-177636000D03*
%TD*%
D14*
%TO.P,D22,1,K*%
%TO.N,/4*%
X152800000Y-188000000D03*
D15*
X152800000Y-188000000D03*
D14*
%TO.P,D22,2,A*%
%TO.N,Net-(D22-A)*%
X149500000Y-188000000D03*
D15*
X149500000Y-188000000D03*
%TD*%
D10*
%TO.P,S2,1,A*%
%TO.N,/B*%
X138907500Y-103452000D03*
D11*
X135632500Y-115302000D03*
%TO.P,S2,2,B*%
%TO.N,Net-(D2-A)*%
X147182500Y-113102000D03*
D10*
X143907500Y-105552000D03*
X133907500Y-105552000D03*
%TD*%
D14*
%TO.P,D3,1,K*%
%TO.N,/1*%
X169850000Y-119216000D03*
D15*
X169850000Y-119216000D03*
D14*
%TO.P,D3,2,A*%
%TO.N,Net-(D3-A)*%
X166550000Y-119216000D03*
D15*
X166550000Y-119216000D03*
%TD*%
D10*
%TO.P,S16,1,A*%
%TO.N,/B*%
X159079000Y-141452000D03*
D11*
X155804000Y-153302000D03*
%TO.P,S16,2,B*%
%TO.N,Net-(D16-A)*%
X167354000Y-151102000D03*
D10*
X164079000Y-143552000D03*
X154079000Y-143552000D03*
%TD*%
%TO.P,S21,1,A*%
%TO.N,/G*%
X254079000Y-141452000D03*
D11*
X250804000Y-153302000D03*
%TO.P,S21,2,B*%
%TO.N,Net-(D21-A)*%
X262354000Y-151102000D03*
D10*
X259079000Y-143552000D03*
X249079000Y-143552000D03*
%TD*%
%TO.P,S26,1,A*%
%TO.N,/E*%
X225604000Y-160452000D03*
D11*
X222329000Y-172302000D03*
%TO.P,S26,2,B*%
%TO.N,Net-(D26-A)*%
X233879000Y-170102000D03*
D10*
X230604000Y-162552000D03*
X220604000Y-162552000D03*
%TD*%
D14*
%TO.P,D21,1,K*%
%TO.N,/3*%
X260784000Y-157316000D03*
D15*
X260784000Y-157316000D03*
D14*
%TO.P,D21,2,A*%
%TO.N,Net-(D21-A)*%
X264084000Y-157316000D03*
D15*
X264084000Y-157316000D03*
%TD*%
D10*
%TO.P,S17,1,A*%
%TO.N,/C*%
X178079000Y-141452000D03*
D11*
X174804000Y-153302000D03*
%TO.P,S17,2,B*%
%TO.N,Net-(D17-A)*%
X186354000Y-151102000D03*
D10*
X183079000Y-143552000D03*
X173079000Y-143552000D03*
%TD*%
D20*
%TO.P,P2,1,COM*%
%TO.N,Net-(P2-COM)*%
X285294000Y-122080000D03*
D21*
%TO.P,P2,2,L*%
%TO.N,/2*%
X285294000Y-120080000D03*
D22*
%TO.P,P2,3,R*%
%TO.N,/SDA*%
X285294000Y-124080000D03*
%TD*%
D10*
%TO.P,S18,1,A*%
%TO.N,/D*%
X197079000Y-141452000D03*
D11*
X193804000Y-153302000D03*
%TO.P,S18,2,B*%
%TO.N,Net-(D18-A)*%
X205354000Y-151102000D03*
D10*
X202079000Y-143552000D03*
X192079000Y-143552000D03*
%TD*%
D23*
%TO.P,SDA1,1,COM*%
%TO.N,Net-(SDA1-COM)*%
X278182000Y-122010000D03*
D22*
%TO.P,SDA1,2,L*%
%TO.N,/SDA*%
X278182000Y-124010000D03*
D21*
%TO.P,SDA1,3,R*%
%TO.N,/2*%
X278182000Y-120010000D03*
%TD*%
D14*
%TO.P,D35,1,K*%
%TO.N,/5*%
X128000000Y-103150000D03*
D27*
X128000000Y-103150000D03*
D14*
%TO.P,D35,2,A*%
%TO.N,Net-(D35-A)*%
X128000000Y-99850000D03*
D27*
X128000000Y-99850000D03*
%TD*%
D10*
%TO.P,S32,1,A*%
%TO.N,/D*%
X227275500Y-179452000D03*
D11*
X224000500Y-191302000D03*
%TO.P,S32,2,B*%
%TO.N,Net-(D32-A)*%
X235550500Y-189102000D03*
D10*
X232275500Y-181552000D03*
X222275500Y-181552000D03*
%TD*%
%TO.P,S29,1,A*%
%TO.N,/A*%
X129932500Y-179452000D03*
D11*
X126657500Y-191302000D03*
%TO.P,S29,2,B*%
%TO.N,Net-(D29-A)*%
X138207500Y-189102000D03*
D10*
X134932500Y-181552000D03*
X124932500Y-181552000D03*
%TD*%
D14*
%TO.P,D31,1,K*%
%TO.N,/5*%
X179630000Y-177128000D03*
D15*
X179630000Y-177128000D03*
D14*
%TO.P,D31,2,A*%
%TO.N,Net-(D31-A)*%
X182930000Y-177128000D03*
D15*
X182930000Y-177128000D03*
%TD*%
D10*
%TO.P,S23,1,A*%
%TO.N,/B*%
X168604000Y-160452000D03*
D11*
X165329000Y-172302000D03*
%TO.P,S23,2,B*%
%TO.N,Net-(D23-A)*%
X176879000Y-170102000D03*
D10*
X173604000Y-162552000D03*
X163604000Y-162552000D03*
%TD*%
D14*
%TO.P,D11,1,K*%
%TO.N,/2*%
X199186000Y-138012000D03*
D15*
X199186000Y-138012000D03*
D14*
%TO.P,D11,2,A*%
%TO.N,Net-(D11-A)*%
X195886000Y-138012000D03*
D15*
X195886000Y-138012000D03*
%TD*%
D14*
%TO.P,D40,1,K*%
%TO.N,/6*%
X229650000Y-101000000D03*
D15*
X229650000Y-101000000D03*
D14*
%TO.P,D40,2,A*%
%TO.N,Net-(D40-A)*%
X226350000Y-101000000D03*
D15*
X226350000Y-101000000D03*
%TD*%
D10*
%TO.P,F5,1,A*%
%TO.N,/E*%
X214907500Y-84900000D03*
D11*
X211632500Y-96750000D03*
%TO.P,F5,2,B*%
%TO.N,Net-(D39-A)*%
X223182500Y-94550000D03*
D10*
X219907500Y-87000000D03*
X209907500Y-87000000D03*
%TD*%
%TO.P,S14,1,A*%
%TO.N,/G*%
X244554000Y-122452000D03*
D11*
X241279000Y-134302000D03*
%TO.P,S14,2,B*%
%TO.N,Net-(D14-A)*%
X252829000Y-132102000D03*
D10*
X249554000Y-124552000D03*
X239554000Y-124552000D03*
%TD*%
D14*
%TO.P,D32,1,K*%
%TO.N,/5*%
X207700000Y-184000000D03*
D15*
X207700000Y-184000000D03*
D14*
%TO.P,D32,2,A*%
%TO.N,Net-(D32-A)*%
X211000000Y-184000000D03*
D15*
X211000000Y-184000000D03*
%TD*%
D30*
%TO.P,SW1,*%
%TO.N,*%
X288628000Y-179196000D03*
X288628000Y-170996000D03*
D31*
%TO.P,SW1,1,B*%
%TO.N,Net-(J2-Pin_1)*%
X288628000Y-177096000D03*
D32*
%TO.P,SW1,2,C*%
%TO.N,/Bat+*%
X288628000Y-175096000D03*
%TO.P,SW1,3,A*%
%TO.N,unconnected-(SW1-A-Pad3)*%
X288628000Y-173096000D03*
%TD*%
D14*
%TO.P,D2,1,K*%
%TO.N,/1*%
X150546000Y-118962000D03*
D15*
X150546000Y-118962000D03*
D14*
%TO.P,D2,2,A*%
%TO.N,Net-(D2-A)*%
X147246000Y-118962000D03*
D15*
X147246000Y-118962000D03*
%TD*%
D33*
%TO.P,J1,R*%
%TO.N,Net-(COM_SELECT1-COM)*%
X281194000Y-155724000D03*
X281194000Y-159724000D03*
%TO.P,J1,S*%
%TO.N,/GND*%
X289094000Y-157724000D03*
%TO.P,J1,T*%
%TO.N,/VCC*%
X286694000Y-155724000D03*
X286694000Y-159724000D03*
%TD*%
D14*
%TO.P,D27,1,K*%
%TO.N,/4*%
X251386000Y-176112000D03*
D15*
X251386000Y-176112000D03*
D14*
%TO.P,D27,2,A*%
%TO.N,Net-(D27-A)*%
X254686000Y-176112000D03*
D15*
X254686000Y-176112000D03*
%TD*%
D10*
%TO.P,S27,1,A*%
%TO.N,/F*%
X244604000Y-160452000D03*
D11*
X241329000Y-172302000D03*
%TO.P,S27,2,B*%
%TO.N,Net-(D27-A)*%
X252879000Y-170102000D03*
D10*
X249604000Y-162552000D03*
X239604000Y-162552000D03*
%TD*%
D18*
%TO.P,R1,A,A*%
%TO.N,/Rotary_A*%
X266204000Y-120856000D03*
D19*
%TO.P,R1,B,B*%
%TO.N,/Rotary_B*%
X261204000Y-120856000D03*
%TO.P,R1,C,C*%
%TO.N,/GND*%
X263704000Y-120856000D03*
D34*
%TO.P,R1,MP*%
%TO.N,N/C*%
X269304000Y-128356000D03*
X258104000Y-128356000D03*
D19*
%TO.P,R1,S1,S1*%
%TO.N,/5*%
X261204000Y-135356000D03*
%TO.P,R1,S2,S2*%
%TO.N,/E*%
X266204000Y-135356000D03*
%TD*%
D24*
%TO.P,COM_SELECT1,1,COM*%
%TO.N,Net-(COM_SELECT1-COM)*%
X285072000Y-148172000D03*
D25*
%TO.P,COM_SELECT1,2,L*%
%TO.N,/RXI*%
X283072000Y-148172000D03*
D26*
%TO.P,COM_SELECT1,3,R*%
%TO.N,/TXD*%
X287072000Y-148172000D03*
%TD*%
D10*
%TO.P,S28,1,A*%
%TO.N,/G*%
X263604000Y-160452000D03*
D11*
X260329000Y-172302000D03*
%TO.P,S28,2,B*%
%TO.N,Net-(D28-A)*%
X271879000Y-170102000D03*
D10*
X268604000Y-162552000D03*
X258604000Y-162552000D03*
%TD*%
D14*
%TO.P,D29,1,K*%
%TO.N,/5*%
X152150000Y-190500000D03*
D15*
X152150000Y-190500000D03*
D14*
%TO.P,D29,2,A*%
%TO.N,Net-(D29-A)*%
X148850000Y-190500000D03*
D15*
X148850000Y-190500000D03*
%TD*%
D14*
%TO.P,D13,1,K*%
%TO.N,/2*%
X237032000Y-138012000D03*
D15*
X237032000Y-138012000D03*
D14*
%TO.P,D13,2,A*%
%TO.N,Net-(D13-A)*%
X233732000Y-138012000D03*
D15*
X233732000Y-138012000D03*
%TD*%
D23*
%TO.P,RXI2,1,COM*%
%TO.N,Net-(RXI2-COM)*%
X276912000Y-106008000D03*
D22*
%TO.P,RXI2,2,L*%
%TO.N,/RXI*%
X276912000Y-108008000D03*
D21*
%TO.P,RXI2,3,R*%
%TO.N,unconnected-(RXI2-R-Pad3)*%
X276912000Y-104008000D03*
%TD*%
D10*
%TO.P,S15,1,A*%
%TO.N,/A*%
X129932500Y-141452000D03*
D11*
X126657500Y-153302000D03*
%TO.P,S15,2,B*%
%TO.N,Net-(D15-A)*%
X138207500Y-151102000D03*
D10*
X134932500Y-143552000D03*
X124932500Y-143552000D03*
%TD*%
%TO.P,S22,1,A*%
%TO.N,/A*%
X134695000Y-160452000D03*
D11*
X131420000Y-172302000D03*
%TO.P,S22,2,B*%
%TO.N,Net-(D22-A)*%
X142970000Y-170102000D03*
D10*
X139695000Y-162552000D03*
X129695000Y-162552000D03*
%TD*%
D14*
%TO.P,D19,1,K*%
%TO.N,/3*%
X221668000Y-156554000D03*
D15*
X221668000Y-156554000D03*
D14*
%TO.P,D19,2,A*%
%TO.N,Net-(D19-A)*%
X224968000Y-156554000D03*
D15*
X224968000Y-156554000D03*
%TD*%
D10*
%TO.P,S19,1,A*%
%TO.N,/E*%
X216079000Y-141452000D03*
D11*
X212804000Y-153302000D03*
%TO.P,S19,2,B*%
%TO.N,Net-(D19-A)*%
X224354000Y-151102000D03*
D10*
X221079000Y-143552000D03*
X211079000Y-143552000D03*
%TD*%
%TO.P,S9,1,A*%
%TO.N,/B*%
X149554000Y-122452000D03*
D11*
X146279000Y-134302000D03*
%TO.P,S9,2,B*%
%TO.N,Net-(D9-A)*%
X157829000Y-132102000D03*
D10*
X154554000Y-124552000D03*
X144554000Y-124552000D03*
%TD*%
D23*
%TO.P,TXD1,1,COM*%
%TO.N,Net-(TXD1-COM)*%
X283516000Y-106008000D03*
D22*
%TO.P,TXD1,2,L*%
%TO.N,/Bat-*%
X283516000Y-108008000D03*
D21*
%TO.P,TXD1,3,R*%
%TO.N,/RXI*%
X283516000Y-104008000D03*
%TD*%
D10*
%TO.P,F4,1,A*%
%TO.N,/D*%
X195907500Y-84900000D03*
D11*
X192632500Y-96750000D03*
%TO.P,F4,2,B*%
%TO.N,Net-(D38-A)*%
X204182500Y-94550000D03*
D10*
X200907500Y-87000000D03*
X190907500Y-87000000D03*
%TD*%
D14*
%TO.P,D18,1,K*%
%TO.N,/3*%
X202110000Y-156808000D03*
D15*
X202110000Y-156808000D03*
D14*
%TO.P,D18,2,A*%
%TO.N,Net-(D18-A)*%
X205410000Y-156808000D03*
D15*
X205410000Y-156808000D03*
%TD*%
D10*
%TO.P,S13,1,A*%
%TO.N,/F*%
X225554000Y-122452000D03*
D11*
X222279000Y-134302000D03*
%TO.P,S13,2,B*%
%TO.N,Net-(D13-A)*%
X233829000Y-132102000D03*
D10*
X230554000Y-124552000D03*
X220554000Y-124552000D03*
%TD*%
D14*
%TO.P,D1,1,K*%
%TO.N,/1*%
X131116000Y-118708000D03*
D15*
X131116000Y-118708000D03*
D14*
%TO.P,D1,2,A*%
%TO.N,Net-(D1-A)*%
X127816000Y-118708000D03*
D15*
X127816000Y-118708000D03*
%TD*%
D14*
%TO.P,D8,1,K*%
%TO.N,/2*%
X148150000Y-143500000D03*
D15*
X148150000Y-143500000D03*
D14*
%TO.P,D8,2,A*%
%TO.N,Net-(D8-A)*%
X144850000Y-143500000D03*
D15*
X144850000Y-143500000D03*
%TD*%
D23*
%TO.P,TXD2,1,COM*%
%TO.N,Net-(TXD2-COM)*%
X280214000Y-106008000D03*
D22*
%TO.P,TXD2,2,L*%
%TO.N,/TXD*%
X280214000Y-108008000D03*
D21*
%TO.P,TXD2,3,R*%
%TO.N,/Bat-*%
X280214000Y-104008000D03*
%TD*%
D14*
%TO.P,D41,1,K*%
%TO.N,/6*%
X247650000Y-101000000D03*
D15*
X247650000Y-101000000D03*
D14*
%TO.P,D41,2,A*%
%TO.N,Net-(D41-A)*%
X244350000Y-101000000D03*
D15*
X244350000Y-101000000D03*
%TD*%
D12*
%TO.P,R2,1*%
%TO.N,/VCC*%
X264974000Y-105500000D03*
D13*
%TO.P,R2,2*%
%TO.N,/Rotary_B*%
X264974000Y-113120000D03*
%TD*%
D10*
%TO.P,S10,1,A*%
%TO.N,/C*%
X168554000Y-122452000D03*
D11*
X165279000Y-134302000D03*
%TO.P,S10,2,B*%
%TO.N,Net-(D10-A)*%
X176829000Y-132102000D03*
D10*
X173554000Y-124552000D03*
X163554000Y-124552000D03*
%TD*%
%TO.P,S30,1,A*%
%TO.N,/B*%
X164341500Y-179452000D03*
D11*
X161066500Y-191302000D03*
%TO.P,S30,2,B*%
%TO.N,Net-(D30-A)*%
X172616500Y-189102000D03*
D10*
X169341500Y-181552000D03*
X159341500Y-181552000D03*
%TD*%
D35*
%TO.N,/1*%
X262434000Y-127852000D03*
%TO.N,/2*%
X265990000Y-148934000D03*
X285548000Y-126328000D03*
%TO.N,/3*%
X282754000Y-130646000D03*
X266244000Y-157570000D03*
%TO.N,/5*%
X130000000Y-107000000D03*
%TO.N,/GND*%
X278182000Y-140806000D03*
%TO.N,/E*%
X209500000Y-102000000D03*
X206500000Y-101000000D03*
%TO.N,/A*%
X269546000Y-122010000D03*
X270308000Y-116168000D03*
X268530000Y-124296000D03*
%TO.N,/B*%
X255068000Y-129630000D03*
X262434000Y-132678000D03*
X150055000Y-102055000D03*
X268276000Y-132678000D03*
%TO.N,/C*%
X168000000Y-103000000D03*
X271324000Y-130392000D03*
X267514000Y-164428000D03*
%TO.N,/D*%
X275896000Y-141568000D03*
X186500000Y-102500000D03*
%TO.N,/F*%
X243500000Y-106000000D03*
X243500000Y-104000000D03*
%TO.N,/G*%
X264466000Y-110580000D03*
X257862000Y-123534000D03*
X117000000Y-91500000D03*
X256000000Y-101000000D03*
X260148000Y-116930000D03*
X269038000Y-110580000D03*
X221500000Y-101500000D03*
X271578000Y-112358000D03*
%TO.N,/Bat+*%
X268530000Y-152236000D03*
X272340000Y-142076000D03*
X270816000Y-123026000D03*
X271578000Y-125820000D03*
%TO.N,/VCC*%
X278200000Y-146340000D03*
%TO.N,/TXD*%
X288342000Y-145886000D03*
X280976000Y-110580000D03*
%TO.N,/RXI*%
X286818000Y-145378000D03*
X278436000Y-110072000D03*
%TO.N,/Bat-*%
X282246000Y-109564000D03*
%TO.N,Net-(TXD2-COM)*%
X278944000Y-105754000D03*
%TO.N,/SDA*%
X282754000Y-146140000D03*
X286564000Y-135980000D03*
%TO.N,/SCL*%
X283770000Y-134710000D03*
X285548000Y-143600000D03*
%TO.N,Net-(P3-COM)*%
X283770000Y-129630000D03*
%TO.N,Net-(SCL1-COM)*%
X280214000Y-129630000D03*
%TO.N,Net-(SDA1-COM)*%
X276658000Y-125820000D03*
%TO.N,/6*%
X134150000Y-99000000D03*
%TO.N,Net-(D34-A)*%
X139000000Y-87753750D03*
%TO.N,Net-(D36-A)*%
X158000000Y-87753750D03*
%TO.N,Net-(D37-A)*%
X177000000Y-87753750D03*
%TO.N,Net-(D38-A)*%
X196000000Y-87753750D03*
%TO.N,Net-(D39-A)*%
X215000000Y-87753750D03*
%TO.N,Net-(D40-A)*%
X234000000Y-87753750D03*
%TO.N,Net-(D41-A)*%
X253000000Y-87753750D03*
%TD*%
D36*
%TO.N,Net-(D1-A)*%
X128182500Y-108827000D02*
X124907500Y-105552000D01*
X128182500Y-118341500D02*
X127816000Y-118708000D01*
X128182500Y-113102000D02*
X128182500Y-108827000D01*
X128182500Y-113102000D02*
X128182500Y-118341500D01*
%TO.N,Net-(D2-A)*%
X147182500Y-113102000D02*
X147182500Y-108827000D01*
X147182500Y-108827000D02*
X143907500Y-105552000D01*
X147182500Y-113102000D02*
X147182500Y-118898500D01*
X147182500Y-118898500D02*
X147246000Y-118962000D01*
%TO.N,Net-(D3-A)*%
X166182500Y-113102000D02*
X166182500Y-108827000D01*
X166182500Y-108827000D02*
X162907500Y-105552000D01*
X166182500Y-118848500D02*
X166550000Y-119216000D01*
X166182500Y-113102000D02*
X166182500Y-118848500D01*
%TO.N,Net-(D4-A)*%
X185182500Y-113102000D02*
X185182500Y-117910500D01*
X185182500Y-113102000D02*
X185182500Y-108827000D01*
X185182500Y-108827000D02*
X181907500Y-105552000D01*
X185182500Y-117910500D02*
X185726000Y-118454000D01*
%TO.N,Net-(D5-A)*%
X204182500Y-113102000D02*
X204182500Y-108827000D01*
X204182500Y-113102000D02*
X204182500Y-118876500D01*
X204182500Y-108827000D02*
X200907500Y-105552000D01*
X204182500Y-118876500D02*
X204268000Y-118962000D01*
%TO.N,Net-(D6-A)*%
X223182500Y-118444500D02*
X223446000Y-118708000D01*
X223182500Y-113102000D02*
X223182500Y-108827000D01*
X223182500Y-108827000D02*
X219907500Y-105552000D01*
X223182500Y-113102000D02*
X223182500Y-118444500D01*
%TO.N,Net-(D7-A)*%
X242182500Y-115346500D02*
X244782000Y-117946000D01*
X242182500Y-108827000D02*
X238907500Y-105552000D01*
X242182500Y-113102000D02*
X242182500Y-108827000D01*
X242182500Y-113102000D02*
X242182500Y-115346500D01*
%TO.N,Net-(D8-A)*%
X133445000Y-132102000D02*
X133445000Y-138445000D01*
X133445000Y-127827000D02*
X130170000Y-124552000D01*
X138500000Y-143500000D02*
X144850000Y-143500000D01*
X133445000Y-138445000D02*
X138500000Y-143500000D01*
X133445000Y-132102000D02*
X133445000Y-127827000D01*
%TO.N,Net-(D9-A)*%
X157829000Y-132102000D02*
X157829000Y-137927000D01*
X157829000Y-127827000D02*
X154554000Y-124552000D01*
X157829000Y-137927000D02*
X157914000Y-138012000D01*
X157829000Y-132102000D02*
X157829000Y-127827000D01*
%TO.N,Net-(D10-A)*%
X176829000Y-137131000D02*
X176202000Y-137758000D01*
X176829000Y-132102000D02*
X176829000Y-127827000D01*
X176829000Y-127827000D02*
X173554000Y-124552000D01*
X176829000Y-132102000D02*
X176829000Y-137131000D01*
%TO.N,Net-(D11-A)*%
X195829000Y-132102000D02*
X195829000Y-137955000D01*
X195829000Y-127827000D02*
X192554000Y-124552000D01*
X195829000Y-132102000D02*
X195829000Y-127827000D01*
X195829000Y-137955000D02*
X195886000Y-138012000D01*
%TO.N,Net-(D12-A)*%
X214829000Y-127827000D02*
X211554000Y-124552000D01*
X214829000Y-132102000D02*
X214829000Y-127827000D01*
X214829000Y-137651000D02*
X215190000Y-138012000D01*
X214829000Y-132102000D02*
X214829000Y-137651000D01*
%TO.N,Net-(D13-A)*%
X233829000Y-132102000D02*
X233829000Y-127827000D01*
X233829000Y-127827000D02*
X230554000Y-124552000D01*
X233829000Y-137915000D02*
X233732000Y-138012000D01*
X233829000Y-132102000D02*
X233829000Y-137915000D01*
%TO.N,Net-(D14-A)*%
X252829000Y-134883000D02*
X254942000Y-136996000D01*
X252829000Y-132102000D02*
X252829000Y-134883000D01*
X252829000Y-132102000D02*
X252829000Y-127827000D01*
X252829000Y-127827000D02*
X249554000Y-124552000D01*
%TO.N,Net-(D15-A)*%
X138207500Y-151102000D02*
X142994000Y-151102000D01*
X142994000Y-151102000D02*
X148700000Y-156808000D01*
X138207500Y-151102000D02*
X138207500Y-146827000D01*
X138207500Y-146827000D02*
X134932500Y-143552000D01*
%TO.N,Net-(D16-A)*%
X167354000Y-156004000D02*
X167058000Y-156300000D01*
X167354000Y-146827000D02*
X164079000Y-143552000D01*
X167354000Y-151102000D02*
X167354000Y-146827000D01*
X167354000Y-151102000D02*
X167354000Y-156004000D01*
%TO.N,Net-(D17-A)*%
X186354000Y-156292000D02*
X187124000Y-157062000D01*
X186354000Y-151102000D02*
X186354000Y-156292000D01*
X186354000Y-146827000D02*
X183079000Y-143552000D01*
X186354000Y-151102000D02*
X186354000Y-146827000D01*
%TO.N,Net-(D18-A)*%
X205354000Y-146827000D02*
X202079000Y-143552000D01*
X205354000Y-151102000D02*
X205354000Y-156752000D01*
X205354000Y-156752000D02*
X205410000Y-156808000D01*
X205354000Y-151102000D02*
X205354000Y-146827000D01*
%TO.N,Net-(D19-A)*%
X224354000Y-151102000D02*
X224354000Y-155940000D01*
X224354000Y-151102000D02*
X224354000Y-146827000D01*
X224354000Y-155940000D02*
X224968000Y-156554000D01*
X224354000Y-146827000D02*
X221079000Y-143552000D01*
%TO.N,Net-(D20-A)*%
X243354000Y-146827000D02*
X240079000Y-143552000D01*
X243354000Y-151102000D02*
X243354000Y-156964000D01*
X243354000Y-151102000D02*
X243354000Y-146827000D01*
X243354000Y-156964000D02*
X243256000Y-157062000D01*
%TO.N,Net-(D21-A)*%
X262354000Y-151102000D02*
X262354000Y-155586000D01*
X262354000Y-146827000D02*
X259079000Y-143552000D01*
X262354000Y-151102000D02*
X262354000Y-146827000D01*
X262354000Y-155586000D02*
X264084000Y-157316000D01*
%TO.N,Net-(D22-A)*%
X142970000Y-170102000D02*
X142970000Y-165827000D01*
X142970000Y-175470000D02*
X146500000Y-179000000D01*
X142970000Y-165827000D02*
X139695000Y-162552000D01*
X146500000Y-185000000D02*
X149500000Y-188000000D01*
X142970000Y-170102000D02*
X142970000Y-175470000D01*
X146500000Y-179000000D02*
X146500000Y-185000000D01*
%TO.N,Net-(D23-A)*%
X176879000Y-170102000D02*
X176879000Y-165827000D01*
X176879000Y-165827000D02*
X173604000Y-162552000D01*
%TO.N,Net-(D24-A)*%
X195879000Y-170102000D02*
X195879000Y-174327000D01*
X195879000Y-170102000D02*
X195879000Y-165827000D01*
X195879000Y-165827000D02*
X192604000Y-162552000D01*
X195879000Y-174327000D02*
X197664000Y-176112000D01*
%TO.N,Net-(D25-A)*%
X214879000Y-165827000D02*
X211604000Y-162552000D01*
X214879000Y-170102000D02*
X214879000Y-165827000D01*
%TO.N,Net-(D26-A)*%
X233879000Y-170102000D02*
X233879000Y-175331000D01*
X233879000Y-165827000D02*
X230604000Y-162552000D01*
X233879000Y-175331000D02*
X233352000Y-175858000D01*
X233879000Y-170102000D02*
X233879000Y-165827000D01*
%TO.N,Net-(D27-A)*%
X252879000Y-170102000D02*
X252879000Y-165827000D01*
X252879000Y-165827000D02*
X249604000Y-162552000D01*
X252879000Y-174305000D02*
X254686000Y-176112000D01*
X252879000Y-170102000D02*
X252879000Y-174305000D01*
%TO.N,Net-(D28-A)*%
X271879000Y-170102000D02*
X271879000Y-175175000D01*
X271879000Y-165827000D02*
X268604000Y-162552000D01*
X271879000Y-175175000D02*
X270688000Y-176366000D01*
X271879000Y-170102000D02*
X271879000Y-165827000D01*
%TO.N,Net-(D29-A)*%
X138207500Y-189102000D02*
X138207500Y-184827000D01*
X138207500Y-189102000D02*
X147452000Y-189102000D01*
X138207500Y-184827000D02*
X134932500Y-181552000D01*
X147452000Y-189102000D02*
X148850000Y-190500000D01*
%TO.N,Net-(D30-A)*%
X172616500Y-189102000D02*
X172616500Y-184827000D01*
X172616500Y-184827000D02*
X169341500Y-181552000D01*
%TO.N,Net-(D31-A)*%
X197000500Y-189102000D02*
X197000500Y-184827000D01*
X197000500Y-184827000D02*
X193725500Y-181552000D01*
%TO.N,Net-(D32-A)*%
X235550500Y-189102000D02*
X235550500Y-184827000D01*
X235550500Y-184827000D02*
X232275500Y-181552000D01*
%TO.N,/1*%
X248082000Y-117946000D02*
X252317000Y-122181000D01*
X262651000Y-123439000D02*
X262651000Y-127635000D01*
X262651000Y-127635000D02*
X262434000Y-127852000D01*
X261393000Y-122181000D02*
X262651000Y-123439000D01*
X252317000Y-122181000D02*
X261393000Y-122181000D01*
%TO.N,/2*%
X265990000Y-148934000D02*
X265990000Y-144744000D01*
X275896000Y-121541000D02*
X277427000Y-120010000D01*
X284786000Y-127090000D02*
X276658000Y-127090000D01*
X258242000Y-136996000D02*
X258370000Y-136996000D01*
X265990000Y-144744000D02*
X258242000Y-136996000D01*
X285224000Y-120010000D02*
X285294000Y-120080000D01*
X276658000Y-127090000D02*
X275896000Y-126328000D01*
X275896000Y-126328000D02*
X275896000Y-121541000D01*
X278182000Y-120010000D02*
X285224000Y-120010000D01*
X277427000Y-120010000D02*
X278182000Y-120010000D01*
X285548000Y-126328000D02*
X284786000Y-127090000D01*
%TO.N,/3*%
X282754000Y-130646000D02*
X282754000Y-129408000D01*
X262054000Y-158586000D02*
X265228000Y-158586000D01*
X260784000Y-157316000D02*
X262054000Y-158586000D01*
X282754000Y-129408000D02*
X283516000Y-128646000D01*
X278182000Y-128646000D02*
X281992000Y-128646000D01*
X283516000Y-128646000D02*
X285294000Y-128646000D01*
X282754000Y-129408000D02*
X281992000Y-128646000D01*
X265228000Y-158586000D02*
X266244000Y-157570000D01*
%TO.N,/4*%
X173026000Y-194146000D02*
X176074000Y-191098000D01*
X176074000Y-191098000D02*
X176074000Y-185002000D01*
X152800000Y-188000000D02*
X158946000Y-194146000D01*
X158946000Y-194146000D02*
X173026000Y-194146000D01*
X176074000Y-185002000D02*
X167184000Y-176112000D01*
X236652000Y-175858000D02*
X251132000Y-175858000D01*
%TO.N,/5*%
X279960000Y-144870000D02*
X271832000Y-144870000D01*
X288596000Y-134075000D02*
X288596000Y-136234000D01*
X271832000Y-144870000D02*
X262318000Y-135356000D01*
X262318000Y-135356000D02*
X261204000Y-135356000D01*
X128000000Y-103150000D02*
X128000000Y-105000000D01*
X288596000Y-136234000D02*
X279960000Y-144870000D01*
X128000000Y-105000000D02*
X130000000Y-107000000D01*
%TO.N,/Rotary_A*%
X267260000Y-114644000D02*
X267260000Y-119800000D01*
X267260000Y-119800000D02*
X266204000Y-120856000D01*
%TO.N,/Rotary_B*%
X287834000Y-118835000D02*
X287834000Y-118708000D01*
X261204000Y-119684000D02*
X261204000Y-120856000D01*
X264974000Y-115914000D02*
X261204000Y-119684000D01*
X264974000Y-115914000D02*
X264974000Y-113120000D01*
%TO.N,/GND*%
X275896000Y-143854000D02*
X276658000Y-143092000D01*
X276658000Y-140298000D02*
X276658000Y-129122000D01*
X276658000Y-140298000D02*
X277674000Y-140298000D01*
X277674000Y-140298000D02*
X278182000Y-140806000D01*
X277674000Y-115850000D02*
X283738000Y-115850000D01*
X283738000Y-115850000D02*
X284024000Y-116136000D01*
X272086000Y-143854000D02*
X275896000Y-143854000D01*
X263704000Y-135472000D02*
X272086000Y-143854000D01*
X263704000Y-120856000D02*
X263704000Y-135472000D01*
X276658000Y-129122000D02*
X275388000Y-127852000D01*
X275388000Y-127852000D02*
X275388000Y-118136000D01*
X276658000Y-143092000D02*
X276658000Y-140298000D01*
X275388000Y-118136000D02*
X277674000Y-115850000D01*
%TO.N,/E*%
X206554000Y-122452000D02*
X203452000Y-122452000D01*
X212500000Y-87561250D02*
X214907500Y-85153750D01*
X257918000Y-102000000D02*
X269038000Y-113120000D01*
X249500000Y-102000000D02*
X257918000Y-102000000D01*
X222329000Y-172275000D02*
X222329000Y-172302000D01*
X203660000Y-134302000D02*
X203660000Y-126840000D01*
X203660000Y-126840000D02*
X206554000Y-123946000D01*
X206554000Y-123946000D02*
X206554000Y-122452000D01*
X203279000Y-134302000D02*
X203279000Y-135852000D01*
X269038000Y-113120000D02*
X269038000Y-121248000D01*
X269038000Y-121248000D02*
X267895000Y-122391000D01*
X271578000Y-123788000D02*
X271578000Y-120613000D01*
X216079000Y-143981000D02*
X216079000Y-141452000D01*
X212500000Y-96253750D02*
X212500000Y-87561250D01*
X195907500Y-103452000D02*
X196859500Y-102500000D01*
X270054000Y-124042000D02*
X271324000Y-124042000D01*
X246500000Y-103000000D02*
X248500000Y-103000000D01*
X203279000Y-135852000D02*
X208879000Y-141452000D01*
X268403000Y-122391000D02*
X270054000Y-124042000D01*
X222329000Y-172302000D02*
X222556000Y-172302000D01*
X203279000Y-134302000D02*
X203660000Y-134302000D01*
X192632500Y-117132500D02*
X192632500Y-115302000D01*
X199500000Y-118500000D02*
X194000000Y-118500000D01*
X222500000Y-104000000D02*
X227000000Y-104000000D01*
X209500000Y-102000000D02*
X220500000Y-102000000D01*
X222556000Y-172302000D02*
X222556000Y-165952000D01*
X205500000Y-105500000D02*
X207000000Y-105500000D01*
X225604000Y-162904000D02*
X225604000Y-160452000D01*
X206500000Y-100000000D02*
X209750000Y-96750000D01*
X271578000Y-120613000D02*
X273356000Y-118835000D01*
X212804000Y-147256000D02*
X216079000Y-143981000D01*
X203452000Y-122452000D02*
X199500000Y-118500000D01*
X212804000Y-153302000D02*
X212804000Y-147256000D01*
X239000000Y-102000000D02*
X242000000Y-105000000D01*
X192632500Y-109007500D02*
X195907500Y-105732500D01*
X248500000Y-103000000D02*
X249500000Y-102000000D01*
X195907500Y-105732500D02*
X195907500Y-103452000D01*
X244500000Y-105000000D02*
X246500000Y-103000000D01*
X192632500Y-115302000D02*
X192632500Y-109007500D01*
X266204000Y-135356000D02*
X266204000Y-124082000D01*
X227000000Y-104000000D02*
X229000000Y-102000000D01*
X206500000Y-101000000D02*
X206500000Y-100000000D01*
X267895000Y-122391000D02*
X268403000Y-122391000D01*
X242000000Y-105000000D02*
X244500000Y-105000000D01*
X194000000Y-118500000D02*
X192632500Y-117132500D01*
X209750000Y-96750000D02*
X211632500Y-96750000D01*
X196859500Y-102500000D02*
X202500000Y-102500000D01*
X222556000Y-165952000D02*
X225604000Y-162904000D01*
X208879000Y-141452000D02*
X216079000Y-141452000D01*
X209500000Y-103000000D02*
X209500000Y-102000000D01*
X271324000Y-124042000D02*
X271578000Y-123788000D01*
X212804000Y-153302000D02*
X219954000Y-160452000D01*
X220500000Y-102000000D02*
X222500000Y-104000000D01*
X266204000Y-124082000D02*
X267895000Y-122391000D01*
X219954000Y-160452000D02*
X225604000Y-160452000D01*
X207000000Y-105500000D02*
X209500000Y-103000000D01*
X229000000Y-102000000D02*
X239000000Y-102000000D01*
X202500000Y-102500000D02*
X205500000Y-105500000D01*
%TO.N,/A*%
X270308000Y-118454000D02*
X270308000Y-116168000D01*
X131420000Y-172302000D02*
X131420000Y-172252000D01*
X126657500Y-153302000D02*
X126657500Y-157429500D01*
X121895000Y-134302000D02*
X121895000Y-135395000D01*
X136500000Y-96253750D02*
X136500000Y-87561250D01*
X132259000Y-165317000D02*
X134695000Y-162881000D01*
X267260000Y-132932000D02*
X268403000Y-134075000D01*
X267260000Y-125566000D02*
X267260000Y-132932000D01*
X126657500Y-146788500D02*
X129932500Y-143513500D01*
X121895000Y-134302000D02*
X121895000Y-134025000D01*
X116742000Y-115302000D02*
X117400000Y-114644000D01*
X122861000Y-133059000D02*
X122861000Y-126963000D01*
X268403000Y-134075000D02*
X272594000Y-134075000D01*
X134695000Y-162881000D02*
X134695000Y-160452000D01*
X129680000Y-160452000D02*
X134695000Y-160452000D01*
X122861000Y-126963000D02*
X125170000Y-124654000D01*
X270308000Y-118454000D02*
X270308000Y-120994000D01*
X116632500Y-115302000D02*
X116742000Y-115302000D01*
X117400000Y-108040000D02*
X119907500Y-105532500D01*
X125170000Y-124654000D02*
X125170000Y-122452000D01*
X269546000Y-121756000D02*
X269546000Y-122010000D01*
X127433000Y-183859000D02*
X129932500Y-181359500D01*
X123782500Y-122452000D02*
X125170000Y-122452000D01*
X117400000Y-114644000D02*
X117400000Y-108040000D01*
X121895000Y-135395000D02*
X127952000Y-141452000D01*
X116632500Y-115302000D02*
X123782500Y-122452000D01*
X136500000Y-87561250D02*
X138907500Y-85153750D01*
X126657500Y-191238500D02*
X127433000Y-190463000D01*
X270308000Y-120994000D02*
X269546000Y-121756000D01*
X127433000Y-190463000D02*
X127433000Y-183859000D01*
X121895000Y-134025000D02*
X122861000Y-133059000D01*
X126657500Y-153302000D02*
X126657500Y-146788500D01*
X126657500Y-157429500D02*
X129680000Y-160452000D01*
X127952000Y-141452000D02*
X129932500Y-141452000D01*
X119907500Y-105532500D02*
X119907500Y-103452000D01*
X129932500Y-181359500D02*
X129932500Y-179452000D01*
X131420000Y-172252000D02*
X132259000Y-171413000D01*
X131420000Y-177964500D02*
X129932500Y-179452000D01*
X268530000Y-124296000D02*
X267260000Y-125566000D01*
X126657500Y-191302000D02*
X126657500Y-191238500D01*
X129932500Y-143513500D02*
X129932500Y-141452000D01*
X131420000Y-172302000D02*
X131420000Y-177964500D01*
X132259000Y-171413000D02*
X132259000Y-165317000D01*
%TO.N,/B*%
X258116000Y-132678000D02*
X262434000Y-132678000D01*
X136196000Y-108548000D02*
X138907500Y-105836500D01*
X165329000Y-172302000D02*
X165914000Y-172302000D01*
X148081000Y-135927000D02*
X153606000Y-141452000D01*
X161066500Y-191302000D02*
X161850000Y-190518500D01*
X155804000Y-153302000D02*
X162954000Y-160452000D01*
X165914000Y-172302000D02*
X165914000Y-165444000D01*
X165914000Y-165444000D02*
X168604000Y-162754000D01*
X156516000Y-146394000D02*
X159079000Y-143831000D01*
X136196000Y-114738500D02*
X136196000Y-108548000D01*
X152750000Y-96750000D02*
X154632500Y-96750000D01*
X155804000Y-153202000D02*
X156516000Y-152490000D01*
X150055000Y-102055000D02*
X151000000Y-101110000D01*
X147118000Y-127090000D02*
X149554000Y-124654000D01*
X269419000Y-131535000D02*
X272594000Y-131535000D01*
X135632500Y-115302000D02*
X136196000Y-114738500D01*
X151000000Y-101110000D02*
X151000000Y-98500000D01*
X262434000Y-132678000D02*
X262180000Y-132678000D01*
X147904000Y-135927000D02*
X148081000Y-135927000D01*
X161850000Y-183986000D02*
X164341500Y-181494500D01*
X168604000Y-162754000D02*
X168604000Y-160452000D01*
X165329000Y-178464500D02*
X164341500Y-179452000D01*
X138907500Y-105836500D02*
X138907500Y-103452000D01*
X162954000Y-160452000D02*
X168604000Y-160452000D01*
X165329000Y-172302000D02*
X165329000Y-178464500D01*
X149554000Y-124654000D02*
X149554000Y-122452000D01*
X159079000Y-143831000D02*
X159079000Y-141452000D01*
X151000000Y-98500000D02*
X152750000Y-96750000D01*
X268276000Y-132678000D02*
X269419000Y-131535000D01*
X146279000Y-134302000D02*
X147904000Y-135927000D01*
X156516000Y-152490000D02*
X156516000Y-146394000D01*
X147118000Y-133463000D02*
X147118000Y-127090000D01*
X137257500Y-116975500D02*
X142734000Y-122452000D01*
X135632500Y-115302000D02*
X137257500Y-116927000D01*
X153606000Y-141452000D02*
X159079000Y-141452000D01*
X137257500Y-116927000D02*
X137257500Y-116975500D01*
X155500000Y-96253750D02*
X155500000Y-87561250D01*
X165329000Y-171871000D02*
X165329000Y-172302000D01*
X155804000Y-153302000D02*
X155804000Y-153202000D01*
X255068000Y-129630000D02*
X258116000Y-132678000D01*
X164341500Y-181494500D02*
X164341500Y-179452000D01*
X155500000Y-87561250D02*
X157907500Y-85153750D01*
X135632500Y-115207500D02*
X135632500Y-115302000D01*
X161850000Y-190518500D02*
X161850000Y-183986000D01*
X142734000Y-122452000D02*
X149554000Y-122452000D01*
X146279000Y-134302000D02*
X147118000Y-133463000D01*
%TO.N,/C*%
X230000000Y-184000000D02*
X230000000Y-192500000D01*
X265990000Y-165952000D02*
X265990000Y-174500000D01*
X265990000Y-174500000D02*
X265990000Y-174588000D01*
X174804000Y-153302000D02*
X174804000Y-154852000D01*
X165279000Y-134302000D02*
X165306000Y-134302000D01*
X185522000Y-191302000D02*
X187504000Y-189320000D01*
X175439000Y-146013000D02*
X178079000Y-143373000D01*
X154632500Y-117132500D02*
X154632500Y-115302000D01*
X270816000Y-129376000D02*
X270816000Y-129884000D01*
X174500000Y-87561250D02*
X176907500Y-85153750D01*
X270816000Y-126328000D02*
X270816000Y-129376000D01*
X267514000Y-164428000D02*
X265990000Y-165952000D01*
X154632500Y-109161500D02*
X157907500Y-105886500D01*
X187504000Y-189320000D02*
X185450500Y-187266500D01*
X273356000Y-123915000D02*
X272467000Y-124804000D01*
X167548000Y-103452000D02*
X157907500Y-103452000D01*
X174500000Y-96253750D02*
X174500000Y-87561250D01*
X196324250Y-194675750D02*
X188824250Y-194675750D01*
X168000000Y-103000000D02*
X167548000Y-103452000D01*
X166041000Y-127471000D02*
X168554000Y-124958000D01*
X272467000Y-124804000D02*
X271324000Y-124804000D01*
X185450500Y-184769500D02*
X188725500Y-181494500D01*
X201500000Y-189500000D02*
X196324250Y-194675750D01*
X184964000Y-165190000D02*
X187604000Y-162550000D01*
X265990000Y-174500000D02*
X258490000Y-182000000D01*
X230500000Y-179500000D02*
X229500000Y-180500000D01*
X154632500Y-115302000D02*
X154632500Y-109161500D01*
X165306000Y-134302000D02*
X166041000Y-133567000D01*
X161500000Y-118000000D02*
X155500000Y-118000000D01*
X180404000Y-160452000D02*
X187604000Y-160452000D01*
X271324000Y-124804000D02*
X270562000Y-125566000D01*
X165952000Y-122452000D02*
X161500000Y-118000000D01*
X185450500Y-187266500D02*
X185450500Y-184769500D01*
X188725500Y-181494500D02*
X188725500Y-179452000D01*
X174804000Y-153302000D02*
X175008000Y-153302000D01*
X270816000Y-129884000D02*
X271324000Y-130392000D01*
X185450500Y-191302000D02*
X185522000Y-191302000D01*
X175439000Y-152871000D02*
X175439000Y-146013000D01*
X168554000Y-124958000D02*
X168554000Y-122452000D01*
X228000000Y-194500000D02*
X221500000Y-194500000D01*
X184329000Y-175055500D02*
X188725500Y-179452000D01*
X165279000Y-134302000D02*
X165279000Y-136361000D01*
X270562000Y-125566000D02*
X270562000Y-125820000D01*
X230000000Y-192500000D02*
X228000000Y-194500000D01*
X165279000Y-136361000D02*
X170370000Y-141452000D01*
X216500000Y-189500000D02*
X201500000Y-189500000D01*
X184329000Y-172302000D02*
X184329000Y-172175000D01*
X270562000Y-126074000D02*
X270816000Y-126328000D01*
X166041000Y-133567000D02*
X166041000Y-127471000D01*
X258490000Y-182000000D02*
X236000000Y-182000000D01*
X188824250Y-194675750D02*
X185450500Y-191302000D01*
X168554000Y-122452000D02*
X165952000Y-122452000D01*
X175008000Y-153302000D02*
X175439000Y-152871000D01*
X184329000Y-172302000D02*
X184329000Y-175055500D01*
X178079000Y-143373000D02*
X178079000Y-141452000D01*
X184329000Y-172175000D02*
X184964000Y-171540000D01*
X187604000Y-162550000D02*
X187604000Y-160452000D01*
X233500000Y-179500000D02*
X230500000Y-179500000D01*
X157907500Y-105886500D02*
X157907500Y-103452000D01*
X174804000Y-154852000D02*
X180404000Y-160452000D01*
X155500000Y-118000000D02*
X154632500Y-117132500D01*
X236000000Y-182000000D02*
X233500000Y-179500000D01*
X270562000Y-125820000D02*
X270562000Y-126074000D01*
X229500000Y-180500000D02*
X229500000Y-183500000D01*
X170370000Y-141452000D02*
X178079000Y-141452000D01*
X184964000Y-171540000D02*
X184964000Y-165190000D01*
X229500000Y-183500000D02*
X230000000Y-184000000D01*
X221500000Y-194500000D02*
X216500000Y-189500000D01*
%TO.N,/D*%
X173632500Y-116852000D02*
X179232500Y-122452000D01*
X203506000Y-172302000D02*
X204014000Y-171794000D01*
X224000500Y-190923500D02*
X224715000Y-190209000D01*
X200954000Y-160452000D02*
X206604000Y-160452000D01*
X224000500Y-191302000D02*
X224000500Y-190923500D01*
X275896000Y-129630000D02*
X274880000Y-128614000D01*
X203329000Y-172302000D02*
X203329000Y-173852000D01*
X176907500Y-105428500D02*
X176907500Y-103452000D01*
X184279000Y-134302000D02*
X184279000Y-128283000D01*
X185548000Y-103452000D02*
X176907500Y-103452000D01*
X194616000Y-146394000D02*
X197079000Y-143931000D01*
X274880000Y-128614000D02*
X274880000Y-122899000D01*
X189879000Y-141452000D02*
X197079000Y-141452000D01*
X227275500Y-181552500D02*
X227275500Y-179452000D01*
X174042000Y-115152000D02*
X174042000Y-108294000D01*
X193500000Y-96253750D02*
X193500000Y-87561250D01*
X184279000Y-134302000D02*
X184279000Y-135852000D01*
X173632500Y-115302000D02*
X173632500Y-116852000D01*
X174042000Y-108294000D02*
X176907500Y-105428500D01*
X173632500Y-115302000D02*
X173892000Y-115302000D01*
X194616000Y-152490000D02*
X194616000Y-146394000D01*
X184279000Y-135852000D02*
X189879000Y-141452000D01*
X204014000Y-171794000D02*
X204014000Y-165444000D01*
X206604000Y-162854000D02*
X206604000Y-160452000D01*
X184279000Y-128283000D02*
X187554000Y-125008000D01*
X224715000Y-190209000D02*
X224715000Y-184113000D01*
X187554000Y-125008000D02*
X187554000Y-122452000D01*
X203329000Y-172302000D02*
X203506000Y-172302000D01*
X203329000Y-173852000D02*
X205081000Y-175604000D01*
X173892000Y-115302000D02*
X174042000Y-115152000D01*
X186500000Y-102500000D02*
X185548000Y-103452000D01*
X223427500Y-175604000D02*
X227275500Y-179452000D01*
X197079000Y-143931000D02*
X197079000Y-141452000D01*
X275896000Y-141568000D02*
X275896000Y-129630000D01*
X193500000Y-87561250D02*
X195907500Y-85153750D01*
X193804000Y-153302000D02*
X194616000Y-152490000D01*
X205081000Y-175604000D02*
X223427500Y-175604000D01*
X274880000Y-122899000D02*
X273356000Y-121375000D01*
X204014000Y-165444000D02*
X206604000Y-162854000D01*
X193804000Y-153302000D02*
X200954000Y-160452000D01*
X179232500Y-122452000D02*
X187554000Y-122452000D01*
X224715000Y-184113000D02*
X227275500Y-181552500D01*
%TO.N,/F*%
X222279000Y-134302000D02*
X222964000Y-134302000D01*
X212269000Y-115025000D02*
X212269000Y-108675000D01*
X214907500Y-106036500D02*
X214907500Y-103452000D01*
X222937000Y-127471000D02*
X225554000Y-124854000D01*
X244604000Y-162700000D02*
X244604000Y-160452000D01*
X225554000Y-124854000D02*
X225554000Y-122452000D01*
X241329000Y-172302000D02*
X241352000Y-172302000D01*
X229429000Y-141452000D02*
X235079000Y-141452000D01*
X241500000Y-102000000D02*
X243500000Y-104000000D01*
X222279000Y-134302000D02*
X229429000Y-141452000D01*
X231500000Y-87561250D02*
X233907500Y-85153750D01*
X239500000Y-100000000D02*
X241500000Y-102000000D01*
X245000000Y-107500000D02*
X249500000Y-107500000D01*
X250242000Y-107000000D02*
X250242000Y-108000000D01*
X241352000Y-172302000D02*
X241987000Y-171667000D01*
X249500000Y-107500000D02*
X249742000Y-107500000D01*
X233500000Y-100000000D02*
X239500000Y-100000000D01*
X232158000Y-153302000D02*
X232158000Y-146952000D01*
X230632500Y-97132500D02*
X233500000Y-100000000D01*
X231500000Y-96253750D02*
X231500000Y-87561250D01*
X252907500Y-103452000D02*
X250242000Y-106117500D01*
X235079000Y-144031000D02*
X235079000Y-141452000D01*
X222964000Y-134302000D02*
X222964000Y-127498000D01*
X222964000Y-127498000D02*
X222937000Y-127471000D01*
X250242000Y-108000000D02*
X250242000Y-114692500D01*
X243500000Y-106000000D02*
X245000000Y-107500000D01*
X241987000Y-171667000D02*
X241987000Y-165317000D01*
X232158000Y-146952000D02*
X235079000Y-144031000D01*
X211632500Y-115302000D02*
X218782500Y-122452000D01*
X238954000Y-160452000D02*
X244604000Y-160452000D01*
X249742000Y-107500000D02*
X250242000Y-108000000D01*
X250242000Y-114692500D02*
X249632500Y-115302000D01*
X249742000Y-107500000D02*
X250242000Y-107000000D01*
X231804000Y-153302000D02*
X232158000Y-153302000D01*
X212269000Y-108675000D02*
X214907500Y-106036500D01*
X231804000Y-153302000D02*
X238954000Y-160452000D01*
X211632500Y-115302000D02*
X211992000Y-115302000D01*
X218782500Y-122452000D02*
X225554000Y-122452000D01*
X230632500Y-96750000D02*
X230632500Y-97132500D01*
X250242000Y-106117500D02*
X250242000Y-107000000D01*
X211992000Y-115302000D02*
X212269000Y-115025000D01*
X241987000Y-165317000D02*
X244604000Y-162700000D01*
%TO.N,/G*%
X230632500Y-117132500D02*
X231500000Y-118000000D01*
X248363604Y-102500000D02*
X243950000Y-102500000D01*
X241506000Y-134302000D02*
X241987000Y-133821000D01*
X131500000Y-101500000D02*
X127500000Y-101500000D01*
X270816000Y-112358000D02*
X271578000Y-112358000D01*
X149500000Y-104500000D02*
X148500000Y-104500000D01*
X255450000Y-101550000D02*
X249313604Y-101550000D01*
X260910000Y-171794000D02*
X260910000Y-165444000D01*
X252782000Y-123788000D02*
X251512000Y-122518000D01*
X148500000Y-104500000D02*
X144500000Y-100500000D01*
X241279000Y-134302000D02*
X241279000Y-135852000D01*
X260148000Y-116930000D02*
X261926000Y-116930000D01*
X241452000Y-122452000D02*
X244554000Y-122452000D01*
X244554000Y-124142000D02*
X244554000Y-122452000D01*
X254079000Y-143573000D02*
X254079000Y-141452000D01*
X132500000Y-100500000D02*
X131500000Y-101500000D01*
X127500000Y-101500000D02*
X125500000Y-99500000D01*
X118500000Y-99500000D02*
X116632500Y-97632500D01*
X208775000Y-101699695D02*
X208775000Y-102725000D01*
X117000000Y-91500000D02*
X117500000Y-92000000D01*
X251004000Y-122518000D02*
X250938000Y-122452000D01*
X260329000Y-172302000D02*
X260402000Y-172302000D01*
X231500000Y-118000000D02*
X237000000Y-118000000D01*
X251258000Y-152744000D02*
X251258000Y-146394000D01*
X202000000Y-100500000D02*
X193000000Y-100500000D01*
X250938000Y-122452000D02*
X244554000Y-122452000D01*
X249313604Y-101550000D02*
X248363604Y-102500000D01*
X242500000Y-101050000D02*
X242500000Y-99500000D01*
X184000000Y-100500000D02*
X174000000Y-100500000D01*
X230632500Y-115302000D02*
X231042000Y-115302000D01*
X174000000Y-100500000D02*
X172500000Y-102000000D01*
X220500000Y-100500000D02*
X209974695Y-100500000D01*
X193000000Y-100500000D02*
X192000000Y-101500000D01*
X116632500Y-97632500D02*
X116632500Y-96750000D01*
X221500000Y-101500000D02*
X220500000Y-100500000D01*
X250804000Y-153198000D02*
X251258000Y-152744000D01*
X242500000Y-99500000D02*
X244996250Y-97003750D01*
X260402000Y-172302000D02*
X260910000Y-171794000D01*
X251512000Y-122518000D02*
X251004000Y-122518000D01*
X251258000Y-146394000D02*
X254079000Y-143573000D01*
X192000000Y-101500000D02*
X185000000Y-101500000D01*
X249750000Y-97003750D02*
X250500000Y-96253750D01*
X257608000Y-123788000D02*
X257862000Y-123534000D01*
X250500000Y-96253750D02*
X250500000Y-87561250D01*
X172500000Y-102000000D02*
X166000000Y-102000000D01*
X207000000Y-104500000D02*
X206000000Y-104500000D01*
X263604000Y-162750000D02*
X263604000Y-160452000D01*
X231065000Y-108675000D02*
X233907500Y-105832500D01*
X252782000Y-123788000D02*
X257608000Y-123788000D01*
X250500000Y-87561250D02*
X252907500Y-85153750D01*
X230632500Y-115302000D02*
X230632500Y-117132500D01*
X233907500Y-105832500D02*
X233907500Y-103452000D01*
X144500000Y-100500000D02*
X132500000Y-100500000D01*
X209974695Y-100500000D02*
X208775000Y-101699695D01*
X244996250Y-97003750D02*
X249750000Y-97003750D01*
X263450000Y-111596000D02*
X264466000Y-110580000D01*
X117500000Y-95882500D02*
X116632500Y-96750000D01*
X166000000Y-102000000D02*
X164500000Y-100500000D01*
X241279000Y-134302000D02*
X241506000Y-134302000D01*
X246879000Y-141452000D02*
X254079000Y-141452000D01*
X125500000Y-99500000D02*
X118500000Y-99500000D01*
X237000000Y-118000000D02*
X241452000Y-122452000D01*
X164500000Y-100500000D02*
X153500000Y-100500000D01*
X185000000Y-101500000D02*
X184000000Y-100500000D01*
X250804000Y-153302000D02*
X250804000Y-153198000D01*
X231065000Y-115279000D02*
X231065000Y-108675000D01*
X263450000Y-115406000D02*
X263450000Y-114390000D01*
X243950000Y-102500000D02*
X242500000Y-101050000D01*
X208775000Y-102725000D02*
X207000000Y-104500000D01*
X257954000Y-160452000D02*
X263604000Y-160452000D01*
X269038000Y-110580000D02*
X270816000Y-112358000D01*
X153500000Y-100500000D02*
X149500000Y-104500000D01*
X256000000Y-101000000D02*
X255450000Y-101550000D01*
X117500000Y-92000000D02*
X117500000Y-95882500D01*
X250804000Y-153302000D02*
X257954000Y-160452000D01*
X206000000Y-104500000D02*
X202000000Y-100500000D01*
X231042000Y-115302000D02*
X231065000Y-115279000D01*
X241987000Y-126709000D02*
X244554000Y-124142000D01*
X241279000Y-135852000D02*
X246879000Y-141452000D01*
X261926000Y-116930000D02*
X263450000Y-115406000D01*
X263450000Y-114390000D02*
X263450000Y-111596000D01*
X260910000Y-165444000D02*
X263604000Y-162750000D01*
X241987000Y-133821000D02*
X241987000Y-126709000D01*
D37*
%TO.N,/Bat+*%
X273848500Y-130346000D02*
X274880000Y-131377500D01*
X280475500Y-164181500D02*
X280475500Y-169975500D01*
X271578000Y-129282000D02*
X272642000Y-130346000D01*
X276658000Y-101436000D02*
X285358000Y-101436000D01*
X268530000Y-152236000D02*
X280475500Y-164181500D01*
X270816000Y-123026000D02*
X271070000Y-123026000D01*
X271578000Y-125820000D02*
X271578000Y-129282000D01*
X274880000Y-131377500D02*
X274880000Y-140552000D01*
X267260000Y-99912000D02*
X262688000Y-104484000D01*
X285596000Y-175096000D02*
X288628000Y-175096000D01*
X274626000Y-140806000D02*
X273610000Y-140806000D01*
X280475500Y-169975500D02*
X285596000Y-175096000D01*
X262688000Y-104484000D02*
X262688000Y-105500000D01*
X271070000Y-113882000D02*
X271070000Y-122772000D01*
X262688000Y-105500000D02*
X271070000Y-113882000D01*
X271070000Y-122772000D02*
X270816000Y-123026000D01*
X276658000Y-101436000D02*
X276658000Y-100681000D01*
X272642000Y-130346000D02*
X273848500Y-130346000D01*
D36*
X289278000Y-175096000D02*
X288628000Y-175096000D01*
D37*
X276658000Y-100681000D02*
X275889000Y-99912000D01*
X274880000Y-140552000D02*
X274626000Y-140806000D01*
X275889000Y-99912000D02*
X267260000Y-99912000D01*
X273610000Y-140806000D02*
X272340000Y-142076000D01*
D36*
%TO.N,Net-(Bat+1-COM)*%
X287358000Y-101436000D02*
X288596000Y-102674000D01*
X288596000Y-102674000D02*
X288596000Y-103595000D01*
%TO.N,Net-(GND1-COM)*%
X277579000Y-113755000D02*
X277674000Y-113850000D01*
X273356000Y-113755000D02*
X277579000Y-113755000D01*
%TO.N,/VCC*%
X276150000Y-149950000D02*
X278980000Y-147120000D01*
X289866000Y-112866000D02*
X289866000Y-136234000D01*
X274626000Y-175858000D02*
X274626000Y-161380000D01*
X264974000Y-105500000D02*
X266498000Y-107024000D01*
X284317000Y-112429000D02*
X289429000Y-112429000D01*
X269800000Y-180684000D02*
X274626000Y-175858000D01*
X283738000Y-111850000D02*
X284024000Y-112136000D01*
X267260000Y-107024000D02*
X267514000Y-107024000D01*
X278980000Y-147120000D02*
X289866000Y-136234000D01*
X266498000Y-107024000D02*
X267260000Y-107024000D01*
X266752000Y-153506000D02*
X266752000Y-150458000D01*
X270379000Y-109889000D02*
X275713000Y-109889000D01*
X277674000Y-111850000D02*
X283738000Y-111850000D01*
X275713000Y-109889000D02*
X277674000Y-111850000D01*
X267260000Y-149950000D02*
X276150000Y-149950000D01*
X269800000Y-185256000D02*
X269800000Y-180684000D01*
X266752000Y-150458000D02*
X267260000Y-149950000D01*
X289429000Y-112429000D02*
X289866000Y-112866000D01*
X278200000Y-146340000D02*
X278980000Y-147120000D01*
X284024000Y-112136000D02*
X284317000Y-112429000D01*
X267514000Y-107024000D02*
X270379000Y-109889000D01*
X274626000Y-161380000D02*
X266752000Y-153506000D01*
%TO.N,Net-(GND2-COM)*%
X274658000Y-101436000D02*
X273356000Y-102738000D01*
X273356000Y-102738000D02*
X273356000Y-103595000D01*
%TO.N,/TXD*%
X285040000Y-107247000D02*
X285555000Y-106732000D01*
X285555000Y-106732000D02*
X286310000Y-106732000D01*
X280214000Y-108008000D02*
X280214000Y-109818000D01*
X283516000Y-110580000D02*
X285040000Y-109056000D01*
X280976000Y-110580000D02*
X283516000Y-110580000D01*
X285040000Y-109056000D02*
X285040000Y-107247000D01*
X287072000Y-148172000D02*
X287072000Y-147156000D01*
X280214000Y-109818000D02*
X280976000Y-110580000D01*
X287072000Y-147156000D02*
X288342000Y-145886000D01*
%TO.N,Net-(RXI1-COM)*%
X288539000Y-108732000D02*
X288596000Y-108675000D01*
X286310000Y-108732000D02*
X288539000Y-108732000D01*
%TO.N,Net-(RXI2-COM)*%
X276912000Y-106008000D02*
X274245000Y-108675000D01*
X274245000Y-108675000D02*
X273356000Y-108675000D01*
%TO.N,/RXI*%
X279198000Y-102706000D02*
X278690000Y-103214000D01*
X283072000Y-147092000D02*
X283262000Y-146902000D01*
X283072000Y-148172000D02*
X283072000Y-147092000D01*
X278436000Y-110072000D02*
X278436000Y-109532000D01*
X282214000Y-102706000D02*
X279198000Y-102706000D01*
X278690000Y-103214000D02*
X278690000Y-104484000D01*
X278690000Y-104484000D02*
X278182000Y-104992000D01*
X277667000Y-108008000D02*
X276912000Y-108008000D01*
X283516000Y-104008000D02*
X282214000Y-102706000D01*
X278436000Y-109532000D02*
X276912000Y-108008000D01*
X278182000Y-107493000D02*
X277667000Y-108008000D01*
X284786000Y-145378000D02*
X286818000Y-145378000D01*
X278182000Y-104992000D02*
X278182000Y-107493000D01*
X283262000Y-146902000D02*
X284786000Y-145378000D01*
D37*
%TO.N,/Bat-*%
X282461000Y-104699000D02*
X282461000Y-107708000D01*
X282461000Y-107708000D02*
X282761000Y-108008000D01*
X283516000Y-108008000D02*
X282246000Y-109278000D01*
X281770000Y-104008000D02*
X282461000Y-104699000D01*
X282761000Y-108008000D02*
X283516000Y-108008000D01*
X280214000Y-104008000D02*
X281770000Y-104008000D01*
X282246000Y-109278000D02*
X282246000Y-109564000D01*
D36*
%TO.N,Net-(TXD1-COM)*%
X284024000Y-105500000D02*
X283516000Y-106008000D01*
X287580000Y-105500000D02*
X284024000Y-105500000D01*
X288215000Y-106135000D02*
X287580000Y-105500000D01*
X288596000Y-106135000D02*
X288215000Y-106135000D01*
%TO.N,Net-(TXD2-COM)*%
X280214000Y-106008000D02*
X279198000Y-106008000D01*
X279198000Y-106008000D02*
X278944000Y-105754000D01*
%TO.N,Net-(U1-VCC)*%
X288215000Y-114136000D02*
X288596000Y-113755000D01*
X284024000Y-114136000D02*
X288215000Y-114136000D01*
%TO.N,Net-(D33-A)*%
X261182500Y-113102000D02*
X261182500Y-108827000D01*
X261182500Y-113102000D02*
X261182500Y-114371500D01*
X261182500Y-108827000D02*
X257907500Y-105552000D01*
X261182500Y-114371500D02*
X257100000Y-118454000D01*
%TO.N,/SDA*%
X275896000Y-160872000D02*
X275896000Y-184240000D01*
X276654000Y-151224000D02*
X268280000Y-151224000D01*
X278182000Y-124010000D02*
X285224000Y-124010000D01*
X286564000Y-135980000D02*
X286499802Y-135915802D01*
X268280000Y-151224000D02*
X268276000Y-151220000D01*
X286499802Y-125285802D02*
X286499802Y-133694000D01*
X268276000Y-151220000D02*
X267805000Y-151691000D01*
X267805000Y-151691000D02*
X267805000Y-152781000D01*
X281738000Y-146140000D02*
X276654000Y-151224000D01*
X285224000Y-124010000D02*
X285294000Y-124080000D01*
X286499802Y-133694000D02*
X286564000Y-135980000D01*
X285294000Y-124080000D02*
X286499802Y-125285802D01*
X275896000Y-184240000D02*
X274880000Y-185256000D01*
X267805000Y-152781000D02*
X275896000Y-160872000D01*
X282754000Y-146140000D02*
X281738000Y-146140000D01*
%TO.N,/SCL*%
X283770000Y-134710000D02*
X283770000Y-134170000D01*
X268022000Y-150458000D02*
X276404000Y-150458000D01*
X283770000Y-134170000D02*
X285294000Y-132646000D01*
X272340000Y-180176000D02*
X275388000Y-177128000D01*
X278182000Y-132646000D02*
X282246000Y-132646000D01*
X283262000Y-143600000D02*
X285548000Y-143600000D01*
X272340000Y-185256000D02*
X272340000Y-180176000D01*
X275388000Y-161126000D02*
X267260000Y-152998000D01*
X267260000Y-151220000D02*
X268022000Y-150458000D01*
X276404000Y-150458000D02*
X283262000Y-143600000D01*
X275388000Y-177128000D02*
X275388000Y-161126000D01*
X267260000Y-152998000D02*
X267260000Y-151220000D01*
X283770000Y-134170000D02*
X282246000Y-132646000D01*
%TO.N,Net-(COM_SELECT1-COM)*%
X285200000Y-151718000D02*
X285200000Y-148300000D01*
X285200000Y-148300000D02*
X285072000Y-148172000D01*
X281194000Y-155724000D02*
X285200000Y-151718000D01*
%TO.N,Net-(J2-Pin_1)*%
X280475500Y-181000000D02*
X280475500Y-189848000D01*
X288628000Y-177096000D02*
X284379500Y-177096000D01*
X284379500Y-177096000D02*
X280475500Y-181000000D01*
%TO.N,Net-(P2-COM)*%
X286634000Y-122080000D02*
X287072000Y-122518000D01*
X287072000Y-125820000D02*
X287707000Y-126455000D01*
X285294000Y-122080000D02*
X286634000Y-122080000D01*
X287072000Y-122518000D02*
X287072000Y-125820000D01*
X287707000Y-126455000D02*
X288596000Y-126455000D01*
%TO.N,Net-(P3-COM)*%
X284278000Y-130646000D02*
X285294000Y-130646000D01*
X287961000Y-128995000D02*
X288596000Y-128995000D01*
X283770000Y-130138000D02*
X284278000Y-130646000D01*
X283770000Y-129630000D02*
X283770000Y-130138000D01*
%TO.N,Net-(SCL1-COM)*%
X279198000Y-130646000D02*
X278182000Y-130646000D01*
X280214000Y-129630000D02*
X279198000Y-130646000D01*
%TO.N,Net-(SDA1-COM)*%
X278182000Y-122010000D02*
X276658000Y-123534000D01*
X276658000Y-123534000D02*
X276658000Y-125820000D01*
%TO.N,Net-(D35-A)*%
X128182500Y-90275000D02*
X124907500Y-87000000D01*
X124907500Y-87000000D02*
X114907500Y-87000000D01*
X128000000Y-99850000D02*
X128182500Y-99667500D01*
X128182500Y-99667500D02*
X128182500Y-94550000D01*
X128182500Y-94550000D02*
X128182500Y-90275000D01*
%TO.N,/6*%
X202000000Y-99500000D02*
X206000000Y-103500000D01*
X150135305Y-103000000D02*
X154135305Y-99000000D01*
X145000000Y-99000000D02*
X149000000Y-103000000D01*
X154135305Y-99000000D02*
X166500000Y-99000000D01*
X166500000Y-99000000D02*
X168000000Y-97500000D01*
X208000000Y-101500000D02*
X210500000Y-99000000D01*
X170150000Y-100500000D02*
X170650000Y-100500000D01*
X210500000Y-99000000D02*
X223000000Y-99000000D01*
X224500000Y-97500000D02*
X226150000Y-97500000D01*
X172150000Y-99000000D02*
X184000000Y-99000000D01*
X170650000Y-97500000D02*
X172150000Y-99000000D01*
X149000000Y-103000000D02*
X150135305Y-103000000D01*
X208000000Y-102500000D02*
X208000000Y-101500000D01*
X184000000Y-99000000D02*
X185000000Y-98000000D01*
X134150000Y-99000000D02*
X145000000Y-99000000D01*
X223000000Y-99000000D02*
X224500000Y-97500000D01*
X168000000Y-97500000D02*
X170650000Y-97500000D01*
X189500000Y-99500000D02*
X202000000Y-99500000D01*
X206000000Y-103500000D02*
X207000000Y-103500000D01*
X207000000Y-103500000D02*
X208000000Y-102500000D01*
X170650000Y-100500000D02*
X172150000Y-99000000D01*
X188000000Y-98000000D02*
X189500000Y-99500000D01*
X189500000Y-100500000D02*
X189500000Y-99500000D01*
X226150000Y-97500000D02*
X229650000Y-101000000D01*
X185000000Y-98000000D02*
X188000000Y-98000000D01*
%TO.N,Net-(D34-A)*%
X143907500Y-87253750D02*
X139500000Y-87253750D01*
X139500000Y-87253750D02*
X139000000Y-87753750D01*
X147182500Y-94803750D02*
X147182500Y-90528750D01*
X147182500Y-90528750D02*
X143907500Y-87253750D01*
%TO.N,Net-(D36-A)*%
X158500000Y-87253750D02*
X158000000Y-87753750D01*
X162907500Y-87253750D02*
X158500000Y-87253750D01*
X166182500Y-90528750D02*
X162907500Y-87253750D01*
X166182500Y-94803750D02*
X166182500Y-90528750D01*
%TO.N,Net-(D37-A)*%
X185182500Y-90528750D02*
X181907500Y-87253750D01*
X181907500Y-87253750D02*
X177500000Y-87253750D01*
X177500000Y-87253750D02*
X177000000Y-87753750D01*
X185182500Y-94803750D02*
X185182500Y-90528750D01*
%TO.N,Net-(D38-A)*%
X204182500Y-90528750D02*
X200907500Y-87253750D01*
X200907500Y-87253750D02*
X196500000Y-87253750D01*
X204182500Y-94803750D02*
X204182500Y-90528750D01*
X196500000Y-87253750D02*
X196000000Y-87753750D01*
%TO.N,Net-(D39-A)*%
X215500000Y-87253750D02*
X215000000Y-87753750D01*
X223182500Y-90528750D02*
X219907500Y-87253750D01*
X223182500Y-94803750D02*
X223182500Y-90528750D01*
X219907500Y-87253750D02*
X215500000Y-87253750D01*
%TO.N,Net-(D40-A)*%
X242182500Y-94803750D02*
X242182500Y-90528750D01*
X234500000Y-87253750D02*
X234000000Y-87753750D01*
X242182500Y-90528750D02*
X238907500Y-87253750D01*
X238907500Y-87253750D02*
X234500000Y-87253750D01*
%TO.N,Net-(D41-A)*%
X261182500Y-94803750D02*
X261182500Y-98317500D01*
X245350000Y-99500000D02*
X244350000Y-100500000D01*
X260000000Y-99500000D02*
X245350000Y-99500000D01*
X253500000Y-87253750D02*
X253000000Y-87753750D01*
X257907500Y-87253750D02*
X253500000Y-87253750D01*
X261182500Y-94803750D02*
X261182500Y-90528750D01*
X261182500Y-98317500D02*
X260000000Y-99500000D01*
X261182500Y-90528750D02*
X257907500Y-87253750D01*
%TD*%
M02*
