%TF.GenerationSoftware,KiCad,Pcbnew,8.0.4*%
%TF.CreationDate,2024-11-08T15:07:56-07:00*%
%TF.ProjectId,simple_split_MX,73696d70-6c65-45f7-9370-6c69745f4d58,v1.0.0*%
%TF.SameCoordinates,Original*%
%TF.FileFunction,Copper,L1,Top*%
%TF.FilePolarity,Positive*%
%FSLAX46Y46*%
G04 Gerber Fmt 4.6, Leading zero omitted, Abs format (unit mm)*
G04 Created by KiCad (PCBNEW 8.0.4) date 2024-11-08 15:07:56*
%MOMM*%
%LPD*%
G01*
G04 APERTURE LIST*
G04 Aperture macros list*
%AMRoundRect*
0 Rectangle with rounded corners*
0 $1 Rounding radius*
0 $2 $3 $4 $5 $6 $7 $8 $9 X,Y pos of 4 corners*
0 Add a 4 corners polygon primitive as box body*
4,1,4,$2,$3,$4,$5,$6,$7,$8,$9,$2,$3,0*
0 Add four circle primitives for the rounded corners*
1,1,$1+$1,$2,$3*
1,1,$1+$1,$4,$5*
1,1,$1+$1,$6,$7*
1,1,$1+$1,$8,$9*
0 Add four rect primitives between the rounded corners*
20,1,$1+$1,$2,$3,$4,$5,0*
20,1,$1+$1,$4,$5,$6,$7,0*
20,1,$1+$1,$6,$7,$8,$9,0*
20,1,$1+$1,$8,$9,$2,$3,0*%
%AMFreePoly0*
4,1,7,0.700000,0.000000,1.200000,-0.750000,-1.200000,-0.750000,-0.700000,0.000000,-1.200000,0.750000,1.200000,0.750000,0.700000,0.000000,0.700000,0.000000,$1*%
%AMFreePoly1*
4,1,6,1.000000,0.000000,0.500000,-0.750000,-0.500000,-0.750000,-0.500000,0.750000,0.500000,0.750000,1.000000,0.000000,1.000000,0.000000,$1*%
G04 Aperture macros list end*
%TA.AperFunction,SMDPad,CuDef*%
%ADD10R,2.550000X2.500000*%
%TD*%
%TA.AperFunction,ComponentPad*%
%ADD11C,1.400000*%
%TD*%
%TA.AperFunction,ComponentPad*%
%ADD12O,1.400000X1.400000*%
%TD*%
%TA.AperFunction,ComponentPad*%
%ADD13C,0.800000*%
%TD*%
%TA.AperFunction,SMDPad,CuDef*%
%ADD14R,0.900000X1.200000*%
%TD*%
%TA.AperFunction,ComponentPad*%
%ADD15RoundRect,0.250000X-0.750000X0.600000X-0.750000X-0.600000X0.750000X-0.600000X0.750000X0.600000X0*%
%TD*%
%TA.AperFunction,ComponentPad*%
%ADD16O,2.000000X1.700000*%
%TD*%
%TA.AperFunction,ComponentPad*%
%ADD17R,2.000000X2.000000*%
%TD*%
%TA.AperFunction,ComponentPad*%
%ADD18C,2.000000*%
%TD*%
%TA.AperFunction,SMDPad,CuDef*%
%ADD19FreePoly0,270.000000*%
%TD*%
%TA.AperFunction,SMDPad,CuDef*%
%ADD20FreePoly1,270.000000*%
%TD*%
%TA.AperFunction,SMDPad,CuDef*%
%ADD21FreePoly1,90.000000*%
%TD*%
%TA.AperFunction,SMDPad,CuDef*%
%ADD22FreePoly0,90.000000*%
%TD*%
%TA.AperFunction,SMDPad,CuDef*%
%ADD23FreePoly0,0.000000*%
%TD*%
%TA.AperFunction,SMDPad,CuDef*%
%ADD24FreePoly1,0.000000*%
%TD*%
%TA.AperFunction,SMDPad,CuDef*%
%ADD25FreePoly1,180.000000*%
%TD*%
%TA.AperFunction,ComponentPad*%
%ADD26R,1.778000X1.524000*%
%TD*%
%TA.AperFunction,ComponentPad*%
%ADD27C,1.778000*%
%TD*%
%TA.AperFunction,ComponentPad*%
%ADD28O,3.500000X2.200000*%
%TD*%
%TA.AperFunction,ComponentPad*%
%ADD29R,2.500000X1.500000*%
%TD*%
%TA.AperFunction,ComponentPad*%
%ADD30O,2.500000X1.500000*%
%TD*%
%TA.AperFunction,ComponentPad*%
%ADD31O,1.800000X2.800000*%
%TD*%
%TA.AperFunction,ComponentPad*%
%ADD32R,2.000000X3.200000*%
%TD*%
%TA.AperFunction,ViaPad*%
%ADD33C,0.800000*%
%TD*%
%TA.AperFunction,Conductor*%
%ADD34C,0.200000*%
%TD*%
%TA.AperFunction,Conductor*%
%ADD35C,0.250000*%
%TD*%
G04 APERTURE END LIST*
D10*
%TO.P,Extra_Function_Key1,1,A*%
%TO.N,/G*%
X246617500Y-85720000D03*
%TO.P,Extra_Function_Key1,2,B*%
%TO.N,Net-(D41-A)*%
X260467500Y-88260000D03*
%TD*%
%TO.P,S35,1,A*%
%TO.N,/G*%
X113617500Y-85720000D03*
%TO.P,S35,2,B*%
%TO.N,Net-(D35-A)*%
X127467500Y-88260000D03*
%TD*%
%TO.P,S33,1,A*%
%TO.N,/F*%
X246617500Y-104272000D03*
%TO.P,S33,2,B*%
%TO.N,Net-(D33-A)*%
X260467500Y-106812000D03*
%TD*%
%TO.P,S32,1,A*%
%TO.N,/D*%
X220985500Y-180272000D03*
%TO.P,S32,2,B*%
%TO.N,Net-(D32-A)*%
X234835500Y-182812000D03*
%TD*%
%TO.P,S31,1,A*%
%TO.N,/C*%
X182435500Y-180272000D03*
%TO.P,S31,2,B*%
%TO.N,Net-(D31-A)*%
X196285500Y-182812000D03*
%TD*%
%TO.P,S30,1,A*%
%TO.N,/B*%
X158051500Y-180272000D03*
%TO.P,S30,2,B*%
%TO.N,Net-(D30-A)*%
X171901500Y-182812000D03*
%TD*%
%TO.P,S29,1,A*%
%TO.N,/A*%
X123642500Y-180272000D03*
%TO.P,S29,2,B*%
%TO.N,Net-(D29-A)*%
X137492500Y-182812000D03*
%TD*%
%TO.P,S28,1,A*%
%TO.N,/G*%
X257314000Y-161272000D03*
%TO.P,S28,2,B*%
%TO.N,Net-(D28-A)*%
X271164000Y-163812000D03*
%TD*%
%TO.P,S27,1,A*%
%TO.N,/F*%
X238314000Y-161272000D03*
%TO.P,S27,2,B*%
%TO.N,Net-(D27-A)*%
X252164000Y-163812000D03*
%TD*%
%TO.P,S26,1,A*%
%TO.N,/E*%
X219314000Y-161272000D03*
%TO.P,S26,2,B*%
%TO.N,Net-(D26-A)*%
X233164000Y-163812000D03*
%TD*%
%TO.P,S25,1,A*%
%TO.N,/D*%
X200314000Y-161272000D03*
%TO.P,S25,2,B*%
%TO.N,Net-(D25-A)*%
X214164000Y-163812000D03*
%TD*%
%TO.P,S24,1,A*%
%TO.N,/C*%
X181314000Y-161272000D03*
%TO.P,S24,2,B*%
%TO.N,Net-(D24-A)*%
X195164000Y-163812000D03*
%TD*%
%TO.P,S23,1,A*%
%TO.N,/B*%
X162314000Y-161272000D03*
%TO.P,S23,2,B*%
%TO.N,Net-(D23-A)*%
X176164000Y-163812000D03*
%TD*%
%TO.P,S22,1,A*%
%TO.N,/A*%
X128405000Y-161272000D03*
%TO.P,S22,2,B*%
%TO.N,Net-(D22-A)*%
X142255000Y-163812000D03*
%TD*%
%TO.P,S21,1,A*%
%TO.N,/G*%
X247789000Y-142272000D03*
%TO.P,S21,2,B*%
%TO.N,Net-(D21-A)*%
X261639000Y-144812000D03*
%TD*%
%TO.P,S19,1,A*%
%TO.N,/E*%
X209789000Y-142272000D03*
%TO.P,S19,2,B*%
%TO.N,Net-(D19-A)*%
X223639000Y-144812000D03*
%TD*%
%TO.P,S18,1,A*%
%TO.N,/D*%
X190789000Y-142272000D03*
%TO.P,S18,2,B*%
%TO.N,Net-(D18-A)*%
X204639000Y-144812000D03*
%TD*%
%TO.P,S17,1,A*%
%TO.N,/C*%
X171789000Y-142272000D03*
%TO.P,S17,2,B*%
%TO.N,Net-(D17-A)*%
X185639000Y-144812000D03*
%TD*%
%TO.P,S16,1,A*%
%TO.N,/B*%
X152789000Y-142272000D03*
%TO.P,S16,2,B*%
%TO.N,Net-(D16-A)*%
X166639000Y-144812000D03*
%TD*%
%TO.P,S15,1,A*%
%TO.N,/A*%
X123642500Y-142272000D03*
%TO.P,S15,2,B*%
%TO.N,Net-(D15-A)*%
X137492500Y-144812000D03*
%TD*%
%TO.P,S14,2,B*%
%TO.N,Net-(D14-A)*%
X252114000Y-125812000D03*
%TO.P,S14,1,A*%
%TO.N,/G*%
X238264000Y-123272000D03*
%TD*%
%TO.P,S13,1,A*%
%TO.N,/F*%
X219264000Y-123272000D03*
%TO.P,S13,2,B*%
%TO.N,Net-(D13-A)*%
X233114000Y-125812000D03*
%TD*%
%TO.P,S12,1,A*%
%TO.N,/E*%
X200264000Y-123272000D03*
%TO.P,S12,2,B*%
%TO.N,Net-(D12-A)*%
X214114000Y-125812000D03*
%TD*%
%TO.P,S11,1,A*%
%TO.N,/D*%
X181264000Y-123272000D03*
%TO.P,S11,2,B*%
%TO.N,Net-(D11-A)*%
X195114000Y-125812000D03*
%TD*%
%TO.P,S10,1,A*%
%TO.N,/C*%
X162264000Y-123272000D03*
%TO.P,S10,2,B*%
%TO.N,Net-(D10-A)*%
X176114000Y-125812000D03*
%TD*%
%TO.P,S9,1,A*%
%TO.N,/B*%
X143264000Y-123272000D03*
%TO.P,S9,2,B*%
%TO.N,Net-(D9-A)*%
X157114000Y-125812000D03*
%TD*%
%TO.P,S8,1,A*%
%TO.N,/A*%
X118880000Y-123272000D03*
%TO.P,S8,2,B*%
%TO.N,Net-(D8-A)*%
X132730000Y-125812000D03*
%TD*%
%TO.P,S7,1,A*%
%TO.N,/G*%
X227617500Y-104272000D03*
%TO.P,S7,2,B*%
%TO.N,Net-(D7-A)*%
X241467500Y-106812000D03*
%TD*%
%TO.P,S6,1,A*%
%TO.N,/F*%
X208617500Y-104272000D03*
%TO.P,S6,2,B*%
%TO.N,Net-(D6-A)*%
X222467500Y-106812000D03*
%TD*%
%TO.P,S5,1,A*%
%TO.N,/E*%
X189617500Y-104272000D03*
%TO.P,S5,2,B*%
%TO.N,Net-(D5-A)*%
X203467500Y-106812000D03*
%TD*%
%TO.P,S4,1,A*%
%TO.N,/D*%
X170617500Y-104272000D03*
%TO.P,S4,2,B*%
%TO.N,Net-(D4-A)*%
X184467500Y-106812000D03*
%TD*%
%TO.P,S3,1,A*%
%TO.N,/C*%
X151617500Y-104272000D03*
%TO.P,S3,2,B*%
%TO.N,Net-(D3-A)*%
X165467500Y-106812000D03*
%TD*%
%TO.P,S1,1,A*%
%TO.N,/A*%
X113617500Y-104272000D03*
%TO.P,S1,2,B*%
%TO.N,Net-(D1-A)*%
X127467500Y-106812000D03*
%TD*%
%TO.P,F6,1,A*%
%TO.N,/F*%
X227617500Y-85720000D03*
%TO.P,F6,2,B*%
%TO.N,Net-(D40-A)*%
X241467500Y-88260000D03*
%TD*%
%TO.P,F5,1,A*%
%TO.N,/E*%
X208617500Y-85720000D03*
%TO.P,F5,2,B*%
%TO.N,Net-(D39-A)*%
X222467500Y-88260000D03*
%TD*%
%TO.P,F4,1,A*%
%TO.N,/D*%
X189617500Y-85720000D03*
%TO.P,F4,2,B*%
%TO.N,Net-(D38-A)*%
X203467500Y-88260000D03*
%TD*%
%TO.P,F3,1,A*%
%TO.N,/C*%
X170617500Y-85720000D03*
%TO.P,F3,2,B*%
%TO.N,Net-(D37-A)*%
X184467500Y-88260000D03*
%TD*%
%TO.P,F2,1,A*%
%TO.N,/B*%
X151617500Y-85720000D03*
%TO.P,F2,2,B*%
%TO.N,Net-(D36-A)*%
X165467500Y-88260000D03*
%TD*%
%TO.P,F1,1,A*%
%TO.N,/A*%
X132617500Y-85720000D03*
%TO.P,F1,2,B*%
%TO.N,Net-(D34-A)*%
X146467500Y-88260000D03*
%TD*%
D11*
%TO.P,R3,1*%
%TO.N,/Rotary_A*%
X267260000Y-114644000D03*
D12*
%TO.P,R3,2*%
%TO.N,/VCC*%
X267260000Y-107024000D03*
%TD*%
D13*
%TO.P,D33,1,K*%
%TO.N,/5*%
X260349000Y-117348000D03*
D14*
X260349000Y-117348000D03*
D13*
%TO.P,D33,2,A*%
%TO.N,Net-(D33-A)*%
X257049000Y-117348000D03*
D14*
X257049000Y-117348000D03*
%TD*%
D15*
%TO.P,J2,1,Pin_1*%
%TO.N,Net-(J2-Pin_1)*%
X280475500Y-189848000D03*
D16*
%TO.P,J2,2,Pin_2*%
%TO.N,/Bat-*%
X280475500Y-192348000D03*
%TD*%
D17*
%TO.P,U2,1,GND*%
%TO.N,/GND*%
X267260000Y-185256000D03*
D18*
%TO.P,U2,2,VCC*%
%TO.N,/VCC*%
X269800000Y-185256000D03*
%TO.P,U2,3,SCL*%
%TO.N,/SCL*%
X272340000Y-185256000D03*
%TO.P,U2,4,SDA*%
%TO.N,/SDA*%
X274880000Y-185256000D03*
%TD*%
D19*
%TO.P,VCC1,1,COM*%
%TO.N,Net-(U1-VCC)*%
X284024000Y-114136000D03*
D20*
%TO.P,VCC1,2,L*%
%TO.N,/VCC*%
X284024000Y-112136000D03*
D21*
%TO.P,VCC1,3,R*%
%TO.N,/GND*%
X284024000Y-116136000D03*
%TD*%
D22*
%TO.P,GND1,1,COM*%
%TO.N,Net-(GND1-COM)*%
X277674000Y-113850000D03*
D21*
%TO.P,GND1,2,L*%
%TO.N,/GND*%
X277674000Y-115850000D03*
D20*
%TO.P,GND1,3,R*%
%TO.N,/VCC*%
X277674000Y-111850000D03*
%TD*%
D23*
%TO.P,GND2,1,COM*%
%TO.N,Net-(GND2-COM)*%
X274574000Y-101092000D03*
D24*
%TO.P,GND2,2,L*%
%TO.N,unconnected-(GND2-L-Pad2)*%
X272574000Y-101092000D03*
D25*
%TO.P,GND2,3,R*%
%TO.N,/Bat+*%
X276574000Y-101092000D03*
%TD*%
D22*
%TO.P,RXI1,1,COM*%
%TO.N,Net-(RXI1-COM)*%
X286258000Y-108732000D03*
D21*
%TO.P,RXI1,2,L*%
%TO.N,unconnected-(RXI1-L-Pad2)*%
X286258000Y-110732000D03*
D20*
%TO.P,RXI1,3,R*%
%TO.N,/TXD*%
X286258000Y-106732000D03*
%TD*%
D22*
%TO.P,SCL1,1,COM*%
%TO.N,Net-(SCL1-COM)*%
X278182000Y-130646000D03*
D21*
%TO.P,SCL1,2,L*%
%TO.N,/SCL*%
X278182000Y-132646000D03*
D20*
%TO.P,SCL1,3,R*%
%TO.N,/3*%
X278182000Y-128646000D03*
%TD*%
D23*
%TO.P,Bat+1,1,COM*%
%TO.N,Net-(Bat+1-COM)*%
X287358000Y-100838000D03*
D24*
%TO.P,Bat+1,2,L*%
%TO.N,/Bat+*%
X285358000Y-100838000D03*
D25*
%TO.P,Bat+1,3,R*%
%TO.N,unconnected-(Bat+1-R-Pad3)*%
X289358000Y-100838000D03*
%TD*%
D13*
%TO.P,D28,1,K*%
%TO.N,/4*%
X270688000Y-176366000D03*
D14*
X270688000Y-176366000D03*
D13*
%TO.P,D28,2,A*%
%TO.N,Net-(D28-A)*%
X267388000Y-176366000D03*
D14*
X267388000Y-176366000D03*
%TD*%
D26*
%TO.P,U1,0,GND*%
%TO.N,Net-(GND2-COM)*%
X273356000Y-103595000D03*
D27*
%TO.P,U1,1,Txd*%
%TO.N,Net-(TXD2-COM)*%
X273356000Y-106135000D03*
%TO.P,U1,2,RXI*%
%TO.N,Net-(RXI2-COM)*%
X273356000Y-108675000D03*
%TO.P,U1,3,GND*%
%TO.N,unconnected-(U1-GND-Pad3)*%
X273356000Y-111215000D03*
%TO.P,U1,4,GND*%
%TO.N,Net-(GND1-COM)*%
X273356000Y-113755000D03*
%TO.P,U1,5,2*%
%TO.N,/F*%
X273356000Y-116295000D03*
%TO.P,U1,6,3*%
%TO.N,/E*%
X273356000Y-118835000D03*
%TO.P,U1,7,4*%
%TO.N,/D*%
X273356000Y-121375000D03*
%TO.P,U1,8,5*%
%TO.N,/C*%
X273356000Y-123915000D03*
%TO.P,U1,9,6*%
%TO.N,Net-(SDA1-COM)*%
X273356000Y-126455000D03*
%TO.P,U1,10,7*%
%TO.N,Net-(SCL1-COM)*%
X273356000Y-128995000D03*
%TO.P,U1,11,8*%
%TO.N,/B*%
X273356000Y-131535000D03*
%TO.P,U1,12,9*%
%TO.N,/A*%
X273356000Y-134075000D03*
%TO.P,U1,13,10*%
%TO.N,/5*%
X288596000Y-134075000D03*
%TO.P,U1,14,16*%
%TO.N,/4*%
X288596000Y-131535000D03*
%TO.P,U1,15,14*%
%TO.N,Net-(P3-COM)*%
X288596000Y-128995000D03*
%TO.P,U1,16,15*%
%TO.N,Net-(P2-COM)*%
X288596000Y-126455000D03*
%TO.P,U1,17,A0*%
%TO.N,/1*%
X288596000Y-123915000D03*
%TO.P,U1,18,A1*%
%TO.N,/Rotary_A*%
X288596000Y-121375000D03*
%TO.P,U1,19,A2*%
%TO.N,/Rotary_B*%
X288596000Y-118835000D03*
%TO.P,U1,20,A3*%
%TO.N,/G*%
X288596000Y-116295000D03*
%TO.P,U1,21,VCC*%
%TO.N,Net-(U1-VCC)*%
X288596000Y-113755000D03*
%TO.P,U1,22,RST*%
%TO.N,unconnected-(U1-RST-Pad22)*%
X288596000Y-111215000D03*
%TO.P,U1,23,GND*%
%TO.N,Net-(RXI1-COM)*%
X288596000Y-108675000D03*
%TO.P,U1,24,Bat-*%
%TO.N,Net-(TXD1-COM)*%
X288596000Y-106135000D03*
%TO.P,U1,25,Bat+*%
%TO.N,Net-(Bat+1-COM)*%
X288596000Y-103595000D03*
%TD*%
D19*
%TO.P,P3,1,COM*%
%TO.N,Net-(P3-COM)*%
X285294000Y-130646000D03*
D20*
%TO.P,P3,2,L*%
%TO.N,/3*%
X285294000Y-128646000D03*
D21*
%TO.P,P3,3,R*%
%TO.N,/SCL*%
X285294000Y-132646000D03*
%TD*%
D13*
%TO.P,D21,1,K*%
%TO.N,/3*%
X264084000Y-157316000D03*
D14*
X264084000Y-157316000D03*
D13*
%TO.P,D21,2,A*%
%TO.N,Net-(D21-A)*%
X260784000Y-157316000D03*
D14*
X260784000Y-157316000D03*
%TD*%
D19*
%TO.P,P2,1,COM*%
%TO.N,Net-(P2-COM)*%
X285294000Y-122080000D03*
D20*
%TO.P,P2,2,L*%
%TO.N,/2*%
X285294000Y-120080000D03*
D21*
%TO.P,P2,3,R*%
%TO.N,/SDA*%
X285294000Y-124080000D03*
%TD*%
D22*
%TO.P,SDA1,1,COM*%
%TO.N,Net-(SDA1-COM)*%
X278182000Y-122010000D03*
D21*
%TO.P,SDA1,2,L*%
%TO.N,/SDA*%
X278182000Y-124010000D03*
D20*
%TO.P,SDA1,3,R*%
%TO.N,/2*%
X278182000Y-120010000D03*
%TD*%
D28*
%TO.P,SW1,*%
%TO.N,*%
X288628000Y-179196000D03*
X288628000Y-170996000D03*
D29*
%TO.P,SW1,1,B*%
%TO.N,Net-(J2-Pin_1)*%
X288628000Y-177096000D03*
D30*
%TO.P,SW1,2,C*%
%TO.N,/Bat+*%
X288628000Y-175096000D03*
%TO.P,SW1,3,A*%
%TO.N,unconnected-(SW1-A-Pad3)*%
X288628000Y-173096000D03*
%TD*%
D31*
%TO.P,J1,R*%
%TO.N,Net-(COM_SELECT1-COM)*%
X281194000Y-155724000D03*
X281194000Y-159724000D03*
%TO.P,J1,S*%
%TO.N,/GND*%
X289094000Y-157724000D03*
%TO.P,J1,T*%
%TO.N,/VCC*%
X286694000Y-155724000D03*
X286694000Y-159724000D03*
%TD*%
D17*
%TO.P,R1,A,A*%
%TO.N,/Rotary_A*%
X266204000Y-120856000D03*
D18*
%TO.P,R1,B,B*%
%TO.N,/Rotary_B*%
X261204000Y-120856000D03*
%TO.P,R1,C,C*%
%TO.N,/GND*%
X263704000Y-120856000D03*
D32*
%TO.P,R1,MP*%
%TO.N,N/C*%
X269304000Y-128356000D03*
X258104000Y-128356000D03*
D18*
%TO.P,R1,S1,S1*%
%TO.N,/5*%
X261204000Y-135356000D03*
%TO.P,R1,S2,S2*%
%TO.N,/E*%
X266204000Y-135356000D03*
%TD*%
D23*
%TO.P,COM_SELECT1,1,COM*%
%TO.N,Net-(COM_SELECT1-COM)*%
X285072000Y-148172000D03*
D24*
%TO.P,COM_SELECT1,2,L*%
%TO.N,/RXI*%
X283072000Y-148172000D03*
D25*
%TO.P,COM_SELECT1,3,R*%
%TO.N,/TXD*%
X287072000Y-148172000D03*
%TD*%
D22*
%TO.P,RXI2,1,COM*%
%TO.N,Net-(RXI2-COM)*%
X276912000Y-106008000D03*
D21*
%TO.P,RXI2,2,L*%
%TO.N,/RXI*%
X276912000Y-108008000D03*
D20*
%TO.P,RXI2,3,R*%
%TO.N,unconnected-(RXI2-R-Pad3)*%
X276912000Y-104008000D03*
%TD*%
D22*
%TO.P,TXD1,1,COM*%
%TO.N,Net-(TXD1-COM)*%
X283516000Y-106008000D03*
D21*
%TO.P,TXD1,2,L*%
%TO.N,/Bat-*%
X283516000Y-108008000D03*
D20*
%TO.P,TXD1,3,R*%
%TO.N,/RXI*%
X283516000Y-104008000D03*
%TD*%
D22*
%TO.P,TXD2,1,COM*%
%TO.N,Net-(TXD2-COM)*%
X280214000Y-106008000D03*
D21*
%TO.P,TXD2,2,L*%
%TO.N,/TXD*%
X280214000Y-108008000D03*
D20*
%TO.P,TXD2,3,R*%
%TO.N,/Bat-*%
X280214000Y-104008000D03*
%TD*%
D11*
%TO.P,R2,1*%
%TO.N,/VCC*%
X264974000Y-105500000D03*
D12*
%TO.P,R2,2*%
%TO.N,/Rotary_B*%
X264974000Y-113120000D03*
%TD*%
D13*
%TO.P,D26,1,K*%
%TO.N,/4*%
X236652000Y-175858000D03*
D14*
X236652000Y-175858000D03*
D13*
%TO.P,D26,2,A*%
%TO.N,Net-(D26-A)*%
X233352000Y-175858000D03*
D14*
X233352000Y-175858000D03*
%TD*%
D13*
%TO.P,D41,1,K*%
%TO.N,/6*%
X262128000Y-100838000D03*
D14*
X262128000Y-100838000D03*
D13*
%TO.P,D41,2,A*%
%TO.N,Net-(D41-A)*%
X258828000Y-100838000D03*
D14*
X258828000Y-100838000D03*
%TD*%
D13*
%TO.P,D1,1,K*%
%TO.N,/1*%
X131116000Y-118708000D03*
D14*
X131116000Y-118708000D03*
D13*
%TO.P,D1,2,A*%
%TO.N,Net-(D1-A)*%
X127816000Y-118708000D03*
D14*
X127816000Y-118708000D03*
%TD*%
D13*
%TO.P,D19,1,K*%
%TO.N,/3*%
X227202000Y-156972000D03*
D14*
X227202000Y-156972000D03*
D13*
%TO.P,D19,2,A*%
%TO.N,Net-(D19-A)*%
X223902000Y-156972000D03*
D14*
X223902000Y-156972000D03*
%TD*%
D13*
%TO.P,D27,1,K*%
%TO.N,/4*%
X255650000Y-175768000D03*
D14*
X255650000Y-175768000D03*
D13*
%TO.P,D27,2,A*%
%TO.N,Net-(D27-A)*%
X252350000Y-175768000D03*
D14*
X252350000Y-175768000D03*
%TD*%
D13*
%TO.P,D29,1,K*%
%TO.N,/5*%
X152150000Y-190500000D03*
D14*
X152150000Y-190500000D03*
D13*
%TO.P,D29,2,A*%
%TO.N,Net-(D29-A)*%
X148850000Y-190500000D03*
D14*
X148850000Y-190500000D03*
%TD*%
D13*
%TO.P,D2,1,K*%
%TO.N,/1*%
X150546000Y-118962000D03*
D14*
X150546000Y-118962000D03*
D13*
%TO.P,D2,2,A*%
%TO.N,Net-(D2-A)*%
X147246000Y-118962000D03*
D14*
X147246000Y-118962000D03*
%TD*%
D13*
%TO.P,D40,1,K*%
%TO.N,/6*%
X248284000Y-100330000D03*
D14*
X248284000Y-100330000D03*
D13*
%TO.P,D40,2,A*%
%TO.N,Net-(D40-A)*%
X244984000Y-100330000D03*
D14*
X244984000Y-100330000D03*
%TD*%
D13*
%TO.P,D32,1,K*%
%TO.N,/5*%
X241172000Y-182880000D03*
D14*
X241172000Y-182880000D03*
D13*
%TO.P,D32,2,A*%
%TO.N,Net-(D32-A)*%
X237872000Y-182880000D03*
D14*
X237872000Y-182880000D03*
%TD*%
D13*
%TO.P,D31,1,K*%
%TO.N,/5*%
X203326000Y-180594000D03*
D14*
X203326000Y-180594000D03*
D13*
%TO.P,D31,2,A*%
%TO.N,Net-(D31-A)*%
X200026000Y-180594000D03*
D14*
X200026000Y-180594000D03*
%TD*%
D13*
%TO.P,D34,1,K*%
%TO.N,/6*%
X149860000Y-99314000D03*
D14*
X149860000Y-99314000D03*
D13*
%TO.P,D34,2,A*%
%TO.N,Net-(D34-A)*%
X146560000Y-99314000D03*
D14*
X146560000Y-99314000D03*
%TD*%
D13*
%TO.P,D14,1,K*%
%TO.N,/2*%
X255396000Y-136779000D03*
D14*
X255396000Y-136779000D03*
D13*
%TO.P,D14,2,A*%
%TO.N,Net-(D14-A)*%
X252096000Y-136779000D03*
D14*
X252096000Y-136779000D03*
%TD*%
D13*
%TO.P,D22,1,K*%
%TO.N,/4*%
X155448000Y-173482000D03*
D14*
X155448000Y-173482000D03*
D13*
%TO.P,D22,2,A*%
%TO.N,Net-(D22-A)*%
X152148000Y-173482000D03*
D14*
X152148000Y-173482000D03*
%TD*%
D13*
%TO.P,D20,1,K*%
%TO.N,/3*%
X246252000Y-157480000D03*
D14*
X246252000Y-157480000D03*
D13*
%TO.P,D20,2,A*%
%TO.N,Net-(D20-A)*%
X242952000Y-157480000D03*
D14*
X242952000Y-157480000D03*
%TD*%
D13*
%TO.P,D24,1,K*%
%TO.N,/4*%
X199896000Y-176276000D03*
D14*
X199896000Y-176276000D03*
D13*
%TO.P,D24,2,A*%
%TO.N,Net-(D24-A)*%
X196596000Y-176276000D03*
D14*
X196596000Y-176276000D03*
%TD*%
D13*
%TO.P,D13,1,K*%
%TO.N,/2*%
X237032000Y-138012000D03*
D14*
X237032000Y-138012000D03*
D13*
%TO.P,D13,2,A*%
%TO.N,Net-(D13-A)*%
X233732000Y-138012000D03*
D14*
X233732000Y-138012000D03*
%TD*%
D13*
%TO.P,D35,1,K*%
%TO.N,/5*%
X130174000Y-100838000D03*
D14*
X130174000Y-100838000D03*
D13*
%TO.P,D35,2,A*%
%TO.N,Net-(D35-A)*%
X126874000Y-100838000D03*
D14*
X126874000Y-100838000D03*
%TD*%
D13*
%TO.P,D8,1,K*%
%TO.N,/2*%
X149224000Y-139192000D03*
D14*
X149224000Y-139192000D03*
D13*
%TO.P,D8,2,A*%
%TO.N,Net-(D8-A)*%
X145924000Y-139192000D03*
D14*
X145924000Y-139192000D03*
%TD*%
D13*
%TO.P,D18,1,K*%
%TO.N,/3*%
X208152000Y-157226000D03*
D14*
X208152000Y-157226000D03*
D13*
%TO.P,D18,2,A*%
%TO.N,Net-(D18-A)*%
X204852000Y-157226000D03*
D14*
X204852000Y-157226000D03*
%TD*%
D13*
%TO.P,D25,1,K*%
%TO.N,/4*%
X217550000Y-174752000D03*
D14*
X217550000Y-174752000D03*
D13*
%TO.P,D25,2,A*%
%TO.N,Net-(D25-A)*%
X214250000Y-174752000D03*
D14*
X214250000Y-174752000D03*
%TD*%
D13*
%TO.P,D17,1,K*%
%TO.N,/3*%
X190424000Y-157062000D03*
D14*
X190424000Y-157062000D03*
D13*
%TO.P,D17,2,A*%
%TO.N,Net-(D17-A)*%
X187124000Y-157062000D03*
D14*
X187124000Y-157062000D03*
%TD*%
D13*
%TO.P,D11,1,K*%
%TO.N,/2*%
X199186000Y-138012000D03*
D14*
X199186000Y-138012000D03*
D13*
%TO.P,D11,2,A*%
%TO.N,Net-(D11-A)*%
X195886000Y-138012000D03*
D14*
X195886000Y-138012000D03*
%TD*%
D13*
%TO.P,D39,1,K*%
%TO.N,/6*%
X225932000Y-100584000D03*
D14*
X225932000Y-100584000D03*
D13*
%TO.P,D39,2,A*%
%TO.N,Net-(D39-A)*%
X222632000Y-100584000D03*
D14*
X222632000Y-100584000D03*
%TD*%
D13*
%TO.P,D15,1,K*%
%TO.N,/3*%
X152000000Y-156808000D03*
D14*
X152000000Y-156808000D03*
D13*
%TO.P,D15,2,A*%
%TO.N,Net-(D15-A)*%
X148700000Y-156808000D03*
D14*
X148700000Y-156808000D03*
%TD*%
D13*
%TO.P,D23,1,K*%
%TO.N,/4*%
X179958000Y-176276000D03*
D14*
X179958000Y-176276000D03*
D13*
%TO.P,D23,2,A*%
%TO.N,Net-(D23-A)*%
X176658000Y-176276000D03*
D14*
X176658000Y-176276000D03*
%TD*%
D13*
%TO.P,D10,1,K*%
%TO.N,/2*%
X179502000Y-137758000D03*
D14*
X179502000Y-137758000D03*
D13*
%TO.P,D10,2,A*%
%TO.N,Net-(D10-A)*%
X176202000Y-137758000D03*
D14*
X176202000Y-137758000D03*
%TD*%
D13*
%TO.P,D7,1,K*%
%TO.N,/1*%
X248082000Y-117946000D03*
D14*
X248082000Y-117946000D03*
D13*
%TO.P,D7,2,A*%
%TO.N,Net-(D7-A)*%
X244782000Y-117946000D03*
D14*
X244782000Y-117946000D03*
%TD*%
D13*
%TO.P,D16,1,K*%
%TO.N,/3*%
X170358000Y-156300000D03*
D14*
X170358000Y-156300000D03*
D13*
%TO.P,D16,2,A*%
%TO.N,Net-(D16-A)*%
X167058000Y-156300000D03*
D14*
X167058000Y-156300000D03*
%TD*%
D13*
%TO.P,D9,1,K*%
%TO.N,/2*%
X161214000Y-138012000D03*
D14*
X161214000Y-138012000D03*
D13*
%TO.P,D9,2,A*%
%TO.N,Net-(D9-A)*%
X157914000Y-138012000D03*
D14*
X157914000Y-138012000D03*
%TD*%
D13*
%TO.P,D3,1,K*%
%TO.N,/1*%
X169850000Y-119216000D03*
D14*
X169850000Y-119216000D03*
D13*
%TO.P,D3,2,A*%
%TO.N,Net-(D3-A)*%
X166550000Y-119216000D03*
D14*
X166550000Y-119216000D03*
%TD*%
D13*
%TO.P,D12,1,K*%
%TO.N,/2*%
X218490000Y-138012000D03*
D14*
X218490000Y-138012000D03*
D13*
%TO.P,D12,2,A*%
%TO.N,Net-(D12-A)*%
X215190000Y-138012000D03*
D14*
X215190000Y-138012000D03*
%TD*%
D13*
%TO.P,D37,1,K*%
%TO.N,/6*%
X187452000Y-101346000D03*
D14*
X187452000Y-101346000D03*
D13*
%TO.P,D37,2,A*%
%TO.N,Net-(D37-A)*%
X184152000Y-101346000D03*
D14*
X184152000Y-101346000D03*
%TD*%
D13*
%TO.P,D5,1,K*%
%TO.N,/1*%
X207568000Y-118962000D03*
D14*
X207568000Y-118962000D03*
D13*
%TO.P,D5,2,A*%
%TO.N,Net-(D5-A)*%
X204268000Y-118962000D03*
D14*
X204268000Y-118962000D03*
%TD*%
D13*
%TO.P,D4,1,K*%
%TO.N,/1*%
X189026000Y-118454000D03*
D14*
X189026000Y-118454000D03*
D13*
%TO.P,D4,2,A*%
%TO.N,Net-(D4-A)*%
X185726000Y-118454000D03*
D14*
X185726000Y-118454000D03*
%TD*%
D13*
%TO.P,D36,1,K*%
%TO.N,/6*%
X168782000Y-100076000D03*
D14*
X168782000Y-100076000D03*
D13*
%TO.P,D36,2,A*%
%TO.N,Net-(D36-A)*%
X165482000Y-100076000D03*
D14*
X165482000Y-100076000D03*
%TD*%
D13*
%TO.P,D38,1,K*%
%TO.N,/6*%
X206756000Y-100584000D03*
D14*
X206756000Y-100584000D03*
D13*
%TO.P,D38,2,A*%
%TO.N,Net-(D38-A)*%
X203456000Y-100584000D03*
D14*
X203456000Y-100584000D03*
%TD*%
D13*
%TO.P,D6,1,K*%
%TO.N,/1*%
X226746000Y-118708000D03*
D14*
X226746000Y-118708000D03*
D13*
%TO.P,D6,2,A*%
%TO.N,Net-(D6-A)*%
X223446000Y-118708000D03*
D14*
X223446000Y-118708000D03*
%TD*%
D13*
%TO.P,D30,1,K*%
%TO.N,/5*%
X177926000Y-194564000D03*
D14*
X177926000Y-194564000D03*
D13*
%TO.P,D30,2,A*%
%TO.N,Net-(D30-A)*%
X174626000Y-194564000D03*
D14*
X174626000Y-194564000D03*
%TD*%
D10*
%TO.P,S2,1,A*%
%TO.N,/B*%
X132617500Y-104272000D03*
%TO.P,S2,2,B*%
%TO.N,Net-(D2-A)*%
X146467500Y-106812000D03*
%TD*%
%TO.P,S20,1,A*%
%TO.N,/F*%
X228789000Y-142272000D03*
%TO.P,S20,2,B*%
%TO.N,Net-(D20-A)*%
X242639000Y-144812000D03*
%TD*%
D33*
%TO.N,/C*%
X265303000Y-155194000D03*
%TO.N,/F*%
X223647000Y-140081000D03*
%TO.N,/G*%
X148082000Y-103632000D03*
X142748000Y-98933000D03*
%TO.N,/B*%
X255016000Y-129540000D03*
%TO.N,/A*%
X260350000Y-103632000D03*
X260350000Y-98806000D03*
%TO.N,/C*%
X161091500Y-128204750D03*
%TO.N,Net-(D10-A)*%
X175808500Y-128535250D03*
%TO.N,/C*%
X150677500Y-109154750D03*
%TO.N,Net-(D3-A)*%
X165394500Y-109485250D03*
%TO.N,/C*%
X169727500Y-90612750D03*
%TO.N,Net-(D37-A)*%
X184444500Y-90943250D03*
%TO.N,/A*%
X116078000Y-118618000D03*
X120904000Y-137668000D03*
X125984000Y-157226000D03*
%TO.N,/G*%
X256595500Y-166171500D03*
%TO.N,Net-(D28-A)*%
X271312500Y-166502000D03*
%TO.N,/F*%
X237545500Y-165917500D03*
%TO.N,Net-(D27-A)*%
X252262500Y-166248000D03*
%TO.N,/G*%
X246181500Y-147121500D03*
%TO.N,Net-(D21-A)*%
X260898500Y-147452000D03*
%TO.N,/F*%
X227893500Y-147121500D03*
%TO.N,Net-(D20-A)*%
X242610500Y-147452000D03*
%TO.N,/F*%
X218495500Y-127817500D03*
%TO.N,Net-(D13-A)*%
X233212500Y-128148000D03*
%TO.N,/G*%
X237545500Y-128071500D03*
%TO.N,Net-(D14-A)*%
X252262500Y-128402000D03*
%TO.N,/F*%
X245927500Y-109021500D03*
%TO.N,Net-(D33-A)*%
X260644500Y-109352000D03*
%TO.N,/G*%
X226623500Y-109021500D03*
%TO.N,Net-(D7-A)*%
X241340500Y-109352000D03*
%TO.N,/G*%
X245673500Y-90479500D03*
%TO.N,Net-(D41-A)*%
X260390500Y-90810000D03*
%TO.N,/F*%
X226623500Y-90479500D03*
%TO.N,Net-(D40-A)*%
X241340500Y-90810000D03*
%TO.N,/E*%
X207827500Y-90225500D03*
%TO.N,Net-(D39-A)*%
X222544500Y-90556000D03*
%TO.N,/F*%
X207573500Y-109021500D03*
%TO.N,Net-(D6-A)*%
X222290500Y-109352000D03*
%TO.N,/E*%
X199191500Y-128071500D03*
%TO.N,Net-(D12-A)*%
X213908500Y-128402000D03*
%TO.N,/E*%
X209097500Y-147121500D03*
%TO.N,Net-(D19-A)*%
X223814500Y-147452000D03*
%TO.N,/E*%
X218495500Y-166171500D03*
%TO.N,Net-(D26-A)*%
X233212500Y-166502000D03*
%TO.N,/D*%
X220019500Y-185221500D03*
%TO.N,Net-(D32-A)*%
X234736500Y-185552000D03*
%TO.N,/D*%
X199445500Y-165917500D03*
%TO.N,Net-(D25-A)*%
X214162500Y-166248000D03*
%TO.N,/C*%
X181411500Y-184967500D03*
%TO.N,Net-(D31-A)*%
X196128500Y-185298000D03*
%TO.N,/C*%
X180395500Y-166171500D03*
%TO.N,Net-(D24-A)*%
X195112500Y-166502000D03*
%TO.N,/D*%
X189793500Y-147375500D03*
%TO.N,Net-(D18-A)*%
X204510500Y-147706000D03*
%TO.N,/C*%
X170743500Y-146867500D03*
%TO.N,Net-(D17-A)*%
X185460500Y-147198000D03*
%TO.N,/D*%
X180395500Y-128071500D03*
%TO.N,Net-(D11-A)*%
X195112500Y-128402000D03*
%TO.N,/D*%
X187452000Y-90424000D03*
%TO.N,Net-(D38-A)*%
X203494500Y-90556000D03*
%TO.N,/E*%
X188777500Y-109021500D03*
%TO.N,Net-(D5-A)*%
X203494500Y-109352000D03*
%TO.N,/D*%
X169727500Y-109021500D03*
%TO.N,Net-(D4-A)*%
X184444500Y-109352000D03*
%TO.N,/B*%
X150677500Y-90733500D03*
%TO.N,Net-(D36-A)*%
X165394500Y-91064000D03*
%TO.N,/A*%
X131627500Y-90479500D03*
%TO.N,Net-(D34-A)*%
X146344500Y-90810000D03*
%TO.N,/B*%
X131627500Y-109021500D03*
%TO.N,Net-(D2-A)*%
X146344500Y-109352000D03*
%TO.N,/B*%
X142549500Y-128071500D03*
%TO.N,Net-(D9-A)*%
X157266500Y-128402000D03*
%TO.N,/B*%
X151947500Y-147121500D03*
%TO.N,Net-(D16-A)*%
X166664500Y-147452000D03*
%TO.N,/B*%
X161345500Y-166171500D03*
%TO.N,Net-(D23-A)*%
X176062500Y-166502000D03*
%TO.N,/B*%
X157281500Y-184967500D03*
%TO.N,Net-(D30-A)*%
X171998500Y-185298000D03*
%TO.N,Net-(D29-A)*%
X137454500Y-185298000D03*
%TO.N,Net-(D22-A)*%
X142280500Y-166502000D03*
%TO.N,Net-(D15-A)*%
X137454500Y-147452000D03*
%TO.N,Net-(D8-A)*%
X132628500Y-128402000D03*
%TO.N,Net-(D1-A)*%
X127548500Y-109352000D03*
%TO.N,Net-(D35-A)*%
X127508000Y-90932000D03*
%TO.N,/G*%
X112831500Y-90733500D03*
%TO.N,/A*%
X112577500Y-109021500D03*
X117911500Y-128325500D03*
X122737500Y-147121500D03*
X127309500Y-166171500D03*
X126492000Y-176022000D03*
X122682000Y-185166000D03*
%TO.N,/1*%
X262434000Y-127852000D03*
%TO.N,/2*%
X265990000Y-144744000D03*
X285548000Y-126328000D03*
%TO.N,/3*%
X282754000Y-130646000D03*
%TO.N,/GND*%
X278182000Y-140806000D03*
%TO.N,/A*%
X269546000Y-122010000D03*
X270308000Y-116168000D03*
X268530000Y-124296000D03*
%TO.N,/B*%
X262434000Y-132678000D03*
X268276000Y-132678000D03*
%TO.N,/C*%
X271324000Y-130392000D03*
%TO.N,/D*%
X275896000Y-141568000D03*
%TO.N,/G*%
X264466000Y-110580000D03*
X261620000Y-115697000D03*
X269038000Y-110580000D03*
X271578000Y-112358000D03*
%TO.N,/Bat+*%
X268530000Y-152236000D03*
X272340000Y-142076000D03*
X270816000Y-123026000D03*
X271578000Y-125820000D03*
%TO.N,/VCC*%
X278384000Y-146558000D03*
%TO.N,/TXD*%
X288342000Y-145886000D03*
X280976000Y-110580000D03*
%TO.N,/RXI*%
X286818000Y-145378000D03*
X278436000Y-110072000D03*
%TO.N,/Bat-*%
X282246000Y-109564000D03*
%TO.N,Net-(TXD2-COM)*%
X278944000Y-105754000D03*
%TO.N,/SDA*%
X282754000Y-146140000D03*
X286564000Y-135980000D03*
%TO.N,/SCL*%
X283770000Y-134710000D03*
X285548000Y-143600000D03*
%TO.N,Net-(P3-COM)*%
X283770000Y-129630000D03*
%TO.N,Net-(SCL1-COM)*%
X280214000Y-129630000D03*
%TO.N,Net-(SDA1-COM)*%
X276658000Y-125820000D03*
%TO.N,/G*%
X257862000Y-123534000D03*
%TD*%
D34*
%TO.N,/Bat+*%
X278638000Y-100711000D02*
X278257000Y-101092000D01*
X278638000Y-100457000D02*
X278638000Y-100711000D01*
X278638000Y-100457000D02*
X278093000Y-99912000D01*
X276574000Y-101092000D02*
X278257000Y-101092000D01*
X278257000Y-101092000D02*
X279273000Y-101092000D01*
X279336500Y-101155500D02*
X278638000Y-100457000D01*
X279273000Y-101092000D02*
X279336500Y-101155500D01*
X279617000Y-101436000D02*
X279336500Y-101155500D01*
X262688000Y-105500000D02*
X271070000Y-113882000D01*
X267260000Y-99912000D02*
X262688000Y-104484000D01*
X262688000Y-104484000D02*
X262688000Y-105500000D01*
X271070000Y-122772000D02*
X270816000Y-123026000D01*
X278093000Y-99912000D02*
X267260000Y-99912000D01*
X271070000Y-113882000D02*
X271070000Y-122772000D01*
X285358000Y-101436000D02*
X279617000Y-101436000D01*
D35*
%TO.N,/2*%
X258025000Y-136779000D02*
X265990000Y-144744000D01*
X255396000Y-136779000D02*
X258025000Y-136779000D01*
%TO.N,/G*%
X263159000Y-115697000D02*
X263450000Y-115406000D01*
X261620000Y-115697000D02*
X263159000Y-115697000D01*
X263450000Y-111596000D02*
X264466000Y-110580000D01*
X263450000Y-115406000D02*
X263450000Y-111596000D01*
%TO.N,/VCC*%
X280797000Y-111379000D02*
X283267000Y-111379000D01*
X280670000Y-111252000D02*
X280797000Y-111379000D01*
X283267000Y-111379000D02*
X284024000Y-112136000D01*
X278272000Y-111252000D02*
X280670000Y-111252000D01*
X277674000Y-111850000D02*
X278272000Y-111252000D01*
%TO.N,/RXI*%
X278511000Y-109997000D02*
X278436000Y-110072000D01*
X278511000Y-106553000D02*
X278511000Y-109997000D01*
X278182000Y-106224000D02*
X278511000Y-106553000D01*
X278182000Y-106172000D02*
X278182000Y-106224000D01*
X278182000Y-104992000D02*
X278182000Y-106172000D01*
X278690000Y-104484000D02*
X278182000Y-104992000D01*
X279198000Y-102706000D02*
X278690000Y-103214000D01*
X282214000Y-102706000D02*
X279198000Y-102706000D01*
X278690000Y-103214000D02*
X278690000Y-104484000D01*
X276912000Y-108008000D02*
X278436000Y-109532000D01*
X283516000Y-104008000D02*
X282214000Y-102706000D01*
D34*
%TO.N,/Bat-*%
X281940000Y-107187000D02*
X282761000Y-108008000D01*
X282761000Y-108008000D02*
X283516000Y-108008000D01*
X281554000Y-104008000D02*
X281940000Y-104394000D01*
X281940000Y-104394000D02*
X281940000Y-107187000D01*
X280214000Y-104008000D02*
X281554000Y-104008000D01*
D35*
%TO.N,/SCL*%
X282950000Y-133350000D02*
X283770000Y-134170000D01*
X278182000Y-132767000D02*
X278765000Y-133350000D01*
X278182000Y-132646000D02*
X278182000Y-132767000D01*
X278765000Y-133350000D02*
X282950000Y-133350000D01*
%TO.N,/3*%
X281940000Y-127762000D02*
X282754000Y-128576000D01*
X279066000Y-127762000D02*
X281940000Y-127762000D01*
X278182000Y-128646000D02*
X279066000Y-127762000D01*
X282777000Y-128576000D02*
X282754000Y-128576000D01*
X283718000Y-127635000D02*
X282777000Y-128576000D01*
X284283000Y-127635000D02*
X283718000Y-127635000D01*
X285294000Y-128646000D02*
X284283000Y-127635000D01*
X282754000Y-128576000D02*
X282754000Y-130646000D01*
%TO.N,/SDA*%
X284660000Y-124714000D02*
X285294000Y-124080000D01*
X278886000Y-124714000D02*
X284660000Y-124714000D01*
X278182000Y-124010000D02*
X278886000Y-124714000D01*
%TO.N,/2*%
X284340000Y-119126000D02*
X285294000Y-120080000D01*
X279066000Y-119126000D02*
X284340000Y-119126000D01*
X278182000Y-120010000D02*
X279066000Y-119126000D01*
%TO.N,/GND*%
X283320000Y-116840000D02*
X284024000Y-116136000D01*
X278664000Y-116840000D02*
X283320000Y-116840000D01*
X277674000Y-115850000D02*
X278664000Y-116840000D01*
%TO.N,/VCC*%
X286165000Y-112429000D02*
X285369000Y-111633000D01*
X285369000Y-111633000D02*
X284527000Y-111633000D01*
X289866000Y-112866000D02*
X289429000Y-112429000D01*
X289429000Y-112429000D02*
X286165000Y-112429000D01*
X289866000Y-136234000D02*
X289866000Y-112866000D01*
X280233000Y-145867000D02*
X289866000Y-136234000D01*
X284527000Y-111633000D02*
X284024000Y-112136000D01*
%TO.N,Net-(SDA1-COM)*%
X276733000Y-125745000D02*
X276658000Y-125820000D01*
X277151000Y-122010000D02*
X276733000Y-122428000D01*
X278182000Y-122010000D02*
X277151000Y-122010000D01*
X276733000Y-122428000D02*
X276733000Y-125745000D01*
%TO.N,Net-(Bat+1-COM)*%
X288126000Y-103595000D02*
X288596000Y-103595000D01*
X287358000Y-102827000D02*
X288126000Y-103595000D01*
X287358000Y-101436000D02*
X287358000Y-102827000D01*
%TO.N,Net-(RXI2-COM)*%
X276023000Y-106008000D02*
X276912000Y-106008000D01*
X273356000Y-108675000D02*
X276023000Y-106008000D01*
%TO.N,/C*%
X181411500Y-192714500D02*
X181411500Y-184967500D01*
X189992000Y-193548000D02*
X182245000Y-193548000D01*
X182245000Y-193548000D02*
X181411500Y-192714500D01*
X205105000Y-190754000D02*
X192786000Y-190754000D01*
X207899000Y-187960000D02*
X205105000Y-190754000D01*
X222377000Y-187960000D02*
X207899000Y-187960000D01*
X230505000Y-177546000D02*
X224028000Y-184023000D01*
X224028000Y-186309000D02*
X222377000Y-187960000D01*
X236982000Y-181229000D02*
X233299000Y-177546000D01*
X267976104Y-181235104D02*
X237496104Y-181235104D01*
X224028000Y-184023000D02*
X224028000Y-186309000D01*
X237496104Y-181235104D02*
X237490000Y-181229000D01*
X233299000Y-177546000D02*
X230505000Y-177546000D01*
X237490000Y-181229000D02*
X236982000Y-181229000D01*
X273616000Y-162237000D02*
X273616000Y-175595208D01*
X273616000Y-175595208D02*
X267976104Y-181235104D01*
X273050000Y-161671000D02*
X273616000Y-162237000D01*
X265303000Y-155194000D02*
X271780000Y-161671000D01*
X271780000Y-161671000D02*
X273050000Y-161671000D01*
X192786000Y-190754000D02*
X189992000Y-193548000D01*
%TO.N,/G*%
X147447000Y-103632000D02*
X148082000Y-103632000D01*
X142748000Y-98933000D02*
X147447000Y-103632000D01*
%TO.N,/B*%
X254978000Y-129540000D02*
X258116000Y-132678000D01*
X255016000Y-129540000D02*
X254978000Y-129540000D01*
%TO.N,/VCC*%
X278384000Y-146558000D02*
X279542000Y-146558000D01*
X280233000Y-145867000D02*
X279542000Y-146558000D01*
X278384000Y-147716000D02*
X278384000Y-146558000D01*
X277693000Y-148407000D02*
X278384000Y-147716000D01*
X277693000Y-148407000D02*
X280233000Y-145867000D01*
X276150000Y-149950000D02*
X277693000Y-148407000D01*
%TO.N,/G*%
X255760000Y-161272000D02*
X257314000Y-161272000D01*
X246181500Y-151693500D02*
X255760000Y-161272000D01*
X246181500Y-147121500D02*
X246181500Y-151693500D01*
X245904000Y-142272000D02*
X247789000Y-142272000D01*
X237545500Y-128071500D02*
X237545500Y-133913500D01*
X237545500Y-133913500D02*
X245904000Y-142272000D01*
X238264000Y-120154000D02*
X238264000Y-123272000D01*
X235458000Y-117348000D02*
X238264000Y-120154000D01*
X226623500Y-114101500D02*
X229870000Y-117348000D01*
X229870000Y-117348000D02*
X235458000Y-117348000D01*
X226623500Y-109021500D02*
X226623500Y-114101500D01*
X242570000Y-96520000D02*
X245673500Y-93416500D01*
X245673500Y-93416500D02*
X245673500Y-90479500D01*
X240284000Y-96520000D02*
X242570000Y-96520000D01*
X236982000Y-99822000D02*
X240284000Y-96520000D01*
X232067500Y-99822000D02*
X236982000Y-99822000D01*
X227617500Y-104272000D02*
X232067500Y-99822000D01*
%TO.N,/F*%
X215728000Y-123272000D02*
X219264000Y-123272000D01*
X207518000Y-109077000D02*
X207518000Y-115062000D01*
X207573500Y-109021500D02*
X207518000Y-109077000D01*
X207518000Y-115062000D02*
X215728000Y-123272000D01*
X218440000Y-134874000D02*
X225838000Y-142272000D01*
X218440000Y-127873000D02*
X218440000Y-134874000D01*
X218495500Y-127817500D02*
X218440000Y-127873000D01*
X225838000Y-142272000D02*
X228789000Y-142272000D01*
X236456000Y-161272000D02*
X238314000Y-161272000D01*
X227893500Y-152709500D02*
X236456000Y-161272000D01*
X227893500Y-147121500D02*
X227893500Y-152709500D01*
%TO.N,/E*%
X216898000Y-161272000D02*
X219314000Y-161272000D01*
X209042000Y-147177000D02*
X209042000Y-153416000D01*
X209097500Y-147121500D02*
X209042000Y-147177000D01*
X209042000Y-153416000D02*
X216898000Y-161272000D01*
X207772000Y-140255000D02*
X209789000Y-142272000D01*
X199191500Y-133659500D02*
X205787000Y-140255000D01*
X199191500Y-128071500D02*
X199191500Y-133659500D01*
X205787000Y-140255000D02*
X207772000Y-140255000D01*
X197186000Y-123272000D02*
X200264000Y-123272000D01*
X188777500Y-114863500D02*
X197186000Y-123272000D01*
X188777500Y-109021500D02*
X188777500Y-114863500D01*
%TO.N,/F*%
X226623500Y-93416500D02*
X226623500Y-90479500D01*
X220472000Y-99568000D02*
X226623500Y-93416500D01*
X213321500Y-99568000D02*
X220472000Y-99568000D01*
X208617500Y-104272000D02*
X213321500Y-99568000D01*
%TO.N,/E*%
X201787000Y-96266000D02*
X207827500Y-90225500D01*
X189617500Y-104272000D02*
X197623500Y-96266000D01*
X197623500Y-96266000D02*
X201787000Y-96266000D01*
%TO.N,/D*%
X189738000Y-87995000D02*
X189738000Y-85331500D01*
X187452000Y-90281000D02*
X189738000Y-87995000D01*
X187452000Y-90424000D02*
X187452000Y-90281000D01*
X170617500Y-102940500D02*
X170617500Y-104272000D01*
X172212000Y-101346000D02*
X170617500Y-102940500D01*
X187452000Y-90424000D02*
X176530000Y-101346000D01*
X176530000Y-101346000D02*
X172212000Y-101346000D01*
X169727500Y-113847500D02*
X169727500Y-113736500D01*
X179152000Y-123272000D02*
X169727500Y-113847500D01*
X181264000Y-123272000D02*
X179152000Y-123272000D01*
X169727500Y-113736500D02*
X169727500Y-109021500D01*
X180395500Y-134167500D02*
X188500000Y-142272000D01*
X180395500Y-128071500D02*
X180395500Y-134167500D01*
X188500000Y-142272000D02*
X190789000Y-142272000D01*
X189793500Y-152455500D02*
X189793500Y-147375500D01*
X198610000Y-161272000D02*
X189793500Y-152455500D01*
X200314000Y-161272000D02*
X198610000Y-161272000D01*
X199445500Y-170489500D02*
X199445500Y-165917500D01*
X216154000Y-182626000D02*
X211582000Y-182626000D01*
X218508000Y-180272000D02*
X216154000Y-182626000D01*
X220985500Y-180272000D02*
X218508000Y-180272000D01*
X211582000Y-182626000D02*
X199445500Y-170489500D01*
%TO.N,/C*%
X182435500Y-175831500D02*
X182435500Y-180272000D01*
X180395500Y-166171500D02*
X180395500Y-173791500D01*
X180395500Y-173791500D02*
X182435500Y-175831500D01*
X170743500Y-152455500D02*
X179560000Y-161272000D01*
X179560000Y-161272000D02*
X181314000Y-161272000D01*
X170743500Y-146867500D02*
X170743500Y-152455500D01*
X169196000Y-142272000D02*
X171789000Y-142272000D01*
X161798000Y-134874000D02*
X169196000Y-142272000D01*
X161798000Y-128911250D02*
X161798000Y-134874000D01*
X161091500Y-128204750D02*
X161798000Y-128911250D01*
X154178000Y-117602000D02*
X159766000Y-117602000D01*
X162264000Y-120100000D02*
X162264000Y-123272000D01*
X150876000Y-114300000D02*
X154178000Y-117602000D01*
X150677500Y-109154750D02*
X150876000Y-109353250D01*
X150876000Y-109353250D02*
X150876000Y-114300000D01*
X159766000Y-117602000D02*
X162264000Y-120100000D01*
%TO.N,/A*%
X260350000Y-98806000D02*
X260350000Y-103632000D01*
%TO.N,/C*%
X165354000Y-98298000D02*
X157591500Y-98298000D01*
X169727500Y-93924500D02*
X165354000Y-98298000D01*
X157591500Y-98298000D02*
X151617500Y-104272000D01*
X169727500Y-90612750D02*
X169727500Y-93924500D01*
X162052000Y-125974250D02*
X162052000Y-123310750D01*
X161091500Y-126934750D02*
X162052000Y-125974250D01*
%TO.N,Net-(D10-A)*%
X175808500Y-128535250D02*
X175768000Y-128494750D01*
X175768000Y-125863250D02*
X175768000Y-128494750D01*
%TO.N,/C*%
X161091500Y-128204750D02*
X161091500Y-126934750D01*
X151638000Y-106924250D02*
X151638000Y-104260750D01*
X150677500Y-107884750D02*
X151638000Y-106924250D01*
%TO.N,Net-(D3-A)*%
X165394500Y-109485250D02*
X165354000Y-109444750D01*
X165354000Y-106813250D02*
X165354000Y-109444750D01*
%TO.N,/C*%
X150677500Y-109154750D02*
X150677500Y-107884750D01*
%TO.N,/G*%
X240378000Y-121158000D02*
X238264000Y-123272000D01*
X245364000Y-123444000D02*
X243078000Y-121158000D01*
X243078000Y-121158000D02*
X240378000Y-121158000D01*
X252476000Y-123444000D02*
X245364000Y-123444000D01*
X252820000Y-123788000D02*
X252476000Y-123444000D01*
X252820000Y-123788000D02*
X257608000Y-123788000D01*
%TO.N,/1*%
X252317000Y-122181000D02*
X248082000Y-117946000D01*
%TO.N,/C*%
X170688000Y-88382250D02*
X170688000Y-85718750D01*
X169727500Y-89342750D02*
X170688000Y-88382250D01*
%TO.N,Net-(D37-A)*%
X184444500Y-90943250D02*
X184404000Y-90902750D01*
X184404000Y-88271250D02*
X184404000Y-90902750D01*
%TO.N,/C*%
X169727500Y-90612750D02*
X169727500Y-89342750D01*
%TO.N,/5*%
X266967604Y-182880000D02*
X241172000Y-182880000D01*
X274066000Y-175781604D02*
X266967604Y-182880000D01*
X274066000Y-161544000D02*
X274066000Y-175781604D01*
X266302000Y-150258000D02*
X266302000Y-153780000D01*
X267970000Y-146812000D02*
X267970000Y-148590000D01*
X270002000Y-144780000D02*
X267970000Y-146812000D01*
X271272000Y-144780000D02*
X270002000Y-144780000D01*
X266302000Y-153780000D02*
X274066000Y-161544000D01*
X267970000Y-148590000D02*
X266302000Y-150258000D01*
X271507000Y-144545000D02*
X271272000Y-144780000D01*
X271507000Y-144545000D02*
X262318000Y-135356000D01*
X271832000Y-144870000D02*
X271507000Y-144545000D01*
%TO.N,/A*%
X131627500Y-93416500D02*
X131627500Y-90479500D01*
X129032000Y-96012000D02*
X131627500Y-93416500D01*
X126746000Y-96012000D02*
X129032000Y-96012000D01*
X122174000Y-100584000D02*
X126746000Y-96012000D01*
X113617500Y-103552500D02*
X116586000Y-100584000D01*
X116586000Y-100584000D02*
X122174000Y-100584000D01*
X113617500Y-104272000D02*
X113617500Y-103552500D01*
X116078000Y-118618000D02*
X118880000Y-121420000D01*
X118880000Y-121420000D02*
X118880000Y-123272000D01*
X123642500Y-140406500D02*
X120904000Y-137668000D01*
X123642500Y-142272000D02*
X123642500Y-140406500D01*
X128405000Y-159647000D02*
X128405000Y-161272000D01*
X125984000Y-157226000D02*
X128405000Y-159647000D01*
%TO.N,/G*%
X257556000Y-163941000D02*
X257556000Y-161277500D01*
%TO.N,Net-(D28-A)*%
X271312500Y-166502000D02*
X271272000Y-166461500D01*
%TO.N,/G*%
X256595500Y-164901500D02*
X257556000Y-163941000D01*
X256595500Y-166171500D02*
X256595500Y-164901500D01*
%TO.N,Net-(D28-A)*%
X271272000Y-163830000D02*
X271272000Y-166461500D01*
%TO.N,/F*%
X238506000Y-163687000D02*
X238506000Y-161023500D01*
%TO.N,Net-(D27-A)*%
X252262500Y-166248000D02*
X252222000Y-166207500D01*
%TO.N,/F*%
X237545500Y-164647500D02*
X238506000Y-163687000D01*
X237545500Y-165917500D02*
X237545500Y-164647500D01*
%TO.N,Net-(D27-A)*%
X252222000Y-163576000D02*
X252222000Y-166207500D01*
%TO.N,/G*%
X247142000Y-144891000D02*
X247142000Y-142227500D01*
%TO.N,Net-(D21-A)*%
X260898500Y-147452000D02*
X260858000Y-147411500D01*
%TO.N,/G*%
X246181500Y-145851500D02*
X247142000Y-144891000D01*
X246181500Y-147121500D02*
X246181500Y-145851500D01*
%TO.N,Net-(D21-A)*%
X260858000Y-144780000D02*
X260858000Y-147411500D01*
%TO.N,/F*%
X228854000Y-144891000D02*
X228854000Y-142227500D01*
%TO.N,Net-(D20-A)*%
X242610500Y-147452000D02*
X242570000Y-147411500D01*
%TO.N,/F*%
X227893500Y-145851500D02*
X228854000Y-144891000D01*
X227893500Y-147121500D02*
X227893500Y-145851500D01*
%TO.N,Net-(D20-A)*%
X242570000Y-144780000D02*
X242570000Y-147411500D01*
%TO.N,/F*%
X219456000Y-125587000D02*
X219456000Y-122923500D01*
%TO.N,Net-(D13-A)*%
X233212500Y-128148000D02*
X233172000Y-128107500D01*
%TO.N,/F*%
X218495500Y-126547500D02*
X219456000Y-125587000D01*
X218495500Y-127817500D02*
X218495500Y-126547500D01*
%TO.N,Net-(D13-A)*%
X233172000Y-125476000D02*
X233172000Y-128107500D01*
%TO.N,/G*%
X238506000Y-125841000D02*
X238506000Y-123177500D01*
%TO.N,Net-(D14-A)*%
X252262500Y-128402000D02*
X252222000Y-128361500D01*
%TO.N,/G*%
X237545500Y-126801500D02*
X238506000Y-125841000D01*
X237545500Y-128071500D02*
X237545500Y-126801500D01*
%TO.N,Net-(D14-A)*%
X252222000Y-125730000D02*
X252222000Y-128361500D01*
%TO.N,/F*%
X246888000Y-106791000D02*
X246888000Y-104127500D01*
%TO.N,Net-(D33-A)*%
X260644500Y-109352000D02*
X260604000Y-109311500D01*
%TO.N,/F*%
X245927500Y-107751500D02*
X246888000Y-106791000D01*
X245927500Y-109021500D02*
X245927500Y-107751500D01*
%TO.N,Net-(D33-A)*%
X260604000Y-106680000D02*
X260604000Y-109311500D01*
%TO.N,/G*%
X227584000Y-106791000D02*
X227584000Y-104127500D01*
%TO.N,Net-(D7-A)*%
X241340500Y-109352000D02*
X241300000Y-109311500D01*
%TO.N,/G*%
X226623500Y-107751500D02*
X227584000Y-106791000D01*
X226623500Y-109021500D02*
X226623500Y-107751500D01*
%TO.N,Net-(D7-A)*%
X241300000Y-106680000D02*
X241300000Y-109311500D01*
%TO.N,/G*%
X246634000Y-88249000D02*
X246634000Y-85585500D01*
%TO.N,Net-(D41-A)*%
X260390500Y-90810000D02*
X260350000Y-90769500D01*
%TO.N,/G*%
X245673500Y-89209500D02*
X246634000Y-88249000D01*
X245673500Y-90479500D02*
X245673500Y-89209500D01*
%TO.N,Net-(D41-A)*%
X260350000Y-88138000D02*
X260350000Y-90769500D01*
%TO.N,/F*%
X227584000Y-88249000D02*
X227584000Y-85585500D01*
%TO.N,Net-(D40-A)*%
X241340500Y-90810000D02*
X241300000Y-90769500D01*
%TO.N,/F*%
X226623500Y-89209500D02*
X227584000Y-88249000D01*
X226623500Y-90479500D02*
X226623500Y-89209500D01*
%TO.N,Net-(D40-A)*%
X241300000Y-88138000D02*
X241300000Y-90769500D01*
%TO.N,/E*%
X208788000Y-87995000D02*
X208788000Y-85331500D01*
%TO.N,Net-(D39-A)*%
X222544500Y-90556000D02*
X222504000Y-90515500D01*
%TO.N,/E*%
X207827500Y-88955500D02*
X208788000Y-87995000D01*
X207827500Y-90225500D02*
X207827500Y-88955500D01*
%TO.N,Net-(D39-A)*%
X222504000Y-87884000D02*
X222504000Y-90515500D01*
%TO.N,/F*%
X208534000Y-106791000D02*
X208534000Y-104127500D01*
%TO.N,Net-(D6-A)*%
X222290500Y-109352000D02*
X222250000Y-109311500D01*
%TO.N,/F*%
X207573500Y-107751500D02*
X208534000Y-106791000D01*
X207573500Y-109021500D02*
X207573500Y-107751500D01*
%TO.N,Net-(D6-A)*%
X222250000Y-106680000D02*
X222250000Y-109311500D01*
%TO.N,/E*%
X200152000Y-125841000D02*
X200152000Y-123177500D01*
%TO.N,Net-(D12-A)*%
X213908500Y-128402000D02*
X213868000Y-128361500D01*
%TO.N,/E*%
X199191500Y-126801500D02*
X200152000Y-125841000D01*
X199191500Y-128071500D02*
X199191500Y-126801500D01*
%TO.N,Net-(D12-A)*%
X213868000Y-125730000D02*
X213868000Y-128361500D01*
%TO.N,/E*%
X210058000Y-144891000D02*
X210058000Y-142227500D01*
%TO.N,Net-(D19-A)*%
X223814500Y-147452000D02*
X223774000Y-147411500D01*
%TO.N,/E*%
X209097500Y-145851500D02*
X210058000Y-144891000D01*
X209097500Y-147121500D02*
X209097500Y-145851500D01*
%TO.N,Net-(D19-A)*%
X223774000Y-144780000D02*
X223774000Y-147411500D01*
%TO.N,/E*%
X219456000Y-163941000D02*
X219456000Y-161277500D01*
%TO.N,Net-(D26-A)*%
X233212500Y-166502000D02*
X233172000Y-166461500D01*
%TO.N,/E*%
X218495500Y-164901500D02*
X219456000Y-163941000D01*
X218495500Y-166171500D02*
X218495500Y-164901500D01*
%TO.N,Net-(D26-A)*%
X233172000Y-163830000D02*
X233172000Y-166461500D01*
%TO.N,/D*%
X220980000Y-182991000D02*
X220980000Y-180327500D01*
%TO.N,Net-(D32-A)*%
X234736500Y-185552000D02*
X234696000Y-185511500D01*
%TO.N,/D*%
X220019500Y-183951500D02*
X220980000Y-182991000D01*
X220019500Y-185221500D02*
X220019500Y-183951500D01*
%TO.N,Net-(D32-A)*%
X234696000Y-182880000D02*
X234696000Y-185511500D01*
%TO.N,/D*%
X200406000Y-163687000D02*
X200406000Y-161023500D01*
%TO.N,Net-(D25-A)*%
X214162500Y-166248000D02*
X214122000Y-166207500D01*
%TO.N,/D*%
X199445500Y-164647500D02*
X200406000Y-163687000D01*
X199445500Y-165917500D02*
X199445500Y-164647500D01*
%TO.N,Net-(D25-A)*%
X214122000Y-163576000D02*
X214122000Y-166207500D01*
%TO.N,/C*%
X182372000Y-182737000D02*
X182372000Y-180073500D01*
%TO.N,Net-(D31-A)*%
X196128500Y-185298000D02*
X196088000Y-185257500D01*
%TO.N,/C*%
X181411500Y-183697500D02*
X182372000Y-182737000D01*
X181411500Y-184967500D02*
X181411500Y-183697500D01*
%TO.N,Net-(D31-A)*%
X196088000Y-182626000D02*
X196088000Y-185257500D01*
%TO.N,/C*%
X181356000Y-163941000D02*
X181356000Y-161277500D01*
%TO.N,Net-(D24-A)*%
X195112500Y-166502000D02*
X195072000Y-166461500D01*
%TO.N,/C*%
X180395500Y-164901500D02*
X181356000Y-163941000D01*
X180395500Y-166171500D02*
X180395500Y-164901500D01*
%TO.N,Net-(D24-A)*%
X195072000Y-163830000D02*
X195072000Y-166461500D01*
%TO.N,/D*%
X190754000Y-145145000D02*
X190754000Y-142481500D01*
%TO.N,Net-(D18-A)*%
X204510500Y-147706000D02*
X204470000Y-147665500D01*
%TO.N,/D*%
X189793500Y-146105500D02*
X190754000Y-145145000D01*
X189793500Y-147375500D02*
X189793500Y-146105500D01*
%TO.N,Net-(D18-A)*%
X204470000Y-145034000D02*
X204470000Y-147665500D01*
%TO.N,/C*%
X171704000Y-144637000D02*
X171704000Y-141973500D01*
%TO.N,Net-(D17-A)*%
X185460500Y-147198000D02*
X185420000Y-147157500D01*
%TO.N,/C*%
X170743500Y-145597500D02*
X171704000Y-144637000D01*
X170743500Y-146867500D02*
X170743500Y-145597500D01*
%TO.N,Net-(D17-A)*%
X185420000Y-144526000D02*
X185420000Y-147157500D01*
%TO.N,/D*%
X181356000Y-125841000D02*
X181356000Y-123177500D01*
%TO.N,Net-(D11-A)*%
X195112500Y-128402000D02*
X195072000Y-128361500D01*
%TO.N,/D*%
X180395500Y-126801500D02*
X181356000Y-125841000D01*
X180395500Y-128071500D02*
X180395500Y-126801500D01*
%TO.N,Net-(D11-A)*%
X195072000Y-125730000D02*
X195072000Y-128361500D01*
%TO.N,Net-(D38-A)*%
X203494500Y-90556000D02*
X203454000Y-90515500D01*
X203454000Y-87884000D02*
X203454000Y-90515500D01*
%TO.N,/E*%
X189738000Y-106791000D02*
X189738000Y-104127500D01*
%TO.N,Net-(D5-A)*%
X203494500Y-109352000D02*
X203454000Y-109311500D01*
%TO.N,/E*%
X188777500Y-107751500D02*
X189738000Y-106791000D01*
X188777500Y-109021500D02*
X188777500Y-107751500D01*
%TO.N,Net-(D5-A)*%
X203454000Y-106680000D02*
X203454000Y-109311500D01*
%TO.N,/D*%
X170688000Y-106791000D02*
X170688000Y-104127500D01*
%TO.N,Net-(D4-A)*%
X184444500Y-109352000D02*
X184404000Y-109311500D01*
%TO.N,/D*%
X169727500Y-107751500D02*
X170688000Y-106791000D01*
X169727500Y-109021500D02*
X169727500Y-107751500D01*
%TO.N,Net-(D4-A)*%
X184404000Y-106680000D02*
X184404000Y-109311500D01*
%TO.N,/B*%
X151638000Y-88503000D02*
X151638000Y-85839500D01*
%TO.N,Net-(D36-A)*%
X165394500Y-91064000D02*
X165354000Y-91023500D01*
%TO.N,/B*%
X150677500Y-89463500D02*
X151638000Y-88503000D01*
X150677500Y-90733500D02*
X150677500Y-89463500D01*
%TO.N,Net-(D36-A)*%
X165354000Y-88392000D02*
X165354000Y-91023500D01*
%TO.N,/A*%
X132588000Y-88249000D02*
X132588000Y-85585500D01*
%TO.N,Net-(D34-A)*%
X146344500Y-90810000D02*
X146304000Y-90769500D01*
%TO.N,/A*%
X131627500Y-89209500D02*
X132588000Y-88249000D01*
X131627500Y-90479500D02*
X131627500Y-89209500D01*
%TO.N,Net-(D34-A)*%
X146304000Y-88138000D02*
X146304000Y-90769500D01*
%TO.N,/B*%
X132588000Y-106791000D02*
X132588000Y-104127500D01*
%TO.N,Net-(D2-A)*%
X146344500Y-109352000D02*
X146304000Y-109311500D01*
%TO.N,/B*%
X131627500Y-107751500D02*
X132588000Y-106791000D01*
X131627500Y-109021500D02*
X131627500Y-107751500D01*
%TO.N,Net-(D2-A)*%
X146304000Y-106680000D02*
X146304000Y-109311500D01*
%TO.N,/B*%
X143510000Y-125841000D02*
X143510000Y-123177500D01*
%TO.N,Net-(D9-A)*%
X157266500Y-128402000D02*
X157226000Y-128361500D01*
%TO.N,/B*%
X142549500Y-126801500D02*
X143510000Y-125841000D01*
X142549500Y-128071500D02*
X142549500Y-126801500D01*
%TO.N,Net-(D9-A)*%
X157226000Y-125730000D02*
X157226000Y-128361500D01*
%TO.N,/B*%
X152908000Y-144891000D02*
X152908000Y-142227500D01*
%TO.N,Net-(D16-A)*%
X166664500Y-147452000D02*
X166624000Y-147411500D01*
%TO.N,/B*%
X151947500Y-145851500D02*
X152908000Y-144891000D01*
X151947500Y-147121500D02*
X151947500Y-145851500D01*
%TO.N,Net-(D16-A)*%
X166624000Y-144780000D02*
X166624000Y-147411500D01*
%TO.N,/B*%
X162306000Y-163941000D02*
X162306000Y-161277500D01*
%TO.N,Net-(D23-A)*%
X176062500Y-166502000D02*
X176022000Y-166461500D01*
%TO.N,/B*%
X161345500Y-164901500D02*
X162306000Y-163941000D01*
X161345500Y-166171500D02*
X161345500Y-164901500D01*
%TO.N,Net-(D23-A)*%
X176022000Y-163830000D02*
X176022000Y-166461500D01*
%TO.N,/B*%
X158242000Y-182737000D02*
X158242000Y-180073500D01*
%TO.N,Net-(D30-A)*%
X171998500Y-185298000D02*
X171958000Y-185257500D01*
%TO.N,/B*%
X157281500Y-183697500D02*
X158242000Y-182737000D01*
X157281500Y-184967500D02*
X157281500Y-183697500D01*
%TO.N,Net-(D30-A)*%
X171958000Y-182626000D02*
X171958000Y-185257500D01*
%TO.N,Net-(D29-A)*%
X137414000Y-182626000D02*
X137414000Y-185257500D01*
X137454500Y-185298000D02*
X137414000Y-185257500D01*
%TO.N,Net-(D22-A)*%
X142240000Y-163830000D02*
X142240000Y-166461500D01*
X142280500Y-166502000D02*
X142240000Y-166461500D01*
%TO.N,Net-(D15-A)*%
X137414000Y-144780000D02*
X137414000Y-147411500D01*
X137454500Y-147452000D02*
X137414000Y-147411500D01*
%TO.N,Net-(D8-A)*%
X132588000Y-125730000D02*
X132588000Y-128361500D01*
X132628500Y-128402000D02*
X132588000Y-128361500D01*
%TO.N,Net-(D1-A)*%
X127508000Y-106680000D02*
X127508000Y-109311500D01*
X127548500Y-109352000D02*
X127508000Y-109311500D01*
%TO.N,Net-(D35-A)*%
X127467500Y-88260000D02*
X127467500Y-90891500D01*
X127508000Y-90932000D02*
X127467500Y-90891500D01*
%TO.N,/G*%
X112831500Y-89463500D02*
X113792000Y-88503000D01*
X112831500Y-90733500D02*
X112831500Y-89463500D01*
X113792000Y-88503000D02*
X113792000Y-85839500D01*
%TO.N,/A*%
X112577500Y-107751500D02*
X113538000Y-106791000D01*
X112577500Y-109021500D02*
X112577500Y-107751500D01*
X113538000Y-106791000D02*
X113538000Y-104127500D01*
X117911500Y-127055500D02*
X118872000Y-126095000D01*
X117911500Y-128325500D02*
X117911500Y-127055500D01*
X118872000Y-126095000D02*
X118872000Y-123431500D01*
X122737500Y-145851500D02*
X123698000Y-144891000D01*
X122737500Y-147121500D02*
X122737500Y-145851500D01*
X123698000Y-144891000D02*
X123698000Y-142227500D01*
X127309500Y-164901500D02*
X128270000Y-163941000D01*
X127309500Y-166171500D02*
X127309500Y-164901500D01*
X128270000Y-163941000D02*
X128270000Y-161277500D01*
X123642500Y-178871500D02*
X126492000Y-176022000D01*
X123642500Y-180272000D02*
X123642500Y-178871500D01*
X123642500Y-182935500D02*
X123642500Y-180272000D01*
X122682000Y-183896000D02*
X123642500Y-182935500D01*
X122682000Y-185166000D02*
X122682000Y-183896000D01*
%TO.N,/1*%
X262651000Y-123439000D02*
X262651000Y-127635000D01*
X262651000Y-127635000D02*
X262434000Y-127852000D01*
X261393000Y-122181000D02*
X262651000Y-123439000D01*
X252317000Y-122181000D02*
X261393000Y-122181000D01*
%TO.N,/2*%
X275896000Y-121541000D02*
X277427000Y-120010000D01*
X284786000Y-127090000D02*
X276658000Y-127090000D01*
X276658000Y-127090000D02*
X275896000Y-126328000D01*
X275896000Y-126328000D02*
X275896000Y-121541000D01*
X277427000Y-120010000D02*
X278182000Y-120010000D01*
X285548000Y-126328000D02*
X284786000Y-127090000D01*
%TO.N,/5*%
X279960000Y-144870000D02*
X271832000Y-144870000D01*
X288596000Y-134075000D02*
X288596000Y-136234000D01*
X262318000Y-135356000D02*
X261204000Y-135356000D01*
X288596000Y-136234000D02*
X279960000Y-144870000D01*
%TO.N,/Rotary_A*%
X267260000Y-114644000D02*
X267260000Y-119800000D01*
X267260000Y-119800000D02*
X266204000Y-120856000D01*
%TO.N,/Rotary_B*%
X261204000Y-119684000D02*
X261204000Y-120856000D01*
X264974000Y-115914000D02*
X261204000Y-119684000D01*
X264974000Y-115914000D02*
X264974000Y-113120000D01*
%TO.N,/GND*%
X275896000Y-143854000D02*
X276658000Y-143092000D01*
X276658000Y-140298000D02*
X276658000Y-129122000D01*
X276658000Y-140298000D02*
X277674000Y-140298000D01*
X277674000Y-140298000D02*
X278182000Y-140806000D01*
X272086000Y-143854000D02*
X275896000Y-143854000D01*
X263704000Y-135472000D02*
X272086000Y-143854000D01*
X263704000Y-120856000D02*
X263704000Y-135472000D01*
X276658000Y-129122000D02*
X275388000Y-127852000D01*
X275388000Y-127852000D02*
X275388000Y-118136000D01*
X276658000Y-143092000D02*
X276658000Y-140298000D01*
X275388000Y-118136000D02*
X277674000Y-115850000D01*
%TO.N,/E*%
X271578000Y-123788000D02*
X271578000Y-120613000D01*
X270054000Y-124042000D02*
X271324000Y-124042000D01*
X268403000Y-122391000D02*
X270054000Y-124042000D01*
X271578000Y-120613000D02*
X273356000Y-118835000D01*
X266204000Y-135356000D02*
X266204000Y-124082000D01*
X267895000Y-122391000D02*
X268403000Y-122391000D01*
X271324000Y-124042000D02*
X271578000Y-123788000D01*
X266204000Y-124082000D02*
X267895000Y-122391000D01*
%TO.N,/A*%
X270308000Y-120994000D02*
X270308000Y-116168000D01*
X267260000Y-132932000D02*
X268403000Y-134075000D01*
X267260000Y-125566000D02*
X267260000Y-132932000D01*
X268403000Y-134075000D02*
X272594000Y-134075000D01*
X269546000Y-121756000D02*
X269546000Y-122010000D01*
X270308000Y-120994000D02*
X269546000Y-121756000D01*
X268530000Y-124296000D02*
X267260000Y-125566000D01*
%TO.N,/B*%
X258116000Y-132678000D02*
X262434000Y-132678000D01*
X269419000Y-131535000D02*
X272594000Y-131535000D01*
X268276000Y-132678000D02*
X269419000Y-131535000D01*
%TO.N,/C*%
X270816000Y-126328000D02*
X270816000Y-129884000D01*
X273356000Y-123915000D02*
X272467000Y-124804000D01*
X272467000Y-124804000D02*
X271324000Y-124804000D01*
X271324000Y-124804000D02*
X270562000Y-125566000D01*
X270816000Y-129884000D02*
X271324000Y-130392000D01*
X270562000Y-125566000D02*
X270562000Y-126074000D01*
X270562000Y-126074000D02*
X270816000Y-126328000D01*
%TO.N,/D*%
X275896000Y-129630000D02*
X274880000Y-128614000D01*
X274880000Y-128614000D02*
X274880000Y-122899000D01*
X275896000Y-141568000D02*
X275896000Y-129630000D01*
X274880000Y-122899000D02*
X273356000Y-121375000D01*
%TO.N,/G*%
X270816000Y-112358000D02*
X271578000Y-112358000D01*
X269038000Y-110580000D02*
X270816000Y-112358000D01*
D34*
%TO.N,/Bat+*%
X273848500Y-130346000D02*
X274880000Y-131377500D01*
X280475500Y-164181500D02*
X280475500Y-169975500D01*
X271578000Y-129282000D02*
X272642000Y-130346000D01*
X268530000Y-152236000D02*
X280475500Y-164181500D01*
X271578000Y-125820000D02*
X271578000Y-129282000D01*
X274880000Y-131377500D02*
X274880000Y-140552000D01*
X285596000Y-175096000D02*
X288628000Y-175096000D01*
X274626000Y-140806000D02*
X273610000Y-140806000D01*
X280475500Y-169975500D02*
X285596000Y-175096000D01*
X272642000Y-130346000D02*
X273848500Y-130346000D01*
X274880000Y-140552000D02*
X274626000Y-140806000D01*
X273610000Y-140806000D02*
X272340000Y-142076000D01*
D35*
%TO.N,Net-(GND1-COM)*%
X277579000Y-113755000D02*
X277674000Y-113850000D01*
X273356000Y-113755000D02*
X277579000Y-113755000D01*
%TO.N,/VCC*%
X274626000Y-175858000D02*
X274626000Y-161380000D01*
X264974000Y-105500000D02*
X266498000Y-107024000D01*
X269800000Y-180684000D02*
X274626000Y-175858000D01*
X267260000Y-107024000D02*
X267514000Y-107024000D01*
X266498000Y-107024000D02*
X267260000Y-107024000D01*
X266752000Y-153506000D02*
X266752000Y-150458000D01*
X270379000Y-109889000D02*
X275713000Y-109889000D01*
X275713000Y-109889000D02*
X277674000Y-111850000D01*
X267260000Y-149950000D02*
X276150000Y-149950000D01*
X269800000Y-185256000D02*
X269800000Y-180684000D01*
X266752000Y-150458000D02*
X267260000Y-149950000D01*
X267514000Y-107024000D02*
X270379000Y-109889000D01*
X274626000Y-161380000D02*
X266752000Y-153506000D01*
%TO.N,Net-(GND2-COM)*%
X274658000Y-101436000D02*
X273356000Y-102738000D01*
X273356000Y-102738000D02*
X273356000Y-103595000D01*
%TO.N,/TXD*%
X285040000Y-107247000D02*
X285555000Y-106732000D01*
X285555000Y-106732000D02*
X286310000Y-106732000D01*
X280214000Y-108008000D02*
X280214000Y-109818000D01*
X283516000Y-110580000D02*
X285040000Y-109056000D01*
X280976000Y-110580000D02*
X283516000Y-110580000D01*
X285040000Y-109056000D02*
X285040000Y-107247000D01*
X287072000Y-148172000D02*
X287072000Y-147156000D01*
X280214000Y-109818000D02*
X280976000Y-110580000D01*
X287072000Y-147156000D02*
X288342000Y-145886000D01*
%TO.N,Net-(RXI1-COM)*%
X288539000Y-108732000D02*
X288596000Y-108675000D01*
X286310000Y-108732000D02*
X288539000Y-108732000D01*
%TO.N,/RXI*%
X283072000Y-147092000D02*
X284786000Y-145378000D01*
X283072000Y-148172000D02*
X283072000Y-147092000D01*
X278436000Y-110072000D02*
X278436000Y-109532000D01*
X284786000Y-145378000D02*
X286818000Y-145378000D01*
D34*
%TO.N,/Bat-*%
X283516000Y-108008000D02*
X282246000Y-109278000D01*
X282246000Y-109278000D02*
X282246000Y-109564000D01*
D35*
%TO.N,Net-(TXD1-COM)*%
X284024000Y-105500000D02*
X283516000Y-106008000D01*
X287580000Y-105500000D02*
X284024000Y-105500000D01*
X288215000Y-106135000D02*
X287580000Y-105500000D01*
X288596000Y-106135000D02*
X288215000Y-106135000D01*
%TO.N,Net-(TXD2-COM)*%
X280214000Y-106008000D02*
X279198000Y-106008000D01*
X279198000Y-106008000D02*
X278944000Y-105754000D01*
%TO.N,Net-(U1-VCC)*%
X288215000Y-114136000D02*
X288596000Y-113755000D01*
X284024000Y-114136000D02*
X288215000Y-114136000D01*
%TO.N,/SDA*%
X275896000Y-160872000D02*
X275896000Y-184240000D01*
X276654000Y-151224000D02*
X268280000Y-151224000D01*
X268280000Y-151224000D02*
X268276000Y-151220000D01*
X286499802Y-125285802D02*
X286499802Y-133694000D01*
X268276000Y-151220000D02*
X267805000Y-151691000D01*
X267805000Y-151691000D02*
X267805000Y-152781000D01*
X281738000Y-146140000D02*
X276654000Y-151224000D01*
X286499802Y-133694000D02*
X286564000Y-135980000D01*
X285294000Y-124080000D02*
X286499802Y-125285802D01*
X275896000Y-184240000D02*
X274880000Y-185256000D01*
X267805000Y-152781000D02*
X275896000Y-160872000D01*
X282754000Y-146140000D02*
X281738000Y-146140000D01*
%TO.N,/SCL*%
X283770000Y-134710000D02*
X283770000Y-134170000D01*
X268022000Y-150458000D02*
X276404000Y-150458000D01*
X283770000Y-134170000D02*
X285294000Y-132646000D01*
X272340000Y-180176000D02*
X275388000Y-177128000D01*
X283262000Y-143600000D02*
X285548000Y-143600000D01*
X272340000Y-185256000D02*
X272340000Y-180176000D01*
X275388000Y-161126000D02*
X267260000Y-152998000D01*
X267260000Y-151220000D02*
X268022000Y-150458000D01*
X276404000Y-150458000D02*
X283262000Y-143600000D01*
X275388000Y-177128000D02*
X275388000Y-161126000D01*
X267260000Y-152998000D02*
X267260000Y-151220000D01*
%TO.N,Net-(COM_SELECT1-COM)*%
X285200000Y-151718000D02*
X285200000Y-148300000D01*
X285200000Y-148300000D02*
X285072000Y-148172000D01*
X281194000Y-155724000D02*
X285200000Y-151718000D01*
%TO.N,Net-(J2-Pin_1)*%
X280475500Y-181000000D02*
X280475500Y-189848000D01*
X288628000Y-177096000D02*
X284379500Y-177096000D01*
X284379500Y-177096000D02*
X280475500Y-181000000D01*
%TO.N,Net-(P2-COM)*%
X286634000Y-122080000D02*
X287072000Y-122518000D01*
X287072000Y-125820000D02*
X287707000Y-126455000D01*
X285294000Y-122080000D02*
X286634000Y-122080000D01*
X287072000Y-122518000D02*
X287072000Y-125820000D01*
X287707000Y-126455000D02*
X288596000Y-126455000D01*
%TO.N,Net-(P3-COM)*%
X284278000Y-130646000D02*
X285294000Y-130646000D01*
X283770000Y-130138000D02*
X284278000Y-130646000D01*
X283770000Y-129630000D02*
X283770000Y-130138000D01*
%TO.N,Net-(SCL1-COM)*%
X279198000Y-130646000D02*
X278182000Y-130646000D01*
X280214000Y-129630000D02*
X279198000Y-130646000D01*
%TO.N,/G*%
X257608000Y-123788000D02*
X257862000Y-123534000D01*
%TD*%
M02*
