M48
; DRILL file {KiCad 8.0.6} date 2024-11-21T22:48:04-0700
; FORMAT={-:-/ absolute / inch / decimal}
; #@! TF.CreationDate,2024-11-21T22:48:04-07:00
; #@! TF.GenerationSoftware,Kicad,Pcbnew,8.0.6
; #@! TF.FileFunction,Plated,1,2,PTH
FMAT,2
INCH
; #@! TA.AperFunction,Plated,PTH,ViaDrill
T1C0.0157
; #@! TA.AperFunction,Plated,PTH,ComponentDrill
T2C0.0157
; #@! TA.AperFunction,Plated,PTH,ComponentDrill
T3C0.0276
; #@! TA.AperFunction,Plated,PTH,ComponentDrill
T4C0.0350
; #@! TA.AperFunction,Plated,PTH,ComponentDrill
T5C0.0354
; #@! TA.AperFunction,Plated,PTH,ComponentDrill
T6C0.0394
; #@! TA.AperFunction,Plated,PTH,ComponentDrill
T7C0.0591
%
G90
G05
T1
X4.4322Y-4.2922
X4.4422Y-3.5722
X4.57Y-4.67
X4.6422Y-5.0522
X4.76Y-5.42
X4.83Y-7.29
X4.8322Y-5.7922
X4.96Y-6.19
X4.98Y-6.93
X5.0122Y-6.5422
X5.02Y-3.58
X5.0216Y-4.3052
X5.1822Y-3.5622
X5.1822Y-4.2922
X5.2216Y-5.0552
X5.4116Y-5.8052
X5.4116Y-7.2952
X5.6016Y-6.5552
X5.6122Y-5.0422
X5.62Y-3.895
X5.7616Y-3.5752
X5.7616Y-4.3052
X5.83Y-4.08
X5.9322Y-3.5722
X5.9322Y-4.2974
X5.9822Y-5.7922
X6.1916Y-5.0552
X6.1922Y-7.2822
X6.3422Y-5.0474
X6.3522Y-6.5422
X6.5116Y-3.5852
X6.5116Y-4.3104
X6.5616Y-5.8052
X6.6822Y-3.5674
X6.6822Y-4.2922
X6.7222Y-5.7822
X6.7716Y-7.2952
X6.9216Y-5.0604
X6.9316Y-6.5552
X7.1022Y-5.0422
X7.1022Y-6.5422
X7.1422Y-7.2822
X7.2616Y-3.5804
X7.2616Y-4.3052
X7.3016Y-5.7952
X7.38Y-3.56
X7.4322Y-4.2922
X7.4722Y-5.8022
X7.6816Y-5.0552
X7.6816Y-6.5552
X7.7216Y-7.2952
X7.8422Y-5.0422
X7.8522Y-6.5322
X8.0116Y-3.5652
X8.0116Y-4.3052
X8.0516Y-5.8152
X8.1722Y-4.2922
X8.1822Y-3.5522
X8.2322Y-5.7922
X8.4216Y-5.0552
X8.4316Y-6.5452
X8.6022Y-5.0322
X8.6022Y-6.5422
X8.6622Y-7.2922
X8.7516Y-4.3052
X8.7616Y-3.5652
X8.805Y-5.515
X8.8116Y-5.8052
X8.9222Y-3.5622
X8.9222Y-4.2922
X8.9722Y-5.7922
X9.1816Y-5.0452
X9.1816Y-6.5552
X9.2416Y-7.3052
X9.3522Y-5.0422
X9.3522Y-6.5322
X9.5016Y-3.5752
X9.5016Y-4.3052
X9.5516Y-5.8052
X9.6722Y-3.5622
X9.6822Y-4.2922
X9.6922Y-5.7922
X9.9316Y-5.0552
X9.9316Y-6.5452
X10.04Y-5.1
X10.1022Y-6.5422
X10.152Y-4.8635
X10.25Y-3.89
X10.25Y-4.08
X10.2516Y-3.5752
X10.2616Y-4.3052
X10.2716Y-5.8052
X10.3Y-4.555
X10.332Y-5.0335
X10.332Y-5.2235
X10.412Y-4.3535
X10.445Y-6.11
X10.472Y-5.6986
X10.562Y-5.2235
X10.572Y-4.8935
X10.572Y-5.9935
X10.592Y-4.3535
X10.612Y-4.8035
X10.642Y-4.5735
X10.662Y-4.8435
X10.6816Y-6.5552
X10.689Y-4.4307
X10.692Y-4.9535
X10.722Y-5.5935
X10.8465Y-5.0
X10.862Y-5.5735
X10.8858Y-4.7244
X10.952Y-5.5435
X10.96Y-5.77
X10.962Y-4.3335
X10.978Y-3.963
X10.982Y-4.1635
X11.0304Y-5.1052
X11.062Y-4.3535
X11.1024Y-4.311
X11.132Y-5.1435
X11.132Y-5.7535
X11.172Y-5.1035
X11.172Y-5.3035
X11.242Y-4.9735
X11.242Y-5.6535
X11.282Y-5.3535
X11.292Y-5.7235
X11.352Y-5.7435
X11.437Y-4.0354
T2
X4.995Y-3.97
X5.0321Y-4.6735
X5.125Y-3.97
X5.162Y-4.6735
X5.745Y-5.48
X5.7701Y-3.91
X5.7971Y-4.6835
X5.8543Y-6.1735
X5.8602Y-7.5
X5.875Y-5.48
X5.9Y-3.91
X5.927Y-4.6835
X5.9843Y-6.1735
X5.9901Y-6.83
X5.9902Y-7.5
X6.12Y-6.83
X6.2171Y-5.4335
X6.347Y-5.4335
X6.515Y-3.94
X6.5571Y-4.6935
X6.5771Y-6.1535
X6.645Y-3.94
X6.687Y-4.6935
X6.707Y-6.1535
X6.875Y-7.66
X6.9371Y-5.4235
X6.955Y-6.94
X7.005Y-7.66
X7.067Y-5.4235
X7.085Y-6.94
X7.2501Y-3.99
X7.312Y-4.6635
X7.3671Y-6.1835
X7.38Y-3.99
X7.442Y-4.6635
X7.497Y-6.1835
X7.712Y-5.4335
X7.74Y-6.94
X7.842Y-5.4335
X7.8699Y-6.94
X7.875Y-7.11
X8.005Y-7.11
X8.0101Y-3.96
X8.042Y-4.6835
X8.065Y-6.19
X8.14Y-3.96
X8.172Y-4.6835
X8.195Y-6.19
X8.435Y-6.88
X8.472Y-5.4335
X8.565Y-6.88
X8.602Y-5.4335
X8.765Y-3.96
X8.7971Y-4.6735
X8.815Y-6.18
X8.895Y-3.96
X8.927Y-4.6735
X8.945Y-6.18
X9.1871Y-6.9235
X9.202Y-5.4335
X9.317Y-6.9235
X9.332Y-5.4335
X9.365Y-7.2
X9.495Y-7.2
X9.565Y-6.2
X9.6371Y-4.6435
X9.645Y-3.95
X9.695Y-6.2
X9.767Y-4.6435
X9.775Y-3.95
X9.925Y-5.385
X9.935Y-6.92
X10.055Y-5.385
X10.065Y-6.92
X10.12Y-4.62
X10.1901Y-3.97
X10.25Y-4.62
X10.2671Y-6.1935
X10.32Y-3.97
X10.397Y-6.1935
X10.5271Y-6.9435
X10.657Y-6.9435
T3
X10.432Y-4.1535
X10.432Y-4.4535
X10.5Y-7.485
X10.522Y-4.2135
X10.522Y-4.5135
X10.575Y-7.59
X10.8Y-7.485
X10.875Y-7.59
T4
X10.762Y-4.0785
X10.762Y-4.1785
X10.762Y-4.2785
X10.762Y-4.3785
X10.762Y-4.4785
X10.762Y-4.5785
X10.762Y-4.6785
X10.762Y-4.7785
X10.762Y-4.8785
X10.762Y-4.9785
X10.762Y-5.0785
X10.762Y-5.1785
X10.762Y-5.2785
X11.362Y-4.0785
X11.362Y-4.1785
X11.362Y-4.2785
X11.362Y-4.3785
X11.362Y-4.4785
X11.362Y-4.5785
X11.362Y-4.6785
X11.362Y-4.7785
X11.362Y-4.8785
X11.362Y-4.9785
X11.362Y-5.0785
X11.362Y-5.1785
X11.362Y-5.2785
T5
X10.522Y-7.2935
X10.622Y-7.2935
X10.722Y-7.2935
X10.822Y-7.2935
X11.3633Y-6.8148
X11.3633Y-6.8935
X11.3633Y-6.9723
T6
X10.2836Y-4.7581
X10.2836Y-5.329
X10.382Y-4.7581
X10.4805Y-4.7581
X10.4805Y-5.329
X11.0423Y-7.4743
X11.0423Y-7.5728
T7
X11.3633Y-6.7321
X11.3633Y-7.055
T6
G00X11.0706Y-6.1112
M15
G01X11.0706Y-6.1506
M16
G05
G00X11.0706Y-6.2687
M15
G01X11.0706Y-6.308
M16
G05
G00X11.2872Y-6.1112
M15
G01X11.2872Y-6.1506
M16
G05
G00X11.2872Y-6.2687
M15
G01X11.2872Y-6.308
M16
G05
G00X11.3817Y-6.1899
M15
G01X11.3817Y-6.2293
M16
G05
T7
G00X10.1616Y-5.0278
M15
G01X10.1616Y-5.079
M16
G05
G00X10.6025Y-5.0278
M15
G01X10.6025Y-5.079
M16
G05
M30
