%TF.GenerationSoftware,KiCad,Pcbnew,8.0.6*%
%TF.CreationDate,2024-11-01T15:41:53-06:00*%
%TF.ProjectId,simple_split,73696d70-6c65-45f7-9370-6c69742e6b69,v1.0.0*%
%TF.SameCoordinates,Original*%
%TF.FileFunction,Soldermask,Bot*%
%TF.FilePolarity,Negative*%
%FSLAX46Y46*%
G04 Gerber Fmt 4.6, Leading zero omitted, Abs format (unit mm)*
G04 Created by KiCad (PCBNEW 8.0.6) date 2024-11-01 15:41:53*
%MOMM*%
%LPD*%
G01*
G04 APERTURE LIST*
G04 Aperture macros list*
%AMRoundRect*
0 Rectangle with rounded corners*
0 $1 Rounding radius*
0 $2 $3 $4 $5 $6 $7 $8 $9 X,Y pos of 4 corners*
0 Add a 4 corners polygon primitive as box body*
4,1,4,$2,$3,$4,$5,$6,$7,$8,$9,$2,$3,0*
0 Add four circle primitives for the rounded corners*
1,1,$1+$1,$2,$3*
1,1,$1+$1,$4,$5*
1,1,$1+$1,$6,$7*
1,1,$1+$1,$8,$9*
0 Add four rect primitives between the rounded corners*
20,1,$1+$1,$2,$3,$4,$5,0*
20,1,$1+$1,$4,$5,$6,$7,0*
20,1,$1+$1,$6,$7,$8,$9,0*
20,1,$1+$1,$8,$9,$2,$3,0*%
G04 Aperture macros list end*
%ADD10C,4.087800*%
%ADD11C,3.148000*%
%ADD12C,1.801800*%
%ADD13C,3.100000*%
%ADD14C,3.529000*%
%ADD15RoundRect,0.050000X1.300000X1.300000X-1.300000X1.300000X-1.300000X-1.300000X1.300000X-1.300000X0*%
%ADD16C,2.132000*%
%ADD17C,1.500000*%
%ADD18O,1.500000X1.500000*%
%ADD19C,0.900000*%
%ADD20RoundRect,0.050000X0.450000X0.600000X-0.450000X0.600000X-0.450000X-0.600000X0.450000X-0.600000X0*%
%ADD21RoundRect,0.050000X-0.450000X-0.600000X0.450000X-0.600000X0.450000X0.600000X-0.450000X0.600000X0*%
%ADD22C,2.300000*%
%ADD23RoundRect,0.264706X-0.785294X0.635294X-0.785294X-0.635294X0.785294X-0.635294X0.785294X0.635294X0*%
%ADD24O,2.100000X1.800000*%
%ADD25RoundRect,0.050000X-1.000000X-1.000000X1.000000X-1.000000X1.000000X1.000000X-1.000000X1.000000X0*%
%ADD26C,2.100000*%
%ADD27RoundRect,0.050000X-0.600000X0.450000X-0.600000X-0.450000X0.600000X-0.450000X0.600000X0.450000X0*%
%ADD28RoundRect,0.050000X-0.889000X-0.762000X0.889000X-0.762000X0.889000X0.762000X-0.889000X0.762000X0*%
%ADD29C,1.878000*%
%ADD30RoundRect,0.050000X0.600000X-0.450000X0.600000X0.450000X-0.600000X0.450000X-0.600000X-0.450000X0*%
%ADD31O,3.600000X2.300000*%
%ADD32RoundRect,0.050000X1.250000X-0.750000X1.250000X0.750000X-1.250000X0.750000X-1.250000X-0.750000X0*%
%ADD33O,2.600000X1.600000*%
%ADD34O,1.900000X2.900000*%
%ADD35RoundRect,0.050000X-1.000000X1.000000X-1.000000X-1.000000X1.000000X-1.000000X1.000000X1.000000X0*%
%ADD36RoundRect,0.050000X-1.000000X1.600000X-1.000000X-1.600000X1.000000X-1.600000X1.000000X1.600000X0*%
G04 APERTURE END LIST*
D10*
%TO.C,DRA5*%
X239175500Y-193607000D03*
X215375500Y-193607000D03*
D11*
X239175500Y-178367000D03*
X215375500Y-178367000D03*
%TD*%
D10*
%TO.C,DRA4*%
X141832500Y-193607000D03*
X118032500Y-193607000D03*
D11*
X141832500Y-178367000D03*
X118032500Y-178367000D03*
%TD*%
D10*
%TO.C,DRA3*%
X146595000Y-174607000D03*
X122795000Y-174607000D03*
D11*
X146595000Y-159367000D03*
X122795000Y-159367000D03*
%TD*%
D10*
%TO.C,DRA2*%
X137070000Y-136607000D03*
X113270000Y-136607000D03*
D11*
X137070000Y-121367000D03*
X113270000Y-121367000D03*
%TD*%
D10*
%TO.C,DRA1*%
X141832500Y-155607000D03*
X118032500Y-155607000D03*
D11*
X141832500Y-140367000D03*
X118032500Y-140367000D03*
%TD*%
D12*
%TO.C,S33*%
X258407500Y-109352000D03*
D13*
X257907500Y-113102000D03*
X252907500Y-115302000D03*
D14*
X252907500Y-109352000D03*
D13*
X247907500Y-113102000D03*
D12*
X247407500Y-109352000D03*
D15*
X256182500Y-115302000D03*
D16*
X252907500Y-103452000D03*
X257907500Y-105552000D03*
X247907500Y-105552000D03*
D15*
X244632500Y-113102000D03*
%TD*%
D17*
%TO.C,R3*%
X267260000Y-114644000D03*
D18*
X267260000Y-107024000D03*
%TD*%
D19*
%TO.C,D26*%
X236652000Y-175858000D03*
D20*
X236652000Y-175858000D03*
D19*
X233352000Y-175858000D03*
D20*
X233352000Y-175858000D03*
%TD*%
D19*
%TO.C,D24*%
X194364000Y-176112000D03*
D21*
X194364000Y-176112000D03*
D19*
X197664000Y-176112000D03*
D21*
X197664000Y-176112000D03*
%TD*%
D12*
%TO.C,S31*%
X194225500Y-185352000D03*
D13*
X193725500Y-189102000D03*
X188725500Y-191302000D03*
D14*
X188725500Y-185352000D03*
D13*
X183725500Y-189102000D03*
D12*
X183225500Y-185352000D03*
D15*
X192000500Y-191302000D03*
D16*
X188725500Y-179452000D03*
X193725500Y-181552000D03*
X183725500Y-181552000D03*
D15*
X180450500Y-189102000D03*
%TD*%
D12*
%TO.C,S8*%
X130670000Y-128352000D03*
D13*
X130170000Y-132102000D03*
X125170000Y-134302000D03*
D14*
X125170000Y-128352000D03*
D13*
X120170000Y-132102000D03*
D12*
X119670000Y-128352000D03*
D15*
X128445000Y-134302000D03*
D16*
X125170000Y-122452000D03*
X130170000Y-124552000D03*
X120170000Y-124552000D03*
D15*
X116895000Y-132102000D03*
%TD*%
D19*
%TO.C,D6*%
X226746000Y-118708000D03*
D20*
X226746000Y-118708000D03*
D19*
X223446000Y-118708000D03*
D20*
X223446000Y-118708000D03*
%TD*%
D19*
%TO.C,D33*%
X260400000Y-118454000D03*
D20*
X260400000Y-118454000D03*
D19*
X257100000Y-118454000D03*
D20*
X257100000Y-118454000D03*
%TD*%
D19*
%TO.C,D9*%
X161214000Y-138012000D03*
D20*
X161214000Y-138012000D03*
D19*
X157914000Y-138012000D03*
D20*
X157914000Y-138012000D03*
%TD*%
D22*
%TO.C,M1*%
X112500000Y-100500000D03*
%TD*%
D19*
%TO.C,D16*%
X170358000Y-156300000D03*
D20*
X170358000Y-156300000D03*
D19*
X167058000Y-156300000D03*
D20*
X167058000Y-156300000D03*
%TD*%
D19*
%TO.C,D10*%
X179502000Y-137758000D03*
D20*
X179502000Y-137758000D03*
D19*
X176202000Y-137758000D03*
D20*
X176202000Y-137758000D03*
%TD*%
D12*
%TO.C,S20*%
X240579000Y-147352000D03*
D13*
X240079000Y-151102000D03*
X235079000Y-153302000D03*
D14*
X235079000Y-147352000D03*
D13*
X230079000Y-151102000D03*
D12*
X229579000Y-147352000D03*
D15*
X238354000Y-153302000D03*
D16*
X235079000Y-141452000D03*
X240079000Y-143552000D03*
X230079000Y-143552000D03*
D15*
X226804000Y-151102000D03*
%TD*%
D12*
%TO.C,S11*%
X193054000Y-128352000D03*
D13*
X192554000Y-132102000D03*
X187554000Y-134302000D03*
D14*
X187554000Y-128352000D03*
D13*
X182554000Y-132102000D03*
D12*
X182054000Y-128352000D03*
D15*
X190829000Y-134302000D03*
D16*
X187554000Y-122452000D03*
X192554000Y-124552000D03*
X182554000Y-124552000D03*
D15*
X179279000Y-132102000D03*
%TD*%
D23*
%TO.C,J2*%
X280475500Y-189848000D03*
D24*
X280475500Y-192348000D03*
%TD*%
D22*
%TO.C,M9*%
X261500000Y-189000000D03*
%TD*%
D19*
%TO.C,D23*%
X167184000Y-176112000D03*
D20*
X167184000Y-176112000D03*
D19*
X163884000Y-176112000D03*
D20*
X163884000Y-176112000D03*
%TD*%
D19*
%TO.C,D7*%
X248082000Y-117946000D03*
D20*
X248082000Y-117946000D03*
D19*
X244782000Y-117946000D03*
D20*
X244782000Y-117946000D03*
%TD*%
D12*
%TO.C,S6*%
X220407500Y-109352000D03*
D13*
X219907500Y-113102000D03*
X214907500Y-115302000D03*
D14*
X214907500Y-109352000D03*
D13*
X209907500Y-113102000D03*
D12*
X209407500Y-109352000D03*
D15*
X218182500Y-115302000D03*
D16*
X214907500Y-103452000D03*
X219907500Y-105552000D03*
X209907500Y-105552000D03*
D15*
X206632500Y-113102000D03*
%TD*%
D25*
%TO.C,U2*%
X267260000Y-185256000D03*
D26*
X269800000Y-185256000D03*
X272340000Y-185256000D03*
X274880000Y-185256000D03*
%TD*%
D22*
%TO.C,M7*%
X235000000Y-122000000D03*
%TD*%
%TO.C,M5*%
X203000000Y-185500000D03*
%TD*%
D12*
%TO.C,S35*%
X125407500Y-90800000D03*
D13*
X124907500Y-94550000D03*
X119907500Y-96750000D03*
D14*
X119907500Y-90800000D03*
D13*
X114907500Y-94550000D03*
D12*
X114407500Y-90800000D03*
D15*
X123182500Y-96750000D03*
D16*
X119907500Y-84900000D03*
X124907500Y-87000000D03*
X114907500Y-87000000D03*
D15*
X111632500Y-94550000D03*
%TD*%
D12*
%TO.C,S4*%
X182407500Y-109352000D03*
D13*
X181907500Y-113102000D03*
X176907500Y-115302000D03*
D14*
X176907500Y-109352000D03*
D13*
X171907500Y-113102000D03*
D12*
X171407500Y-109352000D03*
D15*
X180182500Y-115302000D03*
D16*
X176907500Y-103452000D03*
X181907500Y-105552000D03*
X171907500Y-105552000D03*
D15*
X168632500Y-113102000D03*
%TD*%
D12*
%TO.C,S3*%
X163407500Y-109352000D03*
D13*
X162907500Y-113102000D03*
X157907500Y-115302000D03*
D14*
X157907500Y-109352000D03*
D13*
X152907500Y-113102000D03*
D12*
X152407500Y-109352000D03*
D15*
X161182500Y-115302000D03*
D16*
X157907500Y-103452000D03*
X162907500Y-105552000D03*
X152907500Y-105552000D03*
D15*
X149632500Y-113102000D03*
%TD*%
D19*
%TO.C,D15*%
X152000000Y-156808000D03*
D20*
X152000000Y-156808000D03*
D19*
X148700000Y-156808000D03*
D20*
X148700000Y-156808000D03*
%TD*%
D12*
%TO.C,S5*%
X201407500Y-109352000D03*
D13*
X200907500Y-113102000D03*
X195907500Y-115302000D03*
D14*
X195907500Y-109352000D03*
D13*
X190907500Y-113102000D03*
D12*
X190407500Y-109352000D03*
D15*
X199182500Y-115302000D03*
D16*
X195907500Y-103452000D03*
X200907500Y-105552000D03*
X190907500Y-105552000D03*
D15*
X187632500Y-113102000D03*
%TD*%
D19*
%TO.C,D4*%
X189026000Y-118454000D03*
D20*
X189026000Y-118454000D03*
D19*
X185726000Y-118454000D03*
D20*
X185726000Y-118454000D03*
%TD*%
D19*
%TO.C,D5*%
X207568000Y-118962000D03*
D20*
X207568000Y-118962000D03*
D19*
X204268000Y-118962000D03*
D20*
X204268000Y-118962000D03*
%TD*%
D12*
%TO.C,S25*%
X212104000Y-166352000D03*
D13*
X211604000Y-170102000D03*
X206604000Y-172302000D03*
D14*
X206604000Y-166352000D03*
D13*
X201604000Y-170102000D03*
D12*
X201104000Y-166352000D03*
D15*
X209879000Y-172302000D03*
D16*
X206604000Y-160452000D03*
X211604000Y-162552000D03*
X201604000Y-162552000D03*
D15*
X198329000Y-170102000D03*
%TD*%
D12*
%TO.C,S7*%
X239407500Y-109352000D03*
D13*
X238907500Y-113102000D03*
X233907500Y-115302000D03*
D14*
X233907500Y-109352000D03*
D13*
X228907500Y-113102000D03*
D12*
X228407500Y-109352000D03*
D15*
X237182500Y-115302000D03*
D16*
X233907500Y-103452000D03*
X238907500Y-105552000D03*
X228907500Y-105552000D03*
D15*
X225632500Y-113102000D03*
%TD*%
D12*
%TO.C,S1*%
X125407500Y-109352000D03*
D13*
X124907500Y-113102000D03*
X119907500Y-115302000D03*
D14*
X119907500Y-109352000D03*
D13*
X114907500Y-113102000D03*
D12*
X114407500Y-109352000D03*
D15*
X123182500Y-115302000D03*
D16*
X119907500Y-103452000D03*
X124907500Y-105552000D03*
X114907500Y-105552000D03*
D15*
X111632500Y-113102000D03*
%TD*%
D19*
%TO.C,D30*%
X155246000Y-174462000D03*
D27*
X155246000Y-174462000D03*
D19*
X155246000Y-177762000D03*
D27*
X155246000Y-177762000D03*
%TD*%
D19*
%TO.C,D28*%
X267388000Y-176366000D03*
D21*
X267388000Y-176366000D03*
D19*
X270688000Y-176366000D03*
D21*
X270688000Y-176366000D03*
%TD*%
D12*
%TO.C,S12*%
X212054000Y-128352000D03*
D13*
X211554000Y-132102000D03*
X206554000Y-134302000D03*
D14*
X206554000Y-128352000D03*
D13*
X201554000Y-132102000D03*
D12*
X201054000Y-128352000D03*
D15*
X209829000Y-134302000D03*
D16*
X206554000Y-122452000D03*
X211554000Y-124552000D03*
X201554000Y-124552000D03*
D15*
X198279000Y-132102000D03*
%TD*%
D12*
%TO.C,S24*%
X193104000Y-166352000D03*
D13*
X192604000Y-170102000D03*
X187604000Y-172302000D03*
D14*
X187604000Y-166352000D03*
D13*
X182604000Y-170102000D03*
D12*
X182104000Y-166352000D03*
D15*
X190879000Y-172302000D03*
D16*
X187604000Y-160452000D03*
X192604000Y-162552000D03*
X182604000Y-162552000D03*
D15*
X179329000Y-170102000D03*
%TD*%
D19*
%TO.C,D12*%
X218490000Y-138012000D03*
D20*
X218490000Y-138012000D03*
D19*
X215190000Y-138012000D03*
D20*
X215190000Y-138012000D03*
%TD*%
D28*
%TO.C,U1*%
X273356000Y-103595000D03*
D29*
X273356000Y-106135000D03*
X273356000Y-108675000D03*
X273356000Y-111215000D03*
X273356000Y-113755000D03*
X273356000Y-116295000D03*
X273356000Y-118835000D03*
X273356000Y-121375000D03*
X273356000Y-123915000D03*
X273356000Y-126455000D03*
X273356000Y-128995000D03*
X273356000Y-131535000D03*
X273356000Y-134075000D03*
X288596000Y-134075000D03*
X288596000Y-131535000D03*
X288596000Y-128995000D03*
X288596000Y-126455000D03*
X288596000Y-123915000D03*
X288596000Y-121375000D03*
X288596000Y-118835000D03*
X288596000Y-116295000D03*
X288596000Y-113755000D03*
X288596000Y-111215000D03*
X288596000Y-108675000D03*
X288596000Y-106135000D03*
X288596000Y-103595000D03*
%TD*%
D19*
%TO.C,D17*%
X190424000Y-157062000D03*
D20*
X190424000Y-157062000D03*
D19*
X187124000Y-157062000D03*
D20*
X187124000Y-157062000D03*
%TD*%
D22*
%TO.C,M2*%
X114000000Y-190500000D03*
%TD*%
D19*
%TO.C,D14*%
X258242000Y-136996000D03*
D20*
X258242000Y-136996000D03*
D19*
X254942000Y-136996000D03*
D20*
X254942000Y-136996000D03*
%TD*%
D22*
%TO.C,M6*%
X206502000Y-143256000D03*
%TD*%
D19*
%TO.C,D20*%
X239956000Y-157062000D03*
D21*
X239956000Y-157062000D03*
D19*
X243256000Y-157062000D03*
D21*
X243256000Y-157062000D03*
%TD*%
D19*
%TO.C,D25*%
X208586000Y-177636000D03*
D20*
X208586000Y-177636000D03*
D19*
X205286000Y-177636000D03*
D20*
X205286000Y-177636000D03*
%TD*%
D19*
%TO.C,D22*%
X152800000Y-188000000D03*
D20*
X152800000Y-188000000D03*
D19*
X149500000Y-188000000D03*
D20*
X149500000Y-188000000D03*
%TD*%
D12*
%TO.C,S2*%
X144407500Y-109352000D03*
D13*
X143907500Y-113102000D03*
X138907500Y-115302000D03*
D14*
X138907500Y-109352000D03*
D13*
X133907500Y-113102000D03*
D12*
X133407500Y-109352000D03*
D15*
X142182500Y-115302000D03*
D16*
X138907500Y-103452000D03*
X143907500Y-105552000D03*
X133907500Y-105552000D03*
D15*
X130632500Y-113102000D03*
%TD*%
D19*
%TO.C,D3*%
X169850000Y-119216000D03*
D20*
X169850000Y-119216000D03*
D19*
X166550000Y-119216000D03*
D20*
X166550000Y-119216000D03*
%TD*%
D12*
%TO.C,S16*%
X164579000Y-147352000D03*
D13*
X164079000Y-151102000D03*
X159079000Y-153302000D03*
D14*
X159079000Y-147352000D03*
D13*
X154079000Y-151102000D03*
D12*
X153579000Y-147352000D03*
D15*
X162354000Y-153302000D03*
D16*
X159079000Y-141452000D03*
X164079000Y-143552000D03*
X154079000Y-143552000D03*
D15*
X150804000Y-151102000D03*
%TD*%
D12*
%TO.C,S21*%
X259579000Y-147352000D03*
D13*
X259079000Y-151102000D03*
X254079000Y-153302000D03*
D14*
X254079000Y-147352000D03*
D13*
X249079000Y-151102000D03*
D12*
X248579000Y-147352000D03*
D15*
X257354000Y-153302000D03*
D16*
X254079000Y-141452000D03*
X259079000Y-143552000D03*
X249079000Y-143552000D03*
D15*
X245804000Y-151102000D03*
%TD*%
D12*
%TO.C,S26*%
X231104000Y-166352000D03*
D13*
X230604000Y-170102000D03*
X225604000Y-172302000D03*
D14*
X225604000Y-166352000D03*
D13*
X220604000Y-170102000D03*
D12*
X220104000Y-166352000D03*
D15*
X228879000Y-172302000D03*
D16*
X225604000Y-160452000D03*
X230604000Y-162552000D03*
X220604000Y-162552000D03*
D15*
X217329000Y-170102000D03*
%TD*%
D19*
%TO.C,D21*%
X260784000Y-157316000D03*
D21*
X260784000Y-157316000D03*
D19*
X264084000Y-157316000D03*
D21*
X264084000Y-157316000D03*
%TD*%
D12*
%TO.C,S17*%
X183579000Y-147352000D03*
D13*
X183079000Y-151102000D03*
X178079000Y-153302000D03*
D14*
X178079000Y-147352000D03*
D13*
X173079000Y-151102000D03*
D12*
X172579000Y-147352000D03*
D15*
X181354000Y-153302000D03*
D16*
X178079000Y-141452000D03*
X183079000Y-143552000D03*
X173079000Y-143552000D03*
D15*
X169804000Y-151102000D03*
%TD*%
D12*
%TO.C,S18*%
X202579000Y-147352000D03*
D13*
X202079000Y-151102000D03*
X197079000Y-153302000D03*
D14*
X197079000Y-147352000D03*
D13*
X192079000Y-151102000D03*
D12*
X191579000Y-147352000D03*
D15*
X200354000Y-153302000D03*
D16*
X197079000Y-141452000D03*
X202079000Y-143552000D03*
X192079000Y-143552000D03*
D15*
X188804000Y-151102000D03*
%TD*%
D19*
%TO.C,D35*%
X129000000Y-103150000D03*
D30*
X129000000Y-103150000D03*
D19*
X129000000Y-99850000D03*
D30*
X129000000Y-99850000D03*
%TD*%
D22*
%TO.C,M8*%
X271000000Y-147500000D03*
%TD*%
D12*
%TO.C,S32*%
X232775500Y-185352000D03*
D13*
X232275500Y-189102000D03*
X227275500Y-191302000D03*
D14*
X227275500Y-185352000D03*
D13*
X222275500Y-189102000D03*
D12*
X221775500Y-185352000D03*
D15*
X230550500Y-191302000D03*
D16*
X227275500Y-179452000D03*
X232275500Y-181552000D03*
X222275500Y-181552000D03*
D15*
X219000500Y-189102000D03*
%TD*%
D12*
%TO.C,S29*%
X135432500Y-185352000D03*
D13*
X134932500Y-189102000D03*
X129932500Y-191302000D03*
D14*
X129932500Y-185352000D03*
D13*
X124932500Y-189102000D03*
D12*
X124432500Y-185352000D03*
D15*
X133207500Y-191302000D03*
D16*
X129932500Y-179452000D03*
X134932500Y-181552000D03*
X124932500Y-181552000D03*
D15*
X121657500Y-189102000D03*
%TD*%
D19*
%TO.C,D31*%
X179630000Y-177128000D03*
D21*
X179630000Y-177128000D03*
D19*
X182930000Y-177128000D03*
D21*
X182930000Y-177128000D03*
%TD*%
D12*
%TO.C,S23*%
X174104000Y-166352000D03*
D13*
X173604000Y-170102000D03*
X168604000Y-172302000D03*
D14*
X168604000Y-166352000D03*
D13*
X163604000Y-170102000D03*
D12*
X163104000Y-166352000D03*
D15*
X171879000Y-172302000D03*
D16*
X168604000Y-160452000D03*
X173604000Y-162552000D03*
X163604000Y-162552000D03*
D15*
X160329000Y-170102000D03*
%TD*%
D19*
%TO.C,D11*%
X199186000Y-138012000D03*
D20*
X199186000Y-138012000D03*
D19*
X195886000Y-138012000D03*
D20*
X195886000Y-138012000D03*
%TD*%
D12*
%TO.C,S14*%
X250054000Y-128352000D03*
D13*
X249554000Y-132102000D03*
X244554000Y-134302000D03*
D14*
X244554000Y-128352000D03*
D13*
X239554000Y-132102000D03*
D12*
X239054000Y-128352000D03*
D15*
X247829000Y-134302000D03*
D16*
X244554000Y-122452000D03*
X249554000Y-124552000D03*
X239554000Y-124552000D03*
D15*
X236279000Y-132102000D03*
%TD*%
D22*
%TO.C,M3*%
X158000000Y-161000000D03*
%TD*%
D19*
%TO.C,D32*%
X207700000Y-184000000D03*
D21*
X207700000Y-184000000D03*
D19*
X211000000Y-184000000D03*
D21*
X211000000Y-184000000D03*
%TD*%
D31*
%TO.C,SW1*%
X288628000Y-179196000D03*
X288628000Y-170996000D03*
D32*
X288628000Y-177096000D03*
D33*
X288628000Y-175096000D03*
X288628000Y-173096000D03*
%TD*%
D19*
%TO.C,D2*%
X150546000Y-118962000D03*
D20*
X150546000Y-118962000D03*
D19*
X147246000Y-118962000D03*
D20*
X147246000Y-118962000D03*
%TD*%
D34*
%TO.C,J1*%
X281194000Y-155724000D03*
X281194000Y-159724000D03*
X289094000Y-157724000D03*
X286694000Y-155724000D03*
X286694000Y-159724000D03*
%TD*%
D19*
%TO.C,D27*%
X251386000Y-176112000D03*
D21*
X251386000Y-176112000D03*
D19*
X254686000Y-176112000D03*
D21*
X254686000Y-176112000D03*
%TD*%
D12*
%TO.C,S27*%
X250104000Y-166352000D03*
D13*
X249604000Y-170102000D03*
X244604000Y-172302000D03*
D14*
X244604000Y-166352000D03*
D13*
X239604000Y-170102000D03*
D12*
X239104000Y-166352000D03*
D15*
X247879000Y-172302000D03*
D16*
X244604000Y-160452000D03*
X249604000Y-162552000D03*
X239604000Y-162552000D03*
D15*
X236329000Y-170102000D03*
%TD*%
D35*
%TO.C,R1*%
X266204000Y-120856000D03*
D26*
X261204000Y-120856000D03*
X263704000Y-120856000D03*
D36*
X269304000Y-128356000D03*
X258104000Y-128356000D03*
D26*
X261204000Y-135356000D03*
X266204000Y-135356000D03*
%TD*%
D22*
%TO.C,M4*%
X159000000Y-122000000D03*
%TD*%
D12*
%TO.C,S28*%
X269104000Y-166352000D03*
D13*
X268604000Y-170102000D03*
X263604000Y-172302000D03*
D14*
X263604000Y-166352000D03*
D13*
X258604000Y-170102000D03*
D12*
X258104000Y-166352000D03*
D15*
X266879000Y-172302000D03*
D16*
X263604000Y-160452000D03*
X268604000Y-162552000D03*
X258604000Y-162552000D03*
D15*
X255329000Y-170102000D03*
%TD*%
D19*
%TO.C,D29*%
X152150000Y-190500000D03*
D20*
X152150000Y-190500000D03*
D19*
X148850000Y-190500000D03*
D20*
X148850000Y-190500000D03*
%TD*%
D19*
%TO.C,D13*%
X237032000Y-138012000D03*
D20*
X237032000Y-138012000D03*
D19*
X233732000Y-138012000D03*
D20*
X233732000Y-138012000D03*
%TD*%
D12*
%TO.C,S15*%
X135432500Y-147352000D03*
D13*
X134932500Y-151102000D03*
X129932500Y-153302000D03*
D14*
X129932500Y-147352000D03*
D13*
X124932500Y-151102000D03*
D12*
X124432500Y-147352000D03*
D15*
X133207500Y-153302000D03*
D16*
X129932500Y-141452000D03*
X134932500Y-143552000D03*
X124932500Y-143552000D03*
D15*
X121657500Y-151102000D03*
%TD*%
D12*
%TO.C,S22*%
X140195000Y-166352000D03*
D13*
X139695000Y-170102000D03*
X134695000Y-172302000D03*
D14*
X134695000Y-166352000D03*
D13*
X129695000Y-170102000D03*
D12*
X129195000Y-166352000D03*
D15*
X137970000Y-172302000D03*
D16*
X134695000Y-160452000D03*
X139695000Y-162552000D03*
X129695000Y-162552000D03*
D15*
X126420000Y-170102000D03*
%TD*%
D19*
%TO.C,D19*%
X221668000Y-156554000D03*
D21*
X221668000Y-156554000D03*
D19*
X224968000Y-156554000D03*
D21*
X224968000Y-156554000D03*
%TD*%
D12*
%TO.C,S19*%
X221579000Y-147352000D03*
D13*
X221079000Y-151102000D03*
X216079000Y-153302000D03*
D14*
X216079000Y-147352000D03*
D13*
X211079000Y-151102000D03*
D12*
X210579000Y-147352000D03*
D15*
X219354000Y-153302000D03*
D16*
X216079000Y-141452000D03*
X221079000Y-143552000D03*
X211079000Y-143552000D03*
D15*
X207804000Y-151102000D03*
%TD*%
D12*
%TO.C,S9*%
X155054000Y-128352000D03*
D13*
X154554000Y-132102000D03*
X149554000Y-134302000D03*
D14*
X149554000Y-128352000D03*
D13*
X144554000Y-132102000D03*
D12*
X144054000Y-128352000D03*
D15*
X152829000Y-134302000D03*
D16*
X149554000Y-122452000D03*
X154554000Y-124552000D03*
X144554000Y-124552000D03*
D15*
X141279000Y-132102000D03*
%TD*%
D19*
%TO.C,D18*%
X202110000Y-156808000D03*
D21*
X202110000Y-156808000D03*
D19*
X205410000Y-156808000D03*
D21*
X205410000Y-156808000D03*
%TD*%
D12*
%TO.C,S13*%
X231054000Y-128352000D03*
D13*
X230554000Y-132102000D03*
X225554000Y-134302000D03*
D14*
X225554000Y-128352000D03*
D13*
X220554000Y-132102000D03*
D12*
X220054000Y-128352000D03*
D15*
X228829000Y-134302000D03*
D16*
X225554000Y-122452000D03*
X230554000Y-124552000D03*
X220554000Y-124552000D03*
D15*
X217279000Y-132102000D03*
%TD*%
D19*
%TO.C,D1*%
X131116000Y-118708000D03*
D20*
X131116000Y-118708000D03*
D19*
X127816000Y-118708000D03*
D20*
X127816000Y-118708000D03*
%TD*%
D19*
%TO.C,D8*%
X148150000Y-143500000D03*
D20*
X148150000Y-143500000D03*
D19*
X144850000Y-143500000D03*
D20*
X144850000Y-143500000D03*
%TD*%
D17*
%TO.C,R2*%
X264974000Y-105500000D03*
D18*
X264974000Y-113120000D03*
%TD*%
D12*
%TO.C,S10*%
X174054000Y-128352000D03*
D13*
X173554000Y-132102000D03*
X168554000Y-134302000D03*
D14*
X168554000Y-128352000D03*
D13*
X163554000Y-132102000D03*
D12*
X163054000Y-128352000D03*
D15*
X171829000Y-134302000D03*
D16*
X168554000Y-122452000D03*
X173554000Y-124552000D03*
X163554000Y-124552000D03*
D15*
X160279000Y-132102000D03*
%TD*%
D12*
%TO.C,S30*%
X169841500Y-185352000D03*
D13*
X169341500Y-189102000D03*
X164341500Y-191302000D03*
D14*
X164341500Y-185352000D03*
D13*
X159341500Y-189102000D03*
D12*
X158841500Y-185352000D03*
D15*
X167616500Y-191302000D03*
D16*
X164341500Y-179452000D03*
X169341500Y-181552000D03*
X159341500Y-181552000D03*
D15*
X156066500Y-189102000D03*
%TD*%
M02*
