%TF.GenerationSoftware,KiCad,Pcbnew,8.0.4*%
%TF.CreationDate,2024-11-21T00:39:55-07:00*%
%TF.ProjectId,simple_split_MX,73696d70-6c65-45f7-9370-6c69745f4d58,v1.0.0*%
%TF.SameCoordinates,Original*%
%TF.FileFunction,Copper,L2,Bot*%
%TF.FilePolarity,Positive*%
%FSLAX46Y46*%
G04 Gerber Fmt 4.6, Leading zero omitted, Abs format (unit mm)*
G04 Created by KiCad (PCBNEW 8.0.4) date 2024-11-21 00:39:55*
%MOMM*%
%LPD*%
G01*
G04 APERTURE LIST*
G04 Aperture macros list*
%AMRoundRect*
0 Rectangle with rounded corners*
0 $1 Rounding radius*
0 $2 $3 $4 $5 $6 $7 $8 $9 X,Y pos of 4 corners*
0 Add a 4 corners polygon primitive as box body*
4,1,4,$2,$3,$4,$5,$6,$7,$8,$9,$2,$3,0*
0 Add four circle primitives for the rounded corners*
1,1,$1+$1,$2,$3*
1,1,$1+$1,$4,$5*
1,1,$1+$1,$6,$7*
1,1,$1+$1,$8,$9*
0 Add four rect primitives between the rounded corners*
20,1,$1+$1,$2,$3,$4,$5,0*
20,1,$1+$1,$4,$5,$6,$7,0*
20,1,$1+$1,$6,$7,$8,$9,0*
20,1,$1+$1,$8,$9,$2,$3,0*%
%AMFreePoly0*
4,1,7,0.700000,0.000000,1.200000,-0.750000,-1.200000,-0.750000,-0.700000,0.000000,-1.200000,0.750000,1.200000,0.750000,0.700000,0.000000,0.700000,0.000000,$1*%
%AMFreePoly1*
4,1,6,1.000000,0.000000,0.500000,-0.750000,-0.500000,-0.750000,-0.500000,0.750000,0.500000,0.750000,1.000000,0.000000,1.000000,0.000000,$1*%
G04 Aperture macros list end*
%TA.AperFunction,SMDPad,CuDef*%
%ADD10R,2.550000X2.500000*%
%TD*%
%TA.AperFunction,ComponentPad*%
%ADD11C,1.400000*%
%TD*%
%TA.AperFunction,ComponentPad*%
%ADD12O,1.400000X1.400000*%
%TD*%
%TA.AperFunction,ComponentPad*%
%ADD13C,0.800000*%
%TD*%
%TA.AperFunction,SMDPad,CuDef*%
%ADD14R,0.900000X1.200000*%
%TD*%
%TA.AperFunction,ComponentPad*%
%ADD15RoundRect,0.250000X-0.750000X0.600000X-0.750000X-0.600000X0.750000X-0.600000X0.750000X0.600000X0*%
%TD*%
%TA.AperFunction,ComponentPad*%
%ADD16O,2.000000X1.700000*%
%TD*%
%TA.AperFunction,ComponentPad*%
%ADD17R,2.000000X2.000000*%
%TD*%
%TA.AperFunction,ComponentPad*%
%ADD18C,2.000000*%
%TD*%
%TA.AperFunction,ComponentPad*%
%ADD19R,1.778000X1.524000*%
%TD*%
%TA.AperFunction,ComponentPad*%
%ADD20C,1.778000*%
%TD*%
%TA.AperFunction,ComponentPad*%
%ADD21O,3.500000X2.200000*%
%TD*%
%TA.AperFunction,ComponentPad*%
%ADD22R,2.500000X1.500000*%
%TD*%
%TA.AperFunction,ComponentPad*%
%ADD23O,2.500000X1.500000*%
%TD*%
%TA.AperFunction,ComponentPad*%
%ADD24O,1.800000X2.800000*%
%TD*%
%TA.AperFunction,ComponentPad*%
%ADD25R,2.000000X3.200000*%
%TD*%
%TA.AperFunction,SMDPad,CuDef*%
%ADD26FreePoly0,180.000000*%
%TD*%
%TA.AperFunction,SMDPad,CuDef*%
%ADD27FreePoly1,180.000000*%
%TD*%
%TA.AperFunction,SMDPad,CuDef*%
%ADD28FreePoly1,0.000000*%
%TD*%
%TA.AperFunction,ViaPad*%
%ADD29C,0.800000*%
%TD*%
%TA.AperFunction,Conductor*%
%ADD30C,0.250000*%
%TD*%
%TA.AperFunction,Conductor*%
%ADD31C,0.200000*%
%TD*%
G04 APERTURE END LIST*
D10*
%TO.P,S33,1,A*%
%TO.N,/F*%
X246617500Y-114432000D03*
%TO.P,S33,2,B*%
%TO.N,Net-(D33-A)*%
X260467500Y-111892000D03*
%TD*%
D11*
%TO.P,R3,1*%
%TO.N,/Rotary_A*%
X267260000Y-114644000D03*
D12*
%TO.P,R3,2*%
%TO.N,/VCC*%
X267260000Y-107024000D03*
%TD*%
D13*
%TO.P,D26,1,K*%
%TO.N,/4*%
X236652000Y-175858000D03*
D14*
X236652000Y-175858000D03*
D13*
%TO.P,D26,2,A*%
%TO.N,Net-(D26-A)*%
X233352000Y-175858000D03*
D14*
X233352000Y-175858000D03*
%TD*%
D13*
%TO.P,D24,1,K*%
%TO.N,/4*%
X199896000Y-176276000D03*
D14*
X199896000Y-176276000D03*
D13*
%TO.P,D24,2,A*%
%TO.N,Net-(D24-A)*%
X196596000Y-176276000D03*
D14*
X196596000Y-176276000D03*
%TD*%
D10*
%TO.P,S31,1,A*%
%TO.N,/C*%
X182435500Y-190432000D03*
%TO.P,S31,2,B*%
%TO.N,Net-(D31-A)*%
X196285500Y-187892000D03*
%TD*%
%TO.P,S8,1,A*%
%TO.N,/A*%
X118880000Y-133432000D03*
%TO.P,S8,2,B*%
%TO.N,Net-(D8-A)*%
X132730000Y-130892000D03*
%TD*%
D13*
%TO.P,D6,1,K*%
%TO.N,/1*%
X226746000Y-118708000D03*
D14*
X226746000Y-118708000D03*
D13*
%TO.P,D6,2,A*%
%TO.N,Net-(D6-A)*%
X223446000Y-118708000D03*
D14*
X223446000Y-118708000D03*
%TD*%
D13*
%TO.P,D33,1,K*%
%TO.N,/5*%
X260349000Y-117348000D03*
D14*
X260349000Y-117348000D03*
D13*
%TO.P,D33,2,A*%
%TO.N,Net-(D33-A)*%
X257049000Y-117348000D03*
D14*
X257049000Y-117348000D03*
%TD*%
D13*
%TO.P,D9,1,K*%
%TO.N,/2*%
X161214000Y-138012000D03*
D14*
X161214000Y-138012000D03*
D13*
%TO.P,D9,2,A*%
%TO.N,Net-(D9-A)*%
X157914000Y-138012000D03*
D14*
X157914000Y-138012000D03*
%TD*%
D13*
%TO.P,D16,1,K*%
%TO.N,/3*%
X170358000Y-156300000D03*
D14*
X170358000Y-156300000D03*
D13*
%TO.P,D16,2,A*%
%TO.N,Net-(D16-A)*%
X167058000Y-156300000D03*
D14*
X167058000Y-156300000D03*
%TD*%
D13*
%TO.P,D10,1,K*%
%TO.N,/2*%
X179502000Y-137758000D03*
D14*
X179502000Y-137758000D03*
D13*
%TO.P,D10,2,A*%
%TO.N,Net-(D10-A)*%
X176202000Y-137758000D03*
D14*
X176202000Y-137758000D03*
%TD*%
D10*
%TO.P,S20,1,A*%
%TO.N,/F*%
X228789000Y-152432000D03*
%TO.P,S20,2,B*%
%TO.N,Net-(D20-A)*%
X242639000Y-149892000D03*
%TD*%
%TO.P,S11,1,A*%
%TO.N,/D*%
X181264000Y-133432000D03*
%TO.P,S11,2,B*%
%TO.N,Net-(D11-A)*%
X195114000Y-130892000D03*
%TD*%
D15*
%TO.P,J2,1,Pin_1*%
%TO.N,Net-(J2-Pin_1)*%
X280475500Y-189848000D03*
D16*
%TO.P,J2,2,Pin_2*%
%TO.N,/Bat-*%
X280475500Y-192348000D03*
%TD*%
D13*
%TO.P,D23,1,K*%
%TO.N,/4*%
X179958000Y-176276000D03*
D14*
X179958000Y-176276000D03*
D13*
%TO.P,D23,2,A*%
%TO.N,Net-(D23-A)*%
X176658000Y-176276000D03*
D14*
X176658000Y-176276000D03*
%TD*%
D13*
%TO.P,D7,1,K*%
%TO.N,/1*%
X248082000Y-117946000D03*
D14*
X248082000Y-117946000D03*
D13*
%TO.P,D7,2,A*%
%TO.N,Net-(D7-A)*%
X244782000Y-117946000D03*
D14*
X244782000Y-117946000D03*
%TD*%
D10*
%TO.P,S6,1,A*%
%TO.N,/F*%
X208617500Y-114432000D03*
%TO.P,S6,2,B*%
%TO.N,Net-(D6-A)*%
X222467500Y-111892000D03*
%TD*%
%TO.P,F3,1,A*%
%TO.N,/C*%
X170617500Y-95880000D03*
%TO.P,F3,2,B*%
%TO.N,Net-(D37-A)*%
X184467500Y-93340000D03*
%TD*%
D17*
%TO.P,U2,1,GND*%
%TO.N,/Bat-*%
X267260000Y-185256000D03*
D18*
%TO.P,U2,2,VCC*%
%TO.N,/VCC*%
X269800000Y-185256000D03*
%TO.P,U2,3,SCL*%
%TO.N,/SCL*%
X272340000Y-185256000D03*
%TO.P,U2,4,SDA*%
%TO.N,/SDA*%
X274880000Y-185256000D03*
%TD*%
D10*
%TO.P,F1,1,A*%
%TO.N,/A*%
X132617500Y-95880000D03*
%TO.P,F1,2,B*%
%TO.N,Net-(D34-A)*%
X146467500Y-93340000D03*
%TD*%
%TO.P,S35,1,A*%
%TO.N,/G*%
X113617500Y-95880000D03*
%TO.P,S35,2,B*%
%TO.N,Net-(D35-A)*%
X127467500Y-93340000D03*
%TD*%
%TO.P,S4,1,A*%
%TO.N,/D*%
X170617500Y-114432000D03*
%TO.P,S4,2,B*%
%TO.N,Net-(D4-A)*%
X184467500Y-111892000D03*
%TD*%
%TO.P,S3,1,A*%
%TO.N,/C*%
X151617500Y-114432000D03*
%TO.P,S3,2,B*%
%TO.N,Net-(D3-A)*%
X165467500Y-111892000D03*
%TD*%
%TO.P,Extra_Function_Key1,1,A*%
%TO.N,/G*%
X246617500Y-95880000D03*
%TO.P,Extra_Function_Key1,2,B*%
%TO.N,Net-(D41-A)*%
X260467500Y-93340000D03*
%TD*%
D13*
%TO.P,D37,1,K*%
%TO.N,/6*%
X187452000Y-101346000D03*
D14*
X187452000Y-101346000D03*
D13*
%TO.P,D37,2,A*%
%TO.N,Net-(D37-A)*%
X184152000Y-101346000D03*
D14*
X184152000Y-101346000D03*
%TD*%
D13*
%TO.P,D15,1,K*%
%TO.N,/3*%
X152000000Y-156808000D03*
D14*
X152000000Y-156808000D03*
D13*
%TO.P,D15,2,A*%
%TO.N,Net-(D15-A)*%
X148700000Y-156808000D03*
D14*
X148700000Y-156808000D03*
%TD*%
D13*
%TO.P,D39,1,K*%
%TO.N,/6*%
X225932000Y-100584000D03*
D14*
X225932000Y-100584000D03*
D13*
%TO.P,D39,2,A*%
%TO.N,Net-(D39-A)*%
X222632000Y-100584000D03*
D14*
X222632000Y-100584000D03*
%TD*%
D10*
%TO.P,F6,1,A*%
%TO.N,/F*%
X227617500Y-95880000D03*
%TO.P,F6,2,B*%
%TO.N,Net-(D40-A)*%
X241467500Y-93340000D03*
%TD*%
%TO.P,S5,1,A*%
%TO.N,/E*%
X189617500Y-114432000D03*
%TO.P,S5,2,B*%
%TO.N,Net-(D5-A)*%
X203467500Y-111892000D03*
%TD*%
D13*
%TO.P,D36,1,K*%
%TO.N,/6*%
X168782000Y-100076000D03*
D14*
X168782000Y-100076000D03*
D13*
%TO.P,D36,2,A*%
%TO.N,Net-(D36-A)*%
X165482000Y-100076000D03*
D14*
X165482000Y-100076000D03*
%TD*%
D13*
%TO.P,D4,1,K*%
%TO.N,/1*%
X189026000Y-118454000D03*
D14*
X189026000Y-118454000D03*
D13*
%TO.P,D4,2,A*%
%TO.N,Net-(D4-A)*%
X185726000Y-118454000D03*
D14*
X185726000Y-118454000D03*
%TD*%
D13*
%TO.P,D5,1,K*%
%TO.N,/1*%
X207568000Y-118962000D03*
D14*
X207568000Y-118962000D03*
D13*
%TO.P,D5,2,A*%
%TO.N,Net-(D5-A)*%
X204268000Y-118962000D03*
D14*
X204268000Y-118962000D03*
%TD*%
D10*
%TO.P,S25,1,A*%
%TO.N,/D*%
X200314000Y-171432000D03*
%TO.P,S25,2,B*%
%TO.N,Net-(D25-A)*%
X214164000Y-168892000D03*
%TD*%
%TO.P,S7,1,A*%
%TO.N,/G*%
X227617500Y-114432000D03*
%TO.P,S7,2,B*%
%TO.N,Net-(D7-A)*%
X241467500Y-111892000D03*
%TD*%
%TO.P,S1,1,A*%
%TO.N,/A*%
X113617500Y-114432000D03*
%TO.P,S1,2,B*%
%TO.N,Net-(D1-A)*%
X127467500Y-111892000D03*
%TD*%
D13*
%TO.P,D30,1,K*%
%TO.N,/5*%
X177926000Y-194564000D03*
D14*
X177926000Y-194564000D03*
D13*
%TO.P,D30,2,A*%
%TO.N,Net-(D30-A)*%
X174626000Y-194564000D03*
D14*
X174626000Y-194564000D03*
%TD*%
D13*
%TO.P,D38,1,K*%
%TO.N,/6*%
X206756000Y-100584000D03*
D14*
X206756000Y-100584000D03*
D13*
%TO.P,D38,2,A*%
%TO.N,Net-(D38-A)*%
X203456000Y-100584000D03*
D14*
X203456000Y-100584000D03*
%TD*%
D10*
%TO.P,F2,1,A*%
%TO.N,/B*%
X151617500Y-95880000D03*
%TO.P,F2,2,B*%
%TO.N,Net-(D36-A)*%
X165467500Y-93340000D03*
%TD*%
D13*
%TO.P,D28,1,K*%
%TO.N,/4*%
X270688000Y-176366000D03*
D14*
X270688000Y-176366000D03*
D13*
%TO.P,D28,2,A*%
%TO.N,Net-(D28-A)*%
X267388000Y-176366000D03*
D14*
X267388000Y-176366000D03*
%TD*%
D10*
%TO.P,S12,1,A*%
%TO.N,/E*%
X200264000Y-133432000D03*
%TO.P,S12,2,B*%
%TO.N,Net-(D12-A)*%
X214114000Y-130892000D03*
%TD*%
%TO.P,S24,1,A*%
%TO.N,/C*%
X181314000Y-171432000D03*
%TO.P,S24,2,B*%
%TO.N,Net-(D24-A)*%
X195164000Y-168892000D03*
%TD*%
D13*
%TO.P,D12,1,K*%
%TO.N,/2*%
X218490000Y-138012000D03*
D14*
X218490000Y-138012000D03*
D13*
%TO.P,D12,2,A*%
%TO.N,Net-(D12-A)*%
X215190000Y-138012000D03*
D14*
X215190000Y-138012000D03*
%TD*%
D19*
%TO.P,U1,0,Bat-*%
%TO.N,Net-(GND2-COM)*%
X273356000Y-103595000D03*
D20*
%TO.P,U1,1,Txd*%
%TO.N,Net-(TXD2-COM)*%
X273356000Y-106135000D03*
%TO.P,U1,2,RXI*%
%TO.N,Net-(RXI2-COM)*%
X273356000Y-108675000D03*
%TO.P,U1,3,GND*%
%TO.N,unconnected-(U1-GND-Pad3)*%
X273356000Y-111215000D03*
%TO.P,U1,4,GND*%
%TO.N,Net-(GND1-COM)*%
X273356000Y-113755000D03*
%TO.P,U1,5,2*%
%TO.N,/F*%
X273356000Y-116295000D03*
%TO.P,U1,6,3*%
%TO.N,/E*%
X273356000Y-118835000D03*
%TO.P,U1,7,4*%
%TO.N,/D*%
X273356000Y-121375000D03*
%TO.P,U1,8,5*%
%TO.N,/C*%
X273356000Y-123915000D03*
%TO.P,U1,9,6*%
%TO.N,Net-(SDA1-COM)*%
X273356000Y-126455000D03*
%TO.P,U1,10,7*%
%TO.N,Net-(SCL1-COM)*%
X273356000Y-128995000D03*
%TO.P,U1,11,8*%
%TO.N,/B*%
X273356000Y-131535000D03*
%TO.P,U1,12,9*%
%TO.N,/A*%
X273356000Y-134075000D03*
%TO.P,U1,13,10*%
%TO.N,/5*%
X288596000Y-134075000D03*
%TO.P,U1,14,16*%
%TO.N,/4*%
X288596000Y-131535000D03*
%TO.P,U1,15,14*%
%TO.N,Net-(P3-COM)*%
X288596000Y-128995000D03*
%TO.P,U1,16,15*%
%TO.N,Net-(P2-COM)*%
X288596000Y-126455000D03*
%TO.P,U1,17,A0*%
%TO.N,/1*%
X288596000Y-123915000D03*
%TO.P,U1,18,A1*%
%TO.N,/Rotary_A*%
X288596000Y-121375000D03*
%TO.P,U1,19,A2*%
%TO.N,/Rotary_B*%
X288596000Y-118835000D03*
%TO.P,U1,20,A3*%
%TO.N,/G*%
X288596000Y-116295000D03*
%TO.P,U1,21,VCC*%
%TO.N,Net-(U1-VCC)*%
X288596000Y-113755000D03*
%TO.P,U1,22,RST*%
%TO.N,unconnected-(U1-RST-Pad22)*%
X288596000Y-111215000D03*
%TO.P,U1,23,GND*%
%TO.N,Net-(RXI1-COM)*%
X288596000Y-108675000D03*
%TO.P,U1,24,Vin*%
%TO.N,Net-(TXD1-COM)*%
X288596000Y-106135000D03*
%TO.P,U1,25,Bat+*%
%TO.N,Net-(Bat+1-COM)*%
X288596000Y-103595000D03*
%TD*%
D13*
%TO.P,D17,1,K*%
%TO.N,/3*%
X190424000Y-157062000D03*
D14*
X190424000Y-157062000D03*
D13*
%TO.P,D17,2,A*%
%TO.N,Net-(D17-A)*%
X187124000Y-157062000D03*
D14*
X187124000Y-157062000D03*
%TD*%
D13*
%TO.P,D34,1,K*%
%TO.N,/6*%
X149860000Y-99314000D03*
D14*
X149860000Y-99314000D03*
D13*
%TO.P,D34,2,A*%
%TO.N,Net-(D34-A)*%
X146560000Y-99314000D03*
D14*
X146560000Y-99314000D03*
%TD*%
D13*
%TO.P,D14,1,K*%
%TO.N,/2*%
X255396000Y-136779000D03*
D14*
X255396000Y-136779000D03*
D13*
%TO.P,D14,2,A*%
%TO.N,Net-(D14-A)*%
X252096000Y-136779000D03*
D14*
X252096000Y-136779000D03*
%TD*%
D13*
%TO.P,D20,1,K*%
%TO.N,/3*%
X246252000Y-157480000D03*
D14*
X246252000Y-157480000D03*
D13*
%TO.P,D20,2,A*%
%TO.N,Net-(D20-A)*%
X242952000Y-157480000D03*
D14*
X242952000Y-157480000D03*
%TD*%
D13*
%TO.P,D25,1,K*%
%TO.N,/4*%
X217550000Y-174752000D03*
D14*
X217550000Y-174752000D03*
D13*
%TO.P,D25,2,A*%
%TO.N,Net-(D25-A)*%
X214250000Y-174752000D03*
D14*
X214250000Y-174752000D03*
%TD*%
D13*
%TO.P,D22,1,K*%
%TO.N,/4*%
X155448000Y-173482000D03*
D14*
X155448000Y-173482000D03*
D13*
%TO.P,D22,2,A*%
%TO.N,Net-(D22-A)*%
X152148000Y-173482000D03*
D14*
X152148000Y-173482000D03*
%TD*%
D10*
%TO.P,S2,1,A*%
%TO.N,/B*%
X132617500Y-114432000D03*
%TO.P,S2,2,B*%
%TO.N,Net-(D2-A)*%
X146467500Y-111892000D03*
%TD*%
D13*
%TO.P,D3,1,K*%
%TO.N,/1*%
X169850000Y-119216000D03*
D14*
X169850000Y-119216000D03*
D13*
%TO.P,D3,2,A*%
%TO.N,Net-(D3-A)*%
X166550000Y-119216000D03*
D14*
X166550000Y-119216000D03*
%TD*%
D10*
%TO.P,S16,1,A*%
%TO.N,/B*%
X152789000Y-152432000D03*
%TO.P,S16,2,B*%
%TO.N,Net-(D16-A)*%
X166639000Y-149892000D03*
%TD*%
%TO.P,S21,1,A*%
%TO.N,/G*%
X247789000Y-152432000D03*
%TO.P,S21,2,B*%
%TO.N,Net-(D21-A)*%
X261639000Y-149892000D03*
%TD*%
%TO.P,S26,1,A*%
%TO.N,/E*%
X219314000Y-171432000D03*
%TO.P,S26,2,B*%
%TO.N,Net-(D26-A)*%
X233164000Y-168892000D03*
%TD*%
D13*
%TO.P,D21,1,K*%
%TO.N,/3*%
X264084000Y-157316000D03*
D14*
X264084000Y-157316000D03*
D13*
%TO.P,D21,2,A*%
%TO.N,Net-(D21-A)*%
X260784000Y-157316000D03*
D14*
X260784000Y-157316000D03*
%TD*%
D10*
%TO.P,S17,1,A*%
%TO.N,/C*%
X171789000Y-152432000D03*
%TO.P,S17,2,B*%
%TO.N,Net-(D17-A)*%
X185639000Y-149892000D03*
%TD*%
%TO.P,S18,1,A*%
%TO.N,/D*%
X190789000Y-152432000D03*
%TO.P,S18,2,B*%
%TO.N,Net-(D18-A)*%
X204639000Y-149892000D03*
%TD*%
D13*
%TO.P,D35,1,K*%
%TO.N,/5*%
X130174000Y-100838000D03*
D14*
X130174000Y-100838000D03*
D13*
%TO.P,D35,2,A*%
%TO.N,Net-(D35-A)*%
X126874000Y-100838000D03*
D14*
X126874000Y-100838000D03*
%TD*%
D10*
%TO.P,S32,1,A*%
%TO.N,/D*%
X220985500Y-190432000D03*
%TO.P,S32,2,B*%
%TO.N,Net-(D32-A)*%
X234835500Y-187892000D03*
%TD*%
%TO.P,S29,1,A*%
%TO.N,/A*%
X123642500Y-190432000D03*
%TO.P,S29,2,B*%
%TO.N,Net-(D29-A)*%
X137492500Y-187892000D03*
%TD*%
D13*
%TO.P,D31,1,K*%
%TO.N,/5*%
X203326000Y-180594000D03*
D14*
X203326000Y-180594000D03*
D13*
%TO.P,D31,2,A*%
%TO.N,Net-(D31-A)*%
X200026000Y-180594000D03*
D14*
X200026000Y-180594000D03*
%TD*%
D10*
%TO.P,S23,1,A*%
%TO.N,/B*%
X162314000Y-171432000D03*
%TO.P,S23,2,B*%
%TO.N,Net-(D23-A)*%
X176164000Y-168892000D03*
%TD*%
D13*
%TO.P,D11,1,K*%
%TO.N,/2*%
X199186000Y-138012000D03*
D14*
X199186000Y-138012000D03*
D13*
%TO.P,D11,2,A*%
%TO.N,Net-(D11-A)*%
X195886000Y-138012000D03*
D14*
X195886000Y-138012000D03*
%TD*%
D13*
%TO.P,D40,1,K*%
%TO.N,/6*%
X248284000Y-100330000D03*
D14*
X248284000Y-100330000D03*
D13*
%TO.P,D40,2,A*%
%TO.N,Net-(D40-A)*%
X244984000Y-100330000D03*
D14*
X244984000Y-100330000D03*
%TD*%
D10*
%TO.P,F5,1,A*%
%TO.N,/E*%
X208617500Y-95880000D03*
%TO.P,F5,2,B*%
%TO.N,Net-(D39-A)*%
X222467500Y-93340000D03*
%TD*%
%TO.P,S14,1,A*%
%TO.N,/G*%
X238264000Y-133432000D03*
%TO.P,S14,2,B*%
%TO.N,Net-(D14-A)*%
X252114000Y-130892000D03*
%TD*%
D13*
%TO.P,D32,1,K*%
%TO.N,/5*%
X241172000Y-182880000D03*
D14*
X241172000Y-182880000D03*
D13*
%TO.P,D32,2,A*%
%TO.N,Net-(D32-A)*%
X237872000Y-182880000D03*
D14*
X237872000Y-182880000D03*
%TD*%
D21*
%TO.P,SW1,*%
%TO.N,*%
X288628000Y-179196000D03*
X288628000Y-170996000D03*
D22*
%TO.P,SW1,1,B*%
%TO.N,Net-(J2-Pin_1)*%
X288628000Y-177096000D03*
D23*
%TO.P,SW1,2,C*%
%TO.N,/Bat+*%
X288628000Y-175096000D03*
%TO.P,SW1,3,A*%
%TO.N,unconnected-(SW1-A-Pad3)*%
X288628000Y-173096000D03*
%TD*%
D13*
%TO.P,D2,1,K*%
%TO.N,/1*%
X150546000Y-118962000D03*
D14*
X150546000Y-118962000D03*
D13*
%TO.P,D2,2,A*%
%TO.N,Net-(D2-A)*%
X147246000Y-118962000D03*
D14*
X147246000Y-118962000D03*
%TD*%
D24*
%TO.P,J1,R*%
%TO.N,Net-(COM_SELECT1-COM)*%
X281194000Y-155724000D03*
X281194000Y-159724000D03*
%TO.P,J1,S*%
%TO.N,/Bat-*%
X289094000Y-157724000D03*
%TO.P,J1,T*%
%TO.N,/VCC*%
X286694000Y-155724000D03*
X286694000Y-159724000D03*
%TD*%
D13*
%TO.P,D27,1,K*%
%TO.N,/4*%
X255650000Y-175768000D03*
D14*
X255650000Y-175768000D03*
D13*
%TO.P,D27,2,A*%
%TO.N,Net-(D27-A)*%
X252350000Y-175768000D03*
D14*
X252350000Y-175768000D03*
%TD*%
D10*
%TO.P,S27,1,A*%
%TO.N,/F*%
X238314000Y-171432000D03*
%TO.P,S27,2,B*%
%TO.N,Net-(D27-A)*%
X252164000Y-168892000D03*
%TD*%
D17*
%TO.P,R1,A,A*%
%TO.N,/Rotary_A*%
X266204000Y-120856000D03*
D18*
%TO.P,R1,B,B*%
%TO.N,/Rotary_B*%
X261204000Y-120856000D03*
%TO.P,R1,C,C*%
%TO.N,/Bat-*%
X263704000Y-120856000D03*
D25*
%TO.P,R1,MP*%
%TO.N,N/C*%
X269304000Y-128356000D03*
X258104000Y-128356000D03*
D18*
%TO.P,R1,S1,S1*%
%TO.N,/5*%
X261204000Y-135356000D03*
%TO.P,R1,S2,S2*%
%TO.N,/E*%
X266204000Y-135356000D03*
%TD*%
D10*
%TO.P,S28,1,A*%
%TO.N,/G*%
X257314000Y-171432000D03*
%TO.P,S28,2,B*%
%TO.N,Net-(D28-A)*%
X271164000Y-168892000D03*
%TD*%
D13*
%TO.P,D29,1,K*%
%TO.N,/5*%
X152150000Y-190500000D03*
D14*
X152150000Y-190500000D03*
D13*
%TO.P,D29,2,A*%
%TO.N,Net-(D29-A)*%
X148850000Y-190500000D03*
D14*
X148850000Y-190500000D03*
%TD*%
D13*
%TO.P,D13,1,K*%
%TO.N,/2*%
X237032000Y-138012000D03*
D14*
X237032000Y-138012000D03*
D13*
%TO.P,D13,2,A*%
%TO.N,Net-(D13-A)*%
X233732000Y-138012000D03*
D14*
X233732000Y-138012000D03*
%TD*%
D10*
%TO.P,S15,1,A*%
%TO.N,/A*%
X123642500Y-152432000D03*
%TO.P,S15,2,B*%
%TO.N,Net-(D15-A)*%
X137492500Y-149892000D03*
%TD*%
%TO.P,S22,1,A*%
%TO.N,/A*%
X128405000Y-171432000D03*
%TO.P,S22,2,B*%
%TO.N,Net-(D22-A)*%
X142255000Y-168892000D03*
%TD*%
D13*
%TO.P,D19,1,K*%
%TO.N,/3*%
X227202000Y-156972000D03*
D14*
X227202000Y-156972000D03*
D13*
%TO.P,D19,2,A*%
%TO.N,Net-(D19-A)*%
X223902000Y-156972000D03*
D14*
X223902000Y-156972000D03*
%TD*%
D10*
%TO.P,S19,1,A*%
%TO.N,/E*%
X209789000Y-152432000D03*
%TO.P,S19,2,B*%
%TO.N,Net-(D19-A)*%
X223639000Y-149892000D03*
%TD*%
%TO.P,S9,1,A*%
%TO.N,/B*%
X143264000Y-133432000D03*
%TO.P,S9,2,B*%
%TO.N,Net-(D9-A)*%
X157114000Y-130892000D03*
%TD*%
%TO.P,F4,1,A*%
%TO.N,/D*%
X189617500Y-95880000D03*
%TO.P,F4,2,B*%
%TO.N,Net-(D38-A)*%
X203467500Y-93340000D03*
%TD*%
D13*
%TO.P,D18,1,K*%
%TO.N,/3*%
X208152000Y-157226000D03*
D14*
X208152000Y-157226000D03*
D13*
%TO.P,D18,2,A*%
%TO.N,Net-(D18-A)*%
X204852000Y-157226000D03*
D14*
X204852000Y-157226000D03*
%TD*%
D10*
%TO.P,S13,1,A*%
%TO.N,/F*%
X219264000Y-133432000D03*
%TO.P,S13,2,B*%
%TO.N,Net-(D13-A)*%
X233114000Y-130892000D03*
%TD*%
D13*
%TO.P,D1,1,K*%
%TO.N,/1*%
X131116000Y-118708000D03*
D14*
X131116000Y-118708000D03*
D13*
%TO.P,D1,2,A*%
%TO.N,Net-(D1-A)*%
X127816000Y-118708000D03*
D14*
X127816000Y-118708000D03*
%TD*%
D13*
%TO.P,D8,1,K*%
%TO.N,/2*%
X149224000Y-139192000D03*
D14*
X149224000Y-139192000D03*
D13*
%TO.P,D8,2,A*%
%TO.N,Net-(D8-A)*%
X145924000Y-139192000D03*
D14*
X145924000Y-139192000D03*
%TD*%
D13*
%TO.P,D41,1,K*%
%TO.N,/6*%
X262128000Y-100838000D03*
D14*
X262128000Y-100838000D03*
D13*
%TO.P,D41,2,A*%
%TO.N,Net-(D41-A)*%
X258828000Y-100838000D03*
D14*
X258828000Y-100838000D03*
%TD*%
D11*
%TO.P,R2,1*%
%TO.N,/VCC*%
X264974000Y-105500000D03*
D12*
%TO.P,R2,2*%
%TO.N,/Rotary_B*%
X264974000Y-113120000D03*
%TD*%
D10*
%TO.P,S10,1,A*%
%TO.N,/C*%
X162264000Y-133432000D03*
%TO.P,S10,2,B*%
%TO.N,Net-(D10-A)*%
X176114000Y-130892000D03*
%TD*%
%TO.P,S30,1,A*%
%TO.N,/B*%
X158051500Y-190432000D03*
%TO.P,S30,2,B*%
%TO.N,Net-(D30-A)*%
X171901500Y-187892000D03*
%TD*%
D26*
%TO.P,ExtraButtonsSelect1,1,COM*%
%TO.N,/6*%
X268510000Y-102000000D03*
D27*
%TO.P,ExtraButtonsSelect1,2,L*%
%TO.N,/TXD*%
X270510000Y-102000000D03*
D28*
%TO.P,ExtraButtonsSelect1,3,R*%
%TO.N,/RXI*%
X266510000Y-102000000D03*
%TD*%
D29*
%TO.N,Net-(D1-A)*%
X127548500Y-109352000D03*
%TO.N,Net-(D2-A)*%
X146344500Y-109352000D03*
%TO.N,Net-(D3-A)*%
X165394500Y-109485250D03*
%TO.N,Net-(D4-A)*%
X184444500Y-109352000D03*
%TO.N,Net-(D5-A)*%
X203494500Y-109352000D03*
%TO.N,Net-(D6-A)*%
X222290500Y-109352000D03*
%TO.N,Net-(D7-A)*%
X241340500Y-109352000D03*
%TO.N,Net-(D8-A)*%
X132628500Y-128402000D03*
%TO.N,Net-(D9-A)*%
X157266500Y-128402000D03*
%TO.N,Net-(D10-A)*%
X175808500Y-128535250D03*
%TO.N,Net-(D11-A)*%
X195112500Y-128402000D03*
%TO.N,Net-(D12-A)*%
X213908500Y-128402000D03*
%TO.N,Net-(D13-A)*%
X233212500Y-128148000D03*
%TO.N,Net-(D14-A)*%
X252262500Y-128402000D03*
%TO.N,Net-(D15-A)*%
X137454500Y-147452000D03*
%TO.N,Net-(D16-A)*%
X166664500Y-147452000D03*
%TO.N,Net-(D17-A)*%
X185460500Y-147198000D03*
%TO.N,Net-(D18-A)*%
X204510500Y-147706000D03*
%TO.N,Net-(D19-A)*%
X223814500Y-147452000D03*
%TO.N,Net-(D20-A)*%
X242610500Y-147452000D03*
%TO.N,Net-(D21-A)*%
X260898500Y-147452000D03*
%TO.N,Net-(D22-A)*%
X142280500Y-166502000D03*
%TO.N,Net-(D23-A)*%
X176062500Y-166502000D03*
%TO.N,Net-(D24-A)*%
X195112500Y-166502000D03*
%TO.N,Net-(D25-A)*%
X214162500Y-166248000D03*
%TO.N,Net-(D26-A)*%
X233212500Y-166502000D03*
%TO.N,Net-(D27-A)*%
X252262500Y-166248000D03*
%TO.N,Net-(D28-A)*%
X271312500Y-166502000D03*
%TO.N,Net-(D29-A)*%
X137454500Y-185298000D03*
%TO.N,Net-(D30-A)*%
X171998500Y-185298000D03*
%TO.N,Net-(D31-A)*%
X196128500Y-185298000D03*
%TO.N,Net-(D32-A)*%
X234736500Y-185552000D03*
%TO.N,/1*%
X262434000Y-127852000D03*
%TO.N,/2*%
X265990000Y-144744000D03*
X285548000Y-126328000D03*
%TO.N,/3*%
X282754000Y-130646000D03*
%TO.N,/E*%
X199191500Y-128071500D03*
X218495500Y-166171500D03*
X209097500Y-147121500D03*
X188777500Y-109021500D03*
X207827500Y-90225500D03*
%TO.N,/A*%
X269546000Y-122010000D03*
X270308000Y-116168000D03*
X260350000Y-98806000D03*
X116078000Y-118618000D03*
X127309500Y-166171500D03*
X125984000Y-157226000D03*
X126492000Y-176022000D03*
X122737500Y-147121500D03*
X268530000Y-124296000D03*
X117911500Y-128325500D03*
X131627500Y-90479500D03*
X122682000Y-185166000D03*
X112577500Y-109021500D03*
X120904000Y-137668000D03*
X260350000Y-103632000D03*
%TO.N,/B*%
X151947500Y-147121500D03*
X142549500Y-128071500D03*
X150677500Y-90733500D03*
X161345500Y-166171500D03*
X262434000Y-132678000D03*
X255016000Y-129540000D03*
X268276000Y-132678000D03*
X157281500Y-184967500D03*
X131627500Y-109021500D03*
%TO.N,/C*%
X150677500Y-109154750D03*
X169727500Y-90612750D03*
X170743500Y-146867500D03*
X271324000Y-130392000D03*
X161091500Y-128204750D03*
X181411500Y-184967500D03*
X265303000Y-155194000D03*
X180395500Y-166171500D03*
%TO.N,/D*%
X275896000Y-141568000D03*
X187452000Y-90424000D03*
X189793500Y-147375500D03*
X220019500Y-185221500D03*
X180395500Y-128071500D03*
X169727500Y-109021500D03*
X199445500Y-165917500D03*
%TO.N,/F*%
X207573500Y-109021500D03*
X226623500Y-90479500D03*
X223647000Y-140081000D03*
X237545500Y-165917500D03*
X218495500Y-127817500D03*
X227893500Y-147121500D03*
X245927500Y-109021500D03*
%TO.N,/G*%
X148082000Y-103632000D03*
X264466000Y-110580000D03*
X246181500Y-147121500D03*
X257862000Y-123534000D03*
X245673500Y-90479500D03*
X112831500Y-90733500D03*
X261620000Y-115697000D03*
X269038000Y-110580000D03*
X142748000Y-98933000D03*
X271500000Y-112541000D03*
X256595500Y-166171500D03*
X226623500Y-109021500D03*
X237545500Y-128071500D03*
%TO.N,/Bat+*%
X268530000Y-152236000D03*
X272340000Y-142076000D03*
X270816000Y-123026000D03*
X271578000Y-125820000D03*
X278840500Y-100659500D03*
X282000000Y-109500000D03*
%TO.N,/VCC*%
X278384000Y-146558000D03*
%TO.N,/TXD*%
X288342000Y-145886000D03*
X280976000Y-110580000D03*
%TO.N,/RXI*%
X286818000Y-145378000D03*
X278436000Y-110072000D03*
%TO.N,/Bat-*%
X278182000Y-140806000D03*
X290500000Y-102500000D03*
%TO.N,Net-(TXD2-COM)*%
X278944000Y-105754000D03*
%TO.N,Net-(D33-A)*%
X260644500Y-109352000D03*
%TO.N,/SDA*%
X282754000Y-146140000D03*
X286564000Y-135980000D03*
%TO.N,/SCL*%
X283770000Y-134710000D03*
X285548000Y-143600000D03*
%TO.N,Net-(P3-COM)*%
X283770000Y-129630000D03*
%TO.N,Net-(SCL1-COM)*%
X280214000Y-129630000D03*
%TO.N,Net-(SDA1-COM)*%
X276658000Y-125820000D03*
%TO.N,Net-(D35-A)*%
X127508000Y-90932000D03*
%TO.N,Net-(D34-A)*%
X146344500Y-90810000D03*
%TO.N,Net-(D36-A)*%
X165394500Y-91064000D03*
%TO.N,Net-(D37-A)*%
X184444500Y-90943250D03*
%TO.N,Net-(D38-A)*%
X203494500Y-90556000D03*
%TO.N,Net-(D39-A)*%
X222544500Y-90556000D03*
%TO.N,Net-(D40-A)*%
X241340500Y-90810000D03*
%TO.N,Net-(D41-A)*%
X260390500Y-90810000D03*
%TD*%
D30*
%TO.N,Net-(D1-A)*%
X127467500Y-111892000D02*
X127467500Y-118359500D01*
X127467500Y-118359500D02*
X127816000Y-118708000D01*
X127508000Y-109392500D02*
X127548500Y-109352000D01*
X127508000Y-111760000D02*
X127508000Y-109392500D01*
%TO.N,Net-(D2-A)*%
X146304000Y-109392500D02*
X146344500Y-109352000D01*
X146467500Y-118183500D02*
X147246000Y-118962000D01*
X146467500Y-111892000D02*
X146467500Y-118183500D01*
X146304000Y-111760000D02*
X146304000Y-109392500D01*
%TO.N,Net-(D3-A)*%
X165354000Y-109525750D02*
X165394500Y-109485250D01*
X165354000Y-111893250D02*
X165354000Y-109525750D01*
X165467500Y-118133500D02*
X166550000Y-119216000D01*
X165467500Y-111892000D02*
X165467500Y-118133500D01*
%TO.N,Net-(D4-A)*%
X184467500Y-117195500D02*
X185726000Y-118454000D01*
X184404000Y-111760000D02*
X184404000Y-109392500D01*
X184467500Y-111892000D02*
X184467500Y-117195500D01*
X184404000Y-109392500D02*
X184444500Y-109352000D01*
%TO.N,Net-(D5-A)*%
X203467500Y-111892000D02*
X203467500Y-118161500D01*
X203454000Y-109392500D02*
X203494500Y-109352000D01*
X203467500Y-118161500D02*
X204268000Y-118962000D01*
X203454000Y-111760000D02*
X203454000Y-109392500D01*
%TO.N,Net-(D6-A)*%
X222250000Y-111760000D02*
X222250000Y-109392500D01*
X222467500Y-117729500D02*
X223446000Y-118708000D01*
X222250000Y-109392500D02*
X222290500Y-109352000D01*
X222467500Y-111892000D02*
X222467500Y-117729500D01*
%TO.N,Net-(D7-A)*%
X241300000Y-111760000D02*
X241300000Y-109392500D01*
X241300000Y-109392500D02*
X241340500Y-109352000D01*
X241467500Y-111892000D02*
X241467500Y-114631500D01*
X241467500Y-114631500D02*
X244782000Y-117946000D01*
%TO.N,Net-(D8-A)*%
X144526000Y-139192000D02*
X145924000Y-139192000D01*
X136226000Y-130892000D02*
X144526000Y-139192000D01*
X132730000Y-130892000D02*
X136226000Y-130892000D01*
X132588000Y-130810000D02*
X132588000Y-128442500D01*
X132588000Y-128442500D02*
X132628500Y-128402000D01*
%TO.N,Net-(D9-A)*%
X157114000Y-130892000D02*
X157114000Y-137212000D01*
X157226000Y-130810000D02*
X157226000Y-128442500D01*
X157226000Y-128442500D02*
X157266500Y-128402000D01*
X157114000Y-137212000D02*
X157914000Y-138012000D01*
%TO.N,Net-(D10-A)*%
X175768000Y-130943250D02*
X175768000Y-128575750D01*
X175768000Y-128575750D02*
X175808500Y-128535250D01*
X176114000Y-130892000D02*
X176114000Y-137670000D01*
X176114000Y-137670000D02*
X176202000Y-137758000D01*
%TO.N,Net-(D11-A)*%
X195072000Y-130810000D02*
X195072000Y-128442500D01*
X195114000Y-137240000D02*
X195886000Y-138012000D01*
X195072000Y-128442500D02*
X195112500Y-128402000D01*
X195114000Y-130892000D02*
X195114000Y-137240000D01*
%TO.N,Net-(D12-A)*%
X214114000Y-136936000D02*
X215190000Y-138012000D01*
X213868000Y-130810000D02*
X213868000Y-128442500D01*
X213868000Y-128442500D02*
X213908500Y-128402000D01*
X214114000Y-130892000D02*
X214114000Y-136936000D01*
%TO.N,Net-(D13-A)*%
X233172000Y-128188500D02*
X233212500Y-128148000D01*
X233172000Y-130556000D02*
X233172000Y-128188500D01*
X233114000Y-130892000D02*
X233114000Y-137394000D01*
X233114000Y-137394000D02*
X233732000Y-138012000D01*
%TO.N,Net-(D14-A)*%
X252222000Y-130810000D02*
X252222000Y-128442500D01*
X252096000Y-130910000D02*
X252096000Y-135763000D01*
X252222000Y-128442500D02*
X252262500Y-128402000D01*
X252114000Y-135781000D02*
X252096000Y-135799000D01*
X252096000Y-135763000D02*
X252114000Y-135781000D01*
X252096000Y-135799000D02*
X252096000Y-136779000D01*
X252114000Y-130892000D02*
X252096000Y-130910000D01*
%TO.N,Net-(D15-A)*%
X140494000Y-149892000D02*
X147410000Y-156808000D01*
X137414000Y-147492500D02*
X137454500Y-147452000D01*
X137492500Y-149892000D02*
X140494000Y-149892000D01*
X137414000Y-149860000D02*
X137414000Y-147492500D01*
X147410000Y-156808000D02*
X148700000Y-156808000D01*
%TO.N,Net-(D16-A)*%
X166624000Y-147492500D02*
X166664500Y-147452000D01*
X166624000Y-149860000D02*
X166624000Y-147492500D01*
X166639000Y-149892000D02*
X166639000Y-155881000D01*
X166639000Y-155881000D02*
X167058000Y-156300000D01*
%TO.N,Net-(D17-A)*%
X185639000Y-149892000D02*
X185639000Y-155577000D01*
X185420000Y-149606000D02*
X185420000Y-147238500D01*
X185420000Y-147238500D02*
X185460500Y-147198000D01*
X185639000Y-155577000D02*
X187124000Y-157062000D01*
%TO.N,Net-(D18-A)*%
X204470000Y-150114000D02*
X204470000Y-147746500D01*
X204470000Y-147746500D02*
X204510500Y-147706000D01*
X204639000Y-149892000D02*
X204639000Y-157013000D01*
X204639000Y-157013000D02*
X204852000Y-157226000D01*
%TO.N,Net-(D19-A)*%
X223639000Y-156709000D02*
X223902000Y-156972000D01*
X223774000Y-147492500D02*
X223814500Y-147452000D01*
X223639000Y-149892000D02*
X223639000Y-156709000D01*
X223774000Y-149860000D02*
X223774000Y-147492500D01*
%TO.N,Net-(D20-A)*%
X242570000Y-149860000D02*
X242570000Y-147492500D01*
X242570000Y-147492500D02*
X242610500Y-147452000D01*
X242639000Y-157167000D02*
X242952000Y-157480000D01*
X242639000Y-149892000D02*
X242639000Y-157167000D01*
%TO.N,Net-(D21-A)*%
X261639000Y-149892000D02*
X261639000Y-156461000D01*
X260858000Y-147492500D02*
X260898500Y-147452000D01*
X261639000Y-156461000D02*
X260784000Y-157316000D01*
X260858000Y-149860000D02*
X260858000Y-147492500D01*
%TO.N,Net-(D22-A)*%
X142240000Y-166542500D02*
X142280500Y-166502000D01*
X142240000Y-168910000D02*
X142240000Y-166542500D01*
X147558000Y-168892000D02*
X152148000Y-173482000D01*
X142255000Y-168892000D02*
X147558000Y-168892000D01*
%TO.N,Net-(D23-A)*%
X176164000Y-168892000D02*
X176164000Y-175782000D01*
X176022000Y-166542500D02*
X176062500Y-166502000D01*
X176164000Y-175782000D02*
X176658000Y-176276000D01*
X176022000Y-168910000D02*
X176022000Y-166542500D01*
%TO.N,Net-(D24-A)*%
X195164000Y-168892000D02*
X195164000Y-174844000D01*
X195072000Y-166542500D02*
X195112500Y-166502000D01*
X195072000Y-168910000D02*
X195072000Y-166542500D01*
X195164000Y-174844000D02*
X196596000Y-176276000D01*
%TO.N,Net-(D25-A)*%
X214122000Y-166288500D02*
X214162500Y-166248000D01*
X214164000Y-168892000D02*
X214164000Y-174838000D01*
X214122000Y-168656000D02*
X214122000Y-166288500D01*
%TO.N,Net-(D26-A)*%
X233172000Y-166542500D02*
X233212500Y-166502000D01*
X233164000Y-168892000D02*
X233164000Y-175670000D01*
X233172000Y-168910000D02*
X233172000Y-166542500D01*
X233164000Y-175670000D02*
X233352000Y-175858000D01*
%TO.N,Net-(D27-A)*%
X252222000Y-166288500D02*
X252262500Y-166248000D01*
X252164000Y-168892000D02*
X252164000Y-175582000D01*
X252222000Y-168656000D02*
X252222000Y-166288500D01*
X252164000Y-175582000D02*
X252350000Y-175768000D01*
%TO.N,Net-(D28-A)*%
X271164000Y-172590000D02*
X267388000Y-176366000D01*
X271272000Y-168910000D02*
X271272000Y-166542500D01*
X271272000Y-166542500D02*
X271312500Y-166502000D01*
X271164000Y-168892000D02*
X271164000Y-172590000D01*
%TO.N,Net-(D29-A)*%
X139378000Y-187892000D02*
X141986000Y-190500000D01*
X137414000Y-185338500D02*
X137454500Y-185298000D01*
X137492500Y-187892000D02*
X139378000Y-187892000D01*
X141986000Y-190500000D02*
X148850000Y-190500000D01*
X137414000Y-187706000D02*
X137414000Y-185338500D01*
%TO.N,Net-(D30-A)*%
X171901500Y-187892000D02*
X171901500Y-191839500D01*
X171958000Y-185338500D02*
X171998500Y-185298000D01*
X171901500Y-191839500D02*
X174626000Y-194564000D01*
X171958000Y-187706000D02*
X171958000Y-185338500D01*
%TO.N,Net-(D31-A)*%
X196128500Y-185298000D02*
X196128500Y-184491500D01*
X196128500Y-184491500D02*
X200026000Y-180594000D01*
X196088000Y-187706000D02*
X196088000Y-185338500D01*
X196088000Y-185338500D02*
X196128500Y-185298000D01*
%TO.N,Net-(D32-A)*%
X234696000Y-187960000D02*
X234696000Y-185592500D01*
X234736500Y-185552000D02*
X235200000Y-185552000D01*
X234696000Y-185592500D02*
X234736500Y-185552000D01*
X235200000Y-185552000D02*
X237872000Y-182880000D01*
%TO.N,/1*%
X282063000Y-127781000D02*
X271253000Y-127781000D01*
X205880000Y-120650000D02*
X207568000Y-118962000D01*
X241300000Y-117856000D02*
X243586000Y-120142000D01*
X146050000Y-120650000D02*
X148858000Y-120650000D01*
X169850000Y-119216000D02*
X183986000Y-119216000D01*
X226746000Y-118708000D02*
X227598000Y-117856000D01*
X187084000Y-120396000D02*
X189026000Y-118454000D01*
X203708000Y-120650000D02*
X205880000Y-120650000D01*
X185166000Y-120396000D02*
X187084000Y-120396000D01*
X246126000Y-119888000D02*
X246140000Y-119888000D01*
X148858000Y-120650000D02*
X150546000Y-118962000D01*
X224804000Y-120650000D02*
X226746000Y-118708000D01*
X201512000Y-118454000D02*
X203708000Y-120650000D01*
X271070000Y-127598000D02*
X271070000Y-126582000D01*
X221578000Y-118962000D02*
X223266000Y-120650000D01*
X131116000Y-118708000D02*
X144108000Y-118708000D01*
X285929000Y-123915000D02*
X282063000Y-127781000D01*
X223266000Y-120650000D02*
X224804000Y-120650000D01*
X271070000Y-126582000D02*
X270562000Y-126074000D01*
X245872000Y-120142000D02*
X246126000Y-119888000D01*
X163158000Y-118962000D02*
X165100000Y-120904000D01*
X189026000Y-118454000D02*
X201512000Y-118454000D01*
X207568000Y-118962000D02*
X221578000Y-118962000D01*
X227598000Y-117856000D02*
X241300000Y-117856000D01*
X183986000Y-119216000D02*
X185166000Y-120396000D01*
X168162000Y-120904000D02*
X169850000Y-119216000D01*
X287834000Y-123915000D02*
X285929000Y-123915000D01*
X246140000Y-119888000D02*
X248082000Y-117946000D01*
X243586000Y-120142000D02*
X245872000Y-120142000D01*
X264212000Y-126074000D02*
X262434000Y-127852000D01*
X144108000Y-118708000D02*
X146050000Y-120650000D01*
X270562000Y-126074000D02*
X264212000Y-126074000D01*
X150546000Y-118962000D02*
X163158000Y-118962000D01*
X165100000Y-120904000D02*
X168162000Y-120904000D01*
X271253000Y-127781000D02*
X271070000Y-127598000D01*
%TO.N,/2*%
X237196000Y-138176000D02*
X253999000Y-138176000D01*
X231013000Y-138049000D02*
X218527000Y-138049000D01*
X218490000Y-138012000D02*
X216802000Y-139700000D01*
X267132000Y-144744000D02*
X285548000Y-126328000D01*
X253999000Y-138176000D02*
X255396000Y-136779000D01*
X232156000Y-139192000D02*
X231013000Y-138049000D01*
X235852000Y-139192000D02*
X232156000Y-139192000D01*
X197244000Y-139954000D02*
X181698000Y-139954000D01*
X265990000Y-144744000D02*
X267132000Y-144744000D01*
X179502000Y-137758000D02*
X177560000Y-139700000D01*
X200874000Y-139700000D02*
X199186000Y-138012000D01*
X160034000Y-139192000D02*
X149224000Y-139192000D01*
X199186000Y-138012000D02*
X197244000Y-139954000D01*
X216802000Y-139700000D02*
X200874000Y-139700000D01*
X161214000Y-138012000D02*
X160034000Y-139192000D01*
X237032000Y-138012000D02*
X235852000Y-139192000D01*
X218527000Y-138049000D02*
X218490000Y-138012000D01*
X162902000Y-139700000D02*
X161214000Y-138012000D01*
X181698000Y-139954000D02*
X179502000Y-137758000D01*
X177560000Y-139700000D02*
X162902000Y-139700000D01*
X237032000Y-138012000D02*
X237196000Y-138176000D01*
%TO.N,/3*%
X190424000Y-157062000D02*
X201766000Y-157062000D01*
X244982000Y-158750000D02*
X246252000Y-157480000D01*
X221488000Y-157226000D02*
X223012000Y-158750000D01*
X152000000Y-156808000D02*
X164174000Y-156808000D01*
X262650000Y-158750000D02*
X264084000Y-157316000D01*
X242062000Y-158750000D02*
X244982000Y-158750000D01*
X266102000Y-157316000D02*
X273610000Y-149808000D01*
X225424000Y-158750000D02*
X227202000Y-156972000D01*
X170358000Y-156300000D02*
X182716000Y-156300000D01*
X264084000Y-157316000D02*
X266102000Y-157316000D01*
X208152000Y-157226000D02*
X221488000Y-157226000D01*
X206374000Y-159004000D02*
X208152000Y-157226000D01*
X223012000Y-158750000D02*
X225424000Y-158750000D01*
X167908000Y-158750000D02*
X170358000Y-156300000D01*
X203708000Y-159004000D02*
X206374000Y-159004000D01*
X240284000Y-156972000D02*
X242062000Y-158750000D01*
X273610000Y-149808000D02*
X273610000Y-139545500D01*
X182716000Y-156300000D02*
X185166000Y-158750000D01*
X188736000Y-158750000D02*
X190424000Y-157062000D01*
X258572000Y-157480000D02*
X259842000Y-158750000D01*
X273610000Y-139545500D02*
X282509500Y-130646000D01*
X164174000Y-156808000D02*
X166116000Y-158750000D01*
X227202000Y-156972000D02*
X240284000Y-156972000D01*
X201766000Y-157062000D02*
X203708000Y-159004000D01*
X166116000Y-158750000D02*
X167908000Y-158750000D01*
X185166000Y-158750000D02*
X188736000Y-158750000D01*
X259842000Y-158750000D02*
X262650000Y-158750000D01*
X282509500Y-130646000D02*
X282754000Y-130646000D01*
X246252000Y-157480000D02*
X258572000Y-157480000D01*
%TO.N,/4*%
X199896000Y-176276000D02*
X199896000Y-176278000D01*
X217042000Y-175260000D02*
X215900000Y-175260000D01*
X232410000Y-177546000D02*
X230124000Y-175260000D01*
X263652000Y-175768000D02*
X265938000Y-178054000D01*
X179958000Y-176404000D02*
X178308000Y-178054000D01*
X236652000Y-175858000D02*
X249264000Y-175858000D01*
X215900000Y-175260000D02*
X214884000Y-176276000D01*
X181228000Y-177546000D02*
X179958000Y-176276000D01*
X269000000Y-178054000D02*
X270688000Y-176366000D01*
X217550000Y-174752000D02*
X217042000Y-175260000D01*
X178308000Y-178054000D02*
X160020000Y-178054000D01*
X199896000Y-176278000D02*
X198628000Y-177546000D01*
X287834000Y-131535000D02*
X284160500Y-131535000D01*
X249264000Y-175858000D02*
X251206000Y-177800000D01*
X198628000Y-177546000D02*
X181228000Y-177546000D01*
X253618000Y-177800000D02*
X255650000Y-175768000D01*
X284160500Y-131535000D02*
X274880000Y-140815500D01*
X234964000Y-177546000D02*
X232410000Y-177546000D01*
X274880000Y-172174000D02*
X270688000Y-176366000D01*
X274880000Y-140815500D02*
X274880000Y-172174000D01*
X236652000Y-175858000D02*
X234964000Y-177546000D01*
X265938000Y-178054000D02*
X269000000Y-178054000D01*
X179958000Y-176276000D02*
X179958000Y-176404000D01*
X255650000Y-175768000D02*
X263652000Y-175768000D01*
X251206000Y-177800000D02*
X253618000Y-177800000D01*
X230124000Y-175260000D02*
X217042000Y-175260000D01*
X160020000Y-178054000D02*
X155448000Y-173482000D01*
X214884000Y-176276000D02*
X199896000Y-176276000D01*
%TO.N,/5*%
X194818000Y-194564000D02*
X199644000Y-189738000D01*
X149860000Y-167386000D02*
X153162000Y-170688000D01*
X261204000Y-135356000D02*
X261204000Y-125860000D01*
X142039000Y-135382000D02*
X144018000Y-135382000D01*
X177926000Y-194564000D02*
X194818000Y-194564000D01*
X259386000Y-124042000D02*
X259386000Y-119366000D01*
X153162000Y-170688000D02*
X153162000Y-189488000D01*
X147066000Y-150876000D02*
X149860000Y-153670000D01*
X199644000Y-185166000D02*
X203326000Y-181484000D01*
X146304000Y-137668000D02*
X146812000Y-137668000D01*
X129032000Y-122375000D02*
X142039000Y-135382000D01*
X199644000Y-189738000D02*
X199644000Y-185166000D01*
X230886000Y-177546000D02*
X220726000Y-177546000D01*
X234442000Y-181102000D02*
X230886000Y-177546000D01*
X217678000Y-180594000D02*
X203326000Y-180594000D01*
X203326000Y-181484000D02*
X203326000Y-180594000D01*
X239394000Y-181102000D02*
X234442000Y-181102000D01*
X147066000Y-137922000D02*
X147066000Y-150876000D01*
X157738000Y-196088000D02*
X152150000Y-190500000D01*
X153162000Y-189488000D02*
X152150000Y-190500000D01*
X130174000Y-113918000D02*
X129032000Y-115060000D01*
X176402000Y-196088000D02*
X157738000Y-196088000D01*
X261204000Y-125860000D02*
X259386000Y-124042000D01*
X177926000Y-194564000D02*
X176402000Y-196088000D01*
X149860000Y-153670000D02*
X149860000Y-167386000D01*
X241172000Y-182880000D02*
X239394000Y-181102000D01*
X144018000Y-135382000D02*
X146304000Y-137668000D01*
X146812000Y-137668000D02*
X147066000Y-137922000D01*
X220726000Y-177546000D02*
X217678000Y-180594000D01*
X259386000Y-119366000D02*
X260349000Y-118403000D01*
X260349000Y-117348000D02*
X260349000Y-118403000D01*
X129032000Y-115060000D02*
X129032000Y-122375000D01*
X130174000Y-100838000D02*
X130174000Y-113918000D01*
%TO.N,/Rotary_A*%
X286183000Y-121375000D02*
X284969000Y-122589000D01*
X284969000Y-122589000D02*
X271649000Y-122589000D01*
X269916000Y-120856000D02*
X266204000Y-120856000D01*
X288596000Y-121375000D02*
X286183000Y-121375000D01*
X271649000Y-122589000D02*
X269916000Y-120856000D01*
%TO.N,/Rotary_B*%
X281667000Y-115081000D02*
X285421000Y-118835000D01*
X272411000Y-115081000D02*
X281667000Y-115081000D01*
X271578000Y-115914000D02*
X272411000Y-115081000D01*
X269038000Y-116676000D02*
X269800000Y-117438000D01*
X285421000Y-118835000D02*
X288596000Y-118835000D01*
X267768000Y-113120000D02*
X269038000Y-114390000D01*
X271578000Y-116422000D02*
X271578000Y-115914000D01*
X270562000Y-117438000D02*
X271578000Y-116422000D01*
X269038000Y-114390000D02*
X269038000Y-116676000D01*
X269800000Y-117438000D02*
X270562000Y-117438000D01*
X264974000Y-113120000D02*
X267768000Y-113120000D01*
%TO.N,/E*%
X240538000Y-141732000D02*
X236220000Y-141732000D01*
X210058000Y-144907000D02*
X209097500Y-145867500D01*
X236220000Y-141732000D02*
X233045000Y-144907000D01*
X233045000Y-144907000D02*
X224282000Y-144907000D01*
X218495500Y-167695500D02*
X219456000Y-168656000D01*
X207827500Y-91749500D02*
X208788000Y-92710000D01*
X220853000Y-141478000D02*
X218059000Y-141478000D01*
X259828000Y-141732000D02*
X255270000Y-141732000D01*
X209097500Y-148645500D02*
X210058000Y-149606000D01*
X208788000Y-92710000D02*
X208788000Y-95491500D01*
X266204000Y-135356000D02*
X259828000Y-141732000D01*
X210058000Y-149606000D02*
X210058000Y-152387500D01*
X207827500Y-90225500D02*
X207827500Y-91749500D01*
X188777500Y-109021500D02*
X188777500Y-110545500D01*
X188777500Y-110545500D02*
X189738000Y-111506000D01*
X243840000Y-145034000D02*
X240538000Y-141732000D01*
X199191500Y-128071500D02*
X199191500Y-129595500D01*
X218495500Y-166171500D02*
X218495500Y-167695500D01*
X214630000Y-144907000D02*
X210058000Y-144907000D01*
X189738000Y-111506000D02*
X189738000Y-114287500D01*
X199191500Y-129595500D02*
X200152000Y-130556000D01*
X209097500Y-145867500D02*
X209097500Y-147121500D01*
X218059000Y-141478000D02*
X214630000Y-144907000D01*
X219456000Y-168656000D02*
X219456000Y-171437500D01*
X224282000Y-144907000D02*
X220853000Y-141478000D01*
X200152000Y-130556000D02*
X200152000Y-133337500D01*
X255270000Y-141732000D02*
X251968000Y-145034000D01*
X251968000Y-145034000D02*
X243840000Y-145034000D01*
X209097500Y-147121500D02*
X209097500Y-148645500D01*
%TO.N,/A*%
X268530000Y-123026000D02*
X269546000Y-122010000D01*
X262255000Y-96901000D02*
X260350000Y-98806000D01*
X229870000Y-88392000D02*
X232664000Y-88392000D01*
X132617500Y-94093423D02*
X133746923Y-92964000D01*
X250698000Y-88900000D02*
X254508000Y-85090000D01*
X243078000Y-85598000D02*
X246380000Y-88900000D01*
X132617500Y-95880000D02*
X132617500Y-94093423D01*
X260604000Y-85090000D02*
X262255000Y-86741000D01*
X117911500Y-128325500D02*
X117911500Y-129849500D01*
X140208000Y-85344000D02*
X148844000Y-85344000D01*
X226314000Y-84836000D02*
X229870000Y-88392000D01*
X213106000Y-88392000D02*
X216662000Y-84836000D01*
X189230000Y-88138000D02*
X194564000Y-88138000D01*
X131627500Y-90479500D02*
X131627500Y-92003500D01*
X186436000Y-85344000D02*
X189230000Y-88138000D01*
X208534000Y-85598000D02*
X211328000Y-88392000D01*
X135890000Y-89662000D02*
X140208000Y-85344000D01*
X159004000Y-85852000D02*
X170180000Y-85852000D01*
X270308000Y-105754000D02*
X270308000Y-116168000D01*
X122737500Y-147121500D02*
X122737500Y-148645500D01*
X123642500Y-187650500D02*
X123642500Y-190432000D01*
X123642500Y-154884500D02*
X125984000Y-157226000D01*
X235458000Y-85598000D02*
X243078000Y-85598000D01*
X246380000Y-88900000D02*
X250698000Y-88900000D01*
X123642500Y-152432000D02*
X123642500Y-154884500D01*
X118872000Y-130810000D02*
X118872000Y-133591500D01*
X117911500Y-129849500D02*
X118872000Y-130810000D01*
X122682000Y-185166000D02*
X122682000Y-186690000D01*
X260350000Y-103632000D02*
X265317569Y-103632000D01*
X128405000Y-171432000D02*
X128405000Y-174109000D01*
X197104000Y-85598000D02*
X208534000Y-85598000D01*
X128405000Y-174109000D02*
X126492000Y-176022000D01*
X148844000Y-85344000D02*
X151892000Y-88392000D01*
X132588000Y-92964000D02*
X132588000Y-95745500D01*
X122682000Y-186690000D02*
X123642500Y-187650500D01*
X211328000Y-88392000D02*
X213106000Y-88392000D01*
X176784000Y-87884000D02*
X179324000Y-85344000D01*
X232664000Y-88392000D02*
X235458000Y-85598000D01*
X127309500Y-167695500D02*
X128270000Y-168656000D01*
X216662000Y-84836000D02*
X226314000Y-84836000D01*
X131627500Y-92003500D02*
X132588000Y-92964000D01*
X268530000Y-124296000D02*
X268530000Y-123026000D01*
X265317569Y-103632000D02*
X265661569Y-103976000D01*
X170180000Y-85852000D02*
X172212000Y-87884000D01*
X128270000Y-168656000D02*
X128270000Y-171437500D01*
X151892000Y-88392000D02*
X156464000Y-88392000D01*
X120904000Y-137668000D02*
X118880000Y-135644000D01*
X179324000Y-85344000D02*
X186436000Y-85344000D01*
X135890000Y-92202000D02*
X135890000Y-89662000D01*
X194564000Y-88138000D02*
X197104000Y-85598000D01*
X122737500Y-148645500D02*
X123698000Y-149606000D01*
X112577500Y-110545500D02*
X113538000Y-111506000D01*
X268530000Y-103976000D02*
X270308000Y-105754000D01*
X156464000Y-88392000D02*
X159004000Y-85852000D01*
X135128000Y-92964000D02*
X135890000Y-92202000D01*
X112577500Y-109021500D02*
X112577500Y-110545500D01*
X262255000Y-86741000D02*
X262255000Y-96901000D01*
X123698000Y-149606000D02*
X123698000Y-152387500D01*
X113617500Y-116157500D02*
X116078000Y-118618000D01*
X254508000Y-85090000D02*
X260604000Y-85090000D01*
X127309500Y-166171500D02*
X127309500Y-167695500D01*
X133746923Y-92964000D02*
X135128000Y-92964000D01*
X118880000Y-135644000D02*
X118880000Y-133432000D01*
X172212000Y-87884000D02*
X176784000Y-87884000D01*
X113538000Y-111506000D02*
X113538000Y-114287500D01*
X113617500Y-114432000D02*
X113617500Y-116157500D01*
X265661569Y-103976000D02*
X268530000Y-103976000D01*
%TO.N,/B*%
X150368000Y-154853000D02*
X150368000Y-159766000D01*
X149738000Y-95880000D02*
X148082000Y-97536000D01*
X142549500Y-128071500D02*
X142549500Y-129595500D01*
X249936000Y-122682000D02*
X246634000Y-122682000D01*
X131627500Y-109021500D02*
X131627500Y-110545500D01*
X142549500Y-129595500D02*
X143510000Y-130556000D01*
X155212000Y-171432000D02*
X153924000Y-172720000D01*
X152908000Y-149606000D02*
X152908000Y-152387500D01*
X152789000Y-152432000D02*
X150368000Y-154853000D01*
X170180000Y-122428000D02*
X166624000Y-125984000D01*
X176022000Y-125984000D02*
X172466000Y-122428000D01*
X234442000Y-126238000D02*
X231140000Y-122936000D01*
X151947500Y-148645500D02*
X152908000Y-149606000D01*
X205232000Y-125730000D02*
X195326000Y-125730000D01*
X147574000Y-142748000D02*
X151947500Y-147121500D01*
X150677500Y-92257500D02*
X151638000Y-93218000D01*
X148082000Y-97536000D02*
X148082000Y-100330000D01*
X231140000Y-122936000D02*
X227076000Y-122936000D01*
X243840000Y-125476000D02*
X237236000Y-125476000D01*
X150368000Y-159766000D02*
X156773500Y-166171500D01*
X161345500Y-167695500D02*
X162306000Y-168656000D01*
X224282000Y-125730000D02*
X214376000Y-125730000D01*
X143264000Y-133432000D02*
X147574000Y-137742000D01*
X236474000Y-126238000D02*
X234442000Y-126238000D01*
X211836000Y-123190000D02*
X207772000Y-123190000D01*
X147574000Y-100838000D02*
X135890000Y-100838000D01*
X157281500Y-186491500D02*
X158242000Y-187452000D01*
X144891000Y-125730000D02*
X142549500Y-128071500D01*
X195326000Y-125730000D02*
X192532000Y-122936000D01*
X137723500Y-128071500D02*
X142549500Y-128071500D01*
X148082000Y-100330000D02*
X147574000Y-100838000D01*
X143510000Y-130556000D02*
X143510000Y-133337500D01*
X161345500Y-166171500D02*
X161345500Y-167695500D01*
X151638000Y-122682000D02*
X148590000Y-125730000D01*
X151617500Y-95880000D02*
X149738000Y-95880000D01*
X132080000Y-104648000D02*
X132080000Y-108569000D01*
X158242000Y-187452000D02*
X158242000Y-190233500D01*
X172466000Y-122428000D02*
X170180000Y-122428000D01*
X129794000Y-116840000D02*
X129794000Y-120142000D01*
X132080000Y-108569000D02*
X131627500Y-109021500D01*
X151947500Y-147121500D02*
X151947500Y-148645500D01*
X151638000Y-93218000D02*
X151638000Y-95999500D01*
X129794000Y-120142000D02*
X137723500Y-128071500D01*
X131627500Y-110545500D02*
X132588000Y-111506000D01*
X135890000Y-100838000D02*
X132080000Y-104648000D01*
X246634000Y-122682000D02*
X243840000Y-125476000D01*
X192532000Y-122936000D02*
X188976000Y-122936000D01*
X185928000Y-125984000D02*
X176022000Y-125984000D01*
X132617500Y-114432000D02*
X132202000Y-114432000D01*
X132588000Y-111506000D02*
X132588000Y-114287500D01*
X162306000Y-168656000D02*
X162306000Y-171437500D01*
X157226000Y-125984000D02*
X153924000Y-122682000D01*
X255016000Y-129540000D02*
X255016000Y-127762000D01*
X162314000Y-171432000D02*
X155212000Y-171432000D01*
X156773500Y-166171500D02*
X161345500Y-166171500D01*
X147574000Y-137742000D02*
X147574000Y-142748000D01*
X153924000Y-172720000D02*
X153924000Y-181610000D01*
X153924000Y-181610000D02*
X157281500Y-184967500D01*
X188976000Y-122936000D02*
X185928000Y-125984000D01*
X207772000Y-123190000D02*
X205232000Y-125730000D01*
X157281500Y-184967500D02*
X157281500Y-186491500D01*
X153924000Y-122682000D02*
X151638000Y-122682000D01*
X148590000Y-125730000D02*
X144891000Y-125730000D01*
X132202000Y-114432000D02*
X129794000Y-116840000D01*
X214376000Y-125730000D02*
X211836000Y-123190000D01*
X150677500Y-90733500D02*
X150677500Y-92257500D01*
X166624000Y-125984000D02*
X157226000Y-125984000D01*
X237236000Y-125476000D02*
X236474000Y-126238000D01*
X262434000Y-132678000D02*
X268276000Y-132678000D01*
X227076000Y-122936000D02*
X224282000Y-125730000D01*
X255016000Y-127762000D02*
X249936000Y-122682000D01*
%TO.N,/C*%
X264720000Y-143346000D02*
X264720000Y-154611000D01*
X270054000Y-131408000D02*
X271070000Y-130392000D01*
X182372000Y-187452000D02*
X182372000Y-190233500D01*
X169727500Y-90612750D02*
X169727500Y-92136750D01*
X181411500Y-184967500D02*
X181411500Y-186491500D01*
X264720000Y-154611000D02*
X265303000Y-155194000D01*
X181411500Y-186491500D02*
X182372000Y-187452000D01*
X270054000Y-138012000D02*
X270054000Y-131408000D01*
X181356000Y-168656000D02*
X181356000Y-171437500D01*
X170688000Y-93097250D02*
X170688000Y-95878750D01*
X161091500Y-128204750D02*
X161091500Y-129728750D01*
X150677500Y-109154750D02*
X150677500Y-110678750D01*
X180395500Y-166171500D02*
X180395500Y-167695500D01*
X170743500Y-146867500D02*
X170743500Y-148391500D01*
X151638000Y-111639250D02*
X151638000Y-114420750D01*
X180395500Y-167695500D02*
X181356000Y-168656000D01*
X150677500Y-110678750D02*
X151638000Y-111639250D01*
X264720000Y-143346000D02*
X270054000Y-138012000D01*
X162052000Y-130689250D02*
X162052000Y-133470750D01*
X161091500Y-129728750D02*
X162052000Y-130689250D01*
X169727500Y-92136750D02*
X170688000Y-93097250D01*
X171704000Y-149352000D02*
X171704000Y-152133500D01*
X170743500Y-148391500D02*
X171704000Y-149352000D01*
X271070000Y-130392000D02*
X271324000Y-130392000D01*
%TO.N,/D*%
X189738000Y-92710000D02*
X189738000Y-95491500D01*
X199445500Y-167441500D02*
X200406000Y-168402000D01*
X180395500Y-128071500D02*
X180395500Y-129595500D01*
X258840000Y-179160000D02*
X274880000Y-179160000D01*
X275896000Y-142584000D02*
X275896000Y-141568000D01*
X181356000Y-130556000D02*
X181356000Y-133337500D01*
X187452000Y-90424000D02*
X189738000Y-92710000D01*
X222758000Y-192278000D02*
X222758000Y-192204500D01*
X250242000Y-187758000D02*
X240232000Y-187758000D01*
X180395500Y-129595500D02*
X181356000Y-130556000D01*
X170688000Y-111506000D02*
X170688000Y-114287500D01*
X190754000Y-149860000D02*
X190754000Y-152641500D01*
X199445500Y-165917500D02*
X199445500Y-167441500D01*
X250242000Y-187758000D02*
X258840000Y-179160000D01*
X223774000Y-193294000D02*
X222758000Y-192278000D01*
X189793500Y-147375500D02*
X189793500Y-148899500D01*
X220019500Y-185221500D02*
X220019500Y-186745500D01*
X169727500Y-110545500D02*
X170688000Y-111506000D01*
X200406000Y-168402000D02*
X200406000Y-171183500D01*
X189793500Y-148899500D02*
X190754000Y-149860000D01*
X220980000Y-187706000D02*
X220980000Y-190487500D01*
X274880000Y-179160000D02*
X275642000Y-178398000D01*
X169727500Y-109021500D02*
X169727500Y-110545500D01*
X228092000Y-193294000D02*
X223774000Y-193294000D01*
X220019500Y-186745500D02*
X220980000Y-187706000D01*
X229329000Y-192057000D02*
X228092000Y-193294000D01*
X240232000Y-187758000D02*
X235933000Y-192057000D01*
X222758000Y-192204500D02*
X220985500Y-190432000D01*
X275642000Y-178398000D02*
X275896000Y-142584000D01*
X235933000Y-192057000D02*
X229329000Y-192057000D01*
%TO.N,/F*%
X219456000Y-130302000D02*
X219456000Y-133083500D01*
X239686000Y-139028000D02*
X259132000Y-139028000D01*
X239686000Y-139028000D02*
X239072000Y-139642000D01*
X207573500Y-110545500D02*
X208534000Y-111506000D01*
X237545500Y-167441500D02*
X238506000Y-168402000D01*
X218495500Y-129341500D02*
X219456000Y-130302000D01*
X224086000Y-139642000D02*
X223647000Y-140081000D01*
X245927500Y-110545500D02*
X246888000Y-111506000D01*
X270571305Y-119216000D02*
X264212000Y-119216000D01*
X259386000Y-138774000D02*
X259386000Y-135980000D01*
X245927500Y-108402500D02*
X245927500Y-109021500D01*
X251587000Y-106934000D02*
X247396000Y-106934000D01*
X207573500Y-109021500D02*
X207573500Y-110545500D01*
X218495500Y-127817500D02*
X218495500Y-129341500D01*
X250063000Y-117602000D02*
X246893000Y-114432000D01*
X259132000Y-139028000D02*
X259386000Y-138774000D01*
X246888000Y-111506000D02*
X246888000Y-114287500D01*
X227893500Y-147121500D02*
X227893500Y-148645500D01*
X227893500Y-148645500D02*
X228854000Y-149606000D01*
X259386000Y-135980000D02*
X256182500Y-132776500D01*
X246893000Y-114432000D02*
X246617500Y-114432000D01*
X256182500Y-132776500D02*
X256182500Y-124346500D01*
X226623500Y-92003500D02*
X227584000Y-92964000D01*
X208534000Y-111506000D02*
X208534000Y-114287500D01*
X250063000Y-118227000D02*
X250063000Y-117602000D01*
X247396000Y-106934000D02*
X245927500Y-108402500D01*
X262763000Y-117767000D02*
X262763000Y-108458000D01*
X256182500Y-124346500D02*
X250063000Y-118227000D01*
X239072000Y-139642000D02*
X224086000Y-139642000D01*
X237545500Y-165917500D02*
X237545500Y-167441500D01*
X238506000Y-168402000D02*
X238506000Y-171183500D01*
X254254000Y-104267000D02*
X251587000Y-106934000D01*
X226623500Y-90479500D02*
X226623500Y-92003500D01*
X262763000Y-108458000D02*
X258572000Y-104267000D01*
X227584000Y-92964000D02*
X227584000Y-95745500D01*
X273356000Y-116431305D02*
X270571305Y-119216000D01*
X245927500Y-109021500D02*
X245927500Y-110545500D01*
X264212000Y-119216000D02*
X262763000Y-117767000D01*
X258572000Y-104267000D02*
X254254000Y-104267000D01*
X228854000Y-149606000D02*
X228854000Y-152387500D01*
X273356000Y-116295000D02*
X273356000Y-116431305D01*
%TO.N,/G*%
X281738000Y-114136000D02*
X283897000Y-116295000D01*
X246181500Y-148645500D02*
X247142000Y-149606000D01*
X246634000Y-92964000D02*
X246634000Y-95745500D01*
X113617500Y-95880000D02*
X113642500Y-95880000D01*
X258572000Y-116967000D02*
X258572000Y-118491000D01*
X226623500Y-109021500D02*
X226623500Y-110545500D01*
X130810000Y-98933000D02*
X142748000Y-98933000D01*
X116713000Y-89789000D02*
X121158000Y-85344000D01*
X237545500Y-128071500D02*
X237545500Y-129595500D01*
X129794000Y-87376000D02*
X129794000Y-97917000D01*
X189230000Y-104394000D02*
X191770000Y-106934000D01*
X283897000Y-116295000D02*
X288596000Y-116295000D01*
X175006000Y-107188000D02*
X177800000Y-104394000D01*
X151638000Y-107188000D02*
X155956000Y-107188000D01*
X191770000Y-106934000D02*
X194183000Y-106934000D01*
X259842000Y-115697000D02*
X258572000Y-116967000D01*
X177800000Y-104394000D02*
X189230000Y-104394000D01*
X271500000Y-112541000D02*
X276079000Y-112541000D01*
X203581000Y-104140000D02*
X206502000Y-107061000D01*
X113617500Y-95880000D02*
X113617500Y-95170500D01*
X196977000Y-104140000D02*
X203581000Y-104140000D01*
X226623500Y-110545500D02*
X227584000Y-111506000D01*
X129794000Y-97917000D02*
X130810000Y-98933000D01*
X155956000Y-107188000D02*
X158750000Y-104394000D01*
X257875000Y-123521000D02*
X257862000Y-123534000D01*
X277674000Y-114136000D02*
X281738000Y-114136000D01*
X212852000Y-107061000D02*
X215900000Y-104013000D01*
X247142000Y-149606000D02*
X247142000Y-152387500D01*
X215900000Y-104013000D02*
X221615000Y-104013000D01*
X256595500Y-166171500D02*
X256595500Y-167695500D01*
X221615000Y-104013000D02*
X226623500Y-109021500D01*
X127762000Y-85344000D02*
X129794000Y-87376000D01*
X264466000Y-110580000D02*
X269038000Y-110580000D01*
X245673500Y-92003500D02*
X246634000Y-92964000D01*
X257875000Y-119188000D02*
X257875000Y-123521000D01*
X257556000Y-168656000D02*
X257556000Y-171437500D01*
X206502000Y-107061000D02*
X212852000Y-107061000D01*
X158750000Y-104394000D02*
X169164000Y-104394000D01*
X258572000Y-118491000D02*
X257875000Y-119188000D01*
X245673500Y-90479500D02*
X245673500Y-92003500D01*
X171958000Y-107188000D02*
X175006000Y-107188000D01*
X112831500Y-92257500D02*
X113792000Y-93218000D01*
X116713000Y-92075000D02*
X116713000Y-89789000D01*
X148082000Y-103632000D02*
X151638000Y-107188000D01*
X261620000Y-115697000D02*
X259842000Y-115697000D01*
X112831500Y-90733500D02*
X112831500Y-92257500D01*
X113617500Y-95170500D02*
X116713000Y-92075000D01*
X246181500Y-147121500D02*
X246181500Y-148645500D01*
X227584000Y-111506000D02*
X227584000Y-114287500D01*
X169164000Y-104394000D02*
X171958000Y-107188000D01*
X256595500Y-167695500D02*
X257556000Y-168656000D01*
X194183000Y-106934000D02*
X196977000Y-104140000D01*
X238506000Y-130556000D02*
X238506000Y-133337500D01*
X113792000Y-93218000D02*
X113792000Y-95999500D01*
X237545500Y-129595500D02*
X238506000Y-130556000D01*
X121158000Y-85344000D02*
X127762000Y-85344000D01*
X276079000Y-112541000D02*
X277674000Y-114136000D01*
D31*
%TO.N,/Bat+*%
X268530000Y-145886000D02*
X268530000Y-152236000D01*
X271578000Y-125312000D02*
X271578000Y-125820000D01*
X282000000Y-103819000D02*
X278840500Y-100659500D01*
X272340000Y-142076000D02*
X268530000Y-145886000D01*
X270816000Y-124550000D02*
X271578000Y-125312000D01*
X270816000Y-123026000D02*
X270816000Y-124550000D01*
X282000000Y-109500000D02*
X282000000Y-103819000D01*
D30*
%TO.N,/VCC*%
X278384000Y-149024000D02*
X285084000Y-155724000D01*
X286694000Y-155724000D02*
X286694000Y-159724000D01*
X278384000Y-146558000D02*
X278384000Y-149024000D01*
X285084000Y-155724000D02*
X286694000Y-155724000D01*
%TO.N,/TXD*%
X288342000Y-145886000D02*
X290457000Y-143771000D01*
X282825000Y-112429000D02*
X280976000Y-110580000D01*
X271500000Y-105995856D02*
X272965144Y-107461000D01*
X270800000Y-102000000D02*
X270800000Y-102800000D01*
X270800000Y-102800000D02*
X271500000Y-103500000D01*
X271500000Y-103500000D02*
X271500000Y-105995856D01*
X272965144Y-107461000D02*
X277857000Y-107461000D01*
X289087000Y-112429000D02*
X282825000Y-112429000D01*
X290457000Y-143771000D02*
X290457000Y-113799000D01*
X277857000Y-107461000D02*
X280976000Y-110580000D01*
X290457000Y-113799000D02*
X289087000Y-112429000D01*
%TO.N,/RXI*%
X290007000Y-142189000D02*
X290007000Y-115877144D01*
X268690396Y-103500000D02*
X266568000Y-103500000D01*
X289098856Y-114969000D02*
X283333000Y-114969000D01*
X290007000Y-115877144D02*
X289098856Y-114969000D01*
X265938000Y-102572000D02*
X266510000Y-102000000D01*
X265938000Y-102870000D02*
X265938000Y-102572000D01*
X266568000Y-103500000D02*
X265938000Y-102870000D01*
X272759000Y-110001000D02*
X271000000Y-108242000D01*
X283333000Y-114969000D02*
X278436000Y-110072000D01*
X271000000Y-105809604D02*
X268690396Y-103500000D01*
X271000000Y-108242000D02*
X271000000Y-105809604D01*
X278365000Y-110001000D02*
X272759000Y-110001000D01*
X278436000Y-110072000D02*
X278365000Y-110001000D01*
X286818000Y-145378000D02*
X290007000Y-142189000D01*
%TO.N,/Bat-*%
X271070000Y-181446000D02*
X275388000Y-181446000D01*
D31*
X282500000Y-164936000D02*
X286104000Y-164936000D01*
X286104000Y-164936000D02*
X290700000Y-160340000D01*
D30*
X278182000Y-151322000D02*
X276700000Y-149840000D01*
X289094000Y-157724000D02*
X289094000Y-160446000D01*
D31*
X290882000Y-146487041D02*
X290882000Y-112000000D01*
D30*
X278182000Y-162840000D02*
X278182000Y-178652000D01*
X276700000Y-149840000D02*
X276700000Y-142288000D01*
D31*
X282500000Y-190323500D02*
X282500000Y-164936000D01*
X290700000Y-160340000D02*
X290700000Y-146669041D01*
X280475500Y-192348000D02*
X282500000Y-190323500D01*
D30*
X275388000Y-181446000D02*
X278182000Y-178652000D01*
X267260000Y-185256000D02*
X271070000Y-181446000D01*
X289094000Y-160446000D02*
X286700000Y-162840000D01*
X276700000Y-142288000D02*
X278182000Y-140806000D01*
X278182000Y-162840000D02*
X278182000Y-151322000D01*
D31*
X290882000Y-102882000D02*
X290500000Y-102500000D01*
X290882000Y-112000000D02*
X290882000Y-102882000D01*
X290700000Y-146669041D02*
X290882000Y-146487041D01*
D30*
X286700000Y-162840000D02*
X278182000Y-162840000D01*
%TO.N,Net-(TXD2-COM)*%
X278182000Y-102960000D02*
X278436000Y-103214000D01*
X278436000Y-104230000D02*
X278944000Y-104738000D01*
X278944000Y-104738000D02*
X278944000Y-105754000D01*
X278436000Y-103214000D02*
X278436000Y-104230000D01*
X275642000Y-102960000D02*
X278182000Y-102960000D01*
X275134000Y-104357000D02*
X275134000Y-103468000D01*
X273356000Y-106135000D02*
X275134000Y-104357000D01*
X275134000Y-103468000D02*
X275642000Y-102960000D01*
%TO.N,Net-(D33-A)*%
X260467500Y-111892000D02*
X260467500Y-113929500D01*
X260604000Y-109392500D02*
X260644500Y-109352000D01*
X260467500Y-113929500D02*
X257049000Y-117348000D01*
X260604000Y-111760000D02*
X260604000Y-109392500D01*
%TO.N,/SDA*%
X282754000Y-146140000D02*
X284278000Y-146140000D01*
X284278000Y-146140000D02*
X286564000Y-143854000D01*
X286564000Y-143854000D02*
X286564000Y-135980000D01*
%TO.N,/SCL*%
X285548000Y-136488000D02*
X283770000Y-134710000D01*
X285548000Y-143600000D02*
X285548000Y-136488000D01*
%TO.N,Net-(COM_SELECT1-COM)*%
X281194000Y-155724000D02*
X281194000Y-159724000D01*
%TO.N,Net-(P3-COM)*%
X284405000Y-128995000D02*
X283770000Y-129630000D01*
X288596000Y-128995000D02*
X284405000Y-128995000D01*
%TO.N,Net-(SCL1-COM)*%
X273356000Y-128995000D02*
X279579000Y-128995000D01*
X279579000Y-128995000D02*
X280214000Y-129630000D01*
%TO.N,Net-(SDA1-COM)*%
X276658000Y-125820000D02*
X276023000Y-126455000D01*
X276023000Y-126455000D02*
X273356000Y-126455000D01*
%TO.N,Net-(D35-A)*%
X127467500Y-93340000D02*
X127467500Y-90972500D01*
X127467500Y-93340000D02*
X127467500Y-100244500D01*
X127467500Y-100244500D02*
X126874000Y-100838000D01*
X127467500Y-90972500D02*
X127508000Y-90932000D01*
%TO.N,/6*%
X262128000Y-100838000D02*
X263162000Y-100838000D01*
X182626000Y-102616000D02*
X186182000Y-102616000D01*
X260604000Y-102362000D02*
X262128000Y-100838000D01*
X162052000Y-99314000D02*
X164338000Y-101600000D01*
X187452000Y-101346000D02*
X201676000Y-101346000D01*
X167258000Y-101600000D02*
X168782000Y-100076000D01*
X268800000Y-101668000D02*
X268800000Y-102000000D01*
X164338000Y-101600000D02*
X167258000Y-101600000D01*
X224408000Y-102108000D02*
X225932000Y-100584000D01*
X219456000Y-100584000D02*
X220980000Y-102108000D01*
X243840000Y-101092000D02*
X243840000Y-101346000D01*
X267632000Y-100500000D02*
X268800000Y-101668000D01*
X248284000Y-100330000D02*
X252476000Y-100330000D01*
X168782000Y-100076000D02*
X180086000Y-100076000D01*
X202946000Y-102616000D02*
X204724000Y-102616000D01*
X263162000Y-100838000D02*
X263500000Y-100500000D01*
X243840000Y-101346000D02*
X244348000Y-101854000D01*
X225932000Y-100584000D02*
X237744000Y-100584000D01*
X204724000Y-102616000D02*
X206756000Y-100584000D01*
X263500000Y-100500000D02*
X267632000Y-100500000D01*
X149860000Y-99314000D02*
X162052000Y-99314000D01*
X180086000Y-100076000D02*
X182626000Y-102616000D01*
X220980000Y-102108000D02*
X224408000Y-102108000D01*
X254508000Y-102362000D02*
X260604000Y-102362000D01*
X237744000Y-100584000D02*
X239268000Y-99060000D01*
X206756000Y-100584000D02*
X219456000Y-100584000D01*
X247142000Y-100330000D02*
X248284000Y-100330000D01*
X252476000Y-100330000D02*
X254508000Y-102362000D01*
X244348000Y-101854000D02*
X245618000Y-101854000D01*
X241808000Y-99060000D02*
X243840000Y-101092000D01*
X201676000Y-101346000D02*
X202946000Y-102616000D01*
X245618000Y-101854000D02*
X247142000Y-100330000D01*
X239268000Y-99060000D02*
X241808000Y-99060000D01*
X186182000Y-102616000D02*
X187452000Y-101346000D01*
%TO.N,Net-(D34-A)*%
X146467500Y-93340000D02*
X146467500Y-99221500D01*
X146304000Y-93218000D02*
X146304000Y-90850500D01*
X146467500Y-99221500D02*
X146560000Y-99314000D01*
X146304000Y-90850500D02*
X146344500Y-90810000D01*
%TO.N,Net-(D36-A)*%
X165354000Y-91104500D02*
X165394500Y-91064000D01*
X165467500Y-93340000D02*
X165467500Y-100061500D01*
X165354000Y-93472000D02*
X165354000Y-91104500D01*
X165467500Y-100061500D02*
X165482000Y-100076000D01*
%TO.N,Net-(D37-A)*%
X182880000Y-100074000D02*
X184152000Y-101346000D01*
X182880000Y-94927500D02*
X182880000Y-100074000D01*
X184404000Y-93351250D02*
X184404000Y-90983750D01*
X184467500Y-93340000D02*
X182880000Y-94927500D01*
X184404000Y-90983750D02*
X184444500Y-90943250D01*
%TO.N,Net-(D38-A)*%
X203454000Y-90596500D02*
X203494500Y-90556000D01*
X203454000Y-92964000D02*
X203454000Y-90596500D01*
X203467500Y-100572500D02*
X203456000Y-100584000D01*
X203467500Y-93340000D02*
X203467500Y-100572500D01*
%TO.N,Net-(D39-A)*%
X222504000Y-90596500D02*
X222544500Y-90556000D01*
X222504000Y-92964000D02*
X222504000Y-90596500D01*
X222467500Y-100419500D02*
X222632000Y-100584000D01*
X222467500Y-93340000D02*
X222467500Y-100419500D01*
%TO.N,Net-(D40-A)*%
X241467500Y-93340000D02*
X241467500Y-96813500D01*
X241300000Y-90850500D02*
X241340500Y-90810000D01*
X241300000Y-93218000D02*
X241300000Y-90850500D01*
X241467500Y-96813500D02*
X244984000Y-100330000D01*
%TO.N,Net-(D41-A)*%
X259334000Y-94473500D02*
X259334000Y-94488000D01*
X260350000Y-93218000D02*
X260350000Y-90850500D01*
X259334000Y-94488000D02*
X258828000Y-94994000D01*
X260467500Y-93340000D02*
X259334000Y-94473500D01*
X260350000Y-90850500D02*
X260390500Y-90810000D01*
X258828000Y-94994000D02*
X258828000Y-100838000D01*
%TD*%
M02*
