M48
; DRILL file {KiCad 8.0.4} date 2024-11-20T20:15:19-0700
; FORMAT={-:-/ absolute / metric / decimal}
; #@! TF.CreationDate,2024-11-20T20:15:19-07:00
; #@! TF.GenerationSoftware,Kicad,Pcbnew,8.0.4
; #@! TF.FileFunction,Plated,1,2,PTH
FMAT,2
METRIC
; #@! TA.AperFunction,Plated,PTH,ViaDrill
T1C0.400
; #@! TA.AperFunction,Plated,PTH,ComponentDrill
T2C0.400
; #@! TA.AperFunction,Plated,PTH,ComponentDrill
T3C0.700
; #@! TA.AperFunction,Plated,PTH,ComponentDrill
T4C0.889
; #@! TA.AperFunction,Plated,PTH,ComponentDrill
T5C0.900
; #@! TA.AperFunction,Plated,PTH,ComponentDrill
T6C1.000
; #@! TA.AperFunction,Plated,PTH,ComponentDrill
T7C1.500
%
G90
G05
T1
X112.578Y-109.021
X112.831Y-90.733
X116.078Y-118.618
X117.911Y-128.326
X120.904Y-137.668
X122.682Y-185.166
X122.737Y-147.121
X125.984Y-157.226
X126.492Y-176.022
X127.309Y-166.171
X127.508Y-90.932
X127.548Y-109.352
X131.627Y-90.48
X131.627Y-109.021
X132.629Y-128.402
X137.454Y-147.452
X137.454Y-185.298
X142.28Y-166.502
X142.549Y-128.071
X142.748Y-98.933
X146.344Y-90.81
X146.344Y-109.352
X148.082Y-103.632
X150.677Y-90.733
X150.677Y-109.155
X151.947Y-147.121
X157.266Y-128.402
X157.281Y-184.968
X161.091Y-128.205
X161.345Y-166.171
X165.394Y-91.064
X165.394Y-109.485
X166.665Y-147.452
X169.727Y-90.613
X169.727Y-109.021
X170.743Y-146.868
X171.998Y-185.298
X175.808Y-128.535
X176.062Y-166.502
X180.395Y-128.071
X180.395Y-166.171
X181.411Y-184.968
X184.445Y-90.943
X184.445Y-109.352
X185.46Y-147.198
X187.452Y-90.424
X188.778Y-109.021
X189.793Y-147.375
X195.112Y-128.402
X195.112Y-166.502
X196.129Y-185.298
X199.191Y-128.071
X199.445Y-165.917
X203.494Y-90.556
X203.494Y-109.352
X204.51Y-147.706
X207.573Y-109.021
X207.827Y-90.225
X209.097Y-147.121
X213.909Y-128.402
X214.162Y-166.248
X218.495Y-127.817
X218.495Y-166.171
X220.019Y-185.221
X222.29Y-109.352
X222.544Y-90.556
X223.647Y-140.081
X223.814Y-147.452
X226.623Y-90.48
X226.623Y-109.021
X227.893Y-147.121
X233.212Y-128.148
X233.212Y-166.502
X234.736Y-185.552
X237.545Y-128.071
X237.545Y-165.917
X241.34Y-90.81
X241.34Y-109.352
X242.611Y-147.452
X245.673Y-90.48
X245.927Y-109.021
X246.181Y-147.121
X252.262Y-128.402
X252.262Y-166.248
X255.016Y-129.54
X256.596Y-166.171
X257.862Y-123.534
X260.35Y-98.806
X260.35Y-103.632
X260.39Y-90.81
X260.644Y-109.352
X260.899Y-147.452
X261.62Y-115.697
X262.434Y-127.852
X262.434Y-132.678
X264.466Y-110.58
X265.303Y-155.194
X265.99Y-144.744
X268.276Y-132.678
X268.53Y-124.296
X268.53Y-152.236
X269.038Y-110.58
X269.546Y-122.01
X270.308Y-116.168
X270.816Y-123.026
X271.312Y-166.502
X271.324Y-130.392
X271.578Y-112.358
X271.578Y-125.82
X272.34Y-142.076
X275.896Y-141.568
X276.658Y-125.82
X278.182Y-140.806
X278.384Y-146.558
X278.436Y-110.072
X278.944Y-105.754
X280.214Y-129.63
X280.976Y-110.58
X282.246Y-109.564
X282.754Y-130.646
X282.754Y-146.14
X283.77Y-129.63
X283.77Y-134.71
X285.548Y-126.328
X285.548Y-143.6
X286.564Y-135.98
X286.818Y-145.378
X288.342Y-145.886
T2
X126.874Y-100.838
X127.816Y-118.708
X130.174Y-100.838
X131.116Y-118.708
X145.924Y-139.192
X146.56Y-99.314
X147.246Y-118.962
X148.7Y-156.808
X148.85Y-190.5
X149.224Y-139.192
X149.86Y-99.314
X150.546Y-118.962
X152.0Y-156.808
X152.148Y-173.482
X152.15Y-190.5
X155.448Y-173.482
X157.914Y-138.012
X161.214Y-138.012
X165.482Y-100.076
X166.55Y-119.216
X167.058Y-156.3
X168.782Y-100.076
X169.85Y-119.216
X170.358Y-156.3
X174.626Y-194.564
X176.202Y-137.758
X176.658Y-176.276
X177.926Y-194.564
X179.502Y-137.758
X179.958Y-176.276
X184.152Y-101.346
X185.726Y-118.454
X187.124Y-157.062
X187.452Y-101.346
X189.026Y-118.454
X190.424Y-157.062
X195.886Y-138.012
X196.596Y-176.276
X199.186Y-138.012
X199.896Y-176.276
X200.026Y-180.594
X203.326Y-180.594
X203.456Y-100.584
X204.268Y-118.962
X204.852Y-157.226
X206.756Y-100.584
X207.568Y-118.962
X208.152Y-157.226
X214.25Y-174.752
X215.19Y-138.012
X217.55Y-174.752
X218.49Y-138.012
X222.632Y-100.584
X223.446Y-118.708
X223.902Y-156.972
X225.932Y-100.584
X226.746Y-118.708
X227.202Y-156.972
X233.352Y-175.858
X233.732Y-138.012
X236.652Y-175.858
X237.032Y-138.012
X237.872Y-182.88
X241.172Y-182.88
X242.952Y-157.48
X244.782Y-117.946
X244.984Y-100.33
X246.252Y-157.48
X248.082Y-117.946
X248.284Y-100.33
X252.096Y-136.779
X252.35Y-175.768
X255.396Y-136.779
X255.65Y-175.768
X257.049Y-117.348
X258.828Y-100.838
X260.349Y-117.348
X260.784Y-157.316
X262.128Y-100.838
X264.084Y-157.316
X267.388Y-176.366
X270.688Y-176.366
T3
X264.974Y-105.5
X264.974Y-113.12
X267.26Y-107.024
X267.26Y-114.644
T4
X273.356Y-103.595
X273.356Y-106.135
X273.356Y-108.675
X273.356Y-111.215
X273.356Y-113.755
X273.356Y-116.295
X273.356Y-118.835
X273.356Y-121.375
X273.356Y-123.915
X273.356Y-126.455
X273.356Y-128.995
X273.356Y-131.535
X273.356Y-134.075
X288.596Y-103.595
X288.596Y-106.135
X288.596Y-108.675
X288.596Y-111.215
X288.596Y-113.755
X288.596Y-116.295
X288.596Y-118.835
X288.596Y-121.375
X288.596Y-123.915
X288.596Y-126.455
X288.596Y-128.995
X288.596Y-131.535
X288.596Y-134.075
T5
X267.26Y-185.256
X269.8Y-185.256
X272.34Y-185.256
X274.88Y-185.256
X288.628Y-173.096
X288.628Y-175.096
X288.628Y-177.096
T6
X261.204Y-120.856
X261.204Y-135.356
X263.704Y-120.856
X266.204Y-120.856
X266.204Y-135.356
X280.476Y-189.848
X280.476Y-192.348
T7
X288.628Y-170.996
X288.628Y-179.196
T6
G00X281.194Y-155.224
M15
G01X281.194Y-156.224
M16
G05
G00X281.194Y-159.224
M15
G01X281.194Y-160.224
M16
G05
G00X286.694Y-155.224
M15
G01X286.694Y-156.224
M16
G05
G00X286.694Y-159.224
M15
G01X286.694Y-160.224
M16
G05
G00X289.094Y-157.224
M15
G01X289.094Y-158.224
M16
G05
T7
G00X258.104Y-127.706
M15
G01X258.104Y-129.006
M16
G05
G00X269.304Y-127.706
M15
G01X269.304Y-129.006
M16
G05
M30
